<svg xmlns="http://www.w3.org/2000/svg" viewBox="0 0 48 48"><title>26-beer</title><g id="_26-beer" data-name="26-beer"><path d="M39,16H37V13.42a4.181,4.181,0,0,1-2.14.58,3.861,3.861,0,0,1-.84-.09L34,14V40a2.006,2.006,0,0,1-2,2H16a2.006,2.006,0,0,1-2-2V13l-.02-.09a3.861,3.861,0,0,1-.84.09A4.181,4.181,0,0,1,11,12.42V42h-.5a2.5,2.5,0,0,0,0,5h27a2.5,2.5,0,0,0,0-5H37V38h2c4.42,0,7-3.58,7-8V24C46,19.58,43.42,16,39,16Zm3,14c0,2.21-.79,4-3,4H37V20h2c2.21,0,3,1.79,3,4Z" style="fill:#e0e2e9"/><rect x="35" y="20" width="2" height="14" style="fill:#e9edf5"/><path d="M39,16H37c4.42,0,7,3.58,7,8v6c0,4.42-2.58,8-7,8h2c4.42,0,7-3.58,7-8V24C46,19.58,43.42,16,39,16Z" style="fill:#e9edf5"/><path d="M37.5,45h-27a2.5,2.5,0,0,1-2.289-1.5A2.5,2.5,0,0,0,10.5,47h27a2.5,2.5,0,0,0,2.289-3.5A2.5,2.5,0,0,1,37.5,45Z" style="fill:#d4d7e1"/><path d="M34,22V40a2.006,2.006,0,0,1-2,2H16a2.006,2.006,0,0,1-2-2V22Z" style="fill:#f5d882"/><path d="M34.02,13.91,34,14V40a2.006,2.006,0,0,1-2,2H16a2.006,2.006,0,0,1-2-2V13l-.02-.09a3.861,3.861,0,0,1-.84.09c-.047,0-.093-.008-.14-.009V40a3,3,0,0,0,3,3H32a3,3,0,0,0,3-3V13.991c-.047,0-.093.009-.14.009A3.861,3.861,0,0,1,34.02,13.91Z" style="fill:#c7cbd8"/><path d="M37.5,46h-27a2.5,2.5,0,0,1-2.448-1.991A2.485,2.485,0,0,0,10.5,47h27a2.485,2.485,0,0,0,2.448-2.991A2.5,2.5,0,0,1,37.5,46Z" style="fill:#bec3d2"/><path d="M34,14v8H14V13l-.02-.09a4.4,4.4,0,0,0,.62-.18A4.12,4.12,0,0,0,18.31,15a4.188,4.188,0,0,0,2.84-1.1A6.248,6.248,0,0,0,26.59,17c.14,0,.27-.02.41-.03V19a2,2,0,0,0,4,0V15.19a5.978,5.978,0,0,0,1.37-2.02,4.193,4.193,0,0,0,1.65.74Z" style="fill:#f2f5f9"/><path d="M37,13.42a4.181,4.181,0,0,1-2.14.58,3.861,3.861,0,0,1-.84-.09,4.193,4.193,0,0,1-1.65-.74A5.978,5.978,0,0,1,31,15.19V19a2,2,0,0,1-4,0V16.97c-.14.01-.27.03-.41.03a6.248,6.248,0,0,1-5.44-3.1A4.188,4.188,0,0,1,18.31,15a4.12,4.12,0,0,1-3.71-2.27,4.4,4.4,0,0,1-.62.18,3.861,3.861,0,0,1-.84.09A4.181,4.181,0,0,1,11,12.42,3.964,3.964,0,0,1,9,9a4.069,4.069,0,0,1,4.14-4,4.35,4.35,0,0,1,.96.12,3.981,3.981,0,0,1,6.48-2.16,3.964,3.964,0,0,1,6.84,0A3.986,3.986,0,0,1,34,6c0,.03-.01.07-.01.1a4.141,4.141,0,0,1,.87-.1A4.069,4.069,0,0,1,39,10,3.964,3.964,0,0,1,37,13.42Z" style="fill:#f8fafc"/><path d="M29,19a2.006,2.006,0,0,1-2-2v2a2,2,0,0,0,4,0V17A2.006,2.006,0,0,1,29,19Z" style="fill:#f2f5f9"/><path d="M26.59,15a6.248,6.248,0,0,1-5.44-3.1A4.188,4.188,0,0,1,18.31,13a4.12,4.12,0,0,1-3.71-2.27,4.4,4.4,0,0,1-.62.18,3.861,3.861,0,0,1-.84.09A4.181,4.181,0,0,1,11,10.42a4.016,4.016,0,0,1-1.861-2.4A3.848,3.848,0,0,0,9,9a3.964,3.964,0,0,0,2,3.42,4.181,4.181,0,0,0,2.14.58,3.861,3.861,0,0,0,.84-.09,4.4,4.4,0,0,0,.62-.18A4.12,4.12,0,0,0,18.31,15a4.188,4.188,0,0,0,2.84-1.1A6.248,6.248,0,0,0,26.59,17c.14,0,.27-.02.41-.03v-2C26.86,14.98,26.73,15,26.59,15Z" style="fill:#f2f5f9"/><path d="M37,11.42a4.181,4.181,0,0,1-2.14.58,3.861,3.861,0,0,1-.84-.09,4.193,4.193,0,0,1-1.65-.74A5.978,5.978,0,0,1,31,13.19v2a5.978,5.978,0,0,0,1.37-2.02,4.193,4.193,0,0,0,1.65.74,3.861,3.861,0,0,0,.84.09A4.181,4.181,0,0,0,37,13.42,3.964,3.964,0,0,0,39,10a3.848,3.848,0,0,0-.139-.977A4.016,4.016,0,0,1,37,11.42Z" style="fill:#f2f5f9"/><path d="M13.98,15.91,14,15.9V13l-.02-.09a3.861,3.861,0,0,1-.84.09A4.181,4.181,0,0,1,11,12.42v3a4.181,4.181,0,0,0,2.14.58A3.861,3.861,0,0,0,13.98,15.91Z" style="fill:#c7cbd8"/><path d="M34.86,17a4.111,4.111,0,0,0,2.722-1H37V13.42a4.181,4.181,0,0,1-2.14.58,3.861,3.861,0,0,1-.84-.09L34,14v2.9l.02.007A3.861,3.861,0,0,0,34.86,17Z" style="fill:#c7cbd8"/><path d="M29,24a2.006,2.006,0,0,0,2-2H27A2.006,2.006,0,0,0,29,24Z" style="fill:#f5cd62"/><path d="M29,21a2.006,2.006,0,0,1-2-2V16.97c-.14.01-.27.03-.41.03a6.248,6.248,0,0,1-5.44-3.1A4.188,4.188,0,0,1,18.31,15a4.12,4.12,0,0,1-3.71-2.27,4.4,4.4,0,0,1-.62.18L14,13v2.9a4.431,4.431,0,0,0,.6-.174A4.12,4.12,0,0,0,18.31,18a4.188,4.188,0,0,0,2.84-1.1A6.248,6.248,0,0,0,26.59,20c.14,0,.27-.02.41-.03V22h4V19A2.006,2.006,0,0,1,29,21Z" style="fill:#e0e2e9"/><path d="M34.02,13.91a4.193,4.193,0,0,1-1.65-.74A5.978,5.978,0,0,1,31,15.19v3a5.978,5.978,0,0,0,1.37-2.02A4.194,4.194,0,0,0,34,16.9V14Z" style="fill:#e0e2e9"/><path d="M31.6,12.5a5.7,5.7,0,0,0,.774-1.334,4.193,4.193,0,0,0,1.65.74,3.861,3.861,0,0,0,.84.09A4.181,4.181,0,0,0,37,11.42a4.016,4.016,0,0,0,1.861-2.4A4.116,4.116,0,0,0,33.99,6.1c0-.03.01-.07.01-.1a3.986,3.986,0,0,0-6.58-3.04,3.964,3.964,0,0,0-6.84,0,3.967,3.967,0,0,0-6.337,1.713C16.856,8.433,23.372,11.38,31.6,12.5Z" style="fill:#fafbfd"/><path d="M16,42H32a2.006,2.006,0,0,0,2-2v-.693A23.994,23.994,0,0,1,14,22.366V40A2.006,2.006,0,0,0,16,42Z" style="fill:#f5cd62"/><circle cx="20.5" cy="28.5" r="0.5" style="fill:#f5c64a"/><circle cx="30.5" cy="29.5" r="0.5" style="fill:#f5c64a"/><circle cx="29.5" cy="31.5" r="0.5" style="fill:#fcf7ca"/><circle cx="26.5" cy="29.5" r="0.5" style="fill:#fcf7ca"/><circle cx="26.5" cy="23.5" r="0.5" style="fill:#f8fafc"/><circle cx="23.5" cy="25.5" r="0.5" style="fill:#f8fafc"/><circle cx="20.5" cy="23.5" r="0.5" style="fill:#f8fafc"/><circle cx="20.5" cy="25.5" r="0.5" style="fill:#f8fafc"/><circle cx="23.5" cy="27.5" r="0.5" style="fill:#fcf7ca"/><circle cx="30.5" cy="24.5" r="0.5" style="fill:#f8fafc"/><circle cx="28.5" cy="27.5" r="0.5" style="fill:#f5c64a"/><circle cx="27.5" cy="33.5" r="0.5" style="fill:#fcf7ca"/><circle cx="23.5" cy="37.5" r="0.5" style="fill:#f5d882"/><circle cx="31.5" cy="27.5" r="0.5" style="fill:#f8fafc"/><circle cx="27.5" cy="39.5" r="0.5" style="fill:#f5d882"/><circle cx="32.5" cy="30.5" r="0.5" style="fill:#fcf7ca"/><circle cx="18.5" cy="36.5" r="0.5" style="fill:#f5bc27"/><circle cx="25.5" cy="38.5" r="0.5" style="fill:#f5bc27"/><circle cx="20.5" cy="35.5" r="0.5" style="fill:#f5bc27"/><circle cx="23.5" cy="39.5" r="0.5" style="fill:#f5bc27"/><circle cx="23.5" cy="33.5" r="0.5" style="fill:#fcf7ca"/><circle cx="30" cy="40" r="1" style="fill:#f5bc27"/><circle cx="17" cy="32" r="1" style="fill:#f5bc27"/><circle cx="16" cy="35" r="1" style="fill:#f5bc27"/><circle cx="18" cy="40" r="1" style="fill:#f5bc27"/><circle cx="25" cy="32" r="1" style="fill:#f5c64a"/><circle cx="22" cy="31" r="1" style="fill:#fcf7ca"/><ellipse cx="30.003" cy="35.987" rx="1.642" ry="2.286" transform="translate(-16.66 31.771) rotate(-45.02)" style="fill:#f6fafd"/><ellipse cx="37" cy="44" rx="0.825" ry="1.148" transform="translate(-20.277 39.07) rotate(-45.02)" style="fill:#f6fafd"/><ellipse cx="26" cy="35" rx="0.825" ry="1.148" transform="translate(-17.136 28.651) rotate(-45.02)" style="fill:#f6fafd"/><ellipse cx="34.746" cy="43.5" rx="0.413" ry="0.574" transform="translate(-20.585 37.329) rotate(-45.02)" style="fill:#f6fafd"/><path d="M39,15H38V13.93A4.929,4.929,0,0,0,40,10a5.076,5.076,0,0,0-5.1-5A5.008,5.008,0,0,0,30,1a4.938,4.938,0,0,0-2.348.6,4.964,4.964,0,0,0-7.3,0,4.963,4.963,0,0,0-6.931,2.407A5.07,5.07,0,0,0,8,9a4.929,4.929,0,0,0,2,3.93v28.1A3.5,3.5,0,0,0,10.5,48h27a3.5,3.5,0,0,0,.5-6.965V39h1c4.71,0,8-3.7,8-9V24C47,18.7,43.71,15,39,15ZM13.138,6a3.184,3.184,0,0,1,.737.095,1.013,1.013,0,0,0,.759-.126,1,1,0,0,0,.446-.628,2.97,2.97,0,0,1,4.848-1.615,1,1,0,0,0,1.506-.251,2.969,2.969,0,0,1,5.132,0,1,1,0,0,0,1.506.251,2.983,2.983,0,0,1,4.933,2.181c-.005.043-.014.135-.015.178a1,1,0,0,0,.366.788,1.016,1.016,0,0,0,.845.2A3.125,3.125,0,0,1,34.862,7,3.075,3.075,0,0,1,38,10a3.075,3.075,0,0,1-3.138,3,3.19,3.19,0,0,1-1.9-.633,1,1,0,0,0-1.521.432A4.973,4.973,0,0,1,30.3,14.482a1,1,0,0,0-.3.712V19a1,1,0,0,1-2,0V16.969a1,1,0,0,0-1-1l-.063,0-.2.017c-.052.005-.1.012-.156.012a5.245,5.245,0,0,1-4.566-2.6,1,1,0,0,0-1.544-.241A3.2,3.2,0,0,1,18.311,14a3.123,3.123,0,0,1-2.821-1.716,1,1,0,0,0-1.237-.492A3.1,3.1,0,0,1,10,9,3.075,3.075,0,0,1,13.138,6ZM45,30c0,3.484-1.855,7-6,7H37a1,1,0,0,0-1,1v4a1,1,0,0,0,1,1h.5a1.5,1.5,0,0,1,0,3h-27a1.5,1.5,0,0,1,0-3H11a1,1,0,0,0,1-1V13.867a5.219,5.219,0,0,0,1,.119V35h2V23h2V21H15V14.814a5.215,5.215,0,0,0,5.907.494A7.277,7.277,0,0,0,26,17.977V19a3,3,0,0,0,6,0V15.6a7.15,7.15,0,0,0,.78-1.034c.071.031.148.042.22.07V25h2V14.986a5.219,5.219,0,0,0,1-.119V16a1,1,0,0,0,1,1h2c4.145,0,6,3.516,6,7Z"/><path d="M39,19H37a1,1,0,0,0-1,1V34a1,1,0,0,0,1,1h2c2.505,0,4-1.869,4-5V24C43,20.869,41.505,19,39,19Zm2,11c0,3-1.505,3-2,3H38V21h1c.495,0,2,0,2,3Z"/><rect x="33" y="27" width="2" height="2"/><path d="M33,40a1,1,0,0,1-1,1H16a1,1,0,0,1-1-1V37H13v3a3,3,0,0,0,3,3H32a3,3,0,0,0,3-3V31H33Z"/><rect x="19" y="21" width="7" height="2"/><rect x="29" y="31" width="2" height="2"/><rect x="17" y="25" width="2" height="2"/><rect x="29" y="35" width="2" height="2"/></g></svg>