<?xml version="1.0" encoding="UTF-8"?><svg id="b" xmlns="http://www.w3.org/2000/svg" width="257.174" height="361.088" viewBox="0 0 257.174 361.088"><defs><style>.h{fill:#bdbdbd;}.i{fill:#211715;}.j{fill:#fff;}.k{fill:#5394cf;}.l{fill:#ffda71;}.m{fill:#645d5c;}</style></defs><g id="c"><g id="d"><path class="j" d="M185.77,88.218c1.644-1.484,4.082-2.201,6.36-1.861,2.279.341,4.354,1.715,5.397,3.588.737,1.314.975,2.81,1.111,4.269.499,5.753-.635,11.615-3.243,16.857-1.27,2.554-2.925,4.999-5.227,6.86-2.135,1.703-4.282,2.517-7.826.722-.525,3.164-1.639,6.19-2.07,7.477-1.677,4.482-10.458,19.15-21.873,26.136.015,3.605.209,7.357,1.409,10.331,2.58,6.39,16.52,14.43,17.48,14.85,0,0-5.409,34.723-45.705,34.723s-41.775-34.723-41.775-34.723c.96-.42,12.71-7.34,15.3-13.73,1.215-2.998,1.399-6.769,1.406-10.366-5.206-2.532-10.006-6.538-14.313-11.613-6.049-7.128-9.161-15.151-10.858-21.892-3.286,1.313-5.738-.382-7.659-1.915-2.302-1.861-3.957-4.305-5.227-6.86-2.608-5.242-3.741-11.104-3.243-16.857.136-1.459.374-2.955,1.111-4.269,1.043-1.873,3.118-3.247,5.397-3.588,2.279-.341,4.716.377,6.36,1.861,0,0-1.538-44.716,54.462-44.716s53.222,44.716,53.222,44.716Z"/><path class="m" d="M77.992,87.892c1.722,1.773,2.682-1.859,3.333-3.278,1.037-2.259,2.556-5.556,3.667-7.778.612-1.223,1.494-3.016,2.035-4.265.573-1.323,1.181-2.627,1.823-3.91,1.299-2.597,2.735-5.11,4.294-7.528.748-1.16,1.559-2.334,2.747-3.114,3.37-2.212,7.995-.427,12.106-.736,4.566-.344,8.349-3.291,12.561-4.97,5.855-2.333,14.834-2.948,20.508-.255,2.87.148,5.546.022,8.148,0,2.241-.019,5.389-.13,8.722.389,8.37,1.921,14.179,6.539,18.389,13.537,2.5,4.156,5.369,10.054,6.63,14.671.5,1.829.944,3.685,1.24,5.569.099.63.171,1.276.229,1.91.04.43.47.583,1.484-.104l-.139.189c1.634-1.475,4.052-2.193,6.319-1.867,3.973-13.051,2.899-29.599-.963-39.465-2.657-6.787-6.726-14.621-14.97-19.146l-7.568-6.696c-3.397-6.9-10.497-12.808-19.83-16.141-9.781-3.493-38.294-4.086-47.879,4.202l-9.841,6.73c-10.977,5.01-18.721,17.001-22.019,29.358-3.399,12.733-3.428,31.19,1.356,41.513,2.611-.949,5.735-.273,7.711,1.511"/><path class="i" d="M170.661,19.833c-5.013-10.006-16.012-16.761-26.84-18.606-10.057-1.714-20.759-1.656-30.771.324-4.921.973-9.987,2.559-13.868,5.858-.988.84-.864,2.53,0,3.394.979.979,2.404.842,3.394,0,.037-.031.584-.477.185-.167.175-.136.357-.264.539-.39.378-.261.767-.505,1.164-.736.693-.402,1.912-.993,2.313-1.158,2.009-.831,4.12-1.424,6.239-1.897,4.745-1.06,9.565-1.466,14.447-1.558,8.952-.168,17.701.326,25.762,4.561,5.552,2.917,10.451,7.13,13.291,12.798,1.384,2.762,5.526.334,4.145-2.423h0Z"/><path class="i" d="M180.222,115.846c-.075,2.208-.587,4.355-1.219,6.465-.238.794-.498,1.581-.766,2.366-.092.272-.183.544-.278.815-.063.181-.361.837-.05.145-.944,2.106-2.091,4.115-3.317,6.069-3.682,5.869-8.167,11.371-13.548,15.765-2.975,2.429-6.364,4.464-10.072,5.523-2.965.847-1.705,5.48,1.276,4.629,7.661-2.188,14.042-7.702,19.168-13.613,4.058-4.679,7.92-9.941,10.487-15.611,1.755-3.878,2.975-8.299,3.119-12.552.105-3.09-4.695-3.086-4.8,0h0Z"/><path class="i" d="M78.039,115.913c2.86,15.318,11.035,30.027,24.738,38.146,3.655,2.166,7.699,3.719,11.906,4.358,1.28.194,2.58-.323,2.952-1.676.312-1.135-.387-2.756-1.676-2.952-14.621-2.222-25.812-15.469-30.546-28.775-1.201-3.377-2.088-6.855-2.746-10.377-.238-1.275-1.778-1.999-2.952-1.676-1.338.368-1.915,1.674-1.676,2.952h0Z"/><path class="i" d="M187.467,89.915c2.152-1.838,5.812-1.629,7.603.636,1.081,1.367,1.182,3.325,1.254,4.992.083,1.923.01,3.876-.302,5.777-.627,3.83-1.928,7.572-3.998,10.865-1.537,2.446-4.083,5.753-7.328,4.86-2.983-.821-4.255,3.809-1.276,4.629,8.347,2.297,13.82-7.566,16.002-14.107,1.304-3.91,1.898-8.127,1.691-12.245-.202-4.015-1.27-7.835-4.927-10.017-3.881-2.317-8.741-1.664-12.114,1.216-.986.842-.866,2.528,0,3.394.977.977,2.405.844,3.394,0h0Z"/><path class="i" d="M79.783,86.521c-3.103-2.65-7.339-3.394-11.103-1.724-3.837,1.702-5.448,5.237-5.842,9.218-.803,8.1,1.63,17.156,6.923,23.417,2.833,3.352,6.921,6.044,11.452,4.99,3.008-.699,1.734-5.329-1.276-4.629-3.153.733-6.22-2.766-7.77-5.088-2.19-3.281-3.568-7.075-4.258-10.946-.339-1.901-.446-3.843-.392-5.772.047-1.678.087-3.697,1.069-5.138,1.706-2.504,5.533-2.874,7.804-.934.985.841,2.427.967,3.394,0,.862-.862.99-2.549,0-3.394h0Z"/><path class="i" d="M89.827,13.763c-9.655,4.481-16.452,13.586-20.498,23.189-4.166,9.886-5.508,20.956-5.044,31.622.249,5.71,1.002,11.558,3.007,16.938.453,1.214,1.624,2.041,2.952,1.676,1.166-.321,2.131-1.732,1.676-2.952-3.418-9.168-3.458-19.659-2.325-29.26,1.141-9.676,4.38-19.279,10.395-27.041,3.281-4.233,7.386-7.765,12.258-10.026,1.176-.546,1.471-2.24.861-3.284-.705-1.206-2.104-1.409-3.284-.861h0Z"/><path class="i" d="M174.946,29.813c6.633,3.706,10.789,10.064,13.572,16.969,2.972,7.375,3.87,15.501,3.648,23.403-.139,4.957-.796,9.87-2.132,14.65-.833,2.98,3.797,4.252,4.629,1.276,2.54-9.09,2.898-18.799,1.63-28.123-1.071-7.872-3.67-15.692-8.177-22.293-2.806-4.111-6.389-7.591-10.748-10.027-2.7-1.508-5.123,2.636-2.423,4.145h0Z"/><path class="i" d="M140.262,50.818c-5.36-2.479-11.357-3.157-17.127-1.822-2.863.663-5.488,1.961-8.085,3.298-2.261,1.164-4.661,2.445-7.251,2.601-2.716.164-5.403-.524-8.118-.383-2.946.153-5.487,1.274-7.332,3.615-3.719,4.718-5.968,10.399-8.58,15.746-1.202,2.461-2.139,5.041-3.378,7.482-.566,1.116-1.238,2.159-1.732,3.31-.208.486-.415.97-.669,1.434.019-.035-.256.396-.253.403-.334-.649,1.954-.306,1.952-.308-2.266-2.093-5.669,1.293-3.394,3.394,2.073,1.914,4.6,1.18,5.899-1.178.394-.714.643-1.496,1.009-2.224.666-1.326,1.448-2.578,2.061-3.935,2.243-4.964,4.322-10.023,6.93-14.815.727-1.335,1.491-2.65,2.293-3.941.685-1.103,1.341-2.34,2.347-3.191,1.882-1.592,4.849-.983,7.083-.773,2.836.266,5.583.23,8.303-.72,2.674-.934,5.115-2.37,7.659-3.591,5.585-2.68,12.302-2.876,17.958-.26,1.176.544,2.586.332,3.284-.861.606-1.036.321-2.737-.861-3.284h0Z"/><path class="i" d="M118.826,39.12c6.462-1.468,12.923-.255,18.647,3.033,2.253,1.294,4.245,2.91,5.887,4.93,1.621,1.994,2.836,4.318,3.994,6.599,1.399,2.755,5.542.328,4.145-2.423-2.835-5.582-6.372-10.336-11.934-13.439-6.8-3.793-14.409-5.058-22.014-3.329-3.011.684-1.737,5.313,1.276,4.629h0Z"/><path class="i" d="M157.962,53.93c5.918,1.404,10.594,4.995,14.098,9.905,3.858,5.405,7.07,11.713,8.766,18.146.303,1.15.58,2.307.807,3.474.211,1.086.217,2.25.477,3.318.596,2.442,3.246,2.426,5.01,1.33,2.618-1.627.211-5.782-2.423-4.145-.771.379-.423.501,1.045.366l.861.861c.191.632.231.63.122-.007-.046-.373-.095-.745-.146-1.117-.09-.63-.196-1.258-.317-1.883-.242-1.245-.54-2.479-.868-3.703-.553-2.065-1.289-4.063-2.117-6.033-1.658-3.947-3.614-7.796-5.953-11.385-4.332-6.649-10.215-11.889-18.086-13.756-3.003-.713-4.285,3.915-1.276,4.629h0Z"/><path class="h" d="M254.77,358.391c-3.259-68.074-11.152-127.691-17.333-148.296-1.778-5.926-4.444-9.481-7.407-11.852-2.97-2.376-7.889-3.944-11.314-5.598-11.131-5.377-25.664-11.363-37.072-16.123l-2.175-.908c-3.621-3.726-7.787-7.15-11.216-9.223-4.982,21.36-13.834,44.417-20.852,65.197-4.709,13.944-9.417,27.888-14.126,41.831-6.279-15.57-10.432-26.048-15.761-41.831-7.017-20.78-15.869-43.837-20.852-65.197-3.408,2.061-7.545,5.456-11.155,9.157-12.67,5.28-28.49,11.83-40.69,17.72-3.85,1.86-8.37,2.73-11.29,5.86-3.11,3.33-5.16,6.83-6.79,11.08-8.67,22.64-11.39,30.04-17.14,51.54-2.25,7.76-5.44,20.2-6.63,30.13-1.29,10.78-.91,18.78,3.63,28.38s12.78,14.88,25.39,13.51c5.99-.66,11.97-3.69,16.51-7.66,2.49-2.175,4.918-4.978,7.156-8.103.096,3.932.037,7.914-.136,12.093-.41,9.63-.86,16.18-1.52,28.4l200.773-.107Z"/><path class="j" d="M135.094,175.633c-.099.077-.169.147-.201.207h-4.637c-.152-.283-1.161-.802-2.054-1.161-10.565-4.25-19.38-10.731-23.24-15.921-3.808,3.501-5.018,6.209-7.495,10.953,5.086,20.413,13.392,42.17,20.047,61.879,5.33,15.783,9.482,26.262,15.761,41.831,4.709-13.944,9.417-27.887,14.126-41.831,6.688-19.806,15.043-41.681,20.123-62.182-2.372-4.557-3.61-7.224-7.337-10.649-3.861,5.19-12.675,11.671-23.24,15.921-.704.283-1.481.667-1.852.955Z"/><path class="i" d="M156.013,153.266c.065,3.745.291,7.773,2.017,11.174,1.642,3.235,4.658,5.803,7.456,8.013,1.016.803,2.402.992,3.394,0,.834-.834,1.023-2.586,0-3.394-1.386-1.095-2.735-2.242-3.978-3.499-1.087-1.099-1.9-2.006-2.615-3.329-.076-.14-.146-.283-.216-.425.131.266.005.026-.046-.111-.134-.359-.255-.722-.362-1.09-.222-.764-.387-1.545-.514-2.33-.25-1.549-.306-3.354-.335-5.008-.022-1.297-1.087-2.4-2.4-2.4-1.284,0-2.423,1.098-2.4,2.4h0Z"/><path class="i" d="M99.72,173.593c2.915-2.36,5.957-5.155,7.465-8.666,1.564-3.642,1.721-7.72,1.738-11.631.013-3.089-4.787-3.093-4.8,0-.007,1.76-.04,3.526-.234,5.277-.151,1.37-.497,3.072-.954,4.181-1.257,3.048-4.117,5.427-6.61,7.445-1.008.816-.849,2.545,0,3.394.997.997,2.383.818,3.394,0h0Z"/><path class="j" d="M150.881,193.503c7.111-8.444,11.556-15.667,16-25.333-1.985-3.828-3.319-6.308-6.695-9.412-3.861,5.19-12.675,11.671-23.24,15.921-.893.359-1.902.879-2.054,1.161-.253.471.239.885.471,1.255.363.581,2.148,2.074,5.185,5.407,3.446,3.782,7.481,7.593,10.333,11Z"/><path class="j" d="M114.266,193.503c-7.111-8.444-11.556-15.667-16-25.333,1.985-3.828,3.319-6.308,6.695-9.412,3.861,5.19,12.675,11.671,23.24,15.921.893.359,1.902.879,2.054,1.161.253.471-.239.885-.471,1.255-.363.581-2.148,2.074-5.185,5.407-3.446,3.782-7.481,7.593-10.333,11Z"/><path class="k" d="M135.523,178.835c-2.608.009-4.777.014-7.413.016-.864.856-2.041,2.038-3.51,3.652-.787.864-1.605,1.729-2.432,2.591.582,3.019.99,4.927,1.632,7.674.104.483.224.949.345,1.432.259,1.035.518,2.105.518,3.175,0,.616-3.02,22.656-5.133,40.092,4.423,12.7,8.279,22.397,13.746,35.954,4.319-12.789,8.638-25.579,12.957-38.369-2.658-17.775-5.471-36.349-5.454-37.332.035-1.915.638-3.796,1.242-5.625.744-2.285,1.201-4.284,1.688-6.248-1.074-1.11-2.142-2.228-3.159-3.344-1.482-1.626-2.665-2.814-3.531-3.672-.517.002-1.013.003-1.494.005Z"/><path class="i" d="M125.395,199.628c4.969-.002,9.938-.11,14.908-.112,1.255,0,2.458-1.104,2.4-2.4s-1.055-2.401-2.4-2.4c-4.969.002-9.938.11-14.908.112-1.255,0-2.458,1.104-2.4,2.4s1.055,2.401,2.4,2.4h0Z"/><path class="i" d="M120.087,186.935c.429,2.165.895,4.321,1.398,6.47.316,1.353.854,2.779.759,4.184-.101,1.483-.371,2.972-.563,4.444-.886,6.783-1.786,13.564-2.659,20.349-.601,4.668-1.191,9.337-1.762,14.009-.157,1.289,1.216,2.4,2.4,2.4,1.428,0,2.242-1.107,2.4-2.4.991-8.115,2.041-16.223,3.104-24.329.624-4.764,1.471-9.554,1.866-14.344.122-1.475-.279-2.975-.631-4.396-.629-2.538-1.174-5.098-1.683-7.663-.252-1.272-1.768-2.002-2.952-1.676-1.327.365-1.929,1.677-1.676,2.952h0Z"/><path class="i" d="M136.733,176.436c-2.947.005-5.894.013-8.841.019-1.255.002-2.458,1.102-2.4,2.4s1.055,2.402,2.4,2.4c2.947-.005,5.894-.013,8.841-.019,1.255-.002,2.458-1.102,2.4-2.4s-1.055-2.402-2.4-2.4h0Z"/><path class="i" d="M148.543,234.401c-1.159-7.749-2.326-15.497-3.476-23.248-.427-2.881-.853-5.762-1.267-8.645-.147-1.027-.292-2.055-.433-3.083-.025-.185.056.441-.007-.052-.019-.149-.039-.297-.058-.445-.033-.261-.072-.523-.094-.785-.092-1.116.162-2.205.459-3.278.583-2.108,1.303-4.167,1.838-6.29.755-2.996-3.873-4.275-4.629-1.276-.852,3.385-2.635,6.99-2.497,10.536.058,1.481.37,2.979.577,4.443.901,6.405,1.873,12.801,2.83,19.198.709,4.734,1.419,9.468,2.127,14.202.192,1.283,1.81,1.99,2.952,1.676,1.374-.377,1.869-1.665,1.676-2.952h0Z"/><path class="i" d="M129.53,277.02c-1.72,5.277-2.897,10.933-2.782,16.503.073,3.536.459,7.083.683,10.612.682,10.781,1.126,21.572,1.877,32.349.516,7.406,1.097,14.808,1.747,22.204.114,1.291,1.022,2.4,2.4,2.4,1.21,0,2.514-1.101,2.4-2.4-1.86-21.155-2.784-42.353-4.229-63.534-.39-5.72.767-11.439,2.534-16.858.96-2.944-3.674-4.205-4.629-1.276h0Z"/><path class="i" d="M152.62,269.825c12.585-21.054,25.033-42.213,36.547-63.876.832-1.565,1.542-3.1.944-4.889-.528-1.579-1.908-2.728-3.05-3.871-2.507-2.511-5.122-4.909-7.751-7.29l-.486,3.769c2.009-1.108,4.018-2.216,6.027-3.324,1.75-.965,4.407-1.885,4.528-4.237.081-1.571-1.04-3.14-1.863-4.41-.908-1.402-1.928-2.734-2.986-4.025-4.215-5.147-9.382-9.877-15.069-13.352-1.286-.786-3.175-.061-3.526,1.434-3.405,14.528-8.185,28.695-13.077,42.778-4.984,14.347-9.9,28.714-14.759,43.104-2.857,8.462-5.715,16.924-8.572,25.385-.99,2.933,3.644,4.192,4.629,1.276,5.133-15.2,10.264-30.4,15.398-45.599,4.73-14.005,9.848-27.879,14.34-41.964,2.494-7.821,4.797-15.708,6.67-23.703l-3.526,1.434c3.704,2.264,7.029,5.131,10.089,8.196,1.617,1.62,3.175,3.315,4.583,5.122.587.753,1.141,1.536,1.66,2.337.262.404.515.813.755,1.23.102.177.202.355.298.535.071.131.14.263.207.396.112.23.095.172-.053-.173l.328-1.211c.17-.169.133-.17-.111-.003-.215.119-.431.237-.646.356-.287.158-.574.317-.861.475-.789.435-1.579.871-2.368,1.306-1.507.831-3.014,1.662-4.52,2.493-1.306.721-1.619,2.743-.486,3.769,2.22,2.01,4.43,4.033,6.573,6.125.452.441.9.885,1.345,1.332.434.436,1.383,1.131,1.642,1.687.092.197.118-.057-.031.291-.321.75-.785,1.478-1.169,2.198-2.69,5.037-5.435,10.046-8.217,15.033-5.741,10.293-11.642,20.497-17.619,30.655-3.301,5.609-6.626,11.202-9.965,16.788-1.589,2.658,2.56,5.074,4.145,2.423h0Z"/><path class="i" d="M86.944,188.838c-1.234-.685-2.449-1.405-3.668-2.117-.653-.382-1.306-.764-1.962-1.142-.278-.16-.555-.321-.834-.479-.16-.091-.639-.508-.475-.204l.328,1.211c.016.382-.148.322.084-.09.099-.177.193-.357.293-.533.235-.416.483-.824.741-1.226.512-.799,1.058-1.581,1.637-2.333,1.433-1.862,3.036-3.603,4.696-5.265,3.061-3.065,6.386-5.933,10.089-8.196l-3.526-1.434c3.405,14.528,8.185,28.695,13.077,42.778,4.723,13.597,9.24,27.283,14.296,40.76,2.798,7.458,5.759,14.852,8.736,22.24.484,1.201,1.6,2.048,2.952,1.676,1.14-.313,2.164-1.743,1.676-2.952-5.282-13.11-10.403-26.268-14.944-39.656-4.75-14.002-9.846-27.89-14.352-41.974-2.549-7.967-4.903-16.001-6.812-24.147-.35-1.496-2.24-2.22-3.526-1.434-6.093,3.724-11.607,8.869-15.978,14.497-1.923,2.476-6.162,7.321-2.311,9.911,2.326,1.564,4.909,2.894,7.361,4.255,2.703,1.501,5.127-2.643,2.423-4.145h0Z"/><path class="j" d="M150.881,193.503c7.111-8.444,11.556-15.667,16-25.333-1.985-3.828-3.319-6.308-6.695-9.412-3.861,5.19-12.675,11.671-23.24,15.921-.893.359-1.902.879-2.054,1.161-.253.471.239.885.471,1.255.363.581,2.148,2.074,5.185,5.407,3.446,3.782,7.481,7.593,10.333,11Z"/><path class="j" d="M114.266,193.503c-7.111-8.444-11.556-15.667-16-25.333,1.985-3.828,3.319-6.308,6.695-9.412,3.861,5.19,12.675,11.671,23.24,15.921.893.359,1.902.879,2.054,1.161.253.471-.239.885-.471,1.255-.363.581-2.148,2.074-5.185,5.407-3.446,3.782-7.481,7.593-10.333,11Z"/><path class="i" d="M152.578,195.2c4.884-5.818,9.27-12,12.858-18.703.876-1.637,1.71-3.296,2.512-4.971.415-.867.992-1.789,1.248-2.718.327-1.191-.451-2.264-.983-3.268-1.682-3.172-3.691-6.023-6.329-8.479-1.234-1.149-2.827-.763-3.769.486-4.025,5.337-10.918,9.605-17.06,12.667-1.995.995-4.088,1.762-6.09,2.731-2.092,1.012-3.315,2.981-1.835,5.135,1.56,2.271,3.865,4.101,5.723,6.121,3.404,3.701,7.088,7.155,10.333,11,.837.991,2.532.862,3.394,0,.982-.982.839-2.401,0-3.394-3.052-3.615-6.506-6.865-9.72-10.332-1.382-1.491-2.765-2.972-4.209-4.403-.389-.386-.773-.778-1.162-1.163-.156-.154-.503-.66-.008.043-.059-.084-.38-.633-.343-.472v1.276l.07-.276-.617,1.059c-.244.286.251-.17.433-.267.183-.098.373-.191.562-.277.808-.365,1.642-.676,2.455-1.031,1.428-.622,2.836-1.289,4.221-2.001,2.545-1.307,5.017-2.762,7.382-4.372,3.965-2.698,7.716-5.776,10.616-9.621l-3.769.486c2.782,2.591,4.582,5.578,6.32,8.926v-2.423c-4.143,8.98-9.262,17.268-15.625,24.848-.833.992-.973,2.421,0,3.394.856.856,2.557.997,3.394,0Z"/><path class="i" d="M115.963,191.806c-6.363-7.58-11.482-15.868-15.625-24.848v2.423c1.738-3.348,3.538-6.335,6.32-8.926l-3.769-.486c2.9,3.845,6.651,6.923,10.616,9.621,2.366,1.61,4.837,3.064,7.382,4.372,1.318.678,2.657,1.315,4.015,1.911.812.357,1.638.681,2.451,1.035.263.115.518.227.773.363.163.087.722.606.433.267l-.617-1.059.07.276v-1.276c.037-.161-.284.388-.343.472.495-.703.147-.197-.008-.043-.39.385-.773.777-1.162,1.163-1.444,1.431-2.827,2.913-4.209,4.403-3.214,3.467-6.668,6.717-9.72,10.332-.836.99-.971,2.423,0,3.394.858.858,2.554.995,3.394,0,2.855-3.382,6.065-6.443,9.096-9.665,1.405-1.494,2.778-3.015,4.227-4.468.701-.703,1.459-1.372,2.096-2.136,1.372-1.643,1.985-3.83-.03-5.298-1.651-1.202-3.817-1.783-5.661-2.647-3.803-1.783-7.468-3.885-10.889-6.324-2.79-1.99-5.871-4.6-7.768-7.115-.942-1.249-2.536-1.635-3.769-.486-2.637,2.456-4.645,5.307-6.329,8.479-.486.916-1.172,1.87-1.026,2.949.131.969.778,1.962,1.199,2.845.83,1.74,1.694,3.463,2.603,5.163,3.588,6.704,7.974,12.885,12.858,18.703.834.993,2.534.86,3.394,0,.984-.984.836-2.398,0-3.394Z"/><path class="i" d="M211.175,358.688c-.015-9.389-.582-18.765-.6-28.153-.02-10.354-.28-20.789,1.363-31.049,1.589-9.924,3.442-19.804,4.983-29.738,1.553-10.005,2.987-20.028,4.321-30.064,1.398-10.52,2.677-21.056,3.791-31.61.136-1.291-1.201-2.4-2.4-2.4-1.411,0-2.263,1.105-2.4,2.4-2.037,19.287-4.589,38.521-7.523,57.691-1.516,9.903-3.141,19.791-4.916,29.651-1.855,10.303-2.059,20.627-2.027,31.065.033,10.74.59,21.468.607,32.207.005,3.088,4.805,3.094,4.8,0h0Z"/><path class="i" d="M53.257,318.198c.291,13.427-.935,26.901-1.66,40.3-.167,3.087,4.633,3.077,4.8,0,.725-13.399,1.951-26.873,1.66-40.3-.067-3.084-4.867-3.095-4.8,0h0Z"/><path class="i" d="M51.216,238.762c-1.351-10.239-4.422-20.197-5.53-30.464-.139-1.289-1.003-2.4-2.4-2.4-1.19,0-2.54,1.103-2.4,2.4,1.111,10.282,4.179,20.221,5.53,30.464.17,1.285.982,2.4,2.4,2.4,1.165,0,2.571-1.106,2.4-2.4h0Z"/><path class="i" d="M181.005,178.837c14.393,6.004,28.679,12.214,42.878,18.656,2.894,1.313,5.469,2.896,7.437,5.437,1.942,2.507,3.129,5.473,4.005,8.493,1.033,3.562,1.854,7.186,2.611,10.815,2.251,10.798,3.902,21.724,5.385,32.651,1.998,14.721,3.585,29.5,4.94,44.294,1.594,17.407,2.838,34.845,3.761,52.3.122,2.303.237,4.606.348,6.909.148,3.075,4.949,3.093,4.8,0-.865-17.994-2.066-35.972-3.635-53.918-1.353-15.473-2.966-30.927-4.981-46.329-1.524-11.654-3.216-23.305-5.511-34.835-1.898-9.532-3.631-20.903-11.835-27.164-2.976-2.271-6.586-3.476-9.977-4.973-3.586-1.583-7.1-3.338-10.68-4.937-7.627-3.407-15.334-6.634-23.044-9.848-1.742-.726-3.484-1.452-5.226-2.178-1.197-.499-2.64.539-2.952,1.676-.38,1.382.475,2.451,1.676,2.952h0Z"/><path class="i" d="M146.672,286.764c-.68.298-.003.016.172-.037.187-.057.376-.104.568-.143.103-.021.426-.045.044-.018-.441.032.054,0,.12-.004.22-.015.441-.017.661-.006.098.005.195.016.292.022.333.02-.619-.141-.132-.01.188.051.378.087.563.148.089.029.184.079.273.099-.059-.013-.514-.256-.176-.06.208.12.41.286.622.393-.047-.024-.429-.369-.146-.105.068.064.141.123.209.186.131.123.257.251.375.386.051.058.108.145.167.198-.384-.343-.255-.351-.149-.182.109.172.221.339.316.52.037.07.069.142.106.212.179.339-.111-.259-.104-.253.083.08.13.371.162.484.04.143.07.287.102.432.044.199.02.484-.026-.261.006.089.019.178.026.267.022.295.021.592-.001.887-.018.238-.146.669.028-.139-.034.158-.056.318-.093.475-.056.237-.132.466-.208.697-.159.481.239-.492.084-.186-.058.115-.11.232-.173.344-.046.082-.094.162-.145.24-.041.062-.098.127-.134.193.288-.523.272-.33.118-.168-.108.113-.212.227-.326.334-.057.053-.12.101-.175.155-.173.169.532-.366.114-.09-.282.186-.567.347-.868.5-.345.174.584-.216.023-.017-.187.067-.378.124-.57.174-.174.045-.349.078-.525.112-.103.02-.394.058.025,0,.466-.064.008-.008-.094-.002-.372.025-.737.008-1.108-.019-.385-.028.311.032.298.04-.032.02-.296-.056-.333-.064-.181-.041-.36-.09-.535-.15-.545-.185.425.235.022.015-.172-.094-.34-.183-.504-.291-1.051-.692-2.7-.243-3.284.861-.635,1.202-.26,2.545.861,3.284,1.756,1.157,3.97,1.311,5.986.943,2.077-.379,3.998-1.621,5.154-3.388.847-1.296,1.244-3.049,1.173-4.582-.1-2.161-1.027-4.24-2.709-5.634-1.291-1.069-2.693-1.64-4.362-1.786-1.465-.129-2.882.268-4.207.849-.514.225-.961.919-1.103,1.434-.158.574-.087,1.339.242,1.849.33.512.822.964,1.434,1.103.669.152,1.226.032,1.849-.242h0Z"/><path class="i" d="M34.387,271.984c-2.037,1.99-4.141,3.91-6.313,5.752-1.055.894-2.125,1.771-3.21,2.628-.16.126-.319.252-.48.377-.033.026-.374.292-.239.187s-.207.159-.24.185c-.161.124-.323.247-.485.37-.584.442-1.172.878-1.763,1.31-1.011.739-1.613,2.117-.861,3.284.646,1.001,2.2,1.653,3.284.861,4.831-3.531,9.42-7.378,13.701-11.559.9-.879.947-2.524,0-3.394-.967-.888-2.434-.938-3.394,0h0Z"/><g id="e"><path class="j" d="M68.762,249.671c-1.064-3.106-3.783-4.952-6.626-6.593-1.411-.815-2.918-1.507-4.476-2.062.035-1.981,1.191-4.447,2.278-6.43,1.769-3.225,5.613-4.462,8.431-2.864,0,0,7.479,4.188,5.424,11.066-2.157,7.218-5.03,6.883-5.03,6.883Z"/><path class="j" d="M62.731,298.026c-4.974,2.995-10.946,4.46-16.689,3.612-3.435-.507-6.825-1.882-9.263-4.354-1.537-1.559-2.642-3.49-3.601-5.458-5.409-11.102-6.568-24.211-3.189-36.089,1.94-6.821,6.022-13.82,12.825-15.824,5.862-1.504,13.427-.239,19.323,3.165,2.843,1.642,5.563,3.487,6.626,6.593,1.064,3.106-.112,6.48-3.202,7.589,3.261.652,5.416,3.645,5.633,6.819s-1.59,5.694-4.566,6.819c2.846.198,4.551,3.661,4.388,6.325-.164,2.663-2.826,5.139-5.574,5.89,2.824,1.146,4.28,5.415,3.325,8.309-.954,2.891-3.42,5.029-6.036,6.605Z"/><path class="i" d="M61.519,295.953c-3.545,2.098-7.536,3.424-11.676,3.516-3.743.083-7.925-.754-10.789-3.332-3.013-2.713-4.659-6.962-5.935-10.721-1.362-4.012-2.231-8.19-2.516-12.418-.524-7.761.502-16.295,4.368-23.169,1.66-2.951,3.936-5.636,7.06-7.084s7.103-1.284,10.396-.67c4.144.773,8.464,2.455,11.717,5.206,1.331,1.126,2.486,2.593,2.595,4.398.08,1.319-.503,2.749-1.818,3.267-.999.393-1.762,1.177-1.762,2.314,0,1.02.74,2.081,1.762,2.314,4.288.978,5.445,7.254,1.067,9.009-2.553,1.024-2.113,4.403.638,4.714,1.236.14,1.983,2.342,1.996,3.473.022,2.023-2.075,3.502-3.82,4.027-1.801.542-2.56,3.497-.573,4.387,1.771.793,2.672,3.046,2.405,4.873-.389,2.664-2.991,4.593-5.115,5.896-2.629,1.612-.22,5.766,2.423,4.145,3.48-2.134,6.909-5.266,7.433-9.538.44-3.587-1.264-7.972-4.722-9.521l-.573,4.387c3.908-1.176,7.553-4.611,7.332-8.962-.2-3.934-2.734-7.509-6.784-7.967l.638,4.714c3.854-1.545,6.703-4.953,6.312-9.303-.378-4.21-3.144-7.997-7.38-8.963v4.629c4.398-1.732,6.441-6.44,4.748-10.895-1.644-4.324-5.928-7.06-9.976-8.891-4.385-1.983-9.246-3.111-14.077-2.873-4.617.227-8.726,1.822-12.033,5.105-6.595,6.545-8.853,16.846-9.146,25.813-.164,5.008.394,10.078,1.62,14.937,1.217,4.825,3.042,9.985,5.969,14.054,7.027,9.768,21.27,8.819,30.64,3.274,2.656-1.572.244-5.723-2.423-4.145Z"/><path class="i" d="M48.128,258.356c5.8.563,11.618.929,17.432,1.304,1.295.084,2.4-1.163,2.4-2.4,0-1.369-1.101-2.316-2.4-2.4-5.814-.375-11.632-.741-17.432-1.304-1.292-.125-2.4,1.193-2.4,2.4,0,1.402,1.104,2.274,2.4,2.4h0Z"/><path class="i" d="M48.543,271.926c6.028.466,12.074.679,18.084,1.371,1.29.149,2.4-1.209,2.4-2.4,0-1.421-1.107-2.251-2.4-2.4-6.009-.692-12.056-.905-18.084-1.371-1.294-.1-2.4,1.175-2.4,2.4,0,1.382,1.102,2.3,2.4,2.4h0Z"/><path class="i" d="M49.357,285.329c5.363.029,10.721.284,16.084.183,1.254-.024,2.459-1.087,2.4-2.4-.057-1.28-1.055-2.425-2.4-2.4-5.364.101-10.722-.154-16.084-.183-1.256-.007-2.458,1.109-2.4,2.4.058,1.306,1.054,2.393,2.4,2.4h0Z"/><path class="i" d="M69.579,229.649c-3.174-1.747-6.847-1.075-9.589,1.138-1.311,1.059-2.149,2.541-2.878,4.031-.904,1.847-1.611,3.703-1.829,5.756-.133,1.253,1.199,2.454,2.4,2.4,1.414-.063,2.258-1.058,2.4-2.4.055-.519-.107.475.005-.007.045-.193.079-.388.128-.581.087-.344.191-.683.307-1.019.07-.202.144-.402.221-.601.05-.128.217-.664.042-.112.11-.345.311-.688.47-1.014.305-.623.616-1.256.987-1.842.016-.026.27-.351.256-.376-.226.285-.259.329-.1.131l.096-.113c.207-.239.431-.464.668-.673.066-.058.435-.418.147-.129-.277.278.076-.042.163-.098.256-.166.523-.302.794-.441.396-.204-.518.174-.065.029.13-.042.258-.091.389-.13.254-.076.546-.09.791-.181-.496.186-.399.045-.105.024.133-.009.267-.014.4-.014s.266.004.399.013c.088.006.177.014.265.024l-.375-.049c.222.103.538.111.776.188.085.027.169.057.253.089-.344-.151-.432-.189-.263-.112.136.078.286.139.424.215,1.1.605,2.668.305,3.284-.861.595-1.126.314-2.637-.861-3.284h0Z"/></g><g id="f"><path class="j" d="M73.602,218.143c-2.537-2.656-5.329-12.03,3.523-17.305,4.464-2.66,10.185-2.394,15.084-.614,2.436.885,6.205,2.127,9.436,3.241,6.031,2.078,12.332.806,18.835.443,3.538-.197,7.362.129,10.062,2.165,2.7,2.036,3.512,6.257.829,8.358"/><path class="i" d="M75.299,216.446c-.101-.109-.197-.222-.293-.336.389.457.114.161.036.023-.165-.292-.357-.567-.513-.865-.061-.117-.117-.236-.176-.353-.299-.6.163.459-.087-.189-.16-.415-.3-.837-.417-1.266-.256-.942-.295-1.18-.341-1.973-.055-.965,0-1.774.148-2.458.966-4.462,5.445-7.441,10.029-7.73,2.84-.179,5.536.403,8.198,1.352,2.894,1.031,5.81,1.998,8.718,2.988,6.449,2.195,13.017,1.066,19.641.683,2.862-.166,6.413-.226,8.815,1.624,1.644,1.266,2.18,3.47.617,4.788-.992.836-.862,2.532,0,3.394.982.982,2.4.838,3.394,0,2.378-2.004,2.883-5.38,1.758-8.185-1.295-3.227-4.268-5.157-7.57-5.94-7.356-1.744-14.919,1.3-22.308-.142-6.947-1.355-13.189-5.519-20.444-5.395-6.457.11-12.879,3.694-15.105,9.975-1.526,4.306-.649,9.995,2.506,13.4,2.104,2.271,5.492-1.13,3.394-3.394h0Z"/><path class="j" d="M73.42,310.838c-.291-1.441-.422-3.012-.569-4.804-.752-9.148-2.618-72.111-2.675-82.117-.13-5.083,2.635-7.61,7.691-8.128,8.598-.881,16.516-1.465,23.371-1.656,6.409-.179,17.716-.484,25.681-.151,3.94.165,7.49,2.203,7.241,7.187.424,8.025,2.692,73.626,2.577,82.879-.041,3.306-.315,6.323-1.447,8.754-.793,1.703-2.691,4.264-7.351,5.313-6.055,1.364-13.249,2.165-22.837,2.433-10.12.282-18.413.013-23.47-1.291-3.819-.984-6.145-3.359-7.032-5.015-.577-1.078-.935-2.195-1.18-3.404Z"/><path class="l" d="M79.309,238.794c.38,16.549,3.269,68.428,3.31,68.921.339.059,44.303-1.081,44.514-1.119.025-.598-.414-52.485-1.032-69.314-14.336-.297-46.336,1.475-46.792,1.512Z"/><path class="j" d="M120.499,251.326c-1.59-.136-3.24.324-4.546,1.467-1.381,1.21-2.044,3.141-1.846,4.966.312,2.879,2.511,5.305,5.477,5.527,2.405.098,4.72-.933,5.836-3.099.82-1.592.9-3.548.211-5.201-.908-2.179-2.963-3.474-5.131-3.659Z"/><path class="j" d="M109.947,268.953c-1.147-.098-2.338.234-3.281,1.059-.997.873-1.475,2.267-1.332,3.584.225,2.078,1.812,3.829,3.953,3.989,1.735.071,3.406-.673,4.212-2.237.592-1.149.649-2.56.152-3.754-.655-1.573-2.138-2.507-3.703-2.641Z"/><path class="i" d="M120.499,248.926c-3.769-.268-7.257,2.081-8.435,5.655-1.005,3.048-.022,6.678,2.317,8.859,2.593,2.418,6.249,2.812,9.436,1.394,3.159-1.406,5.009-4.913,4.624-8.317-.228-2.019-1.076-3.963-2.611-5.338-1.52-1.36-3.319-2.054-5.331-2.253-1.253-.124-2.454,1.192-2.4,2.4.063,1.406,1.057,2.267,2.4,2.4.558.055-.41-.094-.058-.009.135.033.274.053.409.086.217.054.426.13.639.194.522.158-.337-.183-.034-.017.098.053.2.098.299.151.123.066.244.136.362.21.134.085.591.284.062.014.188.096.356.302.504.451.1.101.188.214.289.313.243.24-.298-.481-.006-.009.123.199.255.392.364.6.012.022.238.55.109.21-.12-.316.087.292.107.361.046.16.076.322.117.483.035.135.161.394.002-.048.081.227.036.555.03.795,0,.009-.025.662-.003.276.021-.375-.047.246-.053.27-.07.325-.171.639-.287.95.185-.495-.141.223-.222.353-.067.108-.143.28-.242.359.038-.03.358-.403.053-.089-.156.161-.318.314-.478.472-.384.379.314-.191.026-.016-.142.086-.277.185-.421.269-.121.07-.246.129-.368.197-.238.133-.167-.051.113-.04-.194-.008-.534.185-.723.235-.242.064-.517.076-.754.154.455-.151.314-.032.123-.029-.174.003-.348.02-.523.021-.145,0-.292-.015-.436-.014-.334.002.457.096.135.019-.242-.058-.484-.102-.722-.178.007.002-.299-.083-.308-.108.045.126.453.212.056.014-.265-.133-.507-.291-.754-.452-.307-.2.094.088.107.083-.018.006-.205-.18-.239-.211-.066-.061-.564-.49-.546-.58,0-.004.338.494.084.104-.058-.09-.121-.176-.178-.267-.066-.105-.435-.618-.386-.707-.056.1.182.479.025.048-.047-.128-.089-.257-.128-.388-.062-.211-.102-.427-.153-.64-.129-.535.015.427.005.053-.004-.153-.023-.305-.025-.458-.002-.122,0-.245.006-.368.004-.092.01-.184.02-.275.018-.183.009-.122-.027.182-.048-.24.143-.657.22-.892.033-.101.071-.248.125-.345-.288.515.006.03.072-.088.074-.133.154-.263.238-.39.05-.077.102-.151.157-.224-.172.22-.201.264-.087.132.112-.1.207-.225.317-.329.094-.089.547-.412.115-.117.267-.183.541-.343.826-.495.457-.243-.045.003-.053.015.043-.066.46-.155.534-.175.119-.033.241-.063.362-.089.121-.026.243-.048.365-.066l-.27.042c.209-.131.878-.018,1.105-.002,1.255.089,2.455-1.168,2.4-2.4-.062-1.377-1.056-2.305-2.4-2.4Z"/><path class="i" d="M109.947,266.553c-3.024-.215-5.793,1.723-6.732,4.571-.796,2.415-.009,5.316,1.844,7.043,2.105,1.963,5.039,2.266,7.619,1.111,2.474-1.108,3.962-3.908,3.668-6.579-.179-1.631-.835-3.211-2.08-4.325s-2.679-1.66-4.32-1.822c-.576-.057-1.303.309-1.697.703-.416.416-.73,1.099-.703,1.697.063,1.406,1.057,2.267,2.4,2.4.08.007.16.016.24.027l-.638-.086c.199.03.396.068.591.122.117.032.23.072.345.11.324.106-.228-.069-.238-.105.019.07.446.233.531.286.201.127.333.34-.091-.095.07.072.157.13.231.199.075.069.148.141.218.215.067.071.305.37.053.039-.263-.344-.007.002.032.061.058.089.111.18.162.272.034.062.148.225.144.288.009-.132-.2-.531-.067-.117.081.252.134.507.173.769l-.086-.638c.045.384.047.761.007,1.146l.086-.638c-.032.238-.075.472-.141.703-.037.131-.112.275-.138.408.02-.1.222-.462.064-.181-.104.184-.223.356-.332.535.329-.542.212-.27.06-.11-.07.073-.142.143-.218.211-.18.162-.309.114.158-.11-.087.042-.167.116-.25.167-.085.053-.172.103-.261.149s-.436.199-.042.032c.408-.172.018-.015-.054.009-.097.032-.195.061-.293.087-.22.058-.442.098-.667.128l.638-.086c-.375.042-.749.054-1.124.01l.638.086c-.238-.035-.472-.084-.701-.157-.097-.031-.441-.171-.043-.001s.059.022-.03-.025c-.184-.095-.394-.307-.585-.368.116.037.45.399.176.119-.08-.082-.167-.158-.246-.242-.064-.068-.121-.153-.191-.216.419.375.247.334.1.115-.119-.179-.214-.367-.316-.555-.136-.252.211.567.08.197-.039-.111-.079-.222-.112-.335-.067-.229-.114-.463-.149-.699l.086.638c-.048-.395-.046-.784.002-1.178l-.086.638c.03-.197.068-.392.122-.584.03-.107.068-.21.101-.316.106-.343-.095.19-.089.207-.033-.094.277-.49.329-.571.18-.279-.117.119-.134.173.027-.084.166-.182.226-.24.064-.063.136-.119.2-.182.196-.192-.493.32-.089.076.179-.108.361-.204.542-.307.25-.141-.47.159-.196.084.108-.03.213-.073.322-.103.216-.06.435-.1.657-.13l-.638.086c.312-.033.618-.038.93-.015,1.255.089,2.455-1.168,2.4-2.4-.062-1.377-1.056-2.305-2.4-2.4Z"/><path class="i" d="M75.734,310.2c-.613-3.214-.656-6.602-.81-9.869-.188-3.988-.342-7.977-.491-11.967-.393-10.551-.729-21.104-1.043-31.657-.269-9.047-.531-18.095-.722-27.144-.029-1.366-.056-2.732-.076-4.098-.023-1.58-.096-3.394.45-4.547.486-1.027,1.046-1.535,2.17-2.056,1.07-.496,2.783-.686,4.136-.821,4.43-.44,8.867-.82,13.31-1.103,7.341-.468,14.709-.614,22.064-.684,3.768-.036,7.538-.036,11.305.096,2.343.082,4.786.491,5.522,2.755.383,1.179.241,2.623.296,3.876.056,1.265.107,2.529.157,3.794.152,3.836.293,7.673.431,11.509.371,10.302.718,20.606,1.044,30.91.289,9.155.576,18.312.77,27.47.052,2.449.119,4.901.091,7.35-.022,1.987-.096,3.997-.587,5.931-.164.646-.356,1.293-.652,1.892-.103.207-.218.41-.339.607-.074.12-.484.69-.284.438-1.912,2.398-4.977,2.933-7.866,3.475-7.674,1.44-15.539,1.766-23.33,1.873-3.954.054-7.917.028-11.863-.254-2.875-.206-6.051-.39-8.746-1.554-2.905-1.254-4.29-3.214-4.936-6.221s-5.277-1.741-4.629,1.276c.784,3.647,2.766,6.572,5.991,8.484,2.98,1.766,6.504,2.24,9.889,2.601,8.388.893,17.013.612,25.413.052,3.902-.26,7.799-.67,11.658-1.306,3.603-.594,7.303-1.226,10.247-3.541,4.588-3.607,4.865-9.827,4.834-15.22-.046-7.889-.33-15.781-.565-23.666-.325-10.951-.686-21.902-1.067-32.851-.27-7.753-.527-15.507-.871-23.257-.077-1.743.035-3.571-.554-5.232-1.141-3.219-4.009-5.243-7.328-5.759-3.768-.586-7.763-.356-11.565-.343-3.873.014-7.746.086-11.618.182-8.274.205-16.515.687-24.754,1.479-3.626.349-7.448.537-10.254,3.169-2.203,2.066-2.813,5.04-2.784,7.943.075,7.54.317,15.081.527,22.619.31,11.136.653,22.272,1.037,33.406.279,8.082.502,16.176,1,24.249.144,2.339.323,4.69.763,6.993.243,1.274,1.774,2,2.952,1.676,1.334-.367,1.92-1.675,1.676-2.952Z"/><path class="i" d="M83.172,309.979c5.336,1.181,10.975,1.25,16.415,1.256,6.288.007,12.607-.257,18.854-.995,2.591-.306,5.227-.63,7.74-1.358,2.961-.858,1.702-5.491-1.276-4.629-4.703,1.362-9.26,1.559-14.264,1.857-6.17.368-12.38.472-18.553.128-1.494-.083-2.987-.197-4.474-.365-.123-.014-.246-.028-.369-.043-.055-.006-.675-.087-.394-.049.124.017-.549-.083-.696-.106-.573-.092-1.142-.2-1.708-.325-3.01-.666-4.296,3.96-1.276,4.629h0Z"/><path class="i" d="M124.735,234.735c-14.619-.602-29.444-.14-43.962,1.737-1.285.166-2.4.984-2.4,2.4,0,1.168,1.105,2.567,2.4,2.4,14.517-1.877,29.343-2.339,43.962-1.737,3.089.127,3.083-4.673,0-4.8h0Z"/></g><path class="i" d="M61.154,303.417c-3.518,7.977-8.327,16.064-15.143,21.661-6.254,5.136-14.667,7.678-22.684,6.072-6.388-1.28-11.168-5.329-14.147-11.071-3.929-7.572-4.901-15.819-4.219-24.227.702-8.646,2.629-17.181,4.789-25.565,1.998-7.754,4.146-15.492,6.438-23.164,1.996-6.681,4.239-13.279,6.644-19.823,1.475-4.014,2.993-8.011,4.518-12.007,1.591-4.169,3.092-8.289,5.743-11.928,1.118-1.534,2.397-3.075,4.018-4.089,1.705-1.067,3.593-1.743,5.458-2.469,4.121-1.607,8.068-3.669,12.098-5.489,8.39-3.79,16.875-7.364,25.371-10.91,2.035-.849,4.071-1.697,6.107-2.545,1.196-.498,2.051-1.59,1.676-2.952-.31-1.129-1.748-2.178-2.952-1.676-8.963,3.735-17.933,7.458-26.825,11.359-4.36,1.913-8.702,3.867-13.001,5.913-3.899,1.857-8.35,2.95-11.784,5.646-3.459,2.717-6.044,6.924-7.798,10.905-1.969,4.47-3.576,9.125-5.296,13.695-2.646,7.031-5.199,14.097-7.439,21.269-2.445,7.831-4.587,15.76-6.73,23.677-2.367,8.742-4.439,17.626-5.484,26.633-1.068,9.208-.65,18.216,2.992,26.845,2.947,6.982,7.648,12.792,14.882,15.551,7.952,3.033,17.332,1.846,24.749-2.046,8.423-4.42,14.445-12.268,18.984-20.436,1.159-2.085,2.216-4.224,3.178-6.407.523-1.185.346-2.577-.861-3.284-1.02-.597-2.758-.331-3.284.861h0Z"/><g id="g"><path class="i" d="M122.48,131.227c3.18,1.679,6.605,2.379,10.2,2.355,3.63-.024,7.325-.727,10.236-2.995,1.023-.797.837-2.557,0-3.394-1.01-1.01-2.368-.799-3.394,0,.711-.554.097-.087-.086.03-.208.133-.421.256-.64.371-.152.08-.904.393-.303.164-.293.111-.584.225-.882.321-1.874.602-3.268.715-5.263.703-1.953-.012-3.197-.13-5.022-.676-.323-.097-.638-.212-.957-.322-.104-.036-.204-.089-.309-.12.591.173.172.077.015.003-.396-.186-.786-.381-1.172-.585-1.146-.605-2.61-.291-3.284.861-.634,1.084-.289,2.676.861,3.284h0Z"/><path class="i" d="M131.591,107.029c.451,1.72.884,3.466,1.142,5.227l-.086-.638c.031.241.044.479.02.721l.086-.638c-.017.112-.042.217-.079.324l.242-.573c-.033.076-.068.14-.115.209l.375-.486c-.054.065-.105.115-.171.168l.486-.375c-.132.085-.272.153-.414.219l.573-.242c-.228.095-.454.165-.698.204l.638-.086c-.22.026-.435.024-.655-.001l.638.086c-.247-.034-.489-.094-.736-.128-.67-.09-1.239-.115-1.849.242-.498.291-.973.862-1.103,1.434-.14.614-.11,1.304.242,1.849.312.484.835,1.022,1.434,1.103.537.072,1.059.21,1.605.234.825.036,1.595-.214,2.334-.55.905-.413,1.61-1.211,1.851-2.187.204-.824.114-1.562-.025-2.388-.284-1.684-.674-3.353-1.107-5.004-.318-1.214-1.729-2.072-2.952-1.676-1.25.404-2.018,1.651-1.676,2.952h0Z"/><path class="i" d="M103.684,92.302c-.873,2.837-.304,9.362,5.07,9.917,7.102-.042,7.48-7.931,5.089-11.641-1.958-3.037-7.714-4.3-10.159,1.724Z"/><path class="i" d="M160.56,92.302c.873,2.837.304,9.362-5.069,9.917-7.103-.043-7.481-7.932-5.09-11.641,1.957-3.037,7.713-4.3,10.159,1.724Z"/></g></g></g></svg>