<?xml version="1.0" encoding="UTF-8"?><svg id="b" xmlns="http://www.w3.org/2000/svg" width="358.628" height="315.581" viewBox="0 0 358.628 315.581"><defs><style>.h{fill:#fff;}.i{fill:#211715;}.j{fill:#645d5c;}.k{fill:#febe69;}</style></defs><g id="c"><g id="d"><path class="h" d="M220.686,299.143c-.185-1.668.168-3.257.634-4.605,2.172-3.842,5.945-4.327,9.152-2.603,1.349.889,2.254,1.916,2.537,3.377.376,1.947.094,4.401.858,6.22.411.979,1.29,1.724,2.367,2.54.411.312.367.951-.092,1.186-2.867,1.463-8.135,2.27-11.709.555-2.466-1.251-3.428-3.809-3.746-6.67Z"/><path class="h" d="M340.615,256.655c-.188-1.688.17-3.296.642-4.66,2.198-3.889,6.016-4.379,9.262-2.635,1.365.9,2.281,1.939,2.567,3.418.381,1.971.095,4.454.868,6.295.416.991,1.306,1.745,2.395,2.57.416.315.372.963-.094,1.2-2.902,1.481-8.233,2.297-11.85.561-2.496-1.266-3.469-3.855-3.791-6.75Z"/><path class="h" d="M339.551,293.456c-9.788-6.675-15.152-19.505-17.074-30.826-.806-4.75-.999-9.598-.544-14.392.326-3.438.613-10.579,3.378-13.052,0,0,1.602-4.07,1.176-5.635-2.106.082-4.237.006-6.695-.076-17.768-.593-35.994-8.118-49.563-16.814-4.054-2.598-7.975-5.687-11.49-9.144-12.461,4.699-18.969,16.525-22.438,28.349-2.355,8.028-3.094,16.392-2.261,24.585-.041.021-.07.037-.07.037-2.772,2.101-5.324,4.612-6.875,7.725-.523,1.051-.932,2.182-.988,3.354-.056,1.173.273,2.396,1.068,3.26,1.117,1.213,2.991,1.513,4.577,1.061,1.586-.453,3.47-1.49,4.767-2.373,0,0,.081-.059.206-.167,2.282,7.054,5.845,13.751,10.716,19.714,2.481,3.038,5.383,5.753,8.654,7.997,13.111,8.994,32.167,10.271,47.823,9.526,9.282-.442,18.201-1.735,26.241-4.371,3.004-.985,5.886-2.158,8.618-3.544,2.147-1.089,2.753-3.864.773-5.215Z"/><path class="j" d="M252.046,190.401c.622-.481,1.429-.78,2.336-.782,6.482-.018,10.981,1.033,18.429,1.718,17.302-12.968,40.356-17.881,61.466-13.317,2.013.435,2.715,2.947,1.21,4.353-6.427,6.001-10.782,14.216-12.087,22.914,6.39,8.807,8.369,10.985,13.158,17.955,1.12,1.631.728,4.234-1.168,4.801-5.958,1.785-9.896,1.624-15.599,1.434-17.768-.593-35.994-8.118-49.563-16.814-7.241-4.64-14.058-10.848-18.903-17.906-1.07-1.558-.575-3.353.721-4.355Z"/><path class="k" d="M278.668,193.98c-1.6-1.079-3.153-2.244-4.643-3.533,2.919-2.093,5.992-3.963,9.184-5.603,3.728,3.255,7.941,5.54,12.293,7.745,9.375,4.748,17.926,7.04,28.751,8.607-.787,2.952-1.218,5.997-1.259,9.061-12.649-1.928-22.834-4.757-33.961-10.392-3.573-1.81-7.07-3.664-10.365-5.885Z"/><path class="i" d="M323.897,233.772c-2.519,2.39-3.076,6.287-3.492,9.56-.508,4.003-.828,8.086-.673,12.119.325,8.5,2.49,17.042,6.264,24.666,1.767,3.569,3.972,6.945,6.642,9.907,1.349,1.496,2.829,2.852,4.425,4.079.836.642,2.371,1.265,1.313,2.411-.553.599-1.535.895-2.259,1.233-1.026.479-2.065.923-3.12,1.334-2.086.813-4.216,1.512-6.372,2.117-4.386,1.23-8.884,2.083-13.406,2.625-8.596,1.03-17.376,1.258-26.011.603-8.243-.625-16.679-2.158-24.198-5.718-15.498-7.337-24.766-24.333-26.845-40.888-1.043-8.309-.386-16.789,1.896-24.844,2.201-7.767,5.673-15.508,11.508-21.237,1.46-1.433,3.044-2.696,4.765-3.8,2.16-1.386.156-4.85-2.019-3.454-7.436,4.772-12.371,12.175-15.653,20.244-3.317,8.154-5.044,16.99-4.974,25.796.14,17.722,7.759,36.769,22.32,47.495,6.956,5.124,15.48,7.858,23.92,9.284,8.575,1.449,17.316,1.695,25.99,1.28,9.66-.462,19.449-1.776,28.585-5.065,2.23-.803,4.425-1.719,6.555-2.76,1.713-.837,3.193-2.105,3.583-4.068.443-2.231-.625-3.915-2.382-5.172-1.606-1.149-3.073-2.471-4.418-3.917-5.571-5.986-8.863-13.905-10.689-21.786-1.1-4.744-1.602-9.588-1.424-14.458.132-3.607.36-7.42,1.214-10.937.331-1.363.749-2.841,1.783-3.822,1.871-1.775-.961-4.601-2.828-2.828h0Z"/><path class="i" d="M286.856,252.305c-3.932,2.589-7.44,5.991-9.248,10.409-.958,2.342-.759,4.943.87,6.936,1.366,1.67,3.701,2.605,5.84,2.506,2.865-.134,5.372-1.694,7.339-3.691,1.808-1.836-1.019-4.666-2.828-2.828-1.398,1.419-3.238,2.739-5.274,2.502.287.033-.337-.08-.334-.08-.145-.037-.581-.181-.591-.185-.235-.102-.671-.378-.815-.508-.399-.359-.491-.448-.693-.95.107.266-.09-.446-.081-.395-.041-.22-.056-.47-.04-.703.067-.969.513-1.696.981-2.539.476-.859,1.032-1.688,1.643-2.417,1.507-1.798,3.295-3.316,5.251-4.603.901-.593,1.283-1.769.718-2.736-.524-.896-1.83-1.314-2.736-.718h0Z"/><path class="i" d="M232.961,254.762c-2.248,1.715-4.303,3.58-5.993,5.859-1.638,2.209-3.128,5.054-2.821,7.888.34,3.136,2.649,5.369,5.813,5.566,2.69.168,5.413-1.384,7.57-2.834.895-.602,1.287-1.763.718-2.736-.52-.889-1.836-1.323-2.736-.718-1.465.984-3.539,2.268-5.098,2.299-.675.013-1.312-.146-1.744-.594-.466-.485-.609-1.168-.561-1.925.117-1.85,1.358-3.726,2.468-5.124,1.26-1.588,2.801-3.005,4.404-4.228.857-.654,1.31-1.723.718-2.736-.494-.844-1.872-1.377-2.736-.718h0Z"/><path class="i" d="M259.292,221.226c-2.129-.855-4.41.57-5.358,2.929-1.097,2.731-.398,5.016,1.81,5.903,2.259.908,4.294-.28,5.391-3.011.954-2.375.279-4.969-1.843-5.821Z"/><path class="i" d="M282.016,228.779c-2.363-.426-4.377,1.388-4.822,3.857-.516,2.858.704,4.943,3.154,5.385,2.507.453,4.322-1.085,4.838-3.943.449-2.485-.815-4.875-3.17-5.3Z"/><path class="i" d="M326.013,212.181c2.356,3.15,4.747,6.273,7.019,9.485.602.851,1.265,1.689,1.8,2.583.262.437.517,1.018.276,1.531-.249.53-.862.514-1.398.659-1.123.302-2.259.556-3.406.747-4.012.669-8.218.444-12.26.208-4.533-.265-9.021-.986-13.437-2.036-8.722-2.073-17.128-5.381-25.045-9.571-7.663-4.056-14.871-8.881-20.883-15.176-1.656-1.734-3.229-3.556-4.648-5.489-.711-.969-2.169-2.556-.424-3.354.991-.453,2.554-.139,3.609-.091,1.251.057,2.5.155,3.746.281,2.635.265,5.259.641,7.888.956,1.074.129,2-1.011,2-2,0-1.188-.923-1.871-2-2-2.63-.315-5.253-.691-7.888-.956-2.483-.25-5.316-.683-7.788-.211-1.951.372-3.717,1.902-4.242,3.839-.652,2.405.65,4.237,2.025,6.066,5.965,7.932,13.69,14.169,22.22,19.159,8.682,5.078,18.056,9.143,27.779,11.75,4.948,1.327,10.012,2.251,15.118,2.69,4.716.405,9.592.6,14.292-.056,1.41-.197,2.805-.476,4.182-.838,1.206-.317,2.421-.623,3.306-1.562,1.594-1.69,1.671-4.335.589-6.313-1.2-2.193-2.936-4.233-4.421-6.244-1.504-2.036-3.038-4.05-4.554-6.077-.646-.864-1.729-1.307-2.736-.718-.851.498-1.368,1.866-.718,2.736h0Z"/><path class="i" d="M272.767,192.004c5.594,4.733,12.159,8.24,18.787,11.297,6.374,2.941,13.016,5.211,19.853,6.799,4.037.938,8.119,1.655,12.218,2.26,1.067.157,2.149-.266,2.46-1.397.259-.942-.322-2.302-1.397-2.46-8.719-1.286-17.346-3.16-25.592-6.323-4.118-1.579-8.087-3.496-11.985-5.553-4.05-2.138-8.01-4.486-11.516-7.452-1.954-1.653-4.797,1.163-2.828,2.828h0Z"/><path class="i" d="M282.044,186.482c5.844,4.932,12.996,8.473,20.081,11.254,6.86,2.693,14.051,4.274,21.326,5.35,1.067.158,2.149-.266,2.46-1.397.259-.942-.322-2.301-1.397-2.46-7.001-1.035-13.93-2.532-20.558-5.053-3.308-1.258-6.494-2.79-9.625-4.436-3.325-1.747-6.581-3.658-9.458-6.087-1.956-1.65-4.799,1.165-2.828,2.828h0Z"/><path class="i" d="M273.414,193.371c10.304-7.794,22.632-12.79,35.452-14.417,6.298-.799,12.718-.821,19.018-.023,1.565.198,3.124.462,4.671.769.58.115,1.856.095,1.733.928-.063.431-.795.879-1.086,1.169-.572.569-1.126,1.155-1.661,1.758-1.094,1.232-2.117,2.535-3.066,3.882-4.249,6.029-6.764,13.145-7.375,20.484-.214,2.565,3.788,2.551,4,0,.564-6.777,3.098-13.286,7.063-18.793.961-1.335,2.027-2.592,3.162-3.781,1.11-1.162,2.454-2.146,2.846-3.787.343-1.435-.073-2.988-1.047-4.087-1.118-1.262-2.734-1.488-4.304-1.782-13.584-2.539-27.822-1.41-40.846,3.213-7.372,2.617-14.339,6.294-20.58,11.014-.86.651-1.309,1.726-.718,2.736.496.847,1.87,1.373,2.736.718h0Z"/><path class="i" d="M222.686,299.143c-.08-.866-.059-1.714.13-2.563.155-.696.397-1.395.731-1.825.469-.605.825-.911,1.35-1.222.114-.068.233-.126.348-.191.523-.295-.176.049.149-.069.332-.121.672-.211,1.02-.272-.347.061-.035.004.038.002.192-.006.383-.02.576-.016.129.002.257.014.386.018.602.021-.208-.049.145.015.293.053.583.122.868.209.193.059.386.124.574.2-.299-.12.252.124.275.136.53.282.894.573,1.316,1.095-.205-.253.177.284.171.274.068.118.14.243.192.368-.112-.27.032.157.049.221.029.107.123.575.114.51.261,1.739.114,3.513.556,5.232.448,1.742,1.546,2.978,2.932,4.059l.405.313c.713-1.778.699-2.453-.042-2.025-.112.038-.231.11-.338.157.317-.14-.077.029-.156.057-.16.058-.32.118-.482.172-.694.233-1.406.414-2.125.551-1.158.22-2.956.309-4.087.162-.455-.059-.911-.16-1.352-.282-.145-.04-.29-.084-.433-.131.014.005-.563-.208-.355-.119-.765-.331-1.078-.57-1.619-1.216.218.261-.183-.264-.179-.258-.113-.175-.218-.355-.315-.539-.21-.399-.16-.282-.303-.694-.145-.417-.261-.844-.356-1.275-.091-.416-.155-.805-.184-1.053-.126-1.073-.829-2-2-2-.983,0-2.127.92-2,2,.235,2,.649,4.064,1.819,5.753,1.213,1.751,2.917,2.874,4.971,3.419,1.952.518,4.016.566,6.01.312,1.89-.241,4.001-.651,5.663-1.641,1.082-.644,1.616-1.945,1.235-3.161s-1.634-1.7-2.405-2.624c-.272-.326-.526-1.156-.612-1.826-.143-1.107-.124-2.231-.25-3.341-.261-2.288-1.208-4.025-3.061-5.415-1.491-1.119-3.553-1.709-5.414-1.627-2.14.094-4.172,1.013-5.63,2.593-.927,1.004-1.574,2.09-1.927,3.411-.359,1.344-.529,2.76-.401,4.147.1,1.076.848,2,2,2,1.004,0,2.1-.918,2-2Z"/><path class="i" d="M342.615,256.655c-.137-1.48.041-3.378.878-4.458.469-.605.839-.925,1.372-1.24.116-.068.236-.128.353-.193.529-.297-.171.048.157-.073.335-.123.68-.214,1.032-.275-.341.059-.025.003.045,0,.195-.007.387-.02.583-.017.131.002.26.014.391.018.608.022-.203-.048.154.016.297.054.59.123.879.212.513.156.475.135.865.342.534.284.917.591,1.337,1.112-.199-.247.186.298.177.282.069.119.141.246.194.373-.11-.263.036.168.052.229.032.119.12.553.116.523.264,1.758.115,3.551.562,5.289.452,1.759,1.562,3.006,2.961,4.097l.405.313c.709-1.765.695-2.435-.042-2.008-.113.038-.234.111-.342.159.311-.137-.087.033-.164.06-.162.059-.324.119-.487.174-.703.235-1.423.419-2.151.558-1.192.227-2.98.315-4.149.164-.46-.06-.922-.162-1.368-.286-.147-.041-.294-.085-.438-.132.013.004-.556-.205-.365-.123-.767-.33-1.103-.587-1.643-1.234.213.255-.192-.277-.185-.266-.115-.177-.221-.359-.319-.546-.208-.394-.167-.301-.309-.708-.147-.422-.265-.854-.36-1.291-.091-.416-.156-.81-.187-1.072-.126-1.073-.829-2-2-2-.983,0-2.127.92-2,2,.238,2.02.656,4.104,1.838,5.81,1.224,1.767,2.944,2.9,5.017,3.449,1.973.523,4.06.572,6.076.315,1.908-.244,4.041-.658,5.719-1.658,1.085-.647,1.622-1.952,1.239-3.171-.385-1.226-1.652-1.712-2.427-2.645-.292-.351-.536-1.17-.627-1.865-.146-1.121-.125-2.258-.253-3.381-.263-2.306-1.218-4.058-3.086-5.459-1.505-1.13-3.588-1.726-5.467-1.643-2.16.095-4.209,1.023-5.68,2.617-.935,1.014-1.588,2.109-1.944,3.441-.363,1.358-.535,2.789-.405,4.191.1,1.076.848,2,2,2,1.004,0,2.1-.918,2-2Z"/></g><g id="e"><path class="j" d="M55.423,310.231l-24.477-94.008c-.208-.8-.089-1.649.33-2.361l20.718-35.144c.559-.948,1.577-1.529,2.677-1.529h53.349c1.1,0,2.118.582,2.677,1.529l20.718,35.144c.42.712.538,1.562.33,2.361-8.241,31.65-16.482,63.299-24.722,94.949-.357,1.371-1.594,2.326-3.01,2.325-12.272-.016-32.394,0-45.346.002-1.415,0-2.643-.955-2.999-2.325l-.245-.943Z"/><path class="i" d="M57.352,309.699c-1.694-6.506-3.388-13.012-5.082-19.518-3.435-13.193-6.87-26.385-10.305-39.578l-8.089-31.068-.837-3.213c-.162-.622-.238-1.063.098-1.675,2.215-4.045,4.696-7.966,7.038-11.939l10.142-17.203,3.014-5.112c.451-.765.865-1.198,1.8-1.203,11.001-.06,22.003,0,33.004,0,5.555,0,11.109,0,16.664,0,1.034,0,2.155-.124,3.183,0,1.068.128,1.521,1.442,2.015,2.28,6.025,10.219,12.049,20.439,18.074,30.658.528.895,1.477,1.986,1.735,3.017.153.614-.214,1.413-.365,1.993-.209.803-.418,1.607-.627,2.41-.46,1.767-.92,3.534-1.38,5.302-.92,3.534-1.841,7.069-2.761,10.603-3.556,13.656-7.111,27.312-10.667,40.968-1.799,6.908-3.597,13.817-5.396,20.725-.878,3.374-1.757,6.748-2.635,10.121-.209.803-.418,1.607-.627,2.41-.132.505-.175,1.168-.59,1.539-.671.599-2.114.279-2.948.278-10.997-.011-21.994-.003-32.991.001-2.497,0-4.994.002-7.49.003-.865,0-2.36.303-3.142-.099-.617-.316-.677-1.103-.832-1.7-.648-2.489-4.507-1.434-3.857,1.063.645,2.479,2.067,4.475,4.824,4.716,2.516.22,5.137.018,7.662.017,5.813-.002,11.626-.005,17.439-.006,5.575-.001,11.151-.002,16.726.003,2.495.002,5.496.488,7.439-1.448,1.052-1.048,1.382-2.395,1.744-3.786.502-1.928,1.004-3.856,1.506-5.784,7.32-28.115,14.641-56.23,21.961-84.346.65-2.496,1.638-4.896.31-7.338-.223-.41-.476-.808-.713-1.21l-3.566-6.049-10.536-17.871-4.248-7.206c-.672-1.14-1.275-2.432-2.133-3.451-1.46-1.734-3.43-1.813-5.464-1.813h-50.853c-2.181,0-4.097.593-5.355,2.573-2.34,3.681-4.443,7.537-6.658,11.294-3.509,5.952-7.017,11.903-10.526,17.855l-3.111,5.277c-.875,1.485-1.297,2.98-.879,4.738,1.853,7.794,4.042,15.523,6.06,23.274,3.555,13.653,7.11,27.306,10.665,40.959l7.328,28.144c.127.486.253.973.38,1.459.648,2.489,4.507,1.434,3.857-1.063Z"/><path class="h" d="M103.389,218.615h-16.284v-16.264h-11.761v16.264h-16.284v11.761h16.284v31.419h11.761v-31.419h16.284v-11.761Z"/><path class="i" d="M103.389,216.615h-16.284l2,2v-16.264c0-1.081-.916-2-2-2h-11.761c-1.081,0-2,.916-2,2v16.264l2-2h-16.284c-1.081,0-2,.916-2,2v11.761c0,1.081.916,2,2,2h16.284l-2-2v31.419c0,1.081.916,2,2,2h11.761c1.081,0,2-.916,2-2v-31.419l-2,2h16.284c1.081,0,2-.916,2-2v-11.761c0-2.574-4-2.578-4,0v11.761l2-2h-16.284c-1.081,0-2,.916-2,2v31.419l2-2h-11.761l2,2v-31.419c0-1.081-.916-2-2-2h-16.284l2,2v-11.761l-2,2h16.284c1.081,0,2-.916,2-2v-16.264l-2,2h11.761l-2-2v16.264c0,1.081.916,2,2,2h16.284c2.574,0,2.578-4,0-4Z"/></g><g id="f"><path class="h" d="M300.636,2.001c3.087,0,6.174.059,7.336.176,10.999,1.11,21.897,4.739,30.661,11.477,8.763,6.738,15.227,16.748,16.585,27.719,1.547,12.498-.968,25.998-11.341,35.758-3.006,2.828-6.674,4.891-10.566,6.357-1.867.704-3.117,2.469-3.149,4.464-.072,4.504-.14,9.021-.208,13.538-.006.41-.021.848-.254,1.185-.196.284-.518.451-.836.584-1.631.681-3.447.724-5.214.756-3.836.07-13.425.106-23.015.106-9.589,0-19.179-.035-23.015-.106-1.767-.032-3.583-.075-5.214-.756-.318-.133-.64-.301-.836-.584-.233-.337-.248-.775-.254-1.185-.068-4.517-.136-9.034-.208-13.538-.032-1.995-1.281-3.761-3.149-4.464-3.892-1.466-7.56-3.529-10.566-6.357-10.373-9.76-12.887-23.26-11.341-35.758,1.358-10.971,7.822-20.981,16.585-27.719,8.763-6.738,19.662-10.367,30.661-11.477,1.162-.117,4.249-.176,7.336-.176Z"/><path class="i" d="M334.361,45.963c-1.348-6.079-7.397-10.036-13.393-10.289-2.497-.105-5.076.547-7.028,2.108-3.375,2.699-4.256,7.775-2.717,11.813,1.987,5.215,7.833,9.712,13.513,9.612,3.82-.067,6.953-2.477,8.645-5.852,1.257-2.507,1.5-5.049.98-7.392Z"/><path class="i" d="M268.867,45.963c1.348-6.079,7.397-10.036,13.393-10.289,2.497-.105,5.076.547,7.028,2.108,3.375,2.699,4.256,7.775,2.717,11.813-1.987,5.215-7.833,9.712-13.513,9.612-3.82-.067-6.953-2.477-8.645-5.852-1.257-2.507-1.5-5.049-.98-7.392Z"/><path class="i" d="M336.29,45.431c-1.28-5.397-5.71-9.398-10.907-11.008-5.515-1.708-12.231-.51-15.275,4.836-5.94,10.432,5.631,24.015,16.847,21.689,6.848-1.42,10.659-9.014,9.335-15.517-.513-2.521-4.37-1.454-3.857,1.063.823,4.041-1.415,8.853-5.426,10.288-3.986,1.426-8.41-.844-11.162-3.684-2.768-2.857-4.256-6.946-2.767-10.81,1.61-4.177,6.288-5.237,10.286-4.271,4.301,1.039,8.024,4.07,9.069,8.477.594,2.504,4.452,1.444,3.857-1.063Z"/><path class="i" d="M270.795,46.494c.915-3.859,3.933-6.781,7.642-8.059,3.747-1.291,8.749-1.189,11.063,2.562,4.496,7.289-3.983,17.24-11.834,16.156-4.827-.667-7.791-6.138-6.87-10.658.512-2.513-3.343-3.588-3.857-1.063-1.193,5.86,1.647,12.392,7.281,14.835,5.461,2.368,11.722-.112,15.741-4.085,3.925-3.88,6.041-9.755,3.988-15.11-2.258-5.89-8.238-8.152-14.179-7.113-5.982,1.047-11.405,5.457-12.832,11.473-.594,2.503,3.262,3.571,3.857,1.063Z"/><path class="i" d="M309.171,90.595v11.359c0,1.046.92,2.048,2,2s2-.879,2-2v-11.359c0-1.046-.92-2.048-2-2s-2,.879-2,2h0Z"/><path class="i" d="M288.117,90.595v11.359c0,1.046.92,2.048,2,2s2-.879,2-2v-11.359c0-1.046-.92-2.048-2-2s-2,.879-2,2h0Z"/><path class="i" d="M300.636,4.001c2.723.003,5.472-.039,8.181.266,2.927.33,5.833.874,8.687,1.595,5.606,1.417,11.006,3.579,15.929,6.627,9.064,5.611,16.299,14.411,18.982,24.833,2.489,9.665,1.507,20.964-3.289,29.772-2.608,4.789-6.331,9.064-11.027,11.89-1.224.737-2.5,1.392-3.808,1.965-1.356.594-2.74.993-3.868,2-2.298,2.053-2.26,4.813-2.304,7.659-.052,3.305-.102,6.61-.151,9.915.001-.096-.063,1.337.093.915l.107-.053c-.215.098-.437.177-.667.236-.681.205-1.371.289-2.078.335-1.132.073-2.271.069-3.405.083-5.484.066-10.969.071-16.454.079-6.476.008-12.952.004-19.428-.027-2.383-.011-4.766-.024-7.148-.055-1.047-.013-2.098-.012-3.144-.08-.706-.046-1.397-.132-2.078-.335.037.011-.6-.15-.667-.236.352.453.199-.928.197-1.105-.05-3.305-.1-6.61-.151-9.914-.045-2.905-.118-5.652-2.565-7.63-1.073-.867-2.357-1.243-3.603-1.787-1.374-.6-2.711-1.295-3.99-2.076-2.443-1.49-4.556-3.362-6.456-5.495-6.98-7.837-9.445-18.429-8.788-28.708.681-10.655,5.697-20.244,13.606-27.353,8.597-7.728,20.142-11.898,31.527-13.095,2.567-.27,5.181-.217,7.759-.22S303.214-.002,300.636,0c-6.099.006-11.997.504-17.932,2.005-6.053,1.53-11.955,3.923-17.244,7.255-9.753,6.143-17.565,15.727-20.461,26.999-2.695,10.49-1.652,22.533,3.336,32.182,2.725,5.272,6.766,10.037,11.733,13.314,1.191.786,2.439,1.485,3.723,2.107,1.302.631,3.002,1.007,4.158,1.868.928.692,1.142,1.615,1.168,2.705.043,1.771.056,3.543.083,5.315s.054,3.548.081,5.321c.025,1.629-.294,3.703.876,5.019,1.893,2.13,5.752,1.903,8.338,1.94,5.655.081,11.312.08,16.967.088,6.827.009,13.655.005,20.482-.031,2.355-.012,4.711-.025,7.066-.061,2.549-.039,6.855.17,8.418-2.342.808-1.298.541-3.147.564-4.614.028-1.854.056-3.709.085-5.563.026-1.691.038-3.382.079-5.073.027-1.117.273-2.068,1.238-2.753,1.159-.822,2.806-1.199,4.088-1.82,1.412-.685,2.78-1.461,4.077-2.344,2.552-1.737,4.819-3.85,6.791-6.221,7.191-8.646,9.936-19.908,9.152-30.995-.816-11.545-6.146-22.083-14.753-29.814-9.354-8.402-21.568-12.826-33.932-14.22C306.108-.039,303.359.003,300.636,0c-2.574-.003-2.578,3.997,0,4Z"/></g><g id="g"><path class="j" d="M61.433,78.914c-4.573.349-9.082,1.462-13.276,3.288-.962.419-2.078.037-2.609-.869-3.474-5.926-9.251-9.881-16.183-10.262-7.256-.399-15.685,3.025-21.053,11.703-.87,1.406-2.943,1.342-3.669-.143-3.826-7.821-2.944-18.308-.801-25.076C11.404,33.677,24.613,23.42,43.872,15.328c1.195-.502,2.555.175,2.855,1.436,1.439,6.06,3.323,12.093,6.979,17.116,4.136,5.682,11.039,9.859,17.95,8.879l.171-.024c-.25-.6-.5-1.2-.5-1.2-.451-1.083-.546-3.616-.275-4.571.417-1.472,3.25-8.583,5.873-11.138.191-.186.472-.313.73-.248.221.055.396.238.502.44,1.709,3.277,3.129,6.406,5.065,10.6,3.373-1.61,14.686-1.626,18.52.32,2.011-4.356,3.458-7.56,5.211-10.919.105-.202.281-.385.502-.44.258-.064.54.063.73.248,2.623,2.554,5.456,9.666,5.873,11.138.27.955.175,3.488-.275,4.571l-.52,1.25c6.837.863,13.636-3.284,17.727-8.904,3.656-5.023,5.54-11.055,6.979-17.116.299-1.261,1.66-1.938,2.855-1.436,19.259,8.092,32.468,18.349,40.029,42.227,2.143,6.769,3.026,17.256-.801,25.076-.727,1.485-2.8,1.549-3.669.143-5.367-8.678-13.797-12.102-21.053-11.703-6.932.381-12.708,4.336-16.183,10.262-.531.905-1.647,1.288-2.609.869-6.054-2.636-12.762-3.786-19.376-3.298-2.166.16-4.296.622-6.186,1.826-1.62,1.032-3.616,2.541-5.026,3.858-3.67,3.428-8.559,11.391-11.092,15.737-.773,1.327-2.656,1.397-3.523.13-2.91-4.253-8.646-12.215-12.957-16.2-1.417-1.31-3.014-2.529-4.656-3.525-1.71-1.037-4.02-1.666-6.186-1.826-2.032-.15-4.072-.145-6.1.01Z"/><path class="i" d="M99.807,50.762h3.493c.513,0,1.052-.223,1.414-.586.347-.347.608-.916.586-1.414-.023-.517-.193-1.054-.586-1.414s-.872-.586-1.414-.586h-3.493c-.513,0-1.052.223-1.414.586-.347.347-.608.916-.586,1.414.023.517.193,1.054.586,1.414s.872.586,1.414.586h0Z"/><path class="i" d="M81.806,50.762h3.493c.513,0,1.052-.223,1.414-.586.347-.347.608-.916.586-1.414-.023-.517-.193-1.054-.586-1.414s-.872-.586-1.414-.586h-3.493c-.513,0-1.052.223-1.414.586-.347.347-.608.916-.586,1.414.023.517.193,1.054.586,1.414s.872.586,1.414.586h0Z"/><path class="i" d="M73.255,41.002c-.824-2.249-.156-4.098.724-6.184.588-1.394,1.243-2.766,1.969-4.094.362-.662.743-1.315,1.159-1.944.174-.263.349-.53.544-.778.111-.138.226-.273.344-.405.317-.281.203-.288-.341-.021l-1.009-.273.294.165-.718-.718c1.092,1.447,1.794,3.414,2.568,5.048.916,1.935,1.807,3.882,2.704,5.827.484,1.049,1.834,1.128,2.736.718-.368.167.245-.082.375-.123.276-.086.557-.158.838-.223.582-.134,1.172-.236,1.764-.309,1.688-.208,3.401-.262,5.1-.245,1.597.016,3.208.092,4.792.314.719.101,1.436.237,2.14.415.309.078.615.164.917.265.139.046.276.095.412.147.347.131-.373-.182.162.079.898.437,2.257.322,2.736-.718.926-2.007,1.844-4.017,2.788-6.016.798-1.688,1.506-3.689,2.63-5.179l-.718.718.294-.165-1.009.273c-.544-.267-.657-.26-.341.021.118.132.233.267.344.405.164.209.311.432.459.652.45.668.858,1.364,1.244,2.071.725,1.328,1.381,2.699,1.969,4.094.88,2.086,1.549,3.93.724,6.184-.886,2.421,2.978,3.465,3.857,1.063.83-2.267.62-4.857-.227-7.07-.995-2.6-2.15-5.191-3.607-7.569-.709-1.157-1.54-2.553-2.683-3.329-1.811-1.229-3.459-.09-4.327,1.602-1.722,3.358-3.272,6.801-4.852,10.226l2.736-.718c-3.159-1.536-6.988-1.73-10.442-1.766-3.319-.034-7.025.048-10.096,1.446l2.736.718c-1.576-3.415-3.022-6.976-4.883-10.249-1.006-1.77-2.936-2.39-4.555-.947-.958.854-1.704,2.063-2.362,3.153-1.413,2.342-2.546,4.88-3.523,7.432-.846,2.211-1.056,4.804-.227,7.07.878,2.398,4.745,1.362,3.857-1.063h0Z"/><path class="i" d="M71.655,40.758c-8.976,1.15-15.987-5.923-19.459-13.471-.952-2.071-1.687-4.24-2.328-6.426-.327-1.114-.625-2.235-.906-3.361-.279-1.119-.492-2.227-1.328-3.086-1.692-1.737-3.729-1.264-5.704-.418-1.618.693-3.224,1.416-4.811,2.179-6.091,2.927-11.899,6.477-16.966,10.972-5.181,4.596-9.431,10.192-12.66,16.309C3.762,50.527.817,58.343.149,66.353c-.355,4.251-.104,8.65,1.046,12.77.527,1.887,1.187,4.491,2.77,5.763,1.526,1.227,3.817,1.175,5.273-.151.76-.692,1.235-1.665,1.828-2.497.624-.875,1.317-1.695,2.056-2.474,1.306-1.375,2.757-2.587,4.369-3.587,2.888-1.791,6.2-2.924,9.604-3.107,3.719-.2,7.345.685,10.498,2.682,1.581,1.002,2.973,2.268,4.189,3.688,1.285,1.501,2.084,3.786,3.985,4.593,2.201.934,4.429-.585,6.498-1.263,2.325-.762,4.728-1.331,7.155-1.654,4.321-.574,9.614-.911,13.479,1.457,3.571,2.187,6.384,5.306,9.015,8.516,2.433,2.968,4.702,6.07,6.893,9.219,1.142,1.641,2.248,3.138,4.466,3.04,2.2-.097,3.181-1.814,4.183-3.496,1.958-3.286,4.002-6.536,6.274-9.616,2.255-3.059,4.884-5.627,8.099-7.68,2.036-1.3,4.313-1.633,6.685-1.729s4.771,0,7.121.341c2.378.344,4.728.913,7.006,1.673,2.144.715,4.429,2.269,6.668,1.016,1.716-.96,2.556-3.241,3.84-4.69,1.241-1.401,2.652-2.627,4.252-3.602,6.233-3.797,14.081-3.055,20.094.8,1.605,1.028,3.044,2.279,4.335,3.679.688.746,1.329,1.53,1.913,2.36.631.897,1.121,1.916,2.024,2.577,1.578,1.155,3.854,1.039,5.264-.348,1.428-1.406,2.072-4.006,2.569-5.892,2.157-8.191.954-16.871-1.835-24.74-2.527-7.131-5.938-13.901-10.629-19.858-4.132-5.247-9.247-9.63-14.88-13.198-2.883-1.827-5.897-3.441-8.977-4.91-1.593-.759-3.204-1.48-4.828-2.171-2.004-.853-4.145-1.044-5.653.861-.648.819-.824,1.785-1.07,2.775-.298,1.196-.617,2.388-.968,3.57-.668,2.253-1.442,4.482-2.448,6.607-1.868,3.945-4.456,7.597-8.092,10.095-3.328,2.287-7.14,3.504-11.185,2.986-1.073-.137-2,1.018-2,2,0,1.195.924,1.862,2,2,8.607,1.102,16.527-4.66,20.883-11.661,2.374-3.815,3.932-8.113,5.117-12.429.283-1.031.645-2.104.807-3.162.039-.254.231-.389.017-.307.239-.092.496.089.727.184,1.579.647,3.133,1.371,4.673,2.105,5.789,2.76,11.389,6.045,16.223,10.287,4.92,4.317,8.922,9.485,12.018,15.245,3.509,6.526,6.42,13.897,7.04,21.332.338,4.048.141,8.176-1.013,12.088-.11.374-.993,3.453-1.359,3.378-.176-.036-.506-.744-.627-.926-.301-.45-.616-.889-.942-1.321-.652-.864-1.334-1.705-2.074-2.495-4.882-5.212-12.01-8.407-19.202-8.005-3.917.219-7.766,1.468-10.989,3.724-1.567,1.097-3.011,2.365-4.256,3.818-.628.732-1.219,1.503-1.766,2.297-.325.473-.794,1.429-1.055,1.431-.422.003-1.249-.511-1.652-.668-.49-.191-.982-.373-1.479-.544-1.136-.392-2.288-.735-3.454-1.027-2.359-.59-4.777-.973-7.2-1.171-4.467-.365-9.583-.371-13.513,2.072-6.67,4.146-10.938,10.59-14.956,17.164-.391.64-.778,1.283-1.161,1.928-.194.327-.41.651-.583.99-.047.092-.121.265-.216.319.12-.068.122-.015.059-.033-.354-.1-.64-.784-.846-1.081-.492-.708-.99-1.412-1.492-2.113-2.333-3.258-4.751-6.471-7.364-9.51s-5.595-6.045-9.174-7.943c-4.06-2.152-8.998-2.165-13.465-1.753-2.347.217-4.685.603-6.969,1.187-1.091.279-2.171.603-3.236.971-.567.197-1.131.405-1.689.626-.376.149-1.167.697-1.573.629-.064-.011-.806-1.308-1.029-1.626-.587-.839-1.221-1.653-1.9-2.419-1.264-1.427-2.731-2.681-4.311-3.745-6.088-4.1-14.063-4.545-20.781-1.781-3.567,1.467-6.776,3.687-9.375,6.545-.687.756-1.325,1.555-1.935,2.373-.205.275-1.224,2.112-1.504,2.096-.119-.007-.32-.682-.344-.735-.412-.918-.737-1.875-1.014-2.842-2.201-7.678-.942-15.797,1.677-23.186,2.367-6.68,5.609-13.175,10.087-18.703,3.963-4.892,8.766-8.971,14.104-12.289,2.771-1.723,5.657-3.254,8.603-4.653,1.532-.728,3.086-1.518,4.681-2.101.681-.249.472-.278.64.4.28,1.126.56,2.252.873,3.37,2.352,8.392,6.46,16.747,14.344,21.175,3.492,1.961,7.536,3.007,11.539,2.495,1.071-.137,2-.821,2-2,0-.974-.921-2.138-2-2h0Z"/></g></g></svg>