<?xml version="1.0" encoding="UTF-8"?><svg id="b" xmlns="http://www.w3.org/2000/svg" width="349.272" height="288.187" viewBox="0 0 349.272 288.187"><defs><style>.d{fill:#d9d9d9;}.e{fill:#fff;}.f{fill:#f4b3b3;}.g{fill:#211715;}.h{fill:#ffda71;}.i{fill:#79c6e0;}.j{fill:#c6c6c6;}.k{fill:#645d5c;}</style></defs><g id="c"><path class="e" d="M2,20.854c.087,46.145.393,150.121.487,193.802.022,10.312,8.36,18.669,18.671,18.709,60.01.232,245.985-.144,307.397-.25,10.347-.018,18.718-8.399,18.713-18.746-.022-44.741-.093-151.21-.118-193.517-.006-10.351-8.389-18.728-18.741-18.729-63.669-.008-246.891-.044-307.661-.054-10.371-.002-18.767,8.415-18.748,18.786Z"/><path class="f" d="M233.609,192.513s-.243-6.585-.45-10.873c6.195,5.637,17.605,5.352,23.629-.464-.229,4.374-.513,11.338-.513,11.338h-22.667Z"/><path class="e" d="M280.187,191.008c-3.272-5.748-6.487-8.372-9.353-10.145-1.858-1.149-7.281-3.425-9.171-3.992,0,0-3.23-.934-4.603-.996l-.784,15.173"/><path class="e" d="M209.76,191.008c3.272-5.748,6.487-8.372,9.353-10.145,1.858-1.149,7.281-3.425,9.171-3.992,0,0,3.23-.934,4.603-.996l.722,15.173"/><path class="e" d="M279.896,90.831c-.713-1.371-1.786-2.674-3.784-4.268-.76-.607-9.056-4.797-16.464-8.216-.648-1.25-1.046-2.017-1.046-2.017-1.071-2.066-2.506-4.173-4.328-5.848-3.553,3.601-8.085,6.69-12.42,8.656-.257.117-.544.259-.627.529-.072.234.037.481.143.701.084.175.42.63.915,1.259-2.139.037-4.565.086-6.449.119.547-.69.92-1.192,1.01-1.378.106-.22.215-.468.143-.701-.083-.27-.37-.412-.627-.529-4.335-1.966-8.868-5.055-12.42-8.656-2.23,2.05-3.878,4.743-4.99,7.221-7.724,3.513-17.062,8.215-17.87,8.86-1.998,1.595-3.071,2.897-3.784,4.268h82.598Z"/><path class="k" d="M260.706,21.948c-.675-.97-1.429-1.878-2.258-2.712-5.57-5.602-13.851-8.137-21.715-7.383-6.888.66-13.662,3.158-18.305,8.288-5.31,5.868-7.77,14.766-5.382,23.663,1.46-1.096,3.516-1.393,5.176-.608,5.122-3.065,13.25-6.326,18.847-9.04.303-.147.633-.297.963-.234.815.156.861,1.297.704,2.112,1.77.459,3.513-.703,4.974-1.803l4.819-3.629c1.453,2.512,4.65,6.346,6.948,8.882.403.444,2.511,2.49,3.666,3.114l.613.331c.028-.008.058-.017.058-.017,1.218-.357,2.562-.198,3.701.371,2.403-7.725,1.172-15.617-2.807-21.336Z"/><path class="g" d="M251.913,77.111c5.429,2.212,10.723,4.79,15.975,7.39,3.766,1.864,8.18,3.434,10.282,7.339,1.22,2.268,4.675.25,3.454-2.019-2.455-4.561-7.06-6.464-11.448-8.641-5.651-2.803-11.355-5.546-17.199-7.927-1.001-.408-2.198.443-2.46,1.397-.315,1.145.392,2.051,1.397,2.46h0Z"/><path class="g" d="M224.218,73.254c-5.844,2.381-11.548,5.123-17.199,7.927-4.389,2.177-8.993,4.079-11.448,8.641-1.22,2.267,2.232,4.289,3.454,2.019,2.102-3.905,6.516-5.475,10.282-7.339,5.252-2.6,10.546-5.178,15.975-7.39,1-.407,1.707-1.331,1.397-2.46-.26-.947-1.454-1.807-2.46-1.397h0Z"/><path class="g" d="M265.645,43.13c1.775-6.461,1.391-13.418-1.601-19.461-2.832-5.72-8.051-9.806-13.947-12.041-11.923-4.521-27.486-1.018-35.059,9.566-4.42,6.177-5.736,14.056-4.321,21.437.484,2.525,4.34,1.456,3.857-1.063-1.071-5.587-.187-11.489,2.675-16.427,2.799-4.829,7.332-8.158,12.608-9.861,10.272-3.316,23.47-1.296,29.632,8.446,3.456,5.463,3.988,12.189,2.299,18.341-.683,2.486,3.175,3.546,3.857,1.063h0Z"/><path class="g" d="M260.344,44.841c.177-.048.352-.09.533-.122-.429.077.131.006.193.005.183-.004.365.007.547.02-.293-.021-.066-.01.1.026.179.039.356.086.53.143.137.045.378.153.119.032.166.077.329.163.486.257.029.017.501.351.195.107.143.114.279.24.406.37.059.06.38.468.159.159.09.126.172.257.248.392.05.085.096.173.139.262-.049-.137-.049-.141-.001-.01.136.348.233.719.291,1.088-.054-.346.013.284.013.295.008.209.007.42-.003.629-.003.066-.07.64-.019.308-.027.175-.065.348-.105.52-.049.207-.107.411-.173.613-.025.076-.157.451-.062.215-.323.806-.741,1.365-1.205,1.88-.508.564-1.094,1.088-1.552,1.405-.355.246-.723.472-1.103.677-.187.101-.378.194-.57.285-.349.165.093-.028-.294.118-1.01.381-1.702,1.35-1.397,2.46.266.969,1.444,1.78,2.46,1.397,4.294-1.62,8.078-5.458,8.031-10.298-.023-2.394-1.038-4.601-2.982-6.019-1.717-1.253-4.006-1.624-6.046-1.071-1.042.283-1.682,1.422-1.397,2.46.288,1.048,1.414,1.681,2.46,1.397h0Z"/><path class="g" d="M218.231,41.061c-2.013-.615-4.336-.272-6.071.929-1.987,1.376-3.017,3.566-3.116,5.955-.2,4.848,3.543,8.753,7.765,10.499.999.413,2.199-.447,2.46-1.397.316-1.149-.394-2.046-1.397-2.46.285.118-.29-.145-.284-.142-.19-.095-.377-.197-.561-.303-.342-.198-.675-.414-.994-.647-.108-.08-.117-.085-.028-.017-.085-.068-.169-.137-.252-.208-.139-.118-.275-.238-.407-.362-.318-.297-.611-.615-.898-.942-.148-.169-.343-.441-.565-.802-.091-.149-.178-.301-.259-.455-.05-.093-.097-.186-.141-.282.046.124.044.121-.005-.008-.144-.36-.254-.737-.336-1.116,0-.002-.101-.633-.064-.306-.024-.209-.035-.422-.039-.632s.009-.419.016-.629c.011-.342-.017.004.021-.19.07-.366.158-.742.305-1.086-.129.302.119-.201.151-.256.017-.029.351-.501.111-.204.115-.142.243-.277.375-.404.062-.059.474-.373.16-.153.125-.088.254-.17.386-.247.056-.033.524-.265.335-.184-.221.095.231-.078.276-.092.176-.055.354-.09.532-.136.506-.128-.328-.015.193-.022.183-.003.364-.002.547-.003.42-.001-.252-.094.191.018.177.045.354.085.529.139,1.033.315,2.18-.376,2.46-1.397.294-1.069-.36-2.144-1.397-2.46h0Z"/><path class="g" d="M257.603,55.998c-1.364,4.036-3.879,7.811-7.321,10.371-3.328,2.475-7.369,3.41-11.47,3.416-4.181.006-8.313-1.001-11.717-3.487s-5.883-6.186-7.257-10.134c-.841-2.416-4.706-1.377-3.857,1.063,2.541,7.302,8.169,13.719,15.848,15.691,7.624,1.958,16.221.767,22.243-4.504,3.453-3.023,5.926-7.026,7.389-11.352.826-2.444-3.036-3.493-3.857-1.063h0Z"/><path class="g" d="M250.876,47.436c.002.174.011,1.918-1.465,2.946-.968.674-1.996.587-2.32.554-.249-.025-1.871-.215-2.715-1.631-.799-1.342-.627-3.329.711-4.497,1.387-1.211,3.35-1.019,4.521-.051,1.055.872,1.237,1.792,1.268,2.678Z"/><path class="g" d="M233.971,47.436c.002.174.011,1.918-1.465,2.946-.968.674-1.996.587-2.32.554-.249-.025-1.871-.215-2.715-1.631-.799-1.342-.627-3.329.711-4.497,1.387-1.211,3.35-1.019,4.521-.051,1.055.872,1.237,1.792,1.268,2.678Z"/><path class="g" d="M247.517,32.753c1.7,2.529,3.667,4.893,5.68,7.177.657.745,1.325,1.458,2.056,2.131.886.816,1.823,1.673,2.879,2.263.913.511,2.225.25,2.736-.718.498-.943.258-2.191-.718-2.736-.193-.108-.379-.228-.56-.356-.094-.066-.236-.138-.31-.229.304.371.096.071-.026-.029-.437-.357-.859-.732-1.272-1.116-.695-.645-1.331-1.329-1.958-2.04-.953-1.082-1.885-2.183-2.787-3.308-.229-.285-.455-.572-.68-.86.173.222.015.019-.071-.093-.107-.14-.213-.281-.319-.423-.412-.552-.813-1.112-1.198-1.684-.583-.867-1.789-1.328-2.736-.718-.864.557-1.342,1.808-.718,2.736h0Z"/><path class="g" d="M247.812,28.654l-4.523,3.406c-1.031.776-2.609,2.316-4.022,2.046l1.397,2.46c.342-2.18-.426-4.996-3.228-4.608-1.106.153-2.211.875-3.214,1.342-1.084.504-2.174.997-3.264,1.488-4.38,1.973-8.816,3.877-12.999,6.25-2.239,1.27-.226,4.727,2.019,3.454,2.967-1.683,6.068-3.117,9.172-4.526,1.584-.719,3.174-1.427,4.759-2.145.721-.326,1.441-.654,2.159-.987.343-.159.685-.319,1.027-.48.221-.104.441-.209.661-.315.434-.172.431-.206-.011-.101l-.883-.514c-.233-.181.047-.565-.054.079-.157.999.242,2.24,1.397,2.46,2.253.43,4.169-.321,5.997-1.625,1.909-1.362,3.757-2.819,5.63-4.23.861-.649,1.308-1.727.718-2.736-.496-.849-1.868-1.371-2.736-.718h0Z"/><path class="e" d="M249.055,89.89c3.988-3.964,6.601-8.765,9.547-13.56-1.071-2.066-2.506-4.173-4.328-5.848-3.553,3.601-8.085,6.69-12.42,8.656-.257.117-.544.259-.627.529-.072.234.037.481.143.701.161.333,1.235,1.685,2.569,3.317,1.748,2.139,3.942,4.759,5.116,6.205Z"/><path class="e" d="M229.161,89.89c-3.988-3.964-6.601-8.765-9.547-13.56,1.071-2.066,2.506-4.173,4.328-5.848,3.553,3.601,8.085,6.69,12.42,8.656.257.117.544.259.627.529.072.234-.037.481-.143.701-.161.333-1.235,1.685-2.569,3.317-1.748,2.139-3.942,4.759-5.116,6.205Z"/><path class="g" d="M250.469,91.304c3.116-3.132,5.536-6.839,7.818-10.599.562-.926,1.118-1.855,1.682-2.779.362-.594.682-1.14.597-1.862-.072-.608-.474-1.204-.777-1.731-1.109-1.93-2.477-3.74-4.101-5.266-.786-.738-2.045-.786-2.828,0-2.023,2.032-4.244,3.832-6.651,5.391-1.173.76-2.381,1.466-3.623,2.107-1.22.63-2.876,1.073-3.288,2.569-.313,1.138.237,2.159.895,3.032.814,1.08,1.671,2.126,2.527,3.172,1.633,1.994,3.293,3.966,4.92,5.965.682.838,2.12.709,2.828,0,.829-.829.684-1.988,0-2.828-1.358-1.669-2.74-3.317-4.108-4.977-.77-.935-1.54-1.87-2.294-2.818-.214-.268-.408-.509-.607-.782-.085-.117-.171-.274-.269-.381-.187-.205.068-.268.036.149l-.273,1.009c-.362.297-.392.36-.091.189l.289-.133c.291-.137.582-.275.871-.418.59-.292,1.172-.599,1.747-.92,1.185-.661,2.337-1.379,3.456-2.147,2.308-1.585,4.487-3.367,6.463-5.352h-2.828c1.674,1.572,2.949,3.417,4.016,5.443v-2.019c-2.806,4.577-5.417,9.319-9.234,13.155-1.818,1.827,1.01,4.657,2.828,2.828Z"/><path class="g" d="M230.575,88.476c-3.817-3.836-6.428-8.578-9.234-13.155v2.019c1.066-2.027,2.341-3.871,4.016-5.443h-2.828c1.976,1.985,4.156,3.765,6.463,5.352,1.118.769,2.271,1.486,3.456,2.147.527.294,1.061.577,1.601.847.289.144.579.285.871.423.144.068.289.135.434.201.302.171.271.109-.091-.189l-.273-1.009c-.029-.377.236-.369.036-.149-.082.09-.145.209-.216.308-.22.307-.423.557-.66.854-.754.948-1.524,1.883-2.294,2.818-1.368,1.66-2.751,3.309-4.108,4.977-.681.837-.819,2.01,0,2.828.704.704,2.143.842,2.828,0,1.594-1.959,3.22-3.891,4.82-5.844.867-1.057,1.732-2.117,2.56-3.205.685-.9,1.289-1.934.963-3.121-.4-1.453-1.954-1.887-3.142-2.495-1.242-.635-2.452-1.334-3.625-2.089-2.46-1.581-4.73-3.412-6.794-5.484-.78-.783-2.041-.74-2.828,0-1.585,1.488-2.926,3.248-4.021,5.125-.29.497-.669,1.05-.822,1.606-.224.814.157,1.466.561,2.128.564.925,1.12,1.854,1.682,2.779,2.282,3.76,4.702,7.467,7.818,10.599,1.818,1.827,4.647-1.001,2.828-2.828Z"/><path class="k" d="M257.405,176.146c4.994-.165,6.783-.842,10.683-3.779,2.615-1.97,4.227-5.275,4.982-8.345.755-3.07.719-6.261.516-9.406-.613-9.486-2.365-19.223-5.885-28.132-1.141-2.889-3.003-5.778-5.143-8.111-3.255-3.548-6.989-5.458-11.744-6.857-1.779-.524-4.669-.657-6.528-.783-3.889-.263-7.513.997-11.182,2.238-14.489,4.003-15.232,22.542-15.594,24.764-.365,2.243-.322,4.527-.592,6.781-.53,4.439-2.255,8.668-3.273,13.031-1.018,4.364-.916,9.318,1.346,13.246,1.721,2.989,6.543,5.353,11.055,5.905l31.359-.552Z"/><path class="e" d="M261.699,139.168c-1.791-3.346-4.28-6.456-7.582-8.776-3.302-2.32-7.409-4.926-12.281-3.806-1.278,1.354-14.166,12.373-17.424,14.904-.235.183-.42.321-.547.408,0,0-.108.075-.215.148-.086-.03-.174-.058-.174-.058-2.142-.701-4.736.211-5.894,2.206s-.947,4.753.244,6.797c1.267,2.174,3.558,3.981,5.869,4.732.864,2.526,2.339,5.489,4.798,8.248,2.225,2.497,4.834,4.272,7.619,5.35.011.123.022.209.022.209,0,.476-.293,2.901-.399,3.468-.254,1.369-.165,2.597-2.071,3.285-.064.023-.324.11-.613.206.302,1.142.983,3.711,1.689,6.379,5.874,3.975,14.882,3.734,20.595-.484.7-2.644,1.354-5.111,1.61-6.079-.619-.241-1.271-.495-1.339-.52-1.906-.688-1.831-1.914-2.071-3.285-.247-1.412-.068-1.661-.359-3.096,0,0-.001-.06-.005-.145,2.729-1.105,5.183-2.865,7.436-5.447,2.467-2.828,3.917-5.857,4.748-8.423.438-5.552-.935-11.135-3.657-16.221Z"/><path class="g" d="M224.008,140.061c-2.013-.615-4.336-.272-6.071.929-1.987,1.376-3.017,3.566-3.116,5.955-.2,4.848,3.543,8.753,7.765,10.499.999.413,2.199-.447,2.46-1.397.316-1.149-.394-2.046-1.397-2.46.285.118-.29-.145-.284-.142-.19-.095-.377-.197-.561-.303-.342-.198-.675-.414-.994-.647-.108-.08-.117-.085-.028-.017-.085-.068-.169-.137-.252-.208-.139-.118-.275-.238-.407-.362-.318-.297-.611-.615-.898-.942-.148-.169-.343-.441-.565-.802-.091-.149-.178-.301-.259-.455-.05-.093-.097-.186-.141-.282.046.124.044.121-.005-.008-.144-.36-.254-.737-.336-1.116,0-.002-.101-.633-.064-.306-.024-.209-.035-.422-.039-.632s.009-.419.016-.629c.011-.342-.017.004.021-.19.07-.366.158-.742.305-1.086-.129.302.119-.201.151-.256.017-.029.351-.501.111-.204.115-.142.243-.277.375-.404.062-.059.474-.373.16-.153.125-.088.254-.17.386-.247.056-.033.524-.265.335-.184-.221.095.231-.078.276-.092.176-.055.354-.09.532-.136.506-.128-.328-.015.193-.022.183-.003.364-.002.547-.003.42-.001-.252-.094.191.018.177.045.354.085.529.139,1.033.315,2.18-.376,2.46-1.397.294-1.069-.36-2.144-1.397-2.46h0Z"/><path class="g" d="M263.38,154.998c-1.364,4.036-3.879,7.811-7.321,10.371-3.328,2.475-7.369,3.41-11.47,3.416-4.181.006-8.313-1.001-11.717-3.487s-5.883-6.186-7.257-10.134c-.841-2.416-4.706-1.377-3.857,1.063,2.541,7.302,8.169,13.719,15.848,15.691,7.624,1.958,16.221.767,22.243-4.504,3.453-3.023,5.926-7.026,7.389-11.352.826-2.444-3.036-3.493-3.857-1.063h0Z"/><path class="g" d="M256.653,146.436c.002.174.011,1.918-1.465,2.946-.968.674-1.996.587-2.32.554-.249-.025-1.871-.215-2.715-1.631-.799-1.342-.627-3.329.711-4.497,1.387-1.211,3.35-1.019,4.521-.051,1.055.872,1.237,1.792,1.268,2.678Z"/><path class="g" d="M239.748,146.436c.002.174.011,1.918-1.465,2.946-.968.674-1.996.587-2.32.554-.249-.025-1.871-.215-2.715-1.631-.799-1.342-.627-3.329.711-4.497,1.387-1.211,3.35-1.019,4.521-.051,1.055.872,1.237,1.792,1.268,2.678Z"/><path class="g" d="M233.428,184.396c7.007,4.882,17.46,4.315,23.996-1.109.832-.69.714-2.115,0-2.828-.823-.823-1.995-.692-2.828,0-5.214,4.326-13.704,4.276-19.148.483-.887-.618-2.222-.162-2.736.718-.583.996-.171,2.117.718,2.736h0Z"/><path class="g" d="M281.914,189.998c-2.843-4.932-6.652-9.276-11.831-11.799-3.998-1.947-8.511-4.013-13.024-4.326-1.118-.078-1.947.981-2,2-.261,5.058-.523,10.115-.784,15.173-.133,2.573,3.867,2.565,4,0,.261-5.058.523-10.115.784-15.173l-2,2c1.246.086,3.155.607,4.597,1.095,2.187.741,4.333,1.674,6.408,2.684,4.603,2.242,7.864,5.972,10.396,10.364,1.285,2.23,4.743.218,3.454-2.019h0Z"/><path class="g" d="M234.134,169.532c-.007.667-.116,1.342-.196,2.003-.024.193-.048.387-.073.58-.043.336.086-.609.022-.165-.009.064-.018.127-.027.191-.047.316-.104.63-.154.946-.059.378-.134.74-.245,1.105-.092.301.24-.473.084-.2-.051.089-.1.177-.154.264-.168.275.34-.371.116-.156-.081.078-.169.153-.248.232.409-.41.234-.178.054-.074-.102.059-.238.099-.33.169.303-.124.353-.147.15-.069-.02.007-.04.014-.059.021-.052.018-.105.036-.158.053-.388.13-.776.257-1.163.389-.989.336-1.743,1.39-1.397,2.46.318.982,1.4,1.757,2.46,1.397.941-.32,1.979-.566,2.796-1.15,1.076-.769,1.696-1.843,1.914-3.139.147-.878.277-1.757.387-2.641.091-.73.214-1.478.222-2.216.012-1.046-.928-2.048-2-2-1.094.049-1.988.879-2,2h0Z"/><path class="g" d="M251.248,169.936c.026.132.052.265.074.397.01.058.018.117.028.176.038.216-.03-.282-.035-.264-.041.153.041.428.05.59.029.477.064.949.128,1.423.106.792.174,1.658.428,2.421.37,1.111,1.092,2.05,2.142,2.602.588.309,1.244.522,1.864.764.538.209,1.078.414,1.612.632.448.182,1.143.031,1.541-.202.415-.243.811-.718.919-1.195.117-.512.091-1.087-.202-1.541-.3-.466-.685-.711-1.195-.919-.579-.236-1.164-.458-1.747-.684-.23-.09-.46-.18-.691-.268-.166-.063-.275-.173.117.057-.093-.055-.197-.094-.292-.147-.059-.033-.116-.068-.172-.105-.169-.117-.109-.068.177.147-.078-.082-.169-.158-.251-.238-.228-.223.311.473.072.084-.048-.078-.083-.21-.143-.275.065.07.202.532.093.189-.032-.099-.058-.2-.082-.302-.094-.403-.138-.815-.206-1.223-.026-.155-.036-.325-.077-.476.158.588.026.177.01-.003-.018-.204-.028-.409-.039-.613-.039-.701-.131-1.4-.267-2.089-.203-1.028-1.485-1.712-2.46-1.397-1.094.354-1.614,1.358-1.397,2.46h0Z"/><path class="g" d="M237.405,122.075l.018.023-.313-.405c.451.604.778,1.321,1.113,1.992.482.967.936,1.948,1.357,2.943l-.202-.478c.188.448.37.898.53,1.357.173.496.456.924.919,1.195.429.251,1.061.357,1.541.202.975-.316,1.765-1.402,1.397-2.46-.481-1.381-1.098-2.724-1.729-4.043-.526-1.098-1.054-2.19-1.802-3.155-.291-.375-.966-.586-1.414-.586-.491,0-1.076.218-1.414.586-.35.381-.61.882-.586,1.414.025.567.242.97.586,1.414h0Z"/><path class="g" d="M240.422,125.172c-1.868,1.955-4.068,3.657-6.114,5.418-2.954,2.544-5.923,5.073-8.928,7.557-.59.488-1.181.974-1.779,1.452-.167.134-.974.714-.317.256-.146.101-.283.215-.429.317-.885.617-1.294,1.751-.718,2.736.512.876,1.846,1.338,2.736.718,2.393-1.667,4.588-3.683,6.813-5.561,3.008-2.539,6.003-5.096,8.959-7.696.876-.771,1.796-1.523,2.603-2.368,1.778-1.861-1.046-4.694-2.828-2.828h0Z"/><path class="g" d="M242.368,128.515c4.105-.857,7.912,1.493,11.078,3.847,3.384,2.516,5.813,6.057,7.536,9.863,3.641,8.049,3.158,17.103-1.69,24.52-1.412,2.161,2.05,4.168,3.454,2.019,4.405-6.74,5.718-14.877,3.777-22.682-1.893-7.612-6.339-14.154-12.906-18.447-3.729-2.437-7.839-3.912-12.313-2.978-2.518.526-1.453,4.382,1.063,3.857h0Z"/><path class="g" d="M232.572,111.042c-9.424,2.688-14.401,11.415-16.186,20.511-.295,1.506-.509,3.027-.686,4.551-.05.432-.114.867-.146,1.301-.025.336.056-.374.039-.278-.049.273-.082.549-.12.823-.155,1.134-.24,2.272-.31,3.414-.245,4.036-1.213,7.753-2.352,11.618-1.07,3.631-2.002,7.326-1.739,11.145.253,3.671,1.386,7.644,4.259,10.13,2.998,2.594,6.835,3.923,10.715,4.442,1.073.143,2-1.022,2-2,0-1.2-.924-1.856-2-2-2.79-.373-5.89-1.478-8.016-3.382-2.152-1.928-2.887-5.021-2.989-7.812-.126-3.426.797-6.653,1.76-9.905,1.076-3.637,2.032-7.219,2.289-11.021.132-1.957.323-3.893.54-5.84.051-.46.105-.92.161-1.379.012-.096.083-.601.009-.073.023-.162.045-.324.07-.486.062-.411.127-.821.198-1.231.603-3.461,1.573-6.902,3.216-9.962,2.253-4.197,5.719-7.385,10.353-8.707,2.471-.705,1.421-4.566-1.063-3.857h0Z"/><path class="g" d="M233.635,114.899c3.295-1.115,6.657-2.313,10.185-2.19,2.812.098,5.528.371,8.198,1.287,5.835,2.001,10.293,6.024,13.071,11.535,1.469,2.914,2.417,6.162,3.282,9.299.936,3.398,1.658,6.853,2.2,10.335.512,3.286.851,6.604,1.043,9.924.2,3.444.15,6.9-1.005,10.189-1.065,3.031-2.989,5.154-5.66,6.869-2.364,1.517-4.771,1.899-7.544,2.001-2.566.094-2.579,4.095,0,4,2.86-.105,5.637-.428,8.211-1.758,2.817-1.455,5.417-3.565,7.091-6.275,3.979-6.437,3.17-14.452,2.321-21.62-.909-7.677-2.517-15.346-5.399-22.541-2.569-6.414-7.331-11.914-13.718-14.705-1.718-.751-3.527-1.472-5.368-1.855-1.781-.371-3.617-.487-5.428-.604-4.405-.285-8.412.857-12.544,2.255-2.425.82-1.385,4.685,1.063,3.857h0Z"/><path class="g" d="M211.487,192.017c2.532-4.392,5.793-8.122,10.396-10.364,2.044-.996,4.156-1.908,6.307-2.649,1.475-.508,3.413-1.041,4.698-1.13l-2-2c.241,5.058.481,10.115.722,15.173.122,2.563,4.123,2.578,4,0-.241-5.058-.481-10.115-.722-15.173-.049-1.023-.878-2.078-2-2-4.513.313-9.026,2.378-13.024,4.326-5.179,2.523-8.988,6.867-11.831,11.799-1.288,2.234,2.167,4.251,3.454,2.019h0Z"/><path class="j" d="M91.83,129.002c2.416-.907,6.299-2.071,9.454-2.358,5.947-.541,10.246-.209,15.166,2.355,5.32,3.251,7.32,10.201,7.31,12.7l1.024.267c1.219-.357,2.565-.198,3.704.373,2.806-9.184.644-18.602-5.069-24.445-1.288-1.317-2.879-2.111-4.419-3.092-3.556-4.631-11.214-6.002-17.259-5.413-6.888.671-13.989,3.072-18.632,8.289-5.311,5.968-7.442,16.316-5.096,25.189,1.72-1.304,4.28-1.484,6.034-.083-.029-2.7,1.43-11.796,7.782-13.781"/><path class="g" d="M69.577,187.312c6.123-2.915,12.319-5.675,18.47-8.53.98-.455,1.226-1.867.718-2.736-.588-1.005-1.753-1.174-2.736-.718-6.151,2.855-12.347,5.615-18.47,8.53-.975.464-1.23,1.86-.718,2.736.584.998,1.758,1.183,2.736.718h0Z"/><path class="e" d="M95.266,185.367c-3.503-2.944-5.798-6.511-8.386-10.073.941-1.535,2.201-3.1,3.802-4.344,3.121,2.675,7.102,4.97,10.91,6.43.226.087.478.192.55.393.063.174-.033.357-.126.521-.141.248-1.085,1.252-2.257,2.464-1.535,1.589-3.463,3.536-4.494,4.609Z"/><path class="g" d="M97.125,183.952c-3.246-2.758-5.594-6.249-8.073-9.669v2.019c.941-1.514,2.072-2.815,3.489-3.94h-2.828c1.783,1.515,3.696,2.875,5.719,4.051.965.561,1.954,1.083,2.963,1.562.475.225.955.44,1.438.647.318.136.636.27.956.401.159.065.318.129.478.191.483.216.348.071-.407-.434l-.273-1.009c.193-.478.237-.632.13-.463-.076.116-.015.039.183-.232.01.049-.193.226-.225.262-.245.28-.5.551-.755.822-.664.705-1.339,1.4-2.015,2.094-1.202,1.233-2.415,2.456-3.609,3.698-1.785,1.855,1.039,4.688,2.828,2.828,1.431-1.487,2.887-2.949,4.322-4.431,1.317-1.361,4.105-3.489,2.825-5.654-.63-1.065-1.964-1.318-3.019-1.788s-2.089-.988-3.099-1.548c-1.982-1.1-3.883-2.356-5.612-3.825-.897-.762-1.921-.72-2.828,0-1.653,1.311-3.004,2.962-4.115,4.749-.347.558-.4,1.467,0,2.019,2.669,3.682,5.205,7.509,8.699,10.478.823.699,2.021.807,2.828,0,.717-.717.827-2.126,0-2.828Z"/><path class="e" d="M112.517,185.367c3.503-2.944,5.798-6.511,8.386-10.073-.941-1.535-2.201-3.1-3.802-4.344-3.121,2.675-7.102,4.97-10.91,6.43-.226.087-.478.192-.55.393-.063.174.033.357.126.521.141.248,1.085,1.252,2.257,2.464,1.535,1.589,3.463,3.536,4.494,4.609Z"/><path class="g" d="M113.376,186.781c3.494-2.969,6.03-6.797,8.699-10.478.4-.552.347-1.461,0-2.019-1.111-1.787-2.462-3.438-4.115-4.749-.901-.715-1.924-.769-2.828,0-1.695,1.44-3.555,2.675-5.494,3.76-1.009.564-2.043,1.086-3.097,1.56-1.079.486-2.497.756-3.139,1.841-1.264,2.137,1.434,4.216,2.739,5.565,1.463,1.513,2.949,3.004,4.408,4.52,1.788,1.858,4.615-.972,2.828-2.828-1.194-1.241-2.407-2.464-3.609-3.698-.676-.694-1.352-1.388-2.015-2.094-.237-.251-.473-.503-.702-.762-.059-.067-.247-.232-.278-.322.136.398.374.033.313.694l-.273,1.009c-.755.505-.89.65-.407.434.12-.047.239-.094.358-.143.28-.113.559-.231.837-.349.564-.239,1.124-.485,1.677-.748,1.009-.479,1.998-1,2.963-1.562,2.023-1.176,3.936-2.536,5.719-4.051h-2.828c1.417,1.124,2.548,2.426,3.489,3.94v-2.019c-2.479,3.42-4.828,6.91-8.073,9.669-.824.7-.72,2.108,0,2.828.816.816,2.003.702,2.828,0Z"/><path class="g" d="M86.094,141.699c.021-.236.048-.472.075-.707.046-.409-.082.511-.012.091.023-.135.041-.27.063-.405.095-.569.211-1.134.348-1.694.146-.593.315-1.18.51-1.758.094-.278.194-.554.3-.828.038-.097.306-.708.081-.211.062-.137.121-.274.185-.41.277-.593.588-1.169.941-1.721.081-.127.165-.253.251-.378.056-.082.463-.615.135-.203.188-.236.382-.466.587-.686.239-.257.492-.501.758-.73.065-.056.468-.353.064-.065.123-.088.244-.178.37-.263.296-.198.605-.378.924-.536.076-.038.548-.222.09-.053.199-.074.396-.148.597-.213.994-.321,1.74-1.401,1.397-2.46-.322-.994-1.394-1.742-2.46-1.397-6.087,1.969-8.687,8.761-9.204,14.626-.092,1.045.986,2.045,2,2,1.162-.052,1.901-.881,2-2h0Z"/><path class="g" d="M115.44,130.726c.329.204.649.419.959.651.113.085.094.071-.056-.042.069.055.136.111.204.168.156.131.31.266.46.404.51.47.97.981,1.417,1.51.301.356-.144-.211.106.132.099.136.2.272.297.41.207.296.405.599.593.907.351.573.669,1.166.957,1.773.067.141.132.282.195.424.034.076.219.562.038.083.104.275.217.547.316.824.198.551.371,1.111.516,1.678.114.447.191.898.281,1.35.075.379-.048-.485-.017-.137.008.092.02.183.028.275.016.187.025.375.026.563.004,1.046.917,2.048,2,2s2.004-.879,2-2c-.009-2.434-.902-4.909-1.929-7.078-1.406-2.967-3.569-5.608-6.371-7.349-.89-.553-2.241-.22-2.736.718-.518.98-.232,2.146.718,2.736h0Z"/><path class="g" d="M100.621,126.64c.073-.362.182-.713.323-1.054l-.202.478c.208-.485.476-.938.796-1.357l-.313.405c.363-.466.781-.88,1.248-1.242l-.405.313c.285-.217.585-.412.898-.585.433-.24.789-.722.919-1.195.132-.479.072-1.116-.202-1.541-.598-.928-1.756-1.26-2.736-.718-1.059.586-1.971,1.389-2.708,2.342-.702.908-1.25,1.958-1.477,3.091-.107.531-.079,1.062.202,1.541.243.415.718.811,1.195.919.512.117,1.087.091,1.541-.202.42-.271.817-.688.919-1.195h0Z"/><path class="g" d="M106.815,128.738c.131-.122.263-.242.399-.358.055-.047.11-.093.165-.138.06-.05.324-.255.051-.045-.283.218.014-.008.057-.04.058-.043.117-.085.176-.127.149-.105.3-.206.453-.304.589-.376,1.21-.697,1.852-.972l-.478.202c.997-.417,2.035-.71,3.104-.871.462-.07.97-.535,1.195-.919.251-.429.357-1.061.202-1.541-.157-.484-.457-.951-.919-1.195-.507-.268-.979-.287-1.541-.202-2.803.424-5.475,1.75-7.543,3.683-.766.716-.778,2.115,0,2.828.821.753,2.011.764,2.828,0h0Z"/><path class="g" d="M130.616,142.183c1.834-6.791,1.374-14.174-1.946-20.444-1.595-3.011-3.81-5.648-6.706-7.465-.694-.435-1.41-.779-1.961-1.387-.479-.529-.993-1.004-1.551-1.448-1.166-.927-2.423-1.65-3.791-2.234-5.937-2.534-12.73-2.334-18.905-.831-6.589,1.604-12.753,5.166-16.399,11.02-4.073,6.54-5.084,14.801-3.668,22.281.478,2.526,4.334,1.457,3.857-1.063-1.094-5.779-.405-12.152,2.268-17.427,2.657-5.243,7.357-8.634,12.903-10.37,5.246-1.642,11.064-2.202,16.4-.652,2.498.726,4.486,1.923,6.267,3.799,1.043,1.099,2.568,1.636,3.76,2.57,1.094.857,2.018,1.979,2.8,3.121,3.902,5.697,4.59,12.896,2.815,19.466-.672,2.488,3.186,3.55,3.857,1.063h0Z"/><path class="g" d="M125.315,143.894c.177-.048.352-.09.533-.122-.429.077.131.006.193.005.183-.004.365.007.547.02-.293-.021-.066-.01.1.026.179.039.356.086.53.143.137.045.378.153.119.032.166.077.329.163.486.257.029.017.501.351.195.107.143.114.279.24.406.37.059.06.38.468.159.159.09.126.172.257.248.392.05.085.096.173.139.262-.049-.137-.049-.141-.001-.01.136.348.233.719.291,1.088-.054-.346.013.284.013.295.008.209.007.42-.003.629-.003.066-.07.64-.019.308-.027.175-.065.348-.105.52-.049.207-.107.411-.173.613-.025.076-.157.451-.062.215-.323.806-.741,1.365-1.205,1.88-.508.564-1.094,1.088-1.552,1.405-.355.246-.723.472-1.103.677-.187.101-.378.194-.57.285-.349.165.093-.028-.294.118-1.01.381-1.702,1.35-1.397,2.46.266.969,1.444,1.78,2.46,1.397,4.294-1.62,8.078-5.458,8.031-10.298-.023-2.394-1.038-4.601-2.982-6.019-1.717-1.253-4.006-1.624-6.046-1.071-1.042.283-1.682,1.422-1.397,2.46.288,1.048,1.414,1.681,2.46,1.397h0Z"/><path class="g" d="M83.202,140.114c-2.013-.615-4.336-.272-6.071.929-1.987,1.376-3.017,3.566-3.116,5.955-.2,4.848,3.543,8.753,7.765,10.499.999.413,2.199-.447,2.46-1.397.316-1.149-.394-2.046-1.397-2.46.285.118-.29-.145-.284-.142-.19-.095-.377-.197-.561-.303-.342-.198-.675-.414-.994-.647-.108-.08-.117-.085-.028-.017-.085-.068-.169-.137-.252-.208-.139-.118-.275-.238-.407-.362-.318-.297-.611-.615-.898-.942-.148-.169-.343-.441-.565-.802-.091-.149-.178-.301-.259-.455-.05-.093-.097-.186-.141-.282.046.124.044.121-.005-.008-.144-.36-.254-.737-.336-1.116,0-.002-.101-.633-.064-.306-.024-.209-.035-.422-.039-.632s.009-.419.016-.629c.011-.342-.017.004.021-.19.07-.366.158-.742.305-1.086-.129.302.119-.201.151-.256.017-.029.351-.501.111-.204.115-.142.243-.277.375-.404.062-.059.474-.373.16-.153.125-.088.254-.17.386-.247.056-.033.524-.265.335-.184-.221.095.231-.078.276-.092.176-.055.354-.09.532-.136.506-.128-.328-.015.193-.022.183-.003.364-.002.547-.003.42-.001-.252-.094.191.018.177.045.354.085.529.139,1.033.315,2.18-.376,2.46-1.397.294-1.069-.36-2.144-1.397-2.46h0Z"/><path class="g" d="M122.574,155.051c-1.364,4.036-3.879,7.811-7.321,10.371-3.328,2.475-7.369,3.41-11.47,3.416-4.181.006-8.313-1.001-11.717-3.487s-5.883-6.186-7.257-10.134c-.841-2.416-4.706-1.377-3.857,1.063,2.541,7.302,8.169,13.719,15.848,15.691,7.624,1.958,16.221.767,22.243-4.504,3.453-3.023,5.926-7.026,7.389-11.352.826-2.444-3.036-3.493-3.857-1.063h0Z"/><path class="g" d="M115.848,146.489c.002.174.011,1.918-1.465,2.946-.968.674-1.996.587-2.32.554-.249-.025-1.871-.215-2.715-1.631-.799-1.342-.627-3.329.711-4.497,1.387-1.211,3.35-1.019,4.521-.051,1.055.872,1.237,1.792,1.268,2.678Z"/><path class="g" d="M98.942,146.489c.002.174.011,1.918-1.465,2.946-.968.674-1.996.587-2.32.554-.249-.025-1.871-.215-2.715-1.631-.799-1.342-.627-3.329.711-4.497,1.387-1.211,3.35-1.019,4.521-.051,1.055.872,1.237,1.792,1.268,2.678Z"/><path class="g" d="M148.056,190.125c-1.117-2.058-2.976-4.259-5.105-5.312-1.712-.847-3.493-1.569-5.247-2.325-5.304-2.287-10.636-4.516-15.878-6.941-.98-.453-2.155-.277-2.736.718-.505.864-.267,2.281.718,2.736,5.062,2.342,10.209,4.5,15.331,6.705,1.817.782,3.646,1.548,5.437,2.391,1.734.816,3.112,2.361,4.027,4.047,1.228,2.263,4.683.246,3.454-2.019h0Z"/><path class="e" d="M3.945,31.171c-.047.193-.317.192-.363-.001"/><path class="e" d="M133.567,286.109c-6.975-.001-11.985-.002-13.739-.002-2.925,0-3.19-7.759-2.301-9.684.89-1.925,2.649-3.16,5.696-3.74,10.555-2.008,13.169-7.708,14.045-17.807.376-4.329.764-7.015.978-11.327.138-2.79.38-5.903.796-10.143,23.368-.023,47.661-.054,71.07-.089.421,4.286.665,7.424.804,10.233.213,4.313.602,6.999.978,11.327.876,10.099,3.49,15.798,14.045,17.807,3.047.58,4.807,1.815,5.696,3.74.89,1.925,1.023,9.705-1.971,9.705-4.477,0-67.176-.014-96.096-.02Z"/><path class="d" d="M12.811,231.372c2.511,1.264,5.345,1.981,8.347,1.992,60.01.232,245.985-.144,307.397-.25,10.347-.018,18.718-8.399,18.713-18.746-.002-4.783-.005-10.272-.012-16.314h-.382c-5.233.303-317.955.595-344.343.595h-.079c.012,5.933.025,11.317.035,16.007.016,7.31,4.21,13.638,10.324,16.716Z"/><path class="e" d="M142.532,286.111c-11.545-.002-20.267-.004-22.704-.004-2.925,0-3.19-7.759-2.301-9.684.89-1.925,2.649-3.16,5.696-3.74,2.88-.548,5.168-1.371,6.992-2.482,23.752-.002,65.719-.003,88.736-.003,1.82,1.115,4.108,1.938,6.987,2.485,3.047.58,4.807,1.815,5.696,3.74.89,1.925,1.023,9.705-1.971,9.705-4.056,0-55.913-.012-87.131-.018Z"/><path class="g" d="M208.234,234.592c.624,6.596,1.023,13.21,1.617,19.81.42,4.668,1.006,9.718,3.852,13.62,1.308,1.793,2.982,3.26,4.942,4.31,2.405,1.289,4.945,1.799,7.561,2.454,1.041.261,2.121.634,2.887,1.422.347.357.613.765.814,1.224-.23-.526-.028-.032-.007.077.047.245.116.485.159.731.239,1.344.218,3.585-.252,5.158-.104.348-.12.353-.346.772.188-.347-.134.111-.15.14l.135-.12c.235-.082.242-.09.023-.025.001-.042.321-.039.028-.036-.084,0-.169.003-.253,0-.521-.02-1.047,0-1.568,0-1.853,0-3.707,0-5.56-.001-6.171-.001-12.342-.002-18.513-.004-16.566-.003-33.133-.007-49.699-.01-11.154-.002-22.307-.005-33.461-.006-.197,0-.421-.031-.615,0,.183-.029.15.136.21.054l.128.113c-.091-.079-.175-.164-.254-.256.094.148-.237-.493-.276-.599-.327-.886-.468-1.828-.526-2.755-.032-.516-.042-1.033-.026-1.55.006-.201.016-.401.031-.601.006-.081.092-.769.039-.444.029-.181.321-1.161.1-.636.194-.46.469-.869.814-1.224.859-.884,2.112-1.252,3.279-1.514,2.575-.577,5.084-1.193,7.41-2.494,3.947-2.208,6.327-5.997,7.431-10.305.667-2.603.919-5.288,1.164-7.956.303-3.306.69-6.602.87-9.919.171-3.149.409-6.29.706-9.43.102-1.077-.992-2-2-2-1.166,0-1.898.92-2,2-.639,6.754-1.047,13.527-1.659,20.285-.378,4.168-1.032,8.96-4.068,12.026-1.511,1.526-3.469,2.489-5.513,3.119-2.781.858-5.7,1.008-8.018,2.969-3.358,2.842-3.22,8.671-1.524,12.398.774,1.7,2.123,2.678,3.994,2.719.597.013,1.197,0,1.794,0,2.035,0,4.07,0,6.105,0,6.575.001,13.15.002,19.726.004,16.979.003,33.959.007,50.938.011,6.81.001,13.619.003,20.429.004,3.458,0,6.945.133,10.402.002,4.535-.172,4.913-6.138,4.572-9.552-.23-2.302-.974-4.283-2.849-5.768-2.36-1.87-5.323-1.987-8.087-2.883-4.049-1.311-6.786-3.973-8.039-8.023-.754-2.44-1.052-4.967-1.28-7.501-.298-3.307-.692-6.605-.886-9.92s-.42-6.596-.732-9.89c-.102-1.075-.846-2-2-2-1.003,0-2.102.918-2,2h0Z"/><path class="g" d="M143.14,272.198h62.988c2.574,0,2.578-4,0-4h-62.988c-2.574,0-2.578,4,0,4h0Z"/><path class="g" d="M0,20.854c.034,18.203.081,36.406.127,54.608.057,22.169.116,44.339.175,66.508.052,19.681.105,39.361.153,59.042.009,3.756.018,7.512.026,11.268.011,5.029.667,9.768,3.605,14.01,2.962,4.277,7.447,7.433,12.551,8.56,3.403.752,6.979.524,10.445.534,14.385.042,28.771.05,43.156.053,18.717.004,37.434-.005,56.151-.021,20.633-.017,41.266-.041,61.899-.069,20.133-.027,40.266-.059,60.399-.093,17.272-.029,34.545-.06,51.817-.091,6.728-.012,13.456-.024,20.183-.036,3.009-.005,6.066.14,9.07-.055,5.267-.342,10.312-2.652,13.917-6.53,3.676-3.956,5.576-9.089,5.594-14.466.012-3.62-.004-7.24-.006-10.86-.005-8.829-.01-17.659-.015-26.488-.013-21.387-.026-42.774-.04-64.162-.013-20.703-.026-41.405-.039-62.108-.005-8.131-.01-16.261-.015-24.392-.003-4.274.209-8.557-1.377-12.62-1.886-4.833-5.536-8.947-10.233-11.208-4.059-1.954-8.201-2.119-12.603-2.12-3.149,0-6.297,0-9.446-.001-7.38-.001-14.76-.002-22.14-.003-18.111-.003-36.222-.006-54.333-.009-20.61-.004-41.219-.007-61.829-.011s-41.335-.008-62.002-.011c-18.285-.003-36.569-.007-54.854-.01-7.511-.001-15.022-.003-22.532-.004-3.225,0-6.451-.001-9.676-.002-3.073,0-6.24-.208-9.3.096C8.192,1.22.115,10.205,0,20.854c-.028,2.575,3.972,2.577,4,0,.056-5.193,2.385-10.135,6.527-13.326,3.676-2.832,7.831-3.46,12.329-3.459,6.197.001,12.394.002,18.592.003,16.311.003,32.621.006,48.932.009,19.563.004,39.127.007,58.69.011,20.634.004,41.269.008,61.903.011,19.236.003,38.472.007,57.708.01,15.653.003,31.307.005,46.96.008,3.057,0,6.115,0,9.172.001,4.19,0,8.155.048,11.915,2.208,4.393,2.523,7.447,6.962,8.238,11.968.556,3.521.187,7.346.189,10.906.011,18.154.023,36.308.034,54.462.014,21.526.027,43.052.041,64.578.012,18.669.023,37.337.033,56.006.002,3.682.162,7.406-.019,11.084-.243,4.945-2.846,9.691-6.859,12.587-6.022,4.346-14.037,3.202-21.069,3.215-15.064.027-30.128.054-45.192.081-18.817.033-37.634.064-56.451.093-20.33.031-40.661.059-60.991.081-19.627.022-39.254.039-58.881.046-16.538.006-33.077.006-49.615-.014-6.368-.008-12.736-.019-19.103-.037-3.237-.009-6.674.284-9.833-.496-4.903-1.212-9.008-4.595-11.185-9.147-1.9-3.971-1.58-8.309-1.59-12.584-.009-3.807-.018-7.614-.027-11.421-.023-9.247-.046-18.494-.071-27.74-.056-21.549-.115-43.097-.172-64.646-.054-20.451-.108-40.901-.155-61.352-.018-7.715-.035-15.429-.05-23.144C3.995,18.281-.005,18.276,0,20.854Z"/><path class="g" d="M182.098,216.169c0,4.065-3.044,7.052-7.384,7.052-4.978,0-7.545-3.402-7.545-7.055,0-3.274,2.401-7.256,7.255-7.256,4.522,0,7.674,3.649,7.674,7.259Z"/><path class="g" d="M94.611,72.056c-.007.667-.116,1.342-.196,2.003-.024.193-.048.387-.073.58-.043.336.086-.609.022-.165-.009.064-.018.127-.027.191-.047.316-.104.63-.154.946-.059.378-.134.74-.245,1.105-.092.301.24-.473.084-.2-.051.089-.1.177-.154.264-.168.275.34-.371.116-.156-.081.078-.169.153-.248.232.409-.41.234-.178.054-.074-.102.059-.238.099-.33.169.303-.124.353-.147.15-.069-.02.007-.04.014-.059.021-.052.018-.105.036-.158.053-.388.13-.776.257-1.163.389-.989.336-1.743,1.39-1.397,2.46.318.982,1.4,1.757,2.46,1.397.941-.32,1.979-.566,2.796-1.15,1.076-.769,1.696-1.843,1.914-3.139.147-.878.277-1.757.387-2.641.091-.73.214-1.478.222-2.216.012-1.046-.928-2.048-2-2-1.094.049-1.988.879-2,2h0Z"/><path class="g" d="M111.725,72.461c.026.132.052.265.074.397.01.058.018.117.028.176.038.216-.03-.282-.035-.264-.041.153.041.428.05.59.029.477.064.949.128,1.423.106.792.174,1.658.428,2.421.37,1.111,1.092,2.05,2.142,2.602.588.309,1.244.522,1.864.764.538.209,1.078.414,1.612.632.448.182,1.143.031,1.541-.202.415-.243.811-.718.919-1.195.117-.512.091-1.087-.202-1.541-.3-.466-.685-.711-1.195-.919-.579-.236-1.164-.458-1.747-.684-.23-.09-.46-.18-.691-.268-.166-.063-.275-.173.117.057-.093-.055-.197-.094-.292-.147-.059-.033-.116-.068-.172-.105-.169-.117-.109-.068.177.147-.078-.082-.169-.158-.251-.238-.228-.223.311.473.072.084-.048-.078-.083-.21-.143-.275.065.07.202.532.093.189-.032-.099-.058-.2-.082-.302-.094-.403-.138-.815-.206-1.223-.026-.155-.036-.325-.077-.476.158.588.026.177.01-.003-.018-.204-.028-.409-.039-.613-.039-.701-.131-1.4-.267-2.089-.203-1.028-1.485-1.712-2.46-1.397-1.094.354-1.614,1.358-1.397,2.46h0Z"/><path class="i" d="M71.11,93.532c3.272-5.748,6.487-8.372,9.353-10.145,1.858-1.149,7.281-3.425,9.171-3.992l.981-.294c1.316-.395,2.741-.16,3.86.638l1.061.756c6.101,4.345,15.808,3.986,21.572-.796h0c1.147-.951,2.693-1.266,4.12-.838l1.783.535c1.89.567,7.314,2.843,9.171,3.992,2.867,1.773,6.081,4.397,9.353,10.145h-70.427Z"/><path class="k" d="M79.158,36.642c-.163,2.747.106,5.593.87,8.439,1.309-.986,3.1-1.326,4.654-.818l2.53.828c.239-.163.477-.327.477-.327,4.741-3.244,10.749-7.944,14.615-11.721-.318,2.242-1.448,6.055-.025,5.663,5.946-1.564,11.645-4.72,15.089-9.643.716,2.9,1.918,6.833,2.801,8.55.907,1.764,3.038,5.169,5.36,7.191,1.471-1.032,3.411-1.024,4.966-.247,2.81-9.035.65-18.301-5.066-24.048-5.57-5.602-13.851-8.137-21.715-7.383-6.888.66-13.662,3.158-18.305,8.288-3.612,3.991-5.906,9.385-6.251,15.227Z"/><path class="k" d="M78.167,56.539c.11-.495.254-.964.427-1.417,0,0,.237-.619.6-1.587,1.294,2.054,3.49,3.744,5.705,4.464.865,2.528,2.34,5.49,4.799,8.248.591.663,1.209,1.276,1.849,1.84,3.541,7.975-14.086,7.665-13.176,5.343,1.74-.986,2.136-3.39,1.665-5.333-.466-1.948-1.348-3.866-1.754-5.823-.479-2.328-.467-4.158-.115-5.735Z"/><path class="g" d="M76.665,54.591c-1.369,3.705-.636,7.663.598,11.292.321.943.657,1.89.871,2.864.109.496.115,1.249,0,1.728-.108.45-.382.944-.57,1.104-.525.448-.942.656-1.139,1.373-.111.405-.113.812-.015,1.218.48,1.993,2.892,2.397,4.601,2.591,2.247.255,4.615.069,6.804-.489,2.56-.652,5.009-2.006,5.961-4.599.372-1.014-.417-2.191-1.397-2.46-1.116-.307-2.087.379-2.46,1.397-.14.381.221-.269-.017.019-.032.039-.339.513-.143.253.187-.25-.114.12-.161.166-.103.099-.209.195-.314.291-.111.093-.072.064.117-.086-.081.059-.163.116-.246.171-.132.079-.26.164-.394.24-.138.078-.28.148-.421.22-.092.047-.544.229-.12.061-.643.254-1.308.446-1.982.592-.349.076-.701.137-1.055.192-.483.075.265-.024-.179.021-.207.021-.414.042-.621.058-.711.055-1.425.072-2.137.046-.314-.011-.625-.037-.938-.061-.129-.01-.597-.079-.046.004-.135-.02-.269-.04-.403-.064-.241-.044-.482-.094-.717-.161-.098-.028-.207-.083-.308-.096-.358-.047.414.198.126.059-.07-.034-.156-.068-.216-.118-.247-.207.39.343.186.142.286.281.515.983.374,1.406l-.919,1.195c3.405-2.104,3.113-6.21,2.013-9.532s-2.117-6.598-.871-9.971c.374-1.013-.419-2.191-1.397-2.46-1.117-.307-2.084.38-2.46,1.397h0Z"/><path class="g" d="M115.521,29.957c.716,2.777,1.511,5.585,2.698,8.203,1.153,2.545,2.919,4.963,4.807,7.004.734.793,2.086.743,2.828,0,.79-.79.736-2.033,0-2.828-1.665-1.799-3.135-3.93-4.181-6.194-.017-.037-.154-.354-.065-.143.102.242-.107-.273-.103-.262-.109-.278-.213-.558-.314-.838-.225-.626-.435-1.257-.636-1.891-.431-1.359-.82-2.732-1.177-4.113-.27-1.046-1.431-1.68-2.46-1.397-1.059.291-1.667,1.411-1.397,2.46h0Z"/><path class="g" d="M115.695,27.978c-1.634,2.31-3.818,4.172-6.237,5.619-1.204.72-2.464,1.36-3.765,1.885-.673.272-1.358.516-2.049.741-.376.122-.755.238-1.135.347l-.38.107c-.597.131-.505.155.274.072l.883.514c.05.043.411.629.301.719.023-.019-.002-.509.002-.579.019-.359.079-.709.141-1.063.162-.922.362-1.837.502-2.763.284-1.876-1.793-3.45-3.343-1.946-4.355,4.226-9.213,7.975-14.21,11.408-2.109,1.448-.11,4.916,2.019,3.454,5.272-3.621,10.425-7.575,15.02-12.033l-3.343-1.946c-.3,1.983-1.224,4.365-.655,6.362.856,3.003,4.339,1.476,6.297.749,5.222-1.938,9.889-5.042,13.132-9.627,1.489-2.106-1.978-4.106-3.454-2.019h0Z"/><path class="g" d="M132.627,44.405c1.775-6.461,1.391-13.418-1.601-19.461-2.832-5.72-8.051-9.806-13.947-12.041-11.923-4.521-27.486-1.018-35.059,9.566-4.42,6.177-5.736,14.056-4.321,21.437.484,2.525,4.34,1.456,3.857-1.063-1.071-5.587-.187-11.489,2.675-16.427,2.799-4.829,7.332-8.158,12.608-9.861,10.272-3.316,23.47-1.296,29.632,8.446,3.456,5.463,3.988,12.189,2.299,18.341-.683,2.486,3.175,3.546,3.857,1.063h0Z"/><path class="g" d="M127.326,46.116c.177-.048.352-.09.533-.122-.429.077.131.006.193.005.183-.004.365.007.547.02-.293-.021-.066-.01.1.026.179.039.356.086.53.143.137.045.378.153.119.032.166.077.329.163.486.257.029.017.501.351.195.107.143.114.279.24.406.37.059.06.38.468.159.159.09.126.172.257.248.392.05.085.096.173.139.262-.049-.137-.049-.141-.001-.01.136.348.233.719.291,1.088-.054-.346.013.284.013.295.008.209.007.42-.003.629-.003.066-.07.64-.019.308-.027.175-.065.348-.105.52-.049.207-.107.411-.173.613-.025.076-.157.451-.062.215-.323.806-.741,1.365-1.205,1.88-.508.564-1.094,1.088-1.552,1.405-.355.246-.723.472-1.103.677-.187.101-.378.194-.57.285-.349.165.093-.028-.294.118-1.01.381-1.702,1.35-1.397,2.46.266.969,1.444,1.78,2.46,1.397,4.294-1.62,8.078-5.458,8.031-10.298-.023-2.394-1.038-4.601-2.982-6.019-1.717-1.253-4.006-1.624-6.046-1.071-1.042.283-1.682,1.422-1.397,2.46.288,1.048,1.414,1.681,2.46,1.397h0Z"/><path class="g" d="M85.213,42.335c-2.013-.615-4.336-.272-6.071.929-1.987,1.376-3.017,3.566-3.116,5.955-.2,4.848,3.543,8.753,7.765,10.499.999.413,2.199-.447,2.46-1.397.316-1.149-.394-2.046-1.397-2.46.285.118-.29-.145-.284-.142-.19-.095-.377-.197-.561-.303-.342-.198-.675-.414-.994-.647-.108-.08-.117-.085-.028-.017-.085-.068-.169-.137-.252-.208-.139-.118-.275-.238-.407-.362-.318-.297-.611-.615-.898-.942-.148-.169-.343-.441-.565-.802-.091-.149-.178-.301-.259-.455-.05-.093-.097-.186-.141-.282.046.124.044.121-.005-.008-.144-.36-.254-.737-.336-1.116,0-.002-.101-.633-.064-.306-.024-.209-.035-.422-.039-.632s.009-.419.016-.629c.011-.342-.017.004.021-.19.07-.366.158-.742.305-1.086-.129.302.119-.201.151-.256.017-.029.351-.501.111-.204.115-.142.243-.277.375-.404.062-.059.474-.373.16-.153.125-.088.254-.17.386-.247.056-.033.524-.265.335-.184-.221.095.231-.078.276-.092.176-.055.354-.09.532-.136.506-.128-.328-.015.193-.022.183-.003.364-.002.547-.003.42-.001-.252-.094.191.018.177.045.354.085.529.139,1.033.315,2.18-.376,2.46-1.397.294-1.069-.36-2.144-1.397-2.46h0Z"/><path class="g" d="M124.585,57.273c-1.364,4.036-3.879,7.811-7.321,10.371-3.328,2.475-7.369,3.41-11.47,3.416-4.181.006-8.313-1.001-11.717-3.487s-5.883-6.186-7.257-10.134c-.841-2.416-4.706-1.377-3.857,1.063,2.541,7.302,8.169,13.719,15.848,15.691,7.624,1.958,16.221.767,22.243-4.504,3.453-3.023,5.926-7.026,7.389-11.352.826-2.444-3.036-3.493-3.857-1.063h0Z"/><path class="g" d="M117.858,48.711c.002.174.011,1.918-1.465,2.946-.968.674-1.996.587-2.32.554-.249-.025-1.871-.215-2.715-1.631-.799-1.342-.627-3.329.711-4.497,1.387-1.211,3.35-1.019,4.521-.051,1.055.872,1.237,1.792,1.268,2.678Z"/><path class="g" d="M100.952,48.711c.002.174.011,1.918-1.465,2.946-.968.674-1.996.587-2.32.554-.249-.025-1.871-.215-2.715-1.631-.799-1.342-.627-3.329.711-4.497,1.387-1.211,3.35-1.019,4.521-.051,1.055.872,1.237,1.792,1.268,2.678Z"/><path class="g" d="M74.834,91.389c1.742-2.418,3.857-4.529,6.385-6.117,1.911-1.2,4.054-2.078,6.143-2.918,1.429-.575,3.948-1.916,5.504-1.252.705.301,1.313.888,1.946,1.315,1.299.876,2.746,1.543,4.226,2.049,5.41,1.85,11.791,1.307,16.787-1.478,1.165-.649,2.242-1.754,3.2-2.143.949-.385,1.871.002,2.784.276,1.845.554,3.634,1.267,5.397,2.041,2.201.966,4.348,2.006,6.228,3.525,2.662,2.152,4.674,4.906,6.374,7.853,1.286,2.229,4.744.217,3.454-2.019-2.889-5.01-6.753-9.358-12.022-11.891-2.349-1.13-4.78-2.197-7.254-3.022-2.287-.763-4.553-1.378-6.871-.272-1.237.59-2.25,1.622-3.464,2.282-1.256.682-2.599,1.153-3.99,1.475-2.858.663-5.897.588-8.716-.22-1.415-.406-2.741-1.004-3.971-1.815-.886-.584-1.678-1.261-2.673-1.66-2.398-.962-4.762-.156-7.037.718-2.64,1.014-5.385,2.074-7.812,3.543-3.247,1.966-5.867,4.646-8.074,7.711-.632.877-.152,2.228.718,2.736,1.008.59,2.103.162,2.736-.718h0Z"/><path class="g" d="M98.289,185.26c1.548.761,3.392,1.053,5.094,1.208,2.249.205,4.571-.145,6.629-1.06.959-.426,1.258-1.898.718-2.736-.64-.993-1.71-1.174-2.736-.718.187-.083.105-.039-.036.013s-.281.101-.424.146c-.221.07-.445.13-.672.182-.238.054-.501.126-.747.138.168-.008.268-.03.039-.012-.136.011-.272.024-.408.033-.779.052-1.583.085-2.362.014-.14-.013-.281-.038-.421-.047.156.01.456.068.125.014-.081-.013-.163-.025-.244-.039-.36-.059-.718-.128-1.074-.205-.358-.078-.715-.164-1.068-.267-.135-.039-.268-.084-.402-.127-.473-.153.389.196.009.009-.938-.461-2.207-.284-2.736.718-.476.901-.285,2.244.718,2.736h0Z"/><path class="e" d="M302.659,87.644c.139-.688.201-1.438.272-2.294.359-4.368,1.25-30.433,1.277-35.211.062-2.427-1.258-3.634-3.672-3.881-4.106-.42-7.886-.7-11.16-.791-3.06-.085-8.459-.231-12.263-.072-1.881.079-3.577,1.052-3.457,3.432-.202,3.832-1.285,31.156-1.23,35.575.02,1.579.15,3.019.691,4.18.379.813,1.285,2.036,3.51,2.537,2.891.651,6.326,1.034,10.905,1.162,4.832.135,8.792.006,11.207-.616,1.823-.47,2.934-1.604,3.358-2.395.276-.515.447-1.048.563-1.625Z"/><path class="g" d="M304.208,47.463c3.702-4.725,1.415-12.458-4.672-13.769-3.724-.802-7.064,1.049-10.425,2.361-3.842,1.499-7.823-.308-11.746.538s-6.737,5.717-3.566,9.014c1.788,1.859,4.614-.972,2.828-2.828-.802-.833.52-1.935,1.234-2.183,1.598-.555,3.49-.163,5.126-.017,1.9.17,3.808.248,5.684-.181,1.773-.406,3.513-1.268,5.193-1.958,2.622-1.077,6.022-1.701,7.638,1.327.462.865.603,1.925.496,2.853-.055.477-.19.961-.352,1.412-.151.424.048-.042-.126.295-.047.091-.462.718-.141.308-.665.849-.829,2,0,2.828.692.692,2.159.855,2.828,0h0Z"/><path class="h" d="M298.452,61.758c-.234,6.221-.916,16.835-1.205,21.186-.073,1.095-.992,1.935-2.089,1.909-3.597-.082-11.221-.279-14.856-.377-1.118-.03-2.004-.949-1.992-2.067.045-4.415.179-15.061.357-21.327.032-1.113.94-1.99,2.053-1.985,4.921.021,12.283.365,15.794.544,1.119.057,1.98.997,1.938,2.116Z"/><path class="g" d="M304.587,88.176c.678-3.725.617-7.658.771-11.429.209-5.106.39-10.213.554-15.321.118-3.679.264-7.361.293-11.042.024-3.025-1.559-5.415-4.64-5.985-3.887-.719-8.046-.805-11.992-.926-3.35-.103-6.705-.181-10.057-.139-3.058.038-6.716.221-7.678,3.789-.361,1.341-.246,2.986-.306,4.38-.083,1.913-.161,3.826-.237,5.738-.351,8.779-.808,17.575-.87,26.362-.018,2.491.096,5.268,1.81,7.241,2.084,2.398,5.693,2.638,8.642,2.988,3.898.462,7.865.573,11.787.475,3.089-.077,6.785-.106,9.357-2.047,1.378-1.04,2.176-2.402,2.566-4.083.581-2.505-3.275-3.574-3.857-1.063-.295,1.273-.836,2.037-2.116,2.503-1.2.438-2.571.515-3.832.598-3.62.239-7.294.145-10.911-.106-1.366-.095-2.735-.216-4.089-.425-1.305-.201-3.039-.296-4.136-1.1-1.351-.99-1.234-3.273-1.222-4.98.056-7.925.459-15.857.768-23.775.131-3.352.261-6.704.417-10.055.021-.443-.043-1.014.047-1.438.211-.993,1.336-.939,2.164-.965,3.108-.097,6.221-.037,9.329.039,3.346.081,6.682.243,10.017.531,1.309.113,3.228-.055,4.398.623.667.386.647,1.047.641,1.77-.023,3.243-.149,6.487-.251,9.728-.163,5.213-.346,10.426-.555,15.637-.15,3.739.002,7.719-.671,11.414-.458,2.517,3.396,3.596,3.857,1.063Z"/><path class="g" d="M294.88,156.718c-3.843-4.649-5.223-10.832-4.743-16.751.263-3.243,1.142-6.441,2.336-9.459.368-.93.777-2.642,1.767-3.141,1.18-.595,3.178-.357,4.469-.338,3.233.049,6.458.515,9.619,1.174,1.473.307,2.939.666,4.374,1.12,1.048.331,2.347.673,3.232,1.365.918.717,1.083,1.847,1.27,2.926.265,1.534.341,3.102.297,4.657-.086,3.035-.749,6.099-1.976,8.88-2.521,5.714-7.222,10.135-12.941,12.568-.994.423-1.214,1.888-.718,2.736.602,1.029,1.738,1.142,2.736.718,6.01-2.556,11.129-7.34,14.007-13.216,1.629-3.325,2.576-6.909,2.836-10.602.128-1.81.055-3.617-.179-5.415-.22-1.694-.46-3.464-1.469-4.893-1.803-2.552-5.233-3.434-8.111-4.171-3.781-.967-7.723-1.601-11.622-1.801-3.27-.168-7.591-.455-9.694,2.565-1.025,1.472-1.642,3.415-2.24,5.095-.641,1.8-1.151,3.648-1.498,5.528-1.516,8.211.026,16.76,5.419,23.284,1.641,1.986,4.457-.858,2.828-2.828h0Z"/><path class="f" d="M306.663,152.672c.905-.69,1.734-1.481,2.466-2.353.641-.765.507-1.931-.282-2.542-3.578-2.775-8.21-4.145-12.721-3.789-1.104.087-1.855,1.143-1.659,2.234.324,1.804.968,3.548,1.943,5.085.55.868,1.416,1.489,2.393,1.809l1.63.533c2.113.691,4.461.371,6.23-.977Z"/><path class="g" d="M296.38,133.914c4.812,3.291,11.257,4.101,16.729,2.083,1.013-.374,1.7-1.356,1.397-2.46-.268-.975-1.442-1.773-2.46-1.397-4.6,1.697-9.575,1.105-13.647-1.679-.892-.61-2.218-.168-2.736.718-.579.99-.177,2.125.718,2.736h0Z"/><path class="g" d="M295.086,164.47c-2,8.723-3.573,17.528-4.764,26.397-.144,1.072,1.022,2,2,2,1.2,0,1.856-.924,2-2,1.143-8.511,2.702-16.965,4.621-25.334.575-2.506-3.281-3.575-3.857-1.063h0Z"/><path class="e" d="M314.612,170.821c-3.31-2.984-5.472-5.268-8.781-8.252-1.114-1.004-3.202-2.75-4.389-3.667-1.222-.944-3.167-1.722-4.666-.471-1.932,1.612-1.382,3.112-.834,3.774,1.663,2.005,3.472,3.883,5.297,5.743-.835.209-1.398.35-1.398.35-1.375.345-2.542,1.506-2.959,2.942-1.903-1.246-4.289-2.464-5.607.236-.778,1.593.444,3.444,2.275,4.513-1.627-.291-2.573.687-2.738,1.913-.231,1.722,1.314,3.204,3.269,4.389,1.833,1.111,2.627,1.727,4.556,3.25,1.073.847,2.25,1.889,2.85,2.917"/><path class="g" d="M316.996,169.765c-2.991-2.829-5.822-5.82-8.797-8.664-1.27-1.214-2.579-2.384-3.913-3.527-1.278-1.095-2.543-2.256-4.166-2.808-3.61-1.228-7.899,1.909-7.205,5.856.284,1.616,1.484,2.787,2.511,3.993,1.378,1.62,2.824,3.179,4.278,4.73l.883-3.343c-1.149.301-2.361.541-3.381,1.182-1.256.79-1.99,2.004-2.423,3.393l2.46-1.397c-2.912-1.043-5.898-.884-7.666,2.001-1.588,2.592-.244,6.004,2.46,7.183l1.009-3.727c-2.271-.267-4.304,1.304-4.992,3.421s.251,4.26,1.729,5.791c2.953,3.057,7.59,4.501,9.875,8.278,1.331,2.2,4.791.191,3.454-2.019-1.711-2.828-4.786-5.034-7.483-6.874-1.216-.83-2.82-1.576-3.568-2.914-.509-.911-.105-1.81.985-1.682,1.929.226,2.79-2.951,1.009-3.727-.876-.382-1.517-1.029-.902-1.871.746-1.021,2.033-.357,3.026-.001,1.042.373,2.158-.427,2.46-1.397.432-1.387,1.763-1.455,3.01-1.781,1.497-.392,1.892-2.266.883-3.343-1.142-1.218-2.28-2.442-3.383-3.696-.552-.628-1.096-1.263-1.627-1.909-.193-.234-.65-.849-.659-.89-.138-.584.632-1.543,1.39-1.584.999-.054,1.946.898,2.649,1.492,4.683,3.951,8.82,8.459,13.266,12.664,1.87,1.768,4.703-1.055,2.828-2.828h0Z"/><path class="g" d="M293.116,178.866c.397.113.791.238,1.179.38.185.068.367.142.551.213.265.102-.444-.2.002.002.091.041.182.081.272.123.778.359,1.531.772,2.257,1.228.344.216.682.442,1.014.677.186.132.368.27.553.405.23.168-.265-.213-.044-.034.079.064.158.126.237.189.678.549,1.321,1.138,1.931,1.76.734.748,2.103.791,2.828,0,.739-.805.783-2.03,0-2.828-2.669-2.723-6.028-4.928-9.716-5.972-1.006-.285-2.222.349-2.46,1.397-.242,1.063.319,2.155,1.397,2.46h0Z"/><path class="g" d="M296.842,173.338c.805.302,1.604.617,2.401.939.27.109-.313-.136-.047-.02.119.052.238.102.356.154.189.083.377.168.565.254.396.183.788.373,1.175.574.739.384,1.46.806,2.146,1.28.085.059.466.255.486.35-.015-.068-.281-.225-.05-.038.077.063.155.125.231.189.345.287.672.592.987.911.736.746,2.101.793,2.828,0,.737-.803.786-2.033,0-2.828-2.748-2.783-6.42-4.271-10.015-5.621-.981-.369-2.235.409-2.46,1.397-.259,1.137.346,2.066,1.397,2.46h0Z"/><path class="g" d="M312.047,176.192c.938,5.328-1.401,11.036-5.799,14.462-.853.664-.697,2.131,0,2.828.842.842,1.973.666,2.828,0,5.491-4.279,8.022-11.57,6.827-18.354-.187-1.065-1.489-1.664-2.46-1.397-1.123.309-1.585,1.393-1.397,2.46h0Z"/><path class="j" d="M67.593,160.712c-.504-.377-1.045-.785-1.585-1.127-.43-.28-.74-.73-.82-1.24-.1-.55-.16-1.05-.22-1.54-.11-.92-.88-1.6-1.81-1.61-6.49,0-17.03-.05-21.02-.05-.93,0-1.77.74-1.88,1.66-.05.49-.12.99-.21,1.54-.09.51-.39.96-.83,1.24-.6.38-1.2.84-1.74,1.25-.46.34-.73.88-.73,1.45,0,.592-.007,10.482-.014,19.043,7.652.185,12.985.407,15.874,4.519,3.928,5.59,15.98,2.556,15.98,2.556,0-4.98-.09-20.737-.1-26.117-.01-.57-.27-1.11-.73-1.45-.054-.041-.109-.082-.165-.123Z"/><path class="g" d="M38.728,171.965c.006-3.017.014-6.035.019-9.052,0-.151.015-.597.002-.576.284-.463,1.277-.879,1.725-1.213.672-.501,1.162-1.147,1.424-1.95.113-.346.127-1.91.275-2.02.323-.241,2.026-.007,2.549-.006,1.255.003,2.509.007,3.764.011,3.07.01,6.141.02,9.211.027,1.4.003,2.8.006,4.2.007.269,0,.697.075.955,0,.425-.123.301.174.117-.191.391.777.173,1.822.568,2.649.29.607.681,1.069,1.22,1.472.465.348,1.413.744,1.728,1.213.154.23.008,1.564.01,2.017.014,4.6.034,9.199.051,13.799.018,4.663.043,9.326.043,13.988,0,2.574,4,2.578,4,0-.001-9.459-.069-18.919-.096-28.378-.003-1.115.088-2.288-.48-3.296-.457-.811-1.187-1.328-1.925-1.867-.262-.191-.909-.474-1.069-.742.129.216.012-.573-.004-.683-.278-1.927-1.152-3.56-3.25-3.91-1.48-.247-3.116-.072-4.614-.075-3.323-.007-6.647-.018-9.97-.028-1.439-.005-2.878-.009-4.318-.013-1.152-.003-2.47-.163-3.6.101-.982.229-1.907.893-2.428,1.757-.557.923-.375,1.858-.715,2.806-.016.044-.012.214.089.045-.105.175-.544.364-.716.486-.415.295-.829.601-1.226.92-.851.685-1.38,1.588-1.486,2.684-.319,3.284-.045,6.722-.052,10.017-.005,2.574,3.995,2.578,4,0h0Z"/><path class="g" d="M43.723,165.609c5.682,0,11.364.032,17.046.033,2.574,0,2.578-4,0-4-5.682,0-11.364-.032-17.046-.033-2.574,0-2.578,4,0,4h0Z"/><path class="e" d="M72.048,175.475c-.955-.957-2.185-1.612-3.524-1.667-1.446-.06-3.016.743-3.41,2.135-.213.754-.065,1.557.085,2.326.418,2.152.781,6.839,1.546,7.952,1.637,2.196,4.493,1.937,6.183.521,1.304-1.092,1.439-2.456,1.461-3.154.066-2.115-.074-4.3-.992-6.207-.336-.698-.796-1.353-1.348-1.906Z"/><path class="g" d="M73.463,174.061c-1.365-1.328-3.171-2.269-5.113-2.256-1.797.012-3.586.858-4.596,2.366-1.093,1.632-.663,3.467-.373,5.262.201,1.241.344,2.49.532,3.733.163,1.075.315,2.188.707,3.208.603,1.566,1.963,2.691,3.548,3.202,3.259,1.05,7.106-1.031,7.993-4.329.474-1.762.277-3.825-.003-5.596-.332-2.098-1.212-4.054-2.695-5.589-.751-.777-2.074-.755-2.828,0-.777.777-.753,2.049,0,2.828.272.282.398.421.503.581.156.238.307.478.437.73.266.513.453,1.127.605,1.845.13.613.158.903.196,1.606.036.676.045,1.359.009,2.035-.005.093-.021.189-.02.282.004.264.125-.514.006-.074-.053.196-.112.395-.16.591.082-.332.063-.115,0-.007-.078.134-.148.27-.236.399-.175.257.308-.25-.134.147-.084.076-.581.478-.172.185-.173.124-.352.237-.54.338-.094.051-.19.097-.287.142.393-.183.064-.028-.048,0-.236.059-.464.127-.705.167.486-.08-.267-.027-.434-.028-.469-.004.215.106-.029-.006-.092-.042-.216-.056-.316-.08-.115-.028-.43-.187-.061-.004-.101-.05-.2-.1-.297-.157-.098-.058-.196-.12-.288-.187.309.223,0-.019-.071-.089-.111-.109-.217-.223-.315-.345.099.124.242.248.074.043-.15-.184.144.48.017.008-.048-.179-.107-.354-.153-.534-.116-.457-.205-.92-.286-1.384-.181-1.034-.316-2.076-.459-3.116-.064-.466-.128-.932-.2-1.398-.031-.201-.064-.402-.1-.603-.014-.08-.03-.16-.045-.24.002.011-.11-.584-.084-.402-.057-.405-.043-.599,0-.86l.053-.164c-.082.189-.09.22-.022.093.04-.074.085-.145.135-.214-.124.16-.138.187-.042.082-.008-.067.417-.328.05-.074.119-.083.245-.152.371-.224.268-.153-.426.1.086-.039.171-.046.338-.095.512-.133-.085.019-.392.015-.008.008.185-.003.364-.004.549.011-.323-.026-.008,0,.058.019.191.053.382.099.57.163.388.132.144.065.07.028.178.088.353.185.521.291-.044-.028.483.344.288.192-.066-.052.328.303.404.377.774.753,2.057.771,2.828,0,.758-.758.777-2.073,0-2.828Z"/><path class="g" d="M306.534,53.669c.123-.067.247-.128.376-.182l-.478.202c.257-.101.519-.171.792-.213l-.532.071c.329-.042.654-.041.983,0l-.532-.071c.334.05.654.139.967.266l-.478-.202c.157.068.312.142.46.228.075.043.149.089.221.137.072.047.297.22.011-.004-.301-.235-.025-.016.038.039.056.049.111.1.164.152.128.125.231.289.365.404l-.201-.258c.037.05.072.101.107.153.044.066.085.132.125.2.099.167.189.339.279.511.212.404.411.815.591,1.234l-.202-.478c.254.604.468,1.224.567,1.874l-.071-.532c.009.065.017.131.023.197.058.545.185,1.013.586,1.414.347.347.916.608,1.414.586.517-.023,1.054-.193,1.414-.586.337-.367.641-.897.586-1.414-.145-1.366-.596-2.579-1.198-3.81-.467-.955-1.016-1.912-1.855-2.59-1.011-.816-2.089-1.297-3.381-1.451-1.089-.129-2.205.142-3.16.667-.918.505-1.292,1.845-.718,2.736.599.93,1.755,1.258,2.736.718h0Z"/><path class="g" d="M325.224,83.522c1.773-3.766,2.271-7.879,1.843-12.001-.371-3.58-1.011-7.741-2.894-10.882-1.785-2.976-4.93-4.327-8.295-4.503-1.871-.098-3.769.109-5.607.452-1.756.328-3.683.789-5.168,1.824-1.786,1.245-2.886,3.057-2.615,5.273.266,2.182,1.444,3.521,3.461,4.32v-3.857c-2.385.557-4.249,2.373-4.463,4.871-.231,2.695,1.618,4.652,3.943,5.629v-3.857c-3.868.587-4.871,5.814-2.367,8.371,1.442,1.472,3.358,1.799,5.336,1.816,2.058.018,4.116.06,6.175.053,2.573-.008,2.578-4.008,0-4-1.294.004-2.587-.009-3.881-.026-1.206-.016-2.612.17-3.784-.117-1.113-.273-2.026-1.996-.415-2.24.853-.129,1.468-1.127,1.468-1.929,0-.957-.644-1.582-1.468-1.929-.607-.255-1.128-.882-1.024-1.562.121-.792.857-1.064,1.544-1.224,2.101-.49,1.684-3.19,0-3.857-.919-.364-.653-1.601-.022-2.159,1.16-1.027,3.061-1.317,4.534-1.579,2.614-.466,6.189-.793,8.319,1.156.902.825,1.39,1.976,1.755,3.118.573,1.792.994,3.651,1.294,5.508.606,3.753.524,7.819-1.121,11.312-.46.977-.273,2.157.718,2.736.869.508,2.274.264,2.736-.718h0Z"/><path class="g" d="M314.79,63.444c-2.542.246-5.095.357-7.644.521-1.042.067-2.051.872-2,2,.046,1.026.882,2.072,2,2,2.548-.164,5.102-.274,7.644-.521.542-.053,1.016-.188,1.414-.586.347-.347.608-.916.586-1.414-.045-.997-.885-2.108-2-2h0Z"/><path class="e" d="M41.978,192.068c2.461-.394,4.644-.889,7.259-1.333,2.259-.667,2.981-1.889,3.111-3.492.105-1.296-1.44-2.784-2.824-2.654,1.341-.776,2.213-2.202,1.92-3.724-.35-1.818-1.893-2.691-3.512-2.746,1.397-.778,1.696-1.736,1.541-3.328-.164-1.675-2.005-2.767-3.574-3.078-3.325-.659-8.001-.411-10.699.776-3.111,1.501-4.094,3.74-4.486,7.172-.684,5.977-.365,7.223-.069,12.927l11.333-.519Z"/><path class="g" d="M315.016,70.019c-2.796.215-5.602.269-8.39.59-.548.063-1.01.181-1.414.586-.347.347-.608.916-.586,1.414.044.981.887,2.128,2,2,2.788-.321,5.594-.374,8.39-.59,1.041-.08,2.051-.862,2-2-.045-1.015-.883-2.086-2-2h0Z"/><path class="g" d="M39.63,180.845c2.548-.17,5.086-.476,7.627-.728.543-.054,1.015-.187,1.414-.586.347-.347.608-.916.586-1.414-.045-.995-.885-2.111-2-2-2.541.252-5.078.558-7.627.728-1.042.069-2.051.87-2,2,.046,1.024.882,2.075,2,2h0Z"/><path class="g" d="M40.475,187.369c2.794-.242,5.571-.645,8.375-.781,1.043-.051,2.05-.883,2-2-.047-1.04-.881-2.055-2-2-2.803.137-5.58.54-8.375.781-1.04.09-2.051.855-2,2,.045,1.006.884,2.097,2,2h0Z"/><path class="g" d="M42.51,193.997c2.025-.33,4.032-.751,6.05-1.12,1.887-.345,3.685-.973,4.827-2.618.89-1.283,1.249-3.103.669-4.573-.717-1.819-2.56-3.133-4.531-3.098l1.009,3.727c2.153-1.346,3.464-3.743,2.765-6.294-.674-2.462-2.955-3.749-5.367-3.904l1.009,3.727c1.526-.911,2.447-2.247,2.556-4.04.106-1.744-.51-3.36-1.87-4.479-2.605-2.144-6.619-2.162-9.819-1.878s-6.573,1.091-8.725,3.675-2.375,5.972-2.634,9.174c-.279,3.443.012,6.85.194,10.29.136,2.561,4.137,2.577,4,0-.165-3.113-.456-6.219-.263-9.338.161-2.603.135-6.068,2.131-7.944,2.121-1.993,5.796-2.051,8.524-1.924,1.289.06,2.923.101,3.981.954.832.671.627,1.627-.095,2.057-1.773,1.058-.922,3.603,1.009,3.727,1.759.113,2.002,1.856.583,2.743-1.637,1.023-1.032,3.764,1.009,3.727.597-.011.843.523.794.818-.102.609-.348.883-1.043,1.2-1.096.5-2.516.548-3.696.777-1.375.266-2.75.531-4.133.756-1.067.174-1.661,1.499-1.397,2.46.312,1.134,1.39,1.571,2.46,1.397h0Z"/><path class="g" d="M2.232,200.649c5.098,0,10.197-.004,15.295-.008,9.503-.007,19.005-.015,28.508-.023,12.731-.011,25.462-.024,38.192-.037,14.937-.015,29.875-.032,44.812-.049,15.92-.018,31.84-.038,47.761-.059s31.695-.044,47.542-.068c14.666-.023,29.332-.047,43.999-.075,12.377-.024,24.753-.049,37.13-.081,9.005-.023,18.009-.048,27.014-.086,4.453-.019,8.908-.008,13.361-.088.397-.007.793-.02,1.19-.02,2.574,0,2.578-4,0-4-3.302,0-6.607.07-9.91.087-8.002.041-16.003.064-24.005.086-11.649.033-23.297.059-34.946.082-14.266.029-28.532.054-42.798.077-15.664.025-31.329.049-46.993.07-16.004.022-32.008.042-48.012.062-15.235.018-30.47.035-45.705.052-13.358.014-26.716.027-40.074.04-10.404.01-20.809.019-31.213.027-6.261.005-12.522.01-18.784.012-.788,0-1.576,0-2.364,0-2.574,0-2.578,4,0,4h0Z"/><path class="g" d="M14.052,103.652c14.874-.006,29.748-.015,44.621-.024,21.425-.013,42.851-.026,64.276-.039,24.043-.015,48.086-.029,72.129-.046,23.013-.016,46.026-.03,69.039-.043,21.625-.012,43.249-.028,64.874-.039,1.92,0,3.839-.002,5.759-.003,2.574-.001,2.578-4.001,0-4-20.634.008-41.268.022-61.902.035-22.969.015-45.938.027-68.907.043-24.114.016-48.229.032-72.343.047-21.877.013-43.753.027-65.63.04-15.952.01-31.904.019-47.855.027-1.354,0-2.708.001-4.062.002-2.574.001-2.578,4.001,0,4h0Z"/><path class="g" d="M176.847,186.501c-.036-20.102-.085-40.204-.132-60.305-.057-24.688-.114-49.377-.172-74.065-.03-12.687-.061-25.375-.089-38.062-.006-2.574-4.006-2.578-4,0,.053,23.486.111,46.973.166,70.459.056,23.954.111,47.908.165,71.862.022,10.037.045,20.075.063,30.112.005,2.574,4.005,2.578,4,0h0Z"/><path class="e" d="M71.613,91.47c.252-.193.484-.402.687-.629.966-1.08,1.675-2.571,1.646-4.019s-.208-2.915-.443-4.345c-1.582-9.628-2.887-16.821-4.372-25.801-.231-1.395-.662-2.609-1.747-3.515-1.443-1.207-2.348-1.266-4.205-1.172-1.021.052-2.376.413-3.503.661-.364-1.096-.481-1.668-.702-2.648-.249-1.102-1.253-1.948-2.549-1.721-2.382.418-6.041,1.41-8.089,1.934-.779.199-1.256.978-1.086,1.764l.499,2.302c-2.237.659-4.466,1.104-5.803,2.925-.904,1.231-.995,2.92-.722,4.423,1.162,6.391,5.914,26.749,6.798,30.178.348,1.349,1.184,2.622,2.416,3.272,1.262.666,2.774.573,4.192.417,5.287-.582,8.434-1.243,12.736-2.247,1.399-.326,3.057-.871,4.246-1.78Z"/><path class="g" d="M73.027,92.884c4.154-3.364,2.763-8.8,2.008-13.337-.747-4.491-1.523-8.978-2.294-13.466-.39-2.269-.778-4.539-1.16-6.81-.337-2.006-.457-4.232-1.525-6.016-2.447-4.089-6.966-3.425-10.913-2.534l2.46,1.397c-.716-2.223-.887-4.873-3.517-5.678-2.155-.659-5.019.497-7.124,1.031-2.087.53-5.034.799-5.638,3.318-.309,1.29.221,2.76.495,4.024l1.397-2.46c-2.783.808-5.996,1.649-7.384,4.495-1.122,2.3-.675,4.694-.197,7.083.824,4.119,1.752,8.219,2.681,12.316.946,4.173,1.909,8.342,2.901,12.504.271,1.138.53,2.281.829,3.412.828,3.121,3.161,5.235,6.427,5.433,1.907.116,3.908-.291,5.794-.554,1.635-.228,3.262-.499,4.881-.821,3.165-.628,6.792-1.104,9.472-3.025.877-.628,1.299-1.743.718-2.736-.507-.866-1.854-1.35-2.736-.718-2.129,1.525-4.943,1.877-7.453,2.404s-5.036.944-7.582,1.243c-1.255.148-2.927.545-4.121-.038-.89-.435-1.302-1.349-1.542-2.253-.282-1.063-.525-2.137-.78-3.206-1.772-7.425-3.493-14.867-5.075-22.335-.327-1.544-.755-3.122-.93-4.693-.371-3.335,2.584-3.908,5.16-4.656,1.08-.313,1.629-1.389,1.397-2.46-.093-.427-.163-1.956-.475-2.19.032.024-.415.477-.335.585.019.025.842-.217.877-.227.761-.197,1.521-.396,2.282-.589.825-.209,1.652-.415,2.481-.607.563-.13,1.552-.544,2.131-.454.343.053.212.007.406.266.175.234.179.804.254,1.108.129.52.283,1.03.447,1.539.343,1.065,1.365,1.644,2.46,1.397,1.443-.326,3.063-.847,4.559-.591,1.435.245,2.099,1.556,2.368,2.845.769,3.68,1.257,7.443,1.894,11.15.644,3.744,1.289,7.488,1.917,11.234.342,2.041.76,4.088.926,6.153.155,1.925-.102,3.416-1.672,4.687-.84.68-.707,2.121,0,2.828.83.83,1.986.682,2.828,0Z"/><path class="e" d="M40.96,89.465c1.109.45,2.471.764,4.015.858,2.219.135,3.536-.008,5.718-.43,1.39-.269,3.064-.882,4.317-1.542s2.344-1.77,2.634-3.155-.431-3.011-1.779-3.443c1.582-.15,3.169-1.121,3.641-2.638s-.581-3.438-2.167-3.521c.962-.209,1.787-.96,2.086-1.898s.061-2.027-.602-2.755c-.825-.905-2.162-.959-3.378-1.105-2.976-.357-6.893-.214-10.001.324.142-.071.222-.112.222-.112.803-.417,4.787-3.329,5.897-4.426,1.011-1,1.371-2.527.482-3.636-.669-.835-1.405-1.15-2.472-1.231-2.671-.201-7.547,2.816-9.495,4.439-3.484,2.644-5.237,8.588-5.049,12.943.183,4.246.665,6.985,3.709,9.951.536.522,1.291.997,2.224,1.376Z"/><path class="g" d="M45.088,72.258c2.765-.557,5.624-.714,8.439-.579.968.046,2.703-.065,3.568.453.767.458.475,1.316-.288,1.533-2.331.661-1.584,3.653.532,3.929-.21-.027.113.165.205.37.103.229.087.461,0,.688-.23.607-1.07,1.02-1.679,1.1-2.25.296-2.702,3.059-.532,3.929.509.204.388,1.133.226,1.49-.456,1.007-1.625,1.539-2.581,1.938-2.364.987-4.993,1.355-7.541,1.239-2.171-.099-4.313-.589-5.829-2.227-1.373-1.483-2.101-3.261-2.377-5.251-.581-4.189-.033-8.714,2.38-12.282,1.025-1.516,2.493-2.518,4.019-3.467,1.546-.962,3.379-2.087,5.208-2.349.556-.08,1.673-.042,1.713.718.033.638-1.148,1.385-1.574,1.728-1.359,1.097-2.788,2.26-4.323,3.104-2.256,1.241-.24,4.696,2.019,3.454,1.935-1.064,3.742-2.575,5.437-3.978,2.495-2.064,3.489-5.589.645-7.897-2.463-2-5.716-.979-8.284.208-2.39,1.105-4.904,2.619-6.758,4.513-4.326,4.42-5.218,11.283-4.362,17.144.432,2.961,1.775,5.678,3.971,7.737,2.426,2.275,5.963,2.877,9.174,2.868,3.693-.01,8.263-.881,11.103-3.409,3.012-2.681,2.715-7.568-1.203-9.138l-.532,3.929c2.621-.345,5.234-1.843,5.679-4.68.437-2.789-1.497-5.125-4.206-5.479l.532,3.929c2.132-.605,3.701-2.471,3.674-4.734-.028-2.407-1.795-4.238-4.092-4.689-4.352-.854-9.106-.568-13.427.302-2.522.508-1.454,4.364,1.063,3.857h0Z"/><path class="g" d="M45.761,79.442c1.859-.552,3.75-.976,5.667-1.269.072-.011.724-.106.423-.065.212-.029.425-.055.637-.08.461-.055.923-.103,1.385-.145.97-.089,1.941-.152,2.914-.199,1.043-.051,2.05-.884,2-2-.047-1.04-.881-2.054-2-2-4.087.199-8.16.734-12.09,1.9-1.002.297-1.734,1.418-1.397,2.46.328,1.014,1.386,1.716,2.46,1.397h0Z"/><path class="g" d="M47.117,85.685c1.338-.222,2.672-.473,4.002-.736,1.567-.311,3.157-.612,4.682-1.095.996-.316,1.738-1.405,1.397-2.46-.323-.999-1.392-1.735-2.46-1.397-1.525.483-3.115.784-4.682,1.095-1.33.264-2.664.515-4.002.736-1.035.172-1.705,1.507-1.397,2.46.362,1.119,1.351,1.581,2.46,1.397h0Z"/><path class="g" d="M325.381,29.498c.557-.508,1.128-1,1.711-1.478.305-.25.613-.497.924-.741.073-.058.147-.115.221-.172.197-.154.033-.011-.072.055.176-.111.338-.259.504-.384,1.261-.953,2.547-1.87,3.83-2.791.434-.311.773-.663.919-1.195.132-.479.072-1.116-.202-1.541-.542-.841-1.828-1.37-2.736-.718-2.712,1.947-5.457,3.882-7.927,6.136-.775.707-.771,2.121,0,2.828.829.761,2.002.754,2.828,0h0Z"/><path class="g" d="M318.22,23.077c.256-.717.522-1.436.828-2.133-.197.45.09-.207.125-.285.067-.153.134-.306.202-.458.159-.357.322-.713.487-1.068.665-1.428,1.368-2.838,2.067-4.25.464-.936.282-2.208-.718-2.736-.903-.477-2.241-.283-2.736.718-1.483,2.996-2.986,5.997-4.113,9.15-.353.987.398,2.233,1.397,2.46,1.123.256,2.083-.341,2.46-1.397h0Z"/><path class="g" d="M327.284,38.235h8c1.046,0,2.048-.92,2-2s-.879-2-2-2h-8c-1.046,0-2.048.92-2,2s.879,2,2,2h0Z"/></g></svg>