<?xml version="1.0" encoding="UTF-8"?><svg id="b" xmlns="http://www.w3.org/2000/svg" width="434.933" height="390.667" viewBox="0 0 434.933 390.667"><defs><style>.g{fill:#3f88c9;}.h{fill:#fff;}.i{fill:#7abee6;}.j{fill:#211715;}.k{fill:#ffda71;}.l{fill:#0066a5;}.m{fill:#95cbeb;}.n{fill:#645d5c;}.o{fill:#febe69;}</style></defs><g id="c"><g id="d"><path class="g" d="M217.188,0C110.759,0,37.194,69.421,37.194,150.655c0,90.89,75.147,153.481,180,153.481,108.894,0,180-63.176,180-153.481C397.194,68.868,323.242,0,217.188,0Z"/><path class="l" d="M262.754,300.137c-14.295,2.628-29.517,3.999-45.56,3.999-62.507,0-114.452-22.248-146.218-59.47h43.551v-11.771h41.49v9.27c23.594,0,47.189,0,47.189,0h.631c0,2.824,0,16.428,0,19.252v.922c4.367,0,8.734,0,8.734,0h19.951c0-9.828,0-16.11,0-16.11h21.205l3.99,9.062h22.712v14.621c.15-.002.237-.002.237-.002h8.11s.359,0,1,.005c0-14.085,0-32.904,0-44.614h22.717c0,3.457,0,6.139,0,8.194h60.301c-22.936,33.873-61.044,57.636-110.041,66.642Z"/><path class="k" d="M191.057,62.738c-.174.747-1.23.76-1.423.018-.804-3.102-2.053-6.807-3.95-9.015-2.314-2.694-5.658-3.838-8.757-4.504-.769-.165-.767-1.268.003-1.431,3.069-.65,6.453-1.796,8.703-4.224,2.142-2.311,3.351-6.963,4.028-10.119.164-.765,1.249-.777,1.43-.017.754,3.156,2.096,7.821,4.242,10.136,2.228,2.404,5.448,3.551,8.423,4.205.772.17.765,1.277-.011,1.432-3.178.636-6.66,1.727-8.973,4.42-1.896,2.207-2.986,5.97-3.715,9.099Z"/><path class="j" d="M189.128,62.206l-.103.246.514-.883.281-.193h1.063c.554.639.713.669.477.093-.071-.258-.144-.515-.219-.772-.116-.393-.236-.785-.364-1.175-.311-.953-.667-1.888-1.061-2.809-.728-1.703-1.624-3.324-2.89-4.691s-2.872-2.429-4.568-3.18c-1.638-.725-3.38-.991-5.028-1.622l.883.514.003,1.571-.883.514c.908-.345,1.917-.472,2.848-.767,1.043-.33,2.073-.736,3.055-1.218,1.79-.878,3.426-2.121,4.626-3.72,1.101-1.468,1.825-3.2,2.425-4.924.614-1.765.812-3.732,1.503-5.449l-.514.883-.275.186h-1.063c-.546-.678-.72-.747-.522-.205.055.22.111.44.168.66.122.465.249.928.383,1.39.248.85.519,1.695.827,2.525.673,1.817,1.465,3.6,2.663,5.136s2.813,2.733,4.551,3.584c1.799.881,3.71,1.19,5.545,1.902l-.883-.514-.009-1.569.883-.514c-1.759.646-3.6.888-5.345,1.65-1.659.724-3.241,1.744-4.479,3.077-2.576,2.774-3.643,6.68-4.491,10.274-.59,2.503,3.266,3.572,3.857,1.063.739-3.136,1.552-6.785,4.013-9.057,1.14-1.052,2.593-1.75,4.054-2.236,1.452-.482,3.654-.517,4.667-1.771,1.166-1.445.529-3.634-1.203-4.26-1.458-.527-2.996-.745-4.417-1.415-1.412-.665-2.797-1.558-3.735-2.83-.943-1.28-1.557-2.813-2.07-4.306-.505-1.471-.781-3.014-1.275-4.482-.602-1.791-2.718-2.674-4.304-1.454-1.248.96-1.325,3.079-1.718,4.504-.432,1.567-.929,3.135-1.697,4.573-1.584,2.97-4.654,4.299-7.788,5.084-1.697.425-3.403,1.176-3.121,3.272.263,1.952,2.044,2.234,3.626,2.669,1.766.485,3.521,1.172,4.962,2.331,1.494,1.201,2.448,2.857,3.178,4.605.391.937.713,1.904,1.008,2.875.284.934.418,2.04,1.005,2.84.612.834,1.701,1.24,2.711,1.023,1.108-.238,1.681-.965,2.101-1.964s-.451-2.2-1.397-2.46c-1.154-.317-2.04.397-2.46,1.397Z"/><path class="k" d="M85.767,168.891c-.144.617-1.016.628-1.175.015-.664-2.562-1.696-5.623-3.263-7.447-1.912-2.226-4.673-3.17-7.234-3.72-.636-.137-.633-1.048.003-1.182,2.535-.537,5.33-1.484,7.189-3.489,1.769-1.909,2.768-5.752,3.327-8.359.135-.632,1.031-.642,1.181-.014.623,2.607,1.731,6.46,3.504,8.373,1.84,1.986,4.5,2.933,6.957,3.473.638.14.632,1.055-.009,1.183-2.625.526-5.502,1.427-7.412,3.651-1.566,1.823-2.466,4.931-3.069,7.516Z"/><path class="j" d="M84.04,167.882l.045-.025.883-.514.434.008.883.514c.394.344.002-.362-.056-.562-.106-.369-.218-.736-.336-1.101-.241-.74-.514-1.466-.813-2.184-.6-1.437-1.316-2.786-2.335-3.973s-2.368-2.136-3.778-2.801c-.662-.312-1.348-.587-2.043-.819-.351-.117-.705-.222-1.062-.318-.197-.053-1.103-.449-.739-.053l.514.883.002.421-.514.883c-.37.399.534.007.732-.046.415-.11.828-.23,1.235-.367.75-.253,1.49-.551,2.204-.893,1.518-.728,2.917-1.77,3.944-3.109.95-1.239,1.574-2.679,2.094-4.144.259-.729.481-1.471.681-2.219.088-.329.171-.66.251-.992.063-.262.473-1.149.031-.736l-.883.514-.425-.007-.883-.514c-.426-.38-.043.294.029.571.101.386.206.77.318,1.153.202.691.423,1.377.672,2.053.531,1.439,1.146,2.881,2.065,4.118,1.005,1.352,2.342,2.432,3.838,3.204.711.367,1.458.676,2.211.945.352.126.709.238,1.068.342.196.056,1.274.498.926.116l-.514-.883-.005-.42.514-.883-.158.168.883-.514c-1.362.57-2.896.727-4.28,1.315-1.479.628-2.888,1.486-3.996,2.667-2.198,2.343-3.117,5.632-3.838,8.681-.592,2.503,3.264,3.572,3.857,1.063.619-2.621,1.296-5.767,3.49-7.559,1.017-.83,2.262-1.339,3.51-1.707,1.397-.412,3.074-.431,3.774-1.929.707-1.512-.161-3.108-1.681-3.616-1.391-.465-2.772-.693-4.076-1.419-2.403-1.338-3.406-3.599-4.197-6.125-.357-1.139-.472-2.595-1.099-3.612-.881-1.43-2.974-1.615-4.117-.393-.854.914-.915,2.518-1.236,3.675-.362,1.303-.776,2.609-1.435,3.796-1.304,2.348-3.876,3.339-6.366,3.938-1.429.344-2.7,1.095-2.634,2.788.077,1.98,1.797,2.321,3.345,2.753,3.201.894,5.315,2.68,6.54,5.786.285.721.527,1.461.75,2.203.258.86.38,1.866,1.022,2.544,1.203,1.268,3.477.985,4.209-.644.442-.985.284-2.15-.718-2.736-.855-.5-2.292-.273-2.736.718Z"/><path class="k" d="M244.328,210.153c-.149.638-1.051.649-1.216.015-.687-2.65-1.754-5.816-3.375-7.702-1.977-2.302-4.834-3.279-7.482-3.848-.657-.141-.655-1.084.003-1.223,2.622-.556,5.513-1.535,7.436-3.609,1.83-1.975,2.863-5.95,3.442-8.646.14-.653,1.067-.664,1.222-.014.644,2.697,1.791,6.682,3.624,8.66,1.903,2.054,4.654,3.034,7.196,3.593.66.145.653,1.091-.009,1.224-2.715.544-5.691,1.476-7.667,3.777-1.62,1.886-2.551,5.101-3.174,7.774Z"/><path class="j" d="M242.601,209.144l.035-.012.883-.514.412.008.883.514c.363.317-.025-.435-.075-.612-.11-.381-.225-.761-.348-1.139-.249-.765-.531-1.516-.841-2.259-.641-1.535-1.412-2.979-2.529-4.226-1.033-1.154-2.364-2.085-3.763-2.739-.714-.334-1.45-.631-2.2-.875-.347-.113-.698-.216-1.051-.31-.188-.05-1.084-.433-.739-.058l.514.883.002.399-.514.883c-.335.363.611-.019.788-.065.43-.114.857-.238,1.278-.38.77-.259,1.53-.566,2.263-.917,1.562-.749,3.004-1.82,4.061-3.199.977-1.274,1.619-2.756,2.154-4.262.268-.755.498-1.522.705-2.295.091-.341.177-.683.259-1.026.056-.235.463-1.178.05-.792l-.883.514-.403-.008-.883-.514c-.4-.357-.017.372.048.62.104.399.213.797.329,1.192.209.715.437,1.425.695,2.124.547,1.483,1.181,2.969,2.129,4.243,1.033,1.389,2.408,2.496,3.945,3.289.73.377,1.497.694,2.271.971.364.13.733.247,1.104.354.176.051,1.295.475.988.138l-.514-.883-.005-.398.514-.883-.163.173.883-.514c-1.406.588-2.99.75-4.419,1.357-1.522.646-2.971,1.529-4.111,2.744-2.265,2.414-3.209,5.807-3.952,8.949-.592,2.503,3.264,3.572,3.857,1.063.655-2.771,1.381-6.142,3.775-7.973,1.037-.793,2.273-1.293,3.514-1.659,1.487-.439,3.374-.464,3.959-2.194.503-1.485-.34-2.92-1.795-3.409s-2.872-.718-4.233-1.475c-2.491-1.387-3.55-3.757-4.373-6.377-.36-1.148-.493-2.688-1.129-3.72-.894-1.45-3.003-1.622-4.15-.393-.868.929-.93,2.579-1.261,3.771-.376,1.355-.809,2.708-1.491,3.943-1.385,2.505-4.156,3.53-6.806,4.147-1.566.365-2.858,1.548-2.422,3.307.439,1.769,2.165,1.9,3.624,2.332,3.225.954,5.287,2.824,6.526,5.951.296.746.545,1.511.775,2.279.242.809.367,1.71.883,2.398,1.125,1.5,3.623,1.284,4.402-.45.442-.985.284-2.15-.718-2.736-.855-.5-2.292-.273-2.736.718Z"/><path class="k" d="M168.19,185.394v31.828c0,2.574,4,2.578,4,0v-31.828c0-2.574-4-2.578-4,0h0Z"/><path class="m" d="M168.19,149.783v11.713c0,1.046.92,2.048,2,2s2-.879,2-2v-11.713c0-1.046-.92-2.048-2-2s-2,.879-2,2h0Z"/><path class="m" d="M168.19,97.38v11.713c0,1.046.92,2.048,2,2s2-.879,2-2v-11.713c0-1.046-.92-2.048-2-2s-2,.879-2,2h0Z"/><path class="m" d="M149.845,127.438h-11.713c-1.046,0-2.048.92-2,2s.879,2,2,2h11.713c1.046,0,2.048-.92,2-2s-.879-2-2-2h0Z"/><path class="m" d="M202.248,127.438h-11.713c-1.046,0-2.048.92-2,2s.879,2,2,2h11.713c1.046,0,2.048-.92,2-2s-.879-2-2-2h0Z"/><path class="m" d="M178.635,148.067c1.952,3.381,3.904,6.763,5.857,10.144.523.906,1.832,1.301,2.736.718.914-.59,1.277-1.767.718-2.736-1.952-3.381-3.904-6.763-5.857-10.144-.523-.906-1.832-1.301-2.736-.718-.914.59-1.277,1.767-.718,2.736h0Z"/><path class="m" d="M152.434,102.684c1.952,3.381,3.904,6.763,5.857,10.144.523.906,1.832,1.301,2.736.718.914-.59,1.277-1.767.718-2.736-1.952-3.381-3.904-6.763-5.857-10.144-.523-.906-1.832-1.301-2.736-.718-.914.59-1.277,1.767-.718,2.736h0Z"/><path class="m" d="M151.561,137.883c-3.381,1.952-6.763,3.904-10.144,5.857-.906.523-1.301,1.832-.718,2.736.59.914,1.767,1.277,2.736.718,3.381-1.952,6.763-3.904,10.144-5.857.906-.523,1.301-1.832.718-2.736-.59-.914-1.767-1.277-2.736-.718h0Z"/><path class="m" d="M196.943,111.682l-10.144,5.857c-.906.523-1.301,1.832-.718,2.736.59.914,1.767,1.277,2.736.718l10.144-5.857c.906-.523,1.301-1.832.718-2.736-.59-.914-1.767-1.277-2.736-.718h0Z"/><path class="m" d="M158.29,146.048c-1.952,3.381-3.904,6.763-5.857,10.144-.523.906-.241,2.23.718,2.736s2.178.25,2.736-.718c1.952-3.381,3.904-6.763,5.857-10.144.523-.906.241-2.23-.718-2.736s-2.178-.25-2.736.718h0Z"/><path class="m" d="M184.492,100.665c-1.952,3.381-3.904,6.763-5.857,10.144-.523.906-.241,2.23.718,2.736s2.178.25,2.736-.718c1.952-3.381,3.904-6.763,5.857-10.144.523-.906.241-2.23-.718-2.736s-2.178-.25-2.736.718h0Z"/><path class="m" d="M186.799,141.337c3.381,1.952,6.763,3.904,10.144,5.857.906.523,2.23.241,2.736-.718s.25-2.178-.718-2.736c-3.381-1.952-6.763-3.904-10.144-5.857-.906-.523-2.23-.241-2.736.718s-.25,2.178.718,2.736h0Z"/><path class="m" d="M141.417,115.136c3.381,1.952,6.763,3.904,10.144,5.857.906.523,2.23.241,2.736-.718s.25-2.178-.718-2.736c-3.381-1.952-6.763-3.904-10.144-5.857-.906-.523-2.23-.241-2.736.718s-.25,2.178.718,2.736h0Z"/><path class="k" d="M172.977,171.135c.084-.742-.109-1.521-.627-2.147-.548-.662-1.444-.998-2.3-.929-1.352.109-2.516,1.106-2.658,2.491-.077,1.124.375,2.221,1.374,2.772.735.405,1.649.467,2.432.167,1.032-.396,1.665-1.341,1.78-2.354Z"/><path class="k" d="M172.977,88.284c.084-.742-.109-1.521-.627-2.147-.548-.662-1.444-.998-2.3-.929-1.352.109-2.516,1.106-2.658,2.491-.077,1.124.375,2.221,1.374,2.772.735.405,1.649.467,2.432.167,1.032-.396,1.665-1.341,1.78-2.354Z"/><path class="k" d="M213.009,126.65c-.742-.084-1.521.109-2.147.627-.662.548-.998,1.444-.929,2.3.109,1.352,1.106,2.516,2.491,2.658,1.124.077,2.221-.375,2.772-1.374.405-.735.467-1.649.167-2.432-.396-1.032-1.341-1.665-2.354-1.78Z"/><path class="k" d="M127.913,126.65c-.742-.084-1.521.109-2.147.627-.662.548-.998,1.444-.929,2.3.109,1.352,1.106,2.516,2.491,2.658,1.124.077,2.221-.375,2.772-1.374.405-.735.467-1.649.167-2.432-.396-1.032-1.341-1.665-2.354-1.78Z"/><path class="k" d="M193.452,164.154c-.298-.685-.855-1.262-1.617-1.545-.806-.299-1.749-.142-2.457.346-1.116.77-1.626,2.216-1.056,3.487.495,1.012,1.435,1.736,2.576,1.713.839-.017,1.662-.42,2.189-1.072.695-.859.771-1.994.364-2.929Z"/><path class="k" d="M152.027,92.403c-.298-.685-.855-1.262-1.617-1.545-.806-.299-1.749-.142-2.457.346-1.116.77-1.626,2.216-1.056,3.487.495,1.012,1.435,1.736,2.576,1.713.839-.017,1.662-.42,2.189-1.072.695-.859.771-1.994.364-2.929Z"/><path class="k" d="M205.878,105.614c-.685.298-1.262.855-1.545,1.617-.299.806-.142,1.749.346,2.457.77,1.116,2.216,1.626,3.487,1.056,1.012-.495,1.736-1.435,1.713-2.576-.017-.839-.42-1.662-1.072-2.189-.859-.695-1.994-.771-2.929-.364Z"/><path class="k" d="M132.183,148.162c-.685.298-1.262.855-1.545,1.617-.299.806-.142,1.749.346,2.457.77,1.116,2.216,1.626,3.487,1.056,1.012-.495,1.736-1.435,1.713-2.576-.017-.839-.42-1.662-1.072-2.189-.859-.695-1.994-.771-2.929-.364Z"/><path class="k" d="M146.912,164.154c.298-.685.855-1.262,1.617-1.545.806-.299,1.749-.142,2.457.346,1.116.77,1.626,2.216,1.056,3.487-.495,1.012-1.435,1.736-2.576,1.713-.839-.017-1.662-.42-2.189-1.072-.695-.859-.771-1.994-.364-2.929Z"/><path class="k" d="M188.338,92.403c.298-.685.855-1.262,1.617-1.545.806-.299,1.749-.142,2.457.346,1.116.77,1.626,2.216,1.056,3.487-.495,1.012-1.435,1.736-2.576,1.713-.839-.017-1.662-.42-2.189-1.072-.695-.859-.771-1.994-.364-2.929Z"/><path class="k" d="M134.486,105.614c.685.298,1.262.855,1.545,1.617.299.806.142,1.749-.346,2.457-.77,1.116-2.216,1.626-3.487,1.056-1.012-.495-1.736-1.435-1.713-2.576.017-.839.42-1.662,1.072-2.189.859-.695,1.994-.771,2.929-.364Z"/><path class="k" d="M208.182,148.162c.685.298,1.262.855,1.545,1.617.299.806.142,1.749-.346,2.457-.77,1.116-2.216,1.626-3.487,1.056-1.012-.495-1.736-1.435-1.713-2.576.017-.839.42-1.662,1.072-2.189.859-.695,1.994-.771,2.929-.364Z"/><path class="k" d="M172.28,140.977c-.667,1.904-3.533,1.958-4.264.075-.827-2.132-1.874-4.172-3.19-5.621-1.582-1.742-3.581-2.891-5.691-3.689-1.945-.736-1.921-3.298.033-4.014,2.092-.766,4.072-1.841,5.599-3.4,1.478-1.509,2.572-3.929,3.38-6.37.662-1.999,3.61-2.032,4.316-.046.873,2.456,2.026,4.897,3.514,6.415,1.488,1.519,3.36,2.578,5.338,3.34,1.912.736,1.796,3.307-.137,3.992-2.189.776-4.259,1.907-5.85,3.659-1.314,1.447-2.293,3.505-3.048,5.658Z"/><path class="k" d="M276.644,154.355v50.534c0,2.574,4,2.578,4,0v-50.534c0-2.574-4-2.578-4,0h0Z"/><path class="o" d="M277.614,111.836v14.542c0,1.081.919,2,2,2s2-.915,2-2v-14.542c0-1.081-.919-2-2-2s-2,.915-2,2h0Z"/><path class="o" d="M277.614,46.776v14.542c0,1.081.919,2,2,2s2-.915,2-2v-14.542c0-1.081-.919-2-2-2s-2,.915-2,2h0Z"/><path class="o" d="M254.356,84.577h-14.542c-1.081,0-2,.919-2,2s.915,2,2,2h14.542c1.081,0,2-.919,2-2s-.915-2-2-2h0Z"/><path class="o" d="M317.475,84.577h-14.188c-1.081,0-2,.919-2,2s.915,2,2,2h14.188c1.081,0,2-.919,2-2s-.915-2-2-2h0Z"/><path class="o" d="M290.517,109.461c2.424,4.198,4.847,8.396,7.271,12.594.523.906,1.832,1.301,2.736.718.914-.59,1.277-1.767.718-2.736-2.424-4.198-4.847-8.396-7.271-12.594-.523-.906-1.832-1.301-2.736-.718-.914.59-1.277,1.767-.718,2.736h0Z"/><path class="o" d="M257.987,53.118c2.424,4.198,4.847,8.396,7.271,12.594.523.906,1.832,1.301,2.736.718.914-.59,1.277-1.767.718-2.736-2.424-4.198-4.847-8.396-7.271-12.594-.523-.906-1.832-1.301-2.736-.718-.914.59-1.277,1.767-.718,2.736h0Z"/><path class="o" d="M256.73,97.479c-4.198,2.424-8.396,4.847-12.594,7.271-.906.523-1.301,1.832-.718,2.736.59.914,1.767,1.277,2.736.718,4.198-2.424,8.396-4.847,12.594-7.271.906-.523,1.301-1.832.718-2.736-.59-.914-1.767-1.277-2.736-.718h0Z"/><path class="o" d="M311.263,65.435c-4.096,2.365-8.191,4.729-12.287,7.094-.906.523-1.301,1.832-.718,2.736.59.914,1.767,1.277,2.736.718,4.096-2.365,8.191-4.729,12.287-7.094.906-.523,1.301-1.832.718-2.736-.59-.914-1.767-1.277-2.736-.718h0Z"/><path class="o" d="M265.258,107.442c-2.424,4.198-4.847,8.396-7.271,12.594-.523.906-.241,2.23.718,2.736s2.178.25,2.736-.718c2.424-4.198,4.847-8.396,7.271-12.594.523-.906.241-2.23-.718-2.736s-2.178-.25-2.736.718h0Z"/><path class="o" d="M296.333,51.939c-2.365,4.096-4.729,8.191-7.094,12.287-.523.906-.241,2.23.718,2.736s2.178.25,2.736-.718c2.365-4.096,4.729-8.191,7.094-12.287.523-.906.241-2.23-.718-2.736s-2.178-.25-2.736.718h0Z"/><path class="o" d="M300.48,100.933c4.198,2.424,8.396,4.847,12.594,7.271.906.523,2.23.241,2.736-.718s.25-2.178-.718-2.736c-4.198-2.424-8.396-4.847-12.594-7.271-.906-.523-2.23-.241-2.736.718s-.25,2.178.718,2.736h0Z"/><path class="o" d="M244.136,68.404c4.198,2.424,8.396,4.847,12.594,7.271.906.523,2.23.241,2.736-.718s.25-2.178-.718-2.736c-4.198-2.424-8.396-4.847-12.594-7.271-.906-.523-2.23-.241-2.736.718s-.25,2.178.718,2.736h0Z"/><path class="k" d="M282.021,137.082c.102-.899-.132-1.842-.76-2.6-.664-.802-1.748-1.209-2.786-1.125-1.637.132-3.047,1.34-3.22,3.018-.093,1.362.454,2.69,1.665,3.357.89.49,1.997.566,2.946.202,1.25-.48,2.016-1.625,2.156-2.851Z"/><path class="k" d="M282.021,36.728c.102-.899-.132-1.842-.76-2.6-.664-.802-1.748-1.209-2.786-1.125-1.637.132-3.047,1.34-3.22,3.018-.093,1.362.454,2.69,1.665,3.357.89.49,1.997.566,2.946.202,1.25-.48,2.016-1.625,2.156-2.851Z"/><path class="k" d="M335.509,83.201c-.899-.102-1.842.132-2.6.76-.802.664-1.209,1.748-1.125,2.786.132,1.637,1.34,3.047,3.018,3.22,1.362.093,2.69-.454,3.357-1.665.49-.89.566-1.997.202-2.946-.48-1.25-1.625-2.016-2.851-2.156Z"/><path class="k" d="M227.436,83.2c-.899-.102-1.842.132-2.6.76-.802.664-1.209,1.748-1.125,2.786.132,1.637,1.34,3.047,3.018,3.22,1.362.093,2.69-.454,3.357-1.665.49-.89.566-1.997.202-2.946-.48-1.25-1.625-2.016-2.851-2.156Z"/><path class="k" d="M306.821,128.628c-.361-.83-1.036-1.529-1.958-1.872-.976-.363-2.119-.172-2.976.419-1.352.933-1.969,2.684-1.28,4.223.6,1.226,1.739,2.103,3.12,2.075,1.016-.02,2.013-.508,2.652-1.298.842-1.041.934-2.415.441-3.547Z"/><path class="k" d="M256.644,41.719c-.361-.83-1.036-1.529-1.958-1.872-.976-.363-2.119-.172-2.976.419-1.352.933-1.969,2.684-1.28,4.223.6,1.226,1.739,2.103,3.12,2.075,1.016-.02,2.013-.508,2.652-1.298.842-1.041.934-2.415.441-3.547Z"/><path class="k" d="M321.872,57.72c-.83.361-1.529,1.036-1.872,1.958-.363.976-.172,2.119.419,2.976.933,1.352,2.684,1.969,4.223,1.28,1.226-.6,2.103-1.739,2.075-3.12-.02-1.016-.508-2.013-1.298-2.652-1.041-.842-2.415-.934-3.547-.441Z"/><path class="k" d="M232.608,109.257c-.83.361-1.529,1.036-1.872,1.958-.363.976-.172,2.119.419,2.976.933,1.352,2.684,1.969,4.223,1.28,1.226-.6,2.103-1.739,2.075-3.12-.02-1.016-.508-2.013-1.298-2.652-1.041-.842-2.415-.934-3.547-.441Z"/><path class="k" d="M250.449,128.628c.361-.83,1.036-1.529,1.958-1.872.976-.363,2.119-.172,2.976.419,1.352.933,1.969,2.684,1.28,4.223-.6,1.226-1.739,2.103-3.12,2.075-1.016-.02-2.013-.508-2.652-1.298-.842-1.041-.934-2.415-.441-3.547Z"/><path class="k" d="M300.626,41.719c.361-.83,1.036-1.529,1.958-1.872.976-.363,2.119-.172,2.976.419,1.352.933,1.969,2.684,1.28,4.223-.6,1.226-1.739,2.103-3.12,2.075-1.016-.02-2.013-.508-2.652-1.298-.842-1.041-.934-2.415-.441-3.547Z"/><path class="k" d="M235.398,57.72c.83.361,1.529,1.036,1.872,1.958.363.976.172,2.119-.419,2.976-.933,1.352-2.684,1.969-4.223,1.28-1.226-.6-2.103-1.739-2.075-3.12.02-1.016.508-2.013,1.298-2.652,1.041-.842,2.415-.934,3.547-.441Z"/><path class="k" d="M324.662,109.257c.83.361,1.529,1.036,1.872,1.958.363.976.172,2.119-.419,2.976-.933,1.352-2.684,1.969-4.223,1.28-1.226-.6-2.103-1.739-2.075-3.12.02-1.016.508-2.013,1.298-2.652,1.041-.842,2.415-.934,3.547-.441Z"/><path class="h" d="M281.176,100.554c-.808,2.306-4.28,2.371-5.164.09-1.002-2.583-2.269-5.053-3.864-6.809-1.916-2.11-4.337-3.501-6.893-4.469-2.356-.891-2.327-3.995.04-4.862,2.534-.928,4.932-2.23,6.782-4.118,1.791-1.827,3.116-4.76,4.094-7.715.802-2.422,4.372-2.461,5.227-.056,1.057,2.974,2.454,5.932,4.256,7.771s4.069,3.123,6.466,4.046c2.316.892,2.175,4.006-.166,4.836-2.652.939-5.159,2.31-7.086,4.432-1.592,1.752-2.777,4.245-3.692,6.854Z"/><path class="h" d="M98.749,52.108c5.505.073,9.8,4.113,9.656,9.707-.026.996.941,2.115,2,2,2.816-.307,5.685.235,7.887,2.114,2.01,1.714,3.227,4.239,3.337,6.877.224,5.34-3.303,9.945-8.798,10.28-3.171.193-6.399.027-9.574.027h-31.629c-2.574,0-2.578,4,0,4h32.403c3.697,0,7.813.435,11.443-.398,6.449-1.481,10.503-7.588,10.148-14.075-.432-7.909-7.367-13.681-15.218-12.825l2,2c.2-7.785-6.029-13.607-13.656-13.707-2.575-.034-2.576,3.966,0,4h0Z"/><path class="j" d="M154.017,232.894c0,8.392,0,16.783,0,25.175,0,2.574,4,2.578,4,0,0-8.392,0-16.783,0-25.175,0-2.574-4-2.578-4,0h0Z"/><path class="j" d="M114.528,234.894h41.49c2.574,0,2.578-4,0-4h-41.49c-2.574,0-2.578,4,0,4h0Z"/><path class="j" d="M116.528,252.28v-19.386c0-2.574-4-2.578-4,0v19.386c0,2.574,4,2.578,4,0h0Z"/><path class="j" d="M100.916,246.665h13.611c1.081,0,2-.919,2-2s-.915-2-2-2h-13.611c-1.081,0-2,.919-2,2s.915,2,2,2h0Z"/><path class="j" d="M172.194,264.338h60.327c2.574,0,2.578-4,0-4h-60.327c-2.574,0-2.578,4,0,4h0Z"/><path class="j" d="M280.429,271.912c6.227,0,12.454-.002,18.682-.002,2.574,0,2.578-4,0-4-6.227,0-12.454.002-18.682.002-2.574,0-2.578,4,0,4h0Z"/><path class="j" d="M234.522,262.338v-16.11l-2,2h21.205l-1.727-.991c1.33,3.021,2.66,6.041,3.99,9.062.275.623,1.085.991,1.727.991h22.712l-2-2c0,4.873,0,9.746,0,14.62,0,2.574,4,2.578,4,0,0-4.873,0-9.746,0-14.62,0-1.081-.916-2-2-2h-22.712l1.727.991c-1.33-3.021-2.66-6.041-3.99-9.062-.275-.623-1.085-.991-1.727-.991h-21.205c-1.081,0-2,.916-2,2v16.11c0,2.574,4,2.578,4,0h0Z"/><path class="j" d="M205.837,262.338v-20.116c0-2.574-4-2.578-4,0v20.116c0,2.574,4,2.578,4,0h0Z"/><path class="j" d="M203.206,240.222h-47.189c-2.574,0-2.578,4,0,4h47.189c2.574,0,2.578-4,0-4h0Z"/><path class="j" d="M312.494,235.495h27.783c2.574,0,2.578-4,0-4h-27.783c-2.574,0-2.578,4,0,4h0Z"/><path class="j" d="M291.777,269.915c0-14.871,0-29.743,0-44.614l-2,2h22.717l-2-2c0,2.74,0,5.48,0,8.22h4c0-.209,0-.418,0-.627,0-2.574-4-2.578-4,0,0,.209,0,.418,0,.627.001,2.574,4,2.578,4,0,0-2.74,0-5.48,0-8.22,0-1.081-.916-2-2-2h-22.717c-1.081,0-2,.916-2,2,0,14.871,0,29.743,0,44.614,0,2.574,4,2.578,4,0h0Z"/><path class="j" d="M278.694,231.495h-69.957c-2.574,0-2.578,4,0,4h69.957c2.574,0,2.578-4,0-4h0Z"/><path class="j" d="M146.592,279.923h44.667c2.574,0,2.578-4,0-4h-44.667c-2.574,0-2.578,4,0,4h0Z"/><path class="h" d="M377.155,158.415c-2.582-5.598-7.677-9.536-13.817-10.391-6.188-.862-12.846,1.153-17.064,5.9-1.705,1.919,1.114,4.758,2.828,2.828,3.358-3.78,8.588-5.484,13.555-4.819,2.398.321,4.524,1.282,6.502,2.648,2.091,1.445,3.487,3.567,4.541,5.852.452.981,1.868,1.225,2.736.718,1.007-.589,1.172-1.752.718-2.736h0Z"/><path class="h" d="M353.515,165.973c-3.873-5.761-11.82-7.497-18.048-4.801-3.275,1.418-6.124,3.755-7.823,6.92-1.763,3.283-2.584,7.159-2.139,10.874.453,3.786,2.306,7.15,5.355,9.454,2.791,2.109,6.133,2.864,9.572,3.022,5.63.258,11.322.044,16.957.048,7.602.007,15.204.014,22.806.015,2.574,0,2.578-4,0-4-11.157,0-22.314-.019-33.471-.022-5.281-.002-11.653.706-15.307-4.012-3.698-4.775-2.196-12.877,2.305-16.614,2.542-2.11,5.619-3.171,8.91-2.888,2.884.248,5.784,1.574,7.431,4.023,1.429,2.125,4.895.126,3.454-2.019h0Z"/></g><g id="e"><path class="h" d="M336.863,307.331l-7.448-5.098c-1.029-2.294-2.822-4.659-5.003-4.85-1.526-.134-3.212.213-4.224,1.362-3.873,4.399-2.442,13.687-.726,19.291,2.028,6.621,3.85,11.464,6.493,16.371l3.034,4.839c3.958-2.693,8.391-5.938,12.802-8.531l.043-.05c3.314-3.823,4.992-10.404,6.963-15.165l-11.934-8.169Z"/><path class="h" d="M407.052,304.813c5.853-5.481,12.615-14.398,14.518-27.174,1.294-8.683-.436-17.996-3.482-24.795-7.838-17.493-19.33-22.309-26.545-24.536-7.215-2.227-14.573-2.304-21.409-1.202-14.325,2.31-22.215,10.76-23.65,12.697-3.117,4.209-4.95,7.412-6.366,13.335-.738,2.368-1.306,4.959-1.676,7.796-1.228,5.892-2.909,14.069-8.848,16.041-1.179.392-2.273,1.053-2.964,2.08-1.82,2.718.485,4.492,1.758,6.469.844,1.307,1.233,2.726,1.377,4.209-.24,1.949-.464,5.392-.312,8.748.102,2.211.369,4.391.914,6.065,1.148,3.58,3.068,5.606,5.206,6.848,4.193,2.437,10.225,4.111,14.389,3.742.999-.09,1.907.593,2.12,1.574.032.159,1.284,3.243,2.076,6.928,0,0,.986,2.978,2.152,6.502.235-.329.473-.602.711-.804,2.618-2.224,9.957-6.349,16.047-8.023,6.635-1.824,15.728-3.564,18.696-3.68,2.593-3.854,8.083-6.994,11.466-9.581,1.18-.902,2.477-1.98,3.823-3.24Z"/><path class="n" d="M369.113,227.282c-13.68,2.535-21.23,10.63-22.63,12.521-2.153,2.907-3.693,5.334-4.907,8.51,1.57,7.983,5.941,15.387,12.174,20.616,0,0,4.794.487,7.888.804,2.536,3.788,5.509,7.214,9.315,9.817.822-.402,1.711-.651,2.755-.676,1.839-.044,3.482.562,4.565,1.799,1.611,1.841,1.833,4.983,1.166,7.376-1.196,4.294-3.555,7.307-6.956,9.207-.107.992-.187,1.779-.187,1.779.254,3.238,1.939,8.34,4.008,11.089,2.195,2.916,8.533,5.877,12.485,7.094l2.718.818c2.468-4.039,8.222-7.307,11.722-9.983,6.311-4.825,16-14.701,18.341-30.414,1.294-8.683-.436-17.996-3.482-24.795-7.838-17.493-19.33-22.309-26.545-24.536-7.215-2.227-14.573-2.304-21.409-1.202-.344.055-.684.114-1.02.177Z"/><path class="j" d="M356.086,323.107c-.546-2.461-1.299-4.88-2.172-7.243-.629-1.702-2.148-2.729-3.953-2.727-1.416.002-2.774.038-4.18-.204-3.143-.542-6.271-1.579-9.04-3.173-2.466-1.42-3.953-3.764-4.663-6.491-.929-3.57-.785-7.496-.535-11.146.117-1.714.273-3.212-.218-4.899-.461-1.584-1.308-2.866-2.278-4.172-.702-.945-1.527-1.871-.69-2.987.815-1.088,2.356-1.293,3.492-1.898,2.407-1.282,4.162-3.583,5.327-5.999,3.08-6.385,3.085-13.597,5.446-20.202.868-2.428-2.996-3.474-3.857-1.063-2.138,5.984-2.224,12.495-4.657,18.389-.894,2.166-2.229,4.424-4.408,5.492-1.382.677-2.751,1.043-3.892,2.158-1.25,1.223-2.019,2.969-1.792,4.725.399,3.076,3.697,4.86,3.75,8.068.027,1.631-.3,3.322-.342,4.962-.052,2.04-.017,4.092.207,6.121.386,3.487,1.373,6.837,3.658,9.57,1.949,2.331,4.776,3.664,7.553,4.747,3.456,1.348,7.097,2.082,10.806,2.026.56-.008.361-.123.54.181.201.344.298.817.43,1.191.648,1.847,1.191,3.726,1.614,5.638.557,2.512,4.414,1.449,3.857-1.063h0Z"/><path class="j" d="M341.978,253.959c.758-3.192,1.793-6.241,3.473-9.071.774-1.304,1.644-2.545,2.535-3.772.613-.844-.235.236.273-.356.189-.22.377-.439.572-.653,2.943-3.214,6.622-5.688,10.536-7.586,11.514-5.583,26.185-5.444,37.466-.074,10.808,5.145,18.417,15.752,21.535,27.153,2.04,7.458,2.204,15.314.166,22.788-1.639,6.011-4.603,11.651-8.586,16.442-3.226,3.879-6.903,6.975-10.881,9.75-2.644,1.845-5.393,3.723-7.549,6.147-2.011,2.261-3.037,4.606-3.23,7.612-.098,1.521-.117,3.055-.031,4.577.144,2.559,4.145,2.576,4,0-.148-2.624-.402-5.661,1.026-7.954,1.647-2.645,4.437-4.561,6.94-6.324,4.354-3.067,8.461-6.226,11.959-10.278,9.815-11.37,13.835-26.4,10.697-41.138-2.704-12.699-10.72-25.107-22.306-31.357-11.735-6.331-26.482-7.193-38.968-2.603-5.214,1.916-10.118,4.771-14.178,8.583-3.417,3.208-6.013,7.411-7.708,11.753-.672,1.721-1.171,3.501-1.598,5.297-.595,2.503,3.261,3.571,3.857,1.063h0Z"/><path class="i" d="M420.183,340.658c-4.598-6.919-11.134-12.26-18.346-14.997-1.391-1.108-2.719-2.166-2.719-2.166-2.833-4.638-4.757-5.94-7.285-5.862-2.904.09-12.083,1.842-18.767,3.68-6.089,1.674-13.429,5.799-16.047,8.023-.114.097-.229.211-.343.339-4.629-.698-10.03-1.516-10.03-1.516-7.772,3.505-16.213,10.546-22.445,14.151-1.161.672-1.894,2.278-1.604,3.588.997,4.507,2.225,7.172,4.111,10.407,0,0,1.392,3.591,2.759,7.118,0,0,.037.096.109.275-2.267,7.224-5.437,18.926-6.095,24.971,54.901-.002,109.49-.002,109.49-.002-1.951-13.197-4.667-28.056-7.98-38.13-1.163-3.537-2.801-6.858-4.808-9.878Z"/><path class="j" d="M360.834,272.454c5.182,5.715,1.74,14.544.398,21.035-.625,3.025-1.117,6.099-1.223,9.19-.097,2.826.136,5.65.354,8.465.197,2.55,4.199,2.571,4,0-.226-2.917-.465-5.842-.342-8.77.144-3.424.808-6.789,1.57-10.121,1.723-7.538,3.874-16.229-1.928-22.627-1.733-1.911-4.555.924-2.828,2.828h0Z"/><path class="j" d="M370.593,282.097c1.952-1.34,5.246-2.048,6.6.521,1.158,2.196.515,4.928-.437,7.07-2.071,4.663-6.317,6.926-11.189,7.768-1.065.184-1.663,1.492-1.397,2.46.309,1.126,1.392,1.581,2.46,1.397,5.031-.869,9.68-3.271,12.507-7.64,2.884-4.455,4.386-11.964-.708-15.495-2.984-2.069-7.002-1.495-9.856.465-.889.611-1.291,1.756-.718,2.736.515.881,1.842,1.332,2.736.718h0Z"/><path class="j" d="M340.314,269.355c-.975,1.587-1.731,5.639,1.277,6.814,4.105,1.081,5.635-3.651,4.871-6.277-.625-2.15-3.736-3.814-6.149-.536Z"/><path class="j" d="M352.414,336.419c-4.694,2.178-9.283,4.477-13.255,7.843-3.463,2.935-6.238,6.626-8.316,10.65-1.402,2.715-2.356,5.569-3.265,8.479-1.214,3.886-2.322,7.807-3.337,11.75-1.114,4.328-2.16,8.698-2.714,13.137-.134,1.074,1.015,2,2,2,1.192,0,1.866-.923,2-2,.9-7.214,3.238-15.046,5.417-22.227.466-1.536.946-3.068,1.46-4.589.182-.537.367-1.073.562-1.606.086-.233.179-.464.264-.697.19-.519-.14.286.062-.154,1.857-4.029,4.207-7.749,7.452-10.805,3.942-3.713,8.824-6.071,13.689-8.328.98-.455,1.226-1.867.718-2.736-.588-1.005-1.753-1.174-2.736-.718h0Z"/><path class="j" d="M394.878,325.597c-6.319.651-12.649,1.495-18.808,3.088-5.224,1.351-10.244,3.311-15.14,5.567-.981.452-1.225,1.869-.718,2.736.589,1.007,1.752,1.171,2.736.718,4.583-2.112,9.294-3.898,14.184-5.164,5.816-1.506,11.777-2.33,17.745-2.945,1.074-.111,2-.84,2-2,0-.996-.919-2.111-2-2h0Z"/><path class="j" d="M400.846,322.486c-1.93-3.122-4.347-6.56-8.336-6.838-1.347-.094-2.742.168-4.069.359-1.896.273-3.781.619-5.659.991-4.291.85-8.682,1.727-12.808,3.203-4.022,1.439-7.946,3.349-11.538,5.663-1.569,1.011-3.063,2.047-4.101,3.628-1.223,1.861-1.986,4.02-2.839,6.065-.416.997.449,2.2,1.397,2.46,1.152.317,2.043-.396,2.46-1.397.621-1.49,1.217-2.998,2.011-4.407.7-1.242,1.452-1.807,2.583-2.563,3.101-2.072,6.496-3.824,9.971-5.174,3.626-1.408,7.465-2.253,11.259-3.069,3.178-.684,6.424-1.39,9.648-1.702.555-.054,1.128-.113,1.685-.057.233.023.809.198,1.218.445,1.616.978,2.699,2.85,3.665,4.412,1.351,2.185,4.813.179,3.454-2.019h0Z"/><path class="j" d="M402.949,328.272c7.773,3.619,14.033,9.895,17.916,17.516,1.942,3.811,3.101,7.954,4.173,12.078,1.215,4.674,2.219,9.402,3.125,14.145,1.09,5.707,2.029,11.441,2.881,17.188.159,1.069,1.51,1.658,2.46,1.397,1.146-.315,1.556-1.388,1.397-2.46-1.52-10.25-3.251-20.511-5.807-30.56-1.122-4.412-2.369-8.822-4.346-12.937s-4.644-7.908-7.803-11.194c-3.423-3.561-7.497-6.54-11.978-8.626-.979-.456-2.156-.275-2.736.718-.506.865-.266,2.278.718,2.736h0Z"/><path class="j" d="M339.622,248.718c1.655,8.365,6.207,16.113,12.713,21.626.824.698,2.02.808,2.828,0,.716-.716.828-2.127,0-2.828-6.042-5.119-10.148-12.092-11.685-19.861-.21-1.06-1.474-1.668-2.46-1.397-1.106.304-1.607,1.397-1.397,2.46h0Z"/><path class="j" d="M353.53,259.374c3.778,7.423,7.79,15.106,14.411,20.413.842.675,2.006.823,2.828,0,.699-.699.847-2.149,0-2.828-6.376-5.11-10.149-12.458-13.785-19.604-1.168-2.295-4.62-.273-3.454,2.019h0Z"/><path class="j" d="M370.297,299.036c.21,2.416.815,4.787,1.685,7.047.862,2.242,1.916,4.563,3.64,6.285,1.668,1.666,3.784,2.921,5.87,3.988,2.169,1.108,4.44,2.065,6.766,2.791,2.463.769,3.516-3.091,1.063-3.857-1.96-.612-3.857-1.397-5.687-2.325-1.792-.908-3.619-1.924-5.029-3.275-.715-.685-.969-1.074-1.487-1.978-.494-.862-.922-1.765-1.279-2.692-.735-1.911-1.383-4.158-1.542-5.984-.094-1.076-.852-2-2-2-1.009,0-2.094.918-2,2h0Z"/><path class="j" d="M327.682,333.397c-1.911-3.574-3.45-7.297-4.758-11.13-1.251-3.665-2.469-7.389-2.962-11.246-.396-3.097-.612-6.846.891-9.704.704-1.338,1.739-2.179,3.352-1.961,1.747.236,2.834,2.489,3.484,3.886.455.98,1.867,1.226,2.736.718,1.005-.588,1.174-1.753.718-2.736-1.649-3.55-4.524-6.397-8.691-5.747-3.572.557-5.493,3.772-6.235,7.052-1.572,6.954.617,14.256,2.851,20.802,1.417,4.152,3.091,8.214,5.162,12.085,1.215,2.271,4.669.253,3.454-2.019h0Z"/><path class="j" d="M346.869,314.968c-1.044,2.539-1.885,5.156-2.89,7.711-.463,1.176-.956,2.318-1.583,3.512-.296.565-.612,1.12-.955,1.657-.176.276-.359.545-.549.811-.125.175-.213.287-.472.591-.7.821-.806,2.022,0,2.828.718.718,2.124.826,2.828,0,3.891-4.564,5.246-10.618,7.478-16.048.411-.999-.445-2.199-1.397-2.46-1.148-.315-2.048.394-2.46,1.397h0Z"/><path class="j" d="M345.638,326.432c-7.125,3.258-13.249,8.255-19.78,12.502-1.373.893-3.028,1.604-4.066,2.899-1.316,1.641-1.394,3.501-.919,5.473.856,3.553,2.282,6.852,4.11,10.007,1.29,2.226,4.748.215,3.454-2.019-1.555-2.683-2.776-5.414-3.55-8.424-.398-1.545-.548-2.306.898-3.171,1.357-.811,2.677-1.684,3.985-2.571,5.818-3.945,11.463-8.305,17.888-11.242.982-.449,1.224-1.871.718-2.736-.59-1.009-1.75-1.168-2.736-.718h0Z"/><path class="j" d="M331.077,291.237c.132.042.263.085.393.132.092.033.436.201.057.015.22.108.44.21.653.331.209.118.407.252.609.382.315.205-.144-.137.032.017.077.068.158.131.234.199.187.166.364.342.53.529.035.039.258.285.076.077-.195-.222.059.087.095.142.113.171.193.367.307.535.128.19-.111-.392-.022-.051.034.131.082.258.114.39.01.039.09.413.048.18-.047-.261.016.214.018.268.013.253-.015.506-.007.757.008.241.082-.35,0,.029-.023.106-.043.212-.07.318-.033.13-.091.263-.119.394-.044.212.147-.261-.023.069-.123.237-.279.457-.402.692-.112.214.187-.188-.05.072-.073.08-.145.162-.221.239-.097.099-.198.193-.302.285-.065.057-.377.288-.056.06-.235.167-.473.324-.721.471-.9.534-1.306,1.824-.718,2.736.584.905,1.774,1.289,2.736.718,1.315-.78,2.513-1.859,3.187-3.254.749-1.551.938-3.231.595-4.918-.579-2.853-3.285-4.84-5.91-5.671-.998-.316-2.227.371-2.46,1.397-.248,1.091.329,2.122,1.397,2.46h0Z"/><path class="j" d="M398.708,345.738c1.206,3.463,2.112,7.02,2.711,10.638.171,1.035,1.507,1.705,2.46,1.397,1.12-.362,1.58-1.351,1.397-2.46-.599-3.618-1.505-7.175-2.711-10.638-.343-.986-1.385-1.745-2.46-1.397-.975.316-1.765,1.402-1.397,2.46h0Z"/><path class="n" d="M415.696,305.655c-.557,2.105-1.38,3.643-3.272,4.943-5,3.437-9.139,2.797-12.869.653-.356-.205-1.333-.961-1.333-.961l19.234-36.308c5.199,3.333,8.071,8.631,8.099,14.654.031,6.631-1.305,10.398-5.805,11.695l-5.687,1.913,1.704,2.908-.07.501Z"/><path class="j" d="M432.972,386.667h-109.444c-2.574,0-2.578,4,0,4h109.444c2.574,0,2.578-4,0-4h0Z"/><path class="j" d="M416.446,275.711c4.437,2.907,7.053,7.617,7.109,12.927.04,3.793-.191,8.506-4.337,9.767-2.456.747-1.409,4.609,1.063,3.857s4.601-2.282,5.742-4.649c1.277-2.649,1.524-5.67,1.532-8.572.019-6.913-3.318-13.003-9.09-16.783-2.16-1.415-4.166,2.047-2.019,3.454h0Z"/><path class="j" d="M413.767,305.124c-.403,1.479-.897,2.618-2.126,3.586-1.428,1.126-3.26,1.984-5.066,2.248-2.604.38-5.155-.705-7.344-2.393-.856-.66-2.24-.131-2.736.718-.604,1.033-.141,2.074.718,2.736,3.042,2.346,6.865,3.472,10.677,2.752,2.383-.45,4.737-1.683,6.585-3.236,1.648-1.385,2.592-3.302,3.15-5.347.678-2.487-3.179-3.548-3.857-1.063h0Z"/><path class="j" d="M391.57,266.666c7.311,12.384,14.053,25.097,21.305,37.516,1.669,2.859,3.354,5.711,5.148,8.494,1.39,2.157,4.854.153,3.454-2.019-7.744-12.014-14.384-24.772-21.407-37.212-1.662-2.944-3.327-5.887-5.046-8.798-1.308-2.215-4.767-.205-3.454,2.019h0Z"/><path class="j" d="M386.004,292.317c2.698,6.339,9.356,11.886,16.468,11.817,2.572-.025,2.579-4.025,0-4-1.462.014-2.601-.212-4.095-.786-1.015-.39-2.63-1.35-3.528-2.053-2.423-1.897-4.189-4.172-5.391-6.997-.423-.994-1.888-1.214-2.736-.718-1.029.602-1.142,1.738-.718,2.736h0Z"/><path class="j" d="M411.801,284.035c.524-.16,1.057-.275,1.6-.349l-.532.071c.856-.105,1.714-.102,2.57.009l-.532-.071c.854.121,1.682.347,2.477.681l-.478-.202.107.047c.512.223.979.356,1.541.202.464-.128.967-.486,1.195-.919.245-.464.368-1.026.202-1.541-.149-.461-.454-.993-.919-1.195-1.389-.604-2.774-.974-4.293-1.07-1.337-.085-2.722.091-4.002.481-1,.304-1.736,1.413-1.397,2.46.326,1.009,1.388,1.723,2.46,1.397h0Z"/><path class="j" d="M391.68,268.851c.756,1.242,2.246,1.527,3.506.924,1.025-.491,1.504-1.63,1.537-2.711.022-.731-.145-1.522-.36-2.222-.226-.738-.541-1.47-.942-2.13-.467-.768-1.022-1.439-1.755-1.961-.973-.693-2.209-.742-3.267-.236-.86.411-1.423,1.232-1.749,2.097-.261.694-.237,1.45-.113,2.167.262,1.507,1.488,2.927,3.007,3.253.525.113,1.068.075,1.541-.202.415-.243.811-.718.919-1.195.229-1.007-.303-2.225-1.397-2.46-.128-.027-.249-.066-.37-.116l.478.202c-.136-.063-.261-.138-.382-.228l.405.313c-.135-.107-.254-.226-.362-.36l.313.405c-.133-.173-.241-.358-.328-.558l.202.478c-.083-.203-.14-.41-.173-.627l.071.532c-.024-.193-.027-.385-.006-.579l-.071.532c.026-.191.074-.373.149-.551l-.202.478c.064-.138.139-.264.232-.385l-.313.405c.087-.105.18-.198.286-.285l-.405.313c.092-.068.184-.124.288-.172l-.478.202c.083-.031.158-.053.245-.07l-.532.071c.115-.013.222-.012.338.002l-.532-.071c.113.023.217.056.324.1l-.478-.202c.135.065.258.142.378.231l-.405-.313c.215.172.401.369.571.586l-.313-.405c.366.485.668,1.008.909,1.565l-.202-.478c.246.59.417,1.203.51,1.835l-.071-.532c.035.263.054.523.023.788l.071-.532c-.02.113-.047.218-.089.325l.202-.478c-.038.079-.077.146-.128.218l.313-.405c-.044.051-.087.091-.14.133l.405-.313c-.057.037-.11.065-.172.092l.478-.202c-.064.022-.123.037-.189.048l.532-.071c-.066.006-.124.006-.19,0l.532.071c-.063-.011-.115-.026-.175-.05l.478.202c-.036-.017-.07-.038-.101-.063l.405.313c-.031-.026-.059-.055-.082-.088l.313.405-.033-.054c-.544-.894-1.817-1.31-2.736-.718-.897.579-1.299,1.78-.718,2.736h0Z"/><path class="h" d="M402.449,267.543c.016-1.696-.403-3.322-1.147-4.295-.585-.766-1.087-1.314-2.279-1.551-1.177-.234-2.256.433-3.049,1.333-.787.894-1.775,2.549-1.936,4.336-3.931.343-5.372,1.791-5.692,2.366-.517.929-.519,1.79-.152,2.515.526,1.038,2.071,2.726,5.307,2.904.102,2.049.776,4.639,2.214,5.413,1.26.679,2.548.764,3.716-.064,1.411-1,2.012-3.196,2.236-4.789,1.245.048,2.705.101,3.934-.446,1.33-.592,2.068-1.421,2.303-2.859.131-.802-.3-2.281-1.19-3.063-.633-.557-2.831-1.317-4.265-1.727,0-.024,0-.049,0-.073Z"/><path class="j" d="M404.449,267.543c-.027-3.459-1.7-7.697-5.718-7.887-3.953-.187-6.298,4.384-6.693,7.709l2-2c-3.062.3-7.322,1.287-7.995,4.883-.807,4.313,3.902,6.644,7.458,6.902l-2-2c.209,3.408,1.41,7.247,5.262,7.858,4.126.655,6.308-3.267,6.833-6.766l-1.929,1.468c1.997.074,4.061-.031,5.777-1.178,1.478-.989,2.519-2.69,2.482-4.508-.035-1.709-.898-3.531-2.322-4.504-1.336-.912-3.085-1.386-4.624-1.834l1.468,1.929v-.073c.034-2.575-3.966-2.576-3.999,0v.073c-.012.887.63,1.685,1.467,1.929.992.288,2.012.584,2.948,1.026.195.092.391.192.574.307-.35-.22-.004-.032.056.06.229.352.424.752.457,1.179-.011-.149-.095.354-.181.529-.142.29-.366.468-.679.643-1.036.578-2.282.466-3.425.423-.786-.029-1.804.636-1.929,1.468-.177,1.183-.567,3.985-2.227,3.925-1.622-.059-1.921-2.504-2.01-3.954-.07-1.14-.863-1.918-2-2-.624-.045-1.262-.157-1.844-.4-.206-.086-.428-.211-.628-.335-.003-.002-.532-.389-.289-.19-.195-.16-.364-.344-.536-.527-.328-.346.127.232-.078-.109-.248-.412-.163-.318-.087-.784.033-.206.394-.307-.103.087.094-.074.161-.191.253-.27.091-.078.481-.351.072-.075.165-.111.332-.217.506-.314.434-.241.596-.299,1.174-.469.687-.201,1.386-.33,2.098-.399,1.178-.115,1.861-.831,2-2,.131-1.104,1.126-3.573,2.454-3.74.63-.079,1.1.595,1.364,1.055.492.858.586,1.894.594,2.863.02,2.573,4.02,2.579,4,0Z"/><path class="j" d="M392.254,326.92c-.095-1.556-.063-3.127.04-4.681.023-.341.05-.682.087-1.022.007-.067.016-.133.023-.2.04-.368-.072.414-.028.212.025-.115.037-.234.062-.349.036-.168.084-.333.137-.497.033-.103.071-.204.107-.306.123-.358-.093.162.019-.05.25-.476.492-.94.791-1.388.583-.872.198-2.253-.718-2.736-1.007-.532-2.115-.213-2.736.718s-1.173,1.999-1.434,3.098c-.176.74-.235,1.521-.292,2.278-.122,1.633-.157,3.288-.057,4.923.064,1.042.874,2.05,2,2,1.029-.046,2.069-.882,2-2h0Z"/></g><g id="f"><path class="h" d="M139.859,329.755c-1.545,2.543-3.368,4.354-5.964,5.442-.972,2.343-2.149,4.936-3.427,7.539-4.674-3.727-10.935-8.565-15.222-11.539l-.888-2.243c-1.525-3.85-3.236-7.37-3.396-11.508-.037-.952.208-2.342.096-3.288-.095-.803-.296-1.59-.496-2.374-.705-2.764-1.41-5.528-2.115-8.291-.513-2.01-.936-4.411.473-5.933,1.448-1.564,4.184-1.193,5.747.256,1.563,1.449,2.332,3.6,2.949,5.64.044.146.089.297.135.451.307-.546.484-.859.484-.859.846-1.503,8.255-17.737,9.04-19.151.722-1.302,2.077-3.174,4.889-2.452,2.627.674,3.212,3.14,2.333,5.726-.626,1.842-2.71,7.332-4.545,12.238,1.578-.245,4.111.166,5.352.958,1.264.806,2.135,2.311,1.928,3.796,1.211-.114,2.357.6,3.209,1.468s1.515,1.912,2.4,2.747c.646.609,1.402,1.099,1.99,1.764,1.829,2.066,1.569,5.32.333,7.787-1.236,2.467-2.237,5.437-3.434,8.154-.599,1.359-1.21,2.584-1.872,3.674Z"/><path class="j" d="M131.551,335.636c-2.405,5.561-5.143,11.028-8.416,16.133-.583.909-.187,2.207.718,2.736.967.566,2.152.194,2.736-.718,3.273-5.104,6.011-10.572,8.416-16.133.428-.991.293-2.145-.718-2.736-.845-.494-2.305-.279-2.736.718h0Z"/><path class="j" d="M116.286,328.422c-1.469-3.683-3.477-7.597-3.315-11.666.035-.867.167-1.729.085-2.598-.108-1.144-.402-2.257-.685-3.366-.528-2.073-1.057-4.146-1.586-6.219-.377-1.478-1.143-3.394-.75-4.943.339-1.333,1.799-1.276,2.802-.69,1.455.85,2.117,2.765,2.609,4.279.611,1.882,1.124,3.803,1.539,5.738.54,2.516,4.397,1.451,3.857-1.063-.747-3.48-1.596-7.529-3.807-10.406-2.012-2.617-5.928-4.037-8.832-1.929-3.245,2.355-2.168,6.579-1.334,9.847.509,1.996,1.018,3.992,1.527,5.988.235.921.553,1.868.662,2.815.097.844-.052,1.703-.088,2.547-.192,4.464,1.846,8.69,3.458,12.729.4,1.003,1.336,1.706,2.46,1.397.953-.262,1.799-1.451,1.397-2.46h0Z"/><path class="j" d="M119.961,304.057c1.256-2.269,2.261-4.706,3.355-7.055,1.523-3.27,3.032-6.546,4.573-9.808.361-.765.704-1.547,1.112-2.289.315-.572.699-1.237,1.337-1.508.714-.303,1.822-.079,2.279.57.823,1.17-.188,3.086-.618,4.267-.643,1.762-1.303,3.518-1.962,5.275-1.591,4.242-3.243,8.47-4.704,12.759-.832,2.442,3.03,3.49,3.857,1.063,1.428-4.193,3.042-8.326,4.597-12.473.729-1.944,1.463-3.887,2.171-5.839s1.322-4.047.566-6.093c-1.048-2.836-4.394-4.283-7.249-3.385-1.849.581-3.121,2.125-3.96,3.8-1.497,2.99-2.855,6.057-4.264,9.089-1.485,3.195-2.835,6.523-4.543,9.609-1.248,2.254,2.206,4.274,3.454,2.019h0Z"/><path class="j" d="M130.396,301.351c1.9-.274,5.028.396,4.836,2.811-.085,1.064.985,2.021,2,2,1.647-.034,2.665,1.972,3.633,3.046.942,1.045,2.456,1.774,3.01,3.118.505,1.224.279,2.689-.148,3.895-.571,1.61-1.416,3.151-2.056,4.742-2.113,5.252-4.1,11.274-10.141,12.919-2.481.675-1.428,4.535,1.063,3.857,3.48-.948,6.227-2.968,8.294-5.904,2.335-3.318,3.54-7.268,5.114-10.965.813-1.909,1.791-3.628,2.052-5.719.233-1.87-.035-3.841-1.064-5.455-1.055-1.655-2.831-2.732-4.073-4.252-1.467-1.796-3.228-3.332-5.684-3.282l2,2c.428-5.362-5.601-7.287-9.899-6.668-1.07.154-1.657,1.513-1.397,2.46.316,1.149,1.387,1.551,2.46,1.397h0Z"/><path class="h" d="M91.254,243.481c-1.73-6.03-3.731-9.172-7.109-13.285-1.53-1.863-9.834-9.907-24.257-11.495-6.883-.758-14.228-.312-21.322,2.274-7.094,2.586-18.331,7.972-25.282,25.837-2.702,6.944-3.962,16.331-2.235,24.939,3.126,15.576,13.298,24.954,19.843,29.456,3.35,2.304,8.642,5.016,11.537,8.493,1.083-.795,2.145-1.067,3.342-1.03,2.904.09,12.083,1.842,18.767,3.68,5.377,1.478,11.729,4.867,14.944,7.172.497-2.167,1.203-5.208,1.203-5.208.607-3.72,1.703-6.863,1.726-7.023.164-.99,1.037-1.718,2.038-1.678,4.177.16,10.118-1.815,14.183-4.459,2.074-1.348,3.889-3.468,4.856-7.101.46-1.7.618-3.89.608-6.103-.017-3.359-.413-6.787-.75-8.722.07-1.488.387-2.926,1.165-4.273,1.172-2.039,3.385-3.926,1.431-6.549-.741-.991-1.867-1.597-3.064-1.929-6.031-1.672-8.12-9.755-9.642-15.577-.638-3.507-1.563-6.617-2.724-9.375"/><path class="n" d="M54.902,218.377c-5.381-.1-10.931.628-16.336,2.598-7.094,2.586-18.331,7.972-25.282,25.837-2.702,6.944-3.962,16.331-2.235,24.939,3.126,15.576,13.298,24.954,19.843,29.456,3.399,2.339,8.799,5.096,11.663,8.647-1.251,2.17,12.125-3.19,15.332-7.929,1.928-2.849,3.355-8.03,3.446-11.276,0,0,.055-1.931.115-4.31-1.661-1.626-2.936-3.714-3.799-6.304-.786-2.357-.722-5.505.795-7.425,1.019-1.29,2.63-1.977,4.469-2.026,1.428-.038,2.587.358,3.697.988,1.214-4.968,1.361-7.344,3.265-11.072,3.953-7.034,10.84-15.68,20.619-19.433-1.569-4.532-3.453-7.344-6.349-10.87-1.53-1.863-9.834-9.907-24.257-11.495-1.639-.18-3.304-.293-4.986-.324Z"/><path class="j" d="M59.334,290.649c-.076,2.049-.57,4.105-1.225,6.093-.578,1.755-1.42,3.69-2.506,4.828-1.381,1.447-3.107,2.536-4.834,3.521-1.782,1.017-3.627,1.916-5.527,2.616-1.013.373-1.7,1.356-1.397,2.46.268.975,1.442,1.772,2.46,1.397,2.236-.824,4.413-1.839,6.483-3.02s4.183-2.543,5.796-4.31,2.583-4.046,3.335-6.292c.784-2.34,1.323-4.823,1.414-7.295.095-2.574-3.905-2.57-4,0h0Z"/><path class="j" d="M68.117,270.144c-2.774-1.707-6.206-2.145-9.148-.545-2.732,1.485-3.89,4.618-3.812,7.595.135,5.154,3.49,10.239,7.851,12.848,2.607,1.56,5.546,2.283,8.534,2.645,1.074.13,2-1.012,2-2,0-1.189-.923-1.869-2-2-4.776-.579-8.899-2.805-11.112-7.131-1.054-2.061-1.869-4.773-.839-7.008,1.204-2.611,4.472-2.201,6.508-.949,2.199,1.353,4.21-2.106,2.019-3.454h0Z"/><path class="j" d="M91.789,259.402c1.053,1.536,2.012,5.545-.934,6.869-4.046,1.286-5.811-3.364-5.18-6.025.516-2.178,3.54-3.997,6.114-.844Z"/><path class="j" d="M82.613,314.843c.295-1.739.687-3.458,1.168-5.155.133-.468.263-1.688.598-2.056.027-.03.865-.014,1.205-.029.879-.039,1.755-.154,2.623-.293,1.586-.254,3.145-.674,4.661-1.201,2.976-1.035,6.067-2.407,8.454-4.511,2.345-2.068,3.803-5.126,4.351-8.172.686-3.816.481-7.793.038-11.626-.192-1.658-.508-2.999-.006-4.619.444-1.436,1.513-2.518,2.204-3.826,1.818-3.439.014-7.013-3.449-8.433-1.146-.47-2.267-.716-3.265-1.501-.958-.753-1.708-1.746-2.332-2.781-3.601-5.966-3.785-13.296-6.422-19.65-.414-.997-1.326-1.709-2.46-1.397-.942.259-1.813,1.456-1.397,2.46,2.422,5.836,2.979,12.202,5.508,18.01,1.073,2.464,2.534,4.833,4.677,6.502,1.089.848,2.265,1.418,3.578,1.837,1.021.326,2.546,1.042,2.334,2.35-.206,1.27-1.521,2.429-2.097,3.559-.777,1.524-1.36,3.455-1.201,5.178.333,3.62.875,7.137.655,10.797-.179,2.977-1,6.053-3.212,8.178-2.059,1.979-5.097,3.182-7.774,4.038-1.66.531-3.386.965-5.13,1.08-1.812.12-3.474-.004-4.702,1.608-.643.844-.877,1.999-1.173,3.01-.536,1.834-.971,3.693-1.29,5.577-.18,1.064.282,2.154,1.397,2.46.96.264,2.279-.326,2.46-1.397h0Z"/><path class="j" d="M93.183,242.949c-1.622-5.567-4.343-10.928-8.466-15.083-3.254-3.279-7.347-5.83-11.563-7.665-12.883-5.606-28.282-5.047-40.803,1.269-11.157,5.628-18.88,16.666-22.237,28.535-2.226,7.87-2.505,16.377-.533,24.326,1.683,6.781,4.925,13.054,9.3,18.482,3.254,4.037,7.172,7.572,11.486,10.447,2.603,1.735,5.374,3.237,7.838,5.176,2.08,1.637,3.955,3.508,4.31,6.223.204,1.563.289,3.16.28,4.736-.015,2.574,3.985,2.577,4,0,.017-2.792-.026-5.991-1.239-8.556-1.316-2.784-3.889-4.852-6.336-6.604-4.246-3.038-8.72-5.417-12.541-8.945-9.95-9.186-15.388-22.181-14.253-35.758,1.035-12.384,7.479-25.328,17.999-32.318,3.939-2.617,7.784-4.257,12.314-5.45,7.564-1.992,15.902-1.921,23.44.173,9.362,2.6,17.32,8.2,21.414,17.182.718,1.575,1.249,3.233,1.733,4.893.718,2.466,4.58,1.417,3.857-1.063h0Z"/><path class="j" d="M87.518,240.173c-6.395,3.048-11.603,8.043-15.759,13.71-1.834,2.5-3.547,5.138-4.7,8.025-1.186,2.971-1.658,6.178-2.411,9.273-.609,2.5,3.248,3.567,3.857,1.063.702-2.883,1.15-5.869,2.176-8.662.977-2.66,2.668-5.105,4.319-7.389,3.794-5.247,8.661-9.767,14.537-12.567,2.323-1.107.295-4.557-2.019-3.454h0Z"/><path class="j" d="M100.911,276.955c-2.594.952-5.224,2.982-5.712,5.871-.281,1.658-.07,3.321.708,4.821.726,1.4,1.962,2.481,3.339,3.216.922.492,2.219.262,2.736-.718.49-.928.268-2.21-.718-2.736-.254-.135-.503-.278-.741-.438-.094-.063-.187-.128-.278-.196.222.165.084.06-.047-.058-.18-.163-.348-.338-.505-.524.177.209.004-.003-.068-.113-.064-.098-.125-.198-.183-.301-.07-.124-.134-.251-.194-.38.116.251.051.118-.007-.064-.065-.202-.192-.499-.172-.709-.024.255.024.216.009-.03-.007-.115-.011-.231-.012-.346-.001-.149.01-.297.011-.445.004-.372-.056.117.01-.096.02-.063.121-.645.181-.644-.005,0-.195.4-.042.108.054-.102.105-.204.163-.304.021-.035.366-.51.354-.533-.149.192-.177.232-.083.119.032-.038.064-.075.098-.112.084-.094.17-.185.259-.274.165-.164.343-.311.516-.465s-.278.185.036-.022c.089-.059.176-.121.266-.179.228-.146.464-.281.706-.403.098-.049.199-.092.297-.142-.406.206.064-.02.136-.046.979-.36,1.749-1.373,1.397-2.46-.311-.961-1.409-1.783-2.46-1.397h0Z"/><path class="n" d="M2.003,387.438l.191-3.67c0-.677,1.189-17.621,1.807-23.474.608-5.757,1.683-11.503,3.59-16.907,3.795-10.758,11.584-19.651,21.033-23.991l9.863-4.865c2.833-4.638,4.757-5.94,7.285-5.862,2.904.09,12.083,1.842,18.767,3.68,6.089,1.674,13.429,5.799,16.047,8.023,1.407,1.196,2.814,4.888,3.597,6.753l1.831,4.363c2.773,1.749,5.147,3.701,7.218,6.018,2.246-1.155,17.491-9.005,17.491-9.005,3.024.741,23.778,17.297,25.916,19.325.895.849,1.135,2.638.723,4.19-2.788,10.497-6.608,25.531-10.308,35.487-62.261,0-124.859,0-124.859,0"/><path class="j" d="M83.773,332.465c4.368,2.584,8.126,5.912,10.873,10.208,3.26,5.1,5.147,10.952,6.876,16.71.738,2.459,4.6,1.412,3.857-1.063-1.857-6.184-3.923-12.529-7.479-17.975-3.091-4.734-7.258-8.464-12.108-11.333-2.221-1.314-4.235,2.143-2.019,3.454h0Z"/><path class="j" d="M35.827,318.41c7.471.768,14.936,1.796,22.221,3.661,6.11,1.564,12.006,3.77,17.737,6.391.982.449,2.153.28,2.736-.718.503-.86.269-2.285-.718-2.736-6.045-2.764-12.246-5.144-18.693-6.794-7.628-1.953-15.462-2.999-23.285-3.804-1.076-.111-2,.998-2,2,0,1.173.921,1.889,2,2h0Z"/><path class="j" d="M40.214,315.54c.912-1.475,1.907-3.169,3.339-4.212.866-.63,1.473-.695,2.462-.648,2.966.141,5.965.841,8.877,1.439,3.788.778,7.648,1.573,11.307,2.844,3.64,1.265,7.148,3.015,10.416,5.051,1.194.744,2.441,1.395,3.204,2.533,1.049,1.564,1.715,3.38,2.436,5.11.415.996,1.325,1.709,2.46,1.397.94-.258,1.815-1.457,1.397-2.46-.753-1.806-1.45-3.656-2.415-5.363-.873-1.545-1.994-2.589-3.431-3.597-3.425-2.403-7.262-4.286-11.14-5.831-4.1-1.634-8.478-2.564-12.788-3.461-3.372-.702-6.869-1.504-10.321-1.661-4.452-.203-7.135,3.413-9.255,6.841-1.358,2.196,2.101,4.207,3.454,2.019h0Z"/><path class="j" d="M27.614,317.668c-11.984,5.583-19.984,17.101-23.324,29.637-2.746,10.31-3.059,21.267-3.8,31.868-.193,2.754-.344,5.508-.488,8.265-.134,2.573,3.866,2.565,4,0,.344-6.606.821-13.202,1.349-19.797.942-11.77,2.42-23.74,9.296-33.708,3.786-5.489,8.932-9.991,14.985-12.81.979-.456,1.227-1.866.718-2.736-.587-1.004-1.754-1.175-2.736-.718h0Z"/><path class="j" d="M110.19,330.429c.469.126-.073-.065.018-.016.206.112.421.209.627.322.573.316,1.126.668,1.674,1.025,1.541,1.003,3.037,2.076,4.522,3.16,3.615,2.637,7.156,5.376,10.664,8.152,2.422,1.916,5.008,3.77,7.243,5.907.585.56.696,1.219.591,2.04-.185,1.442-.745,2.914-1.116,4.319-.867,3.289-1.735,6.577-2.627,9.859-1.988,7.318-4.029,14.653-6.66,21.771-.894,2.418,2.971,3.461,3.857,1.063,2.414-6.532,4.322-13.25,6.166-19.962.966-3.516,1.9-7.04,2.83-10.565.803-3.045,2.463-6.76.963-9.82-.594-1.213-1.718-2.013-2.734-2.856-1.394-1.156-2.805-2.292-4.221-3.422-3.786-3.021-7.611-5.998-11.502-8.884-1.808-1.341-3.628-2.67-5.502-3.917-1.138-.757-2.39-1.675-3.731-2.034-2.489-.667-3.551,3.191-1.063,3.857h0Z"/><path class="j" d="M40.825,331.256c-5.672,9.948-9.653,20.822-11.692,32.092-.192,1.062.29,2.156,1.397,2.46.97.266,2.267-.328,2.46-1.397,1.981-10.949,5.777-21.469,11.289-31.136,1.277-2.24-2.178-4.257-3.454-2.019h0Z"/><path class="j" d="M126.055,385.5H2.194c-2.574,0-2.578,4,0,4h123.861c2.574,0,2.578-4,0-4h0Z"/></g></g></svg>