<?xml version="1.0" encoding="UTF-8"?><svg id="b" xmlns="http://www.w3.org/2000/svg" width="194.775" height="194.945" viewBox="0 0 194.775 194.945"><defs><style>.d{fill:#211715;}.e{fill:#febe69;}</style></defs><g id="c"><path class="e" d="M192.375,96.285v.293c0,56.43-37.512,95.88-95,95.88-55.343,0-95-39.115-95-95.88C2.375,45.809,41.233,2.459,97.375,2.459c42.264,0,74.856,24.525,88.271,58.526,4.332,10.942,6.686,22.89,6.729,35.3Z"/><path class="d" d="M189.975,96.285c0,18.453-4.08,36.967-13.71,52.826-8.948,14.737-22.324,26.175-38.16,33.051-17.395,7.554-37.62,9.575-56.332,6.811-17.79-2.628-34.833-9.987-48.136-22.164-13.349-12.219-22.222-28.474-26.237-46.075-4.27-18.715-3.487-38.666,3.121-56.74,6.285-17.191,17.901-32.405,32.971-42.821C59.845,9.872,79.511,4.523,99.313,4.876c20.532.366,40.924,7.037,56.976,20.013,16.172,13.073,27.254,31.516,31.607,51.823,1.38,6.439,2.041,12.991,2.079,19.574.018,3.088,4.818,3.094,4.8,0-.137-23.812-8.721-47.194-24.693-64.93-13.989-15.535-33.159-25.909-53.699-29.599-21.194-3.808-43.566-1.251-63.017,8.123-17.427,8.399-32.001,22.319-41.32,39.26C2.379,66.712-1.318,86.842.411,106.752c1.692,19.486,8.435,38.335,20.7,53.684,11.651,14.579,27.911,24.976,45.772,30.199,19.309,5.646,40.689,5.695,60.092.445,17.677-4.782,33.921-14.59,45.681-28.715,12.172-14.621,19.035-32.709,21.283-51.494.579-4.841.836-9.711.836-14.586,0-3.089-4.8-3.094-4.8,0Z"/><path class="d" d="M94.975,2.318v190.281c0,3.089,4.8,3.094,4.8,0V2.318c0-3.089-4.8-3.094-4.8,0h0Z"/><path class="d" d="M159.473,171.553c-2.336-2.879-4.556-6.803-6.29-10.414-2.103-4.378-3.808-8.938-5.299-13.557-3.344-10.359-5.669-21.106-7.018-31.906-1.278-10.236-1.55-20.496-.622-30.773.987-10.935,3.031-21.808,6.036-32.366,2.855-10.031,6.514-20.446,12.913-28.821.788-1.031.16-2.686-.861-3.284-1.235-.722-2.494-.172-3.284.861-5.845,7.649-9.422,17.071-12.267,26.18-3.42,10.95-5.67,22.278-6.956,33.672-2.447,21.696.237,43.843,6.497,64.716,3.055,10.186,6.984,20.739,13.756,29.086.817,1.007,2.545.85,3.394,0,.996-.996.819-2.384,0-3.394h0Z"/><path class="d" d="M35.585,23.744c5.566,7.301,8.987,16.167,11.709,24.855,3.278,10.459,5.536,21.291,6.787,32.179,2.42,21.058-.021,42.348-5.946,62.659-1.563,5.357-3.374,10.67-5.669,15.762-1.029,2.284-2.149,4.53-3.401,6.7-1.045,1.812-2.446,3.964-3.552,5.359-.805,1.014-.99,2.404,0,3.394.835.835,2.584,1.021,3.394,0,5.909-7.448,9.575-16.538,12.491-25.508,3.491-10.738,5.805-21.854,7.23-33.047,1.329-10.434,1.616-20.893.66-31.372-1.031-11.291-3.082-22.531-6.183-33.438-1.634-5.747-3.592-11.4-5.983-16.878-2.005-4.593-4.348-9.093-7.394-13.088-.785-1.029-2.068-1.572-3.284-.861-1.013.593-1.652,2.247-.861,3.284h0Z"/><path class="d" d="M4.527,99.859h185.696c3.089,0,3.094-4.8,0-4.8H4.527c-3.089,0-3.094,4.8,0,4.8h0Z"/></g></svg>