<?xml version="1.0" encoding="UTF-8"?><svg id="b" xmlns="http://www.w3.org/2000/svg" width="194.752" height="194.467" viewBox="0 0 194.752 194.467"><defs><style>.d{fill:#fff;}.e{fill:#211715;}</style></defs><g id="c"><path class="d" d="M177.691,49.01l.145.251c27.885,48.299,15.273,100.602-33.931,129.01-47.369,27.348-100.641,13.466-128.692-35.12C-9.876,99.697,1.961,43.392,50.014,15.649,86.188-5.237,126.203-.351,154.488,22.121c9.115,7.225,17.035,16.288,23.203,26.889Z"/><path class="e" d="M16.081,143.344l-.556.332c-.111-.174-.21-.345-.313-.524C5.114,125.662,1.003,106.092,2.823,87.142l1.341.126,9.264-6.769c5.039,10.718,11,20.33,18.224,30.232-2.428,11.549-4.097,23.268-4.354,35.028l-11.216-2.414Z"/><path class="e" d="M177.683,49.014l.146.252c.103.179.207.358.297.533l-.566.316-3.517,10.921c-10.313-5.657-21.288-10.075-32.504-13.748-4.963-11.207-10.306-21.175-17.069-30.898l10.486-4.634.965-1.089c6.585,3.05,12.814,6.891,18.561,11.455,9.116,7.226,17.033,16.283,23.202,26.892Z"/><path class="e" d="M78.991,69.367l-14.56,32.703c-.529,1.187-.233,2.58.733,3.45l26.603,23.953c.966.87,2.382,1.018,3.507.369l31.002-17.899c1.126-.65,1.705-1.951,1.434-3.222l-7.443-35.015c-.27-1.271-1.328-2.224-2.621-2.36l-35.602-3.742c-1.293-.136-2.526.576-3.054,1.763Z"/><path class="e" d="M120.233,179.593l-5.752,9.924.086.373c-19.832,4.446-39.599,2.209-57.16-6.257l.057-.109-3.566-10.908c11.736-1.474,22.722-4.174,34.377-7.986.083.05.166.099.257.144,10.155,5.814,20.699,10.969,31.703,14.818Z"/><path class="e" d="M191.672,106.039l.532.04c-1.305,19.391-9.209,37.626-23.424,52.739l-.428-.403-11.415.021h-.055c2.185-11.54,2.992-23.325,3.021-35.105-.001-.021.002-.034,0-.055,9.129-8.187,16.96-16.351,24.113-25.783l7.656,8.547Z"/><path class="e" d="M77.246,5.496l9.3,6.719c-.542.508-1.075,1.011-1.604,1.522-7.945,7.666-14.774,15.837-21.509,25.147l-.008.005c-11.694,1.266-23.309,3.288-34.533,6.645-.037.011-.083.026-.12.037l-1.177-11.409-.499-.471c6.397-6.816,14.04-12.92,22.92-18.046,8.863-5.117,17.966-8.692,27.068-10.825l.163.676Z"/><path class="e" d="M76.038,7.57c3.099,2.241,6.197,4.481,9.296,6.722l-.486-3.769c-8.75,8.232-16.449,17.441-23.493,27.158l2.072-1.189c-11.927,1.295-23.785,3.327-35.292,6.768l3.038,2.314c-.391-3.804-.782-7.608-1.173-11.411-.133-1.289-1.008-2.4-2.4-2.4-1.195,0-2.533,1.103-2.4,2.4.391,3.804.782,7.608,1.173,11.411.154,1.494,1.415,2.799,3.038,2.314,9.173-2.743,18.589-4.633,28.077-5.888,1.107-.146,2.215-.284,3.324-.414,1.245-.147,3.054-.026,4.07-.81.909-.701,1.573-1.989,2.258-2.915.68-.919,1.367-1.833,2.06-2.741,2.72-3.563,5.568-7.031,8.54-10.387,3.334-3.764,6.839-7.372,10.502-10.817,1.218-1.146.714-2.902-.486-3.769-3.099-2.241-6.197-4.481-9.296-6.722-1.051-.76-2.674-.181-3.284.861-.708,1.211-.192,2.522.861,3.284h0Z"/><path class="e" d="M5.377,89.341c3.088-2.255,6.177-4.509,9.265-6.764l-3.284-.861c5.037,10.679,11.278,20.692,18.223,30.228l-.242-1.849c-2.453,11.737-4.155,23.661-4.439,35.661l3.038-2.314c-3.738-.803-7.477-1.607-11.215-2.41-3.012-.647-4.299,3.979-1.276,4.629,3.738.803,7.477,1.607,11.215,2.41,1.54.331,3-.69,3.038-2.314.226-9.552,1.354-19.046,3.092-28.437.221-1.192.45-2.383.688-3.572.243-1.216.846-2.748.366-3.939-.391-.972-1.294-1.904-1.901-2.758-.715-1.005-1.422-2.015-2.121-3.032-2.518-3.662-4.924-7.402-7.182-11.23-2.587-4.387-4.968-8.89-7.14-13.496-.515-1.092-2.302-1.578-3.284-.861-3.088,2.255-6.177,4.509-9.265,6.764-1.045.763-1.563,2.084-.861,3.284.603,1.032,2.231,1.629,3.284.861h0Z"/><path class="e" d="M59.778,182.883c-1.19-3.634-2.38-7.268-3.569-10.902l-2.314,3.038c11.937-1.52,23.585-4.348,35.018-8.076l-1.849-.242c10.402,5.959,21.215,11.229,32.537,15.205l-1.434-3.526-5.758,9.922c-1.554,2.677,2.593,5.096,4.145,2.423l5.758-9.922c.821-1.415.014-3.017-1.434-3.526-8.584-3.014-16.854-6.816-24.872-11.105-2.054-1.099-4.057-2.294-6.114-3.385-1.373-.728-2.242-.473-3.649-.022-1.228.394-2.459.779-3.693,1.153-4.434,1.344-8.91,2.553-13.429,3.58-5.028,1.143-10.109,2.068-15.225,2.719-1.449.184-2.852,1.396-2.314,3.038,1.19,3.634,2.38,7.268,3.569,10.902.957,2.923,5.594,1.671,4.629-1.276h0Z"/><path class="e" d="M81.787,65.88c-5.428-9.401-10.855-18.802-16.283-28.202-1.544-2.674-5.694-.26-4.145,2.423,5.428,9.401,10.855,18.802,16.283,28.202,1.544,2.674,5.694.26,4.145-2.423h0Z"/><path class="e" d="M133.752,9.681c-3.497,1.547-6.993,3.095-10.49,4.642-1.126.498-1.539,2.307-.861,3.284,5.155,7.431,9.655,15.281,13.602,23.414,1.031,2.124,2.026,4.266,2.992,6.421.238.53.427,1.125.848,1.546.518.518,1.271.686,1.944.909,1.179.391,2.356.79,3.529,1.199,4.346,1.512,8.656,3.138,12.891,4.939,4.987,2.12,9.873,4.472,14.628,7.071,1.402.766,3.042.064,3.526-1.434l3.52-10.918c.95-2.947-3.683-4.209-4.629-1.276-1.173,3.639-2.347,7.279-3.52,10.918l3.526-1.434c-10.527-5.752-21.696-10.242-33.081-13.983l1.434,1.103c-4.787-10.782-10.337-21.193-17.067-30.896l-.861,3.284c3.497-1.547,6.993-3.095,10.49-4.642,1.185-.525,1.463-2.255.861-3.284-.715-1.222-2.094-1.388-3.284-.861h0Z"/><path class="e" d="M193.368,104.34l-7.657-8.542c-1.138-1.27-2.896-.663-3.769.486-5.301,6.971-11.225,13.454-17.527,19.53-1.643,1.584-3.312,3.141-5.001,4.676-1.008.915-1.841,1.56-1.909,3.028-.06,1.289-.018,2.59-.042,3.88-.088,4.765-.313,9.528-.719,14.276-.462,5.41-1.173,10.789-2.176,16.126-.284,1.508.652,3.042,2.314,3.038,3.824-.009,7.648-.017,11.471-.026,3.088-.007,3.094-4.807,0-4.8-3.824.009-7.648.017-11.471.026l2.314,3.038c2.219-11.803,3.068-23.803,3.109-35.801l-.703,1.697c8.937-8.029,17.208-16.696,24.485-26.265l-3.769.486c2.552,2.847,5.105,5.695,7.657,8.542,2.066,2.305,5.452-1.099,3.394-3.394h0Z"/><path class="e" d="M69.269,100.768c-12.68,2.695-25.359,5.39-38.039,8.085-3.02.642-1.742,5.27,1.276,4.629,12.68-2.695,25.359-5.39,38.039-8.085,3.02-.642,1.742-5.27-1.276-4.629h0Z"/><path class="e" d="M90.95,120.024c-1.559,14.837-3.119,29.674-4.678,44.51-.136,1.291,1.2,2.4,2.4,2.4,1.41,0,2.264-1.105,2.4-2.4,1.559-14.837,3.119-29.674,4.678-44.51.136-1.291-1.2-2.4-2.4-2.4-1.41,0-2.264,1.105-2.4,2.4h0Z"/><path class="e" d="M140.44,45.631c-8.789,9.752-17.566,19.515-26.355,29.267-2.063,2.289,1.321,5.695,3.394,3.394,8.789-9.752,17.566-19.515,26.355-29.267,2.063-2.289-1.321-5.695-3.394-3.394h0Z"/><path class="e" d="M160.287,121.254c-13.446-5.987-26.892-11.973-40.338-17.96-1.183-.527-2.579-.344-3.284.861-.598,1.023-.329,2.754.861,3.284,13.446,5.987,26.892,11.973,40.338,17.96,1.183.527,2.579.344,3.284-.861.598-1.023.329-2.754-.861-3.284h0Z"/><path class="e" d="M175.618,50.222c9.349,16.192,15.042,34.57,14.318,53.388-.674,17.496-7.148,34.455-18.123,48.084-12.124,15.056-29.081,26.582-47.322,32.878-16.832,5.81-35.111,6.899-52.326,2.085-17.511-4.896-32.766-15.583-44.345-29.489-11.675-14.022-19.779-31.106-22.231-49.246-2.259-16.719.27-34.079,7.458-49.363,7.74-16.456,20.454-30.058,35.937-39.507C67.739,7.605,90.14,2.28,111.97,5.832c21.086,3.431,40.269,14.559,54.08,30.81,3.594,4.229,6.767,8.79,9.568,13.58,1.559,2.665,5.709.252,4.145-2.423-11.557-19.761-29.767-35.237-51.443-42.774-21.181-7.365-44.638-6.51-65.43,1.749C43.718,14.389,26.717,27.491,15.299,44.756,5.405,59.719.084,77.528,0,95.456c-.086,18.535,5.439,36.694,15.224,52.38,10.322,16.547,24.921,30.618,42.791,38.725,17.023,7.722,35.988,9.755,54.321,6.238,19.871-3.812,38.783-13.946,53.544-27.707,13.676-12.749,23.633-29.412,27.256-47.837,3.744-19.042.774-38.616-6.794-56.357-1.92-4.5-4.133-8.864-6.579-13.101-1.544-2.674-5.694-.26-4.145,2.423Z"/><path class="e" d="M16.193,80.524c1.719-5.943,4.052-11.714,6.6-17.345,2.466-5.451,5.13-10.864,8.323-15.931,1.652-2.621-2.5-5.033-4.145-2.423-3.263,5.179-5.978,10.718-8.487,16.294-2.65,5.891-5.124,11.916-6.92,18.129-.86,2.973,3.771,4.243,4.629,1.276h0Z"/><path class="e" d="M25.097,146.683c3.608,4.965,7.834,9.506,12.112,13.893,4.781,4.903,9.776,9.668,15.273,13.768,1.04.775,2.681.169,3.284-.861.716-1.224.181-2.506-.861-3.284-5.125-3.822-9.823-8.424-14.302-13.017-2.303-2.361-4.553-4.775-6.728-7.255-1.659-1.892-3.355-3.906-4.634-5.667-.761-1.047-2.086-1.562-3.284-.861-1.034.605-1.627,2.229-.861,3.284h0Z"/><path class="e" d="M121.557,181.683c13.039-5.486,25.033-12.941,36.593-21.038,1.06-.743,1.553-2.1.861-3.284-.614-1.049-2.217-1.608-3.284-.861-11.184,7.834-22.824,15.243-35.446,20.554-1.194.502-2.052,1.587-1.676,2.952.309,1.125,1.75,2.182,2.952,1.676h0Z"/><path class="e" d="M124.351,14.159c-6.285-1.552-12.749-2.43-19.183-3.08-6.083-.615-12.236-1.034-18.352-.797-3.079.119-3.094,4.92,0,4.8,5.985-.232,12.006.167,17.961.758,6.144.609,12.299,1.467,18.299,2.948,2.999.741,4.278-3.887,1.276-4.629h0Z"/><path class="e" d="M171.794,61.987c.384.862.709,1.673,1.156,2.852.5,1.32.972,2.652,1.426,3.989,1.06,3.123,2.025,6.279,2.919,9.454,1.731,6.15,3.386,12.64,4.119,18.865.152,1.287.995,2.4,2.4,2.4,1.18,0,2.553-1.104,2.4-2.4-.803-6.821-2.432-13.538-4.29-20.141-1.662-5.903-3.487-11.83-5.985-17.442-.527-1.184-2.253-1.464-3.284-.861-1.22.714-1.39,2.095-.861,3.284h0Z"/><path class="e" d="M76.919,68.155c-2.596,5.83-5.192,11.661-7.788,17.491l-5.058,11.361c-1.07,2.403-2.937,5.361-2.004,8.028.791,2.262,3.402,3.985,5.112,5.524l9.402,8.466,9.571,8.618,2.995,2.697c.743.669,1.455,1.367,2.377,1.79,3.138,1.442,5.937-.782,8.537-2.283l10.734-6.197,11.308-6.529c1.788-1.032,3.638-1.999,5.381-3.107,2.219-1.411,2.974-3.718,2.477-6.223-.187-.943-.4-1.881-.6-2.821l-2.465-11.597c-1.428-6.721-2.614-13.549-4.296-20.212-.622-2.463-2.561-3.936-5.024-4.224-.75-.088-1.503-.158-2.255-.237l-11.168-1.174c-7.253-.762-14.502-1.595-21.762-2.287-2.26-.215-4.417.871-5.474,2.916-1.416,2.74,2.724,5.171,4.145,2.423.41-.793,1.096-.563,1.849-.484l3.493.367,11.828,1.243,12.643,1.329c2.217.233,4.488.346,6.689.703.223.036-.194-.011-.21-.02.457.272.419.088.599.629.048.144.064.306.097.455.216.983.419,1.969.628,2.954l2.376,11.178,2.69,12.657,1.021,4.803c.184.867.494,1.791.569,2.676.092,1.088-1.831,1.703-2.647,2.174l-9.477,5.472-18.596,10.737c-.397.229-.732.516-1.192.286-.553-.276-1.096-.987-1.55-1.396l-7.772-6.998-16.527-14.881c-.531-.478-.952-.719-.952-1.427,0,.33-.101.21.047-.126.154-.35.311-.698.466-1.047l4.011-9.01c3.103-6.969,6.206-13.938,9.308-20.907l.609-1.368c.527-1.183.344-2.579-.861-3.284-1.023-.598-2.754-.329-3.284.861Z"/></g></svg>