<?xml version="1.0" encoding="UTF-8"?><svg id="b" xmlns="http://www.w3.org/2000/svg" width="451.817" height="314.036" viewBox="0 0 451.817 314.036"><defs><style>.d{fill:#bdbdbd;}.d,.e,.f,.g,.h,.i,.j{stroke-width:0px;}.e{fill:none;}.f{fill:#fff;}.g{fill:#3d8dcc;}.h{fill:#211715;}.i{fill:#d8d8d8;}.j{fill:#645d5c;}</style></defs><g id="c"><path class="f" d="M233.739,143.596c-3.033-3.269-5.361-7.195-6.734-11.438-1.006,3.021-1.619,6.481-1.733,10.448-.533,5.095-1.253,12.164-6.112,14.345-.965.433-1.834,1.087-2.331,2.017-1.307,2.458.797,3.762,2.045,5.327.827,1.034,1.279,2.202,1.529,3.446-.035,1.671.071,4.606.489,7.435.276,1.863.69,3.686,1.296,5.057,1.281,2.933,3.08,4.483,4.998,5.351,3.76,1.703,9.013,2.601,12.507,1.93.838-.162,1.666.338,1.931,1.15.041.132,1.366,2.636,2.355,5.688,0,0,.936,2.749,1.873,5.502,2.421-1.931,8.39-5.23,13.374-6.601,4.525-1.244,10.393-2.442,13.849-2.919-.172-.996-.256-1.853-.24-2.458.015-.55.062-1.2.131-1.899-.144-.029-.213-.043-.213-.043-3.451-.69-9.073-2.652-11.183-4.933-1.988-2.15-3.854-6.325-4.348-9.045,0,0,0-.673.005-1.522,2.716-1.902,4.455-4.656,5.098-8.395.358-2.084-.1-4.725-1.622-6.146-1.023-.954-2.467-1.326-4.02-1.13-.882.111-1.613.398-2.275.81-3.447-1.877-6.259-4.522-8.733-7.512-2.647-.002-6.749-.002-6.749-.002-1.891-1.285-3.63-2.788-5.185-4.463Z"/><path class="h" d="M227.583,149.577c-.689,1.428-.981,4.924,1.668,5.66,3.57.562,4.457-3.577,3.585-5.735-.714-1.767-3.492-2.908-5.253.075Z"/><path class="h" d="M245.907,193.821c-.499-1.503-1.086-2.972-1.734-4.417-.186-.414-.372-.828-.576-1.234-.046-.092-.09-.212-.147-.302-.106-.225-.072-.137.102.264-.107-.256-.216-.512-.326-.767-1.52-2.668-4.524-1.541-6.99-1.647-2.712-.117-5.563-.738-8.041-1.861-2.113-.958-3.557-2.716-4.366-4.877-1.123-3.002-1.341-6.408-1.419-9.584-.033-1.326-.056-2.535-.546-3.796-.55-1.412-1.371-2.533-2.393-3.639-.529-.573-1.294-1.16-.915-1.984.47-1.023,1.803-1.301,2.663-1.886,1.972-1.342,3.242-3.297,4.114-5.482,2.254-5.649,1.526-11.887,2.956-17.71.614-2.5-3.242-3.566-3.857-1.063-1.309,5.331-.836,10.922-2.426,16.193-.576,1.911-1.501,3.907-3.313,4.922-1.144.641-2.212,1.161-3.051,2.225-.947,1.202-1.438,2.742-1.112,4.262.553,2.576,3.486,3.776,3.854,6.422.162,1.169.043,2.419.121,3.601.124,1.883.334,3.776.693,5.63.569,2.94,1.7,5.84,3.836,8.006,1.81,1.836,4.235,2.82,6.67,3.529,2.982.868,6.254,1.369,9.355.99.201-.024.711-.161.947-.133-.135-.016-.295-.081-.295-.251,0,.289.389.864.526,1.15.699,1.464,1.302,2.96,1.813,4.5.807,2.431,4.672,1.389,3.857-1.063h0Z"/><path class="h" d="M226.064,168.094c-.906.286-1.827.515-2.768.647l.532-.071c-.865.113-1.735.14-2.602.035l.532.071c-.211-.028-.421-.064-.63-.106-.53-.108-1.063-.078-1.541.202-.415.243-.811.718-.919,1.195-.227.998.301,2.236,1.397,2.46,2.371.485,4.776.147,7.063-.576.996-.315,1.738-1.406,1.397-2.46-.323-1-1.392-1.735-2.46-1.397h0Z"/><path class="j" d="M247.828,111.627c-11.019,3.397-16.557,10.699-17.565,12.394-1.573,2.647-2.668,4.835-3.422,7.628,2.017,6.625,6.355,12.519,12.083,16.411,0,0,3.413,0,6.749.002,2.474,2.99,5.286,5.634,8.733,7.512.662-.411,1.393-.699,2.275-.81,1.554-.195,2.997.176,4.02,1.13,1.523,1.421,1.981,4.062,1.622,6.146-.669,3.891-2.525,6.716-5.435,8.623.19.744.332,1.294.332,1.294.494,2.72,2.36,6.896,4.348,9.045,2.109,2.28,7.732,4.242,11.183,4.933l2.452.315c1.786-3.578,6.291-6.787,8.987-9.32,4.929-4.629,12.284-13.826,12.913-27.333.348-7.464-1.918-15.202-5.083-20.697-8.143-14.139-18.289-17.227-24.591-18.493-6.302-1.265-12.539-.697-18.233.825-.466.124-.922.256-1.37.394Z"/><path class="f" d="M354.723,132.251c.7-5.445,2.016-8.427,4.396-12.43,1.078-1.813,7.199-9.868,19.465-13.147,5.854-1.564,12.266-2.149,18.745-.848,6.478,1.301,16.909,4.476,25.28,19.011,3.254,5.65,5.583,13.604,5.226,21.278-.647,13.886-8.209,23.341-13.276,28.1-3.288,3.088-9.189,7.154-9.96,11.661-.069.404-.074,1.168-.037,2.049-4.15-.125-7.491.571-12.008,1.724-7.889,2.014-12.169,4.447-17.47,7.839-1.024-2.942-1.866-5.362-1.866-5.362-1.016-3.138-2.379-5.712-2.421-5.848-.273-.835-1.123-1.349-1.985-1.182-3.592.69-8.992-.234-12.858-1.984-1.972-.893-3.822-2.486-5.139-5.501-.622-1.41-1.048-3.284-1.332-5.199-.429-2.908-.539-5.925-.502-7.644-.257-1.278-.721-2.48-1.572-3.542-1.283-1.609-3.447-2.949-2.103-5.476.51-.955,1.404-1.628,2.396-2.073,4.996-2.242,5.736-9.51,6.284-14.748.089-3.118.478-5.93,1.119-8.47l-.383,1.793Z"/><path class="j" d="M380.969,106.1c-.804.172-1.599.365-2.385.574-.612.163-1.208.339-1.79.525-11.075,3.541-16.652,10.899-17.676,12.622-2.003,3.37-3.252,6.017-4.015,10.018,10.129,1.041,18.057,8.387,22.686,14.475,2.13,3.047,2.476,5.076,4.264,9.489,1.241-1.213,2.428-2.151,4.224-2.377,1.597-.201,3.081.181,4.133,1.162,1.566,1.461,2.036,4.176,1.668,6.318-.591,3.438-2.084,6.067-4.39,7.982.062.299.099.469.099.469.987,4.526,5.96,12.059,10.51,15.582,0,0,3.129,2.423,6.258,4.845-.005-.183-.009-.366-.009-.366-.016-.663-.002-1.219.053-1.543.771-4.507,6.672-8.573,9.96-11.661,5.067-4.759,12.628-14.214,13.276-28.1.358-7.674-1.972-15.628-5.226-21.278-8.371-14.535-18.802-17.711-25.28-19.011-5.609-1.126-11.169-.839-16.36.274Z"/><path class="h" d="M359.355,132.746c5.205,1.652,9.706,4.923,13.464,8.827,1.618,1.681,3.209,3.457,4.345,5.507,1.193,2.153,1.889,4.552,2.791,6.833.397,1.004,1.338,1.705,2.46,1.397.956-.263,1.796-1.45,1.397-2.46-1.01-2.554-1.805-5.238-3.122-7.658-1.298-2.385-3.168-4.498-5.043-6.447-4.238-4.403-9.372-7.998-15.229-9.856-2.459-.78-3.512,3.08-1.063,3.857h0Z"/><path class="h" d="M384.233,154.508c1.468-1.244,4.041-1.783,5.234.059,1.172,1.81.756,4.134.14,6.032-1.287,3.964-4.595,6.288-8.671,7.427-2.476.692-1.424,4.552,1.063,3.857,4.396-1.228,8.488-3.76,10.55-7.973,1.034-2.111,1.771-4.587,1.631-6.957-.157-2.648-1.248-5.506-3.745-6.776-3.101-1.578-6.497-.646-9.032,1.502-.825.699-.719,2.109,0,2.828.817.817,2.002.7,2.828,0h0Z"/><path class="h" d="M356.363,146.094c-.708,1.468-1.008,5.062,1.715,5.819,3.67.578,4.582-3.677,3.685-5.896-.734-1.816-3.59-2.99-5.4.077Z"/><path class="h" d="M375.147,191.594c-.493-1.488-1.072-2.943-1.709-4.374-.191-.43-.39-.857-.593-1.281-.073-.152-.137-.325-.226-.468-.104-.221-.068-.129.108.276-.108-.259-.218-.518-.33-.775-1.583-2.779-4.834-1.534-7.402-1.679-2.71-.153-5.552-.784-8.029-1.908-2.28-1.034-3.827-2.994-4.619-5.351-.996-2.963-1.253-6.189-1.348-9.294-.043-1.409-.013-2.648-.505-3.997-.53-1.451-1.361-2.626-2.398-3.76-.494-.54-1.343-1.174-1.159-1.979.28-1.228,1.948-1.59,2.839-2.192,2.079-1.406,3.394-3.483,4.291-5.787,2.244-5.763,1.513-12.108,2.971-18.035.615-2.499-3.242-3.566-3.857-1.063-1.348,5.482-.858,11.233-2.496,16.653-.598,1.98-1.559,4.045-3.44,5.094-1.257.701-2.391,1.268-3.267,2.47-.912,1.252-1.361,2.897-.906,4.416.739,2.467,3.532,3.723,3.901,6.358.175,1.248.042,2.602.129,3.867.127,1.831.336,3.668.676,5.472.558,2.955,1.653,5.821,3.714,8.065,1.891,2.06,4.528,3.133,7.163,3.89,3.041.874,6.368,1.374,9.527.985.303-.037.645-.119.954-.134-.256.012-.319-.493-.15.02.123.373.339.729.506,1.082.693,1.461,1.29,2.956,1.799,4.491.807,2.432,4.671,1.39,3.857-1.063h0Z"/><path class="h" d="M356.723,132.251c.6-4.495,2.188-8.926,4.921-12.581-.313.419.197-.244.279-.343.239-.29.485-.574.736-.854.608-.676,1.247-1.324,1.912-1.945,1.606-1.5,3.36-2.814,5.235-3.958,9.578-5.846,21.933-7.043,32.496-3.341,9.808,3.438,17.511,12.285,21.067,21.934,4.3,11.668,2.748,24.339-4.215,34.624-2.899,4.281-6.635,7.469-10.438,10.903-2.316,2.091-4.653,4.466-5.725,7.463-.902,2.522-.393,5.589.014,8.163.169,1.068,1.502,1.66,2.46,1.397,1.138-.313,1.566-1.389,1.397-2.46-.192-1.215-.279-2.458-.314-3.687-.036-1.267-.049-1.781.631-3.039,1.346-2.491,3.643-4.403,5.752-6.229,3.571-3.091,6.811-6.323,9.499-10.232,7.476-10.872,9.405-24.689,5.08-37.172-3.78-10.91-11.936-20.674-22.777-25.008-10.969-4.386-24.038-3.463-34.511,1.87-4.335,2.208-8.401,5.311-11.442,9.132-3.516,4.418-5.319,9.827-6.058,15.364-.143,1.073,1.022,2,2,2,1.2,0,1.856-.924,2-2h0Z"/><path class="h" d="M354.816,165.185c-.931.294-1.878.53-2.846.665l.532-.071c-.889.117-1.783.144-2.675.036l.532.071c-.217-.029-.433-.066-.647-.109-.53-.108-1.063-.078-1.541.202-.415.243-.811.718-.919,1.195-.227.998.301,2.236,1.397,2.46,2.427.497,4.89.148,7.231-.592.996-.315,1.738-1.406,1.397-2.46-.323-1-1.392-1.735-2.46-1.397h0Z"/><path class="h" d="M385.859,167.89c.701,3.094,2.37,6.032,4.12,8.645,1.924,2.873,4.168,5.676,6.904,7.82.849.665,2,.829,2.828,0,.692-.692.855-2.159,0-2.828-2.507-1.964-4.548-4.427-6.278-7.01-.896-1.338-1.72-2.727-2.429-4.174-.38-.775-.463-.947-.731-1.669-.224-.604-.414-1.218-.557-1.847-.239-1.054-1.453-1.674-2.46-1.397-1.083.298-1.636,1.403-1.397,2.46h0Z"/><path class="h" d="M177.117,247.238c10.703-1.579,21.419-3.078,32.134-4.573,14.439-2.015,28.882-4.003,43.326-5.983,15.448-2.119,30.898-4.227,46.348-6.334,13.897-1.896,27.794-3.789,41.69-5.693,9.622-1.318,19.244-2.632,28.86-3.991.752-.106,1.504-.213,2.255-.32,1.07-.153,1.657-1.514,1.397-2.46-.316-1.15-1.387-1.55-2.46-1.397-8.91,1.272-17.828,2.489-26.745,3.712-13.517,1.854-27.036,3.697-40.554,5.541-15.397,2.1-30.793,4.2-46.189,6.309-14.716,2.016-29.431,4.038-44.143,6.084-11.313,1.574-22.627,3.153-33.929,4.801-1.018.148-2.035.298-3.053.448-1.07.158-1.658,1.51-1.397,2.46.315,1.146,1.387,1.555,2.46,1.397h0Z"/><path class="d" d="M438.396,287.142c2.014-12.895,1.595-50.233.43-58.176-.713-4.883-1.588-9.787-3.417-14.38-4.16-10.456-11.43-15.434-22.337-21.064-2.636-4.497-6.412-8.185-8.83-8.11-2.684.083-11.166,1.702-17.343,3.4-5.627,1.547-12.41,5.359-14.829,7.414-1.3,1.105-2.601,4.517-3.324,6.24l-.564,1.343c-.922.414-1.845.849-2.775,1.303-7.298,3.564-11.897,7.808-15.314,15.33-3.99,8.785-7.454,24.539-10.285,36.955-1.504,6.593-2.598,10.76-5.078,18.107,0,0,6.206,12.606,39.511,17.146s64.153-5.508,64.153-5.508Z"/><path class="h" d="M364.873,290.255c1.296-2.35,2.498-4.744,3.488-7.241,1.134-2.858,1.733-5.847,2.409-8.836,1.377-6.088,2.701-12.231,3.043-18.48.141-2.572-3.859-2.564-4,0-.323,5.894-1.601,11.675-2.9,17.416-.627,2.769-1.168,5.558-2.172,8.222-.902,2.392-2.089,4.665-3.322,6.9-1.244,2.256,2.209,4.276,3.454,2.019h0Z"/><path class="h" d="M406.626,192.553c-7.743.796-15.494,1.837-23.051,3.746-6.632,1.676-13.029,4.097-19.177,7.087-2.315,1.126-.289,4.576,2.019,3.454,12.681-6.167,26.263-8.853,40.209-10.287,1.074-.11,2-.84,2-2,0-.996-.919-2.111-2-2h0Z"/><path class="h" d="M414.524,192.054c-1.996-3.213-4.853-7.174-8.645-8.383-1.246-.397-2.504-.217-3.771-.051-1.806.237-3.6.544-5.389.886-4.078.78-8.244,1.603-12.18,2.943-3.885,1.323-7.675,3.159-11.133,5.37-1.451.928-2.878,1.889-3.855,3.333-1.192,1.763-1.919,3.83-2.733,5.782-.416.998.449,2.2,1.397,2.46,1.152.316,2.043-.396,2.46-1.397.583-1.399,1.142-2.818,1.9-4.136.648-1.128,1.412-1.646,2.462-2.338,2.941-1.936,6.15-3.58,9.447-4.817,3.427-1.285,7.061-2.056,10.636-2.809,2.851-.6,5.778-1.28,8.694-1.464,1.075-.068,2.064.583,3.052,1.463,1.674,1.491,3.026,3.277,4.205,5.175,1.356,2.182,4.817.176,3.454-2.019h0Z"/><path class="h" d="M358.231,223.675c2.004.414,3.926,1.122,5.714,2.116,1.698.945,2.861,2.021,4.183,3.528,1.066,1.215,2.009,2.594,2.739,4.139.261.553.569,1.385.806,2.19.268.909.47,1.835.641,2.766.195,1.063,1.484,1.665,2.46,1.397,1.118-.307,1.592-1.394,1.397-2.46-.753-4.11-2.456-7.715-5.215-10.86-3.044-3.471-7.136-5.739-11.662-6.673-1.057-.218-2.161.308-2.46,1.397-.272.99.334,2.241,1.397,2.46h0Z"/><path class="h" d="M415.997,197.35c6.555,3.661,12.559,8.063,16.126,14.845,2.159,4.106,3.309,8.642,4.118,13.186.217,1.217.409,2.437.59,3.66.056.377.106.77.05.318.023.188.046.376.068.564.094.839.163,1.681.224,2.523.875,12.036.794,24.21.474,36.265-.091,3.444-.223,6.888-.446,10.326-.091,1.414-.198,2.826-.334,4.236-.061.637-.128,1.273-.204,1.909-.011.095-.116.92-.064.533-.04.299-.085.597-.131.895-.164,1.066.27,2.151,1.397,2.46.947.26,2.295-.323,2.46-1.397.841-5.459,1.065-11.016,1.248-16.529.23-6.916.274-13.839.2-20.757-.136-12.719.05-26.377-5.23-38.22-3.731-8.367-10.706-13.904-18.527-18.272-2.25-1.257-4.269,2.197-2.019,3.454h0Z"/><path class="f" d="M389.39,308.641c.52-10.971,1.717-21.903,2.439-32.231.295-4.215,2.815-7.932,6.874-9.103,12.054-3.478,29.61-8.601,41.737-12.126,4.731-1.375,9.801,2.212,9.422,7.124-1.173,15.214-1.331,21.07-2.096,32.224"/><path class="h" d="M391.39,308.641c.509-10.534,1.636-21.021,2.39-31.537.259-3.608,1.97-6.839,5.62-7.917,3.952-1.167,7.917-2.29,11.874-3.439,8.577-2.491,17.152-4.99,25.728-7.485,3.248-.945,6.834-2.525,9.589.363,1.284,1.346,1.329,2.898,1.195,4.657-.178,2.328-.348,4.657-.509,6.986-.559,8.083-.959,16.176-1.512,24.259-.176,2.569,3.825,2.558,4,0,.522-7.632.903-15.273,1.419-22.905.167-2.463.344-4.925.529-7.387.175-2.32.256-4.415-.882-6.528-1.98-3.676-6.424-5.453-10.428-4.581-2.054.447-4.08,1.166-6.099,1.754-2.226.648-4.453,1.296-6.679,1.944-4.75,1.383-9.499,2.765-14.25,4.146-4.394,1.277-8.789,2.553-13.186,3.823-2.041.59-4.002,1.144-5.712,2.463-1.676,1.293-2.906,3.002-3.705,4.955-1,2.444-1.002,5.091-1.204,7.688-.24,3.086-.506,6.169-.77,9.253-.555,6.49-1.096,12.981-1.41,19.488-.124,2.573,3.876,2.567,4,0h0Z"/><path class="h" d="M364.399,203.386c-4.304,2.121-8.367,4.847-11.43,8.588-3.129,3.822-5.145,8.288-6.773,12.918-3.674,10.452-5.897,21.401-8.363,32.182-1.385,6.058-3.047,12.007-5.03,17.898-.823,2.445,3.039,3.494,3.857,1.063,3.463-10.288,5.615-20.853,8.149-31.391,1.272-5.289,2.613-10.572,4.265-15.758,1.395-4.381,2.991-8.754,5.604-12.574,2.931-4.284,7.139-7.206,11.74-9.473,2.309-1.138.284-4.589-2.019-3.454h0Z"/><path class="d" d="M306.318,290.687c1.72-12.886,1.213-50.221.159-58.168-.645-4.885-1.432-9.791-3.055-14.391-3.669-10.4-11.723-18.753-21.253-21.708-2.85-5.017-4.597-6.371-6.97-6.298-2.472.077-10.285,1.568-15.974,3.132-5.183,1.425-11.43,4.936-13.658,6.829-1.198,1.018-2.395,4.16-3.062,5.748l-.913,2.176c-.779.367-1.57.747-2.378,1.141-7.298,3.564-11.897,7.808-15.314,15.33-3.99,8.785-7.454,24.539-10.285,36.955-1.504,6.593-2.598,10.76-5.078,18.107,0,0,10.114,14.309,42.175,15.444,32.061,1.135,55.606-4.297,55.606-4.297Z"/><path class="h" d="M234.571,293.182c1.981-2.465,3.58-5.079,4.651-8.065.998-2.782,1.521-5.732,2.113-8.62,1.173-5.728,2.289-11.509,2.879-17.331.109-1.076-.997-2-2-2-1.172,0-1.891.921-2,2-.54,5.33-1.588,10.624-2.655,15.869-.541,2.66-1.029,5.366-1.84,7.96-.844,2.698-2.206,5.156-3.976,7.358-.676.841-.822,2.006,0,2.828.7.7,2.148.846,2.828,0h0Z"/><path class="h" d="M277.789,196.603c-8.013.825-16.044,1.955-23.761,4.337-3.327,1.027-6.573,2.286-9.766,3.673-3.489,1.515-7.025,3.088-10.245,5.125-6.46,4.086-10.542,10.055-13.251,17.105-3.013,7.843-4.931,16.117-6.84,24.282-2.194,9.388-4.238,18.734-7.318,27.883-.823,2.445,3.039,3.494,3.857,1.063,5.315-15.789,7.551-32.389,12.756-48.208,2.158-6.559,5.046-12.912,10.682-17.203,2.916-2.22,6.255-3.799,9.566-5.331,3.046-1.41,6.145-2.698,9.323-3.784,8.082-2.761,16.527-4.07,24.997-4.942,1.074-.111,2-.84,2-2,0-.996-.919-2.111-2-2h0Z"/><path class="h" d="M283.126,194.102c-1.685-2.718-3.789-5.682-7.252-5.959-2.72-.217-5.714.61-8.361,1.132-7.46,1.471-14.646,3.511-21.075,7.714-1.334.872-2.569,1.77-3.447,3.124-1.034,1.595-1.687,3.44-2.415,5.187-.416.998.449,2.2,1.397,2.46,1.152.316,2.043-.396,2.46-1.397.519-1.245,1.018-2.503,1.682-3.68.557-.987,1.077-1.389,1.968-1.991,2.585-1.747,5.424-3.229,8.326-4.373,3.112-1.227,6.402-1.962,9.664-2.668,2.696-.583,5.457-1.187,8.188-1.459.459-.046.93-.096,1.391-.064.231.016.636.132.913.289,1.386.785,2.298,2.399,3.107,3.705,1.353,2.184,4.815.178,3.454-2.019h0Z"/><path class="h" d="M229.232,227.768c1.855.383,3.595,1.024,5.234,1.937,1.585.882,2.563,1.789,3.827,3.23.588.67.854,1.003,1.356,1.76.429.647.814,1.324,1.146,2.027.018.038.25.558.122.254.078.185.15.374.22.562.142.384.27.774.386,1.167.248.838.434,1.692.592,2.552.195,1.063,1.484,1.665,2.46,1.397,1.118-.307,1.592-1.394,1.397-2.46-.7-3.818-2.289-7.165-4.851-10.087-2.824-3.22-6.628-5.329-10.826-6.196-1.057-.218-2.161.308-2.46,1.397-.272.99.334,2.241,1.397,2.46h0Z"/><path class="h" d="M284.509,199.434c7.248,3.384,12.77,9.542,16.021,16.792,2.779,6.197,3.84,13.304,4.281,20.049.789,12.058.773,24.219.528,36.294-.122,6.031-.234,12.128-1.022,18.117-.141,1.073,1.02,2,2,2,1.198,0,1.858-.924,2-2,.703-5.339.843-10.765.978-16.142.172-6.866.184-13.737.094-20.604-.075-5.667-.193-11.342-.535-17-.421-6.944-1.426-14.141-3.985-20.633-3.418-8.675-9.801-16.341-18.341-20.328-.978-.457-2.156-.275-2.736.718-.507.866-.266,2.277.718,2.736h0Z"/><path class="f" d="M259.791,312.109c.52-10.971,1.717-21.903,2.439-32.231.295-4.215,2.815-7.932,6.874-9.103,12.054-3.478,29.61-8.601,41.737-12.126,4.731-1.375,9.801,2.212,9.422,7.124-1.173,15.214-1.331,21.07-2.096,32.224"/><path class="h" d="M261.791,312.109c.509-10.534,1.636-21.021,2.39-31.537.259-3.608,1.97-6.839,5.62-7.917,3.952-1.167,7.917-2.29,11.874-3.439,8.577-2.491,17.152-4.99,25.728-7.485,3.248-.945,6.834-2.525,9.589.363,1.284,1.346,1.329,2.898,1.195,4.657-.178,2.328-.348,4.657-.509,6.986-.559,8.083-.959,16.176-1.512,24.259-.176,2.569,3.825,2.558,4,0,.522-7.632.903-15.273,1.419-22.905.167-2.463.344-4.925.529-7.387.175-2.32.256-4.415-.882-6.528-1.98-3.676-6.424-5.453-10.428-4.581-2.054.447-4.08,1.166-6.099,1.754-2.226.648-4.453,1.296-6.679,1.944-4.75,1.383-9.499,2.765-14.25,4.146-4.394,1.277-8.789,2.553-13.186,3.823-2.041.59-4.002,1.144-5.712,2.463-1.676,1.293-2.906,3.002-3.705,4.955-1,2.444-1.002,5.091-1.204,7.688-.24,3.086-.506,6.169-.77,9.253-.555,6.49-1.096,12.981-1.41,19.488-.124,2.573,3.876,2.567,4,0h0Z"/><path class="j" d="M44.725,90.099c-8.514,2.863-18.769.966-24.329-6.491-4.878-6.542-3.683-13.991-2.558-21.51.578-3.868,1.431-7.631,1.737-11.731.451-6.025,1.302-13.553,3.578-18.772,1.705-3.902,5.328-9.969,11.177-12.944,2.211-1.382,3.707-2.317,3.707-2.317l.806-.504c4.483-2.055,9.177-3.485,15.936-3.788,11.071-.484,20.449,4.181,25.013,8.17,5.117,4.997,7.364,10.114,10.094,19.825,1.554,5.572,3.15,11.136,4.343,16.8,1.19,5.652,1.939,11.705.312,17.357-1.594,5.538-5.401,8.993-10.709,10.893l-39.107,5.011Z"/><path class="h" d="M31.508,17.986c-5.089,3.471-8.814,8.841-10.886,14.604-2.386,6.638-2.415,13.664-3.336,20.567-.942,7.058-3.071,14.29-2.313,21.463.712,6.739,4.474,12.685,10.482,15.93s13.352,3.594,19.803,1.477c2.435-.799,1.392-4.663-1.063-3.857-4.948,1.624-10.493,1.699-15.327-.392-5.34-2.31-9.157-7.143-9.873-12.959-.79-6.413.988-13.017,1.961-19.314.984-6.369,1.007-12.824,2.672-19.09,1.537-5.787,4.88-11.552,9.901-14.975,2.114-1.442.116-4.909-2.019-3.454h0Z"/><path class="f" d="M52.73,112.978c-1.98-.447-3.918-1.056-5.791-1.828-1.835-4.309-3.558-8.439-5.102-12.217,1.259-.85,2.259-1.814,2.696-2.872.452-1.081.706-2.232.878-3.39.223-1.552.305-2.595.369-4.477v-.885s-2.266-1.727-2.266-1.727c-1.845-1.598-3.379-3.271-4.827-5.055,0,0-1.421-1.821-2.047-2.878,0,0-.165-.278-.422-.71-1.893.372-4.034-.146-4.896-.567-2.737-1.345-4.155-3.482-5.098-5.031-1.338-2.19-2.185-5.996-1.364-8.332.275-.781,1.008-2.168,3.288-2.722,1.048-.255,2.349-.197,3.437.446,0,0,.644.107,1.493.111.806.022,1.991.1,3.194.031.198-.449.321-.729.321-.729l.116-.263c2.447-.889,4.797-1.832,7.086-3.129,2.506-1.42,4.907-3.024,7.181-4.792,3.057-2.377,5.883-5.051,8.423-7.974,2.652-3.052,4.906-6.408,7.201-9.728,6.801,3.44,18.5,12.464,23.023,20.017-.196,4.478-.199,8.931-.289,13.047-.101,4.659-.792,9.092-2.474,12.901-.998,2.261-2.346,4.302-4.127,6.041-3.379,3.3-7.013,5.424-11.156,6.46v3.623c-.035,2.118,2.233,3.306,4.022,3.921-.049,2.396-.335,6.727-.754,11.94-4.469,1.451-9.233,2.003-13.977,1.707-2.751-.029-5.482-.34-8.138-.94Z"/><path class="h" d="M69.577,96.35c.032,1.985,1.167,3.508,2.767,4.581.687.46,1.458.788,2.225,1.087.151.059.508.168.159.041.261.095.514.219.771.325.325.134.652.262.981.386,2.982,1.126,6.059,1.987,9.026,3.154,1.006.395,2.196-.434,2.46-1.397.312-1.135-.388-2.063-1.397-2.46-2.664-1.048-5.419-1.853-8.113-2.819-.584-.209-1.163-.432-1.74-.658-.516-.202.368.16-.108-.046-.24-.103-.481-.196-.725-.289-.14-.054-.281-.104-.42-.162.337.14-.054-.03-.117-.062-.309-.157-.615-.314-.906-.503-.039-.025-.428-.313-.251-.17s-.181-.171-.213-.203c-.045-.044-.373-.465-.149-.137-.066-.097-.122-.199-.184-.298-.09-.181-.105-.208-.043-.08.057.131.053.1-.013-.094l-.038-.175c.031.23.04.222.026-.023-.018-1.081-.907-2-2-2-1.071,0-2.018.915-2,2h0Z"/><path class="e" d="M27.888,25.636c-4.169,4.477-6.004,9.371-7.005,15.252-.501,2.96-.558,5.983-.134,8.948.458,3.192,1.277,10.724,3.968,14.575"/><path class="e" d="M33.125,21.092c7.095-5.882,13.945-7.693,20.915-7.871,11.044-.282,20.214,3.3,26.672,9.837,3.729,3.774,6.633,9.449,7.97,14.6,1.256,4.84,1.821,12.259,1.021,18.509"/><path class="h" d="M60.622,63.679c.273-1.537-.443-4.906-3.283-4.851-3.705.479-3.395,4.621-1.909,6.404,1.217,1.46,4.303,1.749,5.193-1.553Z"/><path class="h" d="M82.719,61.662c.238-1.538-.445-4.922-3.048-4.889-3.392.45-3.075,4.605-1.699,6.404,1.127,1.473,3.957,1.787,4.746-1.515Z"/><path class="h" d="M68.614,68.005c.306.424.602.856.892,1.291.31.465.663.944.885,1.458l-.202-.478c.037.095.064.188.077.289l-.071-.532c.004.037.004.074.001.112l.071-.532c-.008.058-.02.103-.041.158l.202-.478c-.016.035-.036.067-.06.096l.313-.405c-.089.106-.183.202-.29.289l.405-.313c-.101.076-.204.138-.32.188l.478-.202c-.204.08-.418.101-.63.152-.479.114-.95.5-1.195.919-.251.429-.357,1.061-.202,1.541.343,1.061,1.369,1.657,2.46,1.397.181-.043.367-.06.543-.119.547-.184,1.02-.454,1.432-.862.333-.329.568-.698.721-1.141.154-.446.117-.879.039-1.333-.072-.416-.28-.807-.495-1.168-.48-.807-1.012-1.586-1.561-2.348-.312-.434-.663-.772-1.195-.919-.479-.132-1.116-.072-1.541.202-.427.275-.803.685-.919,1.195-.113.496-.108,1.111.202,1.541h0Z"/><path class="h" d="M34.913,78.659c1.415,2.357,3.29,4.545,5.215,6.491.923.933,1.87,1.829,2.97,2.546l1.875,1.223c.878.573,2.249.206,2.736-.718.527-.998.22-2.125-.718-2.736l-1.805-1.177c-.213-.139-.429-.322-.66-.431.308.236.353.262.134.076-.088-.078-.176-.157-.264-.235-.173-.156-.345-.314-.515-.474-.314-.295-.622-.596-.925-.902-.614-.621-1.205-1.263-1.778-1.922-.257-.296-.509-.595-.759-.896-.137-.166-.674-.86-.109-.118-.678-.891-1.367-1.784-1.944-2.745-.539-.897-1.821-1.308-2.736-.718-.902.581-1.294,1.777-.718,2.736h0Z"/><path class="h" d="M52.282,93.006c8.338,2.96,17.705,3.729,25.7-.666,3.67-2.018,7.049-4.982,9.265-8.553,2.303-3.712,3.355-8.033,3.826-12.333.641-5.858.31-11.831.557-17.715.108-2.574-3.892-2.569-4,0-.205,4.875-.126,9.758-.328,14.631-.161,3.877-.752,7.904-2.44,11.437-3.207,6.714-10.37,11.118-17.71,11.607-4.762.317-9.339-.679-13.806-2.265-2.43-.863-3.476,3-1.063,3.857h0Z"/><path class="h" d="M32.594,59.006c-2.599-1.417-6.055-1.013-8.195,1.082-1.63,1.595-2.03,3.998-1.804,6.185.497,4.818,3.382,9.881,7.943,11.927,2.521,1.131,5.826,1.275,8.264-.123,2.233-1.28.22-4.738-2.019-3.454-.312.179-.302.175-.541.25-.144.044-.29.082-.437.114-.25.041-.298.054-.143.037-.588.083-1.21.057-1.798-.008.29.032-.423-.075-.496-.091-.24-.051-.478-.11-.712-.18-.124-.037-.759-.307-.217-.049-.28-.133-.554-.278-.822-.436-1.87-1.104-3.052-2.646-4.022-4.573-.442-.878-.803-2.091-.976-3.229.008.133,0,.071-.025-.186-.016-.158-.029-.315-.039-.474-.019-.307-.025-.616-.014-.924.005-.149.014-.297.027-.445-.033.171-.028.136.015-.107.048-.264.162-.521.205-.783.04-.239-.248.399.027-.052.099-.162.186-.327.297-.482-.286.401.165-.141.246-.213.171-.147.187-.16.05-.039.117-.078.237-.151.36-.218.799-.43,1.869-.59,2.808-.077,2.261,1.233,4.282-2.22,2.019-3.454h0Z"/><path class="h" d="M70.394,77.402c-.118.072-.237.141-.359.205-.077.04-.169.072-.243.119-.201.126.398-.154.17-.069-.313.117-.626.228-.949.314-.339.091-.682.163-1.028.218-.067.011-.367.056-.045.009s.022-.006-.046,0c-.187.019-.374.032-.562.041-.326.015-.653.014-.979-.005-.099-.006-.197-.014-.296-.023-.072-.007-.36-.043-.022.002.354.047-.137-.03-.233-.05-.785-.169-1.505-.541-2.253-.821-.982-.367-2.235.408-2.46,1.397-.259,1.135.346,2.068,1.397,2.46.783.293,1.536.68,2.361.843.856.169,1.738.241,2.61.191,1.701-.097,3.487-.475,4.956-1.376.891-.547,1.311-1.815.718-2.736-.577-.895-1.782-1.303-2.736-.718h0Z"/><path class="f" d="M35.139,77.068c1.755,0,2.967,1.234,2.967,2.678,0,1.616-1.239,2.728-2.967,2.728-1.795,0-2.967-1.123-2.967-2.728,0-1.454,1.219-2.678,2.968-2.678Z"/><path class="h" d="M35.139,79.068c.148.002.294.011.441.027l-.532-.071c.302.041.591.117.873.233l-.478-.202c.236.105.454.234.658.391l-.405-.313c.173.141.327.297.465.471l-.313-.405c.131.175.239.36.328.56l-.202-.478c.083.203.141.41.176.626l-.071-.532c.033.255.031.506.001.761l.071-.532c-.036.247-.099.484-.195.715l.202-.478c-.088.197-.196.379-.326.55l.313-.405c-.135.168-.285.316-.453.45l.405-.313c-.197.148-.407.268-.633.366l.478-.202c-.269.108-.544.18-.831.221l.532-.071c-.338.041-.676.041-1.014,0l.532.071c-.287-.04-.563-.109-.833-.216l.478.202c-.224-.095-.431-.212-.626-.357l.405.313c-.165-.13-.312-.274-.445-.437l.313.405c-.142-.186-.257-.384-.348-.599l.202.478c-.089-.228-.148-.46-.181-.703l.071.532c-.028-.253-.03-.503.003-.755l-.071.532c.035-.217.093-.425.177-.628l-.202.478c.089-.2.198-.385.329-.561l-.313.405c.138-.175.293-.33.465-.47l-.405.313c.205-.157.423-.285.658-.39l-.478.202c.282-.116.57-.191.872-.232l-.532.071c.147-.016.292-.025.44-.027,1.046-.013,2.049-.911,2-2-.048-1.073-.879-2.014-2-2-.972.012-2.017.252-2.828.81-.911.626-1.542,1.431-1.918,2.472-.308.853-.289,1.919-.029,2.78.312,1.034.936,1.832,1.795,2.467.761.562,1.709.785,2.634.863.987.084,1.978-.155,2.859-.591.778-.385,1.509-1.097,1.899-1.876.507-1.012.643-2.074.451-3.184-.164-.941-.737-1.902-1.477-2.505-.98-.799-2.115-1.222-3.387-1.238-1.046-.013-2.048.929-2,2,.049,1.094.879,1.986,2,2Z"/><path class="h" d="M84.364,87.016c3.444-1.262,6.624-3.154,8.926-6.061,2.665-3.366,3.808-7.517,4.113-11.75.346-4.803-.513-9.642-1.552-14.313-1.099-4.942-2.48-9.815-3.842-14.689-1.998-7.153-4.294-14.31-9.371-19.92-4.778-5.279-12.197-8.36-19.081-9.602-5.146-.929-10.374-.821-15.513.106-3.721.671-7.787,1.803-11.016,3.821-2.178,1.361-.172,4.823,2.019,3.454,2.484-1.552,5.516-2.429,8.354-3.072,3.995-.904,8.177-1.198,12.257-.834,6.417.572,13.488,2.954,18.432,7.225,4.716,4.074,7.106,10.049,8.89,15.852,1.331,4.329,2.515,8.717,3.652,13.101s2.267,8.826,2.681,13.335c.401,4.366.234,9.158-1.973,13.069-1.764,3.126-4.714,5.202-8.04,6.421-2.397.878-1.362,4.746,1.063,3.857h0Z"/><path class="h" d="M64.928,33.17c-3.816,5.524-7.691,10.81-12.781,15.247-4.982,4.342-10.552,7.594-16.762,9.825-2.405.864-1.368,4.731,1.063,3.857,3.298-1.185,6.519-2.503,9.534-4.304,3.058-1.827,5.953-3.937,8.655-6.257,5.491-4.715,9.656-10.431,13.744-16.349,1.467-2.123-1.999-4.125-3.454-2.019h0Z"/><path class="h" d="M65.675,36.028c3.757,1.933,7.273,4.395,10.563,7.035,3.622,2.907,7.188,6.108,10.017,9.812.655.857,1.723,1.311,2.736.718.844-.493,1.377-1.873.718-2.736-3.057-4.002-6.722-7.473-10.643-10.622-3.556-2.856-7.308-5.57-11.373-7.661-2.285-1.176-4.311,2.275-2.019,3.454h0Z"/><path class="h" d="M43.78,88.194c-.032.915-.072,1.831-.158,2.743-.019.202-.04.405-.064.607-.018.154-.088.697-.028.259-.073.531-.158,1.061-.271,1.585-.11.508-.243,1.011-.412,1.503-.042.123-.093.243-.133.366-.097.302.132-.224.004-.008-.102.172-.187.35-.298.517-.027.04-.232.302-.074.112.162-.195-.072.073-.101.106-.15.167-.308.326-.472.479-.173.161-.354.311-.536.461-.235.193.23-.146-.034.021-.132.084-.258.182-.386.27-.862.589-1.331,1.784-.718,2.736.553.858,1.812,1.349,2.736.718,1.072-.732,2.025-1.533,2.811-2.569.717-.945,1.108-2.126,1.385-3.268.524-2.161.674-4.422.751-6.638.036-1.047-.946-2.047-2-2-1.115.05-1.961.879-2,2h0Z"/><path class="f" d="M45.297,107.271c-1.246-2.96-2.426-5.805-3.518-8.475-12.792,5.892-28.461,10.299-35.4,23.806-4.193,8.161-4.511,18.98-4.32,28.274.351,17.043,2.351,34.047,5.972,50.653,1.179,5.406,5.935,9.279,11.468,9.279,34.215,0,81.598,0,81.598,0,.283-9.416.6-18.831.953-28.246.668.39,1.019.597,1.019.597,6.7,3.94,14.84,3.88,19.68,1.98,5.57-2.18,12.21-9.07,15.81-13.85,6.46-8.59,10.83-15.5,15.96-23.83-5.26-4.56-15.29-12.7-19.2-15.56-2.56,3.04-11.26,12.93-13.47,15.32,0,0-.465.503-.93,1.006l-1.27-2.296c-4.667-8.436-8.187-18.171-13.133-26.659-6.981-11.979-18.312-15.099-30.91-19.481-.053,8.066-3.675,45.481-5.092,53.602h-3.909c-6.966-13.144-14.989-31.112-21.306-46.119Z"/><path class="g" d="M62.154,144.653c-5.156-10.481-10.554-22.568-15.215-33.502,4.387,1.808,9.128,2.717,13.93,2.768,4.684.292,9.389-.242,13.811-1.652l.166-.049c-1.153,14.331-3.313,35.332-4.333,41.174h-3.909c-1.446-2.728-2.937-5.664-4.449-8.738Z"/><path class="h" d="M40.025,99.753c5.978,14.584,12.247,29.07,19.111,43.261,1.851,3.826,3.753,7.628,5.741,11.386.325.615,1.046.991,1.727.991h3.909c.806,0,1.781-.616,1.929-1.468,1.103-6.38,1.668-12.879,2.331-19.315.857-8.313,1.642-16.636,2.275-24.969.237-3.117.484-6.241.552-9.367.056-2.575-3.944-2.574-4,0-.142,6.509-.819,13.028-1.399,19.508-.736,8.225-1.544,16.446-2.496,24.649-.202,1.739-.413,3.478-.64,5.214-.016.123-.033.246-.049.369.062-.464-.037.262-.048.342-.044.317-.089.634-.136.951-.077.519-.157,1.038-.247,1.555l1.929-1.468h-3.909l1.727.991c-7.271-13.743-13.594-27.999-19.686-42.295-1.614-3.787-3.2-7.587-4.762-11.396-.409-.999-1.329-1.708-2.46-1.397-.945.26-1.809,1.455-1.397,2.46h0Z"/><path class="h" d="M82.968,109.391c.507.659,1.006,1.324,1.488,2.001.232.326,1.246,1.396,1.232,1.74l.273-1.009c-1.267,2.748-5.782,5.631-3.102,8.819,1.248,1.485,2.49,3.216,3.93,4.513.053.048.116.181.183.21-.198-.995-.337-1.216-.418-.663-.04.169-.079.338-.119.507-.157.671-.315,1.342-.472,2.013-.411,1.751-.821,3.502-1.232,5.254-.933,3.98-1.865,7.959-2.797,11.939-.586,2.504,3.27,3.573,3.857,1.063,1.467-6.268,2.936-12.536,4.407-18.804.354-1.51.689-2.812-.389-4.128-.354-.432-.734-.843-1.101-1.264l-2.044-2.348-.74-.849c-.078-.09-.152-.187-.236-.272-.341-.344.321.064.276.416l-.273,1.009c.918-1.833,2.551-3.294,3.573-5.07,1.432-2.486-1.419-5.247-2.843-7.097-.658-.855-1.72-1.312-2.736-.718-.841.492-1.38,1.875-.718,2.736h0Z"/><path class="h" d="M32.921,106.215c-.862,1.44-1.598,2.935-2.238,4.487-.553,1.339-1.282,2.948-1.325,4.417-.047,1.605.894,2.819,2.349,3.404.683.275,1.382.515,2.071.775.554.208,1.776.514,2.04.842l-.514-.883c.238-.626.237-.776-.004-.448-.139.159-.276.318-.413.479-.188.219-.374.439-.56.66-.516.611-1.027,1.225-1.547,1.832-.968,1.13-2.356,2.289-1.915,3.96.361,1.367,1.645,2.676,2.435,3.83.897,1.309,1.784,2.624,2.666,3.943,3.564,5.327,7.054,10.702,10.693,15.979,1.452,2.105,4.92.108,3.454-2.019-2.657-3.854-5.24-7.757-7.823-11.661-1.244-1.88-2.49-3.76-3.75-5.63-.592-.879-1.187-1.756-1.786-2.631-.346-.505-.693-1.008-1.041-1.511-.107-.154-.904-1.094-.9-1.17l-.273,1.009c.458-.817,1.306-1.546,1.911-2.264.688-.817,1.409-1.612,2.085-2.438,1.384-1.694.82-3.909-1.186-4.749-.968-.405-1.947-.779-2.93-1.146-.279-.104-.558-.208-.837-.312-.478-.298-.559-.191-.243.32.022.006.294-.992.308-1.041.646-2.124,1.59-4.113,2.729-6.015,1.326-2.214-2.131-4.227-3.454-2.019h0Z"/><path class="h" d="M74.148,110.337c-4.453,1.388-8.873,1.732-13.511,1.577-4.551-.153-8.915-.975-13.148-2.685-1.002-.405-2.197.441-2.46,1.397-.314,1.142.391,2.054,1.397,2.46,4.549,1.837,9.324,2.664,14.211,2.828,4.964.166,9.81-.235,14.575-1.72,2.45-.763,1.404-4.626-1.063-3.857h0Z"/><path class="h" d="M33.742,100.133c-10.405,4.407-21.455,9.239-27.764,19.151-3.407,5.353-4.836,11.634-5.496,17.871-.69,6.513-.514,13.109-.234,19.64.367,8.557,1.173,17.084,2.344,25.567.148,1.071,1.517,1.656,2.46,1.397,1.154-.317,1.545-1.386,1.397-2.46-.987-7.149-1.667-14.341-2.058-21.547-.354-6.528-.594-13.116-.162-19.646.389-5.866,1.377-11.958,4.237-17.171,2.544-4.637,6.393-8.31,10.793-11.184,5.152-3.366,10.854-5.771,16.501-8.163.995-.421,1.213-1.889.718-2.736-.602-1.03-1.738-1.141-2.736-.718h0Z"/><path class="h" d="M101.466,148.771c-.957,20.672-1.747,41.352-2.369,62.037-.077,2.575,3.923,2.572,4,0,.622-20.685,1.412-41.365,2.369-62.037.119-2.573-3.881-2.567-4,0h0Z"/><path class="h" d="M77.472,102.545c6.896,2.365,14.114,4.669,19.937,9.221,6.705,5.242,10.116,13.294,13.577,20.828,2.217,4.827,4.374,9.686,6.936,14.344,1.241,2.256,4.696.24,3.454-2.019-4.705-8.557-8.032-17.804-12.909-26.272-4.004-6.952-10.077-11.891-17.324-15.187-4.095-1.862-8.356-3.314-12.607-4.773-2.44-.837-3.488,3.025-1.063,3.857h0Z"/><path class="h" d="M123.263,148.633c4.605-4.993,9.09-10.128,13.47-15.32l-2.424.313c6.489,4.763,12.711,9.981,18.795,15.247l-.313-2.424c-5.087,8.257-10.274,16.515-16.23,24.183-2.578,3.319-5.545,6.415-8.802,9.073-2.834,2.314-5.939,4.071-9.612,4.533-4.836.609-9.849-.38-14.07-2.807-2.235-1.285-4.252,2.17-2.019,3.454,7.744,4.453,18.008,4.975,25.559-.119,8.09-5.457,13.822-13.688,19.234-21.632,3.27-4.799,6.348-9.723,9.394-14.667.436-.708.34-1.858-.313-2.424-6.342-5.49-12.841-10.908-19.605-15.873-.658-.483-1.898-.31-2.424.313-4.38,5.192-8.865,10.327-13.47,15.32-1.743,1.89,1.078,4.725,2.828,2.828h0Z"/><path class="f" d="M157.738,109.561c.008.25.018.596.029,1.014.524-.088,1.127-.116,1.812-.068,4.228.297,8.41,2.323,8.018,4.448-.082,1.085-.587,1.938-1.824,3.365.532.901.524,3.097-.137,3.396l-.801.964c1.279,0,2.14.615,2.605,1.476.848,1.571.013,3.535-1.652,4.179l-.515.199c.167-.014.334-.028.334-.028,1.828-.151,3.778,1.928,3.246,3.425-.397,1.116-1.553,1.957-2.681,2.478-2.586,2.895-5.803,5.22-9.356,6.781-.862.379-1.744.713-2.589,1.127-.639.313-1.255.67-1.844,1.069-1.757,1.191-4.082,1.161-5.824-.052-2.835-1.974-5.845-4.355-8.475-6.578-1.031-.872-1.418-2.288-.989-3.568,2.493-7.447,4.657-14.443,6.557-16.197,2.638-2.436,5.494-3.077,6.994-6.053,1.042-2.069,2.945-4.647,5.309-4.186,1.567.305,1.741,1.606,1.769,2.353,0,0,.006.163.015.456Z"/><path class="h" d="M158.886,129.272c-1.315,1.09-1.505,3.372-.941,4.883.733,1.963,2.91,3.221,4.975,3.195,1.065-.013,2.116-.315,3.095-.713.885-.36,1.756-.732,2.524-1.308,1.631-1.223,2.981-3.182,2.15-5.288-.793-2.01-2.836-3.664-5.083-3.533-1.043.06-2.05.877-2,2,.046,1.032.881,2.065,2,2,.13-.008.264.01.393.001.192-.013-.24-.023-.252-.033.03.026.128.025.166.038.052.018.111.035.165.047.302.069-.113-.038-.155-.078.085.08.259.127.362.189.067.04.13.089.198.126.178.098-.169-.139-.169-.138.078.084.18.152.263.232.097.094.179.203.275.297.141.138-.138-.172-.139-.18.007.068.116.176.15.234.043.074.204.422.068.1-.136-.32,0,.065.03.156.097.296.007-.439-.021-.137-.004.044-.007.102-.003.146.017.23.115-.507.016-.199-.089.277.208-.346.02-.038-.078.128-.156.255-.235.381-.113.178.104-.146.112-.148-.036.011-.106.118-.133.147-.123.131-.262.242-.39.368-.161.159.143-.108.139-.101-.035.051-.182.131-.223.159-.113.077-.229.151-.347.221-.27.161-.551.303-.837.433-.093.042-.196.098-.292.128.017-.005.324-.129.11-.048-.149.057-.297.118-.447.172-.372.135-.753.251-1.141.33-.077.016-.155.027-.232.042-.241.047.14-.029.142-.021.002.007-.447.013-.465.012-.061-.003-.129-.019-.189-.015.014,0,.412.088.213.019-.161-.056-.342-.103-.508-.144-.203-.05.155.067.168.078-.044-.037-.128-.06-.18-.086-.138-.07-.266-.151-.397-.23-.304-.182.244.251.004.005-.055-.057-.116-.114-.173-.169-.214-.202.107.093.113.162-.002-.024-.053-.087-.067-.108-.108-.166-.019-.27.067.191-.02-.109-.074-.219-.1-.328-.012-.05-.02-.1-.033-.149-.09-.351.012.376.022.168.006-.123-.016-.25-.014-.374.001-.071.008-.142.01-.214.005-.278-.008.167-.033.217.052-.108.069-.278.098-.395.071-.282-.233.411-.024.087.125-.194-.336.317-.154.188.054-.038.106-.104.157-.147.809-.67.745-2.144,0-2.828-.86-.789-1.966-.715-2.828,0h0Z"/><path class="h" d="M164.201,124.754c.126-.028.252-.053.379-.079-.039.008-.306.013-.084.016.193.002.386-.012.58-.006.442.013-.082-.011-.08-.012.019-.016.281.07.278.07.06.012.283.037.019-.006-.241-.04.019.014.12.074.052.031.107.082.163.105.209.09-.208-.268-.109-.073.02.04.099.102.134.133.268.245-.104-.077-.076-.113-.001.002.191.338.224.374.158.174-.111-.375-.052-.131.021.085.059.169.084.253.009.031.147.44.112.47,0,0-.027-.437-.016-.113.003.094.013.186.014.28.001.069-.004.138-.003.207l-.003.069c-.016.18-.014.18.007,0-.063-.124.049-.179-.01-.008-.025.074-.094.438-.019.113.054-.234.052-.11-.005-.026.28-.414.202-.227.1-.138.019-.016.39-.315.128-.116.038-.029.321-.119.066-.032-.58.199-1.148.491-1.705.749-.238.11-.475.221-.716.325.288-.124-.253.094-.336.123-.268.095-.542.169-.808.271-.56.214-1.108.461-1.662.689-.602.248-1.21.495-1.836.679-.126.037-.253.065-.379.101-.042.012-.151.015-.195.04-.025.014.493-.051.315-.044-.367.015.038-.025.057.037.002.005-.794-.224-.518-.125.224.08-.023-.012-.061-.032-.114-.062-.238-.153-.357-.205-.188-.082.038.044.075.075-.098-.083-.187-.189-.287-.268-.222-.175.213.256.038.049-.209-.247.082-.217.011.079.01-.043-.11-.456-.126-.467.048.032.014.509.029.149.004-.087.003-.179.001-.266-.009-.328.017.148-.019.121-.019-.014.065-.25.072-.278.084-.333.009-.005-.031.061.026-.043.237-.429.101-.207-.115.188.025-.031.057-.064.132-.136.264-.259.409-.381.803-.677.75-2.14,0-2.828-.854-.784-1.972-.722-2.828,0-2.039,1.72-2.434,5.052-.431,6.97.938.898,2.339,1.586,3.66,1.584.849-.002,1.676-.287,2.459-.585.771-.293,1.524-.63,2.289-.939,1.013-.409,2.04-.75,3.036-1.21.246-.114.492-.227.739-.338.617-.277-.164.069.213-.089.228-.096.471-.169.687-.29.557-.31,1.044-.813,1.316-1.391.543-1.152.571-2.441.27-3.667-.311-1.267-1.063-2.349-2.15-3.067-1.299-.859-2.941-.858-4.404-.528-1.022.23-1.719,1.466-1.397,2.46.347,1.071,1.366,1.644,2.46,1.397h0Z"/><path class="h" d="M159.484,126.87c2.318-1.063,4.581-2.241,6.897-3.306,1.381-.635,1.801-2.15,1.769-3.567-.034-1.471-.494-2.913-1.661-3.874-2.685-2.208-6.296-.907-9.05.492-2.429,1.234-5.339,3.259-5.478,6.251-.077,1.653.784,3.578,2.248,4.426,1.748,1.013,3.597.346,5.275-.424.954-.437,1.263-1.891.718-2.736-.635-.984-1.716-1.185-2.736-.718-.08.037-.16.074-.24.11-.025.011-.458.178-.168.075.26-.092-.065.019-.127.041-.128.045-.256.088-.387.123-.105.029-.213.047-.318.075.056-.015.436-.075.052-.016-.378.058-.003-.039.061.038-.181-.054-.202-.051-.061.01.139.07.123.059-.049-.033.333.222-.009-.036-.132-.175.294.332.107.146.064.047-.009-.02-.228-.456-.097-.16.112.253-.012-.044-.029-.113-.019-.077-.122-.295-.09-.365,0,.002.014.506.018.088.001-.119.015-.25.004-.367-.026-.277-.112.468.009.037.08-.288-.076.038-.056.085-.042-.102.289-.451.351-.542-.211.311.201-.231.285-.321.167-.178.343-.348.527-.508-.001,0,.417-.331.184-.156-.202.152.096-.065.143-.098.223-.157.453-.305.684-.449.444-.276.899-.536,1.365-.773.208-.105.419-.201.629-.303.504-.244-.229.081.09-.042.111-.043.222-.089.334-.131.556-.211,1.123-.389,1.698-.539.26-.068.523-.123.784-.186-.443.107.112.022.281.025.378.008.029.012-.046-.008.126.034.265.082.393.104.27.047-.262-.163-.03-.018.048.03.49.294.27.14-.214-.15.049.07.097.102.201.131-.175-.36.033.029.011.02.137.237.131.239-.051.018-.146-.506-.073-.133.029.15.157.384.117.534.062-.231-.025-.328-.025-.102,0,.144.013.288.01.432-.002.094-.011.186-.014.28-.011.44.103-.319.007-.079-.027.067-.05.157-.06.228-.033.246.192-.392.08-.193-.069.121.349-.511.461-.459-.019-.009-.269.123-.263.12-.218.1-.436.202-.652.305-2.087.989-4.145,2.038-6.245,3.001-.954.438-1.263,1.89-.718,2.736.634.984,1.716,1.186,2.736.718Z"/><path class="h" d="M159.722,109.106c-.13-2.489-1.782-4.481-4.431-4.405s-4.608,2.205-5.876,4.321c-.616,1.029-1.062,1.982-1.99,2.778-.977.837-2.142,1.442-3.188,2.186-1.808,1.287-3.03,2.62-3.982,4.618-1.132,2.374-2,4.877-2.851,7.362-.502,1.464-.988,2.933-1.476,4.401-.503,1.515-1.069,2.929-.723,4.552.299,1.4,1.155,2.373,2.177,3.321,1.256,1.164,2.562,2.273,3.913,3.324,2.209,1.718,4.701,3.944,7.565,4.323,1.605.212,3.198-.108,4.628-.861,1.501-.79,2.981-1.499,4.532-2.196,3.116-1.4,5.941-3.398,8.392-5.771,1.852-1.794-.978-4.621-2.828-2.828-1.7,1.646-3.571,3.046-5.648,4.183-1.035.567-2.107,1.041-3.193,1.5-1.142.482-2.166,1.121-3.273,1.658-2.098,1.018-3.764-.288-5.453-1.463-2.048-1.425-3.977-3.003-5.807-4.698-.734-.68-1.283-1.106-1.039-2.137.308-1.304.863-2.599,1.288-3.87.741-2.219,1.486-4.439,2.332-6.62.534-1.376,1.094-2.873,1.983-4.069.768-1.033,2.93-2.175,4.246-3.126.956-.691,1.819-1.432,2.533-2.375.662-.875,1.081-1.882,1.703-2.782.431-.624,1.124-1.565,1.931-1.707.204-.036.746.144.441-.055.115.075.093.422.094.436.134,2.561,4.135,2.577,4,0h0Z"/><path class="h" d="M155.012,115.492c-.09.224-.1.255-.031.092-.055.126-.112.25-.171.374-.119.248-.245.493-.377.735-.266.488-.556.962-.853,1.431-.596.938-1.254,1.844-1.804,2.811-1.159,2.037-1.677,4.387-1.58,6.722.043,1.044.889,2.05,2,2,1.046-.047,2.046-.88,2-2-.084-2.014.285-3.53,1.352-5.227,1.209-1.925,2.497-3.738,3.322-5.875.377-.978-.416-2.237-1.397-2.46-1.145-.261-2.056.349-2.46,1.397h0Z"/><path class="h" d="M159.588,115.106c-.413-.223-.822-.454-1.218-.708-.182-.117-.359-.239-.536-.364-.029-.02-.248-.199-.064-.046.206.171-.154-.138-.158-.142-.104-.093-.206-.19-.303-.291-.058-.061-.415-.408-.165-.176.213.197,0-.036-.059-.122-.051-.075-.129-.302-.012.011.15.399.006.035.015.014.006-.014-.03-.118-.037-.134-.085-.192.193-.14.027.266.019-.046,0-.212-.007-.264-.038-.255-.138.5-.018.138.032-.097.066-.206.089-.306.061-.267-.235.423-.032.083.025-.042.056-.093.073-.138.107-.272.037.24-.125.134-.004-.003.219-.23.237-.249.067-.074.106-.179-.014.005-.144.22.003.01.115-.053.209-.118.319-.101.027-.03.173-.042.341-.113.515-.155.115-.028.645-.082.23-.056.224-.014.447-.034.672-.036,1.113-.012,1.621.08,2.641.31.436.098.869.214,1.295.349.19.06.378.124.565.192.121.044.242.091.362.138-.192-.076-.085-.04.042.02.346.161.686.333,1.012.532.161.098.312.212.472.312-.346-.217.043.043.164.16.049.048.095.1.144.147.031.032.061.065.089.099.07.083.058.066-.036-.052-.118-.028-.09-.16-.011,0,.031.064.169.389.062.072-.1-.299-.033-.086-.02-.029.078.34,0-.406-.004-.159,0,.053.01.108.003.161l.047-.316-.071.532c.057-.452-.009.027-.06.204-.021.071-.056.144-.071.215-.049.231.211-.375-.022.029-.104.179-.203.358-.318.531-.206.31-.241.344-.39.527-.659.81-.851,2.047,0,2.828.731.671,2.123.866,2.828,0,.798-.98,1.602-2.021,1.885-3.284.027-.122.045-.244.062-.368l.036-.266c.049-.357.048-.354-.005.007-.078-.188.088-.61.074-.854-.036-.613-.208-1.215-.519-1.747-1.15-1.965-3.557-3.006-5.645-3.609-2.435-.703-5.319-1.108-7.702-.04-1.604.719-2.763,2.453-2.672,4.24.13,2.537,2.471,4.098,4.493,5.19.92.497,2.22.259,2.736-.718.492-.932.266-2.205-.718-2.736h0Z"/><path class="h" d="M164.622,100.096c-1.873,2.715-3.712,5.455-5.644,8.13-.615.851-.174,2.265.718,2.736,1.036.547,2.08.191,2.736-.718,1.932-2.674,3.771-5.415,5.644-8.13.596-.864.189-2.258-.718-2.736-1.019-.538-2.1-.204-2.736.718h0Z"/><path class="f" d="M59.22,203.173c-3.466-5.187-6.194-10.273-7.887-14.658-.169-.438-.011-.929.371-1.202,1.328-.947,3.398-2.666,3.782-3.708,1.543-4.191,4.047-5.901,7.35-8.98,1.597-1.489,2.794-2.466,5.115-4.25,1.117-.859,3.04-2.687,4.467-2.966s2.203-.321,3.151.794c.605.712.901,1.525.65,2.36-.292.972-1.061,1.983-1.676,2.774-.747.961-1.67,2-2.453,3.032,3.19-.674,6.414-1.184,9.655-1.533.796-.086,1.82-.05,2.513.353.58.337,1.268.918,1.58,1.512.433.827.6,1.791.29,2.672-.348.988-.947,2.106-1.824,2.913,1.019,2.232,1.718,3.343,1.21,5.778-.574,2.752-.702,6.133-2.165,8.777-.403.728-.881,1.443-1.639,2.052-.682.427-1.333.8-2.142,1.009-4.465,1.153-10.689,1.538-14.93,2.5-.847.192-2.628,1.214-3.628,1.757-.464.252-1.049.111-1.346-.325-.15-.22-.298-.44-.445-.66Z"/><path class="f" d="M21.297,169.309c-.854-2.84-1.599-5.333-2.088-7.003-.264-.911.217-1.866,1.099-2.198,9.244-3.462,33.325-11.562,41.305-14.29.944-.321,1.965.185,2.29,1.125,0,0,3.612,10.627,7.156,21.052-1.132.686-2.32,1.773-3.108,2.379-2.321,1.784-3.518,2.761-5.115,4.25-3.304,3.08-5.807,4.789-7.35,8.98-.384,1.043-2.453,2.761-3.782,3.708l-1.31-1.014c-2.777,1.256-20.793,6.342-22.183,6.285l-.228-.828-.863-3.137c-1.339-4.479-3.868-12.807-5.824-19.31Z"/><path class="h" d="M73.166,178.291c2.004-2.946,6.87-6.656,4.469-10.626-.982-1.623-2.591-2.579-4.498-2.38-2.029.213-3.51,1.185-5.072,2.432-2.814,2.248-5.551,4.524-8.227,6.935-1.228,1.107-2.462,2.216-3.506,3.504-.532.656-1.036,1.34-1.464,2.069-.48.818-.744,1.739-1.195,2.56-.684,1.246-2.103,2.079-3.182,2.957-1.934,1.573-.989,3.633-.172,5.53,1.702,3.953,3.823,7.724,6.147,11.342,1.144,1.782,2.379,4.274,4.93,3.524,1.455-.428,2.606-1.549,4.111-1.885,3.874-.864,7.867-1.119,11.771-1.822,2.162-.39,4.496-.827,6.153-2.393,1.604-1.516,2.502-3.728,3.009-5.832.515-2.138.884-4.403,1.153-6.586.291-2.353-.603-4.259-1.565-6.346l-.313,2.424c1.294-1.283,2.513-3.22,2.564-5.097.057-2.105-1.092-3.967-2.866-5.047-1.801-1.097-3.892-.715-5.862-.459-2.367.308-4.72.686-7.061,1.147-2.523.497-1.455,4.353,1.063,3.857,2.837-.559,5.829-1.231,8.728-1.299.871-.02,1.744.354,1.961,1.288.227.979-.715,2.145-1.356,2.78-.68.674-.688,1.608-.313,2.424.656,1.423,1.283,2.639,1.009,4.237-.298,1.737-.53,3.498-.91,5.219-.325,1.472-.784,3.253-1.932,4.321-1.195,1.111-3.191,1.268-4.725,1.539-3.55.627-7.149.937-10.691,1.609-1.476.28-2.755.82-4.077,1.529-.165.089-.987.41-1.005.549l.436.06c.453.173.553.125.301-.143-.012-.148-.32-.48-.404-.608-.612-.93-1.21-1.869-1.791-2.818-1.131-1.849-2.201-3.736-3.187-5.666-.863-1.688-2.029-3.603-2.404-5.474v1.063c-.325.215-.32.203.014-.037.224-.17.446-.342.668-.514.276-.216.55-.435.818-.662.6-.509,1.181-1.046,1.686-1.651,1.035-1.242,1.419-2.84,2.306-4.188,1.721-2.617,4.498-4.728,6.835-6.772,1.31-1.147,2.703-2.185,4.062-3.271,1.027-.82,2.326-2.296,3.739-2.349.43-.016.835-.009.956.577.113.546-.64,1.385-.983,1.852-1.149,1.563-2.491,2.968-3.584,4.576-1.452,2.134,2.013,4.137,3.454,2.019h0Z"/><path class="h" d="M72.789,166.878c-1.641-4.828-3.282-9.656-4.923-14.484-.667-1.962-1.282-3.951-2.003-5.894-.781-2.104-2.746-3.203-4.939-2.556-1.411.416-2.798.953-4.19,1.426-8.283,2.813-16.567,5.621-24.83,8.491-3.665,1.273-7.33,2.551-10.972,3.891-.918.338-1.884.618-2.618,1.298-1.088,1.009-1.338,2.495-1.005,3.881.398,1.658.975,3.293,1.465,4.926,2.523,8.413,5.182,16.791,7.511,25.26.235.853,1.049,1.461,1.929,1.468,1.361.011,2.84-.51,4.142-.839,2.33-.589,4.648-1.228,6.96-1.882,4.026-1.139,8.252-2.136,12.089-3.837.988-.438,1.219-1.878.718-2.736-.595-1.018-1.745-1.157-2.736-.718-.26.115.534-.193.022-.013-.118.041-.235.089-.352.133-.341.126-.685.244-1.029.36-.92.311-1.846.603-2.774.89-2.324.719-4.66,1.401-7.001,2.063-2.245.635-4.494,1.254-6.755,1.829-.817.208-1.635.413-2.459.592-.273.059-.553.099-.824.166-.467.115.526-.005-.002-.01l1.929,1.468c-1.902-6.915-4.046-13.759-6.117-20.625-.592-1.962-1.182-3.923-1.769-5.886-.234-.782-.467-1.565-.699-2.348-.1-.337-.163-.725-.308-1.043-.164-.362-.004-.341-.225-.181.491-.354,1.35-.499,1.92-.707.82-.298,1.64-.593,2.462-.887,1.771-.632,3.546-1.257,5.321-1.877,8.002-2.795,16.027-5.521,24.053-8.247,1.563-.531,3.126-1.061,4.689-1.593.615-.209,1.229-.418,1.844-.628.177-.06.736-.151.833-.284.105-.144-.155.063-.165-.257.015.473.375,1.104.525,1.546l1.144,3.366c1.761,5.18,3.522,10.36,5.282,15.541.824,2.424,4.689,1.383,3.857-1.063h0Z"/><path class="i" d="M117.648,1.932v85.439c0,1.081.916,2,2,2h177.97c2.574,0,2.578-4,0-4H119.648l2,2V1.932c0-2.574-4-2.578-4,0h0Z"/><path class="h" d="M273.284,184.007c-3.433-.701-6.868-1.769-9.667-3.823.313.23-.131-.113-.157-.136-.126-.11-.248-.224-.365-.343-.13-.133-.254-.272-.375-.414.003.004-.38-.486-.209-.257-.603-.807-1.114-1.69-1.573-2.585-.81-1.578-1.442-3.212-1.788-5.023-.202-1.062-1.479-1.667-2.46-1.397-1.112.306-1.6,1.396-1.397,2.46.396,2.08,1.229,4.102,2.191,5.979.893,1.743,2.007,3.521,3.561,4.746,1.685,1.328,3.629,2.22,5.618,2.995,1.801.702,3.663,1.269,5.557,1.655,1.057.216,2.161-.306,2.46-1.397.272-.988-.334-2.243-1.397-2.46h0Z"/><path class="h" d="M227.988,136.112c.581-4.348,2.116-8.595,4.731-12.146.295-.401-.277.34.06-.077.107-.133.214-.265.323-.397.203-.244.411-.484.622-.72.611-.682,1.256-1.335,1.927-1.958,1.552-1.443,3.243-2.705,5.052-3.809,9.348-5.705,21.43-6.843,31.72-3.174,9.484,3.381,16.911,12.006,20.33,21.358,4.141,11.33,2.59,23.618-4.181,33.579-2.763,4.064-6.302,7.126-9.93,10.378-2.249,2.016-4.492,4.268-5.63,7.119-1.024,2.565-.529,5.639-.111,8.288.168,1.068,1.503,1.66,2.46,1.397,1.138-.313,1.566-1.389,1.397-2.46-.196-1.244-.285-2.518-.309-3.776-.022-1.127.004-1.616.64-2.776,1.324-2.417,3.568-4.276,5.623-6.051,3.518-3.04,6.689-6.236,9.315-10.099,7.149-10.518,8.99-23.826,4.864-35.872-3.633-10.607-11.525-20.145-22.028-24.416-10.7-4.351-23.463-3.495-33.718,1.685-4.286,2.165-8.301,5.223-11.293,9.002-3.404,4.301-5.145,9.548-5.863,14.926-.143,1.073,1.022,2,2,2,1.2,0,1.856-.924,2-2h0Z"/><path class="h" d="M254.731,157.799c1.423-1.206,3.894-1.682,5.006.047,1.124,1.748.736,3.961.13,5.825-.571,1.759-1.54,3.242-2.972,4.5-1.413,1.241-3.463,2.139-5.424,2.687-2.476.692-1.424,4.552,1.063,3.857,4.289-1.198,8.283-3.67,10.295-7.78,1.009-2.062,1.731-4.48,1.594-6.795-.153-2.595-1.224-5.394-3.669-6.638-3.04-1.547-6.366-.636-8.851,1.469-.825.699-.719,2.109,0,2.828.817.817,2.002.7,2.828,0h0Z"/><path class="h" d="M224.88,132.076c2.201,7.21,6.825,13.451,13.035,17.711.891.611,2.219.167,2.736-.718.579-.991.176-2.124-.718-2.736-5.332-3.657-9.315-9.154-11.197-15.32-.749-2.455-4.611-1.408-3.857,1.063h0Z"/><path class="h" d="M237.564,139.993c3.96,6.151,8.123,12.403,14.378,16.447.907.587,2.209.185,2.736-.718.567-.97.192-2.148-.718-2.736-5.648-3.652-9.373-9.468-12.943-15.012-.584-.907-1.776-1.279-2.736-.718-.903.528-1.305,1.824-.718,2.736h0Z"/><path class="j" d="M287.338,167.482c4.536.548,8.552,2.075,11.193,5.329,3.218,3.965,3.363,9.446,1.493,13.928-2.847,6.827-7.887,16.481-3.336,22.169-3.482,3.047-10.921-.062-13.404-1.472-3.157-1.793-5.066-4.566-6.904-7.582-2.022-3.318-3.511-9.595-3.448-11.977.046-1.724.413-4.432.766-6.546"/><path class="h" d="M287.338,169.482c3.09.394,6.343,1.364,8.659,3.541,2.342,2.202,3.368,5.256,3.221,8.431s-1.698,6.053-2.917,8.936c-1.292,3.057-2.562,6.19-3.119,9.479-.585,3.455-.435,7.161,1.778,10.048l.313-2.424c-2.115,1.736-6.129.287-8.324-.545-3.017-1.144-5.413-3.005-7.269-5.664-2.082-2.984-3.4-6.11-4.216-9.651-.767-3.327-.39-6.419.162-9.773.175-1.065-.278-2.153-1.397-2.46-.956-.263-2.284.325-2.46,1.397-.532,3.23-1.089,6.471-.585,9.731.483,3.125,1.424,6.265,2.808,9.11,1.5,3.084,3.729,6.164,6.447,8.274,2.233,1.734,4.973,2.888,7.691,3.624,3.383.916,7.122,1.123,9.972-1.216.61-.5.808-1.777.313-2.424-1.892-2.468-1.766-5.493-1.085-8.395.786-3.346,2.168-6.518,3.527-9.662,1.431-3.311,2.638-6.58,2.327-10.261s-1.843-7.163-4.625-9.63c-3.146-2.789-7.131-3.948-11.22-4.469-1.073-.137-2,1.017-2,2,0,1.195.924,1.863,2,2h0Z"/></g></svg>