<?xml version="1.0" encoding="UTF-8"?><svg id="b" xmlns="http://www.w3.org/2000/svg" width="377.449" height="334.241" viewBox="0 0 377.449 334.241"><defs><style>.f{fill:#fff;}.g{fill:#89705d;}.h{fill:#a095c1;}.i{fill:#211715;}.j{fill:#f2635f;}.k{fill:#645d5c;}.l{fill:#febe69;}</style></defs><g id="c"><g id="d"><path class="f" d="M301.486,141.323c.59,9.087,2.545,35.532,4.567,64.033h-24.447c2.126-27.945,4.219-53.923,5.021-63.552,0,0,0-.445,0-1.135,3.573-1.389,6.617-2.582,7.893-2.922.377-.101.756-.104,1.134-.008,1.031.261,3.18,1.073,5.821,2.098.001.809.001,1.356.001,1.356.003.043.006.086.008.13Z"/><path class="f" d="M286.832,292.498c-.363,2.794-.638,5.588-.836,8.393-5.057,3.33-12.432,6.363-17.611,1.782.165-3.443.341-6.875.528-10.318,5.61,1.685,12.253,1.658,17.919.143Z"/><path class="f" d="M320.624,300.319l1.936,1.54c-5.25,5.983-13.795,2.228-19.283-1.507l.165-.264c-.44-2.651-.748-5.313-.979-7.986,5.519,2.047,12.151,1.821,17.875.583.055,2.552.143,5.093.286,7.634Z"/><path class="f" d="M316.473,326.772c1.013.959,2.07,1.86,3.27,2.552,4.003,2.307,8.763,3.339,13.355,2.741,2.008-.262,4.018-.833,5.675-1.998,1.657-1.165,2.926-2.985,3.096-5.003.242-2.869-1.499-5.588-3.54-7.619-5.237-5.212-10.788-10.329-15.414-16.034-2.319,3.192-6.472,4.106-10.195,3.344-3.423-.701-6.473-2.573-9.449-4.403-2.848-1.751-3.277,6.469-3.344,8.251-.107,2.822-.57,6.549,1.669,8.636,1.609,1.499,5.056,3.251,7.159,3.894,3.436,1.05,5.208,3.263,7.717,5.639Z"/><path class="f" d="M273.68,326.772c-1.013.959-2.07,1.86-3.27,2.552-4.003,2.307-8.763,3.339-13.355,2.741-2.008-.262-4.018-.833-5.675-1.998-1.657-1.165-2.926-2.985-3.096-5.003-.242-2.869,1.499-5.588,3.54-7.619,5.237-5.212,10.788-10.329,15.414-16.034,2.319,3.192,6.472,4.106,10.195,3.344,3.423-.701,6.473-2.573,9.449-4.403,2.848-1.751,3.277,6.469,3.344,8.251.107,2.822.57,6.549-1.669,8.636-1.609,1.499-5.056,3.251-7.159,3.894-3.436,1.05-5.208,3.263-7.717,5.639Z"/><path class="i" d="M267.011,290.598c-.231,4.025-.44,8.051-.627,12.078-.049,1.047.955,2.047,2,2,1.125-.05,1.948-.879,2-2,.187-4.027.396-8.053.627-12.078.06-1.046-.963-2.046-2-2-1.135.051-1.936.879-2,2h0Z"/><path class="i" d="M285.1,290.462c-.473,3.466-.859,6.942-1.105,10.432-.074,1.046.973,2.046,2,2,1.147-.051,1.921-.88,2-2,.114-1.623.255-3.243.424-4.861.081-.777.168-1.553.261-2.328.046-.388.094-.775.144-1.162.029-.226.058-.452.088-.678.013-.097.026-.194.038-.29-.028.209-.026.193.007-.049.076-.558.095-1.033-.202-1.541-.243-.415-.718-.811-1.195-.919-.94-.214-2.309.288-2.46,1.397h0Z"/><path class="i" d="M305.375,299.554c-.123-.739-.237-1.479-.342-2.22-.013-.089-.097-.727-.038-.269-.023-.178-.046-.356-.069-.534-.045-.356-.088-.713-.129-1.07-.171-1.488-.31-2.979-.43-4.472-.083-1.04-.86-2.051-2-2-1.012.045-2.089.883-2,2,.258,3.223.618,6.439,1.149,9.629.173,1.035,1.506,1.706,2.46,1.397,1.119-.362,1.582-1.351,1.397-2.46h0Z"/><path class="i" d="M322.628,300.317c-.175-3.246-.285-6.495-.319-9.746-.011-1.046-.912-2.049-2-2-1.074.048-2.012.879-2,2,.034,3.251.144,6.5.319,9.746.056,1.043.88,2.05,2,2,1.035-.046,2.06-.881,2-2h0Z"/><path class="i" d="M315.059,328.186c3.196,2.992,7.128,4.964,11.462,5.686,4.227.704,9.18.53,12.902-1.838,3.576-2.275,5.39-6.456,3.934-10.547-1.471-4.136-5.209-7.031-8.245-10.01-3.749-3.679-7.458-7.406-10.782-11.48-.903-1.107-2.445-.51-3.141.405-2.909,3.822-8.46,2.764-12.154.945-1.115-.549-2.192-1.169-3.257-1.809-.968-.581-1.934-1.362-3.109-1.419-1.545-.074-2.691,1.025-3.308,2.338-1.212,2.582-1.321,5.656-1.445,8.464-.093,2.098-.255,4.257.302,6.311.629,2.317,2.201,3.823,4.168,5.077,2.171,1.383,4.516,2.09,6.838,3.115s4.03,3.038,5.835,4.762c1.862,1.778,4.695-1.047,2.828-2.828-1.631-1.557-3.173-3.216-5.052-4.484-1.749-1.181-3.786-1.617-5.669-2.508-1.548-.733-3.722-1.648-4.669-3.163-.965-1.544-.704-3.736-.622-5.461.12-2.527.041-5.135,1.024-7.462-.113.268.165-.285.216-.38-.222.416-.086-.001-.016.021-.04-.013.239-.002-.07.049-.206.034-.414.096-.626.123-.162.021-.321-.227-.221-.058.225.382,1.398.852,1.763,1.07,2.199,1.314,4.504,2.546,6.976,3.264,5.045,1.466,10.457.339,13.72-3.948l-3.141.405c2.489,3.05,5.192,5.91,7.97,8.696,2.683,2.69,5.592,5.224,8.125,8.056,2.041,2.283,3.35,5.58.922,8.085-2.406,2.483-6.501,2.765-9.746,2.496-4.069-.338-7.916-2.021-10.885-4.801-1.878-1.758-4.712,1.064-2.828,2.828Z"/><path class="i" d="M272.266,325.358c-2.666,2.497-5.888,3.983-9.483,4.62-3.265.578-7.4.438-10.214-1.517-1.131-.786-2.092-1.998-2.286-3.397-.223-1.61.57-3.202,1.464-4.479,1.006-1.436,2.387-2.618,3.632-3.84,1.383-1.357,2.772-2.709,4.148-4.073,3.18-3.152,6.292-6.375,9.124-9.847l-3.141-.405c2.863,3.761,7.34,5.109,11.927,4.358,2.49-.407,4.86-1.48,7.058-2.687,1.088-.598,2.162-1.232,3.209-1.898.582-.37.097-.024-.348-.123-.107-.024-.355-.251-.41-.253.086.003.255.383.151.149-.124-.279.3.651.157.312.114.269.192.555.271.836.195.698.329,1.416.431,2.134.128.898.217,2.185.266,3.247.082,1.801.338,3.74-.102,5.51-.461,1.854-2.058,2.728-3.636,3.596-2.107,1.159-4.492,1.672-6.555,2.886-2.161,1.272-3.865,3.155-5.661,4.87-1.866,1.781.966,4.607,2.828,2.828,1.637-1.563,3.162-3.325,5.169-4.425,1.924-1.054,4.122-1.56,6.072-2.616,1.868-1.011,3.921-2.264,4.932-4.208,1.04-2.002,1.128-4.309,1.04-6.517-.115-2.908-.145-6.01-1.056-8.799-.45-1.378-1.212-2.904-2.709-3.365-2.064-.636-4.021,1.232-5.684,2.169-3.993,2.249-10.464,4.485-13.895-.023-.696-.915-2.238-1.512-3.141-.405-2.931,3.592-6.161,6.917-9.455,10.174-1.652,1.633-3.32,3.251-4.973,4.883-1.488,1.469-2.966,2.993-3.924,4.876-1.941,3.813-1.423,8.21,1.893,11.084s8.215,3.542,12.449,3.104c5.01-.519,9.601-2.485,13.282-5.932,1.883-1.763-.95-4.588-2.828-2.828Z"/><path class="f" d="M327.514,204.613c.781,21.791,3.157,53.922,1.276,75.636-.231,2.651-.517,5.412-1.837,7.689-3.08,5.313-10.098,5.753-15.994,5.588-3.443-.099-7.084-.264-9.966-2.255-5.786-4.004-5.852-11.131-5.852-18.425v.365c0,7.294-.066,14.056-5.852,18.06-2.882,1.991-6.523,2.156-9.966,2.255-5.896.165-12.925-.275-15.994-5.588-1.32-2.277-1.606-5.038-1.837-7.689-1.881-21.714-.11-53.174.682-74.965"/><path class="i" d="M260.174,205.284c-.477,13.063-1.108,26.121-1.38,39.192-.143,6.849-.198,13.701-.056,20.55.129,6.198.195,12.564,1.152,18.7.502,3.216,1.805,6.276,4.402,8.343,2.29,1.822,5.088,2.73,7.956,3.133,2.897.408,5.821.406,8.739.264,3.51-.17,7.042-.733,9.91-2.908,5.032-3.815,6.073-9.931,6.216-15.881.098-4.081.029-8.172.029-12.254v-33.028c0-2.574-4-2.578-4,0v40.266c0,4.634.471,10.002-1.733,14.254-1.257,2.425-3.368,4.222-6.014,4.95-2.909.8-6.149.753-9.148.672-2.459-.066-5.032-.307-7.315-1.294-2.614-1.13-4.196-3.18-4.864-5.926-.681-2.799-.736-5.79-.911-8.656-.185-3.018-.304-6.04-.381-9.063-.164-6.394-.143-12.791-.036-19.186.234-14.051.923-28.086,1.436-42.128.094-2.574-3.906-2.571-4,0h0Z"/><path class="i" d="M325.514,204.613c.446,12.342,1.177,24.671,1.608,37.014s.735,24.882-.221,37.266c-.23,2.975-.317,6.429-2.235,8.892-1.535,1.972-3.972,2.869-6.342,3.337-2.617.516-5.332.474-7.986.385-3.057-.102-6.334-.314-8.811-2.32-4.528-3.666-4.374-10.278-4.384-15.56-.007-3.512,0-7.023,0-10.535v-31.696c0-2.574-4-2.578-4,0v29.633c0,3.851,0,7.703,0,11.554,0,5.804-.142,12.406,3.54,17.27,4.265,5.634,11.537,5.947,18.048,5.659,5.729-.254,11.991-1.955,14.502-7.677,1.367-3.116,1.509-6.625,1.746-9.976.214-3.033.344-6.072.422-9.112.173-6.681.103-13.367-.064-20.048-.369-14.705-1.29-29.387-1.821-44.086-.093-2.566-4.093-2.579-4,0h0Z"/><path class="k" d="M280.68,217.635c2.416-32.317,5.029-64.801,5.947-75.83v-8.617l-27.749.156c-2.651,1.947-4.928,4.125-6.457,6.457-4.653,7.051-7.81,16.247-10.989,24.068-4.19,10.334-7.967,22.122-12.12,32.615-.417,1.053.018,2.247,1.026,2.764,6.399,3.283,15.654,6.272,22.27,7.246l5.857.777c-1.52,28.999-3.614,66.53-4.585,81.326,0,.714.01,1.454.386,2.104,1.023,1.811,4.101,2.219,6.699,2.385,4.567.288,9.724.424,14.948.49-.039-8.965,2.257-42.362,4.767-75.94Z"/><path class="k" d="M306.814,216.132c-2.281-32.519-4.684-64.859-5.336-74.938v-7.399h29.803c2.673,2.112,4.939,4.411,6.534,6.82,4.642,7.051,7.887,15.433,11.066,23.254,4.201,10.336,7.969,22.127,12.123,32.622.416,1.052-.019,2.239-1.022,2.762-6.312,3.288-16.077,6.301-24.105,7.043-.735.104-4.715.283-7.545.401,1.793,30.676,4.361,70.138,5.129,81.652,0,.066,0,.132-.003.199.001.016.002.033.003.049,0,.714-.01,1.454-.386,2.104-1.023,1.811-4.101,2.219-6.699,2.385-4.567.288-9.724.424-14.948.49.04-9.008-2.219-43.324-4.612-77.443Z"/><path class="j" d="M325.897,110.29c9.313,5.439,16.136,10.749,23.175,17.946.211.216.259.387.235.519-.024.135-.213.305-.345.378-6.235,3.42-14.265,5.115-21.635,6.254l-14.121,2.144-41.99-1.355-9.584-1.523c-7.753-1.311-12.852-2.788-18.587-5.33-.138-.061-.35-.209-.368-.345-.022-.172.037-.333.246-.551,6.487-6.742,14.248-12.884,23.475-18.005l9.984-4.707h40.167l9.348,4.573Z"/><path class="f" d="M229.484,225.85c-1.669,1.239-3.405,2.388-5.198,3.44-2.102,1.233-4.457,2.367-6.873,2.053-.695-.09-1.403-.318-1.896-.816-.557-.564-.759-1.393-.784-2.185-.117-3.758,3.054-6.677,5.793-9.253,3.748-3.523,7.156-7.408,10.16-11.583,1.599-2.435,2.141-4.629,3.201-6.595,3.187,1.382,6.747,2.648,10.205,3.649-.971,4.25-2.079,9.102-2.079,9.102-.332,1.159-.785,3.826-1.005,5.012-.204,1.1-.57,3.422-1.059,5.989-.302,1.583-1.273,2.767-2.863,3.013-2.428.308-5.239-.841-5.74-3.266-.61.493-1.231.973-1.861,1.441Z"/><path class="f" d="M360.888,226.011c-.705-.518-1.398-1.052-2.078-1.602-.501,2.425-3.312,3.574-5.74,3.266-1.59-.246-2.562-1.43-2.863-3.013-.489-2.567-.856-4.889-1.059-5.989-.22-1.186-.673-3.853-1.005-5.012,0,0-.749-5.087-1.364-9.261,3.35-.931,6.606-2.111,9.538-3.399,1.027,1.942,1.577,4.106,3.152,6.503,3.004,4.175,6.412,8.061,10.16,11.583,2.74,2.575,5.91,5.494,5.793,9.253-.025.792-.227,1.621-.784,2.185-.493.499-1.201.726-1.896.816-2.417.313-4.771-.82-6.873-2.053-1.715-1.006-3.378-2.101-4.98-3.279Z"/><path class="i" d="M231.828,200.554c-.767,1.642-1.368,3.357-2.261,4.939-.994,1.76-2.338,3.354-3.624,4.907-2.544,3.072-5.368,5.816-8.219,8.593-2.487,2.422-4.893,5.335-4.991,8.975-.052,1.921.717,3.861,2.489,4.772,1.715.882,3.852.776,5.664.276,2.207-.61,4.23-1.844,6.147-3.061,1.99-1.264,3.888-2.659,5.728-4.133l-3.343-.883c1.2,4.741,8.539,6.702,11.506,2.504,1.418-2.007,1.45-4.994,1.857-7.35.34-1.969.637-3.973,1.162-5.902.677-2.487-3.181-3.548-3.857-1.063-.851,3.125-1.226,6.407-1.802,9.589-.269,1.486-.297,3.082-2.16,3.003-1.231-.053-2.523-.56-2.848-1.844-.402-1.587-2.226-1.777-3.343-.883-1.749,1.401-3.587,2.689-5.492,3.868-1.66,1.027-3.473,2.211-5.446,2.487-.578.081-1.757.218-2.139-.362-.375-.569-.073-1.697.102-2.273.501-1.645,1.73-3.006,2.907-4.208,2.959-3.023,6.046-5.843,8.763-9.104,1.408-1.69,2.872-3.427,4.044-5.293,1.092-1.738,1.748-3.687,2.612-5.537.457-.978.275-2.156-.718-2.736-.866-.507-2.277-.266-2.736.718h0Z"/><path class="i" d="M354.872,202.573c.864,1.85,1.52,3.799,2.612,5.537,1.133,1.803,2.543,3.481,3.899,5.119,2.756,3.328,5.895,6.2,8.908,9.278,1.176,1.202,2.406,2.564,2.907,4.208.165.542.478,1.738.102,2.273-.38.541-1.416.442-1.985.377-2.033-.232-3.898-1.45-5.599-2.503-1.906-1.179-3.743-2.467-5.492-3.868-1.117-.894-2.941-.705-3.343.883-.325,1.284-1.618,1.791-2.848,1.844-1.863.081-1.89-1.511-2.16-3.003-.576-3.183-.952-6.464-1.802-9.589-.675-2.481-4.535-1.428-3.857,1.063.512,1.881.803,3.834,1.136,5.753.416,2.399.44,5.455,1.882,7.499,2.965,4.201,10.306,2.235,11.506-2.504l-3.343.883c3.119,2.498,6.481,4.994,10.175,6.572,3.343,1.428,8.622,1.736,9.689-2.729.865-3.618-1.38-7.061-3.736-9.568-2.661-2.832-5.585-5.368-8.139-8.313-1.516-1.748-3.054-3.551-4.319-5.492-1.165-1.788-1.843-3.817-2.741-5.739-.457-.979-1.865-1.227-2.736-.718-1.003.587-1.176,1.754-.718,2.736h0Z"/><path class="i" d="M253.14,204.561c-5.661-.853-11.232-2.559-16.544-4.67-1.203-.478-2.392-.991-3.563-1.542-.453-.213-1.326-.475-1.685-.827-.374-.366-.181-.298.053-.926,1.113-2.989,2.28-5.957,3.37-8.955,4.323-11.893,8.513-23.851,13.5-35.489,1.353-3.157,2.819-6.278,4.565-9.24s3.884-5.364,6.597-7.509c.848-.671.701-2.127,0-2.828-.837-.837-1.978-.672-2.828,0-5.292,4.185-8.384,9.889-11.088,15.958-2.677,6.009-5.036,12.187-7.408,18.322-2.524,6.528-4.804,13.146-7.195,19.723-.576,1.583-1.157,3.165-1.75,4.741-.608,1.617-1.464,3.277-1.882,4.949-.876,3.499,2.382,4.949,4.975,6.102,6.289,2.797,13,5.02,19.82,6.047,1.067.161,2.15-.268,2.46-1.397.26-.945-.322-2.298-1.397-2.46h0Z"/><path class="i" d="M330.794,135.964c2.337,1.989,4.376,4.156,6.006,6.761,1.649,2.636,3.096,5.395,4.427,8.203,2.659,5.609,4.961,11.412,7.198,17.2,2.329,6.028,4.45,12.133,6.644,18.211,1.114,3.086,2.243,6.166,3.43,9.224.146.377.734,1.518.678,1.724-.036.13-.384.328-.673.474-1.182.598-2.39,1.15-3.617,1.649-6.036,2.453-12.513,4.256-19.009,4.89-1.075.105-2,.844-2,2,0,1,.918,2.106,2,2,6.416-.626,12.753-2.218,18.77-4.519,1.375-.526,2.738-1.092,4.078-1.703s2.878-1.176,3.724-2.445c.84-1.26.829-2.712.313-4.089-.608-1.623-1.251-3.234-1.857-4.858-4.833-12.955-9.222-26.058-14.826-38.714-3.09-6.979-6.559-13.815-12.458-18.835-1.95-1.659-4.793,1.157-2.828,2.828h0Z"/><path class="i" d="M284.627,141.804c-.611,7.343-1.2,14.687-1.785,22.032-.91,11.419-1.804,22.839-2.681,34.26-.976,12.712-1.931,25.426-2.849,38.143-.821,11.376-1.618,22.754-2.322,34.138-.449,7.251-.956,14.52-1.067,21.786-.007.471-.011.941-.01,1.412l2-2c-4.257-.055-8.514-.147-12.766-.365-1.749-.09-3.545-.109-5.253-.538-.521-.131-1.263-.293-1.66-.693-.434-.437-.366-1.005-.34-1.598.14-3.239.409-6.478.604-9.714.562-9.353,1.094-18.707,1.617-28.062.606-10.826,1.197-21.652,1.775-32.479.518-9.707,1.028-19.414,1.511-29.122.29-5.823.606-11.647.797-17.474.011-.325.021-.649.028-.974.062-2.575-3.938-2.574-4,0-.128,5.342-.443,10.682-.705,16.018-.474,9.636-.978,19.27-1.49,28.903-.589,11.077-1.192,22.154-1.81,33.229-.539,9.666-1.087,19.332-1.665,28.996-.204,3.412-.412,6.825-.633,10.236-.105,1.62.055,3.254,1.169,4.525,1.079,1.231,2.691,1.86,4.262,2.181,3.821.781,7.903.687,11.785.797,2.258.064,4.516.104,6.774.133,1.078.014,2.004-.928,2-2-.024-6.573.474-13.166.865-19.723.658-11.029,1.422-22.052,2.208-33.073.905-12.694,1.853-25.385,2.822-38.075.895-11.731,1.81-23.46,2.741-35.189.634-7.987,1.273-15.973,1.933-23.958.048-.584.097-1.169.145-1.753.214-2.565-3.788-2.551-4,0h0Z"/><path class="i" d="M299.477,141.193c.461,7.118.989,14.231,1.502,21.345.821,11.408,1.647,22.815,2.462,34.223.92,12.879,1.829,25.758,2.706,38.64.787,11.567,1.556,23.135,2.237,34.708.432,7.334.923,14.684,1.033,22.032.007.477.011.955.009,1.432-.004,1.071.919,2.014,2,2,4.551-.059,9.104-.158,13.648-.412,3.242-.181,7.865-.236,9.726-3.452.985-1.703.627-3.845.502-5.723-.095-1.437-.19-2.874-.284-4.312-.572-8.721-1.134-17.443-1.688-26.165-.706-11.092-1.399-22.184-2.073-33.278-.633-10.422-1.252-20.845-1.818-31.27-.364-6.708-.771-13.424-.923-20.141-.01-.429-.017-.857-.021-1.286-.02-2.573-4.02-2.579-4,0,.046,5.849.429,11.705.736,17.545.519,9.878,1.099,19.753,1.691,29.627.658,10.959,1.338,21.917,2.031,32.874.585,9.264,1.179,18.527,1.783,27.79.2,3.066.401,6.132.604,9.197.036.541.085,1.082.108,1.623.056,1.339-.169,1.93-1.502,2.34-1.714.528-3.536.56-5.312.655-2.143.115-4.289.195-6.434.255-2.258.064-4.516.104-6.774.133l2,2c.024-6.633-.46-13.285-.836-19.903-.634-11.164-1.368-22.323-2.119-33.48-.867-12.867-1.769-25.732-2.685-38.596-.839-11.789-1.691-23.578-2.541-35.367-.562-7.795-1.135-15.59-1.659-23.388-.037-.549-.073-1.098-.109-1.648-.166-2.556-4.167-2.574-4,0h0Z"/><path class="i" d="M281.604,207.356h24.453c2.574,0,2.578-4,0-4h-24.453c-2.574,0-2.578,4,0,4h0Z"/><path class="f" d="M327.038,77.758c.979-.884,2.432-1.312,3.789-1.109,1.358.203,2.594,1.022,3.215,2.138.439.783.581,1.674.662,2.543.297,3.427-.378,6.92-1.932,10.043-.757,1.522-1.743,2.978-3.114,4.087-1.053.84-2.111,1.317-3.64.851,0,0-.199-.061-.546-.166-.335,1.32-.778,2.471-.976,3.034-1.085,2.748-7.19,12.541-14.847,16.022.077.603.176,1.294.34,2.204.396,2.332,1.056,4.972,4.158,6.688.209.066,4.257,1.991,4.576,2.123,0,0-.547,7.578-25.802,7.578s-19.188-7.578-19.188-7.578c.33-.132,4.367-2.057,4.587-2.123,3.091-1.716,3.751-4.356,4.158-6.688.098-.557.175-1.027.227-1.435-3.959-1.614-7.607-4.413-10.781-7.958-3.431-3.833-5.514-7.936-6.751-11.473-.511.138-.808.218-.808.218-1.729.466-3.05-.457-4.103-1.297-1.371-1.109-2.357-2.565-3.114-4.087-1.554-3.123-2.229-6.615-1.932-10.043.081-.87.223-1.761.662-2.543.621-1.116,1.857-1.935,3.215-2.138s2.81.225,3.789,1.109c0,0-1.192-20.642,32.077-20.642s32.077,20.642,32.077,20.642Z"/><path class="l" d="M329.704,57.627c-.827-2.799-2.003-5.488-3.549-7.979-1.312-2.114-2.866-4.068-4.607-5.828-.701-.709-1.767-1.745-2.493-2.375-1.158-1.006-3.73-2.741-6.062-4.02-1.7-.933-3.47-1.73-5.294-2.374-4.032-1.422-8.291-2.058-12.551-2.058-8.409,0-15.548,2.445-21.262,6.544-6.635,4.759-14.147,13.235-14.748,26.955-.199,4.536,1.085,12.232.869,10.123,1.067.045,2.115.456,2.877,1.144l5.836-1.569c13.11-2.823,25.488-8.648,35.782-16.84.992,2.432,5.347,7.984,7.264,9.806,3.939,3.745,4.863,4.931,8.948,7.444l6.325,1.158c.903-.815,2.208-1.242,3.469-1.135.513-2.998.824-6.278.655-10.132-.132-3.01-.611-5.995-1.458-8.864Z"/><path class="i" d="M274.265,128.145c1.543-.636,3.032-1.403,4.548-2.097.116-.053.232-.104.347-.157.258-.12-.54.225-.339.142.197-.08.397-.157.584-.256.731-.387,1.423-.931,2.017-1.502,1.077-1.035,1.812-2.32,2.326-3.709.482-1.302.703-2.711.888-4.081.076-.558.096-1.033-.202-1.541-.243-.415-.718-.811-1.195-.919-.939-.214-2.31.288-2.46,1.397-.155,1.146-.341,2.309-.67,3.42-.072.243-.156.482-.241.72-.005.015-.076.173-.07.179-.008-.007.174-.373.076-.181-.069.135-.127.276-.197.411-.133.257-.28.506-.442.745-.043.064-.311.397-.127.186.182-.209-.15.167-.208.23-.202.22-.42.419-.642.617-.278.249.224-.144-.092.075-.159.111-.318.22-.483.322-.105.065-.417.171-.065.077.526-.14.167-.07.139-.049-.138.102-.371.155-.528.222-.095.041-.19.084-.285.126-.731.331-1.455.676-2.181,1.016-.418.196-.836.393-1.255.588-.237.111-1.29.563-.309.158-.964.397-1.758,1.345-1.397,2.46.3.928,1.424,1.824,2.46,1.397h0Z"/><path class="i" d="M307.648,115.194c.363,2.822.737,5.773,2.529,8.093.502.65,1.056,1.19,1.705,1.692.349.269.706.533,1.092.748.209.117.428.22.655.299.106.037-.614-.273-.329-.138.728.344,1.461.676,2.189,1.018.739.347,1.473.718,2.225,1.037.96.407,2.188.32,2.736-.718.453-.857.311-2.3-.718-2.736-.823-.349-1.625-.756-2.433-1.135-.5-.235-1-.469-1.501-.701-.16-.074-.319-.148-.48-.219-.163-.072-.552-.256-.583-.247-.141.036.402.229.178.039-.152-.128-.361-.234-.531-.341-.186-.136-.189-.135-.007.005-.086-.069-.171-.14-.254-.212-.316-.276-.598-.579-.866-.9.337.403-.059-.101-.118-.192-.103-.16-.2-.324-.291-.492-.061-.112-.254-.374-.248-.502.109.266.123.299.041.096-.033-.085-.066-.17-.096-.256-.241-.668-.404-1.36-.535-2.056-.081-.428-.155-.858-.225-1.288-.037-.227-.072-.455-.105-.682-.015-.103-.03-.207-.044-.31.038.285.043.318.014.097-.133-1.034-.824-2.053-2-2-.969.043-2.143.889-2,2h0Z"/><path class="i" d="M328.452,79.172c1.132-.947,3.133-.708,3.863.624.436.796.434,1.852.453,2.735.023,1.081-.038,2.168-.233,3.233-.388,2.119-1.121,4.17-2.271,5.998-.776,1.233-2.092,3.053-3.714,2.62-2.49-.664-3.552,3.193-1.063,3.857,3.384.903,6.031-1.291,7.875-3.921s2.872-5.869,3.26-9.043c.365-2.986.379-6.798-2.044-8.97-2.591-2.323-6.359-2.132-8.954.038-.829.693-.716,2.112,0,2.828.821.821,1.997.695,2.828,0h0Z"/><path class="i" d="M323.897,93.36c-.067,1.544-.534,3.041-1.044,4.49-.094.266-.191.532-.286.798-.125.35.194-.404.022-.06-.153.307-.297.617-.458.92-.995,1.875-2.193,3.662-3.489,5.341-3.151,4.081-7.315,8.288-12.525,9.429-2.513.551-1.45,4.408,1.063,3.857,6.07-1.33,10.931-6.108,14.604-10.863,3.134-4.058,5.884-8.642,6.113-13.913.112-2.574-3.889-2.568-4,0h0Z"/><path class="i" d="M264.298,76.344c-2.594-2.169-6.365-2.36-8.954-.038-2.482,2.226-2.407,6.153-2.014,9.195.413,3.203,1.501,6.453,3.419,9.08,1.905,2.61,4.751,4.853,8.149,4.104,2.513-.554,1.449-4.411-1.063-3.857-1.588.35-3.236-1.641-4.002-2.795-1.222-1.839-1.997-3.937-2.414-6.099-.202-1.049-.279-2.115-.269-3.183.009-.946-.015-2.101.457-2.955.735-1.329,2.727-1.575,3.863-.624.828.692,2.017.812,2.828,0,.712-.712.832-2.132,0-2.828h0Z"/><path class="i" d="M262.041,92.698c1.26,6.124,4.185,11.87,8.316,16.554,4.379,4.964,10.224,9.063,16.896,10.013,1.068.152,2.148-.262,2.46-1.397.258-.938-.321-2.307-1.397-2.46-11.598-1.651-20.169-12.842-22.418-23.773-.518-2.52-4.375-1.453-3.857,1.063h0Z"/><path class="i" d="M332.477,76.913c1.57-9.633.646-19.834-4.594-28.274-4.99-8.037-13.231-13.959-22.37-16.35-9.335-2.442-19.727-1.516-28.337,2.898-6.363,3.262-11.907,8.536-15.43,14.761-2.371,4.19-3.78,8.798-4.361,13.565-.543,4.458-.125,8.986.592,13.403.173,1.067,1.499,1.661,2.46,1.397,1.134-.312,1.57-1.39,1.397-2.46-1.179-7.273-.981-14.794,2.176-21.575,2.653-5.699,6.992-10.549,12.267-13.953,7.06-4.556,15.716-6.113,24-5.013,8.596,1.141,16.587,5.65,22.048,12.363,6.388,7.853,7.887,18.411,6.295,28.175-.174,1.065.277,2.152,1.397,2.46.955.262,2.285-.325,2.46-1.397h0Z"/><path class="i" d="M288.955,102.79c1.641,1.607,4.193,2.113,6.405,2.111s4.764-.504,6.406-2.111c.749-.733.79-2.103,0-2.828-.805-.739-2.029-.782-2.828,0-.077.075-.39.326-.065.077.335-.258-.073.041-.171.101-.129.08-.263.153-.398.221-.087.044-.195.079-.277.13.122-.076.429-.164.117-.056-.436.15-.873.278-1.327.363-.087.016-.588.131-.074.022-.132.028-.274.03-.408.042-.324.027-.649.04-.974.04-.298,0-.595-.01-.892-.033-.117-.009-.384.001-.492-.049.198.092.275.041,0-.009-.457-.082-.908-.197-1.345-.356-.17-.062-.406-.237.063.036-.073-.042-.157-.071-.232-.108-.151-.074-.299-.154-.442-.243-.109-.067-.209-.153-.32-.216.562.325.254.205.084.038-.748-.733-2.092-.802-2.828,0-.726.791-.799,2.046,0,2.828h0Z"/><path class="i" d="M294.472,89.079c.269,1.025.527,2.065.681,3.114l-.071-.532c.018.144.026.285.012.43l.071-.532c-.01.067-.025.129-.047.193l.202-.478c-.02.045-.041.083-.068.124l.313-.405c-.032.039-.062.069-.102.1l.405-.313c-.079.051-.162.091-.247.131l.478-.202c-.136.057-.27.098-.416.121l.532-.071c-.131.016-.259.015-.39,0l.532.071c-.147-.021-.292-.056-.439-.076-.266-.083-.532-.095-.798-.036-.266.012-.514.091-.744.237-.415.243-.811.718-.919,1.195-.117.512-.091,1.087.202,1.541.26.403.695.852,1.195.919.371.05.73.143,1.108.16.597.026,1.146-.16,1.678-.406.665-.307,1.188-.928,1.365-1.644.151-.61.088-1.114-.015-1.726-.169-1.003-.401-1.997-.659-2.981-.127-.483-.49-.944-.919-1.195s-1.061-.357-1.541-.202c-.484.157-.951.457-1.195.919-.253.48-.342,1.007-.202,1.541h0Z"/><path class="i" d="M278.582,80.788c-.508,1.652-.177,5.452,2.953,5.776,4.137-.025,4.357-4.619,2.964-6.78-1.14-1.769-4.492-2.504-5.917,1.004Z"/><path class="i" d="M311.571,80.788c.508,1.652.177,5.452-2.952,5.776-4.137-.025-4.357-4.62-2.964-6.78,1.14-1.769,4.492-2.504,5.917,1.004Z"/><path class="i" d="M302.747,58.205c-10.105,7.914-22.039,13.327-34.559,16.056-2.514.548-1.45,4.405,1.063,3.857,13.234-2.885,25.664-8.737,36.324-17.085.851-.667.699-2.13,0-2.828-.84-.84-1.975-.668-2.828,0h0Z"/><path class="i" d="M302.887,60.628c.819,1.714,1.979,3.281,3.119,4.792,1.204,1.596,2.446,3.186,3.83,4.632,2.978,3.112,6.198,6.005,9.868,8.274,2.196,1.357,4.207-2.101,2.019-3.454-.95-.588-1.881-1.199-2.785-1.856-.43-.312-1.259-1.01-1.869-1.565-1.499-1.363-3.004-2.764-4.404-4.228-1.207-1.262-2.373-2.712-3.346-4.011-1.088-1.454-2.192-2.959-2.977-4.604-.465-.975-1.86-1.23-2.736-.718-.997.583-1.185,1.758-.718,2.736h0Z"/><path class="j" d="M275.399,121.878c-1.431-.611-3.019.299-3.382,1.947l-4.2,19.048c-.222,1.006-.387,2.237.31,2.929.535.532,1.346.487,2.06.394,5.201-.675,20.956-7.548,24.334-8.448.377-.101.756-.104,1.134-.008,3.416.865,19.125,7.783,24.311,8.456.715.093,1.525.138,2.06-.394.696-.692.531-1.923.31-2.929l-4.2-19.048c-.363-1.648-1.951-2.558-3.382-1.947-7.517,3.213-18.695,8.314-19.678,8.314s-12.16-5.101-19.678-8.314Z"/><path class="i" d="M275.931,119.949c-3.008-1.053-5.374,1.222-5.984,3.986l-1.275,5.785c-.917,4.159-1.873,8.311-2.751,12.478-.292,1.386-.528,2.924.206,4.221,1.108,1.957,3.279,1.966,5.238,1.6,2.691-.502,5.315-1.494,7.88-2.421,3.085-1.115,6.14-2.311,9.197-3.499,1.286-.5,2.571-1,3.864-1.482.804-.3,1.734-.785,2.593-.898.708-.093,1.575.366,2.242.606,1.227.441,2.443.913,3.659,1.384,3.101,1.202,6.192,2.427,9.312,3.578,2.687.992,5.415,2.026,8.22,2.637,1.737.378,3.705.632,5.109-.709,1.342-1.282,1.157-3.268.816-4.911-.824-3.972-1.747-7.925-2.621-11.886l-1.361-6.17c-.539-2.444-2.052-4.744-4.903-4.542-1.895.134-3.958,1.446-5.684,2.201-1.879.821-3.756,1.647-5.634,2.471-2.792,1.224-5.574,2.528-8.441,3.571-.224.081-.721.141-.9.291.216-.181,1.164.182.354-.106-1.067-.38-2.116-.802-3.16-1.24-3.435-1.443-6.837-2.968-10.25-4.463-1.747-.765-3.496-1.528-5.249-2.278-.992-.425-2.144-.296-2.736.718-.492.842-.281,2.309.718,2.736,6.226,2.665,12.355,5.629,18.683,8.049.645.247,1.345.549,2.05.536.765-.014,1.528-.367,2.225-.639,2.944-1.15,5.832-2.45,8.726-3.719,1.708-.749,3.416-1.5,5.125-2.248.836-.366,1.672-.73,2.509-1.093.456-.198,1.512-.91,2.01-.798.688.154.862,2.351.976,2.867l2.976,13.497c.246,1.114.505,2.227.737,3.344.062.297.088.58.121.88.015.132.375.083-.013-.036-.354-.108-.891-.124-1.309-.219-1.184-.271-2.348-.631-3.502-1.006-5.628-1.832-11.075-4.164-16.618-6.227-2.017-.751-3.782-1.429-5.939-.714-2.218.735-4.387,1.627-6.564,2.474-5.225,2.032-10.584,4.473-16.106,5.576-.259.052-1.079.109-.956.233.131.13.193-.802.236-1.007.089-.425.187-.848.281-1.272l1.306-5.921c.853-3.868,1.64-7.758,2.56-11.611.144-.605.291-.979.964-.743,2.434.853,3.481-3.01,1.063-3.857Z"/><path class="i" d="M324.888,112.016c4.215,2.47,8.331,5.128,12.194,8.124,1.793,1.39,3.531,2.852,5.22,4.367.909.815,1.804,1.647,2.684,2.493.827.795,1.905,1.603,2.565,2.536l-.273-1.009.03.228.273-1.009c.184-.296-.757.252-.886.315-.429.213-.863.417-1.3.613-.734.328-1.481.623-2.235.902-1.747.646-3.53,1.192-5.331,1.668-3.63.96-7.326,1.638-11.033,2.216-1.068.166-1.66,1.504-1.397,2.46.313,1.14,1.389,1.564,2.46,1.397,3.779-.589,7.547-1.282,11.243-2.272,3.604-.966,7.478-2.143,10.693-4.088.799-.483,1.498-1.201,1.513-2.201s-.605-1.717-1.267-2.387c-1.307-1.323-2.642-2.617-4.012-3.875-2.639-2.423-5.409-4.697-8.284-6.833-3.47-2.578-7.109-4.913-10.838-7.098-2.226-1.304-4.241,2.152-2.019,3.454h0Z"/><path class="i" d="M265.39,108.697c-6.52,3.637-12.654,7.955-18.243,12.908-1.306,1.157-2.581,2.349-3.823,3.574-1.195,1.178-3.469,2.884-2.372,4.81.777,1.366,2.861,1.843,4.227,2.385,1.423.565,2.866,1.08,4.326,1.54,3.79,1.194,7.683,2.001,11.596,2.669,1.064.182,2.154-.282,2.46-1.397.264-.961-.326-2.277-1.397-2.46-3.382-.577-6.75-1.255-10.05-2.204-1.423-.409-2.831-.866-4.221-1.375-1.33-.487-2.864-.935-4.067-1.694l.718.718-.139-.201.202,1.541c.015-.105.771-.733.98-.943.376-.377.754-.75,1.136-1.12.867-.841,1.749-1.666,2.647-2.475,1.78-1.604,3.616-3.149,5.513-4.613,3.956-3.053,8.163-5.776,12.526-8.21,2.248-1.254.234-4.71-2.019-3.454h0Z"/><path class="k" d="M277.91,33.187c1.753-11.059,3.318-19.5,4.575-26.719.387-2.221,2.835-4.28,4.949-4.398,6.828-.383,15.619.902,22.504,2.374,6.71,1.435,15.41,3.644,21.515,6.726,1.89.954,3.218,3.44,2.727,5.64-1.852,8.29-3.682,15.171-7.603,29.449,2.889,2.688,7.648,4.406,10.287,7.72,1.504,1.889,2.031,4.366,1.04,6.384-1.063,2.166-3.92,3.005-6.523,3.383-11.191,1.625-22.349-.261-33.567-2.247-11.049-2.775-22.003-5.616-31.551-11.675-2.221-1.409-4.458-3.378-4.57-5.755-.106-2.248,1.414-4.293,3.559-5.401,2.328-1.203,5.147-1.517,7.843-1.882,1.484-.201,4.673-2.7,4.815-3.597Z"/><path class="i" d="M322.911,48.877c-2.96.822-6.162.749-9.202.595-4.549-.23-9.065-.924-13.513-1.886-4.336-.938-8.632-2.133-12.779-3.715-2.762-1.054-5.896-2.393-8.093-4.214-1.968-1.631-4.813,1.183-2.828,2.828,4.504,3.734,10.532,5.705,16.066,7.305,7.276,2.104,14.917,3.523,22.502,3.735,2.957.083,6.043.005,8.911-.791,2.477-.688,1.425-4.548-1.063-3.857h0Z"/><path class="i" d="M271.925,34.941c-3.786.509-8.014,1.181-10.546,4.357-2.41,3.022-2.03,6.779.525,9.567,2.6,2.836,6.526,4.684,9.953,6.303,3.622,1.711,7.38,3.129,11.194,4.348,3.903,1.248,7.865,2.297,11.835,3.305,4.298,1.092,8.722,1.745,13.112,2.363,4.367.615,8.759,1.087,13.172,1.164,4.179.073,8.64-.02,12.711-1.06,3.987-1.019,7.08-3.938,6.422-8.33-.669-4.473-4.726-7.098-8.268-9.294-2.194-1.36-4.205,2.099-2.019,3.454,2.382,1.477,5.994,3.4,6.376,6.534.348,2.85-2.606,3.65-4.828,4.049-7.197,1.29-14.823.674-22.017-.305-3.732-.508-7.518-1.034-11.201-1.826-3.348-.72-6.678-1.686-9.969-2.625-6.646-1.897-13.207-4.208-19.202-7.694-2.075-1.206-6.527-3.46-5.26-6.539,1.328-3.226,6.167-3.522,9.074-3.913,1.072-.144,1.655-1.52,1.397-2.46-.318-1.157-1.385-1.542-2.46-1.397h0Z"/><path class="i" d="M279.885,33.422c1.194-7.5,2.507-14.978,3.831-22.456.445-2.513.457-6.393,3.718-6.898,1.806-.28,3.822-.079,5.639.013,1.942.098,3.879.275,5.809.505,7.463.888,14.924,2.537,22.115,4.712,1.788.541,3.564,1.129,5.311,1.793,1.511.574,3.435,1.136,4.713,2.155,2.271,1.811.76,5.146.217,7.437-1.752,7.389-3.76,14.716-5.765,22.04-.681,2.486,3.177,3.547,3.857,1.063,1.939-7.083,3.881-14.168,5.591-21.31.766-3.2,2.098-6.637.593-9.802-1.689-3.552-6.251-4.792-9.678-6.002-7.667-2.707-15.778-4.517-23.82-5.672-4.182-.6-8.408-1.048-12.638-.996-1.979.024-3.808.155-5.497,1.298-1.607,1.087-2.904,2.715-3.324,4.634-.837,3.826-1.372,7.75-2.047,11.608-.863,4.933-1.694,9.87-2.481,14.816-.17,1.065.274,2.152,1.397,2.46.952.262,2.289-.324,2.46-1.397h0Z"/></g><g id="e"><path class="l" d="M143.554,95.063c6.083-1.65,10.109,2.739,10.626,6.105.891,5.632,1.485,14.036,6.776,15.928-1.067,3.41-7.205,4.367-9.405,4.433-2.794.11-5.181-.946-7.601-2.2-2.365-1.221-4.499-3.102-5.786-5.423-.132-.231-.242-.462-.33-.715"/><path class="i" d="M144.085,96.991c2.562-.645,5.193-.087,6.928,2.004,1.454,1.753,1.441,4.148,1.777,6.342.801,5.237,2.1,11.565,7.634,13.687l-1.397-2.46c-.799,2.263-5.365,2.869-7.317,2.959-2.429.111-4.64-.807-6.751-1.921-2.014-1.063-4.306-2.749-5.197-4.943-.406-1-1.332-1.707-2.46-1.397-.948.261-1.806,1.453-1.397,2.46,1.226,3.02,3.695,5.452,6.508,7.046s6.003,2.905,9.298,2.754c4.137-.19,9.638-1.543,11.174-5.895.384-1.089-.447-2.096-1.397-2.46-2.171-.833-3.141-3.426-3.731-5.47-.8-2.77-1.129-5.646-1.559-8.489-.403-2.66-1.846-4.921-3.998-6.526-2.661-1.985-6.016-2.343-9.176-1.548-2.495.628-1.438,4.487,1.063,3.857h0Z"/><path class="f" d="M97.776,60.473c-14.348,6.126-12.325,18.492-12.325,18.492-.979-.884-2.432-1.312-3.789-1.109s-2.594,1.022-3.215,2.138c-.439.783-.581,1.674-.662,2.543-.297,3.427.378,6.92,1.932,10.043.757,1.522,1.743,2.978,3.114,4.087,1.053.84,2.374,1.762,4.103,1.297,0,0,.297-.08.808-.218,1.237,3.537,3.32,7.64,6.751,11.473,2.878,3.215,6.147,5.817,9.683,7.477-.047.517-.142,1.131-.281,1.916-.372,2.131-.955,4.519-3.412,6.224,4.777,4.84,11.425,6.548,18.049,6.548,5.288,0,11.348-1.142,15.864-6.866-2.113-1.675-2.648-3.906-2.989-5.91-.121-.691-.208-1.261-.273-1.749,8.156-3.002,14.793-13.598,15.928-16.475.199-.565.644-1.72.979-3.046.347.116.547.182.547.182.066.022.132.044.198.055,1.43.363,2.431-.099,3.443-.913,1.364-1.111,2.354-2.563,3.113-4.081,1.551-3.124,2.222-6.622,1.925-10.043-.077-.869-.22-1.76-.66-2.552-.616-1.111-1.859-1.925-3.212-2.134-1.089-.154-2.233.088-3.146.627,0,0-.143-21.365-32.323-21.365-8.929,0-15.428,1.34-20.151,3.357Z"/><path class="i" d="M95.68,129.489c1.543-.636,3.032-1.403,4.548-2.097.116-.053.232-.104.347-.157.258-.12-.54.225-.339.142.197-.08.397-.157.584-.256.731-.387,1.423-.931,2.017-1.502,1.077-1.035,1.812-2.32,2.326-3.709.482-1.302.703-2.711.888-4.081.076-.558.096-1.033-.202-1.541-.243-.415-.718-.811-1.195-.919-.939-.214-2.31.288-2.46,1.397-.155,1.146-.341,2.309-.67,3.42-.072.243-.156.482-.241.72-.005.015-.076.173-.07.179-.008-.007.174-.373.076-.181-.069.135-.127.276-.197.411-.133.257-.28.506-.442.745-.043.064-.311.397-.127.186.182-.209-.15.167-.208.23-.202.22-.42.419-.642.617-.278.249.224-.144-.092.075-.159.111-.318.22-.483.322-.105.065-.417.171-.065.077.526-.14.167-.07.139-.049-.138.102-.371.155-.528.222-.095.041-.19.084-.285.126-.731.331-1.455.676-2.181,1.016-.418.196-.836.393-1.255.588-.237.111-1.29.563-.309.158-.964.397-1.758,1.345-1.397,2.46.3.928,1.424,1.824,2.46,1.397h0Z"/><path class="i" d="M129.203,117.519c.371,2.736.916,5.392,2.747,7.559.514.609,1.139,1.114,1.787,1.572.41.29.828.527,1.296.714.043.017-.639-.283-.234-.097.737.338,1.471.682,2.205,1.027.707.332,1.408.686,2.127.991.96.407,2.188.32,2.736-.718.453-.857.311-2.3-.718-2.736-1.342-.569-2.644-1.241-3.967-1.851-.337-.155-.726-.279-1.045-.457-.012-.007.446.235.123.005-.141-.1-.294-.184-.437-.283-.131-.091-.374-.318-.122-.085-.134-.124-.278-.238-.411-.365-.217-.208-.41-.432-.607-.658-.149-.172.097.111.094.12.006-.016-.11-.155-.122-.174-.092-.134-.179-.271-.261-.411-.138-.235-.257-.478-.374-.723-.163-.338.119.338-.003-.014-.05-.145-.105-.288-.153-.434-.427-1.303-.622-2.691-.805-4.045-.141-1.041-1.528-1.699-2.46-1.397-1.144.37-1.548,1.345-1.397,2.46h0Z"/><path class="l" d="M127.181,60.963c1.2,2.57,5.305,7.782,7.151,9.537,5.225,4.967,5.144,5.433,14.175,10.464.416-1.974,2.547-3.162,4.568-3.006.512-2.992.823-6.27.654-10.123-.261-5.947-1.877-11.798-5.007-16.843-1.312-2.114-2.866-4.068-4.607-5.828-.701-.709-1.767-1.745-2.493-2.375-1.158-1.006-3.73-2.741-6.062-4.02-1.7-.933-3.47-1.73-5.294-2.374-4.032-1.422-8.291-2.058-12.551-2.058-8.409,0-15.548,2.445-21.262,6.544-6.635,4.759-14.147,13.235-14.748,26.955-.199,4.538,1.086,12.237.868,10.121.816.034,1.621.284,2.295.707,15.318-2.109,29.959-8.332,41.86-17.701"/><path class="i" d="M151.019,80.517c1.132-.947,3.133-.708,3.863.624.436.796.434,1.852.453,2.735.023,1.081-.038,2.168-.233,3.233-.388,2.119-1.121,4.17-2.271,5.998-.776,1.233-2.092,3.053-3.714,2.62-2.49-.664-3.552,3.193-1.063,3.857,3.384.903,6.031-1.291,7.875-3.921s2.872-5.869,3.26-9.043c.365-2.986.379-6.798-2.044-8.97-2.591-2.323-6.359-2.132-8.954.038-.829.693-.716,2.112,0,2.828.821.821,1.997.695,2.828,0h0Z"/><path class="i" d="M86.865,77.688c-2.594-2.169-6.365-2.36-8.954-.038-2.482,2.226-2.407,6.153-2.014,9.195.413,3.203,1.501,6.453,3.419,9.08,1.905,2.61,4.751,4.853,8.149,4.104,2.513-.554,1.449-4.411-1.063-3.857-1.588.35-3.236-1.641-4.002-2.795-1.222-1.839-1.997-3.937-2.414-6.099-.202-1.049-.279-2.115-.269-3.183.009-.946-.015-2.101.457-2.955.735-1.329,2.727-1.575,3.863-.624.828.692,2.017.812,2.828,0,.712-.712.832-2.132,0-2.828h0Z"/><path class="i" d="M125.314,59.549c-10.105,7.914-22.039,13.327-34.559,16.056-2.514.548-1.45,4.405,1.063,3.857,13.234-2.885,25.664-8.737,36.324-17.085.851-.667.699-2.13,0-2.828-.84-.84-1.975-.668-2.828,0h0Z"/><path class="i" d="M125.454,61.973c.819,1.714,1.979,3.281,3.119,4.792,1.204,1.596,2.446,3.186,3.83,4.632,2.978,3.112,6.198,6.005,9.868,8.274,2.196,1.357,4.207-2.101,2.019-3.454-.95-.588-1.881-1.199-2.785-1.856-.43-.312-1.259-1.01-1.869-1.565-1.499-1.363-3.004-2.764-4.404-4.228-1.207-1.262-2.373-2.712-3.346-4.011-1.088-1.454-2.192-2.959-2.977-4.604-.465-.975-1.86-1.23-2.736-.718-.997.583-1.185,1.758-.718,2.736h0Z"/><path class="i" d="M146.464,94.704c-.067,1.544-.534,3.041-1.044,4.49-.094.266-.191.532-.286.798-.125.35.194-.404.022-.06-.153.307-.297.617-.458.92-.995,1.875-2.193,3.662-3.489,5.341-3.151,4.081-7.315,8.288-12.525,9.429-2.513.551-1.45,4.408,1.063,3.857,6.07-1.33,10.931-6.108,14.604-10.863,3.134-4.058,5.884-8.642,6.113-13.913.112-2.574-3.889-2.568-4,0h0Z"/><path class="i" d="M84.608,94.042c1.26,6.124,4.185,11.87,8.316,16.554,4.379,4.964,10.224,9.063,16.896,10.013,1.068.152,2.148-.262,2.46-1.397.258-.938-.321-2.307-1.397-2.46-11.598-1.651-20.169-12.842-22.418-23.773-.518-2.52-4.375-1.453-3.857,1.063h0Z"/><path class="i" d="M155.044,78.257c1.57-9.633.646-19.834-4.594-28.274-4.99-8.037-13.231-13.959-22.37-16.35-9.335-2.442-19.727-1.516-28.337,2.898-6.363,3.262-11.907,8.536-15.43,14.761-2.371,4.19-3.78,8.798-4.361,13.565-.543,4.458-.125,8.986.592,13.403.173,1.067,1.499,1.661,2.46,1.397,1.134-.312,1.57-1.39,1.397-2.46-1.179-7.273-.981-14.794,2.176-21.575,2.653-5.699,6.992-10.549,12.267-13.953,7.06-4.556,15.716-6.113,24-5.013,8.596,1.141,16.587,5.65,22.048,12.363,6.388,7.853,7.887,18.411,6.295,28.175-.174,1.065.277,2.152,1.397,2.46.955.262,2.285-.325,2.46-1.397h0Z"/><path class="i" d="M111.522,104.134c1.641,1.607,4.193,2.113,6.405,2.111s4.764-.504,6.406-2.111c.749-.733.79-2.103,0-2.828-.805-.739-2.029-.782-2.828,0-.077.075-.39.326-.065.077.335-.258-.073.041-.171.101-.129.08-.263.153-.398.221-.087.044-.195.079-.277.13.122-.076.429-.164.117-.056-.436.15-.873.278-1.327.363-.087.016-.588.131-.074.022-.132.028-.274.03-.408.042-.324.027-.649.04-.974.04-.298,0-.595-.01-.892-.033-.117-.009-.384.001-.492-.049.198.092.275.041,0-.009-.457-.082-.908-.197-1.345-.356-.17-.062-.406-.237.063.036-.073-.042-.157-.071-.232-.108-.151-.074-.299-.154-.442-.243-.109-.067-.209-.153-.32-.216.562.325.254.205.084.038-.748-.733-2.092-.802-2.828,0-.726.791-.799,2.046,0,2.828h0Z"/><path class="i" d="M117.039,90.424c.269,1.025.527,2.065.681,3.114l-.071-.532c.018.144.026.285.012.43l.071-.532c-.01.067-.025.129-.047.193l.202-.478c-.02.045-.041.083-.068.124l.313-.405c-.032.039-.062.069-.102.1l.405-.313c-.079.051-.162.091-.247.131l.478-.202c-.136.057-.27.098-.416.121l.532-.071c-.131.016-.259.015-.39,0l.532.071c-.147-.021-.292-.056-.439-.076-.266-.083-.532-.095-.798-.036-.266.012-.514.091-.744.237-.415.243-.811.718-.919,1.195-.117.512-.091,1.087.202,1.541.26.403.695.852,1.195.919.371.05.73.143,1.108.16.597.026,1.146-.16,1.678-.406.665-.307,1.188-.928,1.365-1.644.151-.61.088-1.114-.015-1.726-.169-1.003-.401-1.997-.659-2.981-.127-.483-.49-.944-.919-1.195s-1.061-.357-1.541-.202c-.484.157-.951.457-1.195.919-.253.48-.342,1.007-.202,1.541h0Z"/><path class="i" d="M101.149,82.133c-.508,1.652-.177,5.452,2.953,5.776,4.137-.025,4.357-4.619,2.964-6.78-1.14-1.769-4.492-2.504-5.917,1.004Z"/><path class="i" d="M134.138,82.133c.508,1.652.177,5.452-2.952,5.776-4.137-.025-4.357-4.62-2.964-6.78,1.14-1.769,4.492-2.504,5.917,1.004Z"/><path class="h" d="M80.246,52.454c-1.979-1.299-3.637-2.895-3.846-4.699-.259-2.239,1.421-4.239,3.896-5.295,3.424-1.46,7.876-1.467,11.739-1.983,12.459-11.313,18.167-18.511,32.011-26.239,3.107-1.734,6.78-1.948,10.475-1.64,6.325.528,11.871,4.307,15.553,9.481,3.568,5.014,6.422,9.608,9.201,14.478.467.819-.308,1.817-1.244,1.7-2.902-.361-5.612-.928-8.889-1.34,1.901,5.2,3.038,9.494,4.313,16.114,4.577,3.858,9.673,4.517,13.049,8.654.646.792.812,1.631.743,2.618-.099,1.419-1.889,2.34-3.327,2.721-5.938,1.572-13.959,1.38-20.406,1.03-7.388-.401-14.933-1.106-22.221-2.457-13.608-2.522-27.47-5.781-39.14-12.017-.645-.345-1.293-.721-1.909-1.125Z"/><path class="i" d="M88.724,38.83c-4.178.397-9.274.689-12.379,3.916-1.281,1.331-2.111,3.135-1.945,5.009.182,2.057,1.452,3.775,3.001,5.063,3.478,2.891,7.962,4.68,12.118,6.358,4.273,1.725,8.67,3.132,13.115,4.34,9.248,2.512,18.756,4.411,28.277,5.504,4.91.564,9.846.924,14.783,1.141,4.338.19,8.709.251,13.032-.218,3.711-.403,10.711-1.028,10.53-6.179-.173-4.92-6.19-7.379-9.902-9.303-2.282-1.183-4.307,2.267-2.019,3.454,1.586.822,3.212,1.583,4.725,2.539,1.035.654,2.944,1.829,3.191,3.135.233,1.233-1.941,1.54-2.769,1.729-1.712.391-3.449.621-5.197.761-7.852.631-15.885.004-23.704-.773-8.371-.832-16.664-2.414-24.843-4.365-7.685-1.833-15.335-4.12-22.482-7.527-1.962-.935-4.002-1.887-5.744-3.201-1.089-.821-2.564-2.102-2.006-3.622.546-1.487,2.269-2.258,3.668-2.689,2.126-.655,4.345-.862,6.549-1.071,1.075-.102,2-.846,2-2,0-1.002-.918-2.103-2-2h0Z"/><path class="i" d="M144.685,54.456c-5.56.571-11.173.05-16.668-.864-7.46-1.241-14.924-3.001-21.946-5.85-2.541-1.031-5.422-2.369-7.436-4.029-1.972-1.625-4.817,1.189-2.828,2.828,4.823,3.975,11.263,6.073,17.175,7.789,7.37,2.139,15.082,3.654,22.744,4.207,2.985.215,5.982.224,8.96-.081,1.074-.11,2-.84,2-2,0-.996-.919-2.111-2-2h0Z"/><path class="i" d="M147.445,38.088c1.507,4.217,2.658,8.524,3.57,12.906.214,1.026,1.478,1.715,2.46,1.397,1.085-.351,1.626-1.361,1.397-2.46-.912-4.382-2.062-8.69-3.57-12.906-.351-.983-1.379-1.747-2.46-1.397-.968.313-1.774,1.405-1.397,2.46h0Z"/><path class="i" d="M96.753,38.843c8.172-7.642,15.963-15.548,25.631-21.335,2.633-1.576,5.058-2.822,8.181-2.994,2.902-.161,5.806.135,8.531,1.18,5.488,2.103,8.857,6.671,12.001,11.382,2.028,3.039,3.944,6.15,5.774,9.312l.226.392c.193.57.337.521.433-.147.625-.287.688-.425.188-.414l-.42-.059c-.84-.119-1.676-.257-2.513-.394-1.96-.321-3.919-.63-5.89-.878-1.074-.135-2,1.016-2,2,0,1.193.923,1.865,2,2,1.756.221,3.501.521,5.248.804,1.656.269,3.909,1.028,5.487.221,3.879-1.985.171-6.486-1.259-8.846-3.608-5.956-7.324-12.504-13.136-16.575-5.344-3.742-12.674-5.103-18.988-3.303-3.255.928-6.234,3.006-9.038,4.845-2.67,1.75-5.236,3.655-7.709,5.674-5.464,4.46-10.428,9.496-15.574,14.309-1.884,1.762.949,4.586,2.828,2.828h0Z"/><path class="f" d="M96.247,326.772c-1.013.959-2.07,1.86-3.27,2.552-4.003,2.307-8.763,3.339-13.355,2.741-2.008-.262-4.018-.833-5.675-1.998-1.657-1.165-2.926-2.985-3.096-5.003-.242-2.869,1.499-5.588,3.54-7.619,5.237-5.212,10.788-10.329,15.414-16.034,2.319,3.192,6.472,4.106,10.195,3.344,3.423-.701,6.473-2.573,9.449-4.403,2.848-1.751,3.277,6.469,3.344,8.251.107,2.822.57,6.549-1.669,8.636-1.609,1.499-5.056,3.251-7.159,3.894-3.436,1.05-5.208,3.263-7.717,5.639Z"/><path class="f" d="M139.04,326.772c1.013.959,2.07,1.86,3.27,2.552,4.003,2.307,8.763,3.339,13.355,2.741,2.008-.262,4.018-.833,5.675-1.998,1.657-1.165,2.926-2.985,3.096-5.003.242-2.869-1.499-5.588-3.54-7.619-5.237-5.212-10.788-10.329-15.414-16.034-2.319,3.192-6.472,4.106-10.195,3.344-3.423-.701-6.473-2.573-9.449-4.403-2.848-1.751-3.277,6.469-3.344,8.251-.107,2.822-.57,6.549,1.669,8.636,1.609,1.499,5.056,3.251,7.159,3.894,3.436,1.05,5.208,3.263,7.717,5.639Z"/><path class="f" d="M92.093,302.688c0,.278-.001.565-.002.855,2.288,1.437,5.211,1.765,7.908,1.213,3.286-.673,6.228-2.425,9.092-4.184.42-2.304.734-4.621.976-6.947-5.895-.01-10.978-.077-17.707-.421-.055,2.189-.143,4.379-.263,6.567,0,0,0,1.308-.004,2.917Z"/><path class="f" d="M144.343,302.168c-.138-2.986-.287-5.971-.447-8.955-6.742.341-11.848.404-17.806.412.287,2.427.514,4.862.685,7.3,2.68,1.635,5.446,3.203,8.512,3.831,3.183.652,6.68.077,9.078-2.096-.008-.164-.015-.328-.023-.491Z"/><path class="i" d="M141.709,290.598c.231,4.025.44,8.051.627,12.078.049,1.044.885,2.05,2,2,1.042-.047,2.052-.881,2-2-.187-4.027-.396-8.053-.627-12.078-.06-1.043-.877-2.05-2-2-1.032.046-2.064.881-2,2h0Z"/><path class="i" d="M123.763,291.525c.065.479-.024-.195.033.242.03.226.059.452.088.678.05.387.098.775.144,1.162.097.807.188,1.616.273,2.425.169,1.618.31,3.239.424,4.861.073,1.041.867,2.051,2,2,1.021-.046,2.079-.882,2-2-.246-3.49-.632-6.965-1.105-10.432-.142-1.04-1.527-1.699-2.46-1.397-1.144.37-1.549,1.345-1.397,2.46h0Z"/><path class="i" d="M111.202,300.617c.532-3.19.892-6.406,1.149-9.629.084-1.045-.98-2.046-2-2-1.155.052-1.91.88-2,2-.119,1.493-.258,2.984-.43,4.472-.041.357-.084.714-.129,1.07-.022.178-.046.356-.069.534.057-.444-.012.085-.025.18-.108.771-.226,1.541-.354,2.309-.171,1.028.269,2.203,1.397,2.46.966.22,2.276-.293,2.46-1.397h0Z"/><path class="i" d="M94.092,300.317c.175-3.246.285-6.495.319-9.746.011-1.046-.928-2.048-2-2-1.093.049-1.988.879-2,2-.034,3.251-.144,6.5-.319,9.746-.056,1.046.96,2.047,2,2,1.132-.051,1.94-.879,2-2h0Z"/><path class="i" d="M94.833,325.358c-2.666,2.497-5.888,3.983-9.483,4.62-3.265.578-7.4.438-10.214-1.517-1.131-.786-2.092-1.998-2.286-3.397-.223-1.61.57-3.202,1.464-4.479,1.006-1.436,2.387-2.618,3.632-3.84,1.383-1.357,2.772-2.709,4.148-4.073,3.18-3.152,6.292-6.375,9.124-9.847l-3.141-.405c2.863,3.761,7.34,5.109,11.927,4.358,2.49-.407,4.86-1.48,7.058-2.687,1.088-.598,2.162-1.232,3.209-1.898.582-.37.097-.024-.348-.123-.107-.024-.355-.251-.41-.253.086.003.255.383.151.149-.124-.279.3.651.157.312.114.269.192.555.271.836.195.698.329,1.416.431,2.134.128.898.217,2.185.266,3.247.082,1.801.338,3.74-.102,5.51-.461,1.854-2.058,2.728-3.636,3.596-2.107,1.159-4.492,1.672-6.555,2.886-2.161,1.272-3.865,3.155-5.661,4.87-1.866,1.781.966,4.607,2.828,2.828,1.637-1.563,3.162-3.325,5.169-4.425,1.924-1.054,4.122-1.56,6.072-2.616,1.868-1.011,3.921-2.264,4.932-4.208,1.04-2.002,1.128-4.309,1.04-6.517-.115-2.908-.145-6.01-1.056-8.799-.45-1.378-1.212-2.904-2.709-3.365-2.064-.636-4.021,1.232-5.684,2.169-3.993,2.249-10.464,4.485-13.895-.023-.696-.915-2.238-1.512-3.141-.405-2.931,3.592-6.161,6.917-9.455,10.174-1.652,1.633-3.32,3.251-4.973,4.883-1.488,1.469-2.966,2.993-3.924,4.876-1.941,3.813-1.423,8.21,1.893,11.084s8.215,3.542,12.449,3.104c5.01-.519,9.601-2.485,13.282-5.932,1.883-1.763-.95-4.588-2.828-2.828Z"/><path class="i" d="M137.626,328.186c3.196,2.992,7.128,4.964,11.462,5.686,4.227.704,9.18.53,12.902-1.838,3.576-2.275,5.39-6.456,3.934-10.547-1.471-4.136-5.209-7.031-8.245-10.01-3.749-3.679-7.458-7.406-10.782-11.48-.903-1.107-2.445-.51-3.141.405-2.909,3.822-8.46,2.764-12.154.945-1.115-.549-2.192-1.169-3.257-1.809-.968-.581-1.934-1.362-3.109-1.419-1.545-.074-2.691,1.025-3.308,2.338-1.212,2.582-1.321,5.656-1.445,8.464-.093,2.098-.255,4.257.302,6.311.629,2.317,2.201,3.823,4.168,5.077,2.171,1.383,4.516,2.09,6.838,3.115s4.03,3.038,5.835,4.762c1.862,1.778,4.695-1.047,2.828-2.828-1.631-1.557-3.173-3.216-5.052-4.484-1.749-1.181-3.786-1.617-5.669-2.508-1.548-.733-3.722-1.648-4.669-3.163-.965-1.544-.704-3.736-.622-5.461.12-2.527.041-5.135,1.024-7.462-.113.268.165-.285.216-.38-.222.416-.086-.001-.016.021-.04-.013.239-.002-.07.049-.206.034-.414.096-.626.123-.162.021-.321-.227-.221-.058.225.382,1.398.852,1.763,1.07,2.199,1.314,4.504,2.546,6.976,3.264,5.045,1.466,10.457.339,13.72-3.948l-3.141.405c2.489,3.05,5.192,5.91,7.97,8.696,2.683,2.69,5.592,5.224,8.125,8.056,2.041,2.283,3.35,5.58.922,8.085-2.406,2.483-6.501,2.765-9.746,2.496-4.069-.338-7.916-2.021-10.885-4.801-1.878-1.758-4.712,1.064-2.828,2.828Z"/><path class="h" d="M74.814,209.966c-11.038-6.442-16.37-20.173-12.721-33.874.968-3.637,1.885-7.106,2.979-10.954,2.704-9.513,5.37-16.68,10.016-23.732,3.408-5.174,9.928-9.817,16.843-13.266l7.883-3.457.389-.171c4.778,5.092,11.566,6.873,18.329,6.873,5.31,0,11.397-1.151,15.919-6.936,3.068,1.089,5.557,2.074,8.873,3.468,6.915,3.45,13.467,8.315,16.875,13.489,4.646,7.053,9.188,19.516,12.421,32.331.8,3.35,1.349,6.87,1.2,10.442-.378,9.062-4.522,18.195-12.431,22.633,0,0-4.826,2.641-9.227,5.05,1.793,25.055,4.595,64.491,5.397,76.483,0,.715-.022,1.452-.385,2.112-1.023,1.804-4.543,2.464-7.128,2.629-9.9.627-22.154.539-32.285.539s-22.792.088-32.703-.539c-2.596-.165-5.676-.572-6.699-2.387-.374-.649-.385-1.386-.385-2.101,1.079-16.458,3.381-51.856,4.866-75.528-2.926-.635-5.612-1.695-8.026-3.104Z"/><path class="i" d="M174.549,173.205c-2.3-9.072-5.128-18.125-9.176-26.583-1.609-3.361-3.44-6.63-5.925-9.428-2.913-3.28-6.509-5.987-10.229-8.286-4.458-2.755-9.315-4.633-14.236-6.388-2.429-.866-3.475,2.997-1.063,3.857,4.024,1.435,8.038,2.925,11.745,5.067,3.632,2.098,7.09,4.553,10.019,7.57,2.482,2.558,4.249,5.595,5.821,8.774,1.807,3.653,3.303,7.452,4.652,11.295,1.751,4.987,3.237,10.063,4.536,15.185.632,2.494,4.491,1.437,3.857-1.063h0Z"/><path class="i" d="M85.513,211.538c-6.851-.877-13.267-4.559-17.307-10.188-4.169-5.81-5.812-12.976-5.076-20.05.447-4.301,1.903-8.544,3.049-12.697,1.255-4.551,2.566-9.096,4.233-13.516,1.49-3.95,3.321-7.763,5.554-11.348,2.268-3.642,5.295-6.56,8.792-9.029,5.013-3.539,10.489-5.856,16.065-8.301.989-.434,1.218-1.881.718-2.736-.597-1.021-1.743-1.153-2.736-.718-5.032,2.207-10.012,4.28-14.626,7.32-3.937,2.594-7.665,5.657-10.41,9.526-2.583,3.64-4.569,7.722-6.27,11.835-1.866,4.512-3.292,9.19-4.614,13.886-1.312,4.662-2.886,9.402-3.557,14.208-1.082,7.742.361,15.832,4.62,22.454,4.863,7.56,12.708,12.219,21.566,13.353,1.073.137,2-1.018,2-2,0-1.195-.924-1.862-2-2h0Z"/><path class="i" d="M152.597,190.28l-.071.528h-3.857c-.216-1.021-.052-.304-.029.006.037.482.072.964.107,1.447.126,1.717.25,3.434.374,5.151.426,5.886.848,11.773,1.269,17.66,1.121,15.665,2.237,31.331,3.342,46.997.454,6.432.906,12.864,1.351,19.297.15,2.172.33,4.345.446,6.519.034.63.167,1.351-.297,1.83-.803.829-2.6,1.056-3.656,1.216-2.696.409-5.514.379-8.235.47-12.592.418-25.218.272-37.815.219-6.301-.027-12.608-.098-18.9-.442-1.191-.065-2.398-.102-3.578-.289-.834-.132-2.451-.32-2.945-1.143-.393-.654-.066-2.087-.017-2.829.063-.958.125-1.916.188-2.874,1.386-21.2,2.76-42.4,4.103-63.602.154-2.438.308-4.875.461-7.313.161-2.571-3.839-2.561-4,0-1.386,22.094-2.819,44.185-4.261,66.275-.139,2.124-.277,4.248-.416,6.372-.159,2.434-.611,5.11,1.313,7.007s5.043,2.136,7.586,2.306c3.083.206,6.174.309,9.263.386,12.91.324,25.853.239,38.766.127,3.273-.028,6.546-.081,9.817-.184,3.029-.096,6.109-.122,9.114-.538,2.473-.342,5.524-1.078,6.883-3.41.879-1.509.646-3.314.533-4.975-.39-5.743-.793-11.484-1.196-17.226-1.121-15.959-2.256-31.916-3.396-47.874-.73-10.22-1.357-20.454-2.209-30.665-.027-.327-.04-.66-.108-.981-.409-1.933-3.413-1.88-3.857,0-.002.008-.072.528-.072.535-.005,2.574,3.995,2.578,4,0h0Z"/><path class="i" d="M170.692,174.268c1.458,6.212,1.586,12.444-.514,18.523-1.76,5.096-5.087,9.595-9.799,12.294-2.233,1.279-.221,4.737,2.019,3.454,5.524-3.165,9.382-8.4,11.513-14.334,2.451-6.826,2.278-14.011.637-21-.588-2.505-4.446-1.445-3.857,1.063h0Z"/><path class="i" d="M99.212,126.394c5.237,5.09,12.468,7.054,19.633,6.989,6.583-.059,12.815-2.26,17.02-7.521.674-.843.823-2.005,0-2.828-.698-.698-2.15-.848-2.828,0-3.583,4.482-8.568,6.298-14.192,6.349-6.107.055-12.321-1.46-16.805-5.817-1.847-1.795-4.679,1.03-2.828,2.828h0Z"/><path class="g" d="M73.596,233.521c27.257-35.172,59.145-78.412,82.837-111.607.322-.451.875-.414,1.394-.218,1.639.621,4.195,2.514,5.298,3.902.334.421.538.918.233,1.361-23.356,33.803-56.616,78.818-83.884,114.005"/><path class="i" d="M75.01,234.935c11.281-14.559,22.405-29.239,33.429-43.994,11.117-14.879,22.132-29.834,33.045-44.864,2.829-3.896,5.652-7.798,8.466-11.705,1.393-1.935,2.785-3.871,4.174-5.808.642-.895,1.283-1.79,1.923-2.685.335-.469.67-.937,1.005-1.406.148-.207.296-.414.444-.621l.221-.31c.189-.352.257-.429.204-.229l-1.009.273c.639-.061,1.468.62,2.01.98.847.562,1.513,1.296,2.308,1.905l.107.111c.213.311.259.292.14-.057l-.056-.275c-.105.151-.209.303-.314.454-.316.457-.633.914-.949,1.371-.642.926-1.285,1.851-1.93,2.776-2.53,3.631-5.074,7.251-7.63,10.863-5.552,7.846-11.159,15.654-16.804,23.434-11.848,16.328-23.863,32.535-36.027,48.629-6.52,8.628-13.084,17.222-19.708,25.771-.661.853-.831,1.997,0,2.828.689.689,2.163.859,2.828,0,11.932-15.4,23.691-30.934,35.315-46.567,11.717-15.759,23.301-31.618,34.686-47.618,2.621-3.683,5.23-7.375,7.826-11.076,1.244-1.774,2.486-3.551,3.723-5.33.604-.868,1.207-1.737,1.809-2.606.675-.975,1.425-1.913,1.199-3.176-.37-2.074-2.731-3.69-4.354-4.793-1.614-1.097-4.09-2.525-5.854-.926-.74.671-1.281,1.669-1.86,2.48-.674.943-1.349,1.885-2.024,2.828-1.304,1.82-2.61,3.639-3.918,5.456-11.44,15.899-23.006,31.707-34.678,47.436-11.965,16.124-24.04,32.166-36.29,48.075-1.426,1.851-2.854,3.7-4.285,5.547-.661.853-.831,1.997,0,2.828.689.689,2.163.859,2.828,0h0Z"/><path class="l" d="M84.016,241.513c-2.826-5.61-8.587-14.656-17.11-17.327-2.481,8.523-4.258,13.81-9.733,25.317,3.199,3.463,6.89,6.707,10.309,9.43,9.995-6.9,11.853-8.183,18.556-12.81-.032-.146-.711-2.009-2.021-4.611Z"/><path class="l" d="M34.075,314.284c8.572-6.378,16.953-14.967,22.276-23.895,6.586-11.048,6.815-13.566,8.962-21.811-5.508-4.304-11.664-9.651-16.775-15.372-16.756,9.417-28.025,13.959-46.564,17.523,0,0-.242,11.41,8.191,23.805s23.911,19.75,23.911,19.75Z"/><path class="i" d="M74.736,256.349c4.104-2.833,8.207-5.666,12.311-8.499.751-.519,1.148-1.348.919-2.259-.611-2.428-2.064-4.895-3.268-7.061-2.411-4.34-5.431-8.536-9.261-11.735-2.389-1.995-5.028-3.578-7.999-4.538-1.039-.336-2.168.394-2.46,1.397-1.873,6.425-4.032,12.696-6.749,18.816-.438.987-.287,2.149.718,2.736.852.498,2.296.275,2.736-.718,2.859-6.441,5.181-13.01,7.152-19.772l-2.46,1.397c5.714,1.845,10.002,6.658,13.158,11.57,1.295,2.015,2.45,4.123,3.462,6.293.187.401.365.806.545,1.21.237.53-.052-.138.066.152.058.142.117.283.173.425.115.29.253.587.329.89l.919-2.259c-4.104,2.833-8.207,5.666-12.311,8.499-2.105,1.453-.107,4.921,2.019,3.454h0Z"/><path class="i" d="M2.505,272.657c7.907-1.528,15.729-3.485,23.279-6.312s14.772-6.437,21.826-10.332c2.254-1.245.238-4.7-2.019-3.454-6.859,3.787-13.867,7.332-21.222,10.059-7.441,2.76-15.144,4.677-22.928,6.181-2.525.488-1.456,4.344,1.063,3.857h0Z"/><path class="i" d="M63.037,269.379c-1.277,5.003-2.714,9.693-5.153,14.272-3.861,7.247-8.489,13.822-14.263,19.676-3.284,3.33-6.809,6.43-10.555,9.231-.864.646-1.307,1.729-.718,2.736.498.851,1.866,1.368,2.736.718,7.006-5.239,13.355-11.31,18.672-18.269,4.357-5.703,8.233-12.226,10.741-18.975,1.008-2.711,1.682-5.527,2.396-8.325.637-2.495-3.22-3.56-3.857-1.063h0Z"/><path class="i" d="M71.542,259.561c-5.617-4.206-11.084-8.947-15.529-14.448-.679-.841-2.121-.707-2.828,0-.831.831-.681,1.986,0,2.828,4.668,5.776,10.414,10.636,16.339,15.073.865.648,2.235.14,2.736-.718.598-1.022.15-2.087-.718-2.736h0Z"/><path class="i" d="M69.333,269.152c-7.993-5.986-15.691-12.64-21.985-20.428-.679-.841-2.121-.707-2.828,0-.831.831-.681,1.986,0,2.828,6.515,8.061,14.525,14.86,22.795,21.053.865.648,2.235.14,2.736-.718.598-1.022.15-2.087-.718-2.736h0Z"/><path class="i" d="M9.674,284.115c6.195-.455,12.081-1.712,17.863-3.987,5.418-2.132,10.363-5.011,14.998-8.526.859-.652,1.309-1.725.718-2.736-.495-.846-1.871-1.374-2.736-.718-9.065,6.875-19.455,11.13-30.842,11.967-2.552.187-2.572,4.189,0,4h0Z"/><path class="i" d="M42.866,279.949c-2.452,3.636-4.77,7.028-7.837,10.126-3.015,3.045-6.49,5.604-9.89,8.195-.858.654-1.31,1.723-.718,2.736.494.844,1.872,1.376,2.736.718,3.666-2.795,7.447-5.536,10.699-8.821s5.89-7.12,8.463-10.935c.604-.896.172-2.216-.718-2.736-.985-.576-2.131-.18-2.736.718h0Z"/><path class="f" d="M148.451,148.169c-.62-.988-1.606-1.879-2.701-2.439-1.689-.863-4.842-1.443-6.896-.972-2.208.506-4.21,2.005-5.05,3.541-.623,1.14-.324,2.906-1.033,4.027-1.984,3.135-3.429,6.481-3.078,10.007.307,3.081,3.02,5.976,6.029,6.325.81.094,1.638.147,2.445.168,3.724.098,6.588-1.433,8.554-3.89,3.416-4.269,3.996-11.019,2.263-15.61-.144-.381-.298-.78-.534-1.156Z"/><path class="f" d="M94.416,208.392c5.282,2.905,11.085,4.192,16.035.751,4.95-3.441,6.096-10.969,3.824-16.552-1.605-3.944-4.351-5.917-8.609-5.919-2.837-.001-6.079,2.107-6.848,6.75-3.095.787-6.212,1.957-6.75,7.826-.201,2.194.212,5.968,2.349,7.143Z"/><path class="i" d="M150.178,147.16c-3.055-4.555-10.03-5.928-14.721-3.164-1.184.697-2.251,1.624-3.037,2.755-.807,1.163-.882,2.41-1.133,3.755-.237,1.269-1.237,2.419-1.794,3.576-.691,1.435-1.29,2.945-1.579,4.517-.506,2.751-.335,5.596,1.276,7.97,1.638,2.414,4.053,3.841,6.938,4.132,2.812.284,5.576.059,8.136-1.211,2.264-1.123,4.101-3.069,5.333-5.254,2.773-4.916,3.371-12.03.58-17.077-1.246-2.253-4.702-.238-3.454,2.019,1.769,3.198,1.488,7.624.347,10.972-1.185,3.48-3.918,6.369-7.737,6.652-1.869.139-4.048.113-5.586-1.093-1.586-1.244-2.185-3.031-2.095-4.99.1-2.168,1.019-4.245,2.076-6.105.568-.999,1.19-1.897,1.414-3.044.173-.883.094-1.905.638-2.665,2.363-3.301,8.707-3.056,10.941.275,1.427,2.127,4.893.127,3.454-2.019Z"/><path class="i" d="M93.407,210.119c4.384,2.377,9.64,4.069,14.583,2.453,4.29-1.403,7.37-4.779,8.676-9.057,1.248-4.091.875-8.658-.92-12.524-1.781-3.837-5.233-6.089-9.437-6.302-4.923-.249-8.574,3.558-9.42,8.203l1.397-1.397c-3.666.943-6.539,2.881-7.674,6.662s-.987,9.664,2.795,11.963c2.205,1.341,4.218-2.117,2.019-3.454-.925-.562-1.207-2.016-1.335-3.042-.195-1.563-.033-3.203.469-4.693.797-2.362,2.567-3.007,4.789-3.579.626-.161,1.277-.737,1.397-1.397.278-1.526.789-2.967,1.937-4.055.785-.744,1.924-1.191,2.758-1.223,2.994-.115,5.303,1.252,6.646,3.911,2.674,5.291,1.42,13.232-4.385,15.834-4.049,1.815-8.619.227-12.276-1.756-2.263-1.227-4.285,2.225-2.019,3.454Z"/></g></g></svg>