<?xml version="1.0" encoding="UTF-8"?><svg id="b" xmlns="http://www.w3.org/2000/svg" width="186.115" height="324.896" viewBox="0 0 186.115 324.896"><defs><style>.d{fill:#fff;}.e{fill:#211715;}.f{fill:#ffda71;}</style></defs><g id="c"><circle class="f" cx="161.987" cy="239.607" r="21.728"/><path class="e" d="M181.315,239.607c-.063,7.942-5.034,15.41-12.593,18.131-7.783,2.801-16.432.429-21.726-5.912-5.185-6.211-5.691-15.393-1.53-22.256s12.467-10.562,20.345-8.917c8.969,1.872,15.431,9.806,15.504,18.955.025,3.087,4.825,3.095,4.8,0-.081-10.142-6.455-19.188-15.961-22.702-9.364-3.461-20.479-.416-26.76,7.342-6.368,7.866-7.363,19.095-2.072,27.82,5.263,8.68,15.503,13.092,25.432,11.19,11.193-2.144,19.272-12.379,19.361-23.651.025-3.089-4.775-3.092-4.8,0Z"/><path class="e" d="M171.594,220.806c-4.232,11.756-4.209,25.782.174,37.492.454,1.213,1.622,2.042,2.952,1.676,1.165-.32,2.133-1.732,1.676-2.952-4.119-11.006-4.152-23.89-.174-34.94.439-1.22-.495-2.628-1.676-2.952-1.332-.366-2.512.452-2.952,1.676h0Z"/><path class="e" d="M147.793,222.052c3.995,11.066,3.962,23.978-.169,35.001-.455,1.214.506,2.631,1.676,2.952,1.345.37,2.496-.458,2.952-1.676,4.395-11.727,4.419-25.782.169-37.553-.44-1.219-1.633-2.039-2.952-1.676-1.177.323-2.119,1.727-1.676,2.952h0Z"/><path class="d" d="M102.628,157.143c-4.897,4.486-10.627,7.901-17.234,9.886-4.235,1.283-8.827,1.966-13.787,1.966s-9.553-.683-13.787-1.966c-6.679-2.012-12.462-5.483-17.404-10.033-15.533-14.325-22.669-39.302-22.669-62.913,0-34.964,17.01-74.904,53.86-74.904s53.869,39.939,53.869,74.904c0,23.694-7.189,48.763-22.839,63.052l-.009.009"/><path class="d" d="M64.504,206.762c-2.762-6.33-5.814-12.938-8.397-17.801-1.132-2.13.659-4.634,3.082-4.297,3.917.545,8.101.848,12.58.848,4.251,0,8.461-.308,12.269-.811,2.426-.321,4.193,2.175,3.067,4.31-4.043,7.665-9.276,19.721-12.593,28.107-.994,2.514-4.604,2.532-5.624.028-1.263-3.1-2.774-6.695-4.383-10.383Z"/><path class="f" d="M71.606,2.394C24.104,2.394,2.365,51.283,2.365,94.081c0,22.199,7.161,42.976,16.981,62.895,13.86,30.722,39.777,73.022,42.044,103.114h20.432c2.267-30.093,28.184-72.392,42.044-103.114,9.82-19.919,16.981-40.697,16.981-62.895,0-42.799-21.876-91.687-69.241-91.687ZM87.105,189.011c-4.043,7.665-9.277,19.721-12.594,28.107-.994,2.514-4.604,2.532-5.624.028-1.263-3.1-2.774-6.695-4.383-10.383-2.762-6.33-5.814-12.938-8.397-17.801-1.132-2.13.659-4.634,3.082-4.297,3.917.545,8.101.848,12.58.848,4.251,0,8.461-.308,12.269-.811,2.426-.321,4.193,2.175,3.067,4.31ZM102.637,157.134l-.009.009c-4.897,4.486-10.627,7.901-17.234,9.886-4.235,1.283-8.827,1.966-13.787,1.966s-9.553-.683-13.787-1.966c-6.679-2.012-12.462-5.483-17.404-10.033-15.533-14.325-22.669-39.302-22.669-62.913,0-34.964,17.01-74.904,53.86-74.904s53.869,39.939,53.869,74.904c0,23.694-7.189,48.763-22.839,63.052Z"/><path class="e" d="M63.704,251.088c-2.363-8.352-5.551-16.474-8.858-24.49-3.887-9.424-8.054-18.731-12.358-27.971-6.341-13.614-12.963-27.103-19.83-40.46-10.121-19.687-17.793-41.266-17.893-63.63-.09-20.028,4.378-40.766,14.616-58.124,4.783-8.11,11.012-15.579,18.657-21.059,7.896-5.659,17.098-9.215,26.782-10.216,10.195-1.054,20.836.22,30.192,4.404,8.732,3.904,16.128,9.944,22.169,17.327,12.553,15.341,18.854,35.648,20.694,55.169,1.192,12.648.399,25.291-2.556,37.658-2.993,12.524-7.762,24.718-13.59,36.189-5.312,10.455-10.591,20.921-15.669,31.493-8.357,17.399-16.604,34.995-23.146,53.172-1.25,3.474-2.424,6.979-3.409,10.537-.826,2.981,3.804,4.254,4.629,1.276,2.256-8.148,5.374-16.061,8.59-23.87,3.803-9.232,7.945-18.417,12.183-27.505,6.358-13.632,12.988-27.142,19.855-40.525,10.404-20.274,18.276-42.456,18.478-65.472.183-20.799-4.493-42.391-15.004-60.468-5.073-8.725-11.642-16.558-19.744-22.612-8.044-6.012-17.583-9.884-27.526-11.254-10.757-1.482-21.991-.516-32.147,3.442-9.262,3.61-17.457,9.467-24.089,16.857C10.801,36.481,3.655,57.158,1.027,77.575c-1.598,12.417-1.365,24.963.932,37.282,2.681,14.378,7.98,28.144,14.314,41.281,5.009,10.388,10.428,20.58,15.448,30.966,8.579,17.749,17.026,35.691,23.747,54.238,1.317,3.634,2.554,7.3,3.606,11.021.84,2.968,5.472,1.706,4.629-1.276h0Z"/><path class="e" d="M100.931,155.446c-5.763,5.234-12.741,8.804-20.385,10.32-8.098,1.606-16.748.981-24.502-1.856-13.525-4.949-22.822-16.919-28.307-29.801-5.695-13.373-7.92-28.291-7.556-42.764.302-12.004,2.551-24.04,7.01-35.208,4.076-10.208,10.458-20.127,19.41-26.577,9.194-6.623,20.788-9.284,32.005-7.467,11.109,1.799,20.465,7.926,27.478,16.626,7.25,8.995,11.694,20.186,14.284,31.377,2.937,12.693,3.435,25.917,1.764,38.828-1.813,14.013-6.308,28.274-14.916,39.646-1.898,2.507-4.108,4.628-6.286,6.873-2.152,2.218,1.239,5.616,3.394,3.394,2.428-2.504,4.809-4.908,6.926-7.699,2.211-2.915,4.149-6.031,5.844-9.272,3.529-6.751,6.077-14.016,7.803-21.428,3.291-14.136,3.822-28.878,1.689-43.224-1.844-12.399-5.773-24.78-12.481-35.434-6.38-10.131-15.468-18.521-26.906-22.479-11.805-4.085-25.375-3.235-36.582,2.249-10.752,5.261-18.899,14.753-24.373,25.228-5.919,11.326-9.139,23.934-10.375,36.609-1.432,14.69-.045,29.912,4.342,44.018,4.438,14.271,12.366,28.112,25.125,36.443,14.409,9.41,34.127,10.053,49.259,1.951,3.526-1.888,6.773-4.276,9.731-6.963,2.292-2.081-1.111-5.468-3.394-3.394h0Z"/><path class="e" d="M66.576,205.551c-1.536-3.516-3.109-7.016-4.752-10.483-.715-1.509-1.444-3.012-2.194-4.505-.358-.712-1.624-2.548-1.464-3.091.233-.792,1.538-.335,2.29-.241,1.898.235,3.804.407,5.713.519,3.803.224,7.62.217,11.423-.023,1.707-.108,3.412-.26,5.111-.459.714-.084,2.232-.458,2.343.2.128.76-.92,2.078-1.276,2.787-.738,1.47-1.454,2.95-2.157,4.437-2.814,5.953-5.433,12.001-7.929,18.093-.416,1.015-.917,2.912-1.469,3.589-.313.384-.784.335-.99.076-.403-.505-.57-1.273-.811-1.858-.392-.95-.788-1.898-1.187-2.845-.871-2.07-1.755-4.136-2.652-6.195-.518-1.188-2.259-1.46-3.284-.861-1.227.718-1.381,2.091-.861,3.284.881,2.022,1.751,4.049,2.602,6.083.751,1.794,1.298,4.038,2.585,5.527,2.293,2.653,6.732,2.308,8.623-.624.93-1.442,1.422-3.312,2.072-4.9.7-1.707,1.411-3.409,2.137-5.106,1.544-3.61,3.137-7.2,4.798-10.757.788-1.687,1.592-3.367,2.422-5.033.797-1.6,1.98-3.269,2.144-5.081.17-1.873-.699-3.669-2.206-4.77-1.741-1.272-3.574-.99-5.586-.769-4.578.503-9.191.672-13.793.504-2.168-.079-4.333-.233-6.489-.467-1.937-.211-3.829-.675-5.635.343s-2.899,3.054-2.715,5.111c.196,2.181,1.796,4.34,2.749,6.273,2.216,4.499,4.281,9.071,6.289,13.666.519,1.188,2.258,1.461,3.284.861,1.226-.717,1.382-2.091.861-3.284Z"/><path class="e" d="M81.118,244.671h-19.006c-1.627,0-2.946,1.302-2.946,2.899,0,30.135,0,41.79,0,71.925,0,1.598,1.319,2.899,2.946,2.899h19.006c1.627,0,2.946-1.295,2.946-2.893v-71.938c0-1.598-1.319-2.893-2.946-2.893Z"/><path class="e" d="M81.109,242.271c-5.567,0-11.135,0-16.702,0-.76,0-1.527-.03-2.287,0-3.121.122-5.304,2.457-5.363,5.548-.125,6.515,0,13.044,0,19.561,0,10.769,0,21.537,0,32.306,0,3.047,0,6.094,0,9.141,0,3.539-.191,7.136,0,10.668.163,3.001,2.356,5.173,5.363,5.299.759.032,1.527,0,2.287,0,5.552,0,11.155.229,16.702,0,3.417-.141,5.346-2.787,5.346-5.988v-4.359c0-13.112,0-26.225,0-39.337v-19.148c0-2.788.121-5.607,0-8.394-.131-3.021-2.367-5.129-5.346-5.297-3.086-.175-3.076,4.626,0,4.8.79.045.546,1.257.546,1.833v4.849c0,5.602,0,11.205,0,16.807v39.515c0,2.056,0,4.113,0,6.169,0,1.001.106,2.069,0,3.066-.109,1.025-1.525.684-2.367.684h-9.409c-2.491,0-5.026.139-7.513,0-.223-.012-.431.046-.625-.104-.116-.09-.148-.31-.184-.395-.077-.178,0-.851,0-.992,0-.648,0-1.297,0-1.945,0-3.146,0-6.292,0-9.438,0-10.365,0-20.73,0-31.096,0-5.501,0-11.002,0-16.503,0-3.165,0-6.331,0-9.496,0-.734-.188-1.764-.004-2.469.026-.098.076-.302.188-.382.208-.15.45-.092.693-.104,2.51-.121,5.056,0,7.568,0h9.438c.557,0,1.113,0,1.67,0,3.089,0,3.094-4.8,0-4.8Z"/><path class="e" d="M48.134,122.439c20.098,0,40.196,0,60.294,0,3.089,0,3.094-4.8,0-4.8-20.098,0-40.196,0-60.294,0-3.089,0-3.094,4.8,0,4.8h0Z"/><path class="e" d="M55.37,137.092c16.064,0,32.129,0,48.193,0,3.089,0,3.094-4.8,0-4.8-16.064,0-32.129,0-48.193,0-3.089,0-3.094,4.8,0,4.8h0Z"/><path class="e" d="M64.63,58.652c0,23.866,0,47.732,0,71.598,0,6.736,0,13.471,0,20.207,0,3.089,4.8,3.094,4.8,0,0-23.866,0-47.732,0-71.598,0-6.736,0-13.471,0-20.207,0-3.089-4.8-3.094-4.8,0h0Z"/><path class="e" d="M79.429,46.777c0,26.043,0,52.086,0,78.13,0,7.299,0,14.597,0,21.896,0,3.089,4.8,3.094,4.8,0,0-26.043,0-52.086,0-78.13,0-7.299,0-14.597,0-21.896,0-3.089-4.8-3.094-4.8,0h0Z"/><path class="e" d="M94.228,64.465c0,19.822,0,39.644,0,59.466,0,5.663,0,11.327,0,16.99,0,3.089,4.8,3.094,4.8,0,0-19.822,0-39.644,0-59.466v-16.99c0-3.089-4.8-3.094-4.8,0h0Z"/><path class="e" d="M36.241,109.383c19.498,0,38.995,0,58.493,0,5.559,0,11.118,0,16.677,0,3.089,0,3.094-4.8,0-4.8-19.498,0-38.995,0-58.493,0-5.559,0-11.118,0-16.677,0-3.089,0-3.094,4.8,0,4.8h0Z"/><path class="e" d="M39.474,95.529c19.263,0,38.526,0,57.788,0h16.44c3.089,0,3.094-4.8,0-4.8h-57.788c-5.48,0-10.96,0-16.44,0-3.089,0-3.094,4.8,0,4.8h0Z"/><path class="e" d="M49.437,81.675c18.52,0,37.039,0,55.559,0,3.089,0,3.094-4.8,0-4.8-18.52,0-37.039,0-55.559,0-3.089,0-3.094,4.8,0,4.8h0Z"/></g></svg>