<?xml version="1.0" encoding="UTF-8"?><svg id="b" xmlns="http://www.w3.org/2000/svg" width="417.439" height="300.755" viewBox="0 0 417.439 300.755"><defs><style>.m{fill:#211715;}.n{fill:#fff;}.o{fill:#f4b3b3;}.p{fill:#211715;}.q{fill:#645d5c;}.r{fill:#87cce3;}</style></defs><g id="c"><g id="d"><path class="m" d="M379.321,215.855c-10.832-.007-21.663-.507-32.496-.229-2.569.066-2.579,4.066,0,4,10.832-.278,21.663.222,32.496.229,2.574.002,2.578-3.998,0-4h0Z"/><path class="m" d="M415.507,202.039c-18.303-.008-36.607-.173-54.906-.588-2.575-.059-2.574,3.941,0,4,18.298.416,36.603.58,54.906.588,2.574.001,2.578-3.999,0-4h0Z"/><path class="p" d="M290.88,1.457c-.476,1.244-.97,2.482-1.472,3.716-.287.706-.579,1.409-.873,2.112-.095.228.204-.481.044-.104-.03.07-.059.14-.089.209-.072.169-.145.339-.218.508-.134.311-.27.62-.408.929-.226.507-.355.984-.202,1.541.128.464.486.967.919,1.195.872.461,2.281.302,2.736-.718,1.222-2.738,2.348-5.525,3.419-8.326.374-.979-.413-2.236-1.397-2.46-1.142-.26-2.059.348-2.46,1.397h0Z"/><path class="p" d="M301.166,9.878c-2.31,1.5-4.658,2.94-7.042,4.319-.906.524-1.301,1.831-.718,2.736.589.914,1.767,1.278,2.736.718,2.384-1.379,4.732-2.819,7.042-4.319.876-.569,1.322-1.799.718-2.736-.564-.875-1.798-1.327-2.736-.718h0Z"/><path class="p" d="M306.569,22.202c-1.364-.069-2.727-.167-4.088-.296-.653-.062-1.305-.131-1.956-.207-.326-.038-.651-.078-.976-.119-.056-.007-.672-.089-.384-.05s-.328-.046-.384-.054c-.556-.078-1.035-.094-1.541.202-.415.243-.811.718-.919,1.195-.215.944.289,2.304,1.397,2.46,2.939.415,5.888.718,8.852.868,1.046.053,2.047-.958,2-2-.051-1.129-.879-1.943-2-2h0Z"/><g id="e"><path class="n" d="M333.497,297.481c3.999-2.029,5.072-6.279,5.072-8.316,0-5.583-2.741-7.512-3.756-8.426-2.145-1.931-6.497-2.335-9.208-1.198.681-3.777-1.756-8.446-5.613-10.071-5.932-2.498-11.674.355-13.215,3.72-.439-4.887-3.866-11.49-12.754-11.612-8.03-.11-11.739,4.408-12.802,7.802,0,0-2.375,5.065-2.747,6.07-1.215-.486-2.641-.672-4.342-.599-4.874.207-7.888,3.268-9.365,6.598-2.41,5.433.026,13.069,5.4,15.607,2.919,1.379,6.258,1.472,9.485,1.539,16.719.352,32.421.01,48.663.01,2.116,0,3.818-.434,5.181-1.125Z"/><path class="m" d="M283.549,277.192c-1.365-1.89-3.093-3.328-5.379-3.949-2.391-.65-5.198-.567-7.546.213-4.231,1.405-7.527,5.192-8.457,9.55-.942,4.419.234,9.166,3.088,12.658,3.547,4.34,9.168,4.82,14.398,4.932,12.622.272,25.248.129,37.871.049,3.115-.02,6.23-.035,9.346-.039,2.521-.003,4.93-.144,7.251-1.215,3.044-1.403,5.219-4.273,6.063-7.484,1.021-3.887.072-8.438-2.685-11.401-3.092-3.322-8.146-4.572-12.426-2.894l2.46,2.46c.864-5.497-2.436-10.916-7.66-12.781-5.091-1.818-12.266-.328-14.824,4.89l3.727,1.009c-.479-4.863-3.008-9.533-7.444-11.859-5.401-2.831-12.915-2.337-17.753,1.43-2.007,1.563-3.5,3.666-4.287,6.087-.798,2.454,3.063,3.505,3.857,1.063.227-.697.642-1.568,1.254-2.381.561-.745,1.435-1.56,2.308-2.118,2.626-1.677,5.983-2.137,9.037-1.724,5.043.683,8.568,4.831,9.027,9.501.175,1.777,2.767,2.968,3.727,1.009,1.724-3.517,6.461-4.275,9.875-3.197,3.197,1.01,5.841,4.551,5.298,8.006-.208,1.323.88,3.08,2.46,2.46,2.845-1.115,6.034-.596,8.214,1.538.818.801,1.427,1.726,1.801,2.991.265.896.386,1.8.411,2.732.008.28,0,.557-.007.836-.002.098-.016.196-.024.293-.03.388.043-.241-.002.024-.376,2.231-1.317,4.205-3.34,5.47-1.355.848-2.909,1.202-4.496,1.246-2.684.074-5.379.013-8.064.026-10.79.055-21.581.188-32.371.094-2.787-.024-5.573-.063-8.359-.121-2.395-.05-4.829-.064-7.153-.718-3.597-1.011-5.865-3.895-6.662-7.476-.802-3.608.363-7.606,3.361-9.899,2.977-2.276,8.277-2.58,10.648.702.632.874,1.74,1.3,2.736.718.864-.505,1.353-1.856.718-2.736h0Z"/><path class="n" d="M106.633,264.16c3.999-2.029,5.072-6.279,5.072-8.316,0-5.583-2.741-7.512-3.756-8.426-2.145-1.931-6.497-2.335-9.208-1.198.681-3.777-1.756-8.446-5.613-10.071-5.932-2.498-11.674.355-13.215,3.72-.439-4.887-3.866-11.49-12.754-11.612-8.03-.11-11.739,4.408-12.802,7.802,0,0-2.122,5.229-2.463,6.191-1.276-.576-2.791-.798-4.626-.72-4.874.207-7.888,3.268-9.365,6.598-2.41,5.433.026,13.069,5.4,15.607,2.919,1.379,6.258,1.472,9.485,1.539,16.719.352,32.421.01,48.663.01,2.116,0,3.818-.434,5.181-1.125Z"/><path class="m" d="M56.684,243.871c-1.365-1.89-3.093-3.328-5.379-3.949-2.391-.65-5.198-.567-7.546.213-4.231,1.405-7.527,5.192-8.457,9.55-.942,4.419.234,9.166,3.088,12.658,3.547,4.34,9.168,4.82,14.398,4.932,12.622.272,25.248.129,37.871.049,3.115-.02,6.23-.035,9.346-.039,2.521-.003,4.93-.144,7.251-1.215,3.044-1.403,5.219-4.273,6.063-7.484,1.021-3.887.072-8.438-2.685-11.401-3.092-3.322-8.146-4.572-12.426-2.894l2.46,2.46c.864-5.497-2.436-10.916-7.66-12.781-5.091-1.818-12.266-.328-14.824,4.89l3.727,1.009c-.479-4.863-3.008-9.533-7.444-11.859-5.401-2.831-12.915-2.337-17.753,1.43-2.007,1.563-3.5,3.666-4.287,6.087-.798,2.454,3.063,3.505,3.857,1.063.227-.697.642-1.568,1.254-2.381.561-.745,1.435-1.56,2.308-2.118,2.626-1.677,5.983-2.137,9.037-1.724,5.043.683,8.568,4.831,9.027,9.501.175,1.777,2.767,2.968,3.727,1.009,1.724-3.517,6.461-4.275,9.875-3.197,3.197,1.01,5.841,4.551,5.298,8.006-.208,1.323.88,3.08,2.46,2.46,2.845-1.115,6.034-.596,8.214,1.538.818.801,1.427,1.726,1.801,2.991.265.896.386,1.8.411,2.732.008.28,0,.557-.007.836-.002.098-.016.196-.024.293-.03.388.043-.241-.002.024-.376,2.231-1.317,4.205-3.34,5.47-1.355.848-2.909,1.202-4.496,1.246-2.684.074-5.379.013-8.064.026-10.79.055-21.581.188-32.371.094-2.787-.024-5.573-.063-8.359-.121-2.395-.05-4.829-.064-7.153-.718-3.597-1.011-5.865-3.895-6.662-7.476-.802-3.608.363-7.606,3.361-9.899,2.977-2.276,8.277-2.58,10.648.702.632.874,1.74,1.3,2.736.718.864-.505,1.353-1.856.718-2.736h0Z"/></g><g id="f"><path class="n" d="M388.074,116.275c3.27-9.431,5.912-17.289,5.623-17.557-.282-.259-.667-.441-1.047-.423-6.021.274-11.63,1.121-16.234,3.45-4.614,2.329-7.373,4.845-11.222,8.297-8.726,7.824-19.497,19.347-26.931,28.412l-1.054,1.286c15.152-.17,30.764-.323,42.839-.445,2.253-6.526,5.35-15.3,8.027-23.021Z"/><path class="n" d="M314.915,140.012c29.036-.391,69.377-.738,82.524-.902,4.354-.054,10.251.225,11.481,4.1,1.693,5.335-4.308,8.883-8.911,10.469-26.747,9.215-53.495,18.43-80.242,27.645-7.435,2.562-14.907,5.132-22.571,6.301-8.041,1.226-25.05,2.542-33.138,2.854-16.388.633-147.316,4.34-214.1,2.275-11.345-.849-23.211-3.052-32.4-7.894-3.765-1.984-7.151-5.511-7.475-9.902-.324-4.382,2.27-7.59,5.265-10.194,9.418-8.187,19.067-16.515,30.178-20.58,9.018-3.3,18.557-3.622,27.958-3.918,7.69-.242,14.05-.489,20.84-.684l220.592.429Z"/><path class="r" d="M49.119,166.67c-.246-.065-.491-.131-.736-.197-7.897-2.149-15.939-5.172-21.169-11.609,3.622-2.786,7.345-5.345,11.231-7.454,2.076,2.955,5.498,4.621,8.956,5.605,3.343.95,6.385,1.59,9.728,2.56,1.001.287,3.152.62,3.944,1.288,1.223,1.036,1.074,1.397,1.099,2.987.035,1.59-.422,5.951-1.198,7.104-.239.371-.757.892-1.867,1.006-3.079.317-6.553-.383-9.988-1.289Z"/><path class="m" d="M314.915,142.012c21.479-.289,42.96-.494,64.44-.71,4.048-.041,8.096-.081,12.144-.125,3.33-.036,6.738-.265,10.055.057,1.768.171,4.498.517,5.364,2.345.98,2.068-.519,4.098-2.07,5.353-1.792,1.45-3.966,2.332-6.122,3.077-3.373,1.167-6.749,2.325-10.124,3.488-13.374,4.607-26.747,9.215-40.121,13.822-13.088,4.509-26.112,9.395-39.357,13.422-10.247,3.116-20.737,4.059-31.366,4.885-5.736.446-11.474.785-17.224.977-10.346.345-20.695.618-31.043.88-16.554.419-33.11.778-49.667,1.075-19.25.346-38.502.61-57.755.737-18.15.12-36.304.135-54.453-.145-8.977-.139-18.009-.061-26.904-1.414-5.994-.912-11.968-2.278-17.615-4.517-4.751-1.883-10.981-4.961-11.041-10.91-.029-2.86,1.633-5.209,3.608-7.124,2.211-2.144,4.648-4.101,7.003-6.083,4.755-4.003,9.673-7.849,15.053-10.986,5.531-3.225,11.44-5.369,17.75-6.462,6.713-1.162,13.568-1.241,20.36-1.463,6.165-.201,12.328-.43,18.494-.609,2.568-.075,2.579-4.075,0-4-6.684.194-13.366.445-20.049.659-6.889.22-13.807.431-20.602,1.687-12.99,2.401-23.629,9.778-33.563,18.118-4.232,3.553-9.758,7.22-11.527,12.738s1.116,10.926,5.49,14.22c4.702,3.541,11.026,5.421,16.66,6.828,6.247,1.559,12.791,2.585,19.225,2.923,17.554.923,35.253.635,52.825.618,20.123-.02,40.246-.23,60.367-.536,18.436-.281,36.871-.646,55.304-1.082,12.613-.298,25.226-.622,37.837-1.014,13.512-.42,27.076-1.146,40.469-3.045,6.703-.95,13.18-2.924,19.577-5.086,6.958-2.352,13.891-4.777,20.835-7.169,13.874-4.78,27.747-9.559,41.621-14.339,6.999-2.411,14.002-4.813,20.998-7.234,4.207-1.456,9.151-3.662,10.887-8.116,1.842-4.725-1.247-8.819-5.796-9.991-3.74-.963-7.736-.644-11.562-.602-20.692.229-41.384.41-62.076.651-5.443.063-10.885.13-16.328.204-2.572.035-2.579,4.035,0,4h0Z"/><path class="m" d="M37.873,149.885c3.496,3.706,8.406,4.962,13.176,6.16,2.32.583,4.622,1.237,6.947,1.797.671.162,1.34.304,1.922.663.35.216.181.077.251.273-.086-.242-.009.08-.005.144.02.304.009.623.008.928,0,1.529-.15,3.074-.463,4.571-.075.359-.159.717-.266,1.068-.063.205.036.251-.196.455.251-.22-.086,0-.283.026-.648.087-1.321.077-1.973.059-4.746-.133-9.645-1.762-14.089-3.339-4.796-1.702-9.385-4.083-12.966-7.76-1.799-1.847-4.626.982-2.828,2.828,3.735,3.835,8.435,6.401,13.396,8.297,5.048,1.93,10.631,3.679,16.054,3.955,2.319.118,5.009-.003,6.271-2.272.95-1.708,1.082-4.002,1.251-5.902.146-1.64.391-3.694-.494-5.164-1.176-1.952-3.394-2.399-5.432-2.9-3.253-.801-6.517-1.652-9.744-2.553-2.88-.803-5.622-1.954-7.707-4.164-1.77-1.876-4.595.956-2.828,2.828h0Z"/><path class="m" d="M50.822,154.459c-1.468,3.295-2.976,6.579-3.872,10.087-.258,1.012.33,2.217,1.397,2.46,1.04.237,2.183-.312,2.46-1.397.425-1.664.975-3.289,1.615-4.883.073-.182.147-.364.222-.545.043-.103.086-.207.129-.31-.093.22-.095.225-.005.014.155-.36.311-.719.469-1.078.343-.778.693-1.553,1.039-2.33.425-.953.309-2.194-.718-2.736-.871-.46-2.282-.303-2.736.718h0Z"/><path class="m" d="M38.295,162.742c1.298-1.553,2.618-3.09,4.037-4.534.672-.683,1.365-1.345,2.085-1.978.384-.338.776-.668,1.175-.989.096-.077.193-.154.29-.231.295-.235-.189.14.009-.008.223-.166.444-.334.669-.498.433-.316.772-.66.919-1.195.132-.479.072-1.116-.202-1.541-.539-.836-1.832-1.376-2.736-.718-3.463,2.522-6.337,5.588-9.075,8.862-.67.802-.844,2.053,0,2.828.74.679,2.112.857,2.828,0h0Z"/><path class="n" d="M188.142,195.247c-1.151-.239-2.302-.478-3.452-.717-.254,3.123-.509,6.27-.764,9.387-.041.456-.082.919-.16,1.371,2.422-.357,4.506-1.725,5.285-2.603,1.499-1.689,2.623-4.008,2.899-6.648-1.269-.264-2.538-.528-3.807-.791Z"/><path class="n" d="M180.72,208.652c-.068.026-.136.051-.204.076-6.227,2.355-12.854,3.43-19.431,4.493-2.73.444-5.43.558-8.188.272-4.081-.435-6.945-.728-10.518-3.053-1.566-1.019-2.09-2.412-2.403-2.982-1.451-2.639-1.638-5.693-1.675-8.297-.03-2.155-.11-7.033,2.045-10.05.969-1.356,2.335-2.333,4.171-2.264l3.728.139c12.021,2.476,24.208,5.003,36.447,7.545-.255,3.122-.51,6.269-.766,9.387-.048.531-.095,1.073-.203,1.595-.135.643-.361,1.249-.78,1.749-.557.688-1.387,1.075-2.222,1.391Z"/><path class="n" d="M141.505,187.861c-.437.352-.822.778-1.159,1.25-2.155,3.017-2.075,7.896-2.045,10.05.037,2.604.224,5.658,1.675,8.297.313.57.837,1.963,2.403,2.982.432.281.854.533,1.269.759.783.279,1.864.455,2.9.108,1.838-.617,2.825-3.207,3.089-4.184.653-2.416.862-4.084.879-6.496.024-3.25-.124-5.258-.802-7.676-.44-1.569-1.62-5.13-4.416-5.899,0,0-.368-.101-.736-.202l-.047-.002c-1.197-.045-2.194.355-3.011,1.014Z"/><path class="m" d="M182.556,196.19c-.23,2.813-.247,5.743-.709,8.528-.173,1.043-.566,1.534-1.523,1.954-1.234.541-2.564.928-3.853,1.317-5.327,1.611-10.894,2.598-16.398,3.378-2.803.397-5.6.307-8.404-.008-2.023-.227-4.084-.542-5.962-1.367-.972-.427-2.077-.97-2.84-1.718-.572-.56-.906-1.311-1.262-2.017-1.078-2.139-1.257-4.553-1.299-6.91-.036-1.986-.03-3.998.408-5.945.443-1.972,1.42-4.551,3.805-4.557,2.573-.007,2.578-4.007,0-4-6.212.017-8.015,6.926-8.202,11.952-.178,4.778.114,10.704,3.723,14.305,1.903,1.899,4.816,3.05,7.401,3.622,3.006.666,6.249.999,9.324.912,3.327-.094,6.635-.755,9.905-1.328s6.549-1.234,9.754-2.139c2.956-.835,7.288-1.657,8.74-4.723.76-1.604.76-3.479.902-5.217.165-2.013.328-4.027.493-6.04.209-2.566-3.792-2.552-4,0h0Z"/><path class="n" d="M134.06,184.07c-6.351-2.275-7.38-6.701-6.816-9.548,1.25-3.586,6.932-4.218,10.985-4.325,25.835-.682,59.874.963,84.484,3.145,1.501.133,4.733.858,9.903,3.332,15.838,7.356,23.029,9.727,40.964,16.971,10.357,4.183,19.551,9.515,30.717,9.226,2.456-.064,5.033-.43,7.279.565,2.246.996,3.769,4.088,2.181,5.963-12.904,8.43-29.828,5.649-44.928,2.555-43.953-9.004-90.816-18.88-134.769-27.884"/><path class="m" d="M134.592,182.142c-2.278-.847-4.58-2.38-5.262-4.73-.194-.67-.331-1.661-.182-2.25.168-.665,1.145-1.411,1.961-1.781,2.419-1.098,5.273-1.139,7.879-1.203,3.481-.085,6.963-.126,10.445-.135,15.024-.038,30.05.475,45.05,1.3,7.186.395,14.368.869,21.542,1.438,1.624.129,3.248.263,4.871.402.674.058,1.349.106,2.021.18.058.006-.296-.056.102.019.258.049.516.095.772.151,2.945.645,5.697,1.887,8.42,3.147,11.89,5.504,24.091,10.2,36.255,15.053,7.154,2.854,14.128,6.322,21.439,8.759,3.596,1.199,7.312,2.033,11.099,2.302,1.906.135,3.794.038,5.7-.024,1.558-.051,3.563-.146,4.796.992.785.725,1.208,1.73.531,2.627l.718-.718c-8.952,5.764-19.832,5.942-30.076,4.677-5.401-.666-10.735-1.795-16.061-2.888-6.015-1.234-12.029-2.472-18.043-3.714-24.429-5.044-48.847-10.14-73.271-15.207-13.565-2.814-27.132-5.619-40.704-8.399-2.513-.515-3.587,3.34-1.063,3.857,30.191,6.185,60.358,12.489,90.533,18.752,14.875,3.087,29.748,6.179,44.634,9.214,12.55,2.558,26.391,5.109,38.833.694,1.525-.541,3.025-1.18,4.464-1.92,1.374-.707,3.055-1.446,3.837-2.845,1.516-2.712-.086-6.046-2.407-7.696-2.889-2.053-6.715-1.315-10.014-1.317-3.406-.002-6.747-.571-10.018-1.498-6.822-1.932-13.181-5.207-19.736-7.853-5.934-2.396-11.898-4.718-17.847-7.076-5.059-2.006-10.091-4.073-15.066-6.276-3.084-1.366-6.118-2.847-9.212-4.188-2.306-.999-4.692-1.951-7.173-2.417s-5.058-.53-7.568-.732c-3.14-.252-6.282-.486-9.426-.702-6.715-.463-13.435-.851-20.159-1.169-13.586-.642-27.193-1.023-40.795-.912-3.029.025-6.066.03-9.092.171-2.705.126-5.46.46-7.953,1.573-2.293,1.023-4.029,2.919-4.226,5.479-.155,2.009.408,4.125,1.538,5.794,1.653,2.441,4.138,3.914,6.854,4.924,2.416.898,3.459-2.966,1.063-3.857h0Z"/><path class="m" d="M144.768,188.979c1.555.489,2.326,2.326,2.793,3.752.725,2.216.939,4.464.957,6.786.02,2.582-.089,5.271-1.015,7.717-.263.694-.695,1.678-1.366,2.08-.334.2-.799.221-1.179.17-.278-.037-.594-.138-.851-.24-.124-.049-.422-.29-.123-.037-1.953-1.654-4.796,1.162-2.828,2.828,2.782,2.356,6.865,1.738,8.926-1.177,1.891-2.675,2.346-6.394,2.425-9.573.135-5.378-.406-14.188-6.675-16.162-2.461-.775-3.514,3.086-1.063,3.857h0Z"/><path class="m" d="M185.04,207.072c1.969-.478,4.147-1.505,5.503-3.063,1.557-1.791,2.667-3.956,3.156-6.283.215-1.021-.299-2.21-1.397-2.46-1.003-.228-2.23.302-2.46,1.397-.107.509-.241,1.011-.41,1.503-.079.229-.186.452-.257.682l.099-.236c-.035.08-.071.159-.107.238-.046.098-.093.196-.141.292-.218.437-.462.861-.731,1.268-.115.173-.237.34-.357.509-.24.337.256-.31.012-.018-.078.093-.154.187-.234.278-.207.238-.435.444-.675.647-.281.238.412-.292.093-.074-.072.049-.142.102-.215.151-.17.116-.343.227-.52.332-.208.124-.421.24-.638.349-.084.042-.502.307-.581.271.276-.115.313-.133.11-.051l-.125.048c-.127.047-.255.092-.385.135-.264.087-.532.16-.802.226-1.017.247-1.722,1.454-1.397,2.46.342,1.057,1.37,1.662,2.46,1.397h0Z"/><path class="m" d="M339.678,139.869c5.738-6.984,11.852-13.674,18.222-20.087,3.087-3.108,6.255-6.128,9.518-9.05,3.201-2.868,6.467-5.556,10.365-7.436,2.192-1.057,4.579-1.702,6.962-2.159,1.336-.256,2.681-.439,4.035-.572.948-.093,3.249-.605,3.91-.121l-.718-.718c-.086-.118-.255-.944-.254-.857.002.23.167-.591.037-.291-.093.213-.113.504-.171.731-.19.733-.416,1.458-.641,2.181-.743,2.388-1.544,4.758-2.348,7.126-2.217,6.532-4.507,13.039-6.787,19.55-1.237,3.534-2.475,7.068-3.698,10.606-.843,2.438,3.019,3.485,3.857,1.063,2.425-7.013,4.898-14.009,7.336-21.017,1.981-5.693,4.039-11.38,5.769-17.156.465-1.553,1.274-3.525-.364-4.673-1.074-.753-2.185-.699-3.439-.622-1.277.079-2.552.188-3.822.342-2.445.295-4.879.705-7.242,1.41-8.741,2.607-15.483,9.404-21.862,15.597-7.582,7.36-14.785,15.158-21.493,23.322-1.622,1.974,1.193,4.82,2.828,2.828h0Z"/><path class="n" d="M385.591,152.29c8.177,5.46,13.091,9.966,19.778,14.221.483.307,1.039.532,1.39.984.699.9.452,2.266-.249,3.165-1.815,2.329-5.397,1.915-8.261,1.196-13.82-3.47-36.673-12.427-49.11-19.382"/><path class="m" d="M384.581,154.017c5.343,3.581,10.335,7.624,15.562,11.364,1.163.832,2.342,1.643,3.542,2.423.321.209.644.412.97.611.204.124.603.585.485.201.136.441-.183.845-.494,1.12-1.672,1.483-4.856.458-6.718-.026-10.815-2.814-21.397-6.818-31.658-11.215-5.478-2.348-10.914-4.845-16.123-7.747-2.251-1.254-4.27,2.199-2.019,3.454,10.806,6.021,22.487,10.681,34.133,14.794,5.372,1.897,10.879,3.876,16.471,5.022,2.977.61,6.542.761,8.858-1.57,1.168-1.176,1.845-2.919,1.483-4.573-.388-1.78-1.801-2.509-3.203-3.416-6.653-4.303-12.689-9.484-19.272-13.896-2.144-1.437-4.149,2.026-2.019,3.454h0Z"/></g><g id="g"><path class="n" d="M232.788,90.862c-1.194.916-3.105,1.449-4.609,1.504l-.165.006c.771,1.574,5.499,14.039,8.047,19.61.542,1.185,2.057,1.546,3.068.724,4.992-4.06,10.927-9.745,15.304-14.227l-1.004-1.184c-.142-.167-.283-.345-.424-.522-.593-.751-1.215-1.533-1.418-2.474-.115-.506-.099-1.026-.083-1.546.071-1.95.133-3.901.195-5.859-1.114.28-2.252.466-3.417.564-2.208.186-4.297.014-6.278-.19-1.742-.282-3.399-.676-5.011-1.171-.369.58-2.788,3.8-4.204,4.764"/><path class="q" d="M265.762,76.51c1.057-1.523,1.9-3.038,2.566-4.453.293.023.462.037.462.037.985.08,2.012.01,2.868-.335,1.74,1.132,2.465,2.928,2.639,3.543.544,1.933.292,4.006-.219,5.948-.704,2.674-1.893,5.219-3.493,7.474-.864,1.217-1.85,2.358-2.533,3.685-.683,1.327-1.391,3.39-.894,4.797.419,1.186,1.269,2.46.861,3.031l-1.934,2.163c-3.317-1.995-7.158-3.7-10.277-4.781-1.017,1.39-1.909.271-2.8-.847-.593-.751-1.215-1.533-1.418-2.474-.115-.506-.099-1.026-.083-1.546.071-1.95.133-3.901.195-5.859,3.472-.872,6.714-2.658,9.855-5.546,1.682-1.546,3.069-3.197,4.208-4.838Z"/><path class="o" d="M234.473,108.32c-2.606-6.224-5.935-14.941-6.49-16.013-5.476.087-11.782.258-17.524,1.927-2.002.582-3.942,1.359-5.878,2.134-2.595,1.04-5.19,2.079-7.785,3.119v54.628c3.41-.006,6.044-.015,7.381-.032l26.631-.765c9.419-.19,18.662-.389,28.007-.46.633-4.365,1.865-11.413,2.745-16.576,7.342,9.098,14.432,15.517,25.038,20.313,1.547.7,4.439,1.227,6.319.924,1.508-.243,4.125-1.88,5.132-3.029,5.915-6.748,8.638-14.86,9.762-22.658.095-.659-.341-1.279-.988-1.437-6.681-1.637-12.895-3.486-19.459-5.523-.729-.226-1.508.158-1.779.872-.172.454-.34.871-.504,1.267-4.036-3.459-10.602-16.707-14.946-21.766-3.872-3.27-10.169-6.229-14.732-7.762-4.441,4.611-10.903,10.857-16.272,15.225-1.011.822-2.526.461-3.068-.724-.469-1.025-1.011-2.282-1.589-3.663Z"/><path class="p" d="M249.721,86.206c-.07,2.215-.156,4.43-.22,6.645-.035,1.198.147,2.305.699,3.377.466.904,1.166,1.704,1.815,2.481.674.806,2.142.747,2.828,0,.787-.857.718-1.969,0-2.828-.144-.172-.285-.346-.424-.522-.02-.026-.363-.494-.131-.166-.246-.347-.48-.685-.675-1.063.186.358-.028-.089-.055-.187-.033-.12-.059-.242-.08-.365.033.212.039.196.018-.046.021-.439.011-.883.027-1.323.071-2.001.134-4.002.197-6.003.033-1.047-.944-2.047-2-2-1.112.05-1.964.879-2,2h0Z"/><path class="p" d="M271.4,74.155c1.538,1.79,1.345,4.178.805,6.339-.634,2.533-1.735,4.898-3.224,7.042-1.42,2.044-2.976,3.893-3.654,6.345-.301,1.09-.451,2.267-.215,3.383.182.858,1.068,1.954.991,2.783l.273-1.009-.087.192c-.444.984-.283,2.151.718,2.736.857.501,2.29.272,2.736-.718.591-1.309.288-2.371-.259-3.635-.498-1.152-.58-1.809-.191-3.031.841-2.642,3.084-4.662,4.407-7.066,2.698-4.901,4.541-11.516.527-16.189-1.68-1.956-4.498.884-2.828,2.828h0Z"/><path class="p" d="M228.179,94.366c.993-.041,2.003-.204,2.953-.501.93-.291,1.883-.685,2.666-1.277.433-.327.769-.651.919-1.195.132-.479.072-1.116-.202-1.541-.275-.427-.685-.803-1.195-.919-.489-.111-1.122-.115-1.541.202-.427.323-.899.576-1.391.785l.478-.202c-.769.319-1.578.533-2.402.648l.532-.071c-.271.036-.543.06-.816.072-.526.022-1.037.208-1.414.586-.347.347-.608.916-.586,1.414.023.517.193,1.054.586,1.414.382.351.881.608,1.414.586h0Z"/><path class="n" d="M303.761,122.489c-.308-5.408-.72-12.013-.813-15.728,0,0-.009-.364-.014-.88,3.242-3.997,4.013-9.354,3.48-13.548-.415-3.267-.592-6.883-3.042-9.084-1.35-1.213-4.132-1.589-5.539-.442-.924-1.381-3.272-2.161-4.531-2.218-1.222-.055-2.236.849-3.174,1.691-1.037-1.249-4.613-1.481-6.103-.833s-2.513,3.341-2.306,4.951l-.051.597c-.425.133-.857.325-1.311.594-1.717,1.018-2.576,3.024-3.061,4.96-.81,3.232-.847,6.793.676,9.756,2.189,4.258,6.987,6.37,11.425,8.166-.002,5.402-.233,8.249-1.239,13.557l-.195,1.029c5.455,1.689,10.684,3.247,16.161,4.659-.045-.993-.076-1.664-.076-1.664-.063-1.506-.168-3.443-.288-5.563Z"/><path class="p" d="M290.088,124.56c.88-4.686,1.302-9.322,1.31-14.088.002-.965-.639-1.592-1.468-1.929-2.952-1.197-6.09-2.498-8.394-4.768-2.603-2.564-3.217-6.172-2.536-9.674.292-1.504.702-3.354,1.894-4.428,1.145-1.031,2.652-1.034,4.093-.779.648.115.857.173,1.156.781.196.399.355.838.194,1.275-.426,1.153-2.087,1.306-3.103,1.266-2.574-.102-2.57,3.898,0,4,3.472.138,7.438-2.079,7.142-6.014-.15-1.993-1.302-4.048-3.187-4.832-1.622-.674-3.744-.786-5.458-.448-4.278.843-6.136,5.044-6.73,8.942-.655,4.305.091,8.576,2.972,11.951,2.802,3.284,6.995,5.002,10.894,6.584l-1.468-1.929c-.007,4.411-.353,8.688-1.167,13.025-.472,2.516,3.382,3.594,3.857,1.063h0Z"/><path class="p" d="M283.719,86.398c-.095-1.104.327-2.89,1.393-3.201.975-.285,2.962-.175,3.601.497.774.815,2.039.706,2.828,0,.712-.636,1.311-1.23,2.265-1.018.744.165,1.819.498,2.299,1.14.597.799,1.783,1.406,2.736.718,1.648-1.191,3.522.16,4.294,1.691.989,1.96,1.117,4.436,1.332,6.586.463,4.624-.682,9.458-4.014,12.83-1.811,1.833,1.015,4.663,2.828,2.828,4.634-4.689,5.733-11.103,4.977-17.42-.376-3.142-.829-6.425-3.088-8.833-1.997-2.129-5.88-2.919-8.348-1.136l2.736.718c-1.203-1.611-2.995-2.655-4.972-3.04-2.405-.469-4.12.542-5.874,2.109h2.828c-1.787-1.881-5.359-2.171-7.729-1.462-2.757.825-4.326,4.28-4.093,6.994.218,2.546,4.22,2.569,4,0h0Z"/><path class="p" d="M300.948,106.761c.185,7.105.799,14.192,1.101,21.292.109,2.564,4.11,2.578,4,0-.302-7.1-.916-14.187-1.101-21.292-.067-2.569-4.067-2.579-4,0h0Z"/><path class="p" d="M260.399,138.01c4.416,5.422,9.277,10.442,14.996,14.502,2.859,2.03,5.903,3.788,9.07,5.29,2.857,1.355,6.48,2.469,9.632,1.479,3.372-1.06,5.699-3.565,7.718-6.33,2.236-3.061,3.959-6.457,5.283-10.004,1.252-3.352,2.098-6.854,2.613-10.392.315-2.164-.743-3.653-2.833-4.206-2.025-.536-4.059-1.034-6.079-1.59-2.38-.654-4.75-1.341-7.114-2.048-1.154-.345-2.307-.695-3.458-1.048-1.058-.324-2.213-.854-3.331-.846-2.358.016-3.038,2.008-3.813,3.822-.781,1.828-1.594,3.633-2.249,5.513-.85,2.435,3.013,3.482,3.857,1.063.447-1.283.958-2.531,1.504-3.774.304-.691.605-1.383.891-2.081.023-.057.316-.695.258-.725-.589.084-.681.163-.277.239.234.072.467.145.701.217,3.517,1.087,7.042,2.149,10.586,3.143,1.696.476,3.396.935,5.1,1.376.241.062,2.81.78,2.837.715l-.465-.639c-.039.257-.079.513-.121.769-.063.386-.131.771-.202,1.156-.559,3.015-1.366,5.987-2.479,8.846-1.145,2.942-2.69,5.745-4.536,8.304-1.43,1.982-3.31,4.254-5.856,4.782-2.61.542-5.352-.768-7.606-1.906-2.645-1.336-5.195-2.86-7.612-4.576-5.421-3.851-10.003-8.741-14.186-13.877-.683-.838-2.119-.709-2.828,0-.829.829-.684,1.988,0,2.828h0Z"/><path class="p" d="M227.982,90.308c-5.24.085-10.521.267-15.659,1.392-5.545,1.214-10.811,3.757-16.06,5.86-1.002.401-1.706,1.335-1.397,2.46.262.952,1.452,1.801,2.46,1.397,5.111-2.048,10.239-4.518,15.621-5.761,4.924-1.137,10.004-1.266,15.035-1.348,2.571-.042,2.579-4.042,0-4h0Z"/><path class="p" d="M295.587,83.273c-.53,1.693-.975,3.416-1.279,5.165-.313,1.799-.744,3.999-.182,5.794.656,2.093,2.498,3.434,4.705,3.293,1.042-.067,1.94-.35,2.742-1.036.766-.656,1.262-1.587,1.532-2.547.283-1.006-.348-2.221-1.397-2.46-1.062-.242-2.157.319-2.46,1.397-.025.088-.24.54-.051.21-.069.121-.146.242-.212.364-.083.122-.059.091.073-.092-.049.056-.1.109-.155.159-.195.14.35-.145.03-.02-.402.157.46-.085.045-.014-.08.014-.415.149-.126.043.28-.103-.072,0-.171.003-.155.004-.306-.012-.461-.016.473.01.071-.014-.066-.041-.36-.07.207.109.02.006-.142-.078.218.241-.023-.035-.356-.408.176.321-.098-.136-.188-.312.008.153-.041-.06-.013-.056-.161-.576-.103-.318.06.265-.011-.198-.012-.259-.005-.172-.002-.345.001-.517.014-.677.073-1.355.163-2.027-.04.295.005-.008.026-.142.025-.162.052-.323.08-.485.068-.39.143-.779.225-1.167.284-1.349.642-2.682,1.054-3.998.313-.999-.369-2.226-1.397-2.46-1.088-.248-2.125.328-2.46,1.397h0Z"/><path class="p" d="M288.22,81.973c-.771,2.046-1.24,4.154-1.527,6.318-.256,1.928-.698,4.233.041,6.09.414,1.039.984,2.035,1.91,2.696.785.56,1.763.811,2.715.88,1.934.141,4.132-1.103,4.918-2.901.432-.989.291-2.147-.718-2.736-.848-.496-2.301-.277-2.736.718-.063.143-.128.275-.211.407-.075.115-.067.105.024-.03l-.135.139c-.458.396.159-.078-.13.116-.135.091-.277.168-.419.247-.194.094-.229.111-.106.05.109-.049.087-.047-.068.006-.143.129-.141-.037.081-.006-.149-.02-.348-.005-.5-.01.188.006.222.048.017-.009-.168-.047-.333-.084-.496-.147.156.059.226.076.034-.007-.16-.105-.174-.111-.042-.018.121.097.119.084-.006-.037-.017.041.106.172-.036-.068-.107-.181-.215-.355-.309-.543.09.181-.02-.034-.043-.106-.062-.19-.131-.396-.156-.595.038.306.031-.05.035-.17.097-3.214.562-6.146,1.721-9.222.37-.981-.41-2.235-1.397-2.46-1.138-.259-2.065.347-2.46,1.397h0Z"/><path class="p" d="M254.87,99.411c3.671,1.249,7.231,2.889,10.537,4.92,1.415.869,2.914,1.766,3.939,3.093.837,1.083,1.593,2.232,2.338,3.379,3.577,5.501,6.566,11.6,10.914,16.555,1.701,1.938,4.521-.9,2.828-2.828-2.064-2.351-3.688-5.107-5.329-7.759-1.875-3.03-3.685-6.106-5.672-9.066-.839-1.25-1.693-2.589-2.724-3.692-1.262-1.351-3.047-2.398-4.62-3.344-3.499-2.105-7.285-3.8-11.149-5.114-2.442-.831-3.491,3.031-1.063,3.857h0Z"/><path class="p" d="M253.987,96.068c-2.586,2.68-5.236,5.298-7.946,7.853-1.415,1.334-2.847,2.65-4.302,3.94-.726.644-1.459,1.282-2.198,1.911-.331.281-1.339,1.436-1.773,1.407.28.019-.097-.463-.222-.741-.25-.559-.494-1.12-.735-1.683-.535-1.249-1.051-2.507-1.564-3.766-1.097-2.693-2.167-5.397-3.241-8.099-.738-1.858-1.396-3.803-2.297-5.592-1.158-2.3-4.61-.277-3.454,2.019.104.207.193.42.286.633.085.195-.066-.157-.066-.156.041.098.082.197.123.295.093.228.186.455.279.682.465,1.146.921,2.297,1.377,3.446,1.197,3.013,2.39,6.027,3.623,9.024.589,1.433,1.186,2.862,1.805,4.283.657,1.509,1.341,2.956,3.066,3.457,2.147.623,3.631-.704,5.16-1.99,1.664-1.401,3.291-2.847,4.894-4.318,3.438-3.154,6.775-6.42,10.015-9.777,1.788-1.853-1.037-4.685-2.828-2.828h0Z"/><path class="p" d="M261.708,123.979c-1.665,9.129-3.31,18.281-4.548,27.479-.144,1.069.257,2.147,1.397,2.46.931.256,2.315-.319,2.46-1.397,1.238-9.198,2.883-18.35,4.548-27.479.459-2.517-3.395-3.596-3.857-1.063h0Z"/><path class="n" d="M276.674,47.321c-.28,3.114-.787,6.618-1.79,9.136.077.006.15.025.224.046,1.07.307,1.977,1.097,2.358,2.06.27.676.289,1.408.262,2.116-.125,2.788-1.039,5.524-2.62,7.871-.77,1.143-1.718,2.21-2.938,2.956-.936.564-2.189.686-3.38.589,0,0-.167-.014-.461-.04-1.383,2.941-3.532,6.312-6.775,9.294-4.149,3.815-8.473,5.706-13.272,6.11-2.208.186-4.297.014-6.278-.19-1.965-.318-3.822-.779-5.629-1.366-4.58-1.488-8.697-4.666-11.713-9.427-2.37-3.742-3.571-7.577-4.139-10.787-1.707.318-2.879-.661-3.677-1.49-.985-1.037-1.623-2.313-2.07-3.617-.918-2.676-1.09-5.557-.487-8.281.158-.691.366-1.392.802-1.975.618-.831,1.699-1.358,2.813-1.377.132-.002.264.003.395.015-.026-.535-.041-.851-.041-.851-.127-2.666.136-5.665.618-8.424,2.016-11.545,14.266-23.102,33.957-20.102,21.297,3.245,24.217,23.549,23.84,27.736Z"/><path class="q" d="M216.777,34.438c2.054-7.246,6.283-12.008,10.969-15.441,4.368-3.2,13.773-7.103,23.59-5.806,5.988.791,8.928,1.423,13.165,4.486l3.707,2.68c.722.531,1.443,1.061,1.443,1.061,1.155.849,1.821,1.415,3.673,3.742,4.283,5.384,6.569,14.355,6.104,22.056-.148,2.453-1.188,7.84-2.501,10.468-.457-.551-1.102-.975-1.821-1.181-1.07-.307-2.283-.118-3.165.489,0,0-.345.262-.852.66-.213-1.139-.514-2.8-.774-3.601-.235-.724-.53-1.431-.926-2.082-.176-.289-.367-.598-.598-.847-.384-.414-1.195-1.284-1.615-1.666-2.093-1.904-3.485-3.787-4.747-6.303-1.288-2.567-2.382-5.662-1.78-8.565-3.649,5.094-9.455,9.611-18.676,9.73-1.923.025-3.489-1.88-5.258-2.181-5.246,2.575-12.384,6.501-14.365,9.887l-1.518-1.783c-.694-.815-1.816-1.313-2.929-1.294-.794.014-1.572.286-2.181.742-.593-6.059-.132-11.069,1.054-15.252Z"/><path class="p" d="M272.952,58.719c.901-.575,2.26-.482,2.697.65.212.549.087,1.582.006,2.251-.103.847-.316,1.688-.578,2.499-.494,1.532-1.331,3.118-2.351,4.28-.513.584-1.075,1.172-1.772,1.493-.008.004-.593.182-.63.188-.5.081-1.034.048-1.536.014-1.079-.073-2,.972-2,2,0,1.143.918,1.927,2,2,2.748.186,5.062-.88,6.847-2.959,1.715-1.998,2.963-4.435,3.595-6.991.643-2.6,1.011-5.808-.944-7.946-1.853-2.028-5.053-2.4-7.354-.932-.91.58-1.278,1.778-.718,2.736.53.906,1.822,1.301,2.736.718h0Z"/><path class="p" d="M222.248,48.827c-1.876-2.043-5.169-2.505-7.476-.904-2.432,1.688-2.863,5.037-2.835,7.788s.675,5.654,2.085,8.031c1.306,2.201,3.526,4.192,6.246,3.988,1.077-.081,2-.861,2-2,0-1.02-.917-2.081-2-2-.642.048-1.1-.132-1.416-.383-.6-.477-1.069-1.084-1.448-1.744-.856-1.493-1.314-3.284-1.432-4.994-.064-.938-.063-1.903.068-2.836.098-.698.201-1.63.625-2.214.669-.922,1.99-.734,2.754.098.731.796,2.087.741,2.828,0,.792-.792.733-2.031,0-2.828h0Z"/><path class="p" d="M273.151,57.81c-.374-1.909-.637-3.831-1.421-5.626-.875-2.003-2.371-3.351-3.89-4.856-1.582-1.568-2.792-3.375-3.774-5.369-1.018-2.067-1.906-4.504-1.487-6.839.407-2.268-2.306-3.405-3.655-1.541-4.008,5.538-9.811,9.238-16.769,9.311-2.572.027-2.579,4.027,0,4,8.456-.088,15.372-4.589,20.223-11.292l-3.655-1.541c-.918,5.121,1.558,10.418,4.71,14.347,1.256,1.565,3.027,2.765,4.141,4.429,1.165,1.74,1.329,4.037,1.722,6.041.495,2.524,4.351,1.455,3.857-1.063h0Z"/><path class="p" d="M242.727,35.639c-2.663,3.357-7.324,5.135-11.142,7.094-4.004,2.054-8.656,4.341-11.018,8.373-1.304,2.226,2.152,4.241,3.454,2.019.872-1.489,2.373-2.719,3.941-3.755,2.041-1.348,4.227-2.463,6.403-3.572,3.84-1.955,8.44-3.864,11.191-7.331.671-.845.825-2.003,0-2.828-.696-.696-2.153-.851-2.828,0h0Z"/><path class="p" d="M265.511,15.949c-4.303-3.073-9.006-4.115-14.175-4.759-6.011-.749-12.245.235-17.848,2.499-7.993,3.229-14.439,9.27-17.659,17.33-2.231,5.584-2.649,11.764-2.192,17.707.196,2.55,4.198,2.571,4,0-.666-8.663.771-17.587,6.843-24.171s15.224-9.94,24.11-9.597c2.8.108,5.689.534,8.401,1.248,2.4.631,4.488,1.76,6.501,3.198.88.628,2.226.155,2.736-.718.588-1.005.164-2.107-.718-2.736h0Z"/><path class="p" d="M279.221,57.402c2.57-6.536,2.799-13.843,1.339-20.654-1.385-6.463-4.472-13.042-9.899-17.057-.869-.643-2.233-.144-2.736.718-.595,1.018-.153,2.092.718,2.736,4.465,3.304,7.029,9.57,8.143,15.063,1.224,6.031.841,12.378-1.422,18.131-.395,1.006.434,2.196,1.397,2.46,1.135.312,2.063-.388,2.46-1.397h0Z"/><path class="p" d="M218.17,63.019c.891,9.67,5.981,19.672,15.168,23.827,4.744,2.146,10.339,3.128,15.525,2.555,5.078-.561,9.579-2.705,13.43-6.037,4.119-3.563,7.139-8.226,9.02-13.313.894-2.418-2.97-3.461-3.857-1.063-2.821,7.627-9.181,14.644-17.408,16.226-8.416,1.618-17.99-1.617-22.962-8.703-2.782-3.964-4.472-8.672-4.916-13.491-.099-1.076-.848-2-2-2-1.005,0-2.1.918-2,2h0Z"/><g id="h"><path class="p" d="M244.202,61.85c-.28.667-.54,1.343-.764,2.031-.109.334-.178.696-.16,1.046.022.436.121.806.332,1.188s.536.635.89.871c.46.306.96.41,1.498.461.147.014.291-.004.438-.003.51.004,1.054-.226,1.414-.586.347-.347.608-.916.586-1.414-.023-.517-.193-1.054-.586-1.414s-.871-.582-1.414-.586c-.159-.001-.315.019-.474-.002l.532.071c-.081-.014-.157-.035-.233-.065l.478.202c-.114-.049-.215-.112-.314-.187l.405.313c-.021-.016-.039-.034-.056-.054l.313.405c-.023-.032-.039-.061-.055-.097l.202.478c-.012-.038-.02-.072-.026-.111l.071.532c-.005-.069-.002-.136.007-.205l-.071.532c.071-.413.251-.823.398-1.214.143-.378.291-.754.448-1.127.083-.266.095-.532.036-.798-.012-.266-.091-.514-.237-.744-.243-.415-.718-.811-1.195-.919-.512-.117-1.087-.091-1.541.202l-.405.313c-.248.25-.419.544-.514.883h0Z"/><path class="m" d="M233.128,53.834c-.593,1.294-.732,4.432,1.788,5.034,3.38.426,4.055-3.301,3.151-5.215-.74-1.567-3.398-2.529-4.939.182Z"/><path class="m" d="M260.172,57.406c.237,1.404-.443,4.47-3.033,4.397-3.374-.466-3.059-4.241-1.689-5.855,1.121-1.321,3.938-1.56,4.722,1.458Z"/><path class="p" d="M249.572,76.206c.85-1.003,1.647-2.01,2.122-3.245.481-1.249-.738-2.516-1.929-2.532-3.281-.044-6.56-.164-9.828-.466-1.273-.118-2.303,1.376-1.929,2.532.802,2.481,1.994,4.887,4.096,6.51,1.294,1,3.109,1.178,4.482.204,1.136-.806,2.083-1.954,2.985-3.003.681-.793.837-2.06,0-2.828-.749-.687-2.1-.847-2.828,0-.721.839-1.469,1.685-2.283,2.437-.061.056-.15.111-.2.176.231-.306.245-.16.062-.073-.219.104.451-.132.117-.047-.338.085.377.011.12-.009-.299-.024-.134,0,.058.039-.337-.071.193.158.022.016-.08-.066-.41-.215-.029.009-.107-.063-.2-.172-.291-.255-.159-.146-.316-.294-.467-.448-.079-.081-.156-.164-.23-.249-.232-.266,0-.111.003.022-.004-.133-.341-.489-.414-.605-.134-.213-.26-.432-.379-.653-.121-.223-.234-.45-.342-.68-.043-.091-.084-.183-.126-.275-.215-.463.155.398-.032-.068-.169-.423-.326-.849-.466-1.283l-1.929,2.532c3.268.302,6.547.422,9.828.466l-1.929-2.532c.229-.594,0-.034-.076.096-.103.178-.217.35-.335.519-.042.061-.47.615-.21.291-.155.193-.313.384-.473.573-.675.797-.841,2.057,0,2.828.744.683,2.106.853,2.828,0Z"/></g></g><g id="i"><path class="n" d="M114.264,93.488c1.675-1.38,2.502-2.778,3.224-4.769.161-.444.308-.894.441-1.347,1.183.055,2.929-.001,4.154-.054,2.236-.227,4.585-.513,6.983-1.223,1.474-.436,2.879-.995,4.22-1.689.371,1.089.703,2.06.703,2.06.425,1.246,1.345,4.677,1.77,5.924.089.278.189.546.351.779.317.436.842.657,1.353.796.589.155,1.238.176,1.976.203-1.308,2.983-8.151,12.172-12.138,16.867-.768.905-2.151.948-2.968.087-4.53-4.775-9.187-10.049-12.928-15.62,1.093-.574,2.156-1.32,2.858-2.014"/><path class="n" d="M15.183,77.143c3.752,1.777,9.132,3.649,13.076,4.232,1.594.779,3.996,2.588,6.024,3.87.041-.138.088-.274.136-.407,1.724-4.788,4.447-9.212,7.935-12.914-1.43-1.01-3.04-2.34-3.79-2.94-1.34-6.4-3.54-12.84-7.27-17.44-.64-.79-1.89-1.76-2.9-1.93-1-.17-2.49.5-2.95,1.41-.46.94-.33,1.99-.19,3.02.004.029.008.058.012.088-.371-.241-.642-.416-.642-.416-3.345-2.654-4.947-4.007-7.798-6.275-.67-.533-1.928-.976-2.797-1.105-1.4-.208-2.756.659-3.221,1.659-.305.657-.799,1.979-.172,2.909-.861-.714-3.792-1.841-5.099-.157-1.934,2.494.46,4.409,1.139,5.088-1.236-.761-2.109-.613-3.295.017s-1.711,2.515-1.256,3.708c.336.881.839,1.663,1.55,2.293,1.67,1.478,3.327,2.885,5.643,4.491-.836-.165-1.416-.393-3.01-.531-1.1-.095-2.521.464-2.759,2.536-.227,1.979,1.312,3.221,3.14,4.11,1.92.933,4.248,2.243,5.526,3.076.763.498,1.784,1.048,2.966,1.608Z"/><path class="n" d="M43.166,71.101c-.035.03-.07.061-.103.094-3.829,3.845-6.805,8.537-8.643,13.643-.276.766-.526,1.616-.238,2.378.263.695.915,1.154,1.531,1.57,14.003,9.442,28.006,18.883,42.008,28.325,5.862,3.953,14.848,7.911,21.335,10.723,0,0,.399.173,1.127.488,2.198,7.932,4.225,16.034,6.176,23.651,0,0,.1.389.274,1.077,8.82.22,20.523.542,27.318.627l25.993.502c4.245-.026,9.634-.039,15.199-.046,0-18.107,0-53.351,0-53.351-4.64-1.507-9.28-3.015-13.92-4.522-2.887-.938-5.799-1.881-8.816-2.215-1.728-.191-3.472-.179-5.211-.167-2.553.018-5.107.035-7.66.051-1.017,2.7-8.136,12.278-12.236,17.106-.768.905-2.151.948-2.968.087-4.542-4.788-9.212-10.077-12.958-15.665-2.346.499-9.27,1.538-10.453,1.625-2.267.167-5.876-.322-8.025-1.063-10.513-3.624-19.76-10.088-29.421-15.594-6.347-3.617-12.059-6.242-18.577-9.509-.566-.284-1.254-.215-1.734.184Z"/><path class="p" d="M93.974,114.535c4.073,12.486,7.203,25.254,10.458,37.97.638,2.492,4.497,1.436,3.857-1.063-3.255-12.716-6.385-25.484-10.458-37.97-.795-2.437-4.659-1.394-3.857,1.063h0Z"/><path class="p" d="M138.271,95.94c6.168-.043,12.522-.637,18.525,1.042s11.894,3.805,17.817,5.729c2.454.797,3.505-3.064,1.063-3.857-6.069-1.972-12.116-4.199-18.279-5.856-6.211-1.67-12.761-1.102-19.126-1.058-2.573.018-2.579,4.018,0,4h0Z"/><path class="p" d="M109.649,96.466c2.306,3.416,4.861,6.66,7.552,9.779,1.308,1.516,2.649,3.004,4.011,4.472,1.247,1.343,2.458,2.977,4.461,3.015,1.744.033,2.818-.999,3.847-2.244.919-1.112,1.817-2.241,2.703-3.38,1.873-2.407,3.707-4.846,5.456-7.345,1.395-1.992,2.906-4.037,3.793-6.321.391-1.007-.431-2.195-1.397-2.46-1.131-.311-2.067.386-2.46,1.397-.093.239.186-.325-.091.176-.119.216-.229.437-.35.652-.262.467-.543.924-.829,1.377-.735,1.165-1.514,2.301-2.307,3.427-1.913,2.717-3.913,5.377-5.987,7.973-.479.6-.963,1.197-1.452,1.788-.253.305-.709.955-.877.953-.255-.002-1.561-1.707-1.836-2.004-.783-.845-1.558-1.697-2.324-2.557-3.031-3.404-5.907-6.937-8.459-10.717-1.432-2.122-4.899-.123-3.454,2.019h0Z"/><path class="p" d="M28.323,57.763c-.441-1.293-.886-2.628-1.099-3.982-.137-.87-.408-2.414.898-2.205.924.148,1.796,1.393,2.296,2.093.909,1.273,1.701,2.627,2.395,4.028,1.386,2.798,2.355,5.791,3.127,8.811.207.811.398,1.625.576,2.443.189.87.515,1.35,1.18,1.886,1.196.964,2.4,1.92,3.65,2.814.879.629,2.226.154,2.736-.718.588-1.005.164-2.106-.718-2.736-1.164-.832-2.271-1.732-3.385-2.627l.514.883c-.716-3.38-1.638-6.719-2.951-9.919-1.246-3.038-2.783-6.177-5.023-8.622-2.218-2.422-6.001-3.305-8.354-.523-2.126,2.514-.634,6.699.3,9.438.826,2.423,4.691,1.383,3.857-1.063h0Z"/><path class="p" d="M100.067,126.107c-4.895-2.122-9.783-4.278-14.516-6.746-4.994-2.604-9.571-5.832-14.233-8.975-10.571-7.128-21.142-14.255-31.712-21.383-.686-.463-1.373-.926-2.059-1.388-.339-.229-1.21-.622-1.396-1.001-.375-.762.673-2.526,1.01-3.283,1.102-2.477,2.478-4.84,4.096-7.016.728-.979,1.522-1.911,2.353-2.804.141-.152.461-.409.576-.605l.293-.297c-.51.04-.561.124-.154.251.329.46,1.597.794,2.134,1.059,2.599,1.284,5.208,2.549,7.796,3.854,10.329,5.207,19.82,11.948,30.26,16.924,5.077,2.42,10.645,4.821,16.408,4.383,3.655-.277,7.399-.948,10.984-1.696,2.518-.525,1.453-4.382-1.063-3.857-3.196.667-6.82,1.28-9.774,1.54-5.11.449-10.033-1.677-14.536-3.824-5.359-2.556-10.438-5.644-15.522-8.699-5.22-3.136-10.502-6.115-15.952-8.834-2.828-1.411-5.673-2.787-8.501-4.197-1.285-.641-2.568-1.087-3.95-.4-1.236.615-2.199,1.938-3.071,2.976-1.855,2.208-3.497,4.597-4.832,7.155-.595,1.14-1.125,2.313-1.612,3.503-.59,1.443-1.284,3.021-.941,4.612.297,1.376,1.294,2.272,2.398,3.047,1.405.987,2.849,1.923,4.273,2.883,2.746,1.851,5.491,3.703,8.237,5.554,5.491,3.703,10.983,7.405,16.474,11.108,5.808,3.916,11.502,8.177,17.627,11.587,5.447,3.033,11.173,5.544,16.888,8.022.99.429,2.146.293,2.736-.718.494-.845.279-2.304-.718-2.736h0Z"/><path class="p" d="M112.088,97.398c.616-.306,1.211-.655,1.778-1.044.635-.437,1.261-.91,1.812-1.451.364-.357.586-.906.586-1.414,0-.491-.218-1.076-.586-1.414-.381-.35-.882-.61-1.414-.586s-1.026.205-1.414.586c-.257.252-.531.485-.814.706l.405-.313c-.738.57-1.536,1.063-2.371,1.477-.431.214-.795.743-.919,1.195-.132.479-.072,1.116.202,1.541.275.427.685.803,1.195.919l.532.071c.361-.001.697-.092,1.009-.273h0Z"/><path class="p" d="M26.039,52.301c-1.652-1.312-3.291-2.64-4.929-3.968-1.596-1.294-3.126-2.794-5.075-3.525-2.075-.779-4.355-.621-6.023.956-1.612,1.525-2.153,4.19-1.101,6.148l2.736-2.736c-2.268-1.746-6.053-1.903-7.835.561-1.962,2.712-.663,5.443,1.451,7.512l2.424-3.141c-2.114-1.181-4.783-.938-6.435.954-1.516,1.736-1.591,4.164-.568,6.15.906,1.76,2.62,3.009,4.129,4.229,1.855,1.501,3.797,2.879,5.811,4.158,2.179,1.384,4.188-2.076,2.019-3.454-2.424-1.539-4.71-3.226-6.874-5.112-.717-.625-1.847-1.474-1.802-2.539.041-.963.898-1.383,1.703-.933,1.956,1.093,4.078-1.522,2.424-3.141-.617-.604-1.825-1.484-1.045-2.356.555-.62,2.007.123,2.582.566,1.697,1.306,3.593-1.141,2.736-2.736-.365-.68.62-1.58,1.243-1.594,1.117-.025,2.112.797,2.922,1.447,2.23,1.791,4.442,3.604,6.681,5.383.845.671,2.003.825,2.828,0,.697-.697.85-2.153,0-2.828h0Z"/><path class="p" d="M9.496,64.34c-2.733-.639-5.982-1.058-7.424,1.988-1.718,3.629.868,6.486,3.952,8.026,2.689,1.344,5.161,3.072,7.863,4.378,3.018,1.459,6.191,2.657,9.414,3.576,1.561.445,3.549.511,4.917,1.327,1.756,1.047,3.397,2.279,5.121,3.377,2.178,1.386,4.187-2.074,2.019-3.454-1.676-1.067-3.273-2.26-4.973-3.289-1.458-.882-2.964-1.028-4.595-1.436-3.438-.86-6.841-2.068-10.027-3.625-1.251-.611-2.403-1.344-3.594-2.057-1.611-.964-3.296-1.771-4.944-2.665-.837-.454-2.432-1.529-1.424-2.654.004-.005.207-.041.508-.02.722.051,1.421.219,2.124.384,2.504.585,3.573-3.271,1.063-3.857h0Z"/><path class="p" d="M9.628,52.63c-.687-.528-.176-.135-.015-.008.147.117.294.235.441.353.366.296.731.594,1.095.892.884.725,1.765,1.453,2.647,2.181,1.504,1.243,2.993,2.511,4.537,3.704.44.34.833.586,1.414.586.491,0,1.076-.218,1.414-.586.656-.715.884-2.145,0-2.828-2.586-1.998-5.057-4.15-7.588-6.216-.636-.519-1.276-1.032-1.926-1.532-.381-.294-1.102-.322-1.541-.202-.464.128-.967.486-1.195.919-.245.464-.368,1.026-.202,1.541.171.53.482.859.919,1.195h0Z"/><path class="p" d="M5.668,57.562c.134.103.396.31-.199-.154.064.05.129.1.193.15.152.118.303.236.455.354.379.296.758.593,1.136.89.901.707,1.801,1.416,2.701,2.124,1.652,1.301,3.301,2.606,4.967,3.89.381.294,1.103.322,1.541.202.464-.128.967-.486,1.195-.919.561-1.061.171-2.051-.718-2.736-.216-.166.5.387.191.147-.066-.052-.133-.103-.199-.155-.155-.121-.31-.242-.466-.363-.385-.301-.769-.602-1.152-.903-.905-.711-1.809-1.423-2.713-2.134-1.634-1.286-3.264-2.578-4.913-3.845-.382-.293-1.102-.323-1.541-.202-.464.128-.967.486-1.195.919-.56,1.059-.172,2.053.718,2.736h0Z"/><path class="p" d="M132.061,86.998c.547,1.615.962,3.274,1.451,4.906.321,1.071.62,2.249,1.502,3.003,1.251,1.068,2.854,1.204,4.43,1.261,1.047.038,2.047-.947,2-2-.05-1.116-.879-1.959-2-2-.305-.011-.61-.021-.914-.043-.066-.004-.132-.01-.198-.016-.223-.024-.173-.015.149.026-.087-.052-.269-.046-.367-.069-.114-.027-.227-.058-.338-.095-.055-.017-.109-.037-.163-.057-.144-.054-.073-.025.213.089-.015-.022-.254-.17-.297-.171.25.204.297.236.144.096l-.077-.084c.188.253.227.289.116.107-.072-.151-.071-.146.001.016.166.286-.01-.063-.035-.137-.045-.136-.089-.271-.132-.408-.107-.339-.208-.68-.308-1.021-.437-1.489-.823-2.998-1.321-4.468-.335-.989-1.391-1.743-2.46-1.397-.982.318-1.756,1.399-1.397,2.46h0Z"/><path class="p" d="M24.664,57.287c-1.132,2.097-1.366,4.55-1.079,6.887.067.55.178,1.007.586,1.414.347.347.916.608,1.414.586.517-.023,1.054-.193,1.414-.586.333-.363.649-.901.586-1.414-.133-1.087-.161-2.185-.017-3.272l-.071.532c.098-.684.265-1.352.527-1.992l-.202.478c.089-.209.187-.413.296-.614.497-.92.259-2.22-.718-2.736-.932-.492-2.206-.266-2.736.718h0Z"/><path class="n" d="M148.312,47.268c.829-.865,2.117-1.347,3.36-1.253,1.243.095,2.416.755,3.053,1.725.449.68.636,1.478.766,2.26.494,3.085.111,6.293-1.091,9.224-.585,1.428-1.383,2.812-2.552,3.906-1.05.97-2.138,1.491-3.999.771-.819,3.686-2.439,8.149-5.505,12.411-3.716,5.164-8.063,8.241-13.276,9.783-2.398.71-4.747.996-6.983,1.223-2.245.097-4.403.012-6.534-.225-5.403-.6-10.678-3.173-15.099-7.748-3.493-3.614-5.7-7.603-7.059-11.034-1.812,1.005-3.266.152-4.404-.629-1.315-.914-2.304-2.169-3.089-3.498-1.612-2.727-2.453-5.846-2.409-8.97.016-.793.086-1.61.433-2.347.49-1.052,1.556-1.874,2.772-2.147s2.56.019,3.505.756c0,0-3.779-25.494,24.449-28.734,34.09-3.912,33.663,24.526,33.663,24.526Z"/><path class="q" d="M96.288,38.398c-.475.657-.951,1.303-1.428,1.922-.237.532-.379.849-.379.849-.982,2.205-1.363,6.226-3.681,10.903-.865-1.117-2.468-1.648-3.926-1.378-2.617-4.7-3.349-13.64-2.425-19.096.906-5.346,3.433-10.412,6.345-12.367l4.024-5.067c4.835-6.167,11.904-9.093,19.06-9.721,7.758-.681,15.214.591,21.217,6.521l5.775,3.407c4.367,1.79,8.39,6.973,10.086,10.579,2.453,5.214,3.685,14.148,2.104,21.418-.434-.195-.907-.318-1.39-.355-1.442-.11-2.944.557-3.713,1.703-.272-3.315-2.334-9.86-5.077-14.011-.939-1.42-3.704-1.752-5.108-2.716,0,0-4.475-4.632-13.051-5.075-3.194-.165-9.466,1.668-9.466,1.668-4.469-.299-7.699-.749-11.424,1.738-2.428,1.621-4.965,5.505-7.545,9.076Z"/><path class="p" d="M149.726,48.682c.903-.873,2.474-.942,3.275.072.443.561.54,1.498.614,2.207.111,1.071.11,2.154.016,3.226-.161,1.831-.709,3.724-1.575,5.346-.432.809-.94,1.565-1.624,2.183-.429.388-.758.598-1.296.496-1.06-.202-2.158.297-2.46,1.397-.269.977.331,2.257,1.397,2.46,6.513,1.241,9.342-7.516,9.604-12.526.144-2.754-.099-6.259-2.405-8.125-2.494-2.019-6.084-1.779-8.375.437-1.854,1.793.977,4.62,2.828,2.828h0Z"/><path class="p" d="M91.209,49.749c-2.467-1.777-6.109-1.385-8.15.866-2.086,2.302-1.733,5.88-1.165,8.699.581,2.881,1.876,5.693,3.747,7.963,1.827,2.217,4.713,4.121,7.679,3.238,2.461-.732,1.413-4.594-1.063-3.857-1.451.432-2.979-1.179-3.787-2.21-1.203-1.535-2.022-3.407-2.508-5.284-.244-.942-.401-1.887-.451-2.858-.042-.821-.155-1.882.237-2.64.684-1.321,2.384-1.226,3.442-.464.877.632,2.228.152,2.736-.718.59-1.008.162-2.103-.718-2.736h0Z"/><path class="p" d="M115.276,20.694c.246.072.489.149.731.235.112.04.492.259.597.229-.261-.112-.323-.137-.184-.076.059.026.117.052.175.079.116.053.231.109.346.165.191.095.379.194.565.298.409.229.807.479,1.19.749.105.074.207.15.31.226.365.266-.346-.29-.001.002.179.151.36.3.535.457.349.314.681.645.996.994.157.174.31.352.458.534l.08.1c.132.167.106.134-.078-.101,0,0,.178.243.189.258.272.381.524.777.754,1.186.115.204.224.412.328.622.056.115.111.23.164.347.055.12.215.512,0-.008.207.503.431.909.919,1.195.429.251,1.061.357,1.541.202.928-.3,1.824-1.424,1.397-2.46-.891-2.163-2.171-4.123-3.919-5.696-1.737-1.563-3.783-2.734-6.028-3.392-1.004-.294-2.223.356-2.46,1.397-.244,1.071.322,2.145,1.397,2.46h0Z"/><path class="p" d="M127.537,23.024c.125.087.247.177.368.27l-.405-.313c.527.416.997.892,1.41,1.421l-.313-.405c.426.559.78,1.162,1.06,1.806l-.202-.478c.284.675.48,1.379.579,2.105l-.071-.532c.015.121.028.242.039.363.048.54.191,1.02.586,1.414.347.347.916.608,1.414.586,1.005-.045,2.098-.884,2-2-.137-1.549-.558-3.023-1.34-4.375-.774-1.337-1.844-2.438-3.106-3.318-.406-.283-1.08-.329-1.541-.202-.464.128-.967.486-1.195.919-.245.464-.368,1.026-.202,1.541.168.518.472.884.919,1.195h0Z"/><path class="p" d="M137.847,31.599c1.476,1.031,2.818,2.262,3.745,3.816.838,1.406,1.514,2.905,2.094,4.434.608,1.603,1.131,3.24,1.569,4.898.202.763.385,1.532.541,2.306.061.304.118.608.168.914.026.155.051.311.073.467-.048-.344-.005-.01.011.145.112,1.074.839,2,2,2,.995,0,2.112-.919,2-2-.367-3.528-1.411-7.02-2.705-10.311-.699-1.778-1.472-3.552-2.483-5.178-1.258-2.022-3.057-3.592-4.994-4.944-.886-.619-2.222-.162-2.736.718-.583.997-.171,2.116.718,2.736h0Z"/><path class="p" d="M89.786,17.505c-5.093,3.579-7.209,10.693-7.629,16.617-.404,5.711.213,12.129,2.836,17.294,1.166,2.296,4.618.274,3.454-2.019-2.201-4.336-2.572-9.818-2.331-14.594.133-2.637.685-5.216,1.614-7.689.828-2.204,2.091-4.761,4.075-6.155,2.09-1.469.094-4.939-2.019-3.454h0Z"/><path class="p" d="M139.862,16.099c4.706,2.021,8.447,6.901,10.083,11.668,1.912,5.571,2.396,11.91,1.267,17.693-.491,2.515,3.364,3.591,3.857,1.063,1.282-6.574.883-13.817-1.381-20.145-1.983-5.542-6.276-11.359-11.808-13.734-.992-.426-2.144-.295-2.736.718-.493.843-.28,2.308.718,2.736h0Z"/><path class="p" d="M90.485,66.027c3.157,10.398,11.122,20.13,22.094,22.586,5.765,1.29,12.272,1.018,17.879-.862,4.952-1.659,9.189-4.772,12.419-8.859,3.872-4.898,6.415-10.736,7.351-16.912.162-1.067-.269-2.15-1.397-2.46-.945-.26-2.298.322-2.46,1.397-1.383,9.136-6.571,18.581-15.377,22.376-4.837,2.084-10.491,2.469-15.666,1.774-4.88-.655-9.341-3.102-12.841-6.511-3.835-3.736-6.593-8.482-8.145-13.592-.746-2.456-4.608-1.409-3.857,1.063h0Z"/><path class="p" d="M96.233,15.58c4.447-5.575,10.991-8.608,18.04-9.168,7.153-.569,14.123.838,19.409,5.968,1.848,1.794,4.68-1.032,2.828-2.828-6.017-5.841-14.038-7.792-22.237-7.14-8.039.64-15.759,3.935-20.869,10.34-.673.844-.824,2.005,0,2.828.698.698,2.151.849,2.828,0h0Z"/><path class="p" d="M115.42,25.106c-6.733.03-13.019,3.393-17.619,8.222-2.542,2.668-4.577,5.854-5.83,9.322-1.12,3.099-1.978,6.374-2.858,9.549-.688,2.484,3.169,3.545,3.857,1.063.789-2.849,1.646-5.689,2.512-8.515.949-3.096,2.709-5.951,4.9-8.326,3.886-4.212,9.233-7.288,15.038-7.314,2.573-.012,2.579-4.012,0-4h0Z"/><g id="j"><path class="p" d="M119.277,58.382c-.255.834-.488,1.678-.669,2.531-.121.572-.173,1.068-.053,1.643.142.678.613,1.264,1.213,1.597.518.288,1.019.428,1.61.456.346.016.693-.074,1.035-.12l-.532.071c.022-.003.043-.005.065-.007.275.01.532-.047.771-.172.248-.081.463-.219.644-.414.347-.347.608-.916.586-1.414-.023-.517-.193-1.054-.586-1.414-.37-.339-.893-.635-1.414-.586-.269.025-.536.07-.804.109l.532-.071c-.136.018-.27.024-.406.008l.532.071c-.122-.019-.235-.054-.349-.102l.478.202c-.093-.043-.183-.09-.267-.149l.405.313c-.023-.018-.044-.039-.062-.061l.313.405c-.027-.036-.046-.07-.065-.111l.202.478c-.021-.058-.034-.113-.043-.174l.071.532c-.008-.098-.005-.194.006-.291l-.071.532c.068-.486.207-.97.333-1.443.121-.453.248-.905.385-1.353.149-.488.053-1.105-.202-1.541-.243-.415-.718-.811-1.195-.919-.512-.117-1.087-.091-1.541.202-.445.287-.762.682-.919,1.195h0Z"/><path class="m" d="M105.11,53.155c-.352,1.53.197,4.95,3.053,5.038,3.745-.294,3.643-4.47,2.24-6.336-1.149-1.527-4.234-1.974-5.294,1.297Z"/><path class="m" d="M134.992,50.991c.569,1.463.518,4.927-2.296,5.425-3.749.249-4.25-3.899-3.13-5.947.917-1.677,3.905-2.563,5.425.521Z"/><path class="p" d="M128.067,77.04c1.474-2.259,1.98-5.063,2.22-7.703.128-1.4-1.373-2.142-2.532-1.929-.978.18-1.955.36-2.935.524-.433.072-.867.142-1.302.206-.1.015-.807.108-.26.039-.211.027-.421.054-.632.078-1.952.226-3.915.3-5.878.317-1.046.009-2.049.913-2,2,.048,1.076.879,2.01,2,2,4.09-.037,8.056-.568,12.072-1.306l-2.532-1.929c-.023.258-.055.514-.081.772-.023.237.049-.299-.013.09-.019.12-.037.241-.057.361-.097.582-.218,1.16-.37,1.731-.143.538-.322,1.06-.517,1.581-.108.288.132-.249-.011.018-.069.129-.125.266-.193.396-.132.253-.277.497-.433.736-.573.878-.205,2.249.718,2.736.998.527,2.125.22,2.736-.718h0Z"/></g></g><g id="k"><path class="n" d="M201.079,139.614c4.463,1.847,8.546,4.1,12.183,6.945.701.548,1.386,1.118,2.053,1.712,1.154,1.219,3.226,3.826,4.852,5.815-17.51.055-54.249.007-78.579.117,5.485-7.643,13.806-12.955,23.182-16.818l36.308,2.23Z"/><path class="n" d="M211.604,109.956c.897-.74,2.192-1.059,3.38-.827s2.244,1.001,2.747,2.008c.356.706.446,1.496.483,2.265.127,3.029-.604,6.078-2.095,8.766-.726,1.31-1.651,2.554-2.902,3.476-.96.698-1.91,1.077-3.238.607,0,0-.174-.061-.475-.167-.347,1.149-.782,2.144-.978,2.632-1.173,2.623-7.843,12.25-16.101,14.139-4.809,1.87-12.085,1.816-16.933.407-5.059-1.47-9.84-4.237-13.597-8.831-2.87-3.509-4.543-7.203-5.494-10.366-.455.101-.72.16-.72.16-1.541.342-2.667-.522-3.562-1.303-1.164-1.03-1.975-2.351-2.581-3.72-1.245-2.81-1.703-5.912-1.307-8.918.105-.762.265-1.541.683-2.213.591-.958,1.711-1.63,2.915-1.756s2.465.308,3.293,1.125c0,0,2.099-24.664,29.431-23.447,27.332,1.218,27.052,25.963,27.052,25.963Z"/><path class="q" d="M152.569,94.943c1.72-10.601,8.128-17.066,13.739-20.723,5.191-3.384,11.573-5.257,18.977-4.927,3.75.167,7.475.894,10.969,2.304,1.581.638,3.108,1.41,4.568,2.298,2.003,1.218,4.2,2.846,5.179,3.777.614.583,1.512,1.538,2.101,2.189,1.464,1.618,2.756,3.399,3.828,5.312,2.558,4.565,3.752,9.779,3.748,15.025-.003,3.4-.405,6.275-.974,8.895-1.106-.144-2.272.181-3.099.863l-.968.055c-1.746.1-3.393-.817-4.228-2.354l-.449-.826c-.601-5.477-2.154-10.583-5.418-15.23-.713-1.016-2.058-1.395-3.192-.889-2.131.951-4.359,1.77-6.658,2.446-1.491.438-3.45.726-4.481-.257-.977-.931-.491-2.517-1.668-3.291-.796-.524-1.965-.4-2.954-.199-10.457,2.126-16.253,7.026-20.447,14.83l-.625.964c-.946,1.46-2.586,2.319-4.325,2.267l-1.07-.032c-.644-.635-1.55-1.039-2.488-1.12.108,1.864-.721-4.961-.368-8.947.074-.833.176-1.643.303-2.43Z"/><path class="m" d="M212.614,111.683c.946-.726,2.355-.94,3.142.047.494.62.469,1.53.472,2.278.004.988-.081,1.962-.284,2.929-.4,1.897-1.125,3.698-2.215,5.306-.441.651-.99,1.278-1.624,1.747-.694.513-.837.572-1.594.333-2.461-.775-3.514,3.085-1.063,3.857,3.036.956,5.581-1.029,7.321-3.342,1.671-2.221,2.773-4.992,3.196-7.733.426-2.764.669-6.251-1.551-8.357-2.08-1.973-5.507-2.293-7.819-.519-.855.657-1.311,1.721-.718,2.736.492.842,1.874,1.379,2.736.718h0Z"/><path class="m" d="M156.535,106.025c-2.278-2.084-5.718-2.316-8.144-.333-2.35,1.921-2.492,5.521-2.219,8.316.282,2.894,1.129,5.893,2.802,8.307,1.691,2.438,4.129,4.379,7.239,3.837,1.065-.185,1.663-1.491,1.397-2.46-.309-1.125-1.392-1.583-2.46-1.397-1.152.201-2.428-1.522-2.958-2.355-1.046-1.643-1.694-3.572-1.968-5.496-.135-.946-.158-1.915-.109-2.868.039-.762.069-1.689.455-2.368.635-1.118,2.242-1.175,3.138-.355,1.896,1.735,4.733-1.086,2.828-2.828h0Z"/><path class="m" d="M153.583,120.699c1.891,11.792,10.628,21.94,22.355,24.749,5.65,1.354,11.503,1.031,17.018-.665,5.109-1.571,9.245-4.562,12.754-8.582,3.145-3.603,5.82-7.668,6.277-12.554.101-1.077-.991-2-2-2-1.166,0-1.899.92-2,2-.116,1.239-.56,2.458-1.013,3.61-.306.779-.223.626-.715,1.478-.757,1.31-1.645,2.554-2.604,3.724-2.73,3.332-6.171,6.646-10.332,8.06-4.781,1.624-9.737,2.261-14.756,1.393s-9.818-3.281-13.443-6.892c-4.15-4.134-6.761-9.626-7.684-15.383-.171-1.067-1.501-1.661-2.46-1.397-1.136.312-1.569,1.39-1.397,2.46h0Z"/><path class="m" d="M216.677,109.413c1.773-8.496,1.289-17.555-3.021-25.25-4.103-7.326-11.221-12.841-19.21-15.327-8.157-2.539-17.335-2.064-25.123,1.452-5.782,2.611-10.87,7.069-14.267,12.42-4.463,7.031-5.452,15.269-4.505,23.404.125,1.073.83,2,2,2,.984,0,2.126-.92,2-2-.742-6.377-.443-12.843,2.446-18.695,2.43-4.921,6.299-9.005,10.96-11.878,12.98-8,31.515-4.541,40.477,7.876,5.235,7.253,6.178,16.343,4.385,24.934-.524,2.512,3.331,3.586,3.857,1.063h0Z"/><path class="m" d="M162.426,106.862c3.686-6.803,9.1-12.41,16.645-14.745,1.053-.326,2.146-.648,3.238-.813,1.029-.156,1.039-.183,1.287.73.618,2.267,2.329,3.522,4.682,3.528,2.45.006,4.976-1.06,7.22-1.93.592-.23,1.179-.471,1.763-.719.274-.116.768-.461,1.093-.433.782.068,1.222,1.283,1.557,1.872,2.446,4.304,3.708,9.377,4.264,14.268.122,1.073.832,2,2,2,.986,0,2.123-.92,2-2-.578-5.077-1.762-10.112-3.995-14.731-1.017-2.103-2.25-4.661-4.71-5.275-1.288-.321-2.389.063-3.56.56-1.436.609-2.897,1.153-4.381,1.632-1.03.333-2.152.774-3.252.756-.994-.017-.771-.66-1.069-1.493-1.041-2.907-3.921-3.067-6.548-2.503-4.624.992-8.934,3.042-12.628,5.987-3.807,3.035-6.755,7.033-9.062,11.291-1.227,2.264,2.226,4.285,3.454,2.019h0Z"/><path class="m" d="M200.547,141.542c3.504,1.461,6.883,3.273,9.985,5.465,3.15,2.225,5.632,5.046,8.113,7.975.699.825,2.109.719,2.828,0,.817-.817.7-2.002,0-2.828-1.336-1.577-2.709-3.123-4.12-4.634s-3.117-2.776-4.803-3.966c-3.4-2.402-7.106-4.269-10.94-5.868-.997-.416-2.2.449-2.46,1.397-.316,1.152.396,2.043,1.397,2.46h0Z"/><path class="m" d="M145.11,152.948c5.425-6.209,12.635-10.504,20.192-13.636.997-.413,1.709-1.326,1.397-2.46-.259-.942-1.456-1.813-2.46-1.397-8.19,3.394-16.062,7.918-21.957,14.664-1.687,1.931,1.131,4.771,2.828,2.828h0Z"/><path class="n" d="M134.684,148.289c.19-3.995,6.063-9.664,13.147-8.744,4.487.583,6.124-.193,9.219,3.108,2.816,3.004,3.315,7.241,2.881,11.351-.082.562-.243,1.719-.243,1.719-.278,1.992-.985,3.514-2.606,4.186s-3.288.15-4.448-1.166c-.206,1.885-1.239,3.068-2.94,3.096-1.701.028-3.483-.902-3.76-2.449-.49,1.035-2.135,1.546-3.203,1.287s-2.801-1.295-2.878-2.611c-.539,1.279-2.668,1.145-3.912.153-1.244-.992-1.39-2.767-1.35-4.357.04-1.59.001-4.283.091-5.571"/><path class="m" d="M136.684,148.289c.017-.228.106-.655.263-1.054.187-.474.493-.979.797-1.411.722-1.027,1.697-1.908,2.747-2.589,1.225-.794,2.547-1.337,3.979-1.624,1.619-.324,3.213-.051,4.834.092,1.146.101,2.304.092,3.365.36,1.13.286,2.002.994,2.832,1.863,2.384,2.494,2.716,5.994,2.502,9.28-.078,1.197-.188,2.654-.669,3.761-.667,1.536-2.227,1.469-3.286.361-.945-.99-3.13-.641-3.343.883-.098.698-.171,1.517-.974,1.632-.716.102-1.686-.249-1.869-.985-.42-1.687-2.8-1.935-3.655-.478-.563.959-2.302-.013-2.425-.846-.256-1.735-2.892-1.888-3.655-.478.119-.22.322.065-.161-.073-.32-.092-.613-.151-.859-.403-.561-.572-.519-1.638-.519-2.376,0-1.966-.022-3.952.097-5.914.155-2.571-3.845-2.562-4,0-.093,1.544-.06,3.094-.076,4.64-.018,1.694-.068,3.403.654,4.98,1.365,2.98,6.464,4.595,8.32,1.166l-3.655-.478c.293,1.984,2.326,3.477,4.155,3.975,2.064.561,4.488-.313,5.58-2.173l-3.655-.478c.638,2.563,3.313,4.027,5.844,3.908,2.578-.121,4.365-2.068,4.713-4.555l-3.343.883c1.737,1.819,4.256,2.568,6.633,1.58,2.008-.835,3.193-2.682,3.639-4.758.855-3.983.927-8.415-.713-12.201-1.603-3.703-4.783-6.4-8.81-6.856-4.218-.477-8.253-.835-12.18,1.11-3.525,1.745-6.808,5.178-7.105,9.258-.187,2.568,3.814,2.556,4,0h0Z"/><path class="m" d="M154.634,158.743c.202-2.533.38-5.088.37-7.631-.004-1.046-.917-2.049-2-2s-2.005.879-2,2c.01,2.542-.168,5.097-.37,7.631-.083,1.046.979,2.046,2,2,1.155-.052,1.911-.88,2-2h0Z"/><path class="m" d="M148.03,158.762c.233-2.638.561-5.317.448-7.969-.044-1.044-.888-2.05-2-2-1.045.047-2.048.88-2,2,.113,2.653-.215,5.331-.448,7.969-.092,1.045.986,2.045,2,2,1.162-.052,1.901-.881,2-2h0Z"/><path class="m" d="M142.085,157.385c.239-2.076.425-4.182.418-6.273-.003-1.046-.917-2.048-2-2s-2.004.879-2,2c.007,2.092-.179,4.197-.418,6.273-.055.475.263,1.091.586,1.414.347.347.916.608,1.414.586.517-.023,1.054-.193,1.414-.586.381-.415.522-.857.586-1.414h0Z"/><path class="n" d="M230.439,152.555c.166-3.996-5.179-10.165-12.318-9.879-4.521.181-6.082-.737-9.459,2.276-3.072,2.741-3.946,6.917-3.879,11.05.031.567.089,1.733.089,1.733.099,2.009.669,3.588,2.223,4.402,1.554.814,3.262.442,4.534-.766.038,1.896.961,3.166,2.653,3.345,1.692.179,3.55-.589,3.963-2.105.396,1.075,1.989,1.73,3.075,1.567s2.905-1.041,3.098-2.345c.423,1.321,2.556,1.377,3.882.5,1.327-.877,1.63-2.633,1.732-4.22.101-1.588.379-4.267.404-5.557"/><path class="m" d="M232.439,152.555c.06-3.443-2.263-6.631-4.859-8.672-1.677-1.319-3.609-2.327-5.694-2.822s-4.17-.337-6.288-.37c-1.806-.027-3.561.003-5.243.738-1.871.818-3.49,2.274-4.703,3.898-2.607,3.49-3.022,8.007-2.788,12.217.128,2.306.705,4.575,2.686,5.979,2.419,1.715,5.379,1.115,7.496-.738l-3.414-1.414c.127,2.54,1.445,4.839,4.121,5.274,2.71.44,5.501-.835,6.423-3.502l-3.655.478c1.923,4.063,8.826,2.925,9.829-1.256l-3.655.478c1.506,3.555,6.788,2.071,8.323-.586.864-1.495.945-3.233,1.073-4.909.123-1.596.303-3.191.349-4.792.074-2.575-3.926-2.573-4,0-.058,2.013-.212,4.072-.446,6.072-.082.7-.201,1.631-.828,2.055-.276.187-.561.149-.855.238-.091.027-.197-.024-.293-.046.156.035.341.445.131-.051-.685-1.617-3.282-1.077-3.655.478-.225.937-2.068,1.251-2.518.3-.793-1.676-3.142-1.006-3.655.478-.203.586-1.288.75-1.811.662-.729-.122-.843-.696-.877-1.37-.089-1.784-2.097-2.568-3.414-1.414-.971.851-2.39.808-2.98-.445-.456-.968-.397-2.221-.439-3.272-.124-3.099.341-6.651,2.473-9.065.83-.939,1.908-1.877,3.117-2.262,1.038-.33,2.215-.234,3.372-.218,1.562.022,3.181-.174,4.72.148,1.46.306,2.782.878,4.019,1.71,1.98,1.333,3.98,3.771,3.941,6.003-.045,2.575,3.955,2.575,4,0h0Z"/><path class="m" d="M213.63,161.371c.024-2.541.074-5.102.31-7.633.098-1.045-.99-2.045-2-2-1.167.052-1.896.881-2,2-.236,2.531-.286,5.092-.31,7.633-.01,1.046.927,2.048,2,2,1.092-.049,1.989-.879,2-2h0Z"/><path class="m" d="M220.206,161.977c.003-2.649-.086-5.346.263-7.978.062-.469-.268-1.097-.586-1.414-.347-.347-.916-.608-1.414-.586-.517.023-1.054.193-1.414.586-.384.419-.512.856-.586,1.414-.349,2.632-.26,5.329-.263,7.978-.001,1.046.921,2.048,2,2s1.999-.879,2-2h0Z"/><path class="m" d="M226.25,161.134c-.053-2.089-.052-4.203.141-6.285.045-.482-.255-1.084-.586-1.414-.347-.347-.916-.608-1.414-.586-.517.023-1.054.193-1.414.586-.377.411-.534.859-.586,1.414-.193,2.083-.195,4.196-.141,6.285.027,1.045.901,2.049,2,2,1.061-.048,2.029-.88,2-2h0Z"/><g id="l"><path class="m" d="M177.457,130.746c1.404,1.503,3.703,2.018,5.668,2.12,2.064.107,4.365-.311,5.949-1.729.782-.7.766-2.125,0-2.828-.835-.766-1.994-.747-2.828,0-.309.276.383-.244.136-.101-.107.062-.207.135-.315.195-.093.052-.562.261-.202.113s-.187.062-.301.098c-.175.055-.352.102-.53.142-.117.026-.235.047-.353.07-.362.071.349-.032.085-.007-.548.052-1.09.075-1.641.047-.13-.007-.261-.015-.39-.027-.075-.006-.15-.014-.224-.023-.156-.018-.098-.01.173.025-.164.041-.494-.086-.659-.124-.215-.05-.428-.107-.637-.175-.196-.063-.747-.365-.162-.042-.273-.151-.549-.283-.815-.449-.356-.221.369.334.095.077-.074-.07-.15-.136-.219-.21-.716-.766-2.115-.777-2.828,0-.754.821-.764,2.011,0,2.828h0Z"/><path class="m" d="M181.852,117.728c-.201.788-.381,1.585-.512,2.388-.093.576-.154,1.019-.008,1.593.166.655.64,1.25,1.251,1.54.495.235,1.012.416,1.571.388.339-.017.66-.098.992-.145.26-.062.487-.181.68-.358.218-.141.389-.328.515-.561.251-.429.357-1.061.202-1.541-.157-.484-.457-.951-.919-1.195l-.478-.202c-.354-.095-.709-.095-1.063,0-.118.017-.233.046-.35.063l.532-.071c-.105.013-.207.014-.312.003l.532.071c-.116-.018-.224-.05-.333-.095l.478.202c-.068-.031-.135-.063-.198-.103l.405.313c-.032-.025-.056-.049-.082-.08l.313.405c-.022-.033-.039-.063-.055-.099l.202.478c-.018-.051-.03-.101-.039-.154l.071.532c-.012-.115-.007-.229.007-.344l-.071.532c.118-.84.318-1.673.528-2.494.13-.509.065-1.085-.202-1.541-.243-.415-.718-.811-1.195-.919-.512-.117-1.087-.091-1.541.202-.434.28-.789.684-.919,1.195h0Z"/><path class="m" d="M169.301,110.744c-.512,1.435-.37,4.793,2.373,5.201,3.643.14,4.017-3.896,2.876-5.853-.934-1.602-3.857-2.381-5.249.652Z"/><path class="m" d="M198.346,112.038c.383,1.474-.058,4.807-2.826,4.969-3.641-.184-3.655-4.238-2.344-6.085,1.073-1.512,4.053-2.029,5.17,1.116Z"/></g></g><path class="m" d="M230.807,155.319c16.195-.328,32.393-.666,48.591-.365,2.575.048,2.575-3.952,0-4-16.199-.301-32.396.037-48.591.365-2.571.052-2.579,4.052,0,4h0Z"/><path class="m" d="M159.945,156.18c12.698-.077,25.396-.04,38.094-.066,2.046-.004,4.091-.004,6.137-.03,2.572-.032,2.579-4.032,0-4-11.254.14-22.513.035-33.767.057-3.488.007-6.976.017-10.464.038-2.573.016-2.579,4.016,0,4h0Z"/><path class="m" d="M99.158,154.88c11.599.222,23.194.649,34.795.798,2.575.033,2.576-3.967,0-4-11.6-.149-23.196-.576-34.795-.798-2.575-.049-2.575,3.951,0,4h0Z"/></g></g></svg>