<?xml version="1.0" encoding="UTF-8"?><svg id="b" xmlns="http://www.w3.org/2000/svg" width="457.888" height="345.755" viewBox="0 0 457.888 345.755"><defs><style>.k{fill:#f3736f;}.l{fill:#211715;}.m{fill:#fcd8d7;}.n{fill:#fff;}.o{fill:#f4b3b3;}.p{fill:#f8b1af;}.q{fill:#645d5c;}</style></defs><g id="c"><g id="d"><path class="k" d="M130.106,184.002c-8.146,5.216-16.396,11.554-25.077,19.524-2.978,2.734-6.732,4.343-10.665,5.276-9.295,2.204-27.22,6.797-34.539,8.678-9.031,2.322-18.22,5.468-25.086,11.776-12.159,11.17-13.404,29.527-13.613,46.116-.072,5.711.586,11.422,2.188,16.904,3.498,11.963,12.214,18.589,27.09,19.619l80.148.778c50.96-.04,127.196-.86,177.346-.32l72.111-2.309c3.549-1.037,7.999-3.333,11.943-7.111,3.139-3.007,5.754-6.593,8.007-14.593,2.983-10.591,3.157-23.981,1.37-37.538-.363-2.755-.822-6.018-1.432-9.872-.986-6.228-2.326-13.903-4.255-19.737-2.853-8.63-6.57-15.535-11.069-22.852-1.261-2.05-3.248-4.501-5.354-6.519,0,0-4.519-5.852-12.963-7.778-9.579-2.185-45.316,1.293-66.815,6.815-61.63,15.407-121.654-23.258-153.481-15.074-7.778,2-15.852,8.218-15.852,8.218Z"/><path class="n" d="M23.774,248.944c1.915-7.536,5.222-14.413,10.964-19.687,3.903-3.586,8.538-6.223,13.481-8.216,4.013.612,8.787,1.394,12.884,2.278,1.069.23,2.182.346,3.159.837s2.307,1.537,1.696,3.37c-1.926,6.222-4.383,11.175-7.955,17.097-1.492,2.473-3.821,4.348-6.612,5.092-9.889,2.634-20.624,2.255-28.343,2.432.216-1.079.457-2.147.725-3.203Z"/><path class="l" d="M64.029,226.994c-1.299,4.152-2.999,8.119-5.068,11.945-1.87,3.458-3.687,7.485-7.74,8.744-8.467,2.63-17.761,2.312-26.523,2.436-2.572.036-2.579,4.036,0,4,7.451-.105,14.908-.13,22.275-1.401,3.626-.626,7.197-1.375,10.054-3.837,2.756-2.375,4.441-6.066,6.087-9.243,1.925-3.715,3.522-7.587,4.772-11.579.771-2.462-3.09-3.516-3.857-1.063h0Z"/><path class="l" d="M46.088,232.901c-.253,1.272-.411,2.563-.641,3.84-.128.712-.269,1.422-.452,2.123-.081.31-.169.617-.274.92-.045.129-.096.254-.143.382.256-.694.079-.193-.014-.019-.495.921-.261,2.22.718,2.736.93.491,2.208.267,2.736-.718.703-1.308,1.004-2.808,1.267-4.255.239-1.311.399-2.637.66-3.945.204-1.023-.292-2.209-1.397-2.46-.993-.226-2.242.3-2.46,1.397h0Z"/><path class="l" d="M130.55,314.673c22.756-.019,45.511-.16,68.266-.277,24.28-.125,48.56-.244,72.841-.225,12.08.009,24.16.052,36.239.182,2.575.028,2.577-3.972,0-4-22.561-.241-45.126-.208-67.688-.138-24.334.076-48.669.227-73.003.341-12.218.057-24.437.106-36.655.116-2.574.002-2.578,4.002,0,4h0Z"/><path class="l" d="M377.803,193.236c3.199,3.106,5.474,6.709,7.689,10.546,2.147,3.72,4.138,7.541,5.81,11.5,3.437,8.136,5.149,16.711,6.54,25.395,1.459,9.103,2.69,18.249,2.635,27.488-.051,8.532-.974,17.514-4.433,25.409-3.046,6.951-9.294,12.361-16.567,14.543-2.459.738-1.412,4.6,1.063,3.857,7.019-2.106,13.64-6.981,17.397-13.325,4.422-7.468,5.878-16.726,6.375-25.26.573-9.84-.482-19.609-1.926-29.33-1.346-9.061-2.784-18.21-6.025-26.818-1.845-4.901-4.111-9.627-6.68-14.189s-5.262-8.967-9.049-12.644c-1.848-1.794-4.679,1.031-2.828,2.828h0Z"/><path class="l" d="M50.402,309.895c-5.791-.421-11.641-1.791-16.449-5.182-4.212-2.971-7.005-7.485-8.525-12.349-2.386-7.633-2.45-15.508-2.152-23.421.255-6.762.847-13.557,2.595-20.114,1.658-6.223,4.43-12.205,8.956-16.868,5.175-5.332,12.078-8.495,19.066-10.716,5.472-1.739,11.098-3.029,16.66-4.446,6.158-1.569,12.318-3.13,18.489-4.649,2.816-.693,5.709-1.247,8.464-2.154,3.785-1.247,6.917-3.226,9.853-5.891,6.04-5.485,12.381-10.637,19.097-15.275,1.535-1.06,3.09-2.092,4.66-3.101,2.159-1.387.156-4.85-2.019-3.454-6.894,4.427-13.445,9.373-19.675,14.691-3.169,2.706-6.075,5.959-9.821,7.872-2.926,1.494-6.158,2.12-9.324,2.892-6.327,1.542-12.641,3.14-18.953,4.745-5.699,1.449-11.455,2.782-17.086,4.478-7.5,2.259-14.897,5.43-20.759,10.75-5.141,4.665-8.58,10.849-10.687,17.408-2.17,6.757-2.998,13.909-3.384,20.97-.438,8.015-.58,16.101,1.253,23.968,1.378,5.914,3.904,11.616,8.414,15.813,4.401,4.096,10.116,6.399,15.986,7.398,1.768.301,3.553.505,5.342.635,2.568.187,2.556-3.814,0-4h0Z"/><path class="n" d="M230.946,160.569c-11.13.677-20.908,1.541-31.362,4.401-19.222,4.667-38.038,13.011-52.333,22.556-11.524,7.694-18.157,14.741-25.78,23.657-1.296,1.516-.248,3.861,1.747,3.885,11.619.137,29.925-.109,49.019-.524,19.473-.423,62.163-2.039,77.013-2.589,25.024-1.41,88.95-4.898,111.671-9.267.846-.163,1.207-1.158.688-1.844-11.308-14.946-35.882-25.798-53.609-31.867-11.51-3.94-23.58-6.01-35.68-7.25-7.654-.782-15.327-1.245-23.017-1.373l-14.635-.003c-1.259.072-2.498.145-3.721.219Z"/><path class="l" d="M233.915,220.327c-1.098,7.703-2.086,15.386-2.42,23.165-.393,9.155-.587,18.315-.648,27.478-.034,5.123-.039,10.247-.041,15.371,0,2.574,3.999,2.578,4,0,.002-9.111.004-18.224.191-27.334.163-7.929.3-15.909,1.036-23.81.431-4.619,1.084-9.215,1.738-13.806.152-1.068-.262-2.148-1.397-2.46-.938-.258-2.307.321-2.46,1.397h0Z"/><path class="l" d="M123.563,225.672c-2.131,6.607-3.007,13.262-2.979,20.184.029,7.246.533,14.512,1.595,21.681.158,1.069,1.51,1.658,2.46,1.397,1.146-.315,1.556-1.388,1.397-2.46-1.008-6.808-1.424-13.739-1.452-20.618-.012-3.073-.014-6.192.462-9.235.524-3.347,1.334-6.662,2.374-9.886.792-2.456-3.069-3.507-3.857-1.063h0Z"/><path class="l" d="M142.847,298.719c7.592.04,15.184.023,22.776.015,11.928-.013,23.855-.038,35.783-.066,13.045-.031,26.089-.066,39.134-.104,11.057-.032,22.114-.065,33.172-.098,5.937-.018,11.874-.041,17.811-.05.219,0,.439,0,.658,0,2.574,0,2.578-4,0-4-5.078,0-10.156.026-15.233.041-10.635.032-21.27.064-31.905.095-12.972.038-25.943.073-38.915.105-12.197.03-24.394.057-36.591.073-8.3.011-16.6.026-24.9-.003-.596-.002-1.193-.005-1.789-.008-2.574-.014-2.577,3.986,0,4h0Z"/><path class="l" d="M338.211,217.983c2.028,4.829,3.453,9.949,4.921,14.969,1.623,5.549,3.188,11.128,4.491,16.762.216.933.427,1.868.596,2.81.033.184.059.369.093.553.045.245.066-.481-.014-.09-.016.079.067.253.021.323-.004.007-.002.095-.003.094-.161-.305.528-1.243.54-1.256l1.414-.586c-8.635.261-17.037.726-25.037,4.333-6.631,2.99-11.873,7.75-15.079,14.324-1.124,2.305,2.325,4.335,3.454,2.019,1.535-3.147,3.507-5.973,6.15-8.289,2.341-2.051,5.128-3.579,7.973-4.813,3.906-1.693,8.131-2.656,12.358-3.08,1.928-.194,3.864-.296,5.801-.365.935-.033,1.871-.058,2.806-.084,1-.028,2.217.136,2.989-.631.985-.979.58-2.51.358-3.703-.311-1.674-.719-3.331-1.128-4.983-1.243-5.018-2.63-10.003-4.088-14.962-1.421-4.833-2.803-9.758-4.757-14.409-.418-.995-1.323-1.709-2.46-1.397-.938.258-1.818,1.458-1.397,2.46h0Z"/><path class="l" d="M199.638,231.957c.251,2.673,2.201,4.057,4.752,4.057h4.893c3.661,0,7.323.035,10.984,0,1.04-.01,2.013-.227,2.852-.881,1.994-1.553,1.58-4.045,1.535-6.282-.052-2.571-4.052-2.579-4,0,.016.817.034,1.635.051,2.452.005.233.122.569-.087.707-.108.072-.491.003-.612.003h-14.362c-.12,0-1.991.1-2.006-.057-.101-1.075-.847-2-2-2-1.003,0-2.102.918-2,2h0Z"/><path class="l" d="M325.753,231.856c-.039-1.918.267-4.142-1.104-5.689-.832-.938-1.968-1.352-3.198-1.389-1.291-.039-2.589,0-3.881,0h-11.839c-2.094,0-4.16.544-4.922,2.8-.294.87-.209,1.789-.183,2.69.029,1.001-.042,2.072.303,3.026.601,1.664,2.143,2.651,3.877,2.72,3.211.129,6.453,0,9.667,0h6.139c.339,0,.683.016,1.021,0,2.348-.108,4.008-1.83,4.12-4.158.123-2.573-3.877-2.567-4,0-.018.384-5.649.158-6.148.158h-9.895c-.206,0-.702.098-.887,0-.392-.206-.184-1.295-.197-1.746-.013-.435-.289-1.293.135-1.49.22-.103.73,0,.97,0h14.922c.188,0,.736-.101.906,0,.052.031.081.022.132.074.139.146.022,1.09.027,1.308.012.565.024,1.131.035,1.696.052,2.57,4.053,2.579,4,0Z"/><path class="l" d="M147.806,219.536c-.861.745-1.653,1.578-2.375,2.458-.449.547-.891,1.111-1.272,1.709-.425.667-.859,1.46-.864,2.266-.005.837.432,1.647,1.163,2.07.542.314,1.071.36,1.681.437.655.083,1.312.139,1.971.173.734.038,1.469.051,2.203.049.451-.001.908.011,1.356-.049.77-.103,1.499-.514,1.875-1.222.25-.472.296-.951.384-1.465.069-.404.145-.806.23-1.207.173-.817.384-1.624.629-2.422.306-1-.364-2.225-1.397-2.46-1.082-.247-2.132.326-2.46,1.397-.358,1.168-.639,2.356-.847,3.56-.048.276-.134.58-.138.86-.004.266-.572.649.5-.426-.188.188.584-.753.81-.576-.082-.065-.481.007-.585.008-.617.006-1.233.002-1.85-.017-.57-.018-1.14-.049-1.709-.099-.264-.023-.528-.05-.791-.082-.082-.01-.36-.048-.035-.002.362.051.054.021.026.003s-.308-.113.056.047c.363.119.536.426.52.922.155.9.293,1.147.413.742.013-.041-.217.459-.118.287.021-.037.037-.079.056-.117.047-.095.098-.189.15-.282.113-.202.237-.398.366-.59s.266-.379.405-.565c.209-.28-.265.327-.04.054.096-.116.189-.233.286-.349.684-.814,1.426-1.588,2.23-2.284.794-.687.757-2.134,0-2.828-.846-.776-1.982-.733-2.828,0h0Z"/><path class="l" d="M152.859,221.802c-.432,1.397-.733,2.75-.972,4.333-.016.106-.03.251-.127.383-.065.089-.245.164-.356.166-2.147.043-3.906-.012-5.625-.257-.186-.027-.387-.114-.461-.287-.063-.146-.006-.314.053-.461.606-1.499,2.623-3.674,3.849-4.729l3.639.852Z"/><path class="k" d="M143.816,205.116c.017-2.097.393-3.468,1.453-5.068.99-1.495,4.267-3.232,6.07-3.329l2.868-.098c1.444-.078,3.532,1.509,3.904,2.906.627,2.359.304,7.726.36,8.771.083,1.54.191,6.516-.27,10.511-.166,1.436-1.148,2.959-3.652,2.44s-6.141-.992-7.286-2.372c-1.225-1.477-1.895-3.796-2.268-5.627-.474-2.322-1.192-6.514-1.179-8.134Z"/><path class="l" d="M145.816,205.116c.039-1.942.532-3.766,2.168-4.91,1.322-.924,2.686-1.464,4.209-1.517,1.383-.047,2.57-.319,3.605.82,1.024,1.127.702,3.488.707,4.895.011,3.588.123,7.2-.032,10.785-.048,1.099-.064,2.24-.236,3.328-.099.631-.224.838-.909.832-.963-.009-2.053-.371-2.995-.568-1.017-.213-2.117-.41-3.054-.878-1.774-.888-2.185-4.266-2.528-6.057-.423-2.201-.916-4.481-.935-6.73-.022-2.573-4.022-2.579-4,0,.022,2.598.589,5.25,1.078,7.794.526,2.738,1.298,6.276,3.695,8.021,2.13,1.55,5.296,1.922,7.831,2.315,2.76.428,5.24-1.06,5.709-3.905.795-4.822.378-9.9.376-14.776-.001-2.504.14-5.476-1.544-7.507-1.56-1.881-3.619-2.476-5.95-2.396-2.594.089-4.841.596-7.046,2.091-2.877,1.95-4.08,4.95-4.149,8.364-.052,2.575,3.948,2.575,4,0Z"/><path class="l" d="M67.886,228.057c.517-1.798.01-3.639-1.447-4.84-1.521-1.253-3.371-1.525-5.241-1.921-3.878-.82-7.792-1.466-11.709-2.07-1.066-.164-2.151.271-2.46,1.397-.26.948.323,2.295,1.397,2.46,3.318.512,6.631,1.057,9.925,1.706,1.525.301,3.237.464,4.694,1.013.209.079.394.178.587.291.031.018.318.222.181.113s.138.136.162.163c.05.055.083.055.113.143.085.251.036-.169.023.123-.012.27.06-.132-.08.358-.713,2.479,3.146,3.537,3.857,1.063h0Z"/><path class="l" d="M95.415,273.074c-20.829,0-35.226,16.132-35.226,35.009,0,21.853,13.626,35.666,35.227,35.666,22.104,0,35.227-13.813,35.227-35.666,0-19.006-14.473-35.009-35.228-35.009Z"/><path class="l" d="M342.934,273.074c-20.829,0-35.226,16.132-35.226,35.009,0,21.853,13.626,35.666,35.227,35.666,22.104,0,35.227-13.813,35.227-35.666,0-19.006-14.473-35.009-35.228-35.009Z"/><path class="l" d="M95.415,271.074c-8.364.038-16.537,2.591-23.168,7.742-6.097,4.737-10.528,11.438-12.626,18.862-4.073,14.413.106,31.851,12.366,41.035,5.943,4.453,13.329,6.542,20.672,6.959,7.733.438,15.78-.814,22.64-4.541,13.308-7.23,18.875-23.204,17.051-37.702-.989-7.86-4.328-15.28-9.795-21.05-5.422-5.723-12.767-9.524-20.544-10.761-2.185-.348-4.384-.534-6.596-.544-2.574-.012-2.578,3.988,0,4,7.441.034,14.799,2.248,20.714,6.845,5.467,4.25,9.411,10.275,11.264,16.931,3.468,12.455.282,28.221-10.314,36.381-5.291,4.075-11.935,6.011-18.533,6.422-6.962.434-14.196-.506-20.427-3.794-12.239-6.457-17.206-20.675-15.695-33.915.784-6.872,3.824-13.521,8.547-18.573,4.965-5.312,11.565-8.686,18.722-9.865,1.89-.311,3.809-.424,5.723-.433,2.573-.012,2.579-4.012,0-4Z"/><path class="n" d="M95.416,295.982c-7.326,0-12.39,5.674-12.39,12.313,0,7.686,4.792,12.544,12.39,12.544,7.774,0,12.39-4.858,12.39-12.544,0-6.685-5.09-12.313-12.39-12.313Z"/><path class="l" d="M342.934,271.074c-8.364.038-16.537,2.591-23.168,7.742-6.097,4.737-10.528,11.438-12.626,18.862-4.073,14.413.106,31.851,12.366,41.035,5.943,4.453,13.329,6.542,20.672,6.959,7.733.438,15.78-.814,22.64-4.541,13.308-7.23,18.875-23.204,17.051-37.702-.989-7.86-4.328-15.28-9.795-21.05-5.422-5.723-12.767-9.524-20.544-10.761-2.185-.348-4.384-.534-6.596-.544-2.574-.012-2.578,3.988,0,4,7.441.034,14.799,2.248,20.714,6.845,5.467,4.25,9.411,10.275,11.264,16.931,3.468,12.455.282,28.221-10.314,36.381-5.291,4.075-11.935,6.011-18.533,6.422-6.962.434-14.196-.506-20.427-3.794-12.239-6.457-17.206-20.675-15.695-33.915.784-6.872,3.824-13.521,8.547-18.573,4.965-5.312,11.565-8.686,18.722-9.865,1.89-.311,3.809-.424,5.723-.433,2.573-.012,2.579-4.012,0-4Z"/><path class="n" d="M342.935,295.982c-7.326,0-12.39,5.674-12.39,12.313,0,7.686,4.792,12.544,12.39,12.544,7.774,0,12.39-4.858,12.39-12.544,0-6.685-5.09-12.313-12.39-12.313Z"/><path class="l" d="M418.794,294.865c7.497-.007,14.993-.349,22.49-.159,2.575.065,2.574-3.935,0-4-7.497-.19-14.993.152-22.49.159-2.574.002-2.578,4.002,0,4h0Z"/><path class="l" d="M417.958,309.303c12.667-.006,25.335-.12,38-.407,2.57-.058,2.579-4.058,0-4-12.664.287-25.332.401-38,.407-2.574.001-2.578,4.001,0,4h0Z"/><g id="e"><path class="n" d="M313.634,155.694c.898-1.043,1.751-2.05,2.538-2.996-1.129-.275-2.071-.413-2.844-.796-.478-.237-.947-.562-1.167-1.048-.118-.259-.156-.546-.194-.828-.174-1.313-.614-7.15-.788-8.463l-14.667-1-.151-.01c-.223,1.502-.428,2.881-.428,2.881-.198,1.211-.424,2.484-1.203,3.432-.446.543-1.044.939-1.648,1.299-1.116.667-2.816,1.134-4.06,1.607.013.019.022.039.031.059.534,1.026,1.547,3.109,2.751,5.58,2.084,4.275,4.739,9.712,6.471,12.851.629,1.14,2.168,1.384,3.113.488,3.957-3.748,8.5-8.709,12.245-13.055Z"/><path class="n" d="M366.574,173.629c-.715-5.369-1.624-11.924-1.997-15.622,0,0-.037-.363-.081-.877,2.931-4.23,3.296-9.63,2.449-13.772-.66-3.226-1.11-6.819-3.719-8.828-1.438-1.108-4.24-1.273-5.557-.023-1.026-1.307-3.425-1.909-4.685-1.87-1.222.037-2.165,1.015-3.037,1.926-1.129-1.168-4.712-1.129-6.148-.37s-2.254,3.52-1.926,5.111l-.006.599c-.414.164-.83.389-1.262.691-1.635,1.145-2.341,3.21-2.678,5.177-.564,3.284-.332,6.837,1.41,9.677,2.504,4.081,7.447,5.825,12.009,7.281.406,5.387.39,8.243-.213,13.611l-.117,1.041c5.567,1.273,10.899,2.432,16.467,3.427-.12-.987-.202-1.654-.202-1.654-.176-1.497-.427-3.42-.707-5.526Z"/><path class="o" d="M271.035,198.383c.006,1.513.367,9.461.367,10.956l52.852-2.926c.243-4.221.744-10.123,1.278-15.805l.277.25c7.906,8.36,15.41,14.137,26.222,18.074,1.595.581,4.519.889,6.37.444,1.485-.357,3.971-2.186,4.889-3.407,5.389-7.175,7.493-15.469,8.025-23.33.045-.664-.437-1.249-1.094-1.358-6.786-1.128-13.122-2.504-19.82-4.04-.744-.17-1.492.272-1.708,1.003-.126.427-.251.823-.374,1.199-2.485-2.557-4.891-5.03-4.891-5.03-4.388-4.24-7.369-11.124-11.687-15.445-4.107-2.969-10.609-5.444-15.276-6.629-4.585,5.541-11.556,13.333-16.889,18.074-2.074-2.815-9.928-19.687-10.842-21.166-5.454.499-11.729,1.145-17.329,3.243-1.953.732-3.828,1.652-5.7,2.572-2.509,1.232-5.019,2.465-7.528,3.697l12.94,18.131c-.176,6.765-.111,14.19-.084,21.492Z"/><path class="l" d="M353.133,176.34c.504-4.561.551-9.036.213-13.611-.068-.919-.579-1.644-1.468-1.929-3.03-.97-6.279-1.983-8.766-4.054-2.82-2.348-3.694-5.758-3.396-9.316.126-1.5.408-3.283,1.34-4.516,1-1.322,2.515-1.461,4.045-1.375.484.027.828-.058,1.121.227.371.361.7,1.042.623,1.58-.176,1.225-1.883,1.602-2.872,1.639-2.566.095-2.579,4.095,0,4,3.731-.138,7.562-2.744,6.755-6.909-.36-1.858-1.739-3.697-3.577-4.258-1.618-.494-3.788-.476-5.4.012-4.281,1.295-5.701,5.559-6.036,9.6-.345,4.158.789,8.407,3.776,11.415,3.045,3.067,7.302,4.524,11.323,5.812l-1.468-1.929c.338,4.575.291,9.05-.213,13.611-.119,1.075,1.004,2,2,2,1.18,0,1.881-.922,2-2h0Z"/><path class="l" d="M343.802,138.771c-.162-.994.423-2.63,1.19-2.91.887-.323,2.968-.404,3.541.115.789.714,2.048.811,2.828,0,.693-.72,1.229-1.446,2.286-1.305.973.13,1.957.502,2.608,1.249.752.862,2.049.658,2.828,0,.541-.457,1.626-.34,2.244-.133.862.289,1.447.982,1.895,1.751,1.147,1.968,1.446,4.455,1.855,6.664.81,4.371-.045,9.318-2.97,12.763-1.657,1.951,1.159,4.794,2.828,2.828,4.379-5.156,4.985-11.641,3.722-18.055-.594-3.014-1.331-6.267-3.737-8.395-2.391-2.114-6.2-2.335-8.666-.253h2.828c-1.258-1.443-3.22-2.146-5.074-2.381-2.299-.291-3.94.839-5.477,2.436h2.828c-1.981-1.793-5.489-1.902-7.895-.98-2.935,1.126-3.986,4.81-3.522,7.666.173,1.067,1.499,1.661,2.46,1.397,1.134-.312,1.571-1.39,1.397-2.46h0Z"/><path class="l" d="M362.577,158.006c.721,7.07,1.867,14.092,2.704,21.148.127,1.072.828,2,2,2,.982,0,2.128-.92,2-2-.837-7.057-1.983-14.078-2.704-21.148-.11-1.075-.841-2-2-2-.997,0-2.11.919-2,2h0Z"/><path class="l" d="M324.395,192.273c4.756,5.014,9.937,9.668,15.864,13.264,3.026,1.836,6.221,3.366,9.511,4.667,2.916,1.153,6.585,2.07,9.663.942,3.296-1.208,5.531-3.836,7.34-6.722,2.037-3.251,3.579-6.836,4.643-10.519,1.003-3.474,1.578-7.073,1.858-10.675.162-2.085-.933-3.574-3.003-3.958-2.138-.397-4.282-.754-6.417-1.173-2.343-.459-4.681-.95-7.014-1.46-1.177-.257-2.353-.519-3.528-.785-1.09-.246-2.261-.666-3.382-.633-2.432.073-3.039,2.215-3.682,4.117-.619,1.831-1.278,3.637-1.776,5.507-.663,2.49,3.194,3.552,3.857,1.063.365-1.37.797-2.713,1.267-4.049.231-.655.464-1.309.679-1.97.027-.083.374-1.099.346-1.113l-.538.428c.244.074.49.135.74.183,3.578.855,7.186,1.612,10.793,2.335,1.727.346,3.456.677,5.19.987.247.044,2.857.573,2.883.498l-.187-.285c-.189-.413-.261-.377-.215.108-.155.444-.091,1.108-.139,1.58-.311,3.055-.92,6.087-1.829,9.022-.956,3.087-2.285,6.031-4.002,8.771-1.264,2.018-2.972,4.425-5.448,5.043-2.569.641-5.265-.376-7.601-1.327-2.707-1.102-5.327-2.434-7.831-3.941-5.713-3.438-10.642-7.916-15.215-12.736-1.775-1.871-4.6.96-2.828,2.828h0Z"/><path class="l" d="M288.735,147.248c-5.286.486-10.636,1.035-15.732,2.593-5.522,1.688-10.67,4.655-15.834,7.191-2.31,1.135-.286,4.586,2.019,3.454,4.853-2.384,9.691-5.202,14.879-6.788,4.764-1.457,9.727-1.996,14.669-2.451,1.076-.099,2-.848,2-2,0-1.005-.918-2.099-2-2h0Z"/><path class="l" d="M294.006,142.901c-.069.42-.14.84-.236,1.255-.048.207-.102.412-.165.614-.029.091-.063.181-.091.272-.121.39.213-.419.029-.056-.086.169-.168.338-.271.498-.03.048-.062.095-.095.142-.087.123-.041.064.14-.177-.07.035-.14.161-.195.218-.067.07-.137.138-.209.203-.043.039-.087.078-.132.115-.116.096-.057.053.176-.13-.184.091-.358.255-.533.366-.32.203-.647.391-.991.551-.09.042-.204.11-.3.134.135-.035.418-.172.114-.051-.196.078-.393.152-.591.224-.763.278-1.538.519-2.296.812-.5.193-.915.44-1.195.919-.251.429-.357,1.061-.202,1.541.306.947,1.415,1.801,2.46,1.397,1.761-.681,3.629-1.139,5.216-2.202.973-.652,1.856-1.463,2.356-2.542.456-.983.692-1.978.867-3.041.09-.546.088-1.046-.202-1.541-.243-.415-.718-.811-1.195-.919-.964-.22-2.279.293-2.46,1.397h0Z"/><path class="l" d="M310.064,151.516c.299.604.921,1.061,1.46,1.426.336.227.693.426,1.056.607,1.02.51,2.086.832,3.187,1.108.511.128,1.083.067,1.541-.202.415-.243.811-.718.919-1.195.117-.512.091-1.087-.202-1.541-.279-.433-.684-.791-1.195-.919-.753-.189-1.508-.381-2.225-.682l.478.202c-.625-.268-1.242-.597-1.785-1.007l.405.313c-.151-.118-.296-.243-.414-.394l.313.405c-.032-.045-.06-.089-.084-.138-.213-.431-.744-.795-1.195-.919-.479-.132-1.116-.072-1.541.202-.427.275-.803.685-.919,1.195-.124.546-.047,1.038.202,1.541h0Z"/><path class="l" d="M355.501,134.993c-.433,1.866-.755,3.76-.946,5.666-.169,1.685-.364,3.693.214,5.319.718,2.022,2.527,3.345,4.707,3.152,1.042-.092,1.944-.381,2.752-1.064.786-.665,1.305-1.714,1.505-2.707.206-1.023-.294-2.209-1.397-2.46-.996-.227-2.239.3-2.46,1.397-.037.185-.095.357-.138.539.084-.353-.029.029-.084.138-.167.329.133-.129-.005.024-.046.053-.096.104-.148.152.219-.155.269-.191.149-.11-.356.207.057-.052.112-.016-.01-.007-.364.105-.382.11-.377.115.39.016-.056.01-.129-.002-.257.009-.386.004-.408-.017-.069.072.004.008-.081.071-.484-.185-.055.01-.373-.17.279.237-.091-.068-.291-.241.103.266-.088-.09-.026-.049-.244-.439-.119-.184.123.25-.045-.155-.062-.215-.05-.184-.075-.468-.045-.119-.015-.168-.028-.336-.037-.505-.076-1.367.033-2.739.197-4.096.077-.634-.062.393.033-.238.029-.191.057-.381.088-.572.05-.312.104-.624.161-.935.128-.699.275-1.394.435-2.086.236-1.017-.315-2.214-1.397-2.46-1.021-.233-2.207.307-2.46,1.397h0Z"/><path class="l" d="M348.056,134.253c-.61,2.086-.952,4.244-1.086,6.412-.131,2.111-.35,4.517.614,6.46.935,1.885,2.654,3.056,4.793,2.982,2.177-.075,4.084-1.578,4.796-3.612.346-.989-.393-2.232-1.397-2.46-1.117-.254-2.09.338-2.46,1.397.115-.329-.025.026-.074.106-.075.114-.067.107.024-.022l-.133.142s-.386.327-.245.225c.163-.116-.248.137-.283.161-.319.212.056-.094-.057.03-.114.125-.333.039-.005.024-.141.006-.282.009-.423.008-.2-.001-.35-.059-.073.004-.131-.03-.284-.099-.414-.105-.236-.012.333.17-.037-.02-.313-.161.12.202-.003-.017-.019-.034-.292-.366-.127-.137-.102-.142-.194-.292-.28-.444-.024-.042-.213-.435-.112-.187-.063-.156-.107-.321-.144-.485-.071-.317.001.516,0-.193-.011-3.282.076-6.103.984-9.205.294-1.004-.355-2.223-1.397-2.46-1.071-.244-2.146.322-2.46,1.397h0Z"/><path class="l" d="M315.935,154.268c3.753.968,7.443,2.299,10.892,4.075,1.463.753,3.064,1.533,4.184,2.756.925,1.01,1.784,2.081,2.616,3.168,3.985,5.202,7.4,11.104,12.102,15.709,1.841,1.803,4.671-1.023,2.828-2.828-2.241-2.194-4.088-4.784-5.929-7.311-2.137-2.933-4.22-5.907-6.456-8.767-.892-1.141-1.793-2.348-2.848-3.346-1.353-1.279-3.188-2.189-4.837-3.018-3.649-1.835-7.535-3.275-11.489-4.296-2.494-.644-3.558,3.213-1.063,3.857h0Z"/><path class="l" d="M315.052,150.926c-2.377,2.867-4.822,5.678-7.331,8.43-1.31,1.437-2.639,2.857-3.992,4.253-.676.697-1.358,1.389-2.048,2.072-.285.282-.572.564-.86.843-.141.137-.283.273-.425.409-.118.113-.603.358-.336.349-.134.005-.082-.02.013.057-.159-.129-.257-.429-.353-.606-.292-.538-.577-1.08-.86-1.622-.658-1.263-1.3-2.534-1.936-3.808-1.305-2.613-2.582-5.24-3.862-7.866-.842-1.728-1.606-3.548-2.6-5.197-1.326-2.203-4.786-.194-3.454,2.019.945,1.569,1.673,3.298,2.475,4.941,1.416,2.903,2.827,5.809,4.275,8.697.664,1.325,1.335,2.647,2.028,3.958.765,1.447,1.523,2.879,3.252,3.308,2.172.539,3.608-.826,5.039-2.228,1.554-1.523,3.067-3.087,4.554-4.675,3.19-3.404,6.272-6.913,9.249-10.505,1.631-1.968-1.184-4.813-2.828-2.828h0Z"/><path class="l" d="M269.325,192.687c-.052,2.071-.018,4.144-.018,6.216,0,1.046.92,2.048,2,2s2-.879,2-2c0-2.072-.034-4.144.018-6.216.026-1.047-.939-2.048-2-2-1.106.05-1.972.879-2,2h0Z"/><path class="l" d="M324.717,178.67c-.972,9.228-1.922,18.478-2.463,27.743-.15,2.572,3.85,2.563,4,0,.541-9.265,1.491-18.515,2.463-27.743.113-1.076-1-2-2-2-1.176,0-1.886.921-2,2h0Z"/><path class="n" d="M333.895,100.717c-.045,3.126-.286,6.658-1.095,9.245.077,0,.152.013.226.029,1.09.226,2.054.945,2.507,1.877.32.654.395,1.382.421,2.09.086,2.789-.62,5.587-2.019,8.046-.682,1.198-1.546,2.333-2.707,3.169-.891.633-2.131.849-3.326.842,0,0-.167,0-.463-.005-1.157,3.037-3.046,6.56-6.055,9.778-3.85,4.117-8.018,6.329-12.773,7.094-2.188.352-4.284.338-6.275.284-1.984-.169-3.87-.488-5.716-.937-4.68-1.139-9.024-3.997-12.39-8.517-2.646-3.552-4.132-7.286-4.941-10.444-1.678.446-2.921-.442-3.779-1.209-1.06-.96-1.793-2.184-2.337-3.451-1.117-2.6-1.506-5.459-1.11-8.221.105-.701.26-1.416.651-2.03.554-.876,1.592-1.483,2.701-1.586.131-.012.263-.017.395-.015-.066-.532-.105-.845-.105-.845-.328-2.649-.291-5.659-.019-8.447,1.139-11.665,12.483-24.112,32.344-22.605,21.481,1.63,25.924,21.656,25.863,25.859Z"/><path class="q" d="M273.198,92.388c1.502-7.381,5.359-12.448,9.773-16.225,4.114-3.52,13.198-8.122,23.085-7.569,6.03.337,9.01.746,13.466,3.48l3.899,2.393c.76.475,1.519.949,1.519.949,1.215.76,1.922,1.273,3.944,3.455,4.677,5.046,7.633,13.818,7.75,21.533.037,2.458-.593,7.907-1.704,10.627-.498-.515-1.173-.889-1.905-1.04-1.09-.226-2.286.055-3.119.726,0,0-.324.288-.8.722-.298-1.12-.724-2.754-1.043-3.532-.289-.704-.636-1.387-1.081-2.006-.197-.275-.411-.569-.66-.8-.414-.384-1.288-1.19-1.736-1.539-2.23-1.74-3.761-3.513-5.209-5.927-1.478-2.463-2.802-5.466-2.421-8.407-3.255,5.354-8.704,10.296-17.889,11.111-1.915.17-3.621-1.611-5.407-1.778-5.037,2.963-11.859,7.417-13.579,10.942l-1.648-1.663c-.753-.76-1.91-1.172-3.019-1.069-.791.073-1.546.403-2.119.905-1.048-5.998-.966-11.028-.099-15.288Z"/><path class="q" d="M266.494,123.169c.044-1.327.283-2.643.881-3.819.826-1.625,2.446-2.935,4.268-2.986,0,0,.378-.022.905-.053.2.784.461,1.556.783,2.306.544,1.267,1.277,2.491,2.337,3.451.815.728,2.023,1.082,3.212,1.208,0,0,.168.018.461.05.683,2.648,1.843,5.696,3.762,8.701-1.031,2.362-2.054,4.508-2.054,4.508-1.186,2.158-2.907,4.019-4.965,5.371-1.894,1.244-4.246,2.065-6.426,1.448-.425-.12-.914-.286-1.096-.689-.263-.581.719-1.566,1.302-2.547.691-1.165.425-3.128.051-4.43-.373-1.302-1.051-2.493-1.605-3.729-1.027-2.29-1.636-4.767-1.791-7.272-.031-.502-.043-1.01-.026-1.516Z"/><path class="l" d="M272.041,114.281c-3.305.309-5.931,2.363-6.995,5.503-1.371,4.047-.277,8.978,1.361,12.777.753,1.747,1.819,3.435,1.88,5.392.055,1.757-1.768,2.723-1.768,4.503,0,2.387,2.89,3.14,4.797,3.105,2.088-.037,4.151-.841,5.871-1.993,3.208-2.146,6.339-5.271,7.602-8.983.831-2.442-3.031-3.491-3.857-1.063-.786,2.311-2.795,4.205-4.621,5.732-1.51,1.262-4.592,3.326-6.55,1.943l.718.718-.031.009v1.063c.142-.953,1.221-1.814,1.544-2.775.402-1.195.332-2.484.142-3.71-.429-2.768-2.109-5.111-2.886-7.777-.924-3.171-1.92-10.004,2.793-10.444,1.075-.1,2-.847,2-2,0-1.004-.918-2.101-2-2h0Z"/><path class="l" d="M330.916,112.445c.993-.74,2.298-.678,2.785.237.331.621.272,1.426.255,2.113-.023.899-.139,1.769-.35,2.643-.409,1.692-1.108,3.369-2.171,4.76-1.011,1.324-1.953,1.805-3.533,1.817-2.573.02-2.579,4.02,0,4,1.348-.01,2.735-.219,3.934-.869,1.133-.615,2.047-1.602,2.817-2.616,1.56-2.052,2.612-4.583,3.033-7.123.429-2.592.651-5.734-1.322-7.775-1.913-1.979-5.248-2.295-7.466-.641-.865.645-1.306,1.73-.718,2.736.499.852,1.865,1.367,2.736.718h0Z"/><path class="l" d="M279.849,106.426c-2.139-2.002-5.412-2.228-7.717-.362-2.203,1.784-2.387,5.127-2.161,7.75.43,4.997,3.429,12.361,9.6,11.441,1.069-.159,1.658-1.509,1.397-2.46-.315-1.145-1.388-1.557-2.46-1.397-.459.068-.98-.27-1.285-.499-.469-.353-1.048-.991-1.422-1.578-.955-1.498-1.542-3.272-1.781-5.029-.121-.895-.133-1.816-.077-2.717.042-.679.087-1.49.432-2.092.503-.878,1.858-.967,2.646-.229,1.878,1.758,4.713-1.065,2.828-2.828h0Z"/><path class="l" d="M331.22,111.586c-.535-1.941-.957-3.93-1.913-5.721-1.026-1.922-2.659-3.112-4.263-4.504-3.302-2.865-6.552-7.572-6.085-12.132.213-2.078-2.766-2.574-3.727-1.009-3.56,5.794-8.993,10.079-15.94,10.676-2.545.219-2.569,4.221,0,4,4.25-.365,8.338-1.697,11.801-4.232,3.097-2.267,5.589-5.164,7.593-8.425l-3.727-1.009c-.506,4.943,2.542,10.135,5.835,13.605,1.356,1.428,3.174,2.471,4.408,4.004,1.3,1.614,1.625,3.87,2.161,5.812.684,2.478,4.544,1.426,3.857-1.063h0Z"/><path class="l" d="M298.954,91.923c-.217.321-.275.406-.66.826-.337.367-.696.713-1.068,1.045-.81.722-1.509,1.231-2.417,1.853-2.009,1.377-4.117,2.603-6.193,3.876-3.771,2.312-8.296,4.934-10.312,9.067-.473.97-.264,2.163.718,2.736.879.514,2.261.257,2.736-.718.832-1.705,2.166-2.977,3.725-4.197,1.909-1.494,4.013-2.745,6.081-4.002,3.843-2.336,8.261-4.65,10.844-8.468,1.446-2.138-2.018-4.142-3.454-2.019h0Z"/><path class="l" d="M320.531,70.348c-2.155-1.305-4.462-2.367-6.93-2.911-2.607-.575-5.332-.76-7.994-.863-5.945-.231-11.882,1.257-17.222,3.816-7.696,3.687-13.803,10.359-16.366,18.549-1.857,5.935-1.742,12.23-.809,18.316.164,1.069,1.506,1.659,2.46,1.397,1.142-.314,1.561-1.388,1.397-2.46-1.311-8.55-.349-17.68,5.315-24.561,5.568-6.765,14.272-10.763,23.001-11.062,5.294-.181,10.55.461,15.13,3.235,2.208,1.337,4.22-2.121,2.019-3.454h0Z"/><path class="l" d="M337.161,110.724c2.066-6.699,1.827-14.019-.142-20.7-1.857-6.3-5.369-12.749-11.069-16.335-2.185-1.375-4.195,2.085-2.019,3.454,4.801,3.02,7.805,8.895,9.344,14.333,1.676,5.925,1.857,12.262.03,18.184-.76,2.465,3.099,3.52,3.857,1.063h0Z"/><path class="l" d="M276.808,121.164c1.621,9.597,7.676,18.818,17.03,22.301,4.89,1.821,10.563,2.192,15.679,1.282,4.79-.852,9.088-3.35,12.517-6.758,3.9-3.875,6.686-8.781,8.196-14.055.71-2.479-3.149-3.538-3.857-1.063-2.257,7.883-8.043,15.519-16.265,17.657-4.423,1.15-9.285.825-13.654-.412-4.001-1.132-7.417-3.634-10.035-6.83-3.081-3.761-4.948-8.421-5.753-13.186-.18-1.066-1.495-1.662-2.46-1.397-1.129.31-1.577,1.391-1.397,2.46h0Z"/><g id="f"><path class="l" d="M303.047,118.578c.123.604.231,1.212.313,1.822l-.071-.532c.038.289.072.578.111.867l-.071-.532c.016.13.024.258.009.389l.071-.532c-.01.061-.024.118-.048.175l.202-.478c-.016.032-.033.059-.054.087l.313-.405c-.015.018-.031.034-.049.048l.405-.313c-.05.035-.104.059-.159.084l.478-.202c-.1.04-.199.069-.305.086l.532-.071c-.095.011-.188.01-.283-.002l.532.071c-.123-.019-.242-.058-.364-.081-.266-.083-.532-.095-.798-.036-.266.012-.514.091-.744.237-.415.243-.811.718-.919,1.195-.117.512-.091,1.087.202,1.541.27.418.688.822,1.195.919.316.061.593.125.928.157.462.044.908-.084,1.326-.26.343-.145.567-.262.852-.545s.492-.669.598-1.053c.158-.57.081-1.011.004-1.58l.071.532c-.087-.889-.242-1.778-.419-2.653-.062-.26-.181-.487-.358-.68-.141-.218-.328-.389-.561-.515-.23-.146-.477-.225-.744-.237-.266-.06-.532-.048-.798.036-.484.157-.951.457-1.195.919l-.202.478c-.095.354-.095.709,0,1.063h0Z"/><path class="l" d="M290.965,110.495c-.494,1.335-.396,4.475,2.162,4.885,3.402.17,3.794-3.598,2.749-5.438-.856-1.507-3.579-2.266-4.911.554Z"/><path class="l" d="M318.201,112.018c.342,1.382-.105,4.491-2.693,4.613-3.4-.211-3.37-3.998-2.126-5.711,1.019-1.402,3.809-1.853,4.819,1.098Z"/><path class="l" d="M309.259,131.27c.659-.909,1.301-1.868,1.627-2.954.357-1.188-.64-2.612-1.929-2.532-3.275.203-6.553.332-9.835.277-1.178-.02-2.426,1.315-1.929,2.532,1.02,2.493,2.399,4.987,4.766,6.436,1.509.924,3.32.677,4.616-.476.436-.388.794-.873,1.162-1.323.523-.641,1.031-1.294,1.521-1.959.622-.846.169-2.268-.718-2.736-1.043-.551-2.072-.185-2.736.718-.091.123-.182.246-.274.368-.042.056-.303.384-.077.101-.164.205-.326.412-.492.616-.305.375-.608.758-.937,1.113-.057.061-.189.157-.232.233-.1.179.36-.204.079-.058-.308.16.361-.106.122-.035-.255.077-.155-.062.116.011-.032-.009-.255-.009-.277.008.284.051.349.056.197.014-.103-.033-.09-.026.039.023.279.132-.103-.076-.156-.11-.048-.031-.401-.289-.173-.115.204.156-.056-.049-.093-.08-.09-.074-.181-.148-.269-.225-.177-.156-.345-.323-.503-.497-.066-.073-.129-.149-.194-.223-.318-.363.149.222-.014-.011-.149-.212-.3-.42-.44-.638-.266-.414-.508-.842-.732-1.28-.112-.219-.22-.441-.323-.665-.039-.085-.077-.172-.116-.257-.199-.438.167.41-.006-.014l-1.929,2.532c3.282.055,6.56-.073,9.835-.277l-1.929-2.532c-.008.025-.083.211-.073.224-.028-.034.195-.402.041-.108-.109.208-.217.413-.338.615-.263.438-.555.856-.854,1.269-.616.85-.173,2.266.718,2.736,1.037.548,2.079.19,2.736-.718Z"/></g></g><g id="g"><path class="n" d="M194.483,145.343c.52,1.21,1.7,4.56,2.22,5.77.11.27.23.53.41.75.35.41.89.59,1.41.69.599.11,1.248.08,1.987.05-1.072,3.07-7.193,12.763-10.809,17.752-.696.961-2.071,1.109-2.951.313-4.87-4.401-9.132-8.702-13.275-13.947,1.051-.76,2.449-1.619,3.298-2.519.48-.51.95-1.05,1.23-1.7.49-1.12.37-2.41.23-3.63l-.825-4.237,15.852-3.259,1.223,3.966Z"/><path class="n" d="M75.772,145.35c-1.417-.524-2.644-1.057-3.543-1.549-1.339-.733-3.76-1.86-5.747-2.643-1.891-.745-3.52-1.866-3.446-3.856.077-2.085,1.451-2.751,2.556-2.741,1.6.015,2.196.198,3.042.298-2.432-1.424-4.192-2.699-5.971-4.044-.758-.573-1.319-1.314-1.722-2.167-.545-1.155-.168-3.074.967-3.794s1.994-.934,3.284-.27c-.729-.625-3.263-2.351-1.526-4.986,1.173-1.78,4.183-.881,5.096-.235-.696-.88-.305-2.236-.052-2.914.386-1.033,1.672-2.001,3.084-1.901.876.062,2.165.407,2.874.887,3.017,2.042,4.718,3.268,8.257,5.657l.68.401c-.012-.04-.02-.079-.029-.118-.217-1.024-.428-2.054-.037-3.025.381-.945,1.817-1.732,2.832-1.641s2.336.964,3.037,1.704c4.071,4.299,6.761,10.558,8.587,16.834.83.566,2.696,1.876,4.26,2.797-3.123,3.879-5.447,8.396-6.791,13.191-.065.233-.128.473-.172.715-2.18-1.123-4.886-2.873-6.618-3.56-3.822-.267-9.057-1.62-12.901-3.041Z"/><path class="n" d="M222.259,175.451c1.229,8.275,2.048,12.043,3.817,21.002l-53.706,17.442c-2.638-7.761-5.395-16.026-8.319-24.09-.657-.23-1.014-.355-1.014-.355-6.673-2.336-15.922-5.635-22.054-9.154-14.648-8.406-29.296-16.811-43.945-25.217-.645-.37-1.328-.781-1.641-1.455-.343-.739-.154-1.605.066-2.389,1.465-5.226,4.094-10.12,7.635-14.232.444-.515,1.184-.67,1.812-.41,6.737,2.787,12.624,4.993,19.215,8.142,10.103,4.827,19.858,10.653,30.694,13.487,1.927.504,5.123.765,7.103.547,1.421-.156,2.567-.225,4.332-.578,2.222-.444,5.023-1.265,7.117-1.608,4.626,5.884,9.399,10.575,14.999,15.534,2.779-3.474,9.087-13.185,11.416-17.875l3.818-2.279c3.254.03,6.539-.588,9.825-.479,3.034.1,6.01.817,8.961,1.531,4.742,1.146,9.484,2.293,14.226,3.439l-14.356,18.996Z"/><path class="l" d="M163.569,187.522c-4.425-1.55-8.845-3.127-13.177-4.923-4.584-1.9-8.841-4.282-13.138-6.748-9.981-5.727-19.962-11.455-29.943-17.182-2.513-1.442-5.026-2.884-7.54-4.326-.54-.31-2.387-.994-2.574-1.628-.108-.366.214-1.017.313-1.359.199-.685.421-1.365.662-2.037.833-2.326,1.934-4.548,3.237-6.647.625-1.007,1.294-1.991,2.017-2.93.274-.356.683-1.145,1.088-1.324-.164.072-.366.044-.134.104.437.114.918.379,1.336.55,4.946,2.027,9.93,3.964,14.798,6.177,4.78,2.173,9.425,4.625,14.123,6.967,5.252,2.617,10.6,5.115,16.192,6.921,2.499.807,4.971,1.42,7.598,1.597,2.664.179,5.189-.291,7.828-.543,1.075-.103,2-.846,2-2,0-1.002-.918-2.103-2-2-2.506.239-4.918.701-7.446.566-2.325-.124-4.491-.701-6.703-1.408-5.275-1.685-10.299-4.024-15.248-6.486-5.047-2.511-10.033-5.148-15.18-7.453-5.197-2.328-10.493-4.465-15.788-6.56-3.006-1.189-4.648,1.145-6.254,3.321-1.569,2.126-2.911,4.418-3.998,6.826-1.034,2.291-2.399,5.094-2.422,7.652-.027,3.115,3.108,4.327,5.397,5.641,10.627,6.098,21.254,12.196,31.881,18.295,5.281,3.03,10.476,6.243,16.061,8.692,5.216,2.288,10.576,4.22,15.949,6.102,2.434.853,3.481-3.01,1.063-3.857h0Z"/><path class="l" d="M156.695,176.257c5.172,12.501,9.397,25.367,13.747,38.17.824,2.424,4.688,1.384,3.857-1.063-4.35-12.803-8.575-25.668-13.747-38.17-.413-.997-1.327-1.708-2.46-1.397-.943.259-1.812,1.456-1.397,2.46h0Z"/><path class="l" d="M220.331,175.983c1.05,7.045,2.437,14.017,3.817,21.002.209,1.06,1.474,1.668,2.46,1.397,1.106-.304,1.607-1.397,1.397-2.46-1.38-6.985-2.768-13.958-3.817-21.002-.159-1.069-1.509-1.658-2.46-1.397-1.145.315-1.557,1.388-1.397,2.46h0Z"/><path class="l" d="M199.325,154.466c6.122-.514,12.464-1.634,18.555-.425s12.152,2.88,18.204,4.343c2.501.605,3.568-3.251,1.063-3.857-6.202-1.5-12.403-3.256-18.675-4.434-6.344-1.192-12.779-.161-19.147.374-2.547.214-2.569,4.216,0,4h0Z"/><path class="l" d="M171.993,158.05c2.421,3.057,5.012,5.968,7.76,8.733,1.337,1.345,2.706,2.656,4.098,3.943,1.306,1.207,2.528,2.521,4.442,2.437,1.762-.077,2.757-1.261,3.696-2.586.824-1.163,1.625-2.341,2.413-3.528,1.656-2.494,3.261-5.023,4.784-7.599,1.225-2.071,2.631-4.257,3.334-6.579.747-2.469-3.112-3.525-3.857-1.063-.228.754-.539,1.324-1.06,2.31-.694,1.314-1.442,2.601-2.205,3.876-1.737,2.904-3.566,5.756-5.469,8.555-.432.635-.868,1.267-1.311,1.894-.13.184-.322.59-.512.711-.245.155.113.048-.019.029-.26-.038-.731-.662-.918-.833-.435-.399-.868-.801-1.299-1.204-.745-.698-1.482-1.404-2.211-2.119-3.146-3.086-6.103-6.35-8.839-9.805-.671-.847-2.127-.702-2.828,0-.837.837-.673,1.979,0,2.828h0Z"/><path class="l" d="M86.764,124.516c-.391-.922-2.634-5.626-.635-5.811.911-.084,2.076,1.328,2.652,2.001.98,1.146,1.823,2.403,2.589,3.7,1.655,2.801,2.905,5.809,3.925,8.893.233.705.433,1.421.666,2.126.309.934.785,1.386,1.562,1.92,1.245.855,2.497,1.701,3.796,2.471,2.22,1.315,4.234-2.141,2.019-3.454-1.488-.881-2.908-1.865-4.335-2.841l.919,1.195c-1.019-3.47-2.264-6.891-3.896-10.124-1.417-2.808-3.216-5.869-5.604-7.97-1.166-1.025-2.695-1.934-4.294-1.919-1.56.015-3.208.925-4.072,2.215-1.877,2.803.094,6.887,1.253,9.616.422.994,1.889,1.213,2.736.718,1.029-.602,1.141-1.738.718-2.736h0Z"/><path class="l" d="M83.934,119.366c-1.696-1.147-3.382-2.308-5.066-3.472-1.64-1.133-3.247-2.494-5.199-3.03-2.228-.612-4.569-.245-6.082,1.628-1.267,1.568-1.687,4.142-.551,5.882l2.736-2.736c-2.356-1.545-6.172-1.612-7.832.953-.973,1.503-1.137,3.341-.33,4.953.503,1.004,1.323,1.748,2.169,2.457l2.424-3.141c-2.141-.999-4.641-.788-6.265,1.101-1.479,1.72-1.584,4.238-.477,6.165,1.067,1.857,2.965,3.04,4.684,4.237,1.891,1.317,3.871,2.489,5.905,3.571,2.272,1.208,4.295-2.243,2.019-3.454-2.648-1.409-5.173-2.993-7.581-4.781-.777-.577-1.876-1.4-1.784-2.432.066-.743.76-1.291,1.481-.955.902.421,1.949.329,2.58-.515.552-.739.618-1.976-.156-2.626-.852-.714-1.814-1.275-1.402-2.25.35-.828,2.035-.166,2.548.17,1.658,1.088,3.819-1.078,2.736-2.736-.17-.312-.208-.34-.114-.084.009-.106.007-.21-.006-.315.062-.247.081-.54.198-.774.114-.227.396-.499.735-.595,1.176-.334,2.474.653,3.362,1.26,2.421,1.652,4.822,3.332,7.25,4.973,2.138,1.445,4.142-2.019,2.019-3.454h0Z"/><path class="l" d="M68.807,132.883c-2.934-.452-6.384-.657-7.509,2.801-.541,1.663-.233,3.511.843,4.881,1.069,1.36,2.606,2.029,4.165,2.664,2.736,1.114,5.284,2.614,8.028,3.703,3.063,1.215,6.27,2.128,9.5,2.773.884.176,1.772.325,2.666.447.456.062.911.121,1.369.169.569.06.277-.005.801.255,1.832.909,3.562,2.012,5.365,2.974,2.271,1.211,4.294-2.241,2.019-3.454-1.753-.935-3.437-2.002-5.211-2.897-.82-.414-1.565-.737-2.487-.832-.736-.075-1.462-.16-2.191-.284-3.509-.596-6.993-1.56-10.317-2.832-1.182-.452-2.285-1.024-3.411-1.597-1.771-.9-3.607-1.623-5.423-2.423-.852-.376-2.61-1.23-1.86-2.483.133-.222.234-.166.438-.186.707-.069,1.456.071,2.151.178,1.066.164,2.151-.27,2.46-1.397.26-.947-.323-2.295-1.397-2.46h0Z"/><path class="l" d="M67.753,121.091c3.281,2.145,6.377,4.562,9.654,6.714.876.575,2.25.203,2.736-.718.529-1,.218-2.122-.718-2.736-3.276-2.151-6.373-4.569-9.654-6.714-.878-.574-2.249-.205-2.736.718-.528.999-.219,2.124.718,2.736h0Z"/><path class="l" d="M64.183,126.312c3.282,2.141,6.505,4.373,9.783,6.521.877.575,2.249.204,2.736-.718.528-1,.218-2.123-.718-2.736-3.278-2.148-6.5-4.38-9.783-6.521-.878-.573-2.249-.205-2.736.718-.527.998-.22,2.125.718,2.736h0Z"/><path class="l" d="M176.233,148.873c.047.41.092.822.111,1.234.009.183.013.366.011.55-.002.114-.006.227-.013.341-.004.068-.052.373.003.071.06-.331-.013.063-.028.133-.019.088-.039.175-.063.261s-.054.171-.08.257c-.127.407.145-.244.018-.046-.105.165-.199.342-.302.509-.148.242.064-.02.078-.087-.016.081-.16.195-.211.254-.233.271-.478.533-.741.775-.141.129-.286.252-.434.372-.045.037-.287.226-.056.047.251-.194-.064.046-.118.086-.638.47-1.301.904-1.944,1.367-.434.312-.773.663-.919,1.195-.132.479-.072,1.116.202,1.541.542.84,1.828,1.371,2.736.718,1.49-1.072,3.107-2.028,4.273-3.475.711-.881,1.284-1.839,1.467-2.975.17-1.059.132-2.068.011-3.128-.062-.547-.182-1.01-.586-1.414-.347-.347-.916-.608-1.414-.586-.982.044-2.127.887-2,2h0Z"/><path class="l" d="M192.756,146.353c-.341-.798-.061-.141.015.051.068.171.134.342.2.513.153.399.304.799.453,1.2.32.855.635,1.712.964,2.564.118.306.239.611.365.914.246.582.269.637.069.165.081.198.165.395.252.591.062.129.125.255.205.375.319.477.661.831,1.141,1.146,1.199.789,2.715.787,4.093.731,1.044-.042,2.05-.89,2-2-.047-1.047-.88-2.045-2-2-.307.012-.615.027-.923.028-.123,0-.246,0-.369-.006-.079-.003-.159-.008-.238-.014-.218-.021-.156-.011.185.032-.213-.076-.462-.106-.683-.169-.146-.053-.069-.019.23.101-.064-.03-.126-.064-.187-.1-.129-.087-.119-.075.03.034.144.117.158.123.042.018.377.432.09.122.01-.031-.029-.054-.056-.109-.081-.165.171.409.138.333-.098-.228.325.774.098.231.024.048-.136-.338-.266-.679-.395-1.02-.608-1.603-1.176-3.221-1.85-4.798-.183-.428-.77-.802-1.195-.919-.479-.132-1.116-.072-1.541.202-.427.275-.803.685-.919,1.195-.128.56-.022,1.018.202,1.541h0Z"/><path class="l" d="M83.31,124.516c-.553,1.246-.848,2.501-.903,3.868-.048,1.203.112,2.419.349,3.596.207,1.027,1.482,1.713,2.46,1.397,1.09-.353,1.619-1.36,1.397-2.46-.067-.333-.124-.667-.171-1.004l.071.532c-.125-.956-.157-1.92-.039-2.878l-.071.532c.086-.638.239-1.259.482-1.856l-.202.478c.026-.062.052-.124.08-.185.226-.508.355-.983.202-1.541-.128-.464-.486-.967-.919-1.195-.464-.245-1.026-.368-1.541-.202-.464.15-.989.454-1.195.919h0Z"/><path class="n" d="M205.75,105.16c.76-.926,2.007-1.506,3.253-1.507s2.467.567,3.176,1.486c.5.644.748,1.425.938,2.195.73,3.038.594,6.266-.379,9.28-.474,1.469-1.163,2.91-2.245,4.091-.972,1.047-2.017,1.651-3.928,1.076-.534,3.738-1.805,8.313-4.535,12.797-3.308,5.434-7.406,8.836-12.485,10.774-2.337.892-4.657,1.358-6.869,1.756-2.231.27-4.389.35-6.532.278-5.433-.183-10.89-2.343-15.65-6.565-3.76-3.335-6.267-7.143-7.886-10.459-1.729,1.141-3.245.402-4.44-.289-1.381-.811-2.463-1.985-3.348-3.25-1.817-2.595-2.895-5.64-3.091-8.759-.045-.792-.038-1.611.251-2.373.407-1.086,1.407-1.988,2.599-2.354s2.554-.178,3.553.484c0,0-5.727-25.128,22.169-30.528,33.688-6.52,35.448,21.867,35.448,21.867Z"/><path class="q" d="M153.199,100.315c-.423.691-.848,1.372-1.276,2.026-.196.548-.312.876-.312.876-.809,2.274-.881,6.312-2.832,11.154-.948-1.048-2.587-1.454-4.02-1.072-2.97-4.485-4.387-13.342-3.885-18.853.492-5.4,2.623-10.645,5.376-12.818l3.622-5.361c4.347-6.52,11.17-9.98,18.257-11.157,7.683-1.275,15.214-.58,21.656,4.871l6.019,2.953c4.492,1.449,8.901,6.308,10.869,9.773,2.846,5.01,4.761,13.823,3.744,21.193-.447-.161-.928-.247-1.413-.247-1.446.001-2.893.782-3.571,1.983-.526-3.284-3.085-9.652-6.139-13.58-1.045-1.344-3.828-1.462-5.301-2.315,0,0-4.818-4.274-13.403-4.057-3.197.081-9.31,2.391-9.31,2.391-4.479.045-7.733-.155-11.256,2.611-2.296,1.803-4.527,5.871-6.825,9.629Z"/><path class="l" d="M207.165,106.574c.859-.969,2.495-1.364,3.429-.227.504.614.629,1.586.77,2.336.183.975.236,1.973.214,2.964-.041,1.879-.411,3.828-1.184,5.55-.372.829-.85,1.634-1.494,2.28-.521.523-.737.575-1.561.483-1.075-.12-2,1.005-2,2,0,1.181.922,1.879,2,2,3.017.338,5.242-2.099,6.443-4.603,1.287-2.684,1.9-5.741,1.788-8.715-.108-2.857-.623-6.247-3.166-7.973-2.505-1.7-6.081-1.166-8.068,1.076-1.702,1.921,1.117,4.76,2.828,2.828h0Z"/><path class="l" d="M149.143,112.094c-2.602-1.595-6.147-1.084-8.09,1.305-1.978,2.431-1.43,5.994-.625,8.795.794,2.762,2.215,5.432,4.18,7.54,1.934,2.076,5.057,3.989,7.954,2.878,1.008-.387,1.703-1.346,1.397-2.46-.265-.964-1.446-1.786-2.46-1.397-1.527.586-3.071-.783-4.062-1.849-1.291-1.389-2.273-3.148-2.887-4.937-.332-.965-.596-1.97-.734-2.982-.111-.809-.267-1.84.048-2.621.501-1.244,2.154-1.498,3.261-.819,2.201,1.349,4.212-2.109,2.019-3.454h0Z"/><path class="l" d="M170.621,81.168c.468.099.931.22,1.386.369.238.078.472.166.707.255.349.132-.264-.122-.036-.018.104.047.208.092.311.141.433.203.856.429,1.265.677s.776.573,1.187.808c-.185-.106-.243-.191-.029-.016.088.072.176.145.262.22.173.149.342.302.507.459.346.33.675.679.984,1.044.074.087.145.176.217.264.301.364-.253-.357.02.028.132.186.265.37.39.561.276.419.524.855.75,1.302.473.936,1.867,1.278,2.736.718.956-.616,1.223-1.736.718-2.736-2.014-3.985-5.943-7.007-10.312-7.93-1.021-.216-2.21.3-2.46,1.397-.229,1.004.302,2.229,1.397,2.46h0Z"/><path class="l" d="M183.038,82.512c.296.174.58.366.853.575l-.405-.313c.542.424,1.026.911,1.45,1.453l-.313-.405c.436.57.798,1.187,1.08,1.846l-.202-.478c.242.583.417,1.186.521,1.809.077.465.529.967.919,1.195.429.251,1.061.357,1.541.202.484-.157.951-.457,1.195-.919.266-.503.294-.982.202-1.541-.472-2.843-2.354-5.426-4.823-6.878-.903-.531-2.233-.236-2.736.718-.508.961-.246,2.17.718,2.736h0Z"/><path class="l" d="M193.977,90.269c1.534.903,3.054,2.009,4.065,3.439s1.844,2.981,2.595,4.559c1.313,2.76,2.473,5.734,3.023,8.752.194,1.063,1.485,1.665,2.46,1.397,1.118-.307,1.591-1.394,1.397-2.46-.626-3.437-2.031-6.82-3.542-9.951-.804-1.665-1.706-3.298-2.817-4.781-1.375-1.835-3.194-3.251-5.162-4.41-2.223-1.309-4.238,2.147-2.019,3.454h0Z"/><path class="l" d="M144.836,80.213c-2.257,1.861-3.615,4.693-4.551,7.404-1.051,3.045-1.542,6.317-1.507,9.536.062,5.646,1.101,11.989,4.078,16.88,1.336,2.196,4.797.188,3.454-2.019-2.563-4.212-3.423-9.659-3.526-14.519-.102-4.823.933-11.198,4.881-14.453,1.988-1.639-.856-4.455-2.828-2.828h0Z"/><path class="l" d="M195.272,74.862c4.811,1.643,8.841,6.492,10.765,11.066,2.294,5.454,3.112,11.726,2.43,17.589-.125,1.075,1.009,2,2,2,1.185,0,1.875-.922,2-2,.769-6.615-.356-13.685-3.047-19.772-2.427-5.49-7.327-10.774-13.085-12.74-2.441-.834-3.49,3.028-1.063,3.857h0Z"/><path class="l" d="M149.49,128.161c3.938,10.106,12.472,19.26,23.602,20.924,5.926.886,12.361.138,17.895-2.173,4.854-2.028,8.779-5.44,11.754-9.757,3.628-5.265,5.62-11.504,6.087-17.855.189-2.568-3.812-2.556-4,0-.682,9.267-5.433,18.998-13.993,23.311-4.641,2.339-10.132,3.052-15.273,2.745-4.908-.293-9.61-2.469-13.312-5.653-3.937-3.386-7.018-7.768-8.904-12.606-.392-1.006-1.342-1.704-2.46-1.397-.96.264-1.791,1.448-1.397,2.46h0Z"/><path class="l" d="M151.599,77.276c3.857-5.683,10.033-8.99,16.695-10.175,7.06-1.256,14.41-.413,20.076,4.294,1.966,1.634,4.811-1.181,2.828-2.828-3.323-2.761-7.167-4.729-11.437-5.508-4.042-.738-8.129-.554-12.164.123-7.854,1.317-14.95,5.442-19.452,12.076-1.449,2.136,2.015,4.139,3.454,2.019h0Z"/><path class="l" d="M171.406,85.585c-3.482.283-6.733,1.214-9.688,3.113-2.626,1.688-5.187,3.781-7.183,6.192-2.339,2.825-4.202,6.1-5.221,9.634-.931,3.229-1.528,6.654-2.174,9.95-.493,2.515,3.362,3.591,3.857,1.063.568-2.901,1.204-5.799,1.85-8.683.722-3.222,2.245-6.267,4.289-8.858,3.477-4.407,8.592-7.95,14.27-8.412,2.548-.207,2.57-4.209,0-4h0Z"/><g id="h"><path class="l" d="M177.691,118.323c-.227,1.018-.418,2.047-.54,3.083l.071-.532c-.095.612-.149,1.055-.012,1.666.15.673.653,1.297,1.274,1.59.514.242,1.074.439,1.655.392.353-.029.686-.107,1.031-.167.466-.08.965-.526,1.195-.919.251-.429.357-1.061.202-1.541-.157-.484-.457-.951-.919-1.195l-.478-.202c-.354-.095-.709-.095-1.063,0-.141.024-.277.065-.419.086l.532-.071c-.117.015-.232.016-.349.001l.532.071c-.132-.021-.254-.06-.377-.111l.478.202c-.068-.031-.134-.062-.194-.107l.405.313c-.021-.018-.041-.037-.058-.059l.313.405c-.025-.035-.045-.067-.063-.106l.202.478c-.027-.069-.043-.138-.054-.212l.071.532c-.013-.142-.004-.282.014-.423l-.071.532c.037-.258.07-.516.104-.775l-.071.532c.11-.805.272-1.606.449-2.399.117-.522.073-1.071-.202-1.541-.243-.415-.718-.811-1.195-.919-.512-.117-1.087-.091-1.541.202-.426.275-.805.686-.919,1.195h0Z"/><path class="l" d="M163.129,114.35c-.234,1.552.577,4.921,3.432,4.789,3.712-.581,3.289-4.737,1.747-6.489-1.263-1.435-4.373-1.643-5.178,1.7Z"/><path class="l" d="M192.756,109.896c.68,1.415.895,4.873-1.872,5.586-3.718.536-4.537-3.561-3.578-5.689.785-1.742,3.697-2.855,5.45.103Z"/><path class="l" d="M187.781,136.536c1.298-2.368,1.663-5.168,1.7-7.833.018-1.312-1.292-2.257-2.532-1.929-1.797.476-3.596.957-5.421,1.32-.841.167-1.687.304-2.536.425.188-.027.224-.029.014-.003-.119.015-.237.03-.356.044-.279.034-.558.065-.837.095-.581.062-1.162.116-1.744.166-1.04.09-2.051.856-2,2,.045,1.007.884,2.096,2,2,2.134-.184,4.267-.431,6.371-.84,1.877-.365,3.725-.86,5.572-1.349l-2.532-1.929c-.007.528-.029,1.056-.071,1.583-.025.307-.057.614-.094.919.026-.208.022-.146-.007.024-.026.154-.05.308-.079.462-.101.546-.228,1.087-.394,1.616-.08.256-.171.509-.269.758.07-.177.076-.165-.007,0-.076.152-.152.302-.234.451-.503.917-.255,2.222.718,2.736.937.495,2.2.262,2.736-.718h0Z"/></g></g><g id="i"><path class="n" d="M267.884,167.062c.863-.779,2.143-1.156,3.339-.977s2.286.9,2.833,1.884c.387.69.512,1.475.583,2.241.262,3.02-.333,6.098-1.702,8.851-.667,1.341-1.536,2.625-2.744,3.602-.928.74-1.86,1.161-3.208.75,0,0-.176-.054-.482-.145-.296,1.163-.685,2.177-.86,2.673-1.055,2.673-7.29,12.587-15.456,14.841-4.721,2.082-11.992,2.352-16.898,1.16-5.12-1.244-10.018-3.795-13.977-8.217-3.024-3.378-4.859-6.994-5.949-10.111-.45.122-.712.192-.712.192-1.524.41-2.688-.403-3.616-1.143-1.208-.977-2.077-2.261-2.744-3.602-1.369-2.752-1.964-5.83-1.702-8.851.071-.766.196-1.552.583-2.241.548-.983,1.637-1.705,2.833-1.884s2.476.198,3.339.977c0,0,.999-24.733,28.359-24.733s28.18,24.733,28.18,24.733Z"/><path class="q" d="M208.238,154.691c1.246-10.667,7.36-17.41,12.803-21.314,5.036-3.612,11.328-5.767,18.738-5.767,3.754,0,7.507.56,11.061,1.814,1.607.567,3.168,1.27,4.666,2.092,2.055,1.128,4.322,2.656,5.342,3.543.639.556,1.579,1.469,2.197,2.093,1.535,1.551,2.904,3.273,4.06,5.136,2.758,4.446,4.183,9.603,4.413,14.844.149,3.397-.125,6.287-.577,8.93-1.112-.094-2.262.282-3.057,1l-.965.098c-1.74.177-3.426-.666-4.328-2.164l-.485-.805c-.844-5.445-2.622-10.477-6.09-14.974-.758-.983-2.118-1.302-3.228-.746-2.086,1.045-4.276,1.962-6.543,2.74-1.47.504-3.414.879-4.488-.057-1.017-.886-.603-2.492-1.813-3.213-.819-.488-1.98-.312-2.96-.067-10.352,2.589-15.925,7.743-19.767,15.725l-.582.991c-.881,1.5-2.481,2.432-4.22,2.457l-1.071.015c-.671-.606-1.595-.969-2.536-1.008.19,1.857-.941-4.924-.765-8.922.037-.836.102-1.649.195-2.441Z"/><path class="l" d="M269.298,168.476c.928-.776,2.525-.467,3.032.502.352.674.351,1.547.366,2.291.019.931-.029,1.869-.197,2.786-.339,1.849-.973,3.634-1.977,5.229-.415.659-.927,1.317-1.537,1.805-.563.45-.818.568-1.468.395-2.49-.664-3.552,3.193-1.063,3.857,3.094.825,5.52-1.157,7.208-3.565,1.655-2.361,2.56-5.251,2.906-8.089.329-2.701.312-6.11-1.871-8.074-2.382-2.142-5.84-1.963-8.227.034-.829.693-.716,2.112,0,2.828.821.821,1.997.695,2.828,0h0Z"/><path class="l" d="M212.759,165.648c-2.386-1.996-5.847-2.175-8.227-.034-2.244,2.019-2.197,5.544-1.84,8.303.369,2.854,1.334,5.748,3.041,8.091,1.744,2.393,4.34,4.412,7.45,3.726,1.055-.233,1.672-1.458,1.397-2.46-.299-1.088-1.402-1.63-2.46-1.397-1.265.279-2.627-1.403-3.259-2.354-1.067-1.606-1.74-3.431-2.103-5.318-.174-.904-.238-1.822-.229-2.742.008-.801-.013-1.757.37-2.484.508-.965,2.101-1.281,3.032-.502.828.692,2.017.812,2.828,0,.712-.712.832-2.132,0-2.828h0Z"/><path class="l" d="M210.373,180.291c2.43,11.774,11.714,21.726,23.715,23.857,2.931.52,5.937.633,8.899.351,2.827-.27,5.38-.968,8.045-1.879,4.94-1.689,8.937-5.054,12.151-9.113,2.934-3.705,5.458-7.837,5.696-12.695.126-2.573-3.875-2.567-4,0-.061,1.257-.422,2.469-.828,3.654-.055.159-.505,1.33-.226.685-.12.277-.254.547-.393.815-.718,1.384-1.584,2.697-2.504,3.954-2.483,3.393-5.739,6.71-9.663,8.382-9.386,4-20.862,2.977-28.587-4.028-4.359-3.952-7.263-9.304-8.448-15.046-.52-2.519-4.376-1.453-3.857,1.063h0Z"/><path class="l" d="M272.906,166.38c1.392-8.557.579-17.599-4.073-25.101-4.44-7.16-11.792-12.425-19.933-14.537-8.25-2.141-17.416-1.314-25.027,2.569-5.667,2.891-10.608,7.591-13.741,13.129-2.121,3.751-3.37,7.874-3.881,12.142-.469,3.926-.09,7.912.539,11.801.173,1.067,1.5,1.661,2.46,1.397,1.135-.312,1.57-1.39,1.397-2.46-1.008-6.232-.876-12.699,1.761-18.541,2.283-5.06,6.077-9.378,10.719-12.411,12.776-8.347,31.036-5.454,40.54,6.479,5.47,6.867,6.761,15.99,5.381,24.47-.173,1.065.277,2.152,1.397,2.46.955.262,2.286-.325,2.46-1.397h0Z"/><path class="l" d="M218.574,166.238c3.436-7.075,8.691-13.027,16.292-15.651.982-.339,2.001-.68,3.024-.872.271-.051.778-.204,1.044-.047-.253-.15.114.562.182.767.74,2.243,2.555,3.43,4.923,3.275,2.494-.163,4.948-1.336,7.206-2.32.575-.25,1.146-.51,1.711-.78.291-.139.744-.486,1.094-.41.67.144,1.191,1.357,1.515,1.882,2.678,4.338,4.113,9.418,4.909,14.419.17,1.068,1.502,1.66,2.46,1.397,1.137-.312,1.567-1.389,1.397-2.46-.791-4.968-2.26-9.956-4.72-14.366-1.176-2.109-2.587-4.594-5.242-4.84-1.284-.119-2.305.386-3.432.925-1.411.675-2.852,1.275-4.322,1.808-.86.312-2.355,1.049-3.31.755-.216-.066-.239-.07-.242-.073-.28-.35-.363-1.186-.548-1.606-1.203-2.737-4.183-2.608-6.648-1.943-4.497,1.213-8.665,3.392-12.179,6.452-3.671,3.197-6.454,7.314-8.569,11.669-1.12,2.306,2.328,4.336,3.454,2.019h0Z"/><path class="l" d="M258.139,198.699c3.404,1.005,6.737,2.225,9.895,3.854,1.454.75,2.958,1.546,4.264,2.536,1.538,1.166,2.992,2.472,4.432,3.755,1.917,1.707,4.756-1.112,2.828-2.828-1.487-1.324-3.006-2.61-4.559-3.856-1.51-1.212-3.229-2.173-4.947-3.06-3.458-1.784-7.122-3.157-10.85-4.257-2.474-.73-3.531,3.129-1.063,3.857h0Z"/><path class="l" d="M203.197,210.565c5.408-5.581,12.486-9.276,19.651-12.089,1.005-.394,1.705-1.34,1.397-2.46-.263-.958-1.449-1.794-2.46-1.397-7.814,3.067-15.512,7.024-21.416,13.117-1.792,1.85,1.033,4.681,2.828,2.828h0Z"/><path class="n" d="M192.822,211.78c.012-4,5.626-9.924,12.745-9.321,4.509.382,6.109-.466,9.348,2.694,2.947,2.875,3.634,7.086,3.383,11.211-.057.565-.166,1.728-.166,1.728-.189,2.003-.828,3.555-2.417,4.298s-3.278.296-4.496-.967c-.122,1.892-1.101,3.12-2.799,3.224-1.698.103-3.52-.746-3.866-2.28-.443,1.056-2.064,1.64-3.142,1.429s-2.856-1.169-2.991-2.481c-.481,1.301-2.614,1.262-3.901.327-1.287-.936-1.512-2.702-1.542-4.293s-.189-4.279-.157-5.57"/><path class="l" d="M194.822,211.78c.051-1.845,1.731-3.925,3.353-5.155,1.17-.887,2.513-1.537,3.934-1.901,1.598-.41,3.136-.257,4.762-.18,2.53.119,4.398-.06,6.349,1.756,2.531,2.356,3.193,5.731,3.12,9.067-.028,1.281-.037,2.87-.512,4.084-.579,1.482-2.096,1.611-3.193.559-1.333-1.276-3.254-.272-3.414,1.414-.055.585-.21,1.09-.799,1.224-.627.142-1.74-.146-1.937-.811-.47-1.583-2.827-2.044-3.655-.478-.139.262-.04.257-.441.383-.316.099-.536.105-.812.031-.507-.137-1.121-.45-1.225-.988-.318-1.645-2.922-1.992-3.655-.478-.183.377.107.106-.12.021-.303-.113-.628-.091-.9-.312-.627-.511-.654-1.581-.687-2.323-.087-1.964-.198-3.947-.167-5.913.041-2.575-3.959-2.576-4,0-.024,1.547.078,3.094.13,4.639.057,1.694.077,3.399.83,4.959,1.403,2.904,6.672,4.445,8.367.948l-3.655-.478c.832,4.303,7.724,5.433,9.789,1.53l-3.655-.478c.773,2.603,3.491,3.982,6.104,3.715,2.824-.288,4.24-2.558,4.489-5.191l-3.414,1.414c1.825,1.748,4.309,2.439,6.68,1.381,1.979-.884,3.123-2.779,3.482-4.865.707-4.11.573-8.611-1.298-12.402-1.789-3.625-5.19-6.085-9.216-6.317-4.163-.24-8.135-.454-11.908,1.645-3.393,1.888-6.612,5.431-6.724,9.5-.071,2.575,3.929,2.573,4,0h0Z"/><path class="l" d="M213.22,221.424c.089-2.54.153-5.1.03-7.639-.051-1.043-.884-2.05-2-2-1.04.047-2.054.881-2,2,.123,2.539.059,5.1-.03,7.639-.037,1.047.946,2.047,2,2,1.115-.05,1.961-.879,2-2h0Z"/><path class="l" d="M206.623,221.737c.115-2.646.324-5.337.093-7.981-.091-1.039-.855-2.051-2-2-1.006.045-2.097.884-2,2,.231,2.645.023,5.335-.093,7.981-.046,1.047.953,2.047,2,2,1.123-.05,1.951-.879,2-2h0Z"/><path class="l" d="M200.623,220.626c.146-2.085.239-4.196.139-6.286-.05-1.043-.884-2.05-2-2-1.041.047-2.054.881-2,2,.1,2.089.008,4.201-.139,6.286-.073,1.046.972,2.046,2,2,1.146-.051,1.921-.88,2-2h0Z"/><path class="n" d="M288.672,211.78c-.012-4-5.626-9.924-12.745-9.321-4.509.382-6.109-.466-9.348,2.694-2.947,2.875-3.634,7.086-3.383,11.211.057.565.166,1.728.166,1.728.189,2.003.828,3.555,2.417,4.298s3.278.296,4.496-.967c.122,1.892,1.101,3.12,2.799,3.224,1.698.103,3.52-.746,3.866-2.28.443,1.056,2.064,1.64,3.142,1.429s2.856-1.169,2.991-2.481c.481,1.301,2.614,1.262,3.901.327s1.512-2.702,1.542-4.293c.031-1.591.189-4.279.157-5.57"/><path class="l" d="M290.672,211.78c-.1-3.617-2.646-6.692-5.466-8.705-1.652-1.179-3.626-2.036-5.625-2.396-2.148-.387-4.251-.149-6.413-.086-1.661.049-3.281.163-4.816.848-1.927.86-3.574,2.472-4.756,4.193-2.461,3.585-2.678,8.156-2.246,12.338.235,2.274.864,4.489,2.867,5.83,2.439,1.633,5.449.973,7.472-.964l-3.414-1.414c.25,2.634,1.665,4.901,4.489,5.191,2.613.268,5.332-1.113,6.104-3.715l-3.655.478c2.064,3.903,8.956,2.774,9.789-1.53l-3.655.478c1.695,3.496,6.964,1.956,8.367-.948.753-1.559.772-3.265.83-4.959.053-1.545.155-3.092.13-4.639-.04-2.571-4.041-2.579-4,0,.031,1.966-.079,3.949-.167,5.913-.032.71-.053,1.665-.572,2.205-.265.276-.599.364-.968.437-.32.063.011.337-.166-.028-.73-1.506-3.336-1.176-3.655.478-.104.539-.718.851-1.225.988-.217.059-.399.079-.657.011-.447-.117-.468-.183-.596-.425-.828-1.566-3.184-1.11-3.655.478-.197.664-1.309.954-1.937.811-.591-.134-.744-.635-.799-1.224-.16-1.688-2.087-2.685-3.414-1.414-.923.884-2.298,1.052-3.012-.172-.524-.897-.525-2.089-.616-3.1-.286-3.192-.01-6.86,2.093-9.448.76-.936,1.81-1.899,2.919-2.327,1.033-.399,2.073-.344,3.228-.378,1.581-.047,3.201-.304,4.778-.093,1.403.188,2.754.691,3.969,1.408,1.227.725,2.353,1.679,3.198,2.834.69.944,1.23,2.111,1.255,3.046.071,2.569,4.071,2.579,4,0h0Z"/><path class="l" d="M272.274,221.424c-.089-2.54-.153-5.1-.03-7.639.051-1.047-.956-2.047-2-2-1.127.05-1.946.879-2,2-.123,2.539-.059,5.1.03,7.639.037,1.044.894,2.05,2,2,1.052-.047,2.039-.88,2-2h0Z"/><path class="l" d="M278.871,221.737c-.115-2.646-.324-5.337-.093-7.981.091-1.045-.985-2.045-2-2-1.162.052-1.902.88-2,2-.231,2.645-.023,5.335.093,7.981.045,1.044.887,2.05,2,2,1.045-.047,2.049-.88,2-2h0Z"/><path class="l" d="M284.871,220.626c-.146-2.085-.239-4.196-.139-6.286.05-1.047-.956-2.047-2-2-1.126.05-1.946.879-2,2-.1,2.089-.008,4.201.139,6.286.037.535.198,1.026.586,1.414.347.347.916.608,1.414.586,1.021-.046,2.078-.882,2-2h0Z"/><g id="j"><path class="l" d="M234.631,189.291c1.492,1.461,3.799,1.932,5.812,1.93s4.321-.469,5.814-1.93c.749-.733.79-2.103,0-2.828-.805-.739-2.029-.782-2.828,0-.077.075-.365.304-.034.049.344-.265-.03.011-.127.071-.114.07-.231.135-.351.195-.079.04-.168.071-.244.115.093-.053.475-.181.16-.073-.384.132-.769.245-1.169.32-.065.012-.13.024-.195.034-.152.024-.088.016.193-.023-.093.045-.259.028-.359.037-.286.024-.572.035-.859.035-.262,0-.525-.009-.786-.029-.134-.01-.299-.049-.433-.043.192-.009.365.055.062,0-.403-.072-.801-.174-1.185-.314-.16-.058-.42-.226.112.055-.066-.035-.137-.062-.205-.095-.133-.065-.263-.136-.39-.214-.096-.06-.185-.132-.282-.191.581.357.284.229.122.071-.748-.733-2.092-.802-2.828,0-.726.791-.799,2.046,0,2.828h0Z"/><path class="l" d="M239.349,177.103c.215.819.421,1.652.544,2.49l-.071-.532c.015.115.021.228.009.344l.071-.532c-.008.054-.02.104-.038.155l.202-.478c-.016.036-.033.067-.055.099l.313-.405c-.026.031-.05.055-.081.08l.405-.313c-.063.04-.129.073-.197.104l.478-.202c-.109.045-.216.078-.332.097l.532-.071c-.105.012-.207.012-.312,0l.532.071c-.118-.016-.233-.045-.351-.061-.266-.083-.532-.095-.798-.036-.266.012-.514.091-.744.237-.415.243-.811.718-.919,1.195-.117.512-.091,1.087.202,1.541l.313.405c.25.248.544.419.883.514.332.045.654.127.992.142.553.024,1.054-.151,1.544-.379.62-.289,1.111-.888,1.276-1.554.142-.574.085-1.017-.012-1.593-.136-.802-.321-1.597-.527-2.384-.127-.483-.49-.944-.919-1.195s-1.061-.357-1.541-.202c-.484.157-.951.457-1.195.919-.253.48-.342,1.007-.202,1.541h0Z"/><path class="l" d="M225.658,169.733c-.448,1.456-.156,4.805,2.602,5.09,3.646-.022,3.84-4.071,2.612-5.975-1.005-1.559-3.959-2.207-5.215.885Z"/><path class="l" d="M254.731,169.733c.448,1.456.156,4.805-2.602,5.09-3.646-.022-3.84-4.071-2.613-5.975,1.005-1.559,3.959-2.207,5.215.885Z"/></g></g><path class="l" d="M144.92,213.013c-4.644.054-9.288.091-13.932.091-1.944,0-3.887-.006-5.83-.022-.604-.005-2.601.397-2.145-.644.289-.66,1.198-1.387,1.675-1.936.674-.776,1.353-1.549,2.037-2.316,1.257-1.408,2.535-2.798,3.843-4.158,2.706-2.812,5.549-5.49,8.547-7.989,3.814-3.179,7.878-6.054,12.084-8.69,2.176-1.364.171-4.826-2.019-3.454-8.03,5.033-15.427,10.978-21.96,17.847-1.481,1.557-2.923,3.15-4.342,4.764-1.327,1.508-3.344,3.184-3.855,5.184-.497,1.942.532,4.063,2.317,4.928s4.313.47,6.249.478c5.777.025,11.554-.017,17.331-.085,2.572-.03,2.579-4.03,0-4h0Z"/><path class="l" d="M218.286,215.091c14.893-.532,29.778-1.056,44.656-1.912,2.559-.147,2.576-4.148,0-4-14.878.855-29.763,1.38-44.656,1.912-2.567.092-2.579,4.092,0,4h0Z"/><path class="l" d="M158.623,216.812c11.264-.198,22.525-.478,33.785-.838,2.568-.082,2.579-4.082,0-4-11.26.359-22.521.64-33.785.838-2.571.045-2.579,4.045,0,4h0Z"/><path class="l" d="M288.483,211.626c18.377-1.193,36.77-2.464,55.077-4.497,1.073-.119,2-.834,2-2,0-.989-.92-2.12-2-2-18.306,2.033-36.7,3.304-55.077,4.497-2.556.166-2.574,4.167,0,4h0Z"/><path class="m" d="M405.164,71.539c-.706,1.509-1.133,3.66-1.267,5.257-.191,2.28.808,5.468,1.636,7.204,1.088,2.282,3.926,5.196,6.259,6.53,1.866,1.066,6.551,2.91,9.685,2.308,3.336-3.594,3.482-9.314,2.704-14.141-.705-4.376-5.226-9.185-9.045-11.433-1.362,2.432-2.335,4.589-3.624,6.81-1.142-.481-4.053-1.617-6.347-2.534Z"/><path class="m" d="M23.3,43.859c1.263-.818,3.107-1.899,4.547-2.395,2.056-.708,5.226-.532,7.019-.175,2.357.47,4.512,1.772,6.368,3.299,1.577,1.298,3.813,4.261,3.989,7.288-2.532,3.913-6.908,7.357-11.537,7.767-4.196.372-9.034-2.606-11.997-5.6,1.923-1.823,3.683-3.222,5.428-4.929-.71-.94-2.436-3.356-3.817-5.255Z"/><path class="p" d="M2.625,112.53c-.671-2.348-.671-4.898-.47-6.978.284-2.932,1.094-4.818,2.56-6.814,4.668-6.36,11.625-7.86,19.117-7.966.372-.005.753-.007,1.101.124,2.257.845,3.341,6.643,3.651,8.682.51,3.348.294,6.871-.866,10.067-1.946,5.365-7.055,9.751-12.428,11.675-1.137-3.405-1.442-6.911-1.973-10.461-2.641.33-7.305,1.525-10.693,1.671Z"/><path class="p" d="M394.582,28.167c.151,1.713.257,4.155-.011,5.876-.383,2.456-2.256,5.566-3.576,7.186-1.735,2.13-4.203,3.613-6.739,4.671-2.155.899-6.344,1.575-9.498.134-2.6-4.651-3.741-10.914-1.68-15.812,1.867-4.439,7.464-7.736,12.074-9.129.814,2.918,1.287,5.444,2.079,8.121,1.329-.215,4.694-.667,7.352-1.047Z"/><path class="p" d="M68.916,22.296c.299-2.276.867-5.488,1.715-7.651,1.21-3.089,4.551-6.598,6.739-8.327,2.877-2.273,6.522-3.49,10.131-4.135,3.068-.548,8.721-.215,12.413,2.575,2.041,6.812,1.714,15.302-2.388,21.086-3.718,5.242-11.964,7.918-18.373,8.399-.216-4.037-.101-7.465-.358-11.182-1.794-.105-6.309-.49-9.881-.764Z"/><path class="l" d="M24.309,45.586c1.63-1.045,3.396-2.212,5.348-2.507,1.826-.275,3.876-.147,5.646.382,3.61,1.08,7.575,4.43,7.919,8.415l.273-1.009c-2.155,3.259-5.697,6.319-9.721,6.769-3.99.446-7.987-2.34-10.672-5.006v2.828c1.781-1.675,3.671-3.229,5.428-4.929.576-.557.83-1.734.313-2.424-1.299-1.732-2.545-3.504-3.817-5.255-.634-.873-1.738-1.301-2.736-.718-.862.504-1.356,1.858-.718,2.736,1.272,1.751,2.518,3.524,3.817,5.255l.313-2.424c-1.757,1.7-3.647,3.255-5.428,4.929-.785.738-.749,2.084,0,2.828,2.892,2.872,6.699,5.418,10.799,6.045,4.284.655,8.363-1.126,11.626-3.811,1.58-1.3,3.272-2.988,4.25-4.807s-.591-4.909-1.569-6.47c-2.179-3.477-6.057-6.312-10.116-7.081-2.192-.415-4.469-.491-6.671-.113-2.276.39-4.386,1.681-6.303,2.91-2.16,1.385-.157,4.849,2.019,3.454Z"/><path class="l" d="M4.554,111.999c-1.226-4.595-.516-9.615,2.684-13.217,2.926-3.295,6.898-4.943,11.185-5.618,1.04-.164,2.093-.251,3.143-.312.502-.029,1.005-.05,1.507-.064.237-.007.52.015.76-.016.576-.075.163-.127.438.024-.15-.082.237.268.278.324.232.314.416.688.578,1.043.356.782.595,1.625.813,2.455,1.106,4.192,1.39,8.753-.281,12.845-1.896,4.642-6.271,8.224-10.899,9.929l2.46,1.397c-1.098-3.399-1.456-6.943-1.973-10.461-.113-.767-1.145-1.572-1.929-1.468-3.575.473-7.083,1.48-10.693,1.671-2.561.136-2.577,4.137,0,4,3.626-.192,7.11-1.197,10.693-1.671l-1.929-1.468c.517,3.518.875,7.062,1.973,10.461.311.963,1.408,1.784,2.46,1.397,5.331-1.964,10.282-5.732,12.88-10.881,2.531-5.016,2.544-10.736,1.273-16.103-.494-2.085-1.166-4.428-2.644-6.046-1.8-1.97-4.665-1.485-7.068-1.271-5.38.478-10.641,2.042-14.672,5.794-2.19,2.039-4.034,4.64-4.867,7.536-.982,3.414-.939,7.369-.027,10.785.663,2.485,4.522,1.431,3.857-1.063Z"/><path class="l" d="M392.582,28.167c.197,2.345.411,4.844-.408,7.095-.766,2.104-2.082,4.218-3.717,5.755-3.089,2.905-8.526,5.068-12.69,3.29l.718.718c-2.302-4.241-2.831-10.029-1.042-14.562,1.583-4.01,6.395-6.252,10.24-7.441l-2.46-1.397c.741,2.695,1.299,5.436,2.079,8.121.326,1.123,1.377,1.569,2.46,1.397,2.444-.387,4.902-.698,7.352-1.047,1.07-.153,1.657-1.514,1.397-2.46-.316-1.15-1.387-1.55-2.46-1.397-2.45.349-4.907.66-7.352,1.047l2.46,1.397c-.78-2.684-1.338-5.426-2.079-8.121-.28-1.018-1.425-1.717-2.46-1.397-4.096,1.266-8.333,3.355-11.056,6.77-2.928,3.673-3.505,8.862-2.937,13.401.307,2.451.945,4.813,2.047,7.032,1.153,2.32,4.486,2.569,6.825,2.493,4.66-.151,9.561-2.375,12.644-5.903,1.682-1.924,3.027-4.229,3.888-6.633.926-2.587.777-5.463.551-8.158-.214-2.547-4.216-2.569-4,0Z"/><path class="l" d="M70.845,22.828c.449-3.338.966-6.844,2.874-9.693,1.754-2.62,4.181-5.072,6.951-6.604,5.402-2.989,12.996-3.862,18.236-.047l-.919-1.195c1.844,6.308,1.854,14.209-2.283,19.677-3.654,4.829-10.793,6.813-16.549,7.276l2,2c-.189-3.725-.114-7.459-.358-11.182-.074-1.13-.859-1.931-2-2-3.297-.201-6.588-.51-9.881-.764-2.567-.198-2.554,3.803,0,4,3.293.254,6.584.563,9.881.764l-2-2c.243,3.723.169,7.456.358,11.182.051,1.013.877,2.09,2,2,5.803-.467,11.86-2.143,16.535-5.733,5.009-3.846,7.175-10.037,7.425-16.19.128-3.138-.245-6.339-1.066-9.37-.436-1.61-1.547-2.349-3.003-3.062-1.482-.726-3.06-1.243-4.684-1.536-5.988-1.08-12.742.353-17.667,3.982-2.683,1.977-5.107,4.565-6.836,7.416-1.817,2.996-2.412,6.594-2.872,10.015-.144,1.069.256,2.147,1.397,2.46.931.256,2.315-.319,2.46-1.397Z"/><path class="l" d="M403.437,70.529c-.966,2.185-1.625,4.709-1.559,7.116.065,2.352.754,4.685,1.687,6.83,1.714,3.942,5.429,7.15,9.339,8.787,2.004.838,4.091,1.452,6.262,1.646,1.007.09,2.42.183,3.319-.344.98-.574,1.76-1.959,2.271-2.944,2.141-4.129,2.216-9.306,1.292-13.785-1.06-5.143-5.553-9.677-9.904-12.299-.91-.548-2.217-.219-2.736.718-1.248,2.249-2.345,4.579-3.624,6.81l2.259-.919c-2.102-.877-4.232-1.69-6.347-2.534-1.003-.401-2.197.438-2.46,1.397-.313,1.139.39,2.058,1.397,2.46,2.115.845,4.245,1.657,6.347,2.534.797.333,1.859-.222,2.259-.919,1.28-2.232,2.377-4.561,3.624-6.81l-2.736.718c3.559,2.145,7.302,5.838,8.096,10.073.751,4.003.704,9.153-2.16,12.36l.883-.514c-2.132.351-4.602-.511-6.539-1.322-2.037-.853-3.716-2.182-5.198-3.81-3.197-3.512-4.261-8.826-2.316-13.228.436-.987.288-2.148-.718-2.736-.851-.497-2.298-.276-2.736.718Z"/></g></g></svg>