<?xml version="1.0" encoding="UTF-8"?><svg id="b" xmlns="http://www.w3.org/2000/svg" width="211.59" height="326.261" viewBox="0 0 211.59 326.261"><defs><style>.h{fill:#bdbdbd;}.i{fill:#211715;}.j{fill:#fff;}.k{fill:#ffda71;}.l{fill:#645d5c;}</style></defs><g id="c"><g id="d"><path class="j" d="M158.514,81.218c1.5-1.354,3.723-2.008,5.802-1.697,2.079.311,3.971,1.564,4.923,3.273.672,1.198.889,2.563,1.014,3.894.455,5.248-.579,10.595-2.958,15.377-1.158,2.33-2.668,4.56-4.768,6.257-1.612,1.286-3.586,2.24-5.685,2.562,0,0-.353.054-.973.151-.466,1.746-.991,3.216-1.248,3.997-1.705,4.628-11.481,20.984-23.632,26.195-.021,3.276-.093,7.053,1.059,9.886.87,2.15,4.95,5.34,9.24,8.24,0,0-2.359,31.914-32.582,31.914s-30.068-32.124-30.068-32.124c4.58-2.84,8.83-5.93,9.68-8.03,1.121-2.782,1.07-6.446,1.05-9.677-5.584-2.396-10.697-6.475-15.242-11.915-5.01-5.996-7.815-12.673-9.452-18.53-2.756.083-5.42-1.02-7.488-2.67-2.099-1.697-3.609-3.928-4.768-6.257-2.379-4.782-3.413-10.129-2.958-15.377.124-1.331.341-2.696,1.014-3.894.951-1.709,2.844-2.962,4.923-3.273s4.302.344,5.802,1.697c0,0,2.1-45.801,50.1-45.801,49.333,0,47.215,45.801,47.215,45.801Z"/><path class="l" d="M170.253,86.687c-.124-1.331-.341-2.696-1.014-3.894-.951-1.709-2.844-2.962-4.923-3.273-2.079-.311-4.302.344-5.802,1.697-6.993-3.468-11.993-9.579-15.438-14.468-7.084-10.055-9.11-17.061-10.427-24.127-6.224,7.608-20.073,16.139-32.404,20.134-1.907.603-2.892.835-4.798,1.266-2.634.595-3.86.885-6.456,1.18-3.803,2.952-7.933,5.689-12.26,8.248-2.605,1.54-12.387,6.043-15.899,7.475-1.474-1.158-3.516-1.693-5.435-1.407-2.079.311-3.971,1.564-4.923,3.273-.672,1.198-.889,2.563-1.014,3.894l-3.052-3.519c-.997-30.037,6.905-51.82,19.361-63.746,7.509-7.188,24.429-16.982,43.44-16.982,11.595,0,17.739,1.224,24.347,3.77l3.731,1.438c3.502,1.901,7.005,3.803,7.005,3.803,4.473,2.428,5.667,4.278,9.777,8.244,9.505,9.171,16.112,25.67,17.164,40.446.304,4.262,1.001,15.352.33,23.029l-1.312,3.519Z"/><path class="l" d="M41.364,134.333c-1.646,5.187-2.538,10.612-2.638,16.053-.087,4.745.732,10.076,4.526,12.926,3.098,4.015,7.908,7.025,13.975,7.586,10.657-5.85,21.41-11.754,21.41-11.754,4.58-2.84,8.83-5.93,9.68-8.03,1.12-2.78,1.07-6.44,1.05-9.67-5.586-2.405-10.698-6.484-15.242-11.922-4.959-5.935-7.758-12.538-9.401-18.351-1.154-.178-1.854-.286-1.854-.286-2.098-.322-4.072-1.276-5.685-2.562-2.099-1.697-3.609-3.928-4.768-6.257-2.379-4.782-3.413-10.129-2.958-15.377l-3.053-3.523c.01,21.89-1.66,37.68-4,46.65-.37,1.43-.73,3.09-1.07,4.87"/><path class="l" d="M171.568,83.164c.33,27.28,5.01,42.54,7.42,50.05,1.94,6.03,2.88,10.85,2.94,17.09.06,7.53-5.92,16.13-14.5,18,0,0-2.333.509-5.943,1.295-10.415-5.283-20.197-10.245-20.197-10.245-4.29-2.9-8.37-6.09-9.24-8.24-1.151-2.833-1.08-6.609-1.058-9.887,12.151-5.212,21.927-21.567,23.632-26.195.257-.781.781-2.251,1.248-3.996.619-.097.973-.152.973-.152,2.098-.322,4.072-1.276,5.685-2.562,2.099-1.697,3.609-3.928,4.768-6.257,2.379-4.782,3.413-10.129,2.958-15.377l1.315-3.523Z"/><path class="i" d="M44.008,83.164c-.002,12.807-.349,25.954-2.378,38.5-.333,2.061-.719,4.115-1.198,6.148-.319,1.35-.675,2.69-.966,4.047-.412,1.922-1.024,3.781-1.486,5.692-.94,3.886-1.487,7.892-1.628,11.887-.111,3.144.05,6.438,1.083,9.436,2.415,7.006,10.712,11.922,17.967,11.83,3.086-.039,3.095-4.839,0-4.8-3.199.041-6.144-1.214-8.756-2.987-2.145-1.456-3.891-3.137-4.694-5.656-.903-2.834-.912-5.829-.759-8.77.195-3.736.795-7.429,1.766-11.042,1.299-4.831,2.527-9.698,3.321-14.647.853-5.313,1.397-10.675,1.776-16.041.555-7.852.75-15.727.751-23.598,0-3.089-4.8-3.094-4.8,0h0Z"/><path class="i" d="M169.168,83.164c.172,13.129,1.309,26.336,4.279,39.148.825,3.558,1.809,7.073,2.912,10.554.965,3.046,1.881,6.098,2.452,9.246.588,3.243,1.095,6.962.582,10.215-1.028,6.52-6.168,12.185-12.604,13.662-3.009.691-1.736,5.32,1.276,4.629,6.657-1.528,12.077-6.585,14.689-12.811,2.842-6.772,1.467-14.874-.408-21.737-1.099-4.021-2.489-7.951-3.528-11.992-1.305-5.074-2.296-10.227-3.037-15.413-1.206-8.44-1.702-16.982-1.814-25.502-.04-3.086-4.84-3.095-4.8,0h0Z"/><path class="i" d="M160.212,82.915c1.975-1.675,5.281-1.353,6.778.793.837,1.2.889,2.885.946,4.293.071,1.753-.004,3.532-.297,5.263-1.074,6.346-4.371,14.076-11.434,15.306-1.278.223-1.996,1.789-1.676,2.952.371,1.35,1.671,1.899,2.952,1.676,9.711-1.691,14.351-12.708,15.156-21.473.39-4.242.281-9.548-3.302-12.474-3.718-3.036-8.908-2.792-12.518.27-.989.839-.864,2.53,0,3.394.98.98,2.403.841,3.394,0h0Z"/><path class="i" d="M154.368,105.486c-.07,2.058-.544,4.056-1.127,6.024-.229.771-.481,1.535-.737,2.297-.078.232-.158.464-.238.696-.161.468-.096.234-.033.097-.935,2.052-2.038,4.015-3.237,5.924-3.462,5.513-7.692,10.766-12.836,14.799-2.825,2.215-5.976,3.98-9.466,4.785-3.009.694-1.735,5.323,1.276,4.629,7.306-1.685,13.426-6.942,18.242-12.459,3.892-4.459,7.558-9.497,10.014-14.913,1.665-3.671,2.804-7.852,2.942-11.878.106-3.09-4.694-3.085-4.8,0h0Z"/><path class="i" d="M62.897,79.521c-3.609-3.062-8.8-3.306-12.518-.27-3.583,2.926-3.692,8.232-3.302,12.474.805,8.765,5.446,19.782,15.156,21.473,1.276.222,2.586-.342,2.952-1.676.318-1.157-.392-2.729-1.676-2.952-7.063-1.23-10.361-8.961-11.434-15.306-.293-1.732-.366-3.51-.297-5.263.056-1.422.123-3.073.946-4.293,1.465-2.171,4.828-2.448,6.778-.793.988.838,2.425.969,3.394,0,.859-.859.993-2.552,0-3.394h0Z"/><path class="i" d="M61.342,107.443c3.071,14.516,11.639,28.664,25.318,35.38,3.693,1.813,7.572,2.914,11.661,3.341,1.291.135,2.4-1.199,2.4-2.4,0-1.41-1.105-2.265-2.4-2.4-13.461-1.404-24.471-13.04-29.313-25.052-1.323-3.281-2.305-6.686-3.037-10.145-.639-3.02-5.267-1.742-4.629,1.276h0Z"/><path class="i" d="M134.196,3.897C125.447.547,115.888-.331,106.573.103c-10.766.502-21.353,3.859-30.722,9.126-6.914,3.886-12.929,8.845-17.62,15.26-4.945,6.763-8.282,14.672-10.49,22.72-3.2,11.663-4.114,23.907-3.731,35.959.098,3.081,4.898,3.095,4.8,0-.577-18.2,1.656-37.864,11.696-53.526,3.796-5.921,8.806-10.728,14.803-14.505,8.221-5.177,17.686-8.811,27.367-9.919,5.91-.677,12.033-.509,17.938.183,4.227.496,8.338,1.604,12.307,3.123,1.211.464,2.633-.513,2.952-1.676.372-1.353-.461-2.487-1.676-2.952h0Z"/><path class="i" d="M173.965,83.169c.461-5.469.314-10.989.059-16.465-.228-4.9-.537-9.795-1.439-14.625-2.077-11.126-6.633-22.252-13.939-30.981-1.921-2.296-4.129-4.347-6.245-6.46-2.074-2.071-4.323-3.843-6.896-5.259-2.708-1.491-5.132,2.653-2.423,4.145,2.034,1.12,3.798,2.42,5.455,4.043,1.866,1.829,3.779,3.648,5.539,5.579,3.52,3.86,6.248,8.418,8.458,13.134,2.311,4.93,3.991,10.173,5.109,15.499.952,4.535,1.284,9.115,1.521,13.731.301,5.87.494,11.795,0,17.659-.109,1.293,1.181,2.4,2.4,2.4,1.389,0,2.291-1.103,2.4-2.4h0Z"/><path class="i" d="M128.588,141.234c-.014,2.113-.042,4.235.21,6.337.231,1.924.561,4.036,1.69,5.667,2.372,3.425,6.197,5.888,9.589,8.189,1.073.728,2.66.205,3.284-.861.692-1.184.215-2.554-.861-3.284-1.614-1.095-3.218-2.213-4.728-3.45-.661-.541-1.308-1.101-1.921-1.696-.268-.26-.53-.526-.781-.802-.127-.14-.25-.283-.371-.428-.245-.293.265.433-.066-.09-.145-.23-.29-.45-.413-.694-.131-.259.131.388-.005-.038-.072-.225-.153-.448-.218-.676-.219-.762-.378-1.604-.449-2.294-.202-1.952-.171-3.92-.158-5.88.02-3.089-4.78-3.093-4.8,0h0Z"/><path class="i" d="M86.968,141.444c.012,1.918.038,3.846-.165,5.757-.07.659-.249,1.586-.482,2.362-.067.222-.142.44-.219.658.054-.152.135-.232.017-.045-.085.133-.548.819-.212.393-2.189,2.771-5.51,4.655-8.48,6.502-1.1.684-1.528,2.143-.861,3.284.642,1.098,2.179,1.548,3.284.861,1.939-1.206,3.852-2.459,5.668-3.846,1.571-1.2,3.099-2.442,4.277-4.045,1.095-1.49,1.457-3.417,1.696-5.211.296-2.215.292-4.44.277-6.67-.02-3.088-4.82-3.094-4.8,0h0Z"/><path class="i" d="M102.245,47.868c-4.143,6.361-9.724,11.73-15.779,16.265-5.393,4.04-11.08,7.494-17.164,10.37-1.651.78-3.309,1.546-4.973,2.297-.73.33-1.461.656-2.194.979-.323.142-.647.284-.971.424-.112.049-.225.097-.338.145-.703.302.4-.166-.24.102-1.195.5-2.051,1.588-1.676,2.952.31,1.127,1.749,2.18,2.952,1.676,5.331-2.232,10.779-4.545,15.811-7.4,7.197-4.084,14.12-9.078,20.039-14.871,3.254-3.184,6.191-6.7,8.677-10.517,1.691-2.596-2.463-5.004-4.145-2.423h0Z"/><path class="i" d="M99.608,60.443c-1.851.583-3.728,1.026-5.619,1.452-.847.191-1.694.381-2.548.541-.433.081-.867.155-1.302.221-.126.019-.918.152-.261.04-.264.045-.535.067-.801.098-1.243.145-2.463,1-2.4,2.4.053,1.175,1.064,2.556,2.4,2.4,3.986-.465,7.978-1.317,11.807-2.523,1.196-.376,2.085-1.688,1.676-2.952-.389-1.201-1.67-2.08-2.952-1.676h0Z"/><path class="i" d="M130.787,41.127c-3.733,4.429-8.511,7.915-13.413,10.94-5.581,3.444-11.529,6.335-17.766,8.376-2.923.957-1.672,5.593,1.276,4.629,6.621-2.167,12.987-5.205,18.913-8.86,5.222-3.222,10.407-6.972,14.385-11.69.835-.99.971-2.423,0-3.394-.857-.857-2.555-.996-3.394,0h0Z"/><path class="i" d="M159.726,79.145c-7.199-3.637-12.402-10.058-16.68-16.731-3.848-6.002-6.475-12.354-7.877-19.34-.255-1.271-1.766-2.002-2.952-1.676-1.324.364-1.932,1.677-1.676,2.952,1.096,5.463,2.895,10.697,5.508,15.626,3.097,5.842,7.048,11.535,11.719,16.237,2.796,2.815,5.988,5.284,9.535,7.077,2.751,1.39,5.183-2.75,2.423-4.145h0Z"/><path class="h" d="M209.186,323.861c-2.963-58.963-5.731-110.22-11.331-128.889-1.611-5.369-3.64-10.116-6.324-12.263-2.691-2.153-7.148-3.573-10.251-5.072-11.355-5.485-27.221-12.514-33.405-17.636-.341-.269-.686-.537-1.034-.806,0,0-3.848-2.606-4.49-3.055-4.475,18.335-12.126,38.93-18.54,56.809-4.853,13.528-8.477,23.276-13.405,37.041-4.493-12.429-9.469-25.496-13.897-37.838-6.393-17.821-13.238-38.231-19.178-55.907l-.081.055-4.593,3.111c-.583.449-1.153.901-1.709,1.358-10.148,4.237-21.648,9.089-30.832,13.525-3.424,1.654-7.445,2.43-10.039,5.211-2.763,2.961-4.588,6.07-6.037,9.852-7.705,20.118-10.121,26.699-15.232,45.81-2,6.889-4.833,17.948-5.889,26.778-1.146,9.583-.811,16.689,3.222,25.222s11.364,13.223,22.566,12.004c5.325-.579,10.644-3.281,14.677-6.804,1.002-.876,1.993-1.865,2.962-2.944-.814,10.122-2.275,24.507-3.003,34.439h165.844Z"/><path class="j" d="M116.828,232.225c2.233-6.135,4.439-12.187,6.982-19.276,4.036-11.25,8.562-23.577,12.478-35.739-1.256.432-2.194.734-2.327.723-7.221,2.871-17.739,4.04-25.131,4.022-7.046-.018-16.476-1.538-23.18-3.331l-.421-.103c3.756,11.751,8.02,23.627,11.895,34.428,4.428,12.343,8.856,24.685,13.283,37.028,2.344-6.546,4.394-12.183,6.42-17.752Z"/><path class="i" d="M85.012,180.937c8.135,2.155,16.763,3.545,25.195,3.406,8.146-.133,16.763-1.112,24.392-4.097,1.206-.472,2.045-1.609,1.676-2.952-.316-1.15-1.739-2.151-2.952-1.676-7.265,2.844-15.359,3.799-23.116,3.926-8.03.131-16.173-1.183-23.919-3.235-2.989-.792-4.264,3.837-1.276,4.629h0Z"/><path class="i" d="M111.29,323.861c1.995-18.365,4.228-36.675,5.052-55.143.125-2.807.122-5.582-.272-8.373-.427-3.018-1.439-5.839-2.512-8.677-.458-1.212-1.62-2.042-2.952-1.676-1.162.319-2.137,1.733-1.676,2.952.941,2.49,1.878,4.981,2.345,7.612.418,2.358.4,4.773.309,7.158-.189,4.968-.541,9.931-.884,14.891-.617,8.912-1.596,17.783-2.583,26.661-.541,4.866-1.098,9.73-1.627,14.596-.14,1.291,1.203,2.4,2.4,2.4,1.414,0,2.259-1.106,2.4-2.4h0Z"/><path class="i" d="M149.081,163.859c5.136,3.435,10.758,6.153,16.305,8.845,6.06,2.941,12.119,5.985,18.33,8.596,2.557,1.075,5.558,2.139,7.373,4.347,1.824,2.219,2.875,5.137,3.775,7.825,1.173,3.504,1.995,7.099,2.671,10.729,1.738,9.34,2.673,18.539,3.558,28.12,1.198,12.964,2.07,25.958,2.86,38.952,1.065,17.522,1.952,35.055,2.833,52.588.155,3.074,4.955,3.093,4.8,0-.8-15.921-1.607-31.842-2.544-47.756-.798-13.551-1.673-27.102-2.864-40.625-.894-10.149-1.905-20.322-3.625-30.37-.583-3.405-1.247-6.81-2.196-10.135-1.69-5.916-3.94-12.444-9.582-15.643-2.805-1.59-5.891-2.617-8.791-4.013-3.08-1.483-6.174-2.935-9.261-4.403-6.026-2.865-12.088-5.728-17.851-9.102-1.142-.669-2.268-1.364-3.368-2.1-2.575-1.722-4.981,2.434-2.423,4.145h0Z"/><path class="i" d="M139.941,155.889c-3.058,12.373-7.099,24.486-11.318,36.504s-8.534,23.878-12.87,35.791c-2.416,6.639-4.833,13.278-7.219,19.927-.438,1.22.494,2.627,1.676,2.952,1.331.366,2.513-.452,2.952-1.676,8.595-23.952,17.802-47.735,25.579-71.971,2.147-6.689,4.142-13.43,5.828-20.251.741-2.999-3.887-4.278-4.629-1.276h0Z"/><path class="i" d="M128.023,244.566c6.036-8.625,11.871-17.389,17.487-26.293,2.843-4.508,5.631-9.051,8.363-13.627,2.667-4.469,5.448-8.93,7.86-13.543.733-1.402.935-2.872.182-4.324-.635-1.224-1.853-2.207-2.825-3.164-2.124-2.091-4.33-4.096-6.547-6.087l-.486,3.769c1.98-1.175,3.93-2.403,5.95-3.509,1.964-1.074,4.766-1.974,4.044-4.848-.437-1.739-1.806-3.552-2.846-4.988-1.126-1.554-2.36-3.027-3.699-4.401-3.619-3.714-7.781-6.65-12.048-9.541-2.564-1.737-4.969,2.42-2.423,4.145l2.898,1.963c1.481,1.004,2.059,1.412,3.424,2.527,2.067,1.689,4.059,3.48,5.847,5.466.83.922,1.607,1.881,2.308,2.904.333.485.65.98.952,1.484.169.281.333.566.491.853.058.105.388.836.385.621l.328-1.211-.163.258.861-.861c-1.235.928-2.854,1.505-4.199,2.285-1.523.883-3.02,1.81-4.534,2.708-1.27.754-1.653,2.721-.486,3.769,1.808,1.625,3.609,3.258,5.365,4.94.847.812,1.685,1.634,2.506,2.473.055.056.511.628.648.669-.082-.024.012-.491.004-.474-.267.526-.579,1.033-.87,1.546-2.471,4.351-4.992,8.674-7.563,12.967-5.072,8.469-10.338,16.823-15.79,25.053-3.13,4.724-6.322,9.406-9.571,14.049-.744,1.062-.193,2.667.861,3.284,1.197.7,2.538.204,3.284-.861h0Z"/><path class="i" d="M178.822,323.861c-.738-10.019-1.763-20.016-2.631-30.024-.588-6.786-1.271-13.493-.527-20.285,1.845-16.834,5.685-33.842,8.518-50.715,1.699-10.118,3.518-20.334,4.353-30.568.106-1.294-1.179-2.4-2.4-2.4-1.386,0-2.294,1.103-2.4,2.4-.709,8.693-2.209,17.28-3.624,25.929-1.464,8.954-3.217,17.85-4.826,26.778-1.553,8.615-3.019,17.258-4.11,25.946-.373,2.964-.769,5.971-.73,8.965.046,3.506.368,7.016.654,10.509.916,11.16,2.1,22.298,2.922,33.466.095,1.293,1.035,2.4,2.4,2.4,1.225,0,2.496-1.1,2.4-2.4h0Z"/><path class="i" d="M43.919,289.728c-.924,11.383-2.137,22.742-2.977,34.132-.095,1.294,1.171,2.4,2.4,2.4,1.378,0,2.304-1.102,2.4-2.4.84-11.39,2.052-22.749,2.977-34.132.105-1.294-1.178-2.4-2.4-2.4-1.386,0-2.295,1.103-2.4,2.4h0Z"/><path class="i" d="M31.562,191.571c.704,8.637,2.198,17.22,3.399,25.797.18,1.285,1.819,1.988,2.952,1.676,1.383-.38,1.857-1.663,1.676-2.952-1.142-8.153-2.558-16.31-3.228-24.521-.105-1.292-1.028-2.4-2.4-2.4-1.217,0-2.506,1.101-2.4,2.4h0Z"/><path class="i" d="M75.083,157.085c8.375,24.917,16.84,49.789,25.979,74.438,2.646,7.138,5.298,14.275,7.871,21.44.438,1.219,1.635,2.038,2.952,1.676,1.179-.324,2.116-1.726,1.676-2.952-4.584-12.767-9.421-25.442-14.028-38.201-4.452-12.33-8.7-24.735-12.906-37.151-2.316-6.839-4.616-13.683-6.916-20.527-.979-2.913-5.617-1.664-4.629,1.276h0Z"/><path class="i" d="M61.854,173.037c-.364-.211-.318-.126.139.254l.328,1.211c-.215.518-.226.574-.033.167.089-.176.181-.351.273-.526.139-.261.281-.52.427-.777.34-.598.699-1.185,1.077-1.76.67-1.021,1.335-1.923,2.101-2.836,1.748-2.084,3.712-3.977,5.788-5.731.534-.451,1.076-.893,1.624-1.327.148-.117.813-.587.296-.234.05-.034.099-.07.151-.102.497-.311.974-.66,1.459-.988l2.976-2.016c1.072-.726,1.546-2.112.861-3.284-.622-1.063-2.206-1.591-3.284-.861-3.095,2.097-6.12,4.151-8.907,6.666-2.366,2.135-4.511,4.489-6.374,7.076-.862,1.197-1.647,2.449-2.34,3.752-.469.881-.951,1.753-.896,2.781.065,1.221.848,2.151,1.911,2.68,1.16.577,2.598.31,3.284-.861.621-1.062.304-2.705-.861-3.284h0Z"/><path class="i" d="M54.403,272.065c-3.032,6.868-7.12,13.793-12.871,18.739-5.372,4.62-12.56,7.018-19.624,5.928-13.309-2.054-17.647-17.215-17.1-28.929.353-7.565,1.938-15.042,3.739-22.378,1.685-6.867,3.614-13.694,5.58-20.485,1.662-5.737,3.496-11.419,5.509-17.042,1.136-3.173,2.315-6.331,3.506-9.483,1.364-3.608,2.558-7.37,4.264-10.833,1.455-2.952,3.472-6.257,6.387-7.948,1.424-.826,2.967-1.376,4.494-1.973,1.803-.705,3.537-1.538,5.286-2.364,7.384-3.487,14.895-6.705,22.42-9.872,1.862-.784,3.726-1.564,5.591-2.343,1.195-.499,2.051-1.589,1.676-2.952-.31-1.128-1.749-2.179-2.952-1.676-8.116,3.391-16.23,6.794-24.242,10.427-3.555,1.612-7.039,3.351-10.672,4.779-1.77.696-3.568,1.421-5.121,2.539-1.633,1.177-2.904,2.681-4.114,4.275-2.517,3.316-3.998,7.091-5.471,10.948-1.413,3.699-2.822,7.399-4.193,11.113-2.189,5.93-4.243,11.905-6.062,17.96-2.081,6.927-4.02,13.918-5.827,20.922-2.019,7.826-3.756,15.786-4.431,23.854-1.118,13.353,2.956,30.69,17.305,35.337,7.224,2.34,15.41,1.108,21.963-2.544,7.196-4.011,12.379-10.844,16.31-17.934,1.018-1.837,1.947-3.72,2.795-5.641.523-1.185.346-2.578-.861-3.284-1.02-.597-2.758-.331-3.284.861h0Z"/><path class="i" d="M30.48,244.213c-1.808,1.766-3.675,3.47-5.603,5.105-.936.794-1.886,1.572-2.849,2.333-.142.112-.284.223-.426.335-.033.026-.381.297-.185.145s-.152.117-.186.143c-.143.11-.287.219-.431.328-.518.392-1.04.78-1.565,1.163-1.011.739-1.613,2.117-.861,3.284.646,1.001,2.2,1.653,3.284.861,4.306-3.147,8.399-6.575,12.215-10.302.9-.879.947-2.524,0-3.394-.967-.888-2.434-.938-3.394,0h0Z"/><g id="e"><path class="j" d="M63.955,224.101c-.997-2.91-3.544-4.639-6.209-6.177-1.322-.763-2.734-1.412-4.194-1.932.032-1.856,1.116-4.167,2.135-6.024,1.657-3.022,5.259-4.181,7.899-2.683,0,0,7.008,3.924,5.082,10.369-2.021,6.763-4.713,6.449-4.713,6.449Z"/><path class="j" d="M58.304,269.408c-4.66,2.806-10.256,4.178-15.637,3.384-3.218-.475-6.395-1.763-8.679-4.079-1.44-1.461-2.476-3.27-3.374-5.114-5.068-10.402-6.154-22.685-2.988-33.814,1.818-6.391,5.642-12.949,12.017-14.826,5.493-1.409,12.581-.224,18.105,2.965,2.664,1.538,5.212,3.267,6.209,6.177s-.105,6.071-3,7.111c3.056.611,5.075,3.415,5.278,6.389s-1.49,5.336-4.278,6.389c2.667.185,4.264,3.431,4.111,5.926s-2.648,4.815-5.222,5.519c2.646,1.074,4.01,5.074,3.115,7.785s-3.205,4.712-5.655,6.189Z"/><path class="i" d="M57.093,267.336c-5.964,3.524-15.322,5.269-20.968.101-2.695-2.466-4.184-6.301-5.351-9.683-1.297-3.76-2.131-7.685-2.411-11.654-.509-7.225.417-15.159,3.96-21.587,1.53-2.777,3.626-5.314,6.535-6.707,2.857-1.368,6.545-1.253,9.589-.705,3.875.698,7.824,2.238,10.912,4.732,1.226.99,2.377,2.327,2.541,3.958.124,1.229-.347,2.617-1.582,3.107-.999.396-1.762,1.175-1.762,2.314,0,1.022.741,2.079,1.762,2.314,3.849.886,4.976,6.548,1,8.149-2.553,1.028-2.114,4.399.638,4.714.963.11,1.724,2.089,1.718,3.087-.01,1.837-1.863,3.159-3.468,3.643-1.803.545-2.558,3.492-.573,4.387,1.624.732,2.452,2.794,2.168,4.513-.388,2.353-2.783,4.134-4.708,5.317-2.628,1.614-.219,5.768,2.423,4.145,3.372-2.072,6.665-5.126,7.069-9.292.325-3.351-1.324-7.381-4.529-8.826l-.573,4.387c3.737-1.129,7.199-4.412,6.979-8.57-.2-3.77-2.637-7.145-6.505-7.588l.638,4.714c3.697-1.489,6.376-4.703,6.024-8.874-.339-4.012-3.007-7.607-7.024-8.532v4.629c4.193-1.662,6.186-6.156,4.544-10.421-1.565-4.062-5.548-6.645-9.364-8.376-4.184-1.898-8.827-2.975-13.438-2.724-4.309.235-8.14,1.744-11.231,4.802-6.224,6.158-8.357,15.858-8.633,24.306-.156,4.754.381,9.57,1.557,14.178,1.13,4.424,2.804,9.142,5.455,12.9,6.609,9.368,20.088,8.575,29.033,3.289,2.657-1.57.245-5.721-2.423-4.145Z"/><path class="i" d="M44.622,232.39c5.434.528,10.885.871,16.333,1.222,1.295.084,2.4-1.163,2.4-2.4,0-1.369-1.101-2.316-2.4-2.4-5.448-.352-10.899-.695-16.333-1.222-1.292-.125-2.4,1.193-2.4,2.4,0,1.402,1.104,2.274,2.4,2.4h0Z"/><path class="i" d="M45.011,245.105c5.648.437,11.313.636,16.944,1.285,1.29.149,2.4-1.209,2.4-2.4,0-1.421-1.107-2.251-2.4-2.4-5.631-.648-11.296-.848-16.944-1.285-1.294-.1-2.4,1.175-2.4,2.4,0,1.382,1.102,2.3,2.4,2.4h0Z"/><path class="i" d="M45.773,257.663c5.025.027,10.045.267,15.071.172,1.254-.024,2.459-1.087,2.4-2.4-.057-1.28-1.055-2.425-2.4-2.4-5.026.095-10.046-.145-15.071-.172-1.256-.007-2.458,1.109-2.4,2.4.058,1.306,1.054,2.393,2.4,2.4h0Z"/><path class="i" d="M64.798,205.211c-3.038-1.672-6.544-1.028-9.168,1.09-1.238.999-2.032,2.401-2.72,3.807-.86,1.757-1.527,3.517-1.734,5.469-.133,1.253,1.199,2.454,2.4,2.4,1.414-.063,2.258-1.058,2.4-2.4.053-.503-.109.502,0,.034.042-.181.074-.364.12-.544.081-.322.179-.64.287-.954.065-.189.135-.377.208-.563.057-.145.179-.647.024-.069.086-.32.295-.652.44-.95.286-.584.577-1.177.925-1.726.057-.089.22-.246.24-.353-.235.297-.275.349-.117.154l.09-.106c.194-.224.404-.435.626-.631.065-.057.442-.391.122-.109-.312.275.056-.028.137-.08.24-.156.49-.283.744-.414.385-.197-.536.184-.097.042.122-.039.241-.085.364-.122.242-.072.503-.094.741-.17-.577.182-.403.047-.139.028.125-.009.25-.013.375-.013s.249.004.374.012c.447.031.051.05-.144-.028.221.088.496.102.727.176.08.026.159.053.237.083-.358-.157-.453-.197-.282-.121.128.073.267.13.397.202,1.1.605,2.668.305,3.284-.861.595-1.126.314-2.637-.861-3.284h0Z"/></g><g id="f"><path class="j" d="M68.194,191.597c-2.377-2.489-4.993-11.272,3.301-16.214,4.182-2.492,9.543-2.243,14.134-.575,2.283.829,5.814,1.993,8.841,3.036,5.651,1.947,11.554.755,17.647.415,3.315-.185,6.898.121,9.428,2.029s3.291,5.863.777,7.831c0,0-7.001,4.365-29.89,6.254-20.41,1.684-24.238-2.776-24.238-2.776Z"/><path class="i" d="M69.891,189.9c-.102-.11-.198-.223-.294-.338.048.058.304.446.084.088-.16-.26-.324-.513-.468-.784-.062-.116-.118-.235-.177-.352-.3-.598.16.459-.087-.19-.145-.382-.273-.769-.38-1.164-.363-1.34-.453-2.876-.148-4.198.967-4.191,5.284-6.844,9.582-7.016,2.658-.106,5.125.514,7.61,1.399,2.596.924,5.213,1.788,7.821,2.676,5.982,2.036,12.067,1.043,18.215.665,2.713-.166,6.078-.28,8.376,1.452,1.511,1.139,2.006,3.091.6,4.283-.99.838-.863,2.531,0,3.394.98.98,2.402.84,3.394,0,2.412-2.043,2.747-5.427,1.523-8.201-1.289-2.922-4.168-4.645-7.197-5.324-6.812-1.526-13.783,1.228-20.611-.071-6.443-1.226-12.22-5.044-18.918-5.087-6.235-.04-12.47,3.335-14.674,9.372-1.497,4.102-.651,9.539,2.355,12.789,2.102,2.273,5.49-1.128,3.394-3.394h0Z"/><path class="j" d="M68.023,278.45c-.273-1.35-.395-2.823-.533-4.501-.705-8.572-2.453-67.566-2.506-76.941-.122-4.763,2.469-7.13,7.206-7.615,8.056-.825,15.475-1.373,21.898-1.552,6.005-.167,16.599-.453,24.062-.141,3.692.154,7.018,2.064,6.784,6.734.397,7.519,2.522,68.985,2.415,77.655-.038,3.097-.295,5.925-1.355,8.202-.743,1.596-2.522,3.995-6.887,4.978-5.673,1.278-12.414,2.029-21.398,2.279-9.482.264-17.252.012-21.991-1.209-3.578-.922-5.758-3.147-6.589-4.699-.541-1.01-.876-2.057-1.105-3.189Z"/><path class="k" d="M115.94,209.386c-13.541-.56-30.627.161-42.393,1.82.4,16.611,2.774,58.797,3.079,63.983,7.499,2.312,32.636,1.502,40.235-.74l1.487-.439c-.017-5.03-.417-49.688-.968-64.56-.475-.023-.956-.045-1.44-.065Z"/><path class="j" d="M112.135,222.689c-1.489-.127-3.036.303-4.259,1.375-1.294,1.133-1.915,2.943-1.73,4.653.293,2.698,2.353,4.971,5.132,5.178,2.253.092,4.422-.874,5.468-2.904.769-1.492.843-3.324.198-4.874-.851-2.042-2.776-3.255-4.808-3.429Z"/><path class="j" d="M102.248,239.205c-1.075-.092-2.191.219-3.074.992-.934.818-1.382,2.124-1.248,3.358.211,1.947,1.698,3.587,3.704,3.737,1.626.066,3.191-.631,3.946-2.096.555-1.077.608-2.399.143-3.517-.614-1.474-2.003-2.349-3.47-2.475Z"/><path class="i" d="M112.135,220.289c-3.6-.256-6.925,2-8.049,5.41-.957,2.905-.019,6.369,2.21,8.448,2.482,2.315,5.975,2.689,9.025,1.33,3.004-1.338,4.771-4.685,4.408-7.923-.217-1.931-1.021-3.793-2.491-5.109-1.456-1.304-3.174-1.965-5.102-2.155-1.253-.124-2.454,1.192-2.4,2.4.063,1.406,1.057,2.267,2.4,2.4.533.053-.437-.095-.094-.013.127.03.256.05.383.081.203.05.399.121.599.182.5.151-.364-.191-.068-.031.092.05.188.092.28.141.115.062.228.127.339.197l.132.086c.209.149.175.116-.105-.096.13.003.377.328.472.422.094.094.177.199.271.293.235.236-.308-.491-.029-.039.115.187.239.367.341.562.019.037.222.531.095.179-.124-.344.073.251.092.32.043.15.071.302.11.452.05.19.166.287-.003-.085.088.194.033.533.028.745,0,.026-.01.638,0,.238.01-.383-.037.187-.047.233-.049.224-.102.718-.269.891.221-.227.125-.255.011-.064-.071.118-.131.242-.204.359-.044.071-.152.311-.227.336.002,0,.392-.442.073-.114-.147.151-.298.294-.448.442-.368.363.336-.211.055-.039-.133.082-.259.174-.395.252-.113.065-.231.121-.345.185-.183.102-.286.02.142-.052-.223.038-.457.162-.678.22-.233.061-.474.086-.706.145.546-.138.325-.035.155-.032-.163.003-.326.019-.49.02-.136,0-.273-.013-.409-.013-.327,0,.482.097.167.023-.227-.054-.454-.096-.677-.166.02.006-.283-.106-.288-.101.055-.055.517.242.089.028-.248-.124-.475-.273-.707-.424-.295-.192.151.018.131.102.002-.008-.195-.171-.224-.198-.043-.04-.487-.549-.511-.544.031-.007.338.493.103.128-.054-.084-.113-.165-.167-.25-.055-.088-.313-.661-.361-.663.078.002.202.532.039.081-.044-.12-.084-.241-.12-.363-.058-.198-.095-.4-.144-.6-.123-.513.022.453.01.09-.005-.143-.021-.286-.024-.43-.002-.115,0-.23.005-.345.004-.086.01-.172.018-.258.018-.185.008-.115-.031.211-.076-.156.15-.663.207-.835.025-.075.066-.25.118-.323-.341.479-.029.099.052-.046.069-.125.144-.246.223-.365.047-.072.096-.142.147-.21-.185.236-.22.288-.105.154.104-.095.194-.21.297-.308l.127-.116c.206-.172.19-.162-.05.03.153-.208.547-.343.774-.464.442-.237-.071.054-.086.029-.002-.004.479-.158.5-.164.112-.031.225-.059.339-.083.113-.024.228-.045.342-.062l-.294.044c.107-.12.897-.012,1.036-.002,1.255.089,2.455-1.168,2.4-2.4-.062-1.377-1.056-2.305-2.4-2.4Z"/><path class="i" d="M102.248,236.805c-1.314-.093-2.762.262-3.862.996-1.247.832-2.122,1.975-2.591,3.399-.762,2.311-.007,5.093,1.767,6.747.883.823,2,1.448,3.201,1.637,1.434.226,2.801.02,4.121-.573,2.362-1.059,3.791-3.744,3.512-6.295-.171-1.568-.796-3.087-1.993-4.159s-2.575-1.595-4.154-1.751c-.576-.057-1.303.309-1.697.703-.416.416-.73,1.099-.703,1.697.028.621.232,1.264.703,1.697.495.454,1.03.637,1.697.703.075.006.15.015.225.025l-.638-.086c.376.057.735.156,1.087.299l-.573-.242c.208.091.409.193.601.314.064.04.127.082.189.126l-.304-.238c.106.044.218.185.299.265.083.081.157.168.236.252.168.177-.373-.532-.093-.115.146.217.265.446.369.686l-.242-.573c.134.337.224.678.278,1.036l-.086-.638c.042.36.044.713.007,1.073l.086-.638c-.055.404-.157.788-.312,1.165l.242-.573c-.103.228-.223.44-.358.65-.21.325.321-.367.127-.166-.079.082-.153.169-.236.248-.067.064-.149.12-.211.188.387-.423.341-.252.121-.111-.191.122-.392.224-.6.315l.573-.242c-.394.161-.798.265-1.219.322l.638-.086c-.351.039-.701.051-1.053.009l.638.086c-.334-.05-.653-.135-.967-.26l.573.242c-.233-.101-.458-.217-.669-.358-.217-.145-.25-.312.141.117-.083-.091-.189-.167-.277-.255-.042-.043-.259-.223-.253-.28-.007.07.392.55.117.138-.142-.212-.26-.437-.365-.669l.242.573c-.159-.379-.267-.766-.327-1.172l.086.638c-.045-.37-.044-.734.002-1.104l-.086.638c.057-.372.156-.726.301-1.073l-.242.573c.085-.188.179-.371.291-.545.033-.052.068-.103.104-.153.108-.149.046-.068-.185.243.079-.05.144-.16.211-.225.051-.05.178-.201.239-.214-.112.023-.462.329-.111.103.2-.129.41-.235.628-.331l-.573.242c.355-.142.717-.236,1.095-.287l-.638.086c.292-.031.579-.035.872-.014,1.255.089,2.455-1.168,2.4-2.4-.062-1.377-1.056-2.305-2.4-2.4Z"/><path class="i" d="M70.337,277.812c-.566-2.965-.606-6.088-.748-9.102-.176-3.72-.32-7.441-.459-11.162-.367-9.827-.68-19.656-.973-29.486-.255-8.546-.502-17.093-.684-25.642-.027-1.265-.052-2.529-.071-3.794-.022-1.452-.147-3.065.356-4.27.35-.839.935-1.397,1.803-1.847,1.007-.522,2.566-.713,3.857-.842,4.105-.409,8.215-.764,12.332-1.031,6.866-.445,13.757-.585,20.636-.657,3.504-.037,7.01-.04,10.512.073,1.225.039,2.491.068,3.492.495.984.419,1.61,1,1.939,1.956.374,1.084.232,2.445.283,3.604.052,1.194.101,2.388.148,3.583.141,3.556.272,7.113.4,10.67.348,9.644.673,19.289.978,28.935.271,8.591.54,17.183.723,25.777.049,2.313.112,4.63.088,6.944-.028,2.682-.178,6.175-1.691,8.226-1.503,2.037-4.53,2.703-7.175,3.205-7.147,1.356-14.474,1.666-21.732,1.772-3.762.055-7.534.035-11.289-.231-2.653-.188-5.543-.36-8.044-1.386-2.772-1.137-4.068-2.957-4.682-5.791-.653-3.018-5.282-1.741-4.629,1.276.741,3.425,2.577,6.15,5.582,7.979,2.801,1.705,6.14,2.162,9.341,2.508,7.903.854,16.035.587,23.95.057,3.663-.245,7.321-.632,10.945-1.23,3.258-.538,6.672-1.094,9.37-3.137,4.542-3.438,4.884-9.311,4.854-14.588-.043-7.375-.309-14.751-.528-22.122-.305-10.283-.644-20.565-1.002-30.846-.253-7.269-.494-14.54-.817-21.806-.076-1.711.02-3.483-.598-5.107-1.163-3.057-3.937-4.873-7.105-5.334-3.547-.516-7.285-.312-10.862-.298-3.648.015-7.295.085-10.942.176-7.775.195-15.52.66-23.263,1.41-3.369.326-6.913.56-9.478,3.06-2.049,1.998-2.599,4.78-2.572,7.535.068,7.043.297,14.086.494,21.127.291,10.456.613,20.911.974,31.365.261,7.569.469,15.15.938,22.71.136,2.188.306,4.388.717,6.542.243,1.274,1.774,2,2.952,1.676,1.334-.367,1.92-1.675,1.676-2.952Z"/><path class="i" d="M77.121,277.791c5.052,1.117,10.391,1.18,15.542,1.182,5.837.002,11.7-.244,17.499-.927,2.456-.289,4.956-.594,7.338-1.283,2.962-.857,1.702-5.49-1.276-4.629-4.43,1.281-8.722,1.464-13.454,1.743-5.761.339-11.559.434-17.322.108-1.363-.077-2.725-.181-4.082-.334-.284-.032-.569-.065-.852-.103.403.054-.368-.058-.501-.079-.541-.087-1.08-.189-1.615-.307-3.01-.665-4.296,3.961-1.276,4.629h0Z"/><path class="i" d="M116.104,206.993c-13.698-.564-27.588-.13-41.191,1.627-1.285.166-2.4.984-2.4,2.4,0,1.168,1.105,2.567,2.4,2.4,13.603-1.757,27.493-2.191,41.191-1.627,3.089.127,3.083-4.673,0-4.8h0Z"/></g><g id="g"><path class="i" d="M101.013,120.339c2.915,1.539,6.053,2.185,9.349,2.163,3.356-.022,6.741-.684,9.428-2.778,1.023-.797.837-2.557,0-3.394-1.01-1.01-2.368-.799-3.394,0,.726-.566.155-.128-.031-.008-.188.12-.382.232-.579.335-.163.086-.874.368-.22.126-.266.099-.528.203-.799.29-.728.234-1.479.399-2.235.51.351-.052-.086.006-.222.02-.219.022-.439.04-.659.054-.529.034-1.059.048-1.589.044-.475-.003-.949-.019-1.423-.051-.217-.015-.435-.032-.652-.054-.018-.002-.799-.11-.323-.035-.705-.111-1.404-.259-2.088-.464-.293-.087-.578-.192-.866-.291-.616-.211.344.179-.212-.083-.358-.169-.711-.345-1.061-.53-1.146-.605-2.61-.291-3.284.861-.634,1.084-.289,2.676.861,3.284h0Z"/><path class="i" d="M109.157,98.296c.408,1.557.8,3.138,1.034,4.732l-.086-.638c.028.218.04.434.018.653l.086-.638c-.015.102-.038.197-.072.294l.242-.573c-.03.069-.062.127-.104.189l.375-.486c-.049.059-.095.104-.155.152l.486-.375c-.12.077-.246.139-.375.198l.573-.242c-.206.086-.411.149-.632.184l.638-.086c-.199.024-.394.022-.593-.001l.638.086c-.224-.031-.443-.086-.667-.116-.319-.1-.638-.114-.957-.043-.319.014-.617.109-.892.285-.498.291-.973.862-1.103,1.434-.14.614-.11,1.304.242,1.849.312.484.835,1.022,1.434,1.103.507.068.998.197,1.513.22.789.035,1.523-.207,2.227-.529.87-.398,1.549-1.179,1.78-2.116.196-.793.112-1.488-.023-2.282-.258-1.525-.61-3.035-1.002-4.531-.318-1.214-1.729-2.072-2.952-1.676-1.25.404-2.018,1.651-1.676,2.952h0Z"/><path class="i" d="M84.11,84.901c-.79,2.568-.275,8.476,4.59,8.978,6.43-.038,6.772-7.181,4.608-10.539-1.772-2.75-6.984-3.893-9.198,1.561Z"/><path class="i" d="M135.604,84.902c.79,2.568.276,8.476-4.59,8.978-6.43-.039-6.773-7.181-4.608-10.539,1.772-2.749,6.983-3.893,9.198,1.561Z"/></g></g></g></svg>