<?xml version="1.0" encoding="UTF-8"?><svg id="b" xmlns="http://www.w3.org/2000/svg" width="136.791" height="418.581" viewBox="0 0 136.791 418.581"><defs><style>.d{fill:none;}.d,.e,.f,.g,.h,.i{stroke-width:0px;}.e{fill:#211715;}.f{fill:#f2635f;}.g{fill:#645d5c;}.h{fill:#fff;}.i{fill:#ffda71;}</style></defs><g id="c"><path class="h" d="M70.641,382.032c7.24,1.73,15.58,1.75,23.05.09v.01c1.24.8,2.11,2.82,3.49,4.49,4.3,4.76,9.05,9.21,13.59,13.73,2.23,2.22,4.13,5.19,3.87,8.32-.19,2.2-1.57,4.19-3.38,5.46-1.81,1.28-4.01,1.9-6.2,2.19-5.02.65-10.21-.48-14.58-3-1.32-.75-3.45-2.47-4.66-3.4-3.12-2.41-4.76-3.72-7.98-5.65-2.06-1.23-5.42-2.51-7.18-4.14-2.44-2.28-1.94-6.35-1.82-9.43.07-1.89.47-6.74,1.28-8.87l.52.2Z"/><path class="h" d="M67.911,390.702c.12,3.08.62,7.15-1.82,9.43-1.76,1.63-5.12,2.91-7.18,4.14-3.23,1.93-4.86,3.24-7.98,5.65-1.21.93-3.35,2.65-4.66,3.4-4.37,2.52-9.57,3.65-14.58,3-2.19-.29-4.39-.91-6.2-2.19-1.81-1.27-3.19-3.26-3.38-5.46-.26-3.13,1.64-6.1,3.87-8.32,4.53-4.52,9.29-8.97,13.58-13.73,1.38-1.66,2.25-3.66,3.47-4.47,7.43,1.63,15.74,1.6,22.93-.12l.65-.25c.83,2.11,1.23,7.01,1.3,8.92Z"/><path class="h" d="M54.308,42.592c9.784-4.44,19.608-10.076,25.339-15.237,1.483,3.439,3.566,7.711,5.226,10.305,3.001,4.69,7.437,8.152,11.513,10.528.864-.722,1.964-.994,2.917-.96,2.251.079,3.209,1.297,3.621,2.012,1.23,2.134,1.178,6.066.352,8.499-.585,1.723-1.543,4.359-3.853,6.248-.952.779-2.353,1.292-3.692,1.066l-.353-.06c-.426,1.404-.95,2.78-1.271,3.448-.939,2.548-6.126,11.483-12.689,14.967.097,1.259.26,2.506.48,3.76.343,1.964.237,3.716,2.97,4.704.07.026,1.331.621,2.843,1.337-1.361,1.197-2.671,2.35-2.671,2.35-3.768,3.088-10.615,4.433-16.774,4.433-5.23,0-11.619-1.178-16.556-4.433,0,0-1.252-.837-2.722-1.819,2.064-.956,3.957-1.837,4.039-1.867,2.734-.988,2.615-2.739,2.97-4.704.196-1.138.35-2.187.443-3.286-3.238-1.412-6.117-3.796-8.851-7.067-3.327-3.983-5.222-8.272-6.268-11.827-1.427.368-2.971-.162-3.995-1-2.31-1.89-3.268-4.526-3.853-6.248-.826-2.433-.878-6.365.352-8.499.412-.715,1.37-1.932,3.621-2.012.92-.032,1.978.22,2.832.883,4.33-1.409,9.174-3.317,14.028-5.52Z"/><path class="h" d="M47.587,76.81c-3.325-3.981-5.219-8.269-6.265-11.822-1.427.368-2.971-.163-3.995-1-1.692-1.384-2.658-3.168-3.283-4.7-3.495,4.226-6.005,7.567-7.79,13.028-.19.57-.09,1.27.31,1.77.37.46,1,.66,1.59.82,1.932.551,3.905,1.011,5.888,1.391-.167,1.427-.228,2.866-.188,4.303.017.606.076,1.269.501,1.7.387.393.977.489,1.525.557,2.003.248,4.019.394,6.037.438h13.317c-2.755-1.442-5.255-3.622-7.646-6.485Z"/><path class="g" d="M58.2,40.763c-6.114,2.974-12.43,5.562-17.92,7.349-.854-.663-1.912-.916-2.832-.883-1.677.059-2.636.75-3.187,1.393-4.472-15.814.518-28.062,7.901-35.131,4.424-4.236,14.394-10.006,25.596-10.006,6.325,0,10.916,1.065,15.227,2.708,7.799,4.087,7.635,4.014,11.205,7.458,5.601,5.403,9.493,15.125,10.113,23.831.177,2.486-.028,8.915-.415,13.431l-.964-1.673c-.412-.715-1.37-1.932-3.621-2.012-.952-.034-2.052.238-2.917.96-4.076-2.376-8.512-5.838-11.513-10.528-1.66-2.594-3.743-6.866-5.226-10.305-4.969,4.475-13.017,9.308-21.447,13.408Z"/><path class="d" d="M84.018,6.6c-4.618-1.872-9.428-3.115-16.26-3.115-11.202,0-21.172,5.771-25.596,10.006-7.34,7.027-12.313,19.171-7.98,34.849"/><path class="d" d="M103.875,51.051c.396-4.523.607-11.057.428-13.569-.62-8.706-4.512-18.428-10.113-23.831-2.23-2.152-3.003-2.931-5.171-4.208"/><path class="e" d="M44.211,98.084c.871-.305,1.717-.743,2.555-1.127,1.285-.589,2.568-1.183,3.851-1.778,1.007-.467,2.014-.936,3.023-1.4.104-.048.21-.093.313-.143.089-.044.268-.117-.163.067-.513.22-.068.035.064-.017.253-.101.506-.203.752-.322.987-.476,1.886-1.258,2.41-2.23.486-.902.661-1.854.815-2.852.226-1.464.478-2.921.611-4.398.094-1.045-.987-2.045-2-2-1.164.052-1.899.881-2,2-.151,1.678-.46,3.49-.891,5.286-.059.246.197-.313.041-.115-.053.067-.089.158-.131.233-.223.395.179-.132-.067.089-.064.057-.154.137-.213.205.216-.252.158-.1.028-.023-.099.059-.192.124-.293.181-.037.021-.454.23-.275.149.176-.08-.145.055-.145.054-.153.062-.333.138-.484.204-.022.009-.043.019-.065.029-.101.044-.2.091-.3.137-2.145.985-4.282,1.988-6.428,2.973-.556.256-1.113.511-1.671.762-.177.08-.355.158-.532.237-.445.198.5-.187.132-.058-.985.345-1.745,1.384-1.397,2.46.315.974,1.403,1.767,2.46,1.397h0Z"/><path class="e" d="M79.442,83.724c.125,1.379.325,2.747.55,4.112.117.707.182,1.431.394,2.119.281.908.758,1.79,1.472,2.432.394.354.834.678,1.308.917.319.16.651.299.983.427.638.244-.464-.225-.22-.1,1.905.975,3.883,1.832,5.818,2.747.925.437,1.844.891,2.788,1.286.968.406,2.241-.436,2.46-1.397.266-1.17-.36-2.026-1.397-2.46.993.416.083.02-.15-.089-.414-.195-.828-.39-1.242-.586-1.121-.53-2.241-1.061-3.362-1.591-.867-.41-1.733-.822-2.602-1.228-.094-.044-.188-.089-.282-.131-.024-.011-.048-.022-.072-.032-.144-.063-.337-.145-.483-.204-.059-.024-.365-.17-.061-.019-.179-.089-.351-.18-.524-.281-.057-.033-.342-.221-.112-.062.204.141.014.012-.023-.026-.062-.062-.13-.132-.196-.191-.291-.26.101.076.063.103-.02.014-.265-.449-.288-.483-.111-.167.088.174.078.196.012-.027-.109-.318-.119-.351-.047-.161-.086-.324-.121-.488-.081-.386-.133-.776-.192-1.166-.085-.564-.187-1.125-.272-1.689-.036-.241-.041-.277-.081-.615-.045-.383-.083-.766-.118-1.15-.094-1.039-.853-2.051-2-2-1.003.045-2.101.884-2,2h0Z"/><path class="e" d="M93.973,62.422c-.3,1.437-.744,2.847-1.266,4.219-.192.506-.324.765-.564,1.363-.202.502.145-.292-.028.067-.061.127-.118.257-.179.384-.863,1.803-1.94,3.514-3.091,5.144-2.681,3.799-6.35,7.949-11.062,9.056-2.505.589-1.444,4.446,1.063,3.857,5.599-1.316,9.907-5.99,13.151-10.472,1.256-1.735,2.425-3.566,3.359-5.498.202-.418.383-.844.562-1.272.214-.513-.165.356.072-.165.153-.337.291-.682.428-1.025.59-1.488,1.085-3.026,1.412-4.594.524-2.512-3.331-3.586-3.857-1.063h0Z"/><path class="e" d="M38.841,63.386c2.402,10.534,10.334,22.02,21.718,23.737,1.067.161,2.15-.268,2.46-1.397.26-.945-.322-2.298-1.397-2.46-10.092-1.522-16.801-11.631-18.924-20.943-.572-2.509-4.43-1.447-3.857,1.063h0Z"/><path class="e" d="M62.921,72.352c1.792.946,3.72,1.355,5.748,1.342,2.136-.014,4.214-.468,5.916-1.794.829-.646.729-2.159,0-2.828-.88-.807-1.944-.689-2.828,0,.692-.539-.015-.018-.234.096-.169.089-.618.229.016.013-.156.053-.308.118-.465.169-.422.136-.888.157-1.302.297.212-.072.331-.04.031-.01-.128.013-.256.023-.384.032-.308.02-.617.028-.925.026-.276-.002-.553-.011-.828-.03-.127-.009-.253-.019-.379-.031-.072-.007-.144-.015-.216-.024-.157-.019-.095-.011.188.025-.015.053-1.105-.237-1.216-.27-.17-.051-.336-.112-.504-.17-.446-.153.425.203.021.012-.209-.098-.414-.201-.618-.308-.925-.488-2.217-.265-2.736.718-.488.924-.27,2.215.718,2.736h0Z"/><path class="e" d="M67.387,59.156c.238.907.466,1.827.602,2.755l-.071-.532c.016.127.023.253.01.38l.071-.532c-.009.059-.022.115-.042.171l.202-.478c-.018.04-.036.074-.06.11l.313-.405c-.028.034-.055.061-.09.089l.405-.313c-.07.045-.143.081-.218.115l.478-.202c-.12.05-.239.087-.368.107l.532-.071c-.116.014-.229.013-.345,0l.532.071c-.13-.018-.258-.05-.388-.067-.266-.083-.532-.095-.798-.036-.266.012-.514.091-.744.237-.415.243-.811.718-.919,1.195-.117.512-.091,1.087.202,1.541l.313.405c.25.248.544.419.883.514.348.047.687.134,1.041.15.572.025,1.093-.155,1.601-.39.639-.297,1.144-.905,1.314-1.592.145-.589.087-1.059-.013-1.649-.15-.888-.355-1.767-.583-2.638-.127-.483-.49-.944-.919-1.195s-1.061-.357-1.541-.202c-.484.157-.951.457-1.195.919-.253.48-.342,1.007-.202,1.541h0Z"/><path class="e" d="M42.002,46.964c-2.024-1.806-4.871-2.227-7.344-1.094-1.766.809-2.851,2.48-3.349,4.308-1.137,4.179-.075,9.066,2.321,12.631,1.644,2.446,4.242,4.652,7.389,4.244,1.071-.139,2-.82,2-2,0-.973-.921-2.14-2-2-2.177.282-3.594-1.52-4.538-3.262-.759-1.399-1.408-3.153-1.551-4.819-.155-1.803-.042-3.645.825-5.039-.326.524.512-.436.202-.21.399-.292.498-.326.918-.42.818-.182,1.647-.092,2.299.489,1.915,1.709,4.754-1.11,2.828-2.828h0Z"/><path class="e" d="M97.577,49.793c.616-.549,1.403-.659,2.172-.516.498.093.62.137,1.045.447-.303-.221.52.72.202.21.87,1.396.98,3.231.825,5.039-.143,1.662-.796,3.426-1.551,4.819-.944,1.741-2.36,3.544-4.538,3.262-1.073-.139-2,1.019-2,2,0,1.196.924,1.86,2,2,5.117.664,8.263-4.857,9.542-8.994,1.149-3.716,1.09-9.467-2.542-11.843-2.475-1.619-5.836-1.168-7.983.749-1.925,1.717.912,4.538,2.828,2.828h0Z"/><path class="e" d="M53.384,51.197c-.46,1.495-.16,4.935,2.673,5.228,3.744-.022,3.943-4.181,2.683-6.137-1.032-1.601-4.066-2.267-5.356.909Z"/><path class="e" d="M83.367,51.197c.46,1.495.16,4.935-2.672,5.228-3.744-.023-3.944-4.181-2.683-6.137,1.032-1.601,4.066-2.267,5.356.909Z"/><path class="e" d="M78.076,28.727c1.803,4.114,3.724,8.343,6.474,11.923,2.811,3.66,6.417,6.606,10.353,8.986,2.209,1.335,4.221-2.122,2.019-3.454-3.526-2.132-6.863-4.773-9.336-8.101-2.548-3.428-4.35-7.48-6.056-11.373-.434-.989-1.881-1.218-2.736-.718-1.021.597-1.153,1.743-.718,2.736h0Z"/><path class="e" d="M78.389,25.8c-5.094,4.603-11.223,8.101-17.281,11.263-6.671,3.482-13.594,6.526-20.732,8.917-2.429.813-1.387,4.678,1.063,3.857,7.459-2.498,14.717-5.682,21.687-9.32,6.368-3.324,12.738-7.052,18.09-11.888,1.914-1.73-.922-4.551-2.828-2.828h0Z"/><path class="e" d="M34.566,74.367c-2.137-.415-4.222-.969-6.325-1.521-.469-.123-.03.074-.072.078-.042.005.019-.165.006-.12-.027.09.162-.417.192-.504.283-.82.592-1.63.954-2.419,1.428-3.118,3.43-5.871,5.588-8.512.683-.836.818-2.011,0-2.828-.705-.705-2.141-.841-2.828,0-2.79,3.413-5.27,6.908-6.939,11.011-.439,1.079-.986,2.257-.978,3.442.01,1.323.764,2.579,1.902,3.238,1.014.586,2.276.813,3.397,1.097,1.338.339,2.686.633,4.041.896,1.059.206,2.159-.299,2.46-1.397.269-.98-.331-2.253-1.397-2.46h0Z"/><path class="e" d="M35.563,64.523c-2.196,4.31-3.471,9.01-3.69,13.846-.109,2.412-.177,5.424,2.653,6.26,1.113.329,2.376.357,3.529.457,1.285.111,2.573.178,3.863.209,2.575.063,2.574-3.937,0-4-1.917-.047-3.885-.107-5.782-.404-.053-.008-.532-.137-.546-.119.137-.166.168.604.294.21.076-.236-.039-.734-.04-1.02-.006-.956.031-1.913.114-2.865.317-3.664,1.393-7.283,3.061-10.555,1.166-2.289-2.284-4.316-3.454-2.019h0Z"/><path class="g" d="M100.523,97.902c-4.272-1.905-9.022-3.68-13.224-5.135-2.394,5.083-11.262,7.224-19.033,7.224-6.401,0-14.537-1.764-19.616-6.945-8.668,3.036-19.323,7.342-23.381,11.325-5.444,5.361-7.302,10.594-8.68,16.153-4.554,16.556-6.632,24.733-8.201,38.805-.219,2.007-.078,5.868.772,8.458,1.097,3.34,2.215,4.882,4.633,7.14,2.008,1.876,6.435,3.803,10.577,3.803,3.065-.114,5.661-.945,7.793-2.101-.004.172-.004.277-.004.277-.925.871-.781,2.421-.169,3.534.382.695.943,1.327,1.683,1.612.648.249,1.444.173,1.969-.26,5.615,0,66.462,0,66.462,0h.454c1.531-.715,2.877-2.01,4.086-3.246,0,0,.231-.308.573-.763,1.542.53,3.264.877,5.166.947,4.142,0,8.569-1.926,10.577-3.803,2.418-2.258,3.536-3.8,4.633-7.14.851-2.59.991-6.452.772-8.458-1.57-14.072-3.648-22.249-8.201-38.805-1.379-5.559-3.236-10.792-8.68-16.153-2.186-2.145-6.287-4.385-10.959-6.469Z"/><path class="e" d="M50.701,97.285c5.324,3.437,11.892,4.79,18.17,4.701,6.046-.086,12.73-1.153,17.583-5.014.846-.673.703-2.126,0-2.828-.836-.836-1.98-.675-2.828,0-1.881,1.496-4.306,2.298-6.608,2.86-2.798.684-5.673.973-8.55.986-5.483.024-11.099-1.158-15.747-4.159-2.169-1.4-4.177,2.061-2.019,3.454h0Z"/><path class="e" d="M50.17,90.409c-4.667,1.592-9.292,3.309-13.818,5.268-3.952,1.71-7.968,3.579-11.354,6.28-8.107,6.468-10.085,16.902-12.598,26.356-2.312,8.696-4.263,17.431-5.446,26.357-.602,4.545-1.142,9.179.277,13.648,1.333,4.199,4.096,7.95,8.039,10.038,5.308,2.81,11.329,3.044,16.794.549,4.682-2.137,8.725-6.41,9.575-11.591.175-1.065-.278-2.153-1.397-2.46-.956-.263-2.284.325-2.46,1.397-.66,4.02-3.513,7.085-7.078,8.885-4.147,2.095-8.932,2.008-13.073-.058-3.369-1.681-5.686-4.728-6.693-8.324-1.121-4.002-.514-8.15.03-12.187,1.077-7.98,2.828-15.82,4.87-23.603,1.203-4.586,2.295-9.257,3.766-13.765,1.414-4.335,3.79-8.242,7.08-11.415,2.863-2.762,6.834-4.49,10.416-6.094,4.606-2.063,9.36-3.796,14.134-5.425,2.423-.826,1.383-4.691-1.063-3.857h0Z"/><path class="e" d="M85.517,94.266c4.211,1.436,8.404,2.955,12.495,4.706,3.661,1.567,7.426,3.256,10.651,5.623,7.356,5.397,9.119,14.696,11.336,22.934,2.137,7.941,4.106,15.921,5.353,24.057,1.168,7.62,2.688,16.546-4.024,22.121-7.281,6.047-20.757,2.305-22.359-7.456-.175-1.067-1.498-1.661-2.46-1.397-1.133.311-1.572,1.39-1.397,2.46.757,4.612,4.009,8.445,7.978,10.765,4.517,2.641,9.927,3.335,14.92,1.729,4.273-1.375,8.143-4.206,10.207-8.276,2.101-4.145,2.541-8.844,2.01-13.408-1.036-8.896-2.728-17.633-4.957-26.305-1.286-5.001-2.525-10.055-4.044-14.989-1.48-4.809-3.884-9.164-7.329-12.85-3.203-3.427-7.469-5.584-11.688-7.502-5.089-2.314-10.338-4.267-15.627-6.07-2.442-.833-3.49,3.03-1.063,3.857h0Z"/><path class="e" d="M30.743,175.491c-1.71,1.671-1.515,4.502-.231,6.365.705,1.023,1.713,1.974,2.976,2.223,1.331.263,2.85-.007,3.775-1.083.351-.408.586-.861.586-1.414,0-.491-.218-1.076-.586-1.414-.381-.35-.882-.61-1.414-.586-.507.023-1.071.187-1.414.586-.078.091-.162.171-.256.246l.405-.313c-.116.084-.236.153-.367.211l.478-.202c-.158.063-.315.105-.483.132l.532-.071c-.194.024-.385.025-.58.003l.532.071c-.196-.029-.381-.079-.565-.153l.478.202c-.218-.096-.418-.216-.607-.36l.405.313c-.229-.183-.429-.391-.611-.621l.313.405c-.234-.308-.429-.639-.581-.994l.202.478c-.13-.321-.222-.651-.271-.994l.071.532c-.036-.288-.04-.573-.004-.861l-.071.532c.032-.208.084-.407.163-.603l-.202.478c.075-.171.166-.327.279-.475l-.313.405c.06-.073.123-.142.191-.208.75-.732.79-2.104,0-2.828-.806-.74-2.029-.781-2.828,0h0Z"/><path class="e" d="M105.228,177.131c-.634.647-1.279,1.286-1.977,1.864-.081.067-.162.132-.244.198-.297.238.362-.265.074-.059-.196.14-.391.28-.594.41-.369.236-.754.443-1.156.618l.478-.202c-.492.205-.997.351-1.526.422l.532-.071c-.235.027-.468.04-.705.039-1.046-.005-2.048.924-2,2,.049,1.088.879,1.994,2,2,3.254.017,5.799-2.197,7.947-4.39.733-.748.802-2.093,0-2.828-.792-.727-2.046-.798-2.828,0h0Z"/><path class="e" d="M64.632,382.173c.91,2.282,1.055,4.938,1.216,7.365.164,2.472.642,5.457-.269,7.823-.474,1.232-1.533,1.905-2.631,2.539-1.361.786-2.797,1.426-4.183,2.165-2.775,1.479-5.299,3.39-7.781,5.307-2.446,1.889-4.811,3.922-7.642,5.219-3.289,1.507-6.976,2.125-10.576,1.838-3.047-.243-6.592-1.263-8.125-4.161-1.507-2.849.37-5.992,2.337-8.076,2.99-3.169,6.239-6.104,9.302-9.203,1.541-1.559,3.101-3.122,4.542-4.777.676-.777,1.262-1.622,1.828-2.481.402-.61.809-1.436,1.417-1.877.873-.633,1.301-1.739.718-2.736-.504-.862-1.857-1.355-2.736-.718-1.52,1.101-2.375,2.673-3.434,4.182-1.257,1.792-2.972,3.345-4.5,4.905-3.135,3.2-6.405,6.263-9.551,9.451-2.622,2.656-4.856,6.214-4.41,10.099.461,4.008,3.569,6.885,7.178,8.275,7.395,2.849,16.333.632,22.468-4.01,2.818-2.132,5.534-4.404,8.515-6.311,2.952-1.888,6.627-3.01,9.187-5.449,2.938-2.799,2.576-7.15,2.408-10.844-.142-3.118-.254-6.661-1.422-9.589-.4-1.003-1.336-1.706-2.46-1.397-.953.262-1.799,1.451-1.397,2.46h0Z"/><path class="e" d="M68.262,381.11c-1.078,2.703-1.215,5.94-1.383,8.817-.186,3.174-.538,6.638.889,9.592,1.537,3.183,5.284,4.447,8.199,6,3.149,1.678,5.975,3.902,8.783,6.083,3,2.33,5.883,4.382,9.531,5.602,3.895,1.303,8.089,1.615,12.133.918,3.751-.646,7.591-2.598,9.315-6.162,1.773-3.663.71-7.688-1.648-10.822-1.432-1.903-3.211-3.508-4.907-5.169-1.799-1.762-3.602-3.52-5.377-5.305-1.711-1.72-3.455-3.441-5.04-5.28-1.425-1.653-2.242-3.671-4.054-4.983-.875-.634-2.229-.15-2.736.718-.591,1.01-.16,2.101.718,2.736,1.136.823,1.814,2.547,2.661,3.643,1.188,1.538,2.616,2.92,3.969,4.312,2.741,2.82,5.574,5.549,8.377,8.306,2.216,2.18,5.102,4.751,4.971,8.165-.124,3.212-3.315,5.051-6.087,5.731-3.406.836-7.06.583-10.404-.405-3.176-.938-5.762-2.631-8.346-4.642-2.512-1.955-5.008-3.943-7.705-5.64-2.516-1.583-5.685-2.538-7.923-4.505-2.198-1.932-1.468-5.848-1.342-8.428.131-2.692.256-5.689,1.266-8.22.4-1.004-.437-2.197-1.397-2.46-1.139-.313-2.058.39-2.46,1.397h0Z"/><path class="h" d="M102.029,196.436c4.808,13.808,4.079,28.846,3.247,43.443-2.474,43.409-4.367,97.064-7.646,140.527-.031.415-.311.768-.71.887-9.004,2.692-19.872,2.744-28.621.106-8.748,2.638-19.608,2.585-28.608-.105-.401-.12-.681-.478-.71-.895-3.088-45.44-6.087-95.184-7.651-140.52-.504-14.612-1.56-29.635,3.247-43.443l6.137-7.978h57.803l3.511,7.978Z"/><path class="e" d="M32.649,195.904c-4.65,13.541-3.902,28.045-3.385,42.127.517,14.066,1.075,28.13,1.756,42.189,1.388,28.67,3.116,57.323,5.008,85.964.263,3.98.529,7.96.799,11.939.123,1.823-.051,3.95,1.855,4.898,1.506.749,3.417,1.001,5.055,1.315,7.501,1.437,15.314,1.359,22.758-.38,2.506-.585,1.445-4.443-1.063-3.857-6.15,1.436-12.671,1.652-18.913.678-1.568-.245-3.125-.561-4.661-.957-.082-.021-1.232-.329-1.23-.336.038-.13.146,1.236.292.005.109-.926-.138-2.03-.2-2.963-.227-3.37-.453-6.741-.675-10.111-.916-13.856-1.792-27.716-2.611-41.578-1.628-27.547-3.046-55.109-4.023-82.688-.533-15.051-1.884-30.679,3.096-45.182.838-2.44-3.025-3.488-3.857-1.063h0Z"/><path class="e" d="M65.988,233.064c0,8.238.016,16.476.032,24.714.022,11.56.048,23.119.076,34.679.029,12.404.061,24.809.092,37.213.027,10.595.054,21.189.079,31.784.015,6.3.033,12.601.039,18.901,0,.35,0,.701,0,1.051,0,2.574,4,2.578,4,0,0-5.585-.019-11.171-.032-16.756-.024-10.199-.05-20.398-.076-30.597-.031-12.325-.062-24.649-.092-36.974-.028-11.797-.056-23.593-.079-35.39-.017-8.794-.035-17.588-.039-26.381,0-.748,0-1.495,0-2.243,0-2.574-4-2.578-4,0h0Z"/><path class="e" d="M100.1,196.967c4.692,13.654,4.007,28.254,3.202,42.45-.748,13.188-1.406,26.381-2.044,39.575-1.327,27.433-2.561,54.872-4.306,82.282-.232,3.649-.474,7.297-.729,10.944-.124,1.782-.252,3.564-.382,5.346-.015.211-.141,2.434-.181,2.436l.323-.518c-.272.078-.544.154-.818.227-.551.148-1.105.285-1.662.412-7.284,1.663-15.052,1.676-22.329-.023-2.504-.585-3.573,3.271-1.063,3.857,6.895,1.61,14.057,1.768,21.043.678,1.708-.267,3.404-.619,5.074-1.066,1.805-.484,3.18-1.122,3.401-3.162.354-3.265.484-6.572.709-9.849.956-13.913,1.745-27.838,2.473-41.765,1.464-28.008,2.647-56.03,4.191-84.034.897-16.276,2.353-33.147-3.045-48.854-.832-2.42-4.697-1.38-3.857,1.063h0Z"/><path class="f" d="M35.226,181.791c0,2.801-.683,6.86-1.351,10.278-.538,2.749-1.607,8.679-1.954,11.221-4.229,30.99-3.543,73.954-4.361,115.215,14.622.819,26.374,1.074,41.105.761,14.73.312,26.482.058,41.105-.761-.818-41.262-.132-84.226-4.361-115.215-.347-2.542-1.417-8.472-1.954-11.221-.669-3.419-1.351-7.477-1.351-10.278H35.226Z"/><path class="e" d="M33.226,181.791c-.037,3.968-.939,7.873-1.662,11.757-.625,3.355-1.239,6.717-1.692,10.101-1.08,8.063-1.766,16.174-2.264,24.291-1.158,18.861-1.366,37.771-1.584,56.661-.131,11.302-.242,22.604-.464,33.905-.022,1.125.936,1.941,2,2,10.588.59,21.185.935,31.79.885,5.516-.026,11.021-.062,16.537-.014,5.274.046,10.549.01,15.821-.12,6.024-.147,12.045-.416,18.061-.752,1.063-.059,2.022-.868,2-2-.39-19.799-.426-39.604-.855-59.402-.38-17.532-.95-35.133-3.084-52.553-.482-3.931-1.118-7.829-1.83-11.725-.786-4.306-1.856-8.638-1.898-13.035-.01-1.081-.908-2-2-2H35.226c-2.574,0-2.578,4,0,4h66.876l-2-2c.039,4.116.935,8.198,1.694,12.226.613,3.256,1.229,6.522,1.683,9.805,1.105,7.996,1.747,16.063,2.241,24.118,1.158,18.861,1.366,37.771,1.584,56.661.131,11.302.242,22.604.464,33.905l2-2c-10.588.59-21.185.935-31.79.885-5.516-.026-11.021-.062-16.537-.014-5.274.046-10.549.01-15.821-.12-6.024-.147-12.045-.416-18.061-.752l2,2c.39-19.799.426-39.604.855-59.402.38-17.532.95-35.133,3.084-52.553.465-3.794,1.113-7.555,1.806-11.314.818-4.436,1.878-8.916,1.921-13.446.024-2.575-3.976-2.577-4,0Z"/><path class="e" d="M28.975,196.617c21.342,1.171,42.811,1.122,64.171.562,5.146-.135,10.294-.309,15.433-.621,2.558-.155,2.575-4.156,0-4-21.256,1.289-42.664,1.164-63.943.641-5.222-.128-10.445-.296-15.661-.582-2.572-.141-2.564,3.859,0,4h0Z"/><path class="e" d="M68.43,197.277c.867,1.17,1.606,2.446,2.37,3.684.722,1.169,1.416,2.358,2.172,3.505.575.872,1.795,1.325,2.736.718.87-.561,1.333-1.802.718-2.736-.756-1.147-1.45-2.336-2.172-3.505-.764-1.238-1.503-2.514-2.37-3.684-.321-.433-.656-.771-1.195-.919-.479-.132-1.116-.072-1.541.202-.829.535-1.384,1.838-.718,2.736h0Z"/><path class="e" d="M66.932,195.258c-.867,1.17-1.606,2.446-2.37,3.684-.722,1.169-1.416,2.358-2.172,3.505-.577.875-.202,2.25.718,2.736,1.002.529,2.121.217,2.736-.718.756-1.147,1.45-2.336,2.172-3.505.764-1.238,1.503-2.514,2.37-3.684.29-.391.325-1.094.202-1.541-.128-.464-.486-.967-.919-1.195-.464-.245-1.026-.368-1.541-.202-.525.17-.868.478-1.195.919h0Z"/><path class="h" d="M107.08,123.51c-.003-4.918-.019-8.749-.046-9.971-.005-2.155-1.206-3.193-3.354-3.353-3.813-.283-6.548-.425-10.301-.425-3.64,0-6.488.141-10.301.425-2.148.16-3.349,1.197-3.354,3.353-.027,1.222-.042,5.053-.046,9.972,4.896-.173,8.822-.26,13.701-.26,5.03,0,8.832.087,13.701.26Z"/><path class="i" d="M93.379,123.25c-4.88,0-8.805.087-13.701.26-.008,12.146.059,30.956.209,33.721.041.761.078,1.428.184,2.042.089.515.228.993.46,1.456.356.712,1.314,1.746,2.92,2.208,2.127.612,5.729.824,9.929.824,4.438,0,7.801-.212,9.929-.824,1.606-.462,2.564-1.496,2.92-2.208.232-.464.37-.941.46-1.456.106-.614.143-1.281.184-2.042.15-2.765.217-21.575.209-33.721-4.869-.172-8.671-.26-13.701-.26Z"/><path class="e" d="M93.379,107.761c-2.275.004-4.547.065-6.818.193-2.034.115-4.375-.021-6.236.926-2.284,1.162-2.595,3.527-2.617,5.819-.04,4.042-.032,8.086-.03,12.128.004,9.692-.06,19.394.166,29.084.055,2.358.06,4.92,1.654,6.812,2.455,2.914,7.16,2.869,10.637,2.988,4.177.142,8.559.229,12.679-.599,1.677-.337,3.325-1.053,4.448-2.388,1.314-1.561,1.518-3.553,1.612-5.521.418-8.722.191-17.513.204-26.242.007-4.71.011-9.419-.012-14.129-.006-1.301.061-2.64-.071-3.937-.179-1.754-1.068-3.284-2.685-4.069-1.882-.913-4.261-.771-6.304-.884-2.207-.123-4.415-.177-6.626-.181-2.574-.004-2.578,3.996,0,4,2.138.004,4.275.054,6.41.169.974.053,1.947.116,2.919.185.556.039,1.462-.014,1.942.336.664.484.402,2.38.407,3.181.027,3.992.024,7.985.022,11.977-.006,9.138.017,18.281-.148,27.418-.025,1.407.123,3.147-.35,4.461-.429,1.191-1.697,1.537-2.833,1.766-1.615.325-3.283.396-4.926.453-3.851.134-7.956.295-11.758-.445-1.165-.226-2.438-.565-2.89-1.774-.332-.889-.283-1.926-.314-2.867-.277-8.407-.167-16.841-.18-25.251-.007-4.504-.01-9.009.007-13.513.005-1.282.006-2.565.027-3.847.009-.551-.064-1.227.392-1.559.43-.313,1.195-.282,1.704-.319,1.134-.081,2.27-.155,3.405-.214,2.053-.106,4.107-.154,6.163-.157,2.574-.004,2.578-4.004,0-4Z"/><path class="e" d="M105.797,121.535c-8.283-.305-16.552-.305-24.835,0-2.566.094-2.579,4.095,0,4,8.283-.305,16.552-.305,24.835,0,2.574.095,2.57-3.905,0-4h0Z"/><path class="h" d="M107.342,123.51c.003-4.918.019-8.749.046-9.971.005-2.155,1.206-3.193,3.354-3.353,3.813-.283,6.548-.425,10.301-.425,3.64,0,6.488.141,10.301.425,2.148.16,3.349,1.197,3.354,3.353.027,1.222.042,5.053.046,9.972-4.896-.173-8.822-.26-13.701-.26-5.03,0-8.832.087-13.701.26Z"/><path class="i" d="M121.043,123.25c4.88,0,8.805.087,13.701.26.008,12.146-.059,30.956-.209,33.721-.041.761-.078,1.428-.184,2.042-.089.515-.228.993-.46,1.456-.356.712-1.314,1.746-2.92,2.208-2.127.612-5.729.824-9.929.824-4.438,0-7.801-.212-9.929-.824-1.606-.462-2.564-1.496-2.92-2.208-.232-.464-.37-.941-.46-1.456-.106-.614-.143-1.281-.184-2.042-.15-2.765-.217-21.575-.209-33.721,4.869-.172,8.671-.26,13.701-.26Z"/><path class="e" d="M121.043,111.761c2.128.004,4.255.055,6.381.169.983.052,1.965.116,2.947.185.556.039,1.464-.014,1.945.336.664.484.402,2.38.407,3.181.027,3.992.025,7.985.022,11.977-.006,9.138.017,18.281-.148,27.418-.025,1.407.123,3.147-.35,4.461-.436,1.211-1.737,1.55-2.89,1.774-1.735.337-3.529.401-5.291.455-3.731.115-7.713.277-11.393-.463-1.148-.231-2.388-.576-2.833-1.766-.332-.889-.283-1.926-.314-2.867-.277-8.407-.167-16.841-.18-25.251-.007-4.504-.01-9.009.007-13.513.005-1.282.006-2.565.027-3.847.009-.551-.064-1.227.392-1.559.429-.313,1.194-.282,1.702-.319,1.124-.081,2.249-.155,3.375-.214,2.064-.108,4.128-.154,6.195-.157,2.574-.004,2.578-4.004,0-4-2.283.004-4.564.063-6.843.193-2.026.116-4.357-.018-6.212.926-2.284,1.162-2.595,3.527-2.617,5.819-.04,4.042-.032,8.086-.03,12.128.004,9.692-.06,19.394.166,29.084.055,2.358.06,4.92,1.654,6.812,2.376,2.821,6.846,2.848,10.225,2.977,4.295.163,8.795.244,13.034-.58,1.699-.33,3.368-1.046,4.505-2.397,1.314-1.561,1.518-3.553,1.612-5.521.418-8.722.191-17.513.204-26.242.007-4.71.011-9.419-.012-14.129-.006-1.301.061-2.64-.071-3.937-.179-1.754-1.068-3.284-2.685-4.069-1.89-.917-4.281-.772-6.332-.884-2.198-.121-4.397-.177-6.598-.181-2.574-.004-2.578,3.996,0,4Z"/><path class="e" d="M108.626,125.535c8.283-.305,16.552-.305,24.835,0,2.574.095,2.57-3.905,0-4-8.283-.305-16.552-.305-24.835,0-2.566.095-2.579,4.095,0,4h0Z"/><path class="h" d="M133.537,105.867c-.477-.935-1.347-1.829-2.797-2.534-1.658-.806-3.585-.68-5.278.051-1.012.437-2.707.873-4.325,1.204-2.652.543-5.268.179-8.007.025-1.49-.084-3.2.05-4.167,1.163-.955,1.1-1.208,3.312.092,4.412l.028.024c.662.56,1.495.867,2.362.867,5.253,0,14.271,0,18.77,0,2.65,0,4.519-2.77,3.352-5.15-.01-.021-.021-.041-.031-.062Z"/><path class="e" d="M135.264,104.857c-1.22-2.214-3.623-3.728-6.116-4.013-2.678-.306-5.103,1.048-7.657,1.625-2.798.632-5.531.272-8.361.143-2.358-.107-4.939.413-6.217,2.614-1.115,1.919-1.032,4.669.615,6.266,1.754,1.701,3.994,1.586,6.256,1.586,4.526,0,9.053,0,13.579,0,2.334,0,4.664.219,6.573-1.392,2.007-1.694,2.484-4.517,1.327-6.829s-4.604-.279-3.454,2.019c.381.761-.152,1.722-.876,2.058-.534.247-1.197.145-1.768.145-.763,0-1.526,0-2.29,0-3.487,0-6.974,0-10.46,0-1.557,0-3.124.051-4.68,0-1.016-.034-2.122-.525-1.415-1.772.645-1.137,2.909-.692,3.944-.62,2.093.146,4.167.296,6.256.015,2.272-.306,4.293-1.138,6.473-1.738,1.846-.508,3.873.202,4.816,1.913,1.243,2.255,4.699.239,3.454-2.019Z"/><path class="h" d="M105.924,105.867c-.477-.935-1.347-1.829-2.797-2.534-1.658-.806-3.585-.68-5.278.051-1.012.437-2.707.873-4.325,1.204-2.652.543-5.268.179-8.007.025-1.49-.084-3.2.05-4.167,1.163-.955,1.1-1.208,3.312.092,4.412l.028.024c.662.56,1.495.867,2.362.867,5.253,0,14.271,0,18.77,0,2.65,0,4.519-2.77,3.352-5.15-.01-.021-.021-.041-.031-.062Z"/><path class="e" d="M107.651,104.857c-1.22-2.214-3.623-3.728-6.116-4.013-2.678-.306-5.103,1.048-7.657,1.625-2.798.632-5.531.272-8.361.143-2.358-.107-4.939.413-6.217,2.614-1.115,1.919-1.032,4.669.615,6.266,1.754,1.701,3.994,1.586,6.256,1.586,4.526,0,9.053,0,13.579,0,2.334,0,4.664.219,6.573-1.392,2.007-1.694,2.484-4.517,1.327-6.829s-4.604-.279-3.454,2.019c.381.761-.152,1.722-.876,2.058-.534.247-1.197.145-1.768.145-.763,0-1.526,0-2.29,0-3.487,0-6.974,0-10.46,0-1.557,0-3.124.051-4.68,0-1.016-.034-2.122-.525-1.415-1.772.645-1.137,2.909-.692,3.944-.62,2.093.146,4.167.296,6.256.015,2.272-.306,4.293-1.138,6.473-1.738,1.846-.508,3.873.202,4.816,1.913,1.243,2.255,4.699.239,3.454-2.019Z"/><path class="h" d="M29.67,123.51c.003-4.918.019-8.749.046-9.971.005-2.155,1.206-3.193,3.354-3.353,3.813-.283,6.548-.425,10.301-.425,3.64,0,6.488.141,10.301.425,2.148.16,3.349,1.197,3.354,3.353.027,1.222.042,5.053.046,9.972-4.896-.173-8.822-.26-13.701-.26-5.03,0-8.832.087-13.701.26Z"/><path class="i" d="M43.371,123.25c4.88,0,8.805.087,13.701.26.008,12.146-.059,30.956-.209,33.721-.041.761-.078,1.428-.184,2.042-.089.515-.228.993-.46,1.456-.356.712-1.314,1.746-2.92,2.208-2.127.612-5.729.824-9.929.824-4.438,0-7.801-.212-9.929-.824-1.606-.462-2.564-1.496-2.92-2.208-.232-.464-.37-.941-.46-1.456-.106-.614-.143-1.281-.184-2.042-.15-2.765-.217-21.575-.209-33.721,4.869-.172,8.671-.26,13.701-.26Z"/><path class="e" d="M43.371,111.761c2.128.004,4.255.055,6.381.169.983.052,1.965.116,2.947.185.556.039,1.464-.014,1.945.336.664.484.402,2.38.407,3.181.027,3.992.025,7.985.022,11.977-.006,9.138.017,18.281-.148,27.418-.025,1.407.123,3.147-.35,4.461-.436,1.211-1.737,1.55-2.89,1.774-1.735.337-3.529.401-5.291.455-3.731.115-7.713.277-11.393-.463-1.148-.231-2.388-.576-2.833-1.766-.332-.889-.283-1.926-.314-2.867-.277-8.407-.167-16.841-.18-25.251-.007-4.504-.01-9.009.007-13.513.005-1.282.006-2.565.027-3.847.009-.551-.064-1.227.392-1.559.429-.313,1.194-.282,1.702-.319,1.124-.081,2.249-.155,3.375-.214,2.064-.108,4.128-.154,6.195-.157,2.574-.004,2.578-4.004,0-4-2.283.004-4.564.063-6.843.193-2.026.116-4.357-.018-6.212.926-2.284,1.162-2.595,3.527-2.617,5.819-.04,4.042-.032,8.086-.03,12.128.004,9.692-.06,19.394.166,29.084.055,2.358.06,4.92,1.654,6.812,2.376,2.821,6.846,2.848,10.225,2.977,4.295.163,8.795.244,13.034-.58,1.699-.33,3.368-1.046,4.505-2.397,1.314-1.561,1.518-3.553,1.612-5.521.418-8.722.191-17.513.204-26.242.007-4.71.011-9.419-.012-14.129-.006-1.301.061-2.64-.071-3.937-.179-1.754-1.068-3.284-2.685-4.069-1.89-.917-4.281-.772-6.332-.884-2.198-.121-4.397-.177-6.598-.181-2.574-.004-2.578,3.996,0,4Z"/><path class="e" d="M30.954,125.535c8.283-.305,16.552-.305,24.835,0,2.574.095,2.57-3.905,0-4-8.283-.305-16.552-.305-24.835,0-2.566.095-2.579,4.095,0,4h0Z"/><path class="h" d="M29.409,123.51c-.003-4.918-.019-8.749-.046-9.971-.005-2.155-1.206-3.193-3.354-3.353-3.813-.283-6.548-.425-10.301-.425-3.64,0-6.488.141-10.301.425-2.148.16-3.349,1.197-3.354,3.353-.027,1.222-.042,5.053-.046,9.972,4.896-.173,8.822-.26,13.701-.26,5.03,0,8.832.087,13.701.26Z"/><path class="i" d="M15.707,123.25c-4.88,0-8.805.087-13.701.26-.008,12.146.059,30.956.209,33.721.041.761.078,1.428.184,2.042.089.515.228.993.46,1.456.356.712,1.314,1.746,2.92,2.208,2.127.612,5.729.824,9.929.824,4.438,0,7.801-.212,9.929-.824,1.606-.462,2.564-1.496,2.92-2.208.232-.464.37-.941.46-1.456.106-.614.143-1.281.184-2.042.15-2.765.217-21.575.209-33.721-4.869-.172-8.671-.26-13.701-.26Z"/><path class="e" d="M15.707,107.761c-2.275.004-4.547.065-6.818.193-2.034.115-4.375-.021-6.236.926-2.284,1.162-2.595,3.527-2.617,5.819-.04,4.042-.032,8.086-.03,12.128.004,9.692-.06,19.394.166,29.084.055,2.358.06,4.92,1.654,6.812,2.455,2.914,7.16,2.869,10.637,2.988,4.177.142,8.559.229,12.679-.599,1.677-.337,3.325-1.053,4.448-2.388,1.314-1.561,1.518-3.553,1.612-5.521.418-8.722.191-17.513.204-26.242.007-4.71.011-9.419-.012-14.129-.006-1.301.061-2.64-.071-3.937-.179-1.754-1.068-3.284-2.685-4.069-1.882-.913-4.261-.771-6.304-.884-2.207-.123-4.415-.177-6.626-.181-2.574-.004-2.578,3.996,0,4,2.138.004,4.275.054,6.41.169.974.053,1.947.116,2.919.185.556.039,1.462-.014,1.942.336.664.484.402,2.38.407,3.181.027,3.992.024,7.985.022,11.977-.006,9.138.017,18.281-.148,27.418-.025,1.407.123,3.147-.35,4.461-.429,1.191-1.697,1.537-2.833,1.766-1.615.325-3.283.396-4.926.453-3.851.134-7.956.295-11.758-.445-1.165-.226-2.438-.565-2.89-1.774-.332-.889-.283-1.926-.314-2.867-.277-8.407-.167-16.841-.18-25.251-.007-4.504-.01-9.009.007-13.513.005-1.282.006-2.565.027-3.847.009-.551-.064-1.227.392-1.559.43-.313,1.195-.282,1.704-.319,1.134-.081,2.27-.155,3.405-.214,2.053-.106,4.107-.154,6.163-.157,2.574-.004,2.578-4.004,0-4Z"/><path class="e" d="M28.125,121.535c-8.283-.305-16.552-.305-24.835,0-2.566.094-2.579,4.095,0,4,8.283-.305,16.552-.305,24.835,0,2.574.095,2.57-3.905,0-4h0Z"/><path class="h" d="M3.213,105.867c.477-.935,1.347-1.829,2.797-2.534,1.658-.806,3.585-.68,5.278.051,1.012.437,2.707.873,4.325,1.204,2.652.543,5.268.179,8.007.025,1.49-.084,3.2.05,4.167,1.163.955,1.1,1.208,3.312-.092,4.412l-.028.024c-.662.56-1.495.867-2.362.867-5.253,0-14.271,0-18.77,0-2.65,0-4.519-2.77-3.352-5.15.01-.021.021-.041.031-.062Z"/><path class="e" d="M4.94,106.876c.757-1.373,2.338-2.21,3.904-2.085.896.071,1.693.463,2.527.76.989.353,2.022.599,3.046.824,2.084.459,4.151.559,6.276.434,1.033-.061,2.065-.164,3.1-.204.678-.026,1.592-.093,2.208.274.387.231.556.608.588,1.06.042.586-.18.798-.538.962-1.158.53-3.028.177-4.284.177-3.512,0-7.025,0-10.537,0-1.579,0-3.291.189-4.859-.007-.97-.121-1.933-1.191-1.43-2.195,1.148-2.296-2.301-4.324-3.454-2.019-1.029,2.058-.78,4.421.699,6.194s3.513,2.027,5.682,2.027c4.516,0,9.032,0,13.547,0,2.11,0,4.555.348,6.491-.644,2.123-1.087,3.094-3.453,2.508-5.752-1.507-5.91-8.728-3.512-13.036-3.856-1.544-.123-3.123-.536-4.593-1.017-1.326-.433-2.517-.951-3.94-1.02-2.926-.143-5.939,1.493-7.357,4.067-1.244,2.256,2.209,4.276,3.454,2.019Z"/><path class="h" d="M30.826,105.867c.477-.935,1.347-1.829,2.797-2.534,1.658-.806,3.585-.68,5.278.051,1.012.437,2.707.873,4.325,1.204,2.652.543,5.268.179,8.007.025,1.49-.084,3.2.05,4.167,1.163.955,1.1,1.208,3.312-.092,4.412l-.028.024c-.662.56-1.495.867-2.362.867-5.253,0-14.271,0-18.77,0-2.65,0-4.519-2.77-3.352-5.15.01-.021.021-.041.031-.062Z"/><path class="e" d="M32.553,106.876c.757-1.373,2.338-2.21,3.904-2.085.896.071,1.693.463,2.527.76.989.353,2.022.599,3.046.824,2.084.459,4.151.559,6.276.434,1.033-.061,2.065-.164,3.1-.204.678-.026,1.592-.093,2.208.274.387.231.556.608.588,1.06.042.586-.18.798-.538.962-1.158.53-3.028.177-4.284.177-3.512,0-7.025,0-10.537,0-1.579,0-3.291.189-4.859-.007-.97-.121-1.933-1.191-1.43-2.195,1.148-2.296-2.301-4.324-3.454-2.019-1.029,2.058-.78,4.421.699,6.194s3.513,2.027,5.682,2.027c4.516,0,9.032,0,13.547,0,2.11,0,4.555.348,6.491-.644,2.123-1.087,3.094-3.453,2.508-5.752-1.507-5.91-8.728-3.512-13.036-3.856-1.544-.123-3.123-.536-4.593-1.017-1.326-.433-2.517-.951-3.94-1.02-2.926-.143-5.939,1.493-7.357,4.067-1.244,2.256,2.209,4.276,3.454,2.019Z"/><path class="h" d="M36.65,17.302c-4.253,6.696-5.811,14.989-4.822,23.08,8.124-1.539,20.384-3.565,36.33-3.565,14.333,0,29.453.871,36.198,2.369l.905.153c.365-8.177-1.836-16.499-6.69-23.123C86.904.299,63.055-1.808,46.615,7.722c-4.221,2.447-7.534,5.752-9.965,9.58Z"/><path class="e" d="M35.113,46.329c-2.273-7.706-2.182-16.194.962-23.656s9.243-12.82,16.73-15.738c14.433-5.624,32.632-3.313,42.985,8.961,6.819,8.084,8.876,19.51,6.637,29.692-.551,2.509,3.304,3.58,3.857,1.063,2.239-10.186.727-21.327-5.066-30.118-4.882-7.407-12.459-12.56-20.964-14.927-16.466-4.583-37.629.579-46.302,16.326-4.915,8.924-5.553,19.776-2.697,29.46.727,2.464,4.588,1.415,3.857-1.063h0Z"/><path class="e" d="M33.105,36.32c2.27-3.833,5.924-6.48,9.932-8.29,4.789-2.163,10.069-3.426,15.268-4.082,1.071-.135,2-.823,2-2,0-.976-.921-2.136-2-2-10.476,1.32-22.894,4.625-28.654,14.352-1.315,2.22,2.142,4.235,3.454,2.019h0Z"/><path class="e" d="M33.716,42.057c18.976-3.498,38.225-3.859,57.444-2.478,4.229.304,8.513.631,12.665,1.537,2.509.548,3.581-3.308,1.063-3.857-3.79-.827-7.694-1.193-11.554-1.512-5.182-.428-10.38-.665-15.578-.802-10.677-.282-21.331-.068-31.942,1.226-4.408.537-8.794,1.224-13.161,2.029-2.528.466-1.457,4.322,1.063,3.857h0Z"/></g></svg>