<?xml version="1.0" encoding="UTF-8"?><svg id="b" xmlns="http://www.w3.org/2000/svg" width="381.559" height="299.705" viewBox="0 0 381.559 299.705"><defs><style>.e{fill:#fff;}.f{fill:none;}.g{fill:#f8b8b4;}.h{fill:#7abee6;}.i{fill:#211715;}.j{fill:#ffda71;}.k{fill:#645d5c;}</style></defs><g id="c"><g id="d"><path class="e" d="M263.244,126.608c-1.186.434-2.592.817-3.652,1.046-2.239.486-4.237.887-6.521.705-6.255-.501-12.195-1.115-16.43-5.907,4.178,16.079,8.528,30.354,12.632,45.998,0,0,1.806,7.015,3.798,15.382.992-6.361,3.724-13.456,7.66-18.455,6.232-7.915,15.413-13.266,26.913-15.174-1.294-2.801-2.442-8.374-2.442-8.374-2.394-10.387-4.062-21.623-5.154-33.008-4.216,8.737-6.224,12.388-15.411,17.19-.389.203-.869.405-1.393.597Z"/><path class="e" d="M298.11,66.721c2.419,1.129,4.839,2.109,7.098,2.866-3.736,4.099-6.918,6.92-10.864,10.861-3.972-3.346-6.621-6.588-8.833-9.578l-1.651-1.352c-.386-1.98-.699-4.199-.891-6.707-.048-1.87-.263-4.03-.541-6.146l3.936,3.208c3.343,2.475,7.542,4.887,11.746,6.849Z"/><path class="e" d="M323.011,28.981c.147-.107.295-.214.442-.32-2.494-2.455-4.448-4.544-5.108-5.725l-.187-.335c-2.475-5.936-5.101-13.26-9.372-17.861-.525-.565-1.432-1.093-2.061-1.539-1.563-1.107-3.2-1.253-5.113-1.152-1.47.077-5.655,1.678-4.838,5.902l.008.041c-.284-.317-.567-.634-.567-.634-1.295-1.448-3.617-1.136-4.684-.353-1.059.779-1.542,2.173-1.508,3.496,0,0,.012.46.024.92l-.102-.077c-1.328-.996-3.414-.499-4.478.778-1.063,1.278-.996,3.075-.589,4.691l.048.19c-.775-.265-1.551-.53-1.551-.53-.56-.192-2.105-.092-2.829.555-.802.712-1.317,2.488-1.012,3.938.354,1.644,1.867,4.618,2.832,5.952,1.397,1.934,3.08,3.399,4.954,3.263l.193-.014c.036,1.197.219,2.388.582,3.456,1.076,2.177,3.282,4.151,5.295,5.651,1.324.985,3.513,1.452,4.886,1.473,1.629.014,3.558-.446,4.373-.776,2.127-.856,4.469-1.835,6.904-2.999l1.564,1.694c3.804-3.417,7.821-6.72,11.892-9.685Z"/><path class="e" d="M351.106,218.191c-3.639-3.019-6.717-6.637-8.991-11.8,0,0-3.064-7.25-4.421-10.465-.249,4.092-.851,8.893-2.507,12.128.376,1.607.352,3.549.046,5.367,1.465,3.033,3.562,7.37,3.562,7.37,4.564,9.109,8.038,11.859,11.368,14.299,2.71-1.958,8.264-6.973,10.951-10.128-3.626-2.203-7.008-4.284-10.008-6.772Z"/><path class="e" d="M186.643,173.259c-.148-.303-.299-.605-.451-.906-.496-.978-3.519-7.712-3.659-9.196-.246-2.611-.188-5.883,1.706-7.759,1.241-1.001,9.944-5.879,13.32-7.467,1.22-.574,4.43-1.067,5.899,1.06l.966,1.399c.326-1.245,1.445-2.003,3.083-2.738,1.061-.476,2.685-.429,3.353-.025,2.597,1.573,4.701,5.16,5.493,8.16.265,1.005.129,2.287-.363,3.296-.602,1.235-1.932,1.714-4.126,1.587,1.236,1.401,1.56,5.027-.938,5.892,1.098.089,3.649-.121,4.365,1.881.301.843.282,1.827-.12,2.626-.472.938-1.264,1.8-1.966,2.492-.522.515-1.262,1.331-1.136,2.679.044,1.725.927,5.219.774,6.903s-.821,3.519-1.916,4.809c-.402.474-4.637,2.07-7.545,3.006-.915.39-2.836,1.177-4.312.798-5.919-1.521-8.451-10.369-12.428-18.499Z"/><path class="e" d="M170.766,189.466c-.79.534-1.5,1.014-2.079,1.417-3.781-2.716-7.833-7.528-9.944-11.861,0,0-1.503-3.494-2.795-6.499,1.162-.309,2.142-.751,2.674-1.101,2.583-1.708,3.988-3.933,4.912-5.805,3.568,8.538,8.564,12.859,17.219,16.48-2.543,2.353-6.884,5.273-9.986,7.368Z"/><path class="e" d="M155.85,152.336c1.231-.957,2.813-1.231,4.134-1.083,2.876.32,3.989,1.902,4.448,2.814,1.37,2.728.929,7.516-.364,10.404-.911,2.042-2.31,4.877-5.447,6.952-.917.603-3.17,1.482-5.388,1.478-.211.466-.36.799-.36.799-.637,1.476-2.179,4.077-2.179,4.077-1.116,1.802-2.297,3.54-3.646,5.241l.195,1.218c1.048,4.369,1.774,7.046,3.912,9.598,2.698,3.217,7.033,2.652,10.55,3.286l-3.947,6.802c-2.115,3.205-4.889,6.194-9.581,9.445-4.598,3.186-13.433,6.026-22.178,3.612-5.361-1.479-8.215-3.23-12.502-7.24l-5.03-5.266c1.029-.316,2.059-.629,3.087-.941v-5.855c-5.077-.663-9.73-2.683-14.263-6.102-6.581-4.963-9.681-13.079-11.04-22.134-.784-5.222-1.511-10.902-2.488-16.569,0,0-5.283-21.748,21.016-25.003,51.167-6.333,51.07,24.467,51.07,24.467Z"/><path class="e" d="M71.222,196.655c.662.075,1.205.366,1.739.765.538.402,1.088,1.508,1.361,2.121,1.118,2.515.548,4.989-.642,7.47-1.19,2.482-3.1,4.539-5.071,6.459-2.686,2.618-5.201,6.849-11.802,9.426-.27,2.531-.164,5.105.31,7.61-6.332.874-16.732,2.285-22.748,3.128l-.12-.832c-.461-4.497-.807-7.148-1.44-10.316-.078-.5-.167-1.235-.159-1.483.271-8.42,3.575-23.301,5.778-30.054.713-2.186,1.748-3.13,3.361-4.769.915-.93,2.101-1.536,3.271-2.114,4.21-2.077,8.515-3.982,12.974-5.453,2.136-.705,4.424-1.313,6.612-.792,2.317.552,4.194,2.325,5.406,4.375,1.213,2.05,2.67,4.98,3.297,7.278.431,1.58.216,4.235-2.358,5.273l.233,1.905Z"/><path class="i" d="M320.28,22.533c-2.382-5.612-4.37-11.551-7.946-16.555-1.768-2.474-4.122-4.915-7.189-5.667-2.297-.564-4.786-.392-6.869.761-2.776,1.537-3.945,4.34-3.431,7.411.179,1.066,1.496,1.662,2.46,1.397,1.13-.311,1.576-1.391,1.397-2.46-.32-1.911,1.251-2.948,2.645-3.307.153-.039.79-.101.152-.055.386-.028.774-.039,1.16-.034.694.009,1.388.068,2.04.328,1.316.526,2.512,1.566,3.405,2.638,4.174,5.013,6.209,11.645,8.722,17.563.422.995,1.889,1.213,2.736.718,1.029-.602,1.141-1.738.718-2.736h0Z"/><path class="i" d="M294.845,8.483c.239,1.396.645,2.754,1.17,4.069.509,1.275,1.041,2.692,1.823,3.832.772,1.126,1.841,2.006,3.172,2.376.999.278,2.236.289,3.157-.252,1.412-.828,2.248-2.475,2.776-3.958.352-.987-.397-2.232-1.397-2.46-1.122-.256-2.084.34-2.46,1.397-.034.1-.071.199-.109.297.103-.236.11-.253.019-.05-.089.178-.174.357-.272.53-.07.123-.143.243-.22.362-.049.075-.099.149-.152.221.185-.232.212-.267.081-.105-.077.086-.151.175-.233.257-.125.126-.518.386.026.009-.353.245.572-.174.096-.047-.399.107.523-.026.21-.024-.072,0-.145.007-.217.006-.262-.003-.386-.147.138.039-.103-.037-.229-.041-.336-.069-.088-.023-.173-.054-.26-.08-.31-.094.494.249.039.01-.09-.047-.178-.098-.263-.153-.439-.283.222.233-.023-.012-.095-.095-.195-.183-.286-.283-.327-.359.176.312-.031-.031-.167-.276-.325-.551-.471-.838-.166-.325-.327-.653-.482-.983-.074-.158-.148-.317-.219-.477-.044-.097-.353-.683-.102-.222-.342-.625-.542-1.386-.752-2.066-.239-.775-.427-1.562-.564-2.361-.177-1.034-1.503-1.707-2.46-1.397-1.115.361-1.587,1.352-1.397,2.46h0Z"/><path class="i" d="M294.8,22.209c1.625.603,3.557.316,4.993-.633.507-.335.835-.669,1.189-1.156.246-.339.395-.722.553-1.109.262-.639.362-1.318.433-2.001.05-.478-.259-1.088-.586-1.414-.347-.347-.916-.608-1.414-.586-.517.023-1.054.193-1.414.586l-.313.405c-.181.312-.272.648-.273,1.009-.006.055-.012.109-.019.164l.071-.532c-.063.459-.176.909-.355,1.336l.202-.478c-.101.231-.221.449-.376.648l.313-.405c-.087.106-.18.201-.286.287l.405-.313c-.253.188-.532.341-.82.469l.478-.202c-.33.138-.668.234-1.022.283l.532-.071c-.321.038-.639.035-.959-.008l.532.071c-.274-.042-.539-.112-.799-.209-.462-.171-1.13-.039-1.541.202-.415.243-.811.718-.919,1.195-.117.512-.091,1.087.202,1.541.296.459.683.729,1.195.919h0Z"/><path class="i" d="M295.099,17.665c-.876-1.296-1.574-2.765-2.212-4.189-.213-.477-.485-1.133-.683-1.875-.053-.201-.096-.402-.139-.606-.083-.396-.026.153-.034-.287-.003-.156-.013-.31-.009-.466.002-.066.066-.593.018-.34-.052.275.051-.195.064-.246.044-.168.098-.331.158-.494-.147.403.059-.077.095-.139.029-.049.305-.402.136-.214-.161.179.211-.186.251-.228.19-.198-.306.161-.017.026.03-.014.315-.136.322-.17-.022.103-.411.146.011.018.132-.04.267-.065.401-.099.352-.09-.264-.031-.038.004.131.02.301-.008.435-.012.29-.01.19-.06-.02-.027.103-.016.335.067.433.095.211.061.362.231.077.015.118.089.266.149.389.235-.279-.196-.07-.033.062.106.72.762,2.112.781,2.828,0,.75-.817.769-2.016,0-2.828-1.357-1.435-3.348-1.817-5.229-1.445-1.958.387-3.359,1.849-4.022,3.68-.704,1.942-.272,4.112.481,5.967.767,1.889,1.642,3.844,2.787,5.539.585.865,1.787,1.329,2.736.718.862-.555,1.344-1.809.718-2.736h0Z"/><path class="i" d="M289.854,20.849c-.171-.08-.337-.164-.5-.261-.039-.023-.438-.302-.266-.168s-.182-.178-.215-.207c-.374-.34.183.318-.127-.154-.386-.588-.778-1.169-1.121-1.783-.178-.319-.345-.645-.495-.978.113.25-.024-.065-.061-.165-.057-.155-.111-.311-.158-.469-.099-.327-.178-.66-.241-.996-.032-.172-.053-.384-.023-.09-.018-.178-.034-.355-.041-.534-.011-.291-.008-.588.03-.877-.062.472.039-.08.056-.144.014-.05.17-.488.068-.243s.103-.175.127-.221c.216-.413-.199.158.09-.137.088-.09.186-.173.272-.265.152-.162-.293.172.022-.009.132-.076.27-.148.401-.226-.213.127-.212.077.02.002.122-.039.245-.066.368-.1.439-.121-.383-.018.067-.006.121.003.255.017.373.006.211-.019-.356-.117-.021.009.072.017.142.038.211.063.14.049.094.029-.138-.061.118.087.259.15.38.235.858.604,2.261.182,2.736-.718.542-1.026.198-2.091-.718-2.736-1.595-1.123-3.777-.968-5.434-.078-1.805.969-2.737,2.82-2.898,4.802-.154,1.892.467,3.85,1.316,5.514.901,1.765,2.05,3.577,3.899,4.448.945.445,2.201.295,2.736-.718.469-.888.293-2.261-.718-2.736h0Z"/><path class="i" d="M329.703,31.869c-2.105-1.976-4.207-3.959-6.232-6.018-.77-.783-1.531-1.576-2.252-2.404-.161-.184-.319-.37-.475-.558-.06-.072-.118-.146-.177-.218-.208-.255.023.003.085.113-.167-.298-.409-.559-.58-.858-.519-.909-1.835-1.299-2.736-.718-.918.592-1.273,1.764-.718,2.736.985,1.725,2.527,3.208,3.906,4.615,2.06,2.102,4.204,4.123,6.35,6.138.763.716,2.082.813,2.828,0,.714-.778.815-2.063,0-2.828h0Z"/><path class="i" d="M315.253,42.311c-1.689-2.104-3.469-4.133-5.266-6.145-.699-.783-2.126-.765-2.828,0-.767.836-.745,1.993,0,2.828,1.796,2.013,3.576,4.041,5.266,6.145.3.374.957.586,1.414.586.491,0,1.076-.218,1.414-.586.35-.381.61-.882.586-1.414-.025-.562-.236-.978-.586-1.414h0Z"/><path class="i" d="M308.545,35.245c-2.856,1.357-6,3.115-9.193,3.452-3.141.331-5.43-1.258-7.545-3.409-1.15-1.169-1.986-2.327-2.213-3.983-.208-1.512-.088-3.085.246-4.569.286-1.272.635-2.535,1.032-3.777.089-.279.188-.555.281-.833.034-.102.072-.206.113-.305-.043.103-.165.221.003.002.261-.339.665-.581,1.112-.747.162-.06.428-.154.59-.156-.393.005.003.045.086.126.154.15.342.244.461.436.277.446.329,1.161.438,1.669.373,1.735.697,3.481,1.049,5.221.51,2.521,4.366,1.454,3.857-1.063-.388-1.919-.734-3.847-1.167-5.757-.446-1.97-1.468-3.572-3.435-4.305-1.93-.72-4.272.16-5.694,1.569-1.151,1.14-1.538,2.949-1.966,4.458-1.064,3.758-2.008,8.547.179,12.09,2.119,3.434,5.818,6.608,9.883,7.22,4.898.738,9.619-1.852,13.902-3.887.976-.463,1.23-1.861.718-2.736-.584-.998-1.757-1.183-2.736-.718h0Z"/><path class="i" d="M283.905,14.544c-2.09-.603-4.662.304-5.669,2.265-1.094,2.131-.903,4.37-.017,6.517.807,1.955,1.772,3.815,3.087,5.478,1.459,1.846,3.534,3.486,6.013,3.376,1.079-.048,2-.885,2-2,0-1.046-.916-2.048-2-2-.186.008-.371.014-.556-.006.426.045-.098-.054-.191-.074-.452-.1.191.144-.223-.087-.174-.097-.34-.197-.509-.3-.464-.283.169.184-.252-.187-.163-.143-.322-.287-.476-.44-.321-.319-.629-.659-.905-1.018-.729-.95-1.464-2.357-2.017-3.564-.069-.15-.137-.3-.202-.451.144.337-.061-.157-.087-.226-.123-.318-.237-.641-.331-.969-.15-.524-.163-1.064-.017-1.607.005-.018.207-.608.058-.256.07-.166.166-.317.255-.472-.151.263-.05.051.093-.081-.302.277.209-.031-.173.113.165-.062.338-.095.507-.143.367-.105-.149-.008.068-.013.13-.003.355.033.472-.009.164.01.098-.003-.198-.039.071.011.14.028.207.051,1.037.299,2.177-.365,2.46-1.397.29-1.056-.355-2.16-1.397-2.46h0Z"/><path class="g" d="M307.23,47.199c-.839-.905-1.649-1.782-2.412-2.608,6.482-6.395,13.99-12.859,21.535-17.957,2.132,2.535,25.204,24.468,25.994,25.329,6.368,6.936,12.145,13.211,16.659,21.474,1.45,2.655,2.406,7.183,2.248,10.204-.104,1.99-.827,3.899-1.731,5.675-2.76,5.418-6.246,8.936-11.13,12.558s-34.179,23.015-42.942,29.817c0,0-3.301,2.398-5.927,4.306.973,4.621,3.011,12.129,4.789,17.797-7.79-3.984-19.363-4.009-26.573-3.381-1.333-2.722-2.541-8.582-2.541-8.582-2.854-12.382-4.676-25.969-5.727-39.582,12.294-4.573,24.265-10.011,35.803-16.25,3.213-1.738,7.33-5.475,8.938-8.756l4.658-4.538c-3.806-5.75-6.847-9.514-12.061-15.169-2.87-3.112-6.424-6.928-9.581-10.335Z"/><path class="g" d="M236.498,219.713c.429-7.094,1.243-27.469-.817-31.614-.919-1.848-7.231-16.584-7.596-18.615-1.722-9.584-2.432-14.381-4.154-23.966l-9.591-2.09-9.687-2.112c.922-1.614,2.069-3.859,2.817-5.039,2.954-4.661,6.914-8.681,11.531-11.703,3.991-2.613,8.435-4.472,12.444-7.058,1.15-.742,2.274-1.562,3.321-2.462,4.737,19.208,9.784,35.395,14.506,53.396,0,0,9.895,38.446,8.914,42.683-2.444,10.556-21.689,8.58-21.689,8.58Z"/><path class="e" d="M326.136,204.742c1.245-.938,2.831-1.189,4.15-1.021,2.871.363,3.96,1.961,4.405,2.88,1.329,2.748.817,7.529-.519,10.398-.941,2.028-2.383,4.843-5.55,6.87-.998.635-3.549,1.567-5.92,1.373,1.658-1.265-2.101,4.862-2.101,4.862-1.316,2.056-2.717,4.026-4.355,5.951.367,2.272.91,4.501,1.527,6.352,0,0,.067.2.164.49-5.076,7.272-10.584,13.874-17.683,19.86-3.685-2.681-10.645-11.131-10.89-11.505v-1.727c-8.474.932-15.581-1.144-22.365-6.421-6.506-5.061-9.485-13.222-10.709-22.296-.706-5.233-1.348-10.924-2.241-16.604,0,0-5.93-29.104,29.104-29.104,46.034,0,42.983,29.643,42.983,29.643Z"/><path class="k" d="M232.506,91.73c-13.678-8.242-28.141-16.957-28.141-16.957-2.653-6.802-4.098-15.3-4.044-21.094.057-6.166,1.731-13.361,4.864-18.649,5.427-9.16,14.731-15.76,27.225-18.541,8.81-1.961,18.025-1.587,29.169,4.799,8.993,3.781,17.239,15.632,19.401,26.674.534,2.728,1.861,9.835,1.989,14.849.663,8.656,2.774,13.878,4.107,17.878,1.773,5.319.111,8.556-7.444,13.778l-9.056,7.833s-25.802-3.178-38.07-10.57Z"/><path class="e" d="M236.061,52.495c-3.573,2.8-7.599,5.217-11.842,7.139-.575.26-1.213-.2-1.173-.829.158-2.494.189-4.871.117-7.332-5.315,6.031-11.157,12.438-16.695,17.717-.575.551-1.278,1.155-1.72,1.569l-1.06.995c.04.134.079.267.079.267,1.535,5.181,2.837,10.402,4.142,15.189,2.264,8.301,6.048,15.534,12.735,19.443,5.908,3.454,11.749,4.738,18.127,3.879-1.068,1.687-2.454,3.191-4.003,4.52.62,2.515,1.245,4.979,1.875,7.401,4.235,4.789,10.174,5.403,16.428,5.903,2.284.183,4.282-.219,6.521-.705,1.528-.331,3.776-.98,5.044-1.643,9.185-4.801,11.194-8.451,15.408-17.183-.218-2.264-.413-4.533-.587-6.803-5.689-.142-10.998-4.017-13.04-9.285.955-1.583,1.78-3.183,2.549-4.828,0,0,2.742-6.172,1.355-4.789,2.232-.113,4.494-1.296,5.344-2.011,2.699-2.28,3.694-5.08,4.319-7.086.89-2.837.775-7.354-.803-9.75-.528-.801-1.741-2.154-4.46-2.137-1.249.008-2.696.437-3.739,1.465l-7.261-.433c-4.533-1.535-10.144-7.504-12.448-11.121-1.467-2.303-3.792-6.356-5.455-9.913-2.512,3.808-5.866,7.31-9.756,10.359Z"/><path class="k" d="M301.733,184.841c.913.315,1.378,1.943,1.713,2.715.801,1.844,1.537,3.711,2.469,5.495,2.471,4.733,7.067,8.519,12.305,10.122l7.112,2.175c.402-.303.804-.606.804-.606,1.245-.938,2.831-1.189,4.15-1.021,2.871.363,3.96,1.961,4.405,2.88l.602,1.241c2.527-5.178,2.498-14.094,2.618-17.953.108-3.683-.385-7.389-1.406-10.937-2.044-7.075-4.972-12.816-10.689-17.722,0,0-.559-.48-1.119-.96l-5.932-3.884c-9.507-6.225-18.15-7.497-26.715-6.751-13.571,1.183-24.31,6.84-31.319,15.743-4.046,5.14-6.82,12.494-7.745,18.991-.848,5.954-.551,14.821,1.176,22.257.099-.751.164-1.262.164-1.262.481-3.777,7.187-14.424,12.226-17.589l35.181-2.935Z"/><path class="i" d="M54.702,224.148c-.134,2.469.082,4.949.58,7.37.211,1.026,1.479,1.714,2.46,1.397,1.087-.352,1.623-1.361,1.397-2.46-.124-.605-.229-1.213-.313-1.824l.071.532c-.221-1.663-.287-3.339-.195-5.014.057-1.046-.961-2.047-2-2-1.132.051-1.939.879-2,2h0Z"/><path class="i" d="M55.015,225.609c4.167-1.235,7.896-3.33,10.987-6.397,1.089-1.081,2.073-2.256,3.112-3.383,1.421-1.543,2.956-2.948,4.249-4.61,3.23-4.154,5.132-10.018,1.57-14.596-3.531-4.537-10.619-.517-14.437,1.515-2.366,1.259-3.769,3.714-2.992,6.417.716,2.489,2.962,3.243,5.292,3.518,1.074.127,2-1.01,2-2,0-1.186-.922-1.873-2-2-.444-.052-1.032-.202-1.324-.367-.06-.034-.15-.235-.04.003-.115-.248-.176-.568-.143-.838.081-.648.515-.896,1.043-1.181.866-.467,1.752-.895,2.64-1.32,1.669-.798,3.487-1.744,5.382-1.757,1.649-.011,2.366,1.666,2.543,3.139.46,3.822-2.769,7.397-5.261,9.871-1.642,1.631-3.091,3.443-4.757,5.05-2.535,2.445-5.559,4.081-8.927,5.079-2.462.73-1.414,4.592,1.063,3.857h0Z"/><path class="i" d="M57.322,189.079c1.761.385,3.573.963,4.778,2.369,1.033,1.205,1.69,2.708,2.765,3.869,2.67,2.883,7.718,2.169,9.752-1.116,2.129-3.437-.003-7.624-1.618-10.786-1.985-3.886-4.787-7.402-9.457-7.76-2.443-.187-4.878.617-7.153,1.408-2.38.827-4.717,1.777-7.024,2.79-2.201.967-4.435,1.949-6.538,3.118-1.779.989-3.279,2.458-4.53,4.052-2.023,2.578-2.675,6.159-3.471,9.276-.952,3.729-1.775,7.493-2.475,11.278-.759,4.105-1.427,8.266-1.658,12.439-.11,1.975.381,3.872.694,5.811.374,2.314.62,4.645.86,6.976.111,1.074.84,2,2,2,.995,0,2.112-.919,2-2-.37-3.586-.864-7.128-1.478-10.679-.472-2.728.215-5.88.618-8.59.973-6.547,2.361-13.076,4.177-19.443.344-1.206.627-2.533,1.229-3.64.719-1.323,1.976-2.677,3.213-3.522,1.659-1.134,3.633-1.916,5.451-2.754,1.975-.911,3.975-1.765,6.01-2.534,3.435-1.298,7.983-3.434,11.162-.527,1.354,1.238,2.195,2.887,3.012,4.506.743,1.472,1.652,3.166,1.875,4.824.13.966-.284,2.103-1.466,2.528-.616.222-1.263.292-1.844-.04-.425-.243-.579-.524-.758-.81-.941-1.499-1.968-3.14-3.312-4.312-1.578-1.375-3.736-2.148-5.749-2.587-2.509-.548-3.581,3.307-1.063,3.857h0Z"/><path class="i" d="M50.785,195.217c.602.119,1.2.263,1.788.44.386.116.768.247,1.144.393.085.033.169.07.255.102-.647-.239-.195-.083-.048-.017.19.086.377.176.562.27.397.203.783.429,1.153.678.084.057.167.115.249.174.425.307-.263-.226,0-.003.171.144.342.287.505.441.165.156.323.318.474.487.092.102.173.231.273.323-.148-.136-.252-.341-.055-.063.147.208.284.423.408.645.054.097.106.196.156.295.063.125.277.634.032.04.208.503.43.909.919,1.195.429.251,1.061.357,1.541.202.927-.3,1.825-1.425,1.397-2.46-.513-1.243-1.175-2.35-2.131-3.312-.793-.798-1.739-1.478-2.731-2.007-1.509-.804-3.154-1.351-4.829-1.682-1.023-.202-2.208.291-2.46,1.397-.226.992.299,2.243,1.397,2.46h0Z"/><path class="i" d="M46.953,202.727c.748.207,1.479.461,2.194.763l-.478-.202c.909.386,1.79.833,2.658,1.305.465.253,1.025.344,1.541.202.464-.128.967-.486,1.195-.919.493-.934.264-2.203-.718-2.736-1.697-.923-3.464-1.751-5.329-2.269-.499-.139-1.094-.06-1.541.202-.415.243-.811.718-.919,1.195-.241,1.059.318,2.161,1.397,2.46h0Z"/><path class="i" d="M51.327,204.593c.126.072.329.27.465.297-.097-.019-.283-.246-.088-.055.064.063.132.122.195.186.062.064.121.131.181.197.287.314-.146-.246-.033-.037.081.149.172.306.261.451.129.209-.114-.358-.05-.123.022.082.055.161.078.243.023.081.034.167.059.246.07.223-.003-.389-.019-.157-.011.163,0,.34-.002.504-.004.238.099-.378.013-.154-.037.096-.057.213-.087.312-.09.296-.001-.095.042-.099-.02.002-.123.218-.138.244-.152.274.003-.075.064-.067-.021-.003-.171.179-.193.202-.224.235.043-.079.078-.053-.014-.011-.239.165-.252.145-.009-.014.386-.119.056-.035-.098.025-.196.05-.294.076-.325.087.07.02.08.001-.016.03-.29.026-.326.028-.263.016-.526.016-.789.001-.117-.007-.233-.019-.35-.029-.296-.023.296.078.011-.005-.251-.073-.513-.114-.766-.189-.68-.202-1.449.018-1.946.514-.555.555-.614,1.212-.514,1.946-.099-.726.01.123.031.306.036.319.069.638.102.957.066.634.131,1.269.204,1.902.119,1.036.835,2.052,2,2,.981-.044,2.128-.887,2-2-.162-1.41-.288-2.822-.48-4.228l-2.46,2.46c1.399.415,2.99.529,4.414.157,1.562-.407,2.682-1.567,3.238-3.05.944-2.517-.558-5.29-2.765-6.551-.909-.519-2.228-.244-2.736.718-.502.951-.253,2.182.718,2.736h0Z"/><path class="e" d="M107.231,295.25c-3.745-9.064-7.364-18.179-10.851-27.346-3.301,2.917-5.293,4.676-5.293,4.676-6.733,5.949-27.683,20.212-36.158,23.195-5.699,2.006-12.509,3.234-17.4-.314-1.583-1.148-2.819-2.715-3.842-4.381-4.221-6.87-4.948-15.279-5.138-23.34-.231-9.784,1-27.874,1.605-33.495,3.286-.519,21.865-3.024,29.314-4.064.432,4.165.686,8.188.884,12.221,3.338-2.984,6.787-6.066,6.787-6.066,3.834-3.858,7.114-8.266,9.71-13.045,1-1.843,1.911-3.757,3.24-5.379,1.793-2.188,4.25-3.722,6.744-5.058,6.758-3.62,14.065-6.05,21.402-8.308,7.846,7.931,10.508,10.431,17.766,12.433,8.746,2.413,17.58-.427,22.178-3.612,8.149-5.646,10.515-10.502,13.684-17.076,13.093-.48,26.503-.7,38.75,3.868,7.485,2.791,14.208,7.261,20.855,11.691l-23.677,32.404c.231,9.047.675,16.936,1.367,25.811.286,3.675.748,7.334,1.122,11"/><path class="h" d="M379.562,260.093c-7.733-4.244-15.698-8.565-24.445-9.707-4.605-.601-9.274-.296-13.907.01-4.983.329-9.967.659-14.95.988l-1.104-1.305c-.064-.32-3.695-6.042-5.893-9.112-4.911,7.245-10.139,13.841-16.776,19.838l-2.78,1.53c-3.785-3.046-10.11-10.728-10.343-11.085-1.26,2.284-3.838,6.962-4.449,8.258l-1.336.23c-6.782,1.864-13.607,3.744-19.939,6.805-6.332,3.061-12.211,7.404-16.032,13.309,0,0-.212,1.49.872,1.74,21.253,2.225,94.238,7.352,116.042-1.458,4.718-1.907,13.285-13.457,16.042-18.5.25-.375-1-1.54-1-1.54Z"/><path class="i" d="M123.184,179.597c.154-1.106.005-2.043-.75-2.904-.508-.578-1.208-.973-1.957-1.145-1.567-.361-3.367.055-4.931.269-1.581.216-3.152.502-4.71.847-1.606.355-3.335.641-4.051,2.337-.694,1.644.053,3.033,1.017,4.359.926,1.274,1.948,2.477,3.046,3.605,1.031,1.06,2.192,1.786,3.675,1.985,1.358.183,2.833-.122,3.952-.94,1.362-.995,2.173-2.486,2.94-3.956.732-1.404,1.432-2.903,1.769-4.458.221-1.02-.304-2.211-1.397-2.46-1.008-.23-2.223.303-2.46,1.397-.091.418-.21.828-.351,1.232-.219.628-.253.695-.487,1.199-.476,1.026-1.02,2.021-1.618,2.981-.075.121-.154.24-.229.361-.017.027-.188.25-.044.073.127-.157-.229.223-.294.285-.266.255-.044.026.023-.014-.091.056-.178.115-.272.168-.092.052-.187.098-.283.143.154-.071.25-.084.036-.035-.097.022-.206.05-.303.079-.138.041-.321-.011.068-.002-.159-.004-.394-.03-.548.006-.238.055.293.109.064.013-.067-.028-.16-.033-.231-.051-.1-.026-.203-.071-.304-.093.364.079.093.05-.037-.027-.125-.075-.486-.344-.212-.103-.192-.169-.372-.349-.551-.531-.412-.42-.813-.851-1.203-1.292-.77-.871-1.251-1.454-1.882-2.442-.054-.084-.103-.172-.159-.254-.259-.378-.012-.065-.028.023.002-.009-.043-.567.005.087.006.088-.121.418.003.101-.045.115-.071.204-.148.302-.042.054-.389.29-.182.17.193-.112-.102.051-.118.052.207-.022.445-.111.647-.16,1.116-.27,2.24-.51,3.369-.718,1.35-.248,2.369-.402,3.654-.533.631-.064,1.27-.143,1.906-.119-.095-.004-.38-.098-.043.012.226.074.094.057-.037-.022-.321-.194-.102-.129-.034-.023-.199-.312-.241-.389-.174-.865-.144,1.031.25,2.199,1.397,2.46.942.215,2.306-.289,2.46-1.397Z"/><path class="i" d="M243.304,92.194c.041-1.968-1.741-3.332-3.609-3.288-1.419.033-2.921.514-4.283.884-1.401.381-2.786.825-4.151,1.318-.609.22-1.288.414-1.842.748-.868.524-1.387,1.477-1.46,2.473-.113,1.545,1.09,2.752,2.081,3.79s2.075,1.955,3.206,2.825c1.007.775,2.145,1.341,3.458,1.266,1.361-.077,2.699-.66,3.559-1.742.972-1.224,1.552-2.817,2.085-4.272.476-1.299.825-2.622.957-4.003.099-1.045-.991-2.045-2-2-1.169.052-1.893.881-2,2-.034.356.029-.095.025-.129.009.071-.036.226-.046.285-.036.203-.079.405-.126.606-.104.443-.23.882-.369,1.315-.14.437-.295.869-.461,1.297-.079.203-.159.406-.244.607.134-.315.007-.021-.019.035-.064.14-.126.28-.19.419-.184.396-.39.779-.588,1.169-.151.298.002.023.059-.043-.062.073-.125.145-.193.213-.05.05-.152.168-.211.19.189-.068.248-.16,0-.039-.406.199.246-.024-.093.043.02-.004-.263.076-.267.068-.025-.052.453-.012.122-.018-.089-.002-.189-.002-.277.002-.334.017.151-.016.116.025-.011.013-.186-.042-.206-.047-.284-.072-.184.027.007.033-.151-.005-.392-.219-.51-.301-.096-.067-.189-.141-.283-.211-.051-.038-.29-.234-.027-.021-.396-.32-.79-.641-1.172-.977-.753-.664-1.474-1.37-2.129-2.131-.081-.095-.162-.19-.241-.286-.034-.042-.294-.315-.127-.156.117.112-.019-.223.017.057.016.13.069.25.073.39-.012-.343-.017.101-.03.151-.05.187-.147.3-.27.436.077-.085.272-.224-.091.067-.225.181-.086.042.112-.032.989-.371,1.989-.716,2.997-1.03,1.202-.375,2.418-.709,3.646-.99.271-.062.543-.121.815-.177.135-.028.272-.052.407-.082.575-.126-.179-.036.083-.018.071.005.417-.029.134-.023-.159-.03-.146-.025.041.015l-.194-.094.132.074-.165-.12-.11-.148c-.105-.63-.155-.77-.148-.42-.022,1.047.935,2.048,2,2,1.102-.049,1.977-.879,2-2Z"/><path class="i" d="M292.846,231.85c.365-1.933-.766-3.65-2.692-4.097-1.451-.337-3.109-.114-4.578-.004-1.604.12-3.202.316-4.792.558-.615.093-1.268.153-1.867.323-1.001.284-1.809,1.089-2.136,2.068-.518,1.553.376,2.978,1.183,4.246.79,1.241,1.698,2.418,2.661,3.53.91,1.051,1.933,1.952,3.35,2.199,1.561.272,3.086-.132,4.293-1.163.587-.501,1.031-1.178,1.482-1.799.434-.6.843-1.218,1.226-1.851.758-1.253,1.458-2.598,1.869-4.009.293-1.004-.355-2.223-1.397-2.46-1.07-.244-2.147.322-2.46,1.397-.056.191-.116.38-.184.567-.027.074-.064.149-.086.225-.081.28.136-.286.006-.011-.196.418-.392.834-.611,1.241-.492.912-1.045,1.792-1.643,2.639-.133.189-.27.375-.407.561-.237.32-.093.121-.038.054-.074.093-.146.188-.226.277-.053.058-.13.115-.174.179-.148.212.254-.118.027-.005-.066.033-.141.086-.202.129-.344.24.185-.013-.022.028-.176.035-.348.101-.526.136.484-.096-.075-.035-.24-.044.422.023.017-.067-.153-.073-.222-.007.204.174.041.017-.078-.075-.255-.151-.345-.207.313.197-.048-.074-.161-.194-.156-.167-.308-.338-.459-.509-.364-.415-.72-.838-1.058-1.275.145.188-.223-.303-.267-.363-.147-.202-.292-.406-.433-.613-.317-.463-.618-.937-.896-1.425-.133-.233-.264-.469-.382-.71.026.053.042.259.034.081-.011-.259.022.224.016.283-.03.309-.206.44-.418.637-.067.063-.409.085-.049.037.177-.024.352-.063.528-.093,1.152-.198,1.972-.314,2.987-.427,1.283-.142,2.57-.242,3.86-.285.593-.02,1.203-.063,1.795-.009-.094-.009-.386-.098-.059.014.228.077.085.035-.05-.032.306.15.018.011-.044-.046l-.12-.168c.189.364.175.159-.041-.615-.194,1.025.285,2.207,1.397,2.46.985.224,2.253-.298,2.46-1.397Z"/><path class="k" d="M83.907,126.089c-.707,2.343-1.215,4.708-1.503,6.967-.759,5.966-.33,14.827,1.508,22.237.088-.752.145-1.264.145-1.264.425-3.784,6.971-14.529,11.962-17.769.585-.38,1.416-.017,1.761.988.333.971.402,1.726.39,2.447-.018,1.095,1.107,1.786,1.955,1.206,3.553-2.429,10.275-8.957,17.974-11.131l7.243.602c2.35.772,13.164,3.785,21.876,17.306l8.631,4.657c1.231-.957,2.813-1.231,4.134-1.083,2.876.32,3.989,1.902,4.448,2.814l.623,1.238c2.441-5.215,2.286-14.133,2.345-17.988.05-3.7-.49-7.39-1.57-10.93-2.14-7.03-5.16-12.73-10.95-17.55,0,0-.577-.48-1.153-.96l-5.969-3.782c-9.598-6.083-18.26-7.226-26.812-6.352-13.552,1.385-24.206,7.202-31.081,16.208-2.592,3.396-4.628,7.728-5.959,12.138Z"/><path class="i" d="M112.084,211.153c2.413,2.244,4.985,4.38,7.985,5.793,3.369,1.586,7.031,2.584,10.745,2.861,7.453.557,14.751-1.842,20.623-6.365,3.137-2.416,5.849-5.213,8.048-8.511,1.432-2.148-2.031-4.153-3.454-2.019-4.359,6.535-11.185,11.292-18.951,12.627-4.437.763-8.875.211-13.096-1.28-3.512-1.241-6.37-3.421-9.073-5.934-1.883-1.751-4.718,1.071-2.828,2.828h0Z"/><path class="i" d="M340.388,207.401c1.948,4.354,4.784,8.232,8.358,11.394,3.465,3.066,7.417,5.5,11.358,7.895l-.405-3.141c-3.087,3.586-6.723,7.021-10.546,9.815h2.019c-.91-.668-1.355-.995-2.218-1.742-.926-.803-1.793-1.67-2.598-2.594-2.396-2.752-4.198-6.003-5.834-9.246-1.16-2.298-4.612-.276-3.454,2.019,1.798,3.562,3.83,7.035,6.46,10.055,1.658,1.904,3.597,3.472,5.626,4.962.518.381,1.5.379,2.019,0,4.108-3.002,8.036-6.584,11.356-10.441.842-.979.759-2.434-.405-3.141-3.645-2.215-7.343-4.433-10.548-7.27-3.351-2.965-5.906-6.502-7.733-10.585-.441-.986-1.876-1.221-2.736-.718-1.015.594-1.16,1.747-.718,2.736h0Z"/><path class="i" d="M166.95,155.527v-.01l-.273,1.009c2.678-5.606,2.652-12.225,2.713-18.312.075-7.541-1.76-15.048-5.474-21.641-1.964-3.486-4.565-6.575-7.622-9.151-1.957-1.649-4.8,1.167-2.828,2.828,5.139,4.33,8.339,9.918,10.318,16.285,1.946,6.261,1.869,12.926,1.325,19.408-.141,1.68-.358,3.35-.73,4.996-.175.773-.381,1.541-.638,2.292-.244.714-.79,1.536-.79,2.295,0,2.574,4,2.578,4,0h0Z"/><path class="i" d="M124.812,132.301c1.034.338,2.06.685,3.073,1.083.505.198-.024-.018.29.118.163.071.326.142.489.215.47.212.936.434,1.396.666.929.468,1.838.978,2.724,1.524,5.178,3.195,9.407,7.699,12.709,12.78,1.398,2.151,4.862.148,3.454-2.019-3.635-5.594-8.261-10.533-13.938-14.087-2.86-1.791-5.936-3.093-9.133-4.138-2.453-.801-3.503,3.06-1.063,3.857h0Z"/><path class="i" d="M86.057,154.029c-.069.533.063-.197.09-.301.058-.229.128-.454.201-.678.176-.537.384-1.057.61-1.556.624-1.375,1.353-2.703,2.129-3.997,1.673-2.787,3.581-5.488,5.896-7.783.46-.456.935-.911,1.448-1.307.052-.041.586-.345.598-.419l-1.126-.076.076.272c-.03.214.151.602.174.811.1.91.032,1.745.545,2.563.556.888,1.575,1.51,2.628,1.546,1.574.053,2.826-1.2,3.986-2.103,1.214-.945,2.409-1.914,3.637-2.842,3.557-2.687,7.367-5.199,11.682-6.459,2.466-.72,1.417-4.582-1.063-3.857-4.122,1.204-7.86,3.386-11.321,5.889-1.571,1.136-3.094,2.337-4.615,3.539-.524.413-1.045.83-1.579,1.23-.202.151-.508.301-.668.488-.316.369-.339-.083.09.2.371-.084.604.086.696.508v-.312c.184-.908-.284-2.324-.663-3.144-.489-1.059-1.332-1.845-2.499-2.062-1.708-.318-3.181,1.138-4.333,2.209-2.599,2.413-4.746,5.39-6.613,8.39-1.741,2.799-3.573,5.935-4.005,9.253-.14,1.073,1.019,2,2,2,1.197,0,1.86-.924,2-2h0Z"/><path class="i" d="M120.798,160.487c-.575-1.837-.227-6.07,3.256-6.447,4.606.005,4.876,5.12,3.338,7.533-1.26,1.976-4.989,2.813-6.594-1.086Z"/><path class="i" d="M93.457,161.479c-.533-1.844-.227-6.089,2.962-6.457,4.219.02,4.482,5.151,3.081,7.567-1.148,1.978-4.56,2.806-6.042-1.11Z"/><path class="i" d="M107.703,165.055c-.639,1.178-1.238,2.379-1.753,3.617l.202-.478c-.273.595-.508,1.166-.514,1.834-.007.806.354,1.563.977,2.069.479.389,1.011.74,1.632.854.399.073.788.084,1.186.127.478.051,1.088-.26,1.414-.586.347-.347.608-.916.586-1.414-.023-.517-.193-1.054-.586-1.414-.414-.38-.858-.526-1.414-.586-.181-.019-.363-.018-.543-.038l.532.071c-.162-.022-.315-.062-.466-.123l.478.202c-.141-.064-.269-.142-.393-.233l.405.313c-.091-.072-.179-.146-.258-.23l.313.405c-.028-.033-.051-.07-.07-.109l.202.478c-.026-.062-.042-.117-.055-.183l.071.532c-.009-.092-.007-.178.003-.27l-.071.532c.033-.194.095-.376.171-.558l-.202.478c.096-.217.188-.436.28-.655l-.202.478c.447-1.057.985-2.083,1.532-3.091.252-.465.344-1.024.202-1.541-.128-.464-.486-.967-.919-1.195-.933-.493-2.204-.265-2.736.718h0Z"/><path class="i" d="M143.403,189.866c2.788-2.561,5.241-5.444,7.382-8.564,1.428-2.08,2.798-4.279,3.816-6.594.435-.988.289-2.148-.718-2.736-.849-.497-2.299-.276-2.736.718-.987,2.242-2.306,4.374-3.681,6.395-1.975,2.903-4.271,5.545-6.893,7.953-.796.731-.741,2.087,0,2.828.792.792,2.031.733,2.828,0h0Z"/><path class="i" d="M148.768,102.368c-6.666-4.18-14.134-6.71-22.032-6.875-7.144-.149-14.481,1.24-21.068,4.002-6.083,2.551-11.62,6.388-15.912,11.424-4.855,5.695-7.885,12.89-9.084,20.253-1.346,8.267-.616,17.127,1.453,25.213.638,2.492,4.497,1.436,3.857-1.063-3.362-13.137-3.016-28.57,5.263-39.896,7.534-10.307,20.404-15.426,32.868-15.908,8.153-.315,15.748,1.984,22.636,6.304,2.187,1.372,4.197-2.088,2.019-3.454h0Z"/><path class="i" d="M133.629,191.047c-8.908,4.517-19.536,6.94-29.015,2.614-4.249-1.939-8.21-4.777-10.848-8.679-2.622-3.878-4.102-8.361-5.031-12.919-1.327-6.51-1.922-13.173-3.043-19.722-.182-1.065-1.493-1.663-2.46-1.397-1.127.31-1.58,1.392-1.397,2.46,1.078,6.293,1.701,12.671,2.89,18.942.94,4.96,2.531,9.941,5.29,14.206,5.809,8.979,16.811,13.938,27.358,13.331,6.468-.373,12.531-2.469,18.275-5.382,2.296-1.164.274-4.617-2.019-3.454h0Z"/><path class="i" d="M156.86,154.063c1.166-.844,2.513-1.058,3.889-.625.509.16,1.028.462,1.275.694.142.133.277.277.399.428-.261-.325.114.204.154.275,1.217,2.164.775,5.382.092,7.661-.75,2.503-2.261,4.992-4.296,6.646-1.862,1.513-4.77,2.313-7.137,1.338-.999-.411-2.199.445-2.46,1.397-.315,1.148.394,2.047,1.397,2.46,2.783,1.145,6.199.458,8.817-.83,2.654-1.305,4.735-3.911,6.073-6.488,1.372-2.643,2.167-5.45,2.208-8.442.035-2.554-.485-5.439-2.418-7.274-2.606-2.474-7.098-2.804-10.011-.695-.874.632-1.301,1.739-.718,2.736.505.863,1.857,1.354,2.736.718h0Z"/><path class="i" d="M324.4,162.644c4.971,4.318,8.055,9.818,9.948,16.073,1.864,6.159,1.76,12.544,1.224,18.897-.266,3.162-.685,6.552-2.11,9.427-1.139,2.299,2.309,4.328,3.454,2.019,2.758-5.564,2.817-12.193,2.969-18.274.189-7.539-1.558-15.065-5.17-21.711-1.91-3.514-4.471-6.64-7.488-9.26-1.935-1.681-4.776,1.137-2.828,2.828h0Z"/><path class="i" d="M300.723,186.567c.317.141-.018-.148.201.136-.16-.207.161.346.155.333.117.225.221.519.374.897.461,1.142.959,2.273,1.451,3.402.984,2.256,2.108,4.339,3.649,6.266,2.838,3.548,6.814,6.145,11.135,7.5,2.462.772,3.515-3.088,1.063-3.857-3.84-1.204-7.386-3.666-9.731-6.958-1.357-1.906-2.279-4.057-3.19-6.2-.696-1.637-1.268-4.161-3.089-4.972-.986-.439-2.149-.286-2.736.718-.499.853-.274,2.295.718,2.736h0Z"/><path class="i" d="M256.254,205.896c.079-.561.241-1.105.431-1.638.072-.202.15-.401.229-.601.157-.399-.132.285.068-.161.153-.342.311-.683.476-1.02.855-1.743,1.857-3.415,2.934-5.029,1.124-1.685,2.198-3.123,3.532-4.622.617-.693,1.259-1.364,1.942-1.991.31-.285.628-.561.957-.824-.299.239.108-.08.173-.126.185-.133.374-.259.566-.382,2.162-1.383.158-4.847-2.019-3.454-3.5,2.24-6.183,5.784-8.474,9.184-1.128,1.674-2.175,3.412-3.065,5.225-.67,1.366-1.393,2.85-1.606,4.374-.15,1.068.261,2.148,1.397,2.46.936.257,2.309-.32,2.46-1.397h0Z"/><path class="i" d="M290.966,212.369c-.548-1.845-.137-6.073,3.352-6.398,4.606.074,4.8,5.192,3.225,7.582-1.289,1.957-5.03,2.738-6.577-1.184Z"/><path class="i" d="M263.613,212.954c-.505-1.852-.136-6.092,3.058-6.412,4.218.083,4.405,5.217,2.967,7.612-1.177,1.96-4.601,2.737-6.025-1.2Z"/><path class="i" d="M277.789,216.768c-.578,1.028-1.123,2.075-1.613,3.147-.276.603-.491,1.124-.511,1.799-.023.803.356,1.567.967,2.075.475.395,1.009.742,1.626.865.396.078.788.088,1.185.136.473.058,1.093-.265,1.414-.586.347-.347.608-.916.586-1.414-.023-.517-.193-1.054-.586-1.414l-.405-.313c-.312-.181-.648-.272-1.009-.273-.18-.022-.362-.024-.543-.047l.532.071c-.139-.021-.271-.054-.403-.104l.478.202c-.164-.069-.309-.158-.451-.265l.405.313c-.09-.073-.176-.148-.254-.234l.313.405c-.027-.034-.05-.07-.068-.11l.202.478c-.025-.063-.04-.118-.052-.184l.071.532c-.008-.092-.004-.178.007-.27l-.071.532c.031-.17.085-.329.15-.488l-.202.478c.496-1.134,1.082-2.233,1.688-3.311.257-.457.342-1.032.202-1.541-.128-.464-.486-.967-.919-1.195-.945-.499-2.189-.257-2.736.718h0Z"/><path class="i" d="M313.151,242.061c2.858-2.548,5.366-5.428,7.573-8.555,1.432-2.029,2.809-4.176,3.845-6.438.449-.981.28-2.153-.718-2.736-.861-.503-2.285-.269-2.736.718-1.003,2.191-2.329,4.269-3.707,6.241-2.018,2.888-4.408,5.555-7.085,7.943-.807.719-.733,2.095,0,2.828.801.801,2.02.721,2.828,0h0Z"/><path class="i" d="M319.774,154.658c-6.606-4.281-14.035-6.905-21.931-7.188-7.12-.255-14.523,1.008-21.124,3.696-6.118,2.491-11.698,6.218-16.073,11.198-4.936,5.619-8.065,12.785-9.372,20.123-1.469,8.245-.855,17.119,1.093,25.232.601,2.502,4.459,1.443,3.857-1.063-3.148-13.111-2.612-28.634,5.842-39.76,7.754-10.203,20.618-15.143,33.154-15.44,8.156-.194,15.714,2.235,22.535,6.656,2.167,1.404,4.174-2.057,2.019-3.454h0Z"/><path class="i" d="M303.314,243.132c-8.884,4.34-19.458,6.605-28.805,2.266-4.237-1.967-8.197-4.842-10.815-8.758-2.639-3.948-4.082-8.523-4.959-13.157-1.238-6.543-1.731-13.232-2.757-19.812-.167-1.068-1.504-1.66-2.46-1.397-1.139.313-1.564,1.389-1.397,2.46.985,6.32,1.513,12.719,2.613,19.018.881,5.041,2.435,10.108,5.207,14.449,5.719,8.955,16.603,13.965,27.083,13.506,6.46-.283,12.536-2.302,18.309-5.122,2.313-1.13.287-4.58-2.019-3.454h0Z"/><path class="i" d="M327.145,206.469c1.176-.825,2.538-1.005,3.901-.544.979.331,1.439.779,1.793,1.443,1.174,2.203.672,5.395-.045,7.664-.759,2.401-2.245,4.771-4.183,6.387-1.669,1.391-4.704,2.538-6.912,1.591-.992-.426-2.144-.295-2.736.718-.493.842-.281,2.308.718,2.736,2.984,1.28,6.303.866,9.204-.474,2.66-1.229,4.777-3.759,6.165-6.28,1.419-2.576,2.258-5.322,2.4-8.27.127-2.635-.328-5.585-2.248-7.543-2.544-2.595-7.125-2.949-10.075-.88-.883.619-1.295,1.749-.718,2.736.511.874,1.848,1.341,2.736.718h0Z"/><path class="i" d="M145.316,184.767c.925,3.85,1.927,7.969,4.798,10.889,1.467,1.492,3.444,2.345,5.479,2.718,1.044.191,2.103.301,3.159.399.468.043.937.084,1.405.134.197.021.394.043.59.068-.398-.052.358.061.428.073,1.063.185,2.155-.284,2.46-1.397.265-.964-.327-2.274-1.397-2.46-.954-.166-1.917-.273-2.881-.363-.438-.041-.877-.079-1.315-.124-.237-.024-.474-.051-.71-.079-.426-.051.186.04-.275-.041-.857-.15-1.72-.32-2.527-.656.305.127-.211-.11-.25-.131-.179-.093-.354-.194-.525-.301-.355-.224-.424-.274-.812-.669-.152-.155-.295-.316-.433-.483-.062-.074-.123-.15-.183-.226.118.152.107.136-.032-.05-.211-.306-.422-.61-.614-.929-.205-.341-.394-.692-.568-1.05-.095-.195-.186-.392-.272-.591.138.32-.057-.15-.085-.224-.691-1.803-1.131-3.696-1.582-5.57-.252-1.05-1.443-1.676-2.46-1.397-1.072.295-1.65,1.407-1.397,2.46h0Z"/><path class="i" d="M222.003,146.05c1.292,7.201,2.462,14.423,3.737,21.626.745,4.207,2.472,8.042,4.115,11.973.923,2.209,1.859,4.414,2.817,6.609.313.717.626,1.433.952,2.144.093.204.186.408.284.61.109.225.084.204-.009-.05.056.151.112.302.157.458.547,1.897.623,3.337.753,5.346.176,2.726.217,5.461.215,8.192-.004,5.586-.19,11.178-.525,16.754-.154,2.571,3.846,2.562,4,0,.293-4.889.465-9.788.514-14.685.05-5.054.153-10.282-.771-15.274-.254-1.37-.803-2.564-1.369-3.824-.842-1.875-1.649-3.765-2.451-5.657-.921-2.173-1.826-4.355-2.698-6.548-.595-1.496-1.285-3.022-1.669-4.59-.929-3.79-1.373-7.769-2.024-11.617-.707-4.18-1.421-8.359-2.17-12.531-.191-1.064-1.487-1.664-2.46-1.397-1.121.308-1.588,1.393-1.397,2.46h0Z"/><path class="i" d="M206.329,151.005c.02-.237.017-.221-.009.051.021-.1.048-.199.08-.296-.101.453.039-.035.126-.189-.238.42.092-.066.187-.173.168-.143.159-.143-.027,0,.092-.069.186-.134.282-.198.426-.282.887-.529,1.356-.732-.296.129.155-.046.226-.066.121-.033.244-.06.367-.082-.217.024-.205.025.037.002.25-.005.494-.007.743.003-.465-.018.163.054.272.074-.259-.124-.299-.139-.118-.044.103.062.204.127.303.194.101.068.201.139.298.212-.16-.124-.149-.112.033.036.334.306.665.607.971.942.179.197.353.399.519.607-.182-.226.255.351.295.41.587.845,1.073,1.745,1.507,2.676.097.221.108.246.035.075.05.122.098.245.145.368.091.241.177.484.256.73.076.236.131.481.21.715.045.236.057.256.036.059.015.138.023.277.025.416.002.094-.073.793-.023.537-.042.214-.1.42-.162.629-.084.231-.096.27-.037.115-.042.086-.088.169-.138.25-.151.303.236-.289-.129.123.317-.358-.016-.018-.179.082.417-.256-.095.024-.253.064-.111.028-.222.051-.334.071.236-.026.231-.027-.015-.001-.273.014-.543.027-.816.027-1.046-.001-2.048.921-2,2,.049,1.085.879,1.999,2,2,2.163.003,4.44-.667,5.407-2.789.612-1.342.814-2.802.558-4.257-.191-1.085-.647-2.139-1.09-3.14-.873-1.973-2.135-3.898-3.745-5.348-.795-.716-1.719-1.466-2.792-1.691-1.129-.237-2.416-.225-3.511.161-1.197.422-2.407,1.072-3.34,1.942-.983.916-1.452,2.117-1.556,3.435-.082,1.046.979,2.046,2,2,1.154-.052,1.912-.88,2-2h0Z"/><path class="i" d="M204.513,155.761c.338-.152-.336.104.027-.005.157-.048.31-.103.47-.143.075-.019.523-.103.223-.058-.284.042.26.002.378.002.073,0,.145.01.217.016-.055-.004-.337-.101-.17-.009.052.029.157.045.216.058.152.034.223.163-.051-.029.132.093.285.156.418.252-.296-.216.11.14.194.234.213.238-.131-.208.062.082.064.097.124.196.186.295.153.247.078.064.158.324.03.097.053.195.08.293.087.316-.002-.274.012.039.006.148-.057.65.022.284-.038.174-.082.343-.132.513-.107.36-.034.086.005.008-.039.078-.078.155-.119.232-.083.151-.173.298-.27.44-.048.07-.097.14-.148.208.24-.324.002-.016-.057.046-.233.243-.462.482-.718.702-.076.065-.157.126-.233.192-.206.18.405-.301.068-.053-.455.334-.913.661-1.379.98-1.159.795-2.338,1.562-3.525,2.314-1.091.692-2.185,1.389-3.318,2.011-.918.504-1.292,1.845-.718,2.736.6.931,1.754,1.257,2.736.718,2.593-1.424,5.102-3.086,7.515-4.793,1.335-.944,2.635-1.955,3.457-3.407,1.338-2.365.908-5.191-.986-7.132-1.845-1.891-4.388-1.814-6.639-.803-.958.43-1.26,1.895-.718,2.736.638.99,1.712,1.178,2.736.718h0Z"/><path class="i" d="M208.756,161.939c.279-.136-.467.137.07-.002l.124-.029c.216-.04.17-.037-.138.007.062-.115.897-.009.997-.004-.322-.017-.207-.035.047.024.162.038.326.118.488.145.14.052.091.032-.149-.062.084.041.166.086.246.135.147.1.155.1.023.001-.127-.104-.125-.098.007.017.16.347-.191-.368.057.071s-.053-.276.061.116c.043.147.094.288.132.437.016.062.105.647.078.349-.027-.305.008.309.008.365,0,.159-.011.315-.023.473.04-.522-.036.035-.059.156-.02.074-.043.147-.07.219.109-.241.115-.261.018-.061-.119.183-.245.325-.026.093-.161.17-.326.315-.508.463-.177.144-.357.286-.537.427.046-.036-.52.406-.313.246-.831.643-1.68,1.263-2.539,1.867-1.654,1.161-3.357,2.248-5.1,3.271-.903.53-1.303,1.827-.718,2.736s1.771,1.284,2.736.718c1.646-.966,3.258-1.989,4.825-3.078.8-.556,1.588-1.128,2.365-1.716.819-.62,1.725-1.219,2.46-1.94,2.369-2.323,1.919-7.339-1.168-8.849-1.684-.824-3.723-.874-5.413-.048-.942.46-1.273,1.875-.718,2.736.623.966,1.728,1.21,2.736.718h0Z"/><path class="i" d="M211.954,168.611c.494.034,1.232.052,1.48.537.438.857-.587,1.893-1.105,2.449-1.543,1.658-2.453,3.067-2.198,5.438.203,1.897.776,3.821.73,5.737-.023.97-.324,1.989-.772,2.846-.095.181-.346.484-.412.694-.165.524.019.085.044.067-.26.178-.567.305-.852.435-1.734.791-3.568,1.406-5.375,2.006-1.674.556-3.232,1.485-4.956.614-3.29-1.663-5.008-5.896-6.46-9.043-1.634-3.543-3.297-7.079-4.896-10.637-.638-1.42-1.256-2.852-1.819-4.304-.241-.622-.48-1.248-.675-1.886-.072-.236-.133-.472-.19-.712.037.155.045.703.006-.04-.019-.356-.051-.711-.063-1.067-.03-.913-.025-1.851.172-2.746.102-.463.229-.92.444-1.344.091-.18.211-.344.31-.518.238-.421.331-.351.077-.157.943-.72,2.038-1.287,3.06-1.882,3.056-1.778,6.153-3.514,9.323-5.08.708-.35.704-.417,1.478-.539.714-.113,1.699-.108,2.282.383.67.564.714,1.497.366,2.227-.13.272-.07.16-.425.494-.182.171-.499.435-.607.519-2.633,2.052-5.645,3.702-8.555,5.325-2.248,1.254-.234,4.71,2.019,3.454,3.171-1.769,6.397-3.593,9.245-5.857,1.752-1.393,2.82-3.343,2.467-5.648-.431-2.812-2.644-4.627-5.395-4.902-1.933-.193-3.623.449-5.311,1.299-1.846.929-3.662,1.919-5.469,2.921-1.733.962-3.462,1.936-5.154,2.969-1.64,1.001-2.852,2.06-3.592,3.92-.875,2.2-1.004,5.015-.536,7.334.326,1.612,1.083,3.185,1.716,4.692,1.703,4.055,3.663,7.993,5.456,12.009,1.922,4.305,4.029,9.41,8.226,11.998,2.241,1.382,4.654,1.502,7.101.587,2.217-.828,4.473-1.551,6.659-2.464.863-.36,1.865-.694,2.545-1.37,1.151-1.145,1.894-2.955,2.243-4.51.597-2.662-.16-5.177-.455-7.822-.154-1.379.129-1.643,1.027-2.61,1.169-1.258,2.201-2.696,2.326-4.461.244-3.451-2.471-5.142-5.529-5.355-2.569-.178-2.558,3.822,0,4h0Z"/><path class="i" d="M161.575,166.085c1.706,4.049,3.901,7.852,7.113,10.905,3.18,3.023,7.039,5.141,11.055,6.836l-.405-3.141c-3.55,3.241-7.724,5.742-11.661,8.473h2.019c-3.87-2.831-7.098-6.865-9.227-11.144-1.147-2.305-4.598-.281-3.454,2.019,2.447,4.918,6.234,9.34,10.662,12.579.529.387,1.487.369,2.019,0,4.217-2.925,8.668-5.626,12.47-9.098.861-.786.771-2.645-.405-3.141-3.591-1.516-7.14-3.33-10.02-5.999-2.798-2.593-4.834-5.85-6.309-9.351-.419-.995-1.322-1.71-2.46-1.397-.937.258-1.819,1.458-1.397,2.46h0Z"/><path class="e" d="M137.528,124.879c9.636,1.485,18.117,4.587,25.826,8.921.818.46,4.03,3.127,4.5,3.778,1.062,1.472,1.614,5.783,1.37,8.753-.101,1.234-.737,2.523-2.059,1.896-8.867-4.204-19.24-6.109-30.964-7.961-12.792-2.021-43.014,1.868-54.696,6.042-1.251.447-2.869-.721-3.06-1.833-.616-3.58.585-10.676,1.601-14.216.169-.588.379-1.906,1.992-2.666,9.815-4.625,36.939-5.57,55.489-2.712Z"/><path class="i" d="M136.996,126.808c8.287,1.301,16.299,3.882,23.71,7.824,1.146.61,2.178,1.224,3.168,2.032.509.416,1.013.84,1.502,1.278.202.181.404.362.597.552.12.118.484.628.269.269.698,1.167.845,2.789.955,4.118.071.862.1,1.729.073,2.594-.01.301-.087.645-.071.938.002.044-.111.289-.101.315-.224.278.08.175.914-.311l-.194-.083c-.221-.272-.922-.42-1.257-.565-.461-.2-.923-.397-1.387-.588-.921-.381-1.851-.74-2.789-1.078-1.856-.668-3.74-1.254-5.641-1.779-4.104-1.133-8.282-1.984-12.472-2.732-3.531-.63-7.089-1.321-10.666-1.636-2.71-.239-5.437-.27-8.155-.222-6.497.115-12.99.701-19.433,1.527-6.315.81-12.627,1.814-18.818,3.317-1.207.293-2.408.607-3.6.956-.635.186-2.268,1.041-2.87.815-.817-.306-.458-2.584-.431-3.277.066-1.674.259-3.342.531-4.994.264-1.607.584-3.21,1.006-4.784.316-1.181.449-1.654,1.668-2.181.208-.09.042-.017,0,0,.132-.054.265-.108.399-.158.243-.091.487-.182.732-.268.563-.197,1.133-.376,1.706-.541,1.249-.361,2.517-.658,3.791-.918,6.487-1.322,13.163-1.755,19.769-1.914,7.412-.179,14.854.069,22.227.865,1.627.176,3.25.383,4.868.63,1.067.163,2.15-.269,2.46-1.397.26-.946-.323-2.297-1.397-2.46-7.79-1.187-15.68-1.676-23.557-1.689-7.613-.012-15.274.385-22.794,1.624-2.785.459-5.581,1.036-8.246,1.981-1.39.493-2.944,1.024-3.969,2.132-1.006,1.088-1.347,2.521-1.692,3.917-.878,3.558-1.493,7.308-1.524,10.979-.015,1.787.036,3.703,1.353,5.061,1.412,1.456,3.261,1.657,5.092,1.041,5.722-1.925,11.763-2.998,17.712-3.936,7.027-1.109,14.124-1.877,21.232-2.206,3.127-.144,6.263-.203,9.392-.066,3.437.151,6.235.646,9.68,1.229,8.72,1.476,17.298,3.351,25.415,6.934,2.105.929,4.106.019,4.818-2.186.558-1.729.352-3.864.15-5.638s-.457-3.719-1.372-5.287c-.62-1.064-1.675-1.862-2.604-2.639-2.849-2.381-6.093-3.989-9.481-5.485-4.138-1.828-8.411-3.324-12.804-4.408-2.247-.555-4.517-.999-6.803-1.358-1.066-.167-2.151.273-2.46,1.397-.261.95.323,2.292,1.397,2.46Z"/><path class="i" d="M251.202,167.919c-4.599-17.505-9.883-34.822-14.256-52.387-.622-2.497-4.48-1.439-3.857,1.063,4.373,17.565,9.658,34.882,14.256,52.387.654,2.488,4.513,1.433,3.857-1.063h0Z"/><path class="i" d="M287.13,141.297c-3.052-13.313-4.76-26.896-5.765-40.507-.188-2.552-4.19-2.572-4,0,1.031,13.96,2.777,27.916,5.908,41.57.575,2.508,4.432,1.447,3.857-1.063h0Z"/><path class="i" d="M249.334,280.861c7.685-11.695,22.055-15.698,34.776-19.194,2.479-.681,1.426-4.541-1.063-3.857-13.851,3.807-28.839,8.361-37.166,21.032-1.418,2.158,2.044,4.164,3.454,2.019h0Z"/><path class="i" d="M326.26,253.384c4.817-.318,9.635-.637,14.452-.955,4.625-.305,9.309-.666,13.929-.102,8.621,1.053,16.421,5.384,23.912,9.493,2.258,1.239,4.279-2.214,2.019-3.454-7.841-4.301-15.94-8.678-24.922-9.909-4.8-.658-9.624-.379-14.439-.061-4.983.328-9.967.659-14.95.988-2.555.169-2.574,4.17,0,4h0Z"/><path class="i" d="M287.637,250.241c-1.273,2.308-2.554,4.614-3.781,6.947-.346.657-.82,1.393-1.001,2.119-.228.911.229,1.665.639,2.432,2.41,4.516,5.04,8.978,7.879,13.237.839,1.259,2.627,1.319,3.454,0,2.371-3.78,4.329-7.797,6.608-11.631.414-.697.361-1.874-.313-2.424-2.345-1.911-4.402-4.19-6.408-6.444-.889-.999-1.765-2.01-2.625-3.034-.287-.342-.574-.685-.856-1.032-.091-.112-.179-.229-.273-.339-.253-.295.275.374.132.169-.616-.885-1.752-1.293-2.736-.718-.876.513-1.338,1.845-.718,2.736,1.192,1.713,2.677,3.274,4.058,4.832,2.064,2.329,4.18,4.687,6.598,6.657l-.313-2.424c-2.279,3.834-4.237,7.851-6.608,11.631h3.454c-1.832-2.748-3.513-5.599-5.173-8.453-.722-1.241-1.437-2.485-2.134-3.74-.236-.424-.471-.848-.696-1.278-.07-.134-.13-.276-.208-.406-.205-.343.133.442.097.226v1.063c.033-.181-.286.548-.01.024.142-.269.272-.544.412-.814.397-.764.806-1.522,1.215-2.279.912-1.685,1.836-3.364,2.762-5.041,1.244-2.256-2.209-4.276-3.454-2.019Z"/><path class="i" d="M327.085,249.547c-.46-1.38-1.487-2.659-2.261-3.867-1.238-1.933-2.501-3.853-3.834-5.722-.896-1.258-2.566-1.306-3.454,0-4.796,7.057-10.135,13.685-16.464,19.433-.84.763-.681,2.044,0,2.828.987,1.137,2.215,2.087,3.376,3.036,1.772,1.446,3.585,2.842,5.409,4.221,1.571,1.189,3.153,2.362,4.751,3.513.84.605,1.717,1.399,2.713,1.739,1.012.345,2.202-.398,2.46-1.397.74-2.855,1.793-5.655,2.71-8.456,1.267-3.87,2.547-7.736,3.789-11.614.307-.96.889-2.145.876-3.182-.033-2.572-4.033-2.579-4,0-.01-.804.006-.246-.13.204-.161.533-.331,1.062-.5,1.592-.545,1.709-1.102,3.414-1.659,5.119-1.287,3.939-2.587,7.873-3.861,11.816-.37,1.146-.779,2.291-1.081,3.458l2.46-1.397c.916.312.015-.084-.29-.295-.521-.359-1.036-.729-1.549-1.099-1.571-1.132-3.126-2.286-4.67-3.455-2.694-2.039-5.747-4.065-7.976-6.632v2.828c6.574-5.971,12.107-12.913,17.089-20.243h-3.454c1.27,1.782,2.476,3.61,3.659,5.451.489.76.974,1.523,1.447,2.293.171.278.343.556.506.839.135.235.343.842.079.051.81,2.43,4.675,1.388,3.857-1.063Z"/><path class="i" d="M314.504,237.663c.337,1.783.769,3.551,1.34,5.275.164.494.462.928.919,1.195.429.251,1.061.357,1.541.202.988-.32,1.75-1.397,1.397-2.46-.572-1.723-1.004-3.491-1.34-5.275-.089-.469-.52-.962-.919-1.195-.429-.251-1.061-.357-1.541-.202-.484.157-.951.457-1.195.919-.263.498-.306.987-.202,1.541h0Z"/><path class="i" d="M283.975,64.539l.003-.002c.602-.312,1.011-1.056.991-1.727-.12-3.908-.712-7.807-1.374-11.655-.587-3.406-1.27-6.758-2.521-9.994-2.954-7.642-7.884-14.797-14.675-19.501-2.121-1.469-4.123,1.996-2.019,3.454,6.084,4.214,10.611,10.977,13.121,17.867,1.092,2.999,1.697,6.101,2.237,9.237.603,3.501,1.122,7.036,1.232,10.591l.991-1.727-.003.002c-2.286,1.186-.265,4.639,2.019,3.454h0Z"/><path class="f" d="M231.369,95.384c2.095.712,5.542.38,7.558-.763.612-.347,1.261-.885,1.933-1.328"/><path class="i" d="M239.166,75.068c-.739-1.651-.879-5.64,2.33-6.374,4.299-.501,5.113,4.242,3.943,6.663-.959,1.982-4.346,3.173-6.273-.289Z"/><path class="i" d="M213.759,78.998c-.7-1.663-.881-5.658,2.055-6.351,3.939-.445,4.749,4.315,3.706,6.723-.854,1.972-3.947,3.119-5.761-.372Z"/><path class="i" d="M227.242,80.991c-.411,1.029-.788,2.071-1.113,3.13-.159.518-.23,1.05-.157,1.588.118.879.595,1.514,1.347,1.98.536.332,1.111.481,1.733.528.225.017.446-.014.671-.016.516-.005,1.048-.219,1.414-.586.347-.347.608-.916.586-1.414-.048-1.074-.879-2.012-2-2-.252.003-.499.039-.751.006l.532.071c-.121-.02-.235-.052-.349-.095l.478.202c-.169-.072-.321-.163-.47-.271l.405.313c-.032-.024-.061-.051-.087-.082l.313.405c-.036-.048-.062-.092-.087-.147l.202.478c-.02-.057-.033-.11-.043-.17l.071.532c-.01-.106-.006-.208.006-.314l-.071.532c.097-.635.362-1.27.577-1.873.207-.581.423-1.16.652-1.733.18-.451.033-1.141-.202-1.541-.243-.415-.718-.811-1.195-.919-.512-.117-1.087-.091-1.541.202l-.405.313c-.248.25-.419.544-.514.883h0Z"/><path class="i" d="M263.427,100.244c3.931-4.571,7.271-10.044,9.053-15.846.317-1.032-.377-2.18-1.397-2.46-1.07-.294-2.142.361-2.46,1.397-.173.562-.377,1.113-.591,1.661-.118.302-.24.603-.364.904-.057.137-.114.275-.171.411.056-.134.107-.249.019-.048-.439,1.01-.92,1.999-1.429,2.976-1.524,2.925-3.337,5.675-5.488,8.176-.704.818-.804,2.024,0,2.828.72.72,2.121.823,2.828,0h0Z"/><path class="i" d="M259.139,17.744c-6.708-3.18-13.956-4.846-21.392-4.121-6.746.659-13.462,2.7-19.383,6.012-5.463,3.055-10.197,7.319-13.712,12.503-3.965,5.847-5.923,12.966-6.284,19.98-.399,7.757,1.29,15.972,4.068,23.187.388,1.007,1.345,1.703,2.46,1.397.963-.265,1.787-1.447,1.397-2.46-4.564-11.855-6.129-26.416.424-37.869,5.98-10.453,17.157-16.526,28.784-18.453,7.429-1.232,14.842.067,21.619,3.279,2.314,1.097,4.346-2.351,2.019-3.454h0Z"/><path class="i" d="M254.62,101.944c-8.038,5.337-17.656,8.725-27.212,5.622-4.253-1.381-8.149-3.736-11.044-7.167-2.727-3.232-4.506-7.23-5.788-11.225-1.867-5.817-3.153-11.822-4.881-17.683-.726-2.464-4.588-1.415-3.857,1.063,1.673,5.673,2.955,11.465,4.701,17.114,1.406,4.548,3.374,8.954,6.319,12.72,6.343,8.111,17.307,11.569,27.284,9.954,5.983-.968,11.482-3.615,16.496-6.945,2.135-1.418.134-4.883-2.019-3.454h0Z"/><path class="i" d="M272.396,65.017c.92-.842,2.23-1.046,3.423-.772.276.063.505.143.743.266.051.026.545.354.317.179.174.133.316.301.469.456.098.114.079.084-.056-.091.056.075.11.152.162.231,1.212,2.016,1.337,4.768.894,7.038-.451,2.305-1.454,4.681-3.074,6.404-.24.255-.497.491-.75.732-.32.269-.367.314-.14.134-.11.079-.222.154-.337.226-.448.27-.904.529-1.39.724-1.189.477-2.484.778-3.742.429-2.484-.69-3.544,3.168-1.063,3.857,2.784.774,6.03-.079,8.39-1.671,2.43-1.639,4.043-4.224,5.088-6.909.974-2.504,1.409-5.191,1.126-7.874-.268-2.537-1.002-5.183-3.111-6.8-2.879-2.207-7.162-1.781-9.777.613-1.903,1.742.932,4.564,2.828,2.828h0Z"/><path class="i" d="M244.183,43.345c2.136,4.49,4.543,9.041,7.725,12.889,2.992,3.617,6.777,7.272,11.281,8.864,1.018.36,2.189-.408,2.46-1.397.304-1.105-.375-2.099-1.397-2.46-3.854-1.363-7.17-4.952-9.697-8.056-2.854-3.506-4.987-7.8-6.919-11.859-.464-.975-1.861-1.23-2.736-.718-.998.584-1.183,1.757-.718,2.736h0Z"/><path class="i" d="M244.083,41.139c-2.442,3.656-5.545,6.825-8.968,9.57-1.759,1.411-3.635,2.684-5.562,3.854-.961.583-1.938,1.138-2.93,1.666-.673.358-2.443,1.506-2.973,1.446l1.009.273.146.146.273,1.009c-.134-1.207.085-2.516.107-3.734.024-1.299.011-2.598-.023-3.896-.043-1.632-2.219-2.769-3.414-1.414-5.881,6.669-11.872,13.257-18.415,19.287-1.897,1.748.937,4.571,2.828,2.828,6.543-6.029,12.534-12.618,18.415-19.287l-3.414-1.414c.056,2.114.046,4.228-.061,6.34-.09,1.784.422,3.712,2.548,3.861,1.601.112,3.431-1.169,4.805-1.893,1.551-.817,3.067-1.702,4.538-2.655,5.687-3.683,10.768-8.316,14.543-13.968,1.434-2.147-2.03-4.152-3.454-2.019h0Z"/><path class="e" d="M234.646,38.216c14.895-1.181,30.264,1.904,43.074,5.005.848.205,3.748,1.959,4.095,2.62.797,1.515,2.07,5.734,2.217,8.504.061,1.151-.319,2.236-1.662,2.006-12.387-2.117-28.307-4.955-45.643-2.617-10.475,1.412-23.498,7.625-33.602,11.572-1.152.45-2.736-.306-3.052-1.308-1.016-3.224-.797-9.919-.303-13.312.082-.564.028-1.948,1.503-2.708,6.483-3.34,18.181-8.558,33.371-9.762Z"/><path class="i" d="M234.646,40.216c7.495-.571,15.045-.142,22.478.923,3.543.508,7.066,1.144,10.571,1.867,1.652.34,3.3.7,4.944,1.074,1.538.35,3.187.603,4.683,1.11.521.176,1.753.925,2.455,1.451.147.11.573.622.31.21.273.428.415.96.59,1.473.426,1.247.774,2.526,1.04,3.817.129.625.248,1.253.293,1.89.004.057-.004.655.033.684-.307-.235,1.385-.213.153-.413-6.2-1.004-12.379-2.079-18.631-2.723-7.135-.735-14.332-.971-21.489-.412-6.865.535-13.331,2.037-19.805,4.357-6.175,2.213-12.177,4.863-18.265,7.295-.514.205-1.667.964-2.075.405-.264-.362-.285-1.245-.345-1.679-.098-.71-.142-1.432-.178-2.148-.132-2.633-.048-5.298.26-7.916.127-1.08-.078-1.41,1.024-1.985.976-.509,1.971-.986,2.968-1.453,2.407-1.129,4.861-2.148,7.362-3.053,6.967-2.52,14.238-4.167,21.625-4.774,2.547-.209,2.57-4.211,0-4-7.271.597-14.445,2.071-21.345,4.443-2.751.946-5.454,2.03-8.109,3.219-1.082.484-2.154.989-3.217,1.512-1.109.546-2.288,1.035-3.09,2.011-.462.561-.78,1.221-.934,1.932-.162.746-.153,1.137-.214,1.608-.185,1.422-.29,2.853-.343,4.285-.107,2.91-.169,6.11.647,8.935.448,1.552,1.571,2.713,3.167,3.117,1.723.437,3.199-.332,4.762-.964,3.324-1.343,6.625-2.741,9.949-4.084,6.593-2.663,13.375-5.317,20.432-6.435,7.877-1.247,16.033-1.159,23.962-.517,6.933.561,13.793,1.677,20.645,2.849,1.69.289,3.473.434,4.494-1.258.861-1.427.573-3.163.323-4.719s-.644-3.087-1.134-4.58c-.369-1.126-.742-2.483-1.575-3.362-1.813-1.911-4.378-2.822-6.857-3.407-3.718-.878-7.452-1.694-11.209-2.394-7.978-1.486-16.093-2.5-24.22-2.45-2.047.013-4.092.1-6.134.256-2.551.194-2.572,4.196,0,4Z"/><path class="i" d="M206.377,142.326c1.776-3.106,3.36-6.216,5.692-8.964,2.507-2.954,5.434-5.503,8.719-7.557,6.943-4.342,15.049-7.065,19.7-14.26,1.402-2.168-2.06-4.176-3.454-2.019-4.508,6.973-13.188,9.301-19.731,13.783-3.213,2.201-6.135,4.835-8.591,7.86-2.317,2.854-3.974,5.964-5.788,9.137-1.28,2.238,2.175,4.256,3.454,2.019h0Z"/><path class="i" d="M264.515,93.339c2.129,5.309,6.878,9.46,12.582,10.443,1.027.177,2.204-.273,2.46-1.397.221-.971-.294-2.27-1.397-2.46-.59-.102-1.174-.235-1.747-.409-.286-.087-.569-.183-.85-.288-.127-.048-.253-.1-.38-.148.444.168-.059-.029-.121-.057-.544-.25-1.073-.533-1.583-.846-.255-.157-.506-.321-.751-.493-.112-.078-.221-.159-.332-.238-.44-.318.305.259-.112-.087-.462-.383-.908-.78-1.328-1.21-.19-.195-.375-.395-.554-.6-.107-.123-.211-.249-.316-.374-.273-.323.182.264-.089-.11-.336-.463-.656-.934-.941-1.43-.149-.259-.291-.523-.423-.791-.072-.147-.14-.295-.209-.443-.182-.388.122.311-.052-.124-.388-.968-1.352-1.755-2.46-1.397-.936.303-1.814,1.42-1.397,2.46h0Z"/><path class="i" d="M282.019,103.426c8.518-3.258,16.891-6.9,25.066-10.942,6.952-3.437,15.125-6.923,18.856-14.233,1.168-2.288-2.282-4.315-3.454-2.019-1.534,3.005-4.24,5.538-7.054,7.346-3.389,2.177-7.18,3.884-10.789,5.661-7.733,3.807-15.638,7.251-23.689,10.331-1.008.386-1.703,1.347-1.397,2.46.265.965,1.446,1.785,2.46,1.397h0Z"/><path class="i" d="M332.514,74.646c-3.521-5.525-7.351-10.777-11.705-15.677-4.757-5.354-9.72-10.528-14.576-15.793v2.828c6.545-6.441,13.525-12.482,21.13-17.644l-2.424-.313c1.893,2.226,4.132,4.21,6.221,6.246,3.482,3.395,6.986,6.767,10.492,10.137,2.719,2.613,5.445,5.217,8.155,7.84,3.881,3.756,7.467,7.943,10.815,12.174,2.478,3.131,4.784,6.471,6.658,10.001,1.477,2.782,2.356,6.627,1.921,9.775-.489,3.545-2.858,7.116-5.127,9.797-2.039,2.41-4.447,4.495-6.994,6.35-7.396,5.388-15.121,10.353-22.676,15.514-7.706,5.265-15.463,10.485-22.766,16.304l-1.645,1.31c-.845.674-.703,2.125,0,2.828.835.835,1.981.675,2.828,0,1.314-1.047,2.627-2.097,3.943-3.142.036-.028.192-.153.025-.022-.181.142.275-.21.327-.25.367-.279.737-.556,1.108-.831.833-.618,1.672-1.229,2.514-1.835,4.368-3.144,8.803-6.196,13.242-9.238,8.127-5.571,16.377-10.977,24.413-16.68,5.329-3.782,10.01-8.279,12.952-14.195,1.839-3.697,2.224-7.274,1.505-11.309-.698-3.917-2.458-7.243-4.594-10.557-5.759-8.933-13.233-16.538-20.86-23.861-6.302-6.051-12.747-12.001-18.807-18.296-.28-.291-.562-.581-.823-.889-.537-.632-1.738-.778-2.424-.313-7.885,5.352-15.154,11.591-21.94,18.27-.792.78-.729,2.038,0,2.828,4.764,5.165,9.627,10.247,14.306,15.49,4.234,4.745,7.933,9.811,11.349,15.171,1.38,2.164,4.843.16,3.454-2.019h0Z"/><path class="i" d="M307.102,130.526c-.355,1.849.029,3.715.399,5.536.376,1.851.822,3.688,1.285,5.519,1.083,4.278,2.282,8.53,3.598,12.743.765,2.449,4.627,1.404,3.857-1.063-1.248-3.996-2.388-8.027-3.429-12.082-.451-1.758-.884-3.521-1.268-5.294-.145-.671-.284-1.344-.404-2.02-.052-.29-.101-.581-.144-.873.075.512-.03-.282-.043-.446-.024-.318-.055-.639.006-.956.483-2.515-3.371-3.593-3.857-1.063h0Z"/><path class="i" d="M235.638,124.312c2.783,2.824,6.375,4.434,10.234,5.181,4.103.794,8.375,1.221,12.503.45,6.639-1.241,13.242-4.64,17.53-9.984,2.246-2.8,3.855-5.982,5.419-9.196,1.122-2.305-2.327-4.336-3.454-2.019-2.367,4.864-4.823,9.485-9.368,12.643-2.725,1.894-5.559,3.403-8.795,4.188-1.805.438-3.65.828-5.515.825-1.818-.002-3.688-.226-5.489-.472-3.814-.521-7.476-1.645-10.236-4.447-1.81-1.837-4.638.992-2.828,2.828h0Z"/><path class="i" d="M285.354,61.599c5.818,4.276,12.49,7.604,19.322,9.917l-.883-3.343c-3.46,3.781-7.236,7.245-10.864,10.861h2.828c-3.202-2.72-6.018-5.803-8.52-9.173-.643-.866-1.732-1.305-2.736-.718-.854.499-1.365,1.864-.718,2.736,2.71,3.651,5.673,7.034,9.146,9.983.825.7,2.012.814,2.828,0,3.628-3.616,7.403-7.079,10.864-10.861,1.049-1.146.568-2.852-.883-3.343-6.512-2.205-12.824-5.44-18.366-9.513-.871-.64-2.231-.146-2.736.718-.594,1.015-.155,2.095.718,2.736h0Z"/><path class="i" d="M111.024,201.603c-7.493,2.277-15.005,4.589-22.095,7.957-3.331,1.582-6.786,3.341-9.405,5.994-2.633,2.668-4.011,6.248-5.948,9.397-2.229,3.623-4.866,6.942-7.851,9.969-1.809,1.835,1.017,4.665,2.828,2.828,3.317-3.364,6.261-7.111,8.706-11.155,1.155-1.91,2.098-3.942,3.269-5.841,1.203-1.951,2.814-3.446,4.735-4.678,8.084-5.184,17.723-7.849,26.824-10.615,2.456-.746,1.409-4.608-1.063-3.857h0Z"/><path class="i" d="M63.066,257.238c-.53-9.02-.678-18.064-1.598-27.058-.145-1.414-1.155-2.121-2.532-1.929-9.767,1.363-19.571,2.537-29.314,4.064-.924.145-1.382,1.119-1.468,1.929-.81,7.598-1.197,15.267-1.471,22.901-.34,9.49-.703,19.66,2.415,28.757,1.672,4.876,4.484,10.17,9.382,12.419,4.647,2.134,9.986,1.502,14.75.104,6.906-2.026,13.189-6.107,19.198-9.955,6.904-4.422,13.905-9.051,20.074-14.476,1.937-1.703-.901-4.523-2.828-2.828-5.003,4.4-10.631,8.172-16.183,11.844-3.298,2.182-6.643,4.298-10.062,6.285-1.473.856-2.96,1.688-4.472,2.473-1.103.572-2.672,1.337-3.506,1.677-3.743,1.524-8.152,2.73-12.219,2.155-4.994-.706-7.893-4.799-9.691-9.188-3.483-8.506-3.188-18.298-2.922-27.331.244-8.277.657-16.6,1.534-24.837l-1.468,1.929c9.743-1.528,19.547-2.701,29.314-4.064l-2.532-1.929c.92,8.994,1.068,18.038,1.598,27.058.15,2.558,4.151,2.576,4,0h0Z"/><path class="i" d="M82.535,235.564c5.422,15.759,11.208,31.393,17.363,46.881,1.771,4.457,3.574,8.902,5.405,13.336.412.998,1.327,1.708,2.46,1.397.943-.259,1.812-1.456,1.397-2.46-6.361-15.405-12.366-30.955-17.998-46.641-1.621-4.514-3.21-9.04-4.771-13.576-.833-2.42-4.698-1.38-3.857,1.063h0Z"/><path class="i" d="M160.11,198.355c8.359-.315,16.766-.616,25.099.303,8.289.915,16.088,3.386,23.369,7.447,4.088,2.28,7.987,4.877,11.879,7.471,2.148,1.432,4.153-2.032,2.019-3.454-7.099-4.731-14.294-9.451-22.402-12.278s-16.788-3.671-25.327-3.783c-4.881-.064-9.761.11-14.637.294-2.566.097-2.579,4.097,0,4h0Z"/><path class="i" d="M195.79,244.253c.32,12.319,1.227,24.558,2.488,36.812.111,1.074.84,2,2,2,.996,0,2.111-.919,2-2-1.262-12.254-2.168-24.493-2.488-36.812-.067-2.569-4.067-2.579-4,0h0Z"/><path class="i" d="M109.901,45.971c-16.372-9.695-32.628-19.585-48.898-29.452-4.333-2.627-8.666-5.254-13.003-7.874-2.209-1.335-4.222,2.123-2.019,3.454,16.102,9.728,32.16,19.531,48.292,29.209,4.529,2.717,9.065,5.425,13.61,8.116,2.22,1.315,4.235-2.142,2.019-3.454h0Z"/><path class="i" d="M82.957,63.87c-8.735-1.97-17.47-3.94-26.205-5.909-13.173-2.971-26.346-5.941-39.52-8.912-4.912-1.108-9.824-2.215-14.736-3.323-2.507-.565-3.577,3.29-1.063,3.857,10.513,2.371,21.025,4.741,31.538,7.112,12.675,2.858,25.351,5.717,38.026,8.575,3.632.819,7.264,1.638,10.896,2.457,2.507.565,3.577-3.29,1.063-3.857h0Z"/><path class="i" d="M63.397,87.486c-13.274,1.582-26.607,2.743-39.909,4.065-2.691.267-5.382.533-8.073.805-1.075.109-2,.841-2,2,0,.997.919,2.109,2,2,13.442-1.36,26.891-2.654,40.33-4.046,2.551-.264,5.104-.521,7.651-.824,1.072-.128,2-.828,2-2,0-.982-.92-2.129-2-2h0Z"/><path class="e" d="M309.04,177.423c9.604,1.682,18.019,4.959,25.637,9.45.808.476,3.965,3.209,4.421,3.869,1.032,1.494,1.495,5.815,1.19,8.779-.127,1.232-.788,2.507-2.097,1.853-8.779-4.385-19.111-6.504-30.793-8.596-12.748-2.283-43.044.984-54.808,4.916-1.26.421-2.853-.78-3.022-1.896-.542-3.591.805-10.661,1.893-14.18.181-.585.418-1.898,2.046-2.624,9.908-4.422,37.045-4.81,55.533-1.571Z"/><path class="i" d="M308.509,179.351c8.264,1.472,16.207,4.224,23.54,8.319,1.265.707,2.115,1.25,3.119,2.105.501.426.995.86,1.476,1.309.198.185.388.378.586.564.069.065.13.138.197.203.303.294-.152-.309.001-.011.604,1.174.799,2.679.894,4.041.061.867.078,1.739.041,2.607-.013.291-.145.724-.087,1.001,0,.004-.085.258-.069.288.875-.014,1.125-.099.75-.253-.095-.046-.19-.092-.284-.138-1.58-1.028-3.646-1.652-5.401-2.319-1.846-.701-3.722-1.321-5.616-1.882-4.089-1.21-8.255-2.142-12.435-2.973-6.201-1.233-12.229-2.172-18.559-2.189-6.556-.019-13.118.441-19.633,1.146-6.225.673-12.455,1.548-18.574,2.893-1.219.268-2.433.556-3.638.88-.519.139-1.035.285-1.55.439-.24.072-.48.146-.719.222-.231.074-.484.183-.489.182-1.062-.198-.62-2.446-.578-3.226.095-1.73.338-3.446.654-5.149.289-1.556.631-3.107,1.066-4.629.119-.416.234-.994.407-1.322.065-.123.238-.35.392-.473.122-.098.817-.398.596-.303,2.201-.941,4.619-1.452,6.963-1.883,6.481-1.193,13.145-1.481,19.722-1.511,7.46-.034,14.941.366,22.341,1.316,1.634.21,3.263.463,4.886.745,1.063.184,2.155-.284,2.46-1.397.265-.963-.327-2.275-1.397-2.46-7.808-1.355-15.744-1.996-23.663-2.165-7.593-.162-15.229.091-22.753,1.18-2.8.406-5.615.929-8.302,1.832-1.374.461-2.886.964-3.907,2.037-1.049,1.101-1.414,2.607-1.792,4.035-.939,3.547-1.622,7.29-1.704,10.964-.038,1.726-.004,3.606,1.282,4.917,1.473,1.501,3.268,1.669,5.183,1.074,5.731-1.782,11.755-2.732,17.688-3.54,7.047-.96,14.163-1.576,21.274-1.758,3.085-.079,6.177-.074,9.258.119,3.304.207,6.2.767,9.558,1.404,8.689,1.648,17.272,3.66,25.313,7.421,2.118.991,4.173.299,4.986-1.983.636-1.785.454-4.046.266-5.898-.176-1.733-.404-3.694-1.32-5.222-.634-1.058-1.695-1.885-2.613-2.681-2.761-2.392-5.964-4.036-9.263-5.576-4.096-1.912-8.349-3.488-12.715-4.661-2.235-.601-4.496-1.092-6.774-1.498-1.062-.189-2.155.288-2.46,1.397-.266.967.328,2.27,1.397,2.46Z"/><path class="j" d="M183.076,147.911c-6.875-11.366-24.317-39.516-30.813-51.771-.613-1.156-.206-2.556.886-3.276,5.302-3.494,9.925-5.661,16.203-7.864,5.284-1.854,12.364-3.69,18.089-4.199,1.402-.125,2.656.843,2.837,2.238,1.613,12.425,5.825,44.25,7.798,58.538"/><path class="i" d="M184.803,146.902c-10.104-16.699-20.706-33.166-30.033-50.319-.29-.534-.994-1.433-.733-1.85.336-.536,1.372-.953,1.906-1.284.693-.429,1.393-.847,2.101-1.251,2.75-1.569,5.615-2.917,8.565-4.063,6.277-2.439,12.936-4.433,19.643-5.211.826-.096,1.814-.443,2.077.509.246.888.251,1.924.37,2.839.278,2.124.556,4.249.835,6.373.678,5.156,1.359,10.312,2.043,15.468,1.504,11.335,3.006,22.671,4.57,33.998.148,1.071,1.517,1.656,2.46,1.397,1.154-.317,1.545-1.386,1.397-2.46-1.434-10.392-2.814-20.791-4.195-31.189-.736-5.542-1.469-11.084-2.198-16.626-.295-2.24-.589-4.481-.882-6.722-.303-2.315-.195-5.167-2.201-6.729-1.417-1.103-2.995-1.016-4.681-.808-1.796.222-3.582.514-5.356.875-3.51.715-6.979,1.653-10.378,2.782-3.361,1.116-6.682,2.403-9.884,3.921-1.49.706-2.951,1.472-4.38,2.293-1.461.84-3.146,1.677-4.397,2.818-1.238,1.129-1.74,2.913-1.309,4.524.274,1.021.944,2.003,1.45,2.926,1.089,1.989,2.209,3.961,3.34,5.927,2.725,4.735,5.518,9.431,8.329,14.116,5.506,9.175,11.109,18.29,16.669,27.432.473.777.945,1.554,1.415,2.333,1.331,2.2,4.791.191,3.454-2.019h0Z"/><path class="i" d="M280.641,96.194c2.879-2.004,6.028-4.231,7.811-7.342,1.346-2.349,1.529-4.989.879-7.585-.625-2.493-1.66-4.888-2.37-7.361-1.041-3.629-1.691-7.333-1.992-11.095-.204-2.549-4.206-2.57-4,0,.501,6.246,2.036,12.055,4.027,17.96.659,1.954,1.097,3.819.246,5.606-1.306,2.744-4.212,4.686-6.62,6.363-2.098,1.461-.101,4.93,2.019,3.454h0Z"/></g></g></svg>